<?xml version="1.0" encoding="UTF-8" standalone="no"?>
<!DOCTYPE svg PUBLIC "-//W3C//DTD SVG 1.1//EN" "http://www.w3.org/Graphics/SVG/1.1/DTD/svg11.dtd">
<svg width="100%" height="100%" viewBox="0 0 130 130" version="1.1" xmlns="http://www.w3.org/2000/svg" xmlns:xlink="http://www.w3.org/1999/xlink" xml:space="preserve" xmlns:serif="http://www.serif.com/" style="fill-rule:evenodd;clip-rule:evenodd;stroke-linejoin:round;stroke-miterlimit:2;">
    <g transform="matrix(1,0,0,1,-233.618,-60.61)">
        <g>
            <g transform="matrix(1,0,0,1,284.465,122.507)">
                <path d="M0,0.037C-0.082,0.046 -0.161,0.061 -0.244,0.061C-1.526,0.061 -2.564,-0.977 -2.564,-2.259C-2.564,-2.52 -2.512,-2.766 -2.433,-3C-2.326,-3.314 -2.16,-3.597 -1.939,-3.834C-2.414,-3.998 -2.921,-4.101 -3.456,-4.101C-5.886,-4.101 -7.855,-2.256 -7.855,0.018C-7.855,2.293 -5.886,4.138 -3.456,4.138C-1.026,4.138 0.943,2.293 0.943,0.018C0.943,-0.077 0.921,-0.166 0.914,-0.259C0.64,-0.1 0.331,0.002 0,0.037" style="fill:rgb(91,72,65);fill-rule:nonzero;"/>
            </g>
            <g transform="matrix(1,0,0,1,319.608,122.818)">
                <path d="M0,-0.585C-0.273,-0.421 -0.582,-0.316 -0.913,-0.277C-1.003,-0.266 -1.092,-0.25 -1.186,-0.25C-2.467,-0.25 -3.506,-1.288 -3.506,-2.57C-3.506,-2.834 -3.452,-3.083 -3.371,-3.318C-3.264,-3.632 -3.097,-3.915 -2.875,-4.151C-3.343,-4.311 -3.842,-4.412 -4.368,-4.412C-6.281,-4.412 -7.893,-3.262 -8.499,-1.666C-8.662,-1.234 -8.769,-0.777 -8.769,-0.293C-8.769,0.192 -8.662,0.649 -8.499,1.081C-7.893,2.677 -6.281,3.827 -4.368,3.827C-1.938,3.827 0.031,1.982 0.031,-0.293C0.031,-0.393 0.008,-0.486 0,-0.585" style="fill:rgb(91,72,65);fill-rule:nonzero;"/>
            </g>
            <g transform="matrix(1,0,0,1,304.507,160.713)">
                <path d="M0,-0.43C-2.361,-0.48 -7.06,-0.82 -10.845,-2.574C-11.571,-2.909 -12.264,-3.296 -12.898,-3.744C-13.073,-3.867 -13.243,-3.993 -13.408,-4.125C-13.549,-4.238 -13.686,-4.355 -13.819,-4.475C-13.911,-4.557 -13.999,-4.643 -14.088,-4.729C-14.166,-4.805 -14.247,-4.88 -14.323,-4.96C-14.327,-4.898 -14.33,-4.837 -14.333,-4.775C-14.338,-4.66 -14.35,-4.548 -14.35,-4.432L-14.35,-3.464C-14.35,-3.419 -14.344,-3.376 -14.343,-3.331C-14.299,-0.65 -12.922,1.72 -10.845,3.14C-9.563,4.016 -8.017,4.53 -6.355,4.53C-3.034,4.53 -0.172,2.476 1.031,-0.424C0.777,-0.421 0.426,-0.421 0,-0.43" style="fill:rgb(226,179,132);fill-rule:nonzero;"/>
            </g>
            <g transform="matrix(1,0,0,1,299.274,130.577)">
                <path d="M0,-8.052L3.038,0.485L3.282,1.172L-1.418,1.36L-3.282,1.434C-3.286,1.421 -3.275,1.371 -3.269,1.332C-3.242,1.178 -3.149,0.857 -3,0.393C-2.204,-2.077 0,-8.052 0,-8.052M22.12,2.872C22.037,2.913 21.954,2.955 21.871,2.997C21.354,3.255 20.873,3.014 20.623,2.638C20.431,2.35 20.387,1.989 20.567,1.696C20.646,1.57 20.75,1.454 20.92,1.369C21.003,1.328 21.086,1.286 21.169,1.244C21.741,0.959 22.268,1.281 22.485,1.725C22.638,2.034 22.634,2.396 22.383,2.666C22.312,2.742 22.233,2.815 22.12,2.872M18.206,4.305L18.206,4.18C18.206,2.966 20.091,2.968 20.091,4.18L20.091,4.305C20.091,5.52 18.206,5.517 18.206,4.305M-26.41,3.125C-27.138,3.125 -27.42,2.45 -27.274,1.907C-27.178,1.545 -26.896,1.241 -26.41,1.241L-26.285,1.241C-25.786,1.241 -25.504,1.561 -25.415,1.936C-25.288,2.473 -25.57,3.125 -26.285,3.125L-26.41,3.125ZM-22.54,-0.132C-22.278,-0.132 -22.084,-0.034 -21.935,0.104C-21.679,0.341 -21.592,0.712 -21.67,1.051C-21.757,1.428 -22.04,1.752 -22.54,1.752C-23.054,1.752 -23.337,1.413 -23.416,1.024C-23.485,0.682 -23.388,0.315 -23.121,0.086C-22.975,-0.04 -22.79,-0.132 -22.54,-0.132M-22.79,4.748C-24.005,4.748 -24.003,2.863 -22.79,2.863C-21.575,2.863 -21.577,4.748 -22.79,4.748M-18.776,2.037C-18.819,2.47 -19.108,2.876 -19.67,2.876C-20.243,2.876 -20.536,2.454 -20.567,2.01C-20.594,1.634 -20.435,1.242 -20.072,1.075C-19.957,1.022 -19.823,0.991 -19.67,0.991C-19.507,0.991 -19.369,1.029 -19.25,1.088C-18.892,1.264 -18.739,1.659 -18.776,2.037M-2.592,16.744C-2.774,16.528 -2.752,16.154 -2.492,16.014C-2.376,15.804 -2.116,15.657 -1.838,15.786C-0.61,16.359 1.096,16.509 2.239,15.681C2.584,15.431 2.911,15.76 2.912,16.099C2.914,16.139 2.907,16.179 2.896,16.221C2.886,16.264 2.876,16.306 2.852,16.346C2.851,16.347 2.852,16.349 2.851,16.351C2.604,16.759 2.3,17.071 1.974,17.332C1.789,17.479 1.599,17.604 1.397,17.705C1.361,17.788 1.302,17.862 1.205,17.907C1.125,17.945 1.045,17.968 0.965,17.997C0.433,18.195 -0.103,18.226 -0.666,18.028C-0.832,17.969 -0.985,17.893 -1.135,17.808C-1.204,17.78 -1.272,17.753 -1.341,17.72C-1.74,17.528 -2.114,17.242 -2.453,16.877C-2.498,16.829 -2.549,16.795 -2.592,16.744M3.097,3.571C3.072,3.638 3.045,3.706 3.014,3.777C2.658,4.591 1.846,5.636 0,5.636C-1.996,5.636 -2.784,4.529 -3.092,3.777C-3.121,3.704 -3.146,3.636 -3.168,3.571C-3.26,3.293 -3.282,3.097 -3.282,3.097L3.282,2.835C3.282,2.835 3.25,3.152 3.097,3.571M14.155,1.241L14.28,1.241C14.622,1.241 14.857,1.396 15.007,1.611C15.194,1.881 15.236,2.245 15.119,2.554C14.999,2.873 14.723,3.125 14.28,3.125L14.155,3.125C13.699,3.125 13.415,2.859 13.302,2.527C13.195,2.215 13.248,1.85 13.444,1.587C13.595,1.385 13.827,1.241 14.155,1.241M17.246,0.026C17.398,-0.606 18.216,-1.081 18.816,-0.48C18.846,-0.451 18.875,-0.422 18.904,-0.393C18.916,-0.38 18.929,-0.368 18.941,-0.356C19.286,-0.011 19.27,0.405 19.08,0.73C18.798,1.215 18.122,1.491 17.608,0.977C17.567,0.935 17.525,0.894 17.483,0.852C17.437,0.805 17.42,0.754 17.386,0.704C17.231,0.482 17.192,0.248 17.246,0.026M11.835,-13.847C11.853,-13.858 11.87,-13.866 11.888,-13.877C13.059,-14.616 14.458,-15.05 15.966,-15.05C17.473,-15.05 18.873,-14.616 20.044,-13.877C22.06,-12.604 23.393,-10.418 23.393,-7.931C23.393,-3.999 20.067,-0.812 15.966,-0.812C14.437,-0.812 13.017,-1.256 11.835,-2.015C9.848,-3.293 8.539,-5.465 8.539,-7.931C8.539,-10.397 9.848,-12.57 11.835,-13.847M-23.061,-13.362C-22.833,-13.547 -22.594,-13.719 -22.344,-13.877C-21.173,-14.616 -19.772,-15.05 -18.266,-15.05C-16.759,-15.05 -15.358,-14.616 -14.187,-13.877C-12.171,-12.604 -10.839,-10.418 -10.839,-7.931C-10.839,-3.999 -14.164,-0.812 -18.266,-0.812C-20.095,-0.812 -21.767,-1.449 -23.061,-2.5C-24.669,-3.805 -25.692,-5.753 -25.692,-7.931C-25.692,-10.11 -24.669,-12.056 -23.061,-13.362M34.247,-10.365C34.244,-11.349 34.233,-12.315 34.206,-13.244C34.199,-13.462 34.185,-13.662 34.177,-13.877C34.174,-13.962 34.169,-14.043 34.166,-14.127C33.956,-14.069 33.654,-14.003 33.258,-13.944C33.083,-13.919 32.892,-13.897 32.68,-13.877C32.578,-13.868 32.475,-13.859 32.364,-13.852C31.803,-13.816 31.136,-13.809 30.34,-13.86C30.263,-13.864 30.183,-13.871 30.104,-13.877C29.844,-13.897 29.567,-13.926 29.284,-13.958C26.47,-14.282 22.431,-15.304 16.987,-17.844C16.645,-18.004 16.319,-18.145 15.966,-18.318C15.05,-18.763 14.177,-19.237 13.339,-19.729C12.823,-20.032 12.323,-20.343 11.835,-20.66C6.645,-24.037 3.079,-28.126 0.836,-31.325C-1.319,-34.399 -2.259,-36.65 -2.259,-36.65C-2.259,-36.65 -3.511,-34.434 -5.612,-31.437C-5.639,-31.399 -5.664,-31.363 -5.69,-31.325C-8.213,-27.741 -11.931,-23.077 -16.183,-19.729C-17.062,-19.036 -17.963,-18.403 -18.882,-17.844C-19.144,-17.685 -19.405,-17.53 -19.67,-17.384C-20.809,-16.755 -21.943,-16.229 -23.061,-15.781C-25.55,-14.784 -27.942,-14.204 -30.075,-13.877C-30.543,-13.805 -30.999,-13.744 -31.438,-13.695C-31.985,-13.635 -32.504,-13.592 -33.002,-13.561C-33.789,-13.511 -34.515,-13.49 -35.159,-13.494C-35.484,-13.495 -35.795,-13.501 -36.078,-13.511C-36.082,-13.415 -36.089,-13.325 -36.092,-13.229C-36.126,-12.2 -36.146,-11.144 -36.146,-10.049C-36.146,-6.89 -35.931,-4.008 -35.539,-1.358C-35.483,-1.248 -35.466,-1.127 -35.491,-1.016C-35.443,-0.708 -35.394,-0.402 -35.341,-0.101C-35.284,0.219 -35.224,0.532 -35.161,0.845C-35.099,1.161 -35.039,1.481 -34.971,1.79C-34.96,1.838 -34.947,1.884 -34.937,1.932C-34.864,2.255 -34.786,2.569 -34.707,2.883C-34.631,3.19 -34.556,3.499 -34.474,3.798C-32.478,11.036 -28.791,16.02 -23.979,19.343C-23.496,19.676 -23.003,19.992 -22.498,20.292C-21.94,20.624 -21.373,20.939 -20.79,21.232C-17.526,22.872 -13.877,23.921 -9.972,24.515C-9.662,24.562 -9.351,24.604 -9.039,24.645C-9.047,24.705 -9.06,24.764 -9.066,24.824C-9.076,24.918 -9.08,25.013 -9.087,25.108C-9.001,25.024 -8.661,24.954 -8.126,24.896C-7.92,24.873 -7.682,24.853 -7.425,24.834C-6.826,24.895 -6.222,24.946 -5.612,24.988C-5.596,24.99 -5.579,24.99 -5.562,24.991C-4.049,25.095 -2.51,25.149 -0.947,25.149C0.516,25.149 1.957,25.097 3.377,25.001C4.213,24.945 5.042,24.874 5.86,24.781C5.984,24.767 6.107,24.753 6.23,24.739L6.312,25.537L6.324,25.656L6.428,26.672L6.625,28.598C6.769,28.021 6.854,27.422 6.864,26.804C6.864,26.76 6.871,26.717 6.871,26.672L6.871,25.703C6.871,25.616 6.86,25.531 6.857,25.445C6.851,25.237 6.842,25.029 6.819,24.824C6.813,24.77 6.802,24.717 6.794,24.662C7.106,24.621 7.419,24.583 7.728,24.536C11.926,23.897 15.831,22.719 19.291,20.869C19.856,20.567 20.41,20.247 20.951,19.907C21.436,19.603 21.911,19.285 22.375,18.95C27.01,15.6 30.565,10.688 32.531,3.748C32.616,3.446 32.698,3.138 32.777,2.828C32.777,2.827 32.778,2.825 32.778,2.824C32.856,2.519 32.933,2.209 33.005,1.896C33.006,1.892 33.007,1.889 33.007,1.886C33.079,1.576 33.148,1.263 33.214,0.946C33.304,0.512 33.389,0.073 33.467,-0.375C33.458,-0.377 33.45,-0.378 33.441,-0.381C32.883,-0.529 33.088,-1.35 33.614,-1.294C34.004,-3.818 34.22,-6.559 34.242,-9.536C33.926,-9.74 33.977,-10.213 34.247,-10.365" style="fill:rgb(226,179,132);fill-rule:nonzero;"/>
            </g>
            <g transform="matrix(1,0,0,1,285.408,122.767)">
                <path d="M0,-0.242C0,2.033 -1.97,3.877 -4.399,3.877C-6.829,3.877 -8.799,2.033 -8.799,-0.242C-8.799,-2.517 -6.829,-4.361 -4.399,-4.361C-3.864,-4.361 -3.357,-4.258 -2.883,-4.095C-3.104,-3.857 -3.27,-3.574 -3.376,-3.261C-3.455,-3.027 -3.508,-2.78 -3.508,-2.519C-3.508,-1.238 -2.47,-0.199 -1.187,-0.199C-1.104,-0.199 -1.025,-0.215 -0.943,-0.223C-0.612,-0.259 -0.304,-0.36 -0.029,-0.519C-0.022,-0.426 0,-0.337 0,-0.242M-0.32,-6.067C-1.492,-6.806 -2.893,-7.24 -4.399,-7.24C-5.906,-7.24 -7.307,-6.806 -8.478,-6.067C-8.728,-5.909 -8.967,-5.737 -9.194,-5.552C-10.803,-4.246 -11.826,-2.3 -11.826,-0.121C-11.826,2.057 -10.803,4.005 -9.194,5.31C-7.9,6.361 -6.229,6.998 -4.399,6.998C-0.298,6.998 3.027,3.811 3.027,-0.121C3.027,-2.608 1.695,-4.794 -0.32,-6.067" style="fill:rgb(253,250,201);fill-rule:nonzero;"/>
            </g>
            <g transform="matrix(1,0,0,1,319.64,122.767)">
                <path d="M0,-0.242C0,2.033 -1.97,3.877 -4.399,3.877C-6.312,3.877 -7.924,2.727 -8.53,1.132C-8.693,0.7 -8.8,0.242 -8.8,-0.242C-8.8,-0.726 -8.693,-1.184 -8.53,-1.616C-7.924,-3.212 -6.312,-4.361 -4.399,-4.361C-3.873,-4.361 -3.374,-4.26 -2.906,-4.101C-3.128,-3.865 -3.295,-3.581 -3.402,-3.268C-3.483,-3.032 -3.537,-2.783 -3.537,-2.519C-3.537,-1.238 -2.498,-0.199 -1.217,-0.199C-1.123,-0.199 -1.034,-0.216 -0.944,-0.226C-0.613,-0.265 -0.305,-0.371 -0.031,-0.534C-0.023,-0.436 0,-0.342 0,-0.242M-0.321,-6.067C-1.492,-6.806 -2.893,-7.24 -4.399,-7.24C-5.907,-7.24 -7.307,-6.806 -8.478,-6.067C-8.495,-6.056 -8.513,-6.048 -8.53,-6.037C-10.518,-4.76 -11.826,-2.587 -11.826,-0.121C-11.826,2.345 -10.518,4.517 -8.53,5.795C-7.349,6.554 -5.929,6.998 -4.399,6.998C-0.298,6.998 3.027,3.811 3.027,-0.121C3.027,-2.608 1.694,-4.794 -0.321,-6.067" style="fill:rgb(253,250,201);fill-rule:nonzero;"/>
            </g>
            <g transform="matrix(1,0,0,1,299.274,132.011)">
                <path d="M0,-9.486C0,-9.486 -2.204,-3.511 -3,-1.041C-3.149,-0.577 -3.242,-0.256 -3.269,-0.102C-3.275,-0.063 -3.286,-0.013 -3.282,0L-1.418,-0.074L3.282,-0.262L3.038,-0.949L0,-9.486Z" style="fill:rgb(253,250,201);fill-rule:nonzero;"/>
            </g>
            <g transform="matrix(1,0,0,1,321.478,111.943)">
                <path d="M0,-0.303C-0.545,-0.56 -1.086,-0.824 -1.623,-1.094L-8.865,-1.094C-8.027,-0.602 -7.154,-0.129 -6.238,0.317C-5.885,0.489 -5.56,0.631 -5.217,0.791L-0.912,0.791C-0.392,0.791 0.03,0.369 0.03,-0.152C0.03,-0.205 0.008,-0.252 0,-0.303" style="fill:rgb(12,10,9);fill-rule:nonzero;"/>
            </g>
            <g transform="matrix(1,0,0,1,276.214,112.692)">
                <path d="M0,-1.803C-0.282,-1.617 -0.561,-1.427 -0.846,-1.246C-0.889,-1.138 -0.916,-1.024 -0.916,-0.901C-0.916,-0.39 -0.508,0.021 0,0.035C0.009,0.036 0.017,0.041 0.026,0.041L4.179,0.041C5.098,-0.517 5.999,-1.151 6.878,-1.844L0.06,-1.844C0.039,-1.83 0.02,-1.816 0,-1.803" style="fill:rgb(12,10,9);fill-rule:nonzero;"/>
            </g>
            <g transform="matrix(1,0,0,1,335.68,124.809)">
                <path d="M0,0.782C0.154,0.088 0.424,-0.739 0.335,-1.458C0.184,-2.69 -0.429,-3.093 -1.256,-3.414C-1.509,-3.512 -1.78,-3.604 -2.066,-3.708C-2.105,-3.722 -2.132,-3.747 -2.163,-3.767C-2.186,-0.79 -2.401,1.951 -2.791,4.475C-2.765,4.478 -2.741,4.472 -2.713,4.479C-2.509,4.534 -2.327,4.549 -2.155,4.546C-0.521,4.519 -0.289,2.087 0,0.782" style="fill:rgb(188,98,86);fill-rule:nonzero;"/>
            </g>
            <g transform="matrix(1,0,0,1,336.039,132.999)">
                <path d="M0,-16.138C-0.14,-16.197 -0.281,-16.25 -0.427,-16.299C-0.449,-16.306 -0.472,-16.313 -0.494,-16.321C-0.788,-16.416 -1.089,-16.496 -1.403,-16.547C-1.443,-16.554 -1.483,-16.555 -1.523,-16.56C-1.559,-16.551 -1.59,-16.535 -1.628,-16.531C-1.745,-16.518 -1.871,-16.525 -2.01,-16.567C-2.061,-16.583 -2.111,-16.599 -2.162,-16.615C-2.231,-16.617 -2.299,-16.617 -2.367,-16.617L-2.375,-16.617C-2.433,-16.597 -2.507,-16.575 -2.599,-16.549C-2.596,-16.465 -2.591,-16.384 -2.588,-16.299C-2.58,-16.084 -2.565,-15.884 -2.559,-15.666C-2.531,-14.737 -2.521,-13.771 -2.518,-12.787C-2.426,-12.84 -2.311,-12.856 -2.175,-12.807C-1.979,-12.736 -1.775,-12.664 -1.571,-12.592C-0.648,-12.262 0.29,-11.867 0.682,-10.921C1.217,-9.631 0.776,-8.099 0.465,-6.812C-0.054,-4.664 -0.293,-2.367 -2.721,-2.684C-2.901,-2.708 -3.092,-2.743 -3.298,-2.797C-3.376,-2.349 -3.461,-1.91 -3.551,-1.476C-3.616,-1.159 -3.686,-0.846 -3.758,-0.536C-3.758,-0.533 -3.759,-0.53 -3.76,-0.526C-3.832,-0.213 -3.908,0.097 -3.986,0.402C-3.986,0.404 -3.987,0.405 -3.987,0.406C-3.83,0.428 -3.672,0.448 -3.516,0.458C-3.164,0.479 -2.817,0.464 -2.477,0.425C-1.549,0.321 -0.671,0.007 0.1,-0.477C0.517,-0.74 0.902,-1.049 1.246,-1.403C2.095,-2.275 2.696,-3.403 2.902,-4.688L3.677,-9.528C4.131,-12.362 2.537,-15.066 0,-16.138" style="fill:rgb(188,98,86);fill-rule:nonzero;"/>
            </g>
            <g transform="matrix(1,0,0,1,305.702,158.359)">
                <path d="M0,-1.11L-0.104,-2.126L-0.116,-2.245L-0.197,-3.043C-0.32,-3.028 -0.443,-3.015 -0.567,-3.001C-1.386,-2.908 -2.215,-2.837 -3.051,-2.78C-4.471,-2.684 -5.912,-2.632 -7.375,-2.632C-8.938,-2.632 -10.477,-2.686 -11.989,-2.79C-12.007,-2.791 -12.023,-2.792 -12.04,-2.794C-12.649,-2.836 -13.254,-2.887 -13.853,-2.947C-14.109,-2.928 -14.348,-2.908 -14.554,-2.886C-15.089,-2.828 -15.429,-2.757 -15.515,-2.673C-15.529,-2.66 -15.545,-2.647 -15.545,-2.632C-15.537,-2.623 -15.527,-2.615 -15.519,-2.606C-15.442,-2.527 -15.361,-2.452 -15.283,-2.375C-15.194,-2.29 -15.106,-2.204 -15.015,-2.121C-14.881,-2.002 -14.744,-1.884 -14.604,-1.772C-14.438,-1.64 -14.269,-1.513 -14.094,-1.39C-13.459,-0.942 -12.767,-0.556 -12.04,-0.22C-8.255,1.534 -3.557,1.873 -1.195,1.924C-0.77,1.932 -0.418,1.933 -0.164,1.93C0.14,1.926 0.31,1.919 0.31,1.919L0.197,0.816L0,-1.11Z" style="fill:rgb(188,98,86);fill-rule:nonzero;"/>
            </g>
            <g transform="matrix(1,0,0,1,272.989,133.702)">
                <path d="M0,-1.884L-0.125,-1.884C-0.61,-1.884 -0.893,-1.58 -0.989,-1.217C-1.135,-0.675 -0.853,0 -0.125,0L0,0C0.715,0 0.997,-0.652 0.87,-1.189C0.781,-1.564 0.499,-1.884 0,-1.884" style="fill:rgb(188,98,86);fill-rule:nonzero;"/>
            </g>
            <g transform="matrix(1,0,0,1,276.484,135.325)">
                <path d="M0,-1.885C-1.213,-1.885 -1.215,0 0,0C1.213,0 1.215,-1.885 0,-1.885" style="fill:rgb(188,98,86);fill-rule:nonzero;"/>
            </g>
            <g transform="matrix(1,0,0,1,276.734,132.329)">
                <path d="M0,-1.884C-0.25,-1.884 -0.435,-1.792 -0.581,-1.666C-0.848,-1.437 -0.945,-1.07 -0.876,-0.728C-0.797,-0.339 -0.514,0 0,0C0.5,0 0.783,-0.323 0.87,-0.701C0.948,-1.04 0.861,-1.411 0.605,-1.648C0.456,-1.786 0.262,-1.884 0,-1.884" style="fill:rgb(188,98,86);fill-rule:nonzero;"/>
            </g>
            <g transform="matrix(1,0,0,1,280.024,133.356)">
                <path d="M0,-1.691C-0.119,-1.75 -0.257,-1.788 -0.42,-1.788C-0.573,-1.788 -0.707,-1.756 -0.822,-1.704C-1.185,-1.536 -1.344,-1.145 -1.317,-0.769C-1.286,-0.325 -0.993,0.097 -0.42,0.097C0.142,0.097 0.431,-0.308 0.474,-0.741C0.511,-1.119 0.358,-1.514 0,-1.691" style="fill:rgb(188,98,86);fill-rule:nonzero;"/>
            </g>
            <g transform="matrix(1,0,0,1,313.555,133.702)">
                <path d="M0,-1.884L-0.125,-1.884C-0.453,-1.884 -0.686,-1.74 -0.836,-1.538C-1.032,-1.275 -1.085,-0.91 -0.979,-0.598C-0.865,-0.266 -0.581,0 -0.125,0L0,0C0.442,0 0.719,-0.252 0.839,-0.571C0.956,-0.88 0.914,-1.244 0.727,-1.514C0.577,-1.729 0.342,-1.884 0,-1.884" style="fill:rgb(188,98,86);fill-rule:nonzero;"/>
            </g>
            <g transform="matrix(1,0,0,1,318.355,130.258)">
                <path d="M0,1.05C0.189,0.725 0.206,0.309 -0.139,-0.036C-0.151,-0.048 -0.164,-0.06 -0.176,-0.073C-0.205,-0.102 -0.234,-0.132 -0.264,-0.16C-0.864,-0.761 -1.682,-0.286 -1.834,0.345C-1.888,0.568 -1.849,0.802 -1.694,1.024C-1.66,1.073 -1.644,1.125 -1.597,1.172C-1.555,1.214 -1.513,1.255 -1.472,1.297C-0.958,1.811 -0.282,1.535 0,1.05" style="fill:rgb(188,98,86);fill-rule:nonzero;"/>
            </g>
            <g transform="matrix(0,1,1,0,318.486,133.878)">
                <path d="M0.88,-1.006L1.005,-1.006C2.217,-1.006 2.22,0.879 1.005,0.879L0.88,0.879C-0.332,0.879 -0.334,-1.006 0.88,-1.006" style="fill:rgb(188,98,86);fill-rule:nonzero;"/>
            </g>
            <g transform="matrix(1,0,0,1,320.443,133.547)">
                <path d="M0,-1.725C-0.083,-1.683 -0.166,-1.642 -0.249,-1.6C-0.419,-1.515 -0.523,-1.399 -0.602,-1.274C-0.782,-0.98 -0.738,-0.619 -0.546,-0.331C-0.296,0.045 0.185,0.286 0.702,0.027C0.785,-0.015 0.868,-0.056 0.951,-0.098C1.064,-0.154 1.143,-0.227 1.214,-0.304C1.465,-0.573 1.469,-0.935 1.316,-1.245C1.099,-1.689 0.572,-2.011 0,-1.725" style="fill:rgb(188,98,86);fill-rule:nonzero;"/>
            </g>
            <g transform="matrix(1,0,0,1,264.304,118.14)">
                <path d="M0,14.227C-0.068,13.918 -0.128,13.599 -0.19,13.282C-0.253,12.969 -0.313,12.657 -0.37,12.336C-0.423,12.035 -0.473,11.729 -0.521,11.421C-0.553,11.561 -0.648,11.682 -0.842,11.714C-0.997,11.74 -1.139,11.752 -1.278,11.76C-3.83,11.913 -3.918,9.182 -4.229,6.983C-4.522,4.895 -4.617,2.262 -2.113,2.009C-1.966,1.995 -1.812,1.985 -1.646,1.987C-1.256,1.993 -1.12,2.382 -1.231,2.659C-1.287,2.828 -1.429,2.964 -1.66,2.964C-1.708,2.964 -1.745,2.95 -1.786,2.938C-1.896,2.943 -2.005,2.949 -2.103,2.966C-4.007,3.297 -3.443,5.972 -3.232,7.324C-3.063,8.403 -3.046,10.789 -1.454,10.831C-1.341,10.834 -1.222,10.828 -1.093,10.806C-0.844,10.764 -0.66,10.901 -0.568,11.08C-0.96,8.43 -1.175,5.547 -1.175,2.388C-1.175,1.293 -1.155,0.237 -1.121,-0.792C-1.118,-0.888 -1.111,-0.978 -1.107,-1.074C-1.313,-1.081 -1.494,-1.091 -1.676,-1.102C-1.81,-1.066 -1.941,-1.027 -2.075,-0.993C-2.353,-0.922 -2.62,-0.833 -2.899,-0.768C-3.242,-0.687 -3.518,-0.794 -3.722,-0.977C-4.43,-0.578 -5.044,-0.046 -5.538,0.582C-6.56,1.881 -7.064,3.581 -6.784,5.331L-6.009,10.171C-5.922,10.718 -5.757,11.233 -5.538,11.716C-5.161,12.549 -4.608,13.276 -3.93,13.854C-3.685,14.062 -3.424,14.251 -3.149,14.419C-2.851,14.602 -2.535,14.758 -2.207,14.889C-1.649,15.111 -1.058,15.252 -0.444,15.302C-0.211,15.321 0.024,15.329 0.264,15.32C0.185,15.006 0.106,14.692 0.034,14.369C0.023,14.321 0.011,14.275 0,14.227" style="fill:rgb(188,98,86);fill-rule:nonzero;"/>
            </g>
            <g transform="matrix(1,0,0,1,301.514,148.59)">
                <path d="M0,-2.332C-1.144,-1.504 -2.85,-1.654 -4.077,-2.227C-4.355,-2.356 -4.615,-2.208 -4.731,-1.999C-4.991,-1.859 -5.014,-1.485 -4.831,-1.269C-4.788,-1.218 -4.737,-1.184 -4.692,-1.136C-4.354,-0.77 -3.979,-0.485 -3.58,-0.292C-3.512,-0.26 -3.443,-0.233 -3.374,-0.205C-3.225,-0.12 -3.071,-0.044 -2.905,0.015C-2.342,0.213 -1.807,0.182 -1.274,-0.016C-1.194,-0.045 -1.114,-0.068 -1.034,-0.105C-0.937,-0.151 -0.878,-0.225 -0.842,-0.308C-0.641,-0.409 -0.45,-0.534 -0.266,-0.681C0.061,-0.942 0.364,-1.254 0.611,-1.662C0.612,-1.664 0.611,-1.665 0.612,-1.667C0.638,-1.709 0.646,-1.75 0.657,-1.791C0.668,-1.833 0.675,-1.874 0.673,-1.914C0.671,-1.965 0.658,-2.014 0.639,-2.059C0.562,-2.335 0.294,-2.545 0,-2.332" style="fill:rgb(188,98,86);fill-rule:nonzero;"/>
            </g>
            <g transform="matrix(1,0,0,1,332.528,111.916)">
                <path d="M0,4.575C-0.005,4.395 -0.011,4.218 -0.016,4.04C-0.27,3.959 -0.523,3.873 -0.777,3.789C-1.844,3.437 -2.909,3.068 -3.97,2.678C-6.364,1.798 -8.736,0.817 -11.05,-0.277C-11.042,-0.225 -11.02,-0.179 -11.02,-0.125C-11.02,0.395 -11.441,0.817 -11.962,0.817L-16.267,0.817C-10.823,3.357 -6.784,4.379 -3.97,4.703C-3.687,4.736 -3.41,4.764 -3.15,4.784C-3.071,4.79 -2.991,4.797 -2.914,4.802C-2.118,4.852 -1.451,4.846 -0.89,4.809C-0.779,4.802 -0.676,4.793 -0.574,4.784C-0.362,4.764 -0.171,4.742 0.004,4.717C0.003,4.669 0.001,4.623 0,4.575" style="fill:rgb(188,98,86);fill-rule:nonzero;"/>
            </g>
            <g transform="matrix(1,0,0,1,319.856,88.2786)">
                <path d="M0,22.57C-0.243,22.448 -0.486,22.326 -0.728,22.201C-3.533,20.751 -6.229,19.119 -8.746,17.28C-11.313,15.403 -13.691,13.309 -15.808,10.973C-16.73,9.956 -17.602,8.893 -18.418,7.781C-20.154,5.415 -21.633,2.826 -22.801,0C-23.26,0.739 -23.73,1.472 -24.209,2.202C-24.853,3.184 -25.513,4.156 -26.193,5.115C-26.832,6.016 -27.486,6.905 -28.158,7.781C-28.991,8.867 -29.846,9.934 -30.73,10.973C-34.512,15.417 -38.782,19.391 -43.582,22.57L-36.764,22.57C-32.512,19.221 -28.794,14.558 -26.271,10.973C-26.245,10.936 -26.22,10.9 -26.193,10.862C-24.092,7.865 -22.84,5.649 -22.84,5.649C-22.84,5.649 -21.9,7.9 -19.745,10.973C-17.502,14.173 -13.937,18.262 -8.746,21.638C-8.258,21.956 -7.758,22.267 -7.242,22.57L0,22.57Z" style="fill:rgb(188,98,86);fill-rule:nonzero;"/>
            </g>
            <g transform="matrix(1,0,0,1,279.605,115.34)">
                <path d="M0,-2.147C0.265,-2.293 0.526,-2.448 0.788,-2.607L-3.364,-2.607C-3.374,-2.607 -3.382,-2.612 -3.391,-2.613C-3.898,-2.627 -4.307,-3.039 -4.307,-3.549C-4.307,-3.672 -4.279,-3.787 -4.236,-3.894C-5.277,-3.237 -6.349,-2.628 -7.438,-2.05C-9.359,-1.031 -11.36,-0.146 -13.439,0.598C-13.948,0.781 -14.452,0.972 -14.97,1.136C-15.138,1.189 -15.308,1.237 -15.476,1.288C-15.476,1.312 -15.477,1.336 -15.478,1.36C-15.48,1.489 -15.485,1.614 -15.489,1.743C-14.845,1.747 -14.119,1.726 -13.332,1.676C-12.834,1.645 -12.315,1.603 -11.769,1.542C-11.329,1.493 -10.873,1.432 -10.405,1.36C-8.272,1.033 -5.88,0.453 -3.391,-0.544C-2.273,-0.992 -1.139,-1.518 0,-2.147" style="fill:rgb(188,98,86);fill-rule:nonzero;"/>
            </g>
            <g transform="matrix(1,0,0,1,333.765,116.347)">
                <path d="M0,0.002C-0.035,-0.009 -0.069,-0.02 -0.104,-0.031C-0.101,-0.012 -0.096,0.017 -0.093,0.033C-0.062,0.023 -0.021,0.01 0,0.002" style="fill:rgb(188,98,86);fill-rule:nonzero;"/>
            </g>
            <g transform="matrix(1,0,0,1,303.026,136.148)">
                <path d="M0,-2.691L0.047,-3.189L0.051,-3.228L-0.663,-3.199L-7.555,-2.923L-7.503,-2.424C-7.485,-2.258 -7.437,-2.064 -7.373,-1.861C-7.041,-0.818 -6.034,0.537 -3.752,0.537C-1.62,0.537 -0.602,-0.75 -0.204,-1.846C-0.094,-2.153 -0.022,-2.447 0,-2.691" style="fill:rgb(188,98,86);fill-rule:nonzero;"/>
            </g>
            <g transform="matrix(1,0,0,1,311.109,174.691)">
                <path d="M0,-16.191C-1.267,-16.894 -2.612,-17.496 -4.021,-17.986C-4.333,-18.094 -4.646,-18.197 -4.964,-18.295L-4.964,-17.442C-4.964,-17.397 -4.971,-17.354 -4.971,-17.309C-4.981,-16.691 -5.066,-16.092 -5.21,-15.516L-5.098,-14.413C-5.098,-14.413 -5.268,-14.406 -5.571,-14.402C-6.774,-11.503 -9.637,-9.448 -12.958,-9.448C-14.619,-9.448 -16.166,-9.962 -17.447,-10.838C-19.524,-12.258 -20.901,-14.629 -20.945,-17.309C-20.946,-17.354 -20.952,-17.397 -20.952,-17.442L-20.952,-18.295C-21.27,-18.197 -21.584,-18.094 -21.896,-17.986C-27.58,-16.008 -32.224,-12.203 -34.896,-7.384C-35.209,-6.819 -35.493,-6.238 -35.751,-5.646C-36.799,-3.24 -37.379,-0.628 -37.379,2.104L11.462,2.104C11.462,-0.628 10.882,-3.24 9.834,-5.646C7.924,-10.032 4.444,-13.726 0,-16.191" style="fill:rgb(123,117,133);fill-rule:nonzero;"/>
            </g>
            <g transform="matrix(1,0,0,1,270.842,91.7248)">
                <path d="M0,18.074C-1.104,18.548 -2.063,16.924 -0.951,16.447C1.325,15.47 3.436,14.23 5.372,12.768C7.363,11.264 9.16,9.516 10.725,7.527C11.064,7.095 11.402,6.661 11.721,6.207C12.411,5.219 14.045,6.162 13.348,7.158C13.259,7.284 13.16,7.402 13.07,7.527C10.925,10.504 8.341,13.053 5.372,15.099C3.697,16.253 1.908,17.256 0,18.074M15.782,7.527C16.705,6.49 17.601,5.426 18.468,4.335C20.002,2.405 21.453,0.405 22.82,-1.647C23.503,-2.672 24.162,-3.71 24.805,-4.755C24.869,-4.859 24.932,-4.963 24.995,-5.067C25.08,-5.205 25.165,-5.343 25.248,-5.481C25.256,-5.493 25.263,-5.505 25.271,-5.517C25.27,-5.534 25.261,-5.547 25.261,-5.565L25.261,-5.811C24.43,-5.807 23.615,-5.783 22.82,-5.736C22.201,-5.699 21.595,-5.648 20.996,-5.586C18.345,-5.312 15.892,-4.801 13.627,-4.082C4.636,-1.228 -1.418,4.829 -5.433,11.722C-5.623,12.049 -5.803,12.38 -5.983,12.71C-6.772,14.147 -7.478,15.613 -8.105,17.09C-8.466,17.94 -8.801,18.792 -9.112,19.644C-9.455,20.578 -9.769,21.511 -10.055,22.437L-10.055,23.885C-10.014,23.868 -9.985,23.842 -9.938,23.83C-9.678,23.769 -9.429,23.686 -9.171,23.621C-9.151,23.616 -9.132,23.61 -9.112,23.605C-8.924,23.556 -8.739,23.502 -8.552,23.451C-8.539,23.449 -8.527,23.445 -8.516,23.442C-8.19,23.353 -7.863,23.271 -7.542,23.176C-7.243,23.087 -6.941,23.001 -6.646,22.905C-3.844,22.004 -1.187,20.84 1.324,19.439C2.721,18.66 4.062,17.795 5.372,16.884C9.191,14.226 12.651,11.047 15.782,7.527" style="fill:rgb(165,62,38);fill-rule:nonzero;"/>
            </g>
            <g transform="matrix(1,0,0,1,296.103,79.7269)">
                <path d="M0,-5.161C-11.63,-4.871 -19.44,-2.739 -24.669,0C-19.435,-2.629 -11.632,-4.752 0,-5.148L0,-5.161Z" style="fill:rgb(165,62,38);fill-rule:nonzero;"/>
            </g>
            <g transform="matrix(1,0,0,1,298.808,74.5289)">
                <path d="M0,-0.005C-0.123,-0.005 -0.236,0 -0.359,0C-0.234,-0.001 -0.11,-0.004 0.016,-0.005L0,-0.005Z" style="fill:rgb(165,62,38);fill-rule:nonzero;"/>
            </g>
            <g transform="matrix(1,0,0,1,319.664,94.6172)">
                <path d="M0,11.185C-3.063,9.883 -5.921,8.237 -8.555,6.268C-9.249,5.749 -9.923,5.199 -10.586,4.635C-11.43,3.918 -12.253,3.173 -13.045,2.386C-13.906,1.529 -12.572,0.197 -11.712,1.053C-10.704,2.057 -9.648,2.992 -8.555,3.873C-8.232,4.131 -7.907,4.387 -7.578,4.635C-4.958,6.611 -2.112,8.256 0.951,9.558C2.064,10.031 1.104,11.654 0,11.185M12.396,13.888C9.806,7.772 4.442,-0.812 -6.154,-5.429C-6.924,-5.764 -7.729,-6.073 -8.555,-6.363C-11.124,-7.269 -13.957,-7.957 -17.107,-8.334C-17.419,-8.371 -17.718,-8.391 -18.025,-8.422C-19.147,-8.538 -20.243,-8.619 -21.31,-8.663C-21.316,-8.575 -21.354,-8.483 -21.392,-8.391C-21.386,-8.376 -21.381,-8.361 -21.375,-8.345C-21.327,-8.214 -21.281,-8.081 -21.232,-7.951C-19.912,-4.459 -18.094,-1.341 -15.891,1.443C-15.007,2.56 -14.06,3.622 -13.062,4.635C-11.657,6.06 -10.148,7.384 -8.555,8.616C-6.059,10.545 -3.359,12.249 -0.536,13.756C2.5,15.376 5.678,16.769 8.895,17.973C10.185,18.456 11.48,18.908 12.776,19.333C12.81,19.344 12.843,19.355 12.876,19.366C13.105,19.441 13.334,19.517 13.563,19.59C13.6,19.601 13.637,19.612 13.673,19.624C13.912,19.7 14.15,19.774 14.39,19.848C14.206,19.082 13.895,17.934 13.411,16.532C13.134,15.726 12.799,14.838 12.396,13.888" style="fill:rgb(165,62,38);fill-rule:nonzero;"/>
            </g>
            <g transform="matrix(1,0,0,1,333.562,149.995)">
                <path d="M0,-16.57C-0.341,-16.532 -0.687,-16.517 -1.039,-16.538C-1.195,-16.547 -1.354,-16.567 -1.511,-16.589C-1.59,-16.279 -1.672,-15.972 -1.757,-15.67C-3.723,-8.73 -7.278,-3.818 -11.913,-0.467C-12.377,-0.133 -12.853,0.186 -13.337,0.49C-13.245,0.489 -13.15,0.488 -13.061,0.487C-10.906,0.463 -9.368,0.449 -8.687,0.449C-5.011,0.449 2.926,0.903 2.926,-4.908L2.926,-17.467L2.576,-17.473C1.806,-16.988 0.928,-16.674 0,-16.57" style="fill:rgb(56,45,42);fill-rule:nonzero;"/>
            </g>
            <g transform="matrix(1,0,0,1,264.801,149.053)">
                <path d="M0,-14.678C-0.082,-14.977 -0.157,-15.286 -0.233,-15.594C-0.473,-15.585 -0.708,-15.592 -0.941,-15.611C-1.555,-15.661 -2.146,-15.803 -2.704,-16.025C-3.032,-16.155 -3.348,-16.311 -3.646,-16.494L-3.646,-2.683C-3.646,-1.5 -4.985,1.816 11.44,1.816L11.976,1.816C11.471,1.516 10.978,1.199 10.495,0.866C5.683,-2.456 1.996,-7.44 0,-14.678" style="fill:rgb(56,45,42);fill-rule:nonzero;"/>
            </g>
            <g transform="matrix(1,0,0,1,332.383,100.653)">
                <path d="M0,-9.938C-1.215,-9.938 -1.213,-11.823 0,-11.823C1.214,-11.823 1.212,-9.938 0,-9.938M-13.754,-20.466C-9.108,-19.658 -5.779,-17.472 -2.185,-14.522C-1.246,-13.752 -2.587,-12.427 -3.518,-13.19C-6.892,-15.958 -9.902,-17.891 -14.255,-18.649C-15.449,-18.857 -14.94,-20.673 -13.754,-20.466M-32.307,-26.146C-32.737,-26.146 -33.139,-26.133 -33.56,-26.129C-33.686,-26.127 -33.81,-26.125 -33.935,-26.124C-34.088,-26.121 -34.243,-26.12 -34.396,-26.117L-34.396,-15.453C-34.342,-15.411 -34.282,-15.374 -34.238,-15.322C-34.092,-15.153 -34.011,-14.935 -34.028,-14.698C-32.962,-14.654 -31.866,-14.574 -30.744,-14.458C-30.437,-14.426 -30.138,-14.406 -29.826,-14.369C-26.676,-13.993 -23.843,-13.304 -21.273,-12.399C-20.447,-12.108 -19.643,-11.8 -18.873,-11.464C-8.276,-6.848 -2.913,1.737 -0.322,7.853C0.08,8.803 0.415,9.69 0.692,10.497C1.176,11.898 1.487,13.046 1.671,13.812C1.771,13.844 1.872,13.876 1.973,13.907C2.03,13.925 2.09,13.944 2.148,13.962C2.65,14.116 2.827,14.543 2.787,14.951C2.774,15.089 2.737,15.219 2.674,15.341L3.162,15.637L3.183,15.65L4.105,16.208L4.117,15.381L4.44,-5.855C4.44,-5.855 5.653,-26.146 -32.307,-26.146" style="fill:rgb(56,45,42);fill-rule:nonzero;"/>
            </g>
            <g transform="matrix(1,0,0,1,274.545,107.539)">
                <path d="M0,-24.004C-3.705,-22.836 -6.891,-20.737 -9.46,-17.827C-10.265,-16.916 -11.593,-18.254 -10.793,-19.159C-8.011,-22.31 -4.506,-24.559 -0.501,-25.821C0.661,-26.188 1.153,-24.367 0,-24.004M-13.758,-15.803C-13.758,-15.803 -14.507,7.037 -14.441,8.811C-14.438,8.905 -14.434,8.956 -14.425,8.925C-14.412,8.877 -14.397,8.828 -14.385,8.779C-14.333,8.59 -14.277,8.399 -14.225,8.208C-14.078,7.683 -13.922,7.155 -13.758,6.623C-13.472,5.697 -13.158,4.765 -12.815,3.83C-12.504,2.978 -12.169,2.126 -11.809,1.276C-11.181,-0.201 -10.476,-1.667 -9.687,-3.104C-9.506,-3.434 -9.326,-3.765 -9.136,-4.091C-5.121,-10.985 0.933,-17.042 9.924,-19.896C12.188,-20.615 14.642,-21.126 17.293,-21.4C17.892,-21.462 18.498,-21.513 19.117,-21.55C19.912,-21.597 20.727,-21.621 21.558,-21.625L21.558,-32.96C9.926,-32.564 2.123,-30.441 -3.111,-27.812C-13.208,-22.741 -13.758,-15.803 -13.758,-15.803" style="fill:rgb(56,45,42);fill-rule:nonzero;"/>
            </g>
            <g transform="matrix(1,0,0,1,281.01,116.47)">
                <path d="M0,12.353C-1.901,12.353 -3.609,11.565 -4.796,10.32C-5.842,9.223 -6.485,7.771 -6.485,6.176C-6.485,4.582 -5.842,3.13 -4.796,2.034C-3.984,1.182 -2.929,0.547 -1.732,0.23C-1.18,0.084 -0.601,-0 0,-0C0.6,-0 1.179,0.084 1.73,0.23C4.467,0.955 6.483,3.343 6.483,6.176C6.483,9.582 3.574,12.353 0,12.353M0,-1.885C-4.615,-1.885 -8.37,1.731 -8.37,6.176C-8.37,10.622 -4.615,14.238 0,14.238C4.613,14.238 8.368,10.622 8.368,6.176C8.368,1.731 4.613,-1.885 0,-1.885" style="fill:rgb(47,40,57);fill-rule:nonzero;"/>
            </g>
            <g transform="matrix(1,0,0,1,284.465,122.506)">
                <path d="M0,0.038C-0.012,1.781 -1.556,3.196 -3.455,3.196C-5.362,3.196 -6.914,1.771 -6.914,0.019C-6.914,-1.732 -5.362,-3.157 -3.455,-3.157C-3.097,-3.157 -2.758,-3.092 -2.433,-2.999C-2.326,-3.313 -2.16,-3.596 -1.939,-3.833C-1.682,-4.11 -1.357,-4.319 -0.991,-4.444C-1.732,-4.813 -2.563,-5.042 -3.455,-5.042C-5.57,-5.042 -7.386,-3.862 -8.251,-2.17C-8.592,-1.504 -8.799,-0.768 -8.799,0.019C-8.799,0.807 -8.592,1.543 -8.251,2.208C-7.386,3.901 -5.57,5.08 -3.455,5.08C-0.51,5.08 1.887,2.81 1.887,0.019C1.887,-0.362 1.834,-0.731 1.749,-1.088C1.546,-0.743 1.26,-0.459 0.914,-0.258C0.64,-0.099 0.331,0.003 0,0.038" style="fill:rgb(47,40,57);fill-rule:nonzero;"/>
            </g>
            <g transform="matrix(1,0,0,1,315.24,116.47)">
                <path d="M0,12.353C-1.568,12.353 -3.008,11.82 -4.131,10.934C-5.567,9.8 -6.484,8.088 -6.484,6.176C-6.484,4.265 -5.567,2.553 -4.131,1.419C-3.438,0.873 -2.622,0.466 -1.731,0.23C-1.18,0.084 -0.601,-0 0,-0C0.6,-0 1.179,0.084 1.73,0.23C4.467,0.955 6.483,3.343 6.483,6.176C6.483,9.582 3.575,12.353 0,12.353M0,-1.885C-4.614,-1.885 -8.369,1.731 -8.369,6.176C-8.369,10.622 -4.614,14.238 0,14.238C0.437,14.238 0.861,14.196 1.28,14.133C1.854,14.048 2.408,13.907 2.938,13.715C6.105,12.565 8.368,9.624 8.368,6.176C8.368,1.731 4.614,-1.885 0,-1.885" style="fill:rgb(47,40,57);fill-rule:nonzero;"/>
            </g>
            <g transform="matrix(1,0,0,1,320.434,123.666)">
                <path d="M0,-2.28C-0.198,-1.93 -0.48,-1.639 -0.825,-1.433C-1.099,-1.269 -1.407,-1.164 -1.738,-1.125C-1.748,0.619 -3.293,2.036 -5.193,2.036C-7.101,2.036 -8.651,0.611 -8.651,-1.14C-8.651,-2.892 -7.101,-4.317 -5.193,-4.317C-4.845,-4.317 -4.515,-4.255 -4.196,-4.166C-4.089,-4.48 -3.922,-4.763 -3.7,-4.999C-3.439,-5.278 -3.11,-5.486 -2.74,-5.61C-3.479,-5.975 -4.305,-6.201 -5.193,-6.201C-6.866,-6.201 -8.344,-5.454 -9.324,-4.311C-10.069,-3.441 -10.536,-2.346 -10.536,-1.14C-10.536,0.066 -10.069,1.159 -9.324,2.03C-8.344,3.174 -6.866,3.921 -5.193,3.921C-2.248,3.921 0.148,1.65 0.148,-1.14C0.148,-1.534 0.09,-1.912 0,-2.28" style="fill:rgb(47,40,57);fill-rule:nonzero;"/>
            </g>
            <g transform="matrix(1,0,0,1,286.919,111.791)">
                <path d="M0,0C0,-0.521 -0.421,-0.942 -0.942,-0.942L-3.827,-0.942C-4.706,-0.25 -5.607,0.384 -6.526,0.942L-0.942,0.942C-0.421,0.942 0,0.521 0,0" style="fill:rgb(47,40,57);fill-rule:nonzero;"/>
            </g>
            <g transform="matrix(1,0,0,1,310.83,110.848)">
                <path d="M0,1.885L5.432,1.885C5.089,1.725 4.764,1.584 4.41,1.411C3.494,0.966 2.621,0.492 1.783,0L0,0C-0.521,0 -0.942,0.422 -0.942,0.943C-0.942,1.463 -0.521,1.885 0,1.885" style="fill:rgb(47,40,57);fill-rule:nonzero;"/>
            </g>
            <g transform="matrix(1,0,0,1,295.653,132.538)">
                <path d="M0,1.748C0.105,1.789 0.219,1.816 0.339,1.816L6.903,1.816C6.998,1.816 7.083,1.789 7.169,1.763C7.558,1.647 7.846,1.301 7.846,0.874C7.846,0.708 7.792,0.561 7.717,0.426C7.557,0.136 7.259,-0.068 6.903,-0.068L0.339,-0.068C0.037,-0.068 -0.219,0.082 -0.392,0.302C-0.517,0.462 -0.604,0.655 -0.604,0.874C-0.604,1.274 -0.353,1.612 0,1.748" style="fill:rgb(47,40,57);fill-rule:nonzero;"/>
            </g>
            <g transform="matrix(1,0,0,1,301.889,144.552)">
                <path d="M0,-2.701C-0.011,-2.689 -1.225,-1.514 -2.735,-1.514C-3.605,-1.514 -4.444,-1.913 -5.229,-2.701C-5.596,-3.07 -6.193,-3.072 -6.562,-2.704C-6.93,-2.337 -6.932,-1.741 -6.564,-1.371C-5.414,-0.215 -4.125,0.371 -2.735,0.371C-0.426,0.371 1.266,-1.3 1.336,-1.371C1.703,-1.741 1.702,-2.337 1.334,-2.704C0.965,-3.071 0.367,-3.069 0,-2.701" style="fill:rgb(47,40,57);fill-rule:nonzero;"/>
            </g>
            <g transform="matrix(-0.579369,0.815066,0.815066,0.579369,330.36,81.9654)">
                <path d="M5.347,-10.592C5.866,-11.68 7.64,-11.042 7.118,-9.948C5.214,-5.961 5.045,-2.387 5.347,1.966C5.43,3.168 3.572,3.492 3.489,2.281C3.167,-2.357 3.314,-6.337 5.347,-10.592" style="fill:rgb(99,81,76);fill-rule:nonzero;"/>
            </g>
            <g transform="matrix(1,0,0,1,332.383,90.7151)">
                <path d="M0,-1.885C-1.213,-1.885 -1.215,0 0,0C1.212,0 1.214,-1.885 0,-1.885" style="fill:rgb(99,81,76);fill-rule:nonzero;"/>
            </g>
            <g transform="matrix(-0.665825,-0.746108,-0.746108,0.665825,262.997,85.3095)">
                <path d="M-4.675,-10.634C-2.951,-6.805 -2.294,-2.693 -2.793,1.481C-2.936,2.681 -4.819,2.581 -4.675,1.374C-4.214,-2.481 -4.769,-6.256 -6.364,-9.798C-6.861,-10.9 -5.176,-11.745 -4.675,-10.634" style="fill:rgb(99,81,76);fill-rule:nonzero;"/>
            </g>
            <g transform="matrix(1,0,0,1,282.562,109.285)">
                <path d="M0,-11.353C-0.318,-10.899 -0.656,-10.464 -0.996,-10.033C-2.561,-8.044 -4.357,-6.295 -6.349,-4.791C-8.285,-3.33 -10.396,-2.089 -12.672,-1.113C-13.783,-0.636 -12.824,0.988 -11.721,0.514C-9.813,-0.304 -8.023,-1.307 -6.349,-2.46C-3.38,-4.506 -0.796,-7.056 1.35,-10.033C1.439,-10.158 1.538,-10.275 1.627,-10.402C2.324,-11.398 0.69,-12.341 0,-11.353" style="fill:rgb(219,104,82);fill-rule:nonzero;"/>
            </g>
            <g transform="matrix(1,0,0,1,320.615,96.9108)">
                <path d="M0,7.264C-3.063,5.962 -5.909,4.318 -8.529,2.341C-8.858,2.093 -9.184,1.838 -9.506,1.579C-10.6,0.699 -11.655,-0.237 -12.663,-1.24C-13.523,-2.097 -14.857,-0.765 -13.996,0.093C-13.204,0.88 -12.381,1.624 -11.537,2.341C-10.874,2.905 -10.2,3.455 -9.506,3.975C-6.872,5.943 -4.015,7.59 -0.951,8.891C0.152,9.361 1.113,7.738 0,7.264" style="fill:rgb(219,104,82);fill-rule:nonzero;"/>
            </g>
        </g>
        <g transform="matrix(1,0,0,1,338.785,127.848)">
            <path d="M0,-4.526L-0.774,0.314C-1.005,1.75 -1.812,2.95 -2.919,3.727C-3.637,4.231 -4.483,4.54 -5.381,4.632C-5.585,4.653 -5.79,4.659 -5.999,4.654C-5.996,4.644 -5.993,4.633 -5.99,4.622C-5.905,4.308 -5.811,4.006 -5.731,3.684C-5.635,3.29 -5.555,2.873 -5.467,2.467C-3.039,2.784 -2.8,0.487 -2.281,-1.661C-1.97,-2.948 -1.529,-4.48 -2.064,-5.77C-2.456,-6.715 -3.395,-7.111 -4.317,-7.441C-4.318,-8.474 -4.327,-9.485 -4.347,-10.469C-4.331,-10.467 -4.315,-10.468 -4.299,-10.465C-2.938,-10.247 -1.74,-9.507 -0.926,-8.382C-0.111,-7.256 0.219,-5.887 0,-4.526M-3.24,17.239C-3.24,18.321 -3.56,19.164 -4.216,19.817C-6.122,21.708 -10.519,21.68 -13.15,21.657L-13.909,21.653C-14.441,21.653 -15.498,21.661 -16.959,21.677C-12.613,18.349 -8.823,13.511 -6.548,6.511C-6.328,6.532 -6.107,6.564 -5.891,6.564C-4.963,6.564 -4.067,6.375 -3.24,6.037L-3.24,17.239ZM-20.113,21.712C-20.65,22.052 -21.193,22.374 -21.744,22.673C-22.389,23.024 -23.042,23.34 -23.7,23.639C-26.437,24.879 -29.26,25.686 -31.994,26.189C-32.306,26.246 -32.617,26.303 -32.926,26.353C-33.239,26.403 -33.551,26.449 -33.86,26.492C-34.677,26.604 -35.478,26.691 -36.264,26.758C-37.733,26.882 -39.146,26.936 -40.458,26.936C-41.574,26.936 -43.05,26.884 -44.749,26.717C-44.873,26.704 -44.996,26.693 -45.123,26.68C-45.84,26.603 -46.595,26.503 -47.379,26.378C-47.685,26.329 -47.994,26.277 -48.309,26.22C-48.616,26.164 -48.923,26.11 -49.237,26.046C-51.443,25.596 -53.814,24.928 -56.191,23.947C-56.875,23.665 -57.558,23.349 -58.238,23.013C-58.826,22.723 -59.41,22.41 -59.99,22.076C-65.243,19.052 -70.077,14.17 -72.688,6.34C-72.787,6.04 -72.895,5.749 -72.988,5.441C-73.076,5.149 -73.149,4.838 -73.231,4.538C-73.234,4.53 -73.236,4.521 -73.238,4.513C-73.322,4.207 -73.41,3.906 -73.487,3.592C-73.563,3.283 -73.63,2.963 -73.699,2.646C-74.344,-0.31 -74.714,-3.608 -74.714,-7.32C-74.714,-8.408 -74.7,-9.459 -74.678,-10.488C-74.676,-10.583 -74.672,-10.672 -74.67,-10.765C-74.666,-10.894 -74.661,-11.019 -74.658,-11.148C-74.657,-11.172 -74.656,-11.196 -74.656,-11.22C-74.488,-11.271 -74.318,-11.318 -74.15,-11.372C-73.633,-11.536 -73.129,-11.727 -72.62,-11.91C-70.541,-12.654 -68.54,-13.539 -66.619,-14.558C-65.529,-15.136 -64.458,-15.745 -63.417,-16.402C-63.132,-16.583 -62.854,-16.773 -62.571,-16.959C-62.552,-16.972 -62.532,-16.986 -62.512,-17C-57.712,-20.178 -53.441,-24.153 -49.66,-28.596C-48.775,-29.636 -47.921,-30.703 -47.088,-31.788C-46.416,-32.664 -45.762,-33.554 -45.123,-34.454C-44.442,-35.414 -43.782,-36.385 -43.139,-37.367C-42.66,-38.097 -42.189,-38.83 -41.73,-39.57C-40.563,-36.743 -39.084,-34.155 -37.348,-31.788C-36.531,-30.676 -35.66,-29.613 -34.737,-28.596C-32.621,-26.26 -30.243,-24.167 -27.676,-22.29C-25.159,-20.451 -22.463,-18.819 -19.657,-17.368C-19.416,-17.243 -19.173,-17.122 -18.93,-17C-18.393,-16.73 -17.852,-16.466 -17.307,-16.209C-14.993,-15.115 -12.621,-14.134 -10.227,-13.255C-9.166,-12.864 -8.101,-12.495 -7.034,-12.143C-6.78,-12.059 -6.526,-11.973 -6.272,-11.892C-6.268,-11.714 -6.262,-11.537 -6.257,-11.357C-6.256,-11.309 -6.254,-11.263 -6.253,-11.215C-6.253,-11.193 -6.252,-11.171 -6.251,-11.148C-6.245,-10.895 -6.234,-10.654 -6.229,-10.397C-6.211,-9.402 -6.201,-8.382 -6.201,-7.334C-6.324,-3.196 -6.846,0.437 -7.665,3.654C-7.72,3.867 -7.772,4.082 -7.83,4.291C-7.856,4.39 -7.88,4.495 -7.908,4.593C-7.967,4.802 -8.027,5.007 -8.089,5.212C-8.121,5.321 -8.157,5.424 -8.19,5.531C-8.251,5.727 -8.313,5.92 -8.377,6.113C-10.85,13.681 -15.169,18.585 -20.113,21.712M-47.687,29.401L-47.687,28.433C-47.687,28.379 -47.68,28.328 -47.678,28.274C-47.678,28.265 -47.677,28.255 -47.677,28.245C-47.653,28.249 -47.629,28.252 -47.605,28.256C-46.738,28.391 -45.909,28.496 -45.123,28.576C-44.983,28.59 -44.843,28.605 -44.705,28.618C-43.03,28.773 -41.574,28.821 -40.458,28.821C-39.265,28.821 -37.885,28.772 -36.386,28.644C-35.493,28.569 -34.559,28.464 -33.588,28.323C-33.588,28.36 -33.582,28.395 -33.582,28.433L-33.582,29.401C-33.582,30.488 -33.837,31.514 -34.278,32.434C-35.415,34.807 -37.833,36.453 -40.635,36.453C-42.338,36.453 -43.903,35.845 -45.123,34.835C-46.688,33.54 -47.687,31.585 -47.687,29.401M-27.676,31.742C-23.76,34.03 -20.664,37.32 -18.872,41.197C-17.893,43.315 -17.303,45.607 -17.18,48.005L-64.088,48.005C-63.973,45.759 -63.441,43.609 -62.571,41.604C-62.513,41.469 -62.458,41.331 -62.396,41.197C-60.024,36.065 -55.37,31.955 -49.548,29.847C-49.395,32.949 -47.657,35.636 -45.123,37.116C-43.803,37.887 -42.271,38.337 -40.635,38.337C-35.856,38.337 -31.955,34.566 -31.721,29.847C-30.296,30.363 -28.943,31 -27.676,31.742M-76.407,19.927C-76.733,19.579 -76.731,19.286 -76.703,18.835C-76.695,18.721 -76.688,18.617 -76.688,18.522L-76.688,6.189C-76.038,6.408 -75.352,6.535 -74.645,6.555C-72.346,13.838 -68.246,18.755 -63.595,22.071C-73.027,21.98 -75.682,20.702 -76.407,19.927M-77.911,3.309C-78.754,2.546 -79.367,1.52 -79.561,0.314L-80.02,-2.557L-80.335,-4.526C-80.483,-5.454 -80.359,-6.379 -80.02,-7.234C-79.86,-7.634 -79.67,-8.023 -79.41,-8.382C-78.705,-9.356 -77.704,-10.017 -76.568,-10.325C-76.586,-9.471 -76.593,-8.591 -76.595,-7.699C-79.099,-7.446 -79.004,-4.813 -78.71,-2.725C-78.399,-0.526 -78.312,2.204 -75.76,2.052C-75.724,2.243 -75.684,2.429 -75.646,2.617C-75.581,2.931 -75.524,3.254 -75.454,3.562C-75.381,3.884 -75.299,4.194 -75.219,4.508C-75.211,4.538 -75.203,4.567 -75.195,4.598C-75.384,4.57 -75.573,4.548 -75.756,4.499C-76.256,4.367 -76.721,4.15 -77.155,3.881C-77.425,3.713 -77.676,3.523 -77.911,3.309M-75.936,1.123C-77.527,1.081 -77.545,-1.305 -77.714,-2.384C-77.925,-3.736 -78.488,-6.411 -76.584,-6.742C-76.556,-3.904 -76.335,-1.282 -75.936,1.123M-76.459,-12.682C-76.385,-13.102 -76.298,-13.546 -76.203,-14.004C-75.886,-15.523 -75.445,-17.229 -74.825,-19.036C-74.537,-19.877 -74.209,-20.737 -73.839,-21.609C-71.049,-28.192 -65.785,-35.373 -55.892,-38.94C-52.782,-40.061 -49.215,-40.821 -45.123,-41.094C-44.414,-41.142 -43.688,-41.173 -42.948,-41.191C-43.012,-41.087 -43.074,-40.983 -43.139,-40.879C-43.781,-39.833 -44.44,-38.796 -45.123,-37.77C-46.49,-35.718 -47.941,-33.718 -49.476,-31.788C-50.343,-30.698 -51.238,-29.633 -52.161,-28.596C-55.292,-25.077 -58.752,-21.897 -62.571,-19.24C-63.882,-18.328 -65.223,-17.464 -66.619,-16.684C-69.13,-15.284 -71.787,-14.119 -74.589,-13.218C-74.885,-13.123 -75.187,-13.037 -75.485,-12.947C-75.807,-12.852 -76.134,-12.77 -76.459,-12.682M-77.056,-34.527C-77.056,-49.115 -52.786,-51.805 -42.683,-52.293L-42.683,-43.081C-43.515,-43.067 -44.329,-43.036 -45.123,-42.985C-47.421,-42.84 -49.574,-42.56 -51.569,-42.143C-51.878,-42.079 -52.17,-42 -52.473,-41.929C-52.645,-41.889 -52.817,-41.849 -52.987,-41.807C-62.236,-39.517 -68.188,-34.46 -72.009,-28.92C-72.153,-28.71 -72.297,-28.5 -72.437,-28.289C-73.756,-26.279 -74.809,-24.221 -75.644,-22.219C-76.205,-20.872 -76.672,-19.55 -77.056,-18.287L-77.056,-34.527ZM-5.558,-13.641C-5.787,-13.714 -6.016,-13.79 -6.245,-13.865C-6.278,-13.876 -6.312,-13.887 -6.345,-13.898C-7.641,-14.323 -8.937,-14.775 -10.227,-15.258C-13.443,-16.462 -16.621,-17.855 -19.657,-19.475C-22.48,-20.982 -25.18,-22.686 -27.676,-24.615C-29.27,-25.847 -30.778,-27.172 -32.183,-28.596C-33.181,-29.609 -34.128,-30.671 -35.012,-31.788C-37.215,-34.572 -39.033,-37.69 -40.354,-41.182C-35.498,-41.055 -31.3,-40.265 -27.676,-39.006C-26.378,-38.556 -25.147,-38.053 -23.993,-37.494C-13.338,-32.337 -8.568,-22.983 -6.521,-16.939C-6.094,-15.674 -5.777,-14.546 -5.558,-13.641M-4.361,-6.454C-3.534,-6.132 -2.922,-5.73 -2.771,-4.497C-2.682,-3.778 -2.951,-2.952 -3.105,-2.257C-3.395,-0.952 -3.626,1.479 -5.261,1.507C-4.789,-0.925 -4.484,-3.577 -4.361,-6.454M-40.798,-43.078L-40.798,-52.365C-40.564,-52.372 -40.352,-52.378 -40.148,-52.382C-32.544,-52.221 -3.24,-50.56 -3.24,-34.527L-3.24,-11.674C-3.258,-11.783 -3.29,-11.963 -3.333,-12.186C-3.504,-13.071 -3.894,-14.801 -4.644,-17.021C-5.082,-18.321 -5.645,-19.782 -6.361,-21.339C-6.611,-21.882 -6.875,-22.433 -7.164,-22.995C-10.639,-29.761 -17.015,-37.66 -28.439,-41.206C-29.333,-41.484 -30.261,-41.729 -31.216,-41.95C-32.049,-42.143 -32.905,-42.313 -33.787,-42.46C-35.968,-42.822 -38.302,-43.035 -40.798,-43.078ZM0.602,-9.487C0.062,-10.232 -0.603,-10.85 -1.355,-11.326L-1.355,-34.527C-1.355,-51.394 -28.304,-53.897 -38.709,-54.234L-38.709,-54.284C-39.1,-54.284 -39.589,-54.28 -40.148,-54.271C-40.597,-54.278 -40.986,-54.282 -41.328,-54.283C-41.635,-54.416 -42.003,-54.389 -42.284,-54.21C-53.149,-53.781 -78.94,-51.025 -78.94,-34.527L-78.94,-11.353C-79.709,-10.874 -80.387,-10.245 -80.936,-9.487C-82.047,-7.954 -82.494,-6.086 -82.195,-4.228L-81.421,0.612C-81.112,2.54 -80.045,4.161 -78.573,5.222L-78.573,18.522C-78.573,18.58 -78.578,18.644 -78.583,18.713C-78.618,19.252 -78.683,20.255 -77.783,21.216C-76.677,22.395 -73.895,23.964 -62.545,23.964C-61.912,23.964 -61.258,23.963 -60.594,23.962C-56.927,25.993 -53.099,27.198 -49.657,27.894C-59.199,31.133 -65.996,39.346 -65.996,48.947L-65.996,49.89L-15.271,49.89L-15.271,48.947C-15.271,39.403 -21.989,31.231 -31.442,27.953C-27.696,27.217 -23.617,25.893 -19.78,23.593C-16.841,23.559 -14.739,23.537 -13.909,23.537L-13.164,23.541C-10.057,23.564 -5.352,23.598 -2.889,21.155C-1.871,20.144 -1.355,18.827 -1.355,17.239L-1.355,4.908C-0.095,3.853 0.807,2.358 1.086,0.612L1.861,-4.228C2.158,-6.086 1.711,-7.954 0.602,-9.487" style="fill:rgb(47,40,57);fill-rule:nonzero;"/>
        </g>
    </g>
</svg>
