<?xml version="1.0" encoding="UTF-8" standalone="no"?>
<!DOCTYPE svg PUBLIC "-//W3C//DTD SVG 1.1//EN" "http://www.w3.org/Graphics/SVG/1.1/DTD/svg11.dtd">
<svg width="100%" height="100%" viewBox="0 0 130 130" version="1.1" xmlns="http://www.w3.org/2000/svg" xmlns:xlink="http://www.w3.org/1999/xlink" xml:space="preserve" xmlns:serif="http://www.serif.com/" style="fill-rule:evenodd;clip-rule:evenodd;stroke-linejoin:round;stroke-miterlimit:2;">
    <g transform="matrix(1,0,0,1,-9.85956,-60.6513)">
        <g transform="matrix(1,0,0,1,78.5303,136.616)">
            <path d="M0,-2.262C-0.355,-1.449 -1.169,-0.403 -3.014,-0.403C-5.01,-0.403 -5.798,-1.51 -6.105,-2.262L-6.296,-2.262C-6.417,-2.262 -6.529,-2.289 -6.635,-2.33C-6.303,-1.287 -5.297,0.068 -3.014,0.068C-0.882,0.068 0.136,-1.219 0.533,-2.315C0.447,-2.29 0.362,-2.262 0.269,-2.262L0,-2.262Z" style="fill:rgb(188,98,86);fill-rule:nonzero;"/>
        </g>
        <g transform="matrix(1,0,0,1,75.5161,134.827)">
            <path d="M0,0.915C-1.57,0.915 -2.269,0.141 -2.577,-0.472L-3.091,-0.472C-2.784,0.28 -1.996,1.387 0,1.387C1.845,1.387 2.659,0.341 3.014,-0.472L2.497,-0.472C2.156,0.181 1.456,0.915 0,0.915" style="fill:rgb(188,98,86);fill-rule:nonzero;"/>
        </g>
        <g transform="matrix(1,0,0,1,55.5195,116.47)">
            <path d="M0,0.23L3.463,0.23C2.911,0.084 2.332,0 1.731,0C1.131,0 0.552,0.084 0,0.23" style="fill:rgb(253,250,201);fill-rule:nonzero;"/>
        </g>
        <g transform="matrix(1,0,0,1,52.4556,127.019)">
            <path d="M0,-8.516L0,-6.683C0.865,-8.376 2.681,-9.555 4.795,-9.555C5.688,-9.555 6.519,-9.327 7.259,-8.958C7.495,-9.038 7.744,-9.092 8.007,-9.092C9.288,-9.092 10.327,-8.053 10.327,-6.771C10.327,-6.342 10.203,-5.946 10,-5.601C10.084,-5.244 10.137,-4.875 10.137,-4.494C10.137,-1.704 7.741,0.567 4.795,0.567C2.681,0.567 0.865,-0.613 0,-2.306L0,-0.23C1.187,1.015 2.894,1.803 4.795,1.803C8.371,1.803 11.279,-0.968 11.279,-4.373C11.279,-7.207 9.263,-9.595 6.527,-10.319L3.064,-10.319C1.868,-10.003 0.812,-9.368 0,-8.516" style="fill:rgb(253,250,201);fill-rule:nonzero;"/>
        </g>
        <g transform="matrix(1,0,0,1,51.9082,122.767)">
            <path d="M0,-0.242C0,-1.03 0.207,-1.766 0.547,-2.431L0.547,-4.264C-0.499,-3.167 -1.142,-1.716 -1.142,-0.121C-1.142,1.474 -0.499,2.925 0.547,4.022L0.547,1.946C0.207,1.281 0,0.545 0,-0.242" style="fill:rgb(253,250,201);fill-rule:nonzero;"/>
        </g>
        <g transform="matrix(1,0,0,1,57.251,115.758)">
            <path d="M0,0.712C0.6,0.712 1.179,0.796 1.731,0.942L4.078,0.942C2.907,0.203 1.507,-0.23 0,-0.23C-1.507,-0.23 -2.908,0.203 -4.079,0.942L-1.731,0.942C-1.179,0.796 -0.601,0.712 0,0.712" style="fill:rgb(253,250,201);fill-rule:nonzero;"/>
        </g>
        <g transform="matrix(-1,0,0,1,52.4555,118.503)">
            <path d="M-3.064,-1.803L-0.717,-1.803C-0.466,-1.645 -0.228,-1.473 0,-1.288L0,0C-0.812,-0.852 -1.868,-1.487 -3.064,-1.803" style="fill:rgb(253,250,201);fill-rule:nonzero;"/>
        </g>
        <g transform="matrix(1,0,0,1,64.6772,123.82)">
            <path d="M0,-1.173C0,-3.66 -1.333,-5.846 -3.348,-7.119L-5.695,-7.119C-2.959,-6.395 -0.942,-4.007 -0.942,-1.173C-0.942,2.232 -3.851,5.003 -7.426,5.003C-9.328,5.003 -11.035,4.215 -12.222,2.97L-12.222,4.258C-10.928,5.309 -9.255,5.946 -7.427,5.946C-3.325,5.946 0,2.759 0,-1.173" style="fill:rgb(253,250,201);fill-rule:nonzero;"/>
        </g>
        <g transform="matrix(1,0,0,1,50.7661,122.647)">
            <path d="M0,-0.001C0,-1.596 0.644,-3.046 1.689,-4.144L1.689,-5.432C0.082,-4.126 -0.942,-2.179 -0.942,-0.001C-0.942,2.178 0.082,4.125 1.689,5.431L1.689,4.143C0.644,3.045 0,1.594 0,-0.001" style="fill:rgb(253,250,201);fill-rule:nonzero;"/>
        </g>
        <g transform="matrix(1,0,0,1,52.4556,120.337)">
            <path d="M0,4.377C0.865,6.07 2.681,7.25 4.795,7.25C7.741,7.25 10.137,4.979 10.137,2.189C10.137,1.807 10.084,1.439 10,1.082C9.797,1.426 9.511,1.71 9.165,1.911C9.172,2.004 9.195,2.093 9.195,2.189C9.195,4.463 7.225,6.308 4.795,6.308C2.365,6.308 0.396,4.463 0.396,2.189C0.396,-0.086 2.365,-1.931 4.795,-1.931C5.331,-1.931 5.837,-1.828 6.312,-1.664C6.569,-1.941 6.894,-2.15 7.259,-2.275C6.519,-2.644 5.688,-2.873 4.795,-2.873C2.681,-2.873 0.865,-1.693 0,0L0,4.377Z" style="fill:rgb(253,250,201);fill-rule:nonzero;"/>
        </g>
        <g transform="matrix(1,0,0,1,52.4556,120.337)">
            <path d="M0,4.377L0,0C-0.34,0.665 -0.547,1.401 -0.547,2.189C-0.547,2.976 -0.34,3.712 0,4.377" style="fill:rgb(253,250,201);fill-rule:nonzero;"/>
        </g>
        <g transform="matrix(1,0,0,1,89.7505,116.47)">
            <path d="M0,0.23L3.463,0.23C2.911,0.084 2.332,0 1.731,0C1.131,0 0.552,0.084 0,0.23" style="fill:rgb(253,250,201);fill-rule:nonzero;"/>
        </g>
        <g transform="matrix(1,0,0,1,87.3516,127.635)">
            <path d="M0,-9.746L0,-8.279C0.98,-9.423 2.458,-10.17 4.13,-10.17C5.02,-10.17 5.846,-9.944 6.583,-9.579C6.814,-9.655 7.057,-9.707 7.313,-9.707C8.595,-9.707 9.634,-8.668 9.634,-7.387C9.634,-6.971 9.516,-6.586 9.324,-6.249C9.414,-5.881 9.473,-5.503 9.473,-5.109C9.473,-2.319 7.076,-0.048 4.13,-0.048C2.458,-0.048 0.98,-0.795 0,-1.939L0,-0.231C1.123,0.655 2.563,1.188 4.13,1.188C7.706,1.188 10.615,-1.583 10.615,-4.989C10.615,-7.822 8.598,-10.21 5.862,-10.934L2.399,-10.934C1.509,-10.699 0.693,-10.292 0,-9.746" style="fill:rgb(253,250,201);fill-rule:nonzero;"/>
        </g>
        <g transform="matrix(1,0,0,1,86.1396,122.766)">
            <path d="M0,-0.241C0,-1.447 0.466,-2.541 1.212,-3.411L1.212,-4.878C-0.225,-3.743 -1.142,-2.032 -1.142,-0.12C-1.142,1.792 -0.225,3.504 1.212,4.637L1.212,2.929C0.466,2.058 0,0.965 0,-0.241" style="fill:rgb(253,250,201);fill-rule:nonzero;"/>
        </g>
        <g transform="matrix(1,0,0,1,91.4819,115.758)">
            <path d="M0,0.712C0.6,0.712 1.179,0.796 1.731,0.942L4.079,0.942C2.907,0.203 1.507,-0.23 0,-0.23C-1.507,-0.23 -2.908,0.203 -4.079,0.942L-1.731,0.942C-1.179,0.796 -0.6,0.712 0,0.712" style="fill:rgb(253,250,201);fill-rule:nonzero;"/>
        </g>
        <g transform="matrix(1,0,0,1,98.9087,123.82)">
            <path d="M0,-1.173C0,-3.66 -1.333,-5.846 -3.348,-7.119L-5.695,-7.119C-2.959,-6.395 -0.942,-4.007 -0.942,-1.173C-0.942,2.232 -3.852,5.003 -7.427,5.003C-8.995,5.003 -10.435,4.47 -11.557,3.584L-11.557,4.743C-10.376,5.502 -8.956,5.946 -7.427,5.946C-3.325,5.946 0,2.759 0,-1.173" style="fill:rgb(253,250,201);fill-rule:nonzero;"/>
        </g>
        <g transform="matrix(-1,0,0,1,87.3515,117.888)">
            <path d="M-2.399,-1.188L-0.052,-1.188C-0.035,-1.177 -0.017,-1.168 0,-1.158L0,0C-0.693,-0.546 -1.509,-0.953 -2.399,-1.188" style="fill:rgb(253,250,201);fill-rule:nonzero;"/>
        </g>
        <g transform="matrix(1,0,0,1,84.9976,122.647)">
            <path d="M0,-0.001C0,-1.913 0.917,-3.624 2.354,-4.758L2.354,-5.917C0.367,-4.639 -0.942,-2.467 -0.942,-0.001C-0.942,2.465 0.367,4.638 2.354,5.916L2.354,4.757C0.917,3.623 0,1.911 0,-0.001" style="fill:rgb(253,250,201);fill-rule:nonzero;"/>
        </g>
        <g transform="matrix(1,0,0,1,95.8501,126.74)">
            <path d="M0,-4.507C0.008,-4.408 0.032,-4.315 0.032,-4.215C0.032,-1.94 -1.938,-0.095 -4.368,-0.095C-6.281,-0.095 -7.892,-1.245 -8.499,-2.841L-8.499,-1.045C-7.518,0.099 -6.041,0.847 -4.368,0.847C-1.422,0.847 0.974,-1.424 0.974,-4.215C0.974,-4.608 0.916,-4.986 0.826,-5.354C0.627,-5.005 0.345,-4.713 0,-4.507" style="fill:rgb(253,250,201);fill-rule:nonzero;"/>
        </g>
        <g transform="matrix(1,0,0,1,87.3516,117.464)">
            <path d="M0,3.688C0.606,2.092 2.218,0.942 4.13,0.942C4.657,0.942 5.155,1.043 5.624,1.203C5.885,0.924 6.213,0.716 6.583,0.592C5.846,0.227 5.02,0 4.13,0C2.458,0 0.98,0.748 0,1.892L0,3.688Z" style="fill:rgb(253,250,201);fill-rule:nonzero;"/>
        </g>
        <g transform="matrix(1,0,0,1,86.1396,122.525)">
            <path d="M0,0C0,1.206 0.466,2.299 1.212,3.17L1.212,1.374C1.048,0.942 0.942,0.484 0.942,0C0.942,-0.484 1.048,-0.942 1.212,-1.374L1.212,-3.17C0.466,-2.3 0,-1.206 0,0" style="fill:rgb(253,250,201);fill-rule:nonzero;"/>
        </g>
        <g transform="matrix(1,0,0,1,55.166,162.914)">
            <path d="M0,7.363C-0.433,8.484 -2.255,7.994 -1.817,6.862C-1.721,6.612 -1.608,6.373 -1.501,6.131C-1.18,5.398 -0.815,4.695 -0.404,4.025C-0.207,3.703 -0.004,3.385 0.213,3.079C0.443,2.756 0.683,2.439 0.936,2.133C2.112,0.709 3.527,-0.518 5.163,-1.506C6.205,-2.136 7.151,-0.505 6.114,0.121C5.167,0.694 4.302,1.366 3.517,2.115C3.198,2.419 2.893,2.735 2.604,3.065C2.337,3.37 2.083,3.686 1.842,4.013C1.354,4.677 0.919,5.384 0.548,6.131C0.349,6.531 0.163,6.94 0,7.363M42.019,6.131C41.602,5.173 41.111,4.247 40.55,3.361C40.351,3.046 40.143,2.736 39.926,2.43C39.703,2.115 39.47,1.806 39.229,1.503C37.354,-0.862 34.958,-2.877 32.186,-4.414C30.918,-5.117 29.573,-5.719 28.164,-6.209C27.852,-6.318 27.538,-6.421 27.221,-6.518L27.221,-5.665C27.221,-5.62 27.215,-5.577 27.214,-5.533C27.204,-4.915 27.119,-4.316 26.975,-3.739L27.087,-2.637C27.087,-2.637 26.918,-2.629 26.614,-2.625C25.752,-0.549 24.037,1.086 21.914,1.851C21.072,2.155 20.17,2.329 19.227,2.329C18.376,2.329 17.557,2.191 16.786,1.942C16.052,1.705 15.363,1.365 14.738,0.938C12.661,-0.481 11.284,-2.852 11.239,-5.533C11.239,-5.577 11.232,-5.62 11.232,-5.665L11.232,-6.518C10.916,-6.421 10.602,-6.318 10.29,-6.209C5.523,-4.551 1.491,-1.607 -1.263,2.142C-1.49,2.451 -1.708,2.766 -1.917,3.086C-2.12,3.395 -2.314,3.71 -2.5,4.029C-2.57,4.15 -2.643,4.27 -2.71,4.392C-3.024,4.958 -3.308,5.538 -3.565,6.131C-4.613,8.537 -5.193,11.148 -5.193,13.881L43.647,13.881C43.647,11.148 43.067,8.537 42.019,6.131" style="fill:rgb(129,172,171);fill-rule:nonzero;"/>
        </g>
        <g transform="matrix(1,0,0,1,57.2505,118.406)">
            <path d="M0,8.238C2.43,8.238 4.4,6.394 4.4,4.119C4.4,4.024 4.377,3.935 4.37,3.841C4.095,4.001 3.787,4.102 3.456,4.137C3.375,4.146 3.295,4.162 3.212,4.162C1.93,4.162 0.891,3.123 0.891,1.842C0.891,1.581 0.944,1.335 1.023,1.1C1.129,0.787 1.296,0.504 1.517,0.266C1.042,0.103 0.536,0 0,0C-2.43,0 -4.399,1.844 -4.399,4.119C-4.399,6.394 -2.43,8.238 0,8.238" style="fill:rgb(129,172,171);fill-rule:nonzero;"/>
        </g>
        <g transform="matrix(1,0,0,1,91.4819,118.406)">
            <path d="M0,8.238C2.43,8.238 4.4,6.394 4.4,4.119C4.4,4.019 4.376,3.925 4.368,3.826C4.095,3.99 3.787,4.095 3.456,4.134C3.365,4.145 3.276,4.162 3.183,4.162C1.901,4.162 0.862,3.123 0.862,1.842C0.862,1.578 0.916,1.329 0.997,1.093C1.104,0.78 1.272,0.496 1.493,0.26C1.025,0.101 0.527,0 0,0C-1.913,0 -3.524,1.149 -4.13,2.745C-4.294,3.177 -4.4,3.634 -4.4,4.119C-4.4,4.603 -4.294,5.061 -4.13,5.492C-3.524,7.088 -1.913,8.238 0,8.238" style="fill:rgb(129,172,171);fill-rule:nonzero;"/>
        </g>
        <g transform="matrix(1,0,0,1,71.8462,133.242)">
            <path d="M0,0.906L0.502,0.906C0.41,0.628 0.388,0.432 0.388,0.432L6.623,0.183L-0.131,0L-0.081,0.481C-0.068,0.61 -0.041,0.754 0,0.906" style="fill:rgb(188,98,86);fill-rule:nonzero;"/>
        </g>
        <g transform="matrix(1,0,0,1,78.6128,133.434)">
            <path d="M0,0.714L0.5,0.714C0.579,0.464 0.636,0.224 0.655,0.022L0.656,0.013L0.183,0C0.175,0.068 0.133,0.35 0,0.714" style="fill:rgb(188,98,86);fill-rule:nonzero;"/>
        </g>
        <g transform="matrix(1,0,0,1,78.6128,134.354)">
            <path d="M0,-0.206C-0.024,-0.139 -0.052,-0.071 -0.083,0L0.186,0C0.28,0 0.365,-0.028 0.451,-0.053C0.469,-0.105 0.484,-0.155 0.5,-0.206L0,-0.206Z" style="fill:rgb(188,98,86);fill-rule:nonzero;"/>
        </g>
        <g transform="matrix(1,0,0,1,72.4248,134.148)">
            <path d="M0,0.206C-0.03,0.133 -0.056,0.065 -0.077,0L-0.579,0C-0.566,0.044 -0.544,0.092 -0.53,0.138C-0.424,0.179 -0.311,0.206 -0.191,0.206L0,0.206Z" style="fill:rgb(188,98,86);fill-rule:nonzero;"/>
        </g>
        <g transform="matrix(1,0,0,1,78.7983,132.955)">
            <path d="M0,0.457C0,0.457 -0.001,0.469 -0.002,0.479L0.47,0.492L0.52,-0.035L-7.084,0.269L-7.083,0.287L-0.33,0.47L0,0.457Z" style="fill:rgb(188,98,86);fill-rule:nonzero;"/>
        </g>
        <g transform="matrix(1,0,0,1,78.4688,134.148)">
            <path d="M0,-0.723L-6.235,-0.473C-6.235,-0.473 -6.212,-0.278 -6.121,0L-5.622,0C-5.625,-0.008 -5.63,-0.017 -5.633,-0.026L-0.262,-0.241C-0.286,-0.165 -0.319,-0.083 -0.354,0L0.144,0C0.277,-0.364 0.319,-0.645 0.327,-0.714L0,-0.723Z" style="fill:rgb(188,98,86);fill-rule:nonzero;"/>
        </g>
        <g transform="matrix(1,0,0,1,78.7983,133.434)">
            <path d="M0,-0.022L-0.33,-0.009L-0.002,0C-0.001,-0.01 0,-0.022 0,-0.022" style="fill:rgb(188,98,86);fill-rule:nonzero;"/>
        </g>
        <g transform="matrix(1,0,0,1,78.0132,134.148)">
            <path d="M0,0.206L0.517,0.206C0.548,0.135 0.575,0.067 0.6,0L0.101,0C0.073,0.067 0.037,0.136 0,0.206" style="fill:rgb(188,98,86);fill-rule:nonzero;"/>
        </g>
        <g transform="matrix(-1,0,0,1,72.4397,134.354)">
            <path d="M-0.407,-0.206L0.092,-0.206C0.071,-0.141 0.045,-0.073 0.015,0L-0.499,0C-0.464,-0.071 -0.433,-0.14 -0.407,-0.206" style="fill:rgb(188,98,86);fill-rule:nonzero;"/>
        </g>
        <g transform="matrix(1,0,0,1,80.7495,160.713)">
            <path d="M0,-0.43C-2.361,-0.48 -7.06,-0.82 -10.846,-2.574C-11.572,-2.909 -12.264,-3.296 -12.899,-3.744C-13.074,-3.867 -13.244,-3.993 -13.409,-4.125C-13.55,-4.238 -13.686,-4.355 -13.82,-4.475C-13.912,-4.557 -14,-4.643 -14.088,-4.729C-14.167,-4.805 -14.248,-4.88 -14.324,-4.96C-14.328,-4.898 -14.331,-4.837 -14.333,-4.775C-14.338,-4.66 -14.351,-4.548 -14.351,-4.432L-14.351,-3.464C-14.351,-3.419 -14.345,-3.376 -14.344,-3.331C-14.299,-0.65 -12.923,1.72 -10.846,3.14C-10.221,3.567 -9.532,3.906 -8.798,4.144C-8.027,4.393 -7.208,4.53 -6.357,4.53C-5.414,4.53 -4.512,4.357 -3.669,4.053C-1.546,3.288 0.169,1.653 1.03,-0.424C0.776,-0.421 0.425,-0.421 0,-0.43" style="fill:rgb(226,179,132);fill-rule:nonzero;"/>
        </g>
        <g transform="matrix(1,0,0,1,75.5161,130.577)">
            <path d="M0,-8.052L3.21,0.97L3.282,1.172L-3.282,1.434C-3.294,1.385 -3.233,1.147 -3.126,0.798C-2.48,-1.326 0,-8.052 0,-8.052M-22.541,-0.132C-22.171,-0.132 -21.929,0.05 -21.784,0.292C-21.615,0.574 -21.596,0.935 -21.732,1.236C-21.864,1.526 -22.126,1.752 -22.541,1.752C-22.757,1.752 -22.921,1.678 -23.061,1.58C-23.203,1.48 -23.312,1.349 -23.374,1.192C-23.494,0.885 -23.456,0.524 -23.273,0.252C-23.125,0.03 -22.889,-0.132 -22.541,-0.132M-2.592,16.744C-2.774,16.528 -2.752,16.154 -2.492,16.014C-2.375,15.804 -2.117,15.657 -1.838,15.786C-0.611,16.359 1.096,16.509 2.239,15.681C2.585,15.43 2.913,15.76 2.912,16.1C2.914,16.136 2.91,16.173 2.9,16.211C2.89,16.257 2.878,16.303 2.852,16.346C2.851,16.348 2.852,16.349 2.851,16.351C2.604,16.759 2.299,17.071 1.974,17.332C1.79,17.479 1.599,17.604 1.397,17.705C1.362,17.788 1.302,17.862 1.205,17.907C1.125,17.945 1.045,17.968 0.965,17.997C0.433,18.195 -0.103,18.226 -0.666,18.028C-0.832,17.969 -0.986,17.893 -1.135,17.808C-1.204,17.78 -1.272,17.753 -1.34,17.72C-1.74,17.528 -2.115,17.242 -2.453,16.877C-2.498,16.829 -2.549,16.795 -2.592,16.744M3.28,2.857C3.271,2.926 3.23,3.207 3.097,3.571C3.072,3.638 3.045,3.706 3.014,3.777C2.659,4.591 1.845,5.636 0,5.636C-1.996,5.636 -2.784,4.529 -3.091,3.777C-3.121,3.704 -3.147,3.636 -3.168,3.571C-3.26,3.293 -3.282,3.097 -3.282,3.097L2.953,2.848L3.282,2.835C3.282,2.835 3.281,2.846 3.28,2.857M-20.336,1.274C-20.185,1.105 -19.964,0.991 -19.669,0.991C-19.353,0.991 -19.124,1.122 -18.972,1.311C-18.765,1.57 -18.711,1.94 -18.813,2.258C-18.922,2.598 -19.206,2.876 -19.669,2.876C-20.155,2.876 -20.437,2.573 -20.535,2.211C-20.621,1.888 -20.559,1.522 -20.336,1.274M-26.41,1.241L-26.285,1.241C-25.723,1.241 -25.434,1.646 -25.392,2.079C-25.343,2.583 -25.633,3.125 -26.285,3.125L-26.41,3.125C-27.085,3.125 -27.371,2.545 -27.294,2.028C-27.234,1.615 -26.948,1.241 -26.41,1.241M14.156,1.241L14.281,1.241C14.345,1.241 14.391,1.265 14.448,1.275C14.956,1.362 15.205,1.798 15.182,2.237C15.159,2.689 14.863,3.125 14.281,3.125L14.156,3.125C13.549,3.125 13.247,2.656 13.246,2.185C13.246,1.747 13.519,1.324 14.043,1.264C14.083,1.259 14.113,1.241 14.156,1.241M18.941,-0.356C19.8,0.504 18.467,1.836 17.608,0.977C17.567,0.935 17.525,0.894 17.484,0.852C17.226,0.594 17.181,0.297 17.246,0.026C17.398,-0.606 18.216,-1.081 18.816,-0.48C18.846,-0.451 18.875,-0.422 18.904,-0.393C18.917,-0.38 18.929,-0.368 18.941,-0.356M22.524,2.436C22.455,2.606 22.338,2.763 22.121,2.872C22.038,2.913 21.954,2.955 21.871,2.997C21.243,3.311 20.671,2.892 20.503,2.382C20.393,2.047 20.468,1.684 20.82,1.448C20.857,1.423 20.877,1.391 20.92,1.369C21.003,1.328 21.086,1.286 21.169,1.244C21.63,1.014 22.056,1.184 22.323,1.489C22.558,1.756 22.653,2.12 22.524,2.436M11.835,-13.847C11.852,-13.858 11.871,-13.866 11.887,-13.877C13.058,-14.616 14.458,-15.05 15.966,-15.05C17.473,-15.05 18.873,-14.616 20.044,-13.877C22.06,-12.604 23.393,-10.418 23.393,-7.931C23.393,-3.999 20.067,-0.812 15.966,-0.812C14.437,-0.812 13.017,-1.256 11.835,-2.015C9.848,-3.292 8.539,-5.465 8.539,-7.931C8.539,-10.397 9.848,-12.57 11.835,-13.847M-23.061,-13.363C-22.833,-13.547 -22.594,-13.719 -22.344,-13.877C-21.173,-14.616 -19.772,-15.05 -18.266,-15.05C-16.758,-15.05 -15.358,-14.616 -14.187,-13.877C-12.171,-12.604 -10.839,-10.418 -10.839,-7.931C-10.839,-3.999 -14.164,-0.812 -18.266,-0.812C-20.094,-0.812 -21.767,-1.449 -23.061,-2.5C-24.668,-3.805 -25.692,-5.753 -25.692,-7.931C-25.692,-10.11 -24.668,-12.056 -23.061,-13.363M-22.79,4.748C-22.893,4.748 -22.975,4.718 -23.061,4.693C-23.564,4.547 -23.765,4.029 -23.662,3.571C-23.593,3.269 -23.393,3.015 -23.061,2.918C-22.975,2.893 -22.893,2.863 -22.79,2.863C-22.286,2.863 -22.003,3.191 -21.918,3.571C-21.798,4.106 -22.081,4.748 -22.79,4.748M20.091,4.18L20.091,4.305C20.091,5.52 18.207,5.517 18.207,4.305L18.207,4.18C18.207,3.916 18.306,3.72 18.445,3.571C18.605,3.4 18.823,3.305 19.057,3.285C19.131,3.279 19.202,3.282 19.276,3.291C19.497,3.318 19.7,3.409 19.852,3.571C19.991,3.72 20.091,3.916 20.091,4.18M34.247,-10.365C34.244,-11.353 34.233,-12.321 34.206,-13.253C34.199,-13.468 34.185,-13.665 34.177,-13.877C34.174,-13.962 34.169,-14.043 34.166,-14.127C33.956,-14.069 33.654,-14.003 33.258,-13.944C33.083,-13.919 32.892,-13.897 32.68,-13.877C32.578,-13.868 32.474,-13.859 32.364,-13.852C31.804,-13.816 31.136,-13.809 30.341,-13.86C30.263,-13.864 30.184,-13.871 30.104,-13.877C29.844,-13.897 29.567,-13.926 29.284,-13.958C26.47,-14.282 22.431,-15.304 16.987,-17.844C16.645,-18.004 16.319,-18.145 15.966,-18.318C15.05,-18.763 14.177,-19.237 13.339,-19.729C12.823,-20.032 12.323,-20.343 11.835,-20.66C6.644,-24.037 3.079,-28.126 0.836,-31.325C-1.319,-34.399 -2.259,-36.65 -2.259,-36.65C-2.259,-36.65 -3.511,-34.434 -5.612,-31.437C-5.639,-31.399 -5.664,-31.363 -5.69,-31.325C-8.213,-27.741 -11.931,-23.077 -16.182,-19.729C-17.061,-19.036 -17.963,-18.403 -18.881,-17.844C-19.143,-17.685 -19.405,-17.53 -19.669,-17.384C-20.808,-16.755 -21.943,-16.229 -23.061,-15.781C-25.55,-14.784 -27.942,-14.204 -30.075,-13.877C-30.541,-13.806 -30.995,-13.744 -31.433,-13.696C-31.982,-13.635 -32.502,-13.592 -33.002,-13.561C-33.789,-13.511 -34.515,-13.491 -35.159,-13.494C-35.484,-13.495 -35.794,-13.501 -36.079,-13.511C-36.082,-13.415 -36.089,-13.325 -36.092,-13.229C-36.126,-12.201 -36.146,-11.144 -36.146,-10.049C-36.146,-6.89 -35.931,-4.008 -35.539,-1.358C-35.483,-1.248 -35.465,-1.127 -35.491,-1.016C-35.442,-0.699 -35.39,-0.385 -35.336,-0.075C-35.279,0.245 -35.218,0.559 -35.156,0.872C-35.093,1.19 -35.032,1.51 -34.964,1.82C-34.955,1.858 -34.945,1.894 -34.937,1.932C-34.864,2.254 -34.786,2.569 -34.708,2.883C-34.65,3.11 -34.601,3.347 -34.541,3.571C-34.52,3.649 -34.495,3.721 -34.473,3.798C-32.352,11.492 -28.324,16.644 -23.061,19.955C-22.456,20.335 -21.832,20.686 -21.196,21.019C-17.83,22.78 -14.041,23.896 -9.971,24.515C-9.663,24.562 -9.351,24.604 -9.039,24.645C-9.046,24.705 -9.06,24.764 -9.066,24.824C-9.077,24.918 -9.08,25.013 -9.087,25.108C-9.001,25.024 -8.661,24.954 -8.125,24.896C-7.92,24.873 -7.682,24.853 -7.425,24.834C-6.826,24.895 -6.221,24.946 -5.612,24.988C-5.596,24.99 -5.579,24.99 -5.562,24.991C-4.048,25.095 -2.51,25.149 -0.947,25.149C0.516,25.149 1.957,25.097 3.376,25.001C4.213,24.945 5.043,24.874 5.861,24.781C5.984,24.767 6.108,24.753 6.23,24.739L6.312,25.537L6.324,25.656L6.428,26.672L6.625,28.598C6.769,28.021 6.854,27.422 6.864,26.804C6.865,26.76 6.871,26.717 6.871,26.672L6.871,25.703C6.871,25.616 6.86,25.531 6.858,25.445C6.851,25.237 6.842,25.029 6.819,24.824C6.813,24.77 6.802,24.717 6.794,24.662C7.106,24.621 7.419,24.583 7.728,24.536C9.133,24.322 10.501,24.042 11.835,23.704C14.381,23.059 16.787,22.177 19.011,21.019C23.162,18.858 26.678,15.735 29.284,11.399C30.618,9.178 31.712,6.639 32.531,3.748C32.541,3.715 32.551,3.684 32.56,3.651C32.568,3.624 32.577,3.598 32.584,3.571C32.652,3.328 32.714,3.077 32.777,2.828C32.787,2.791 32.795,2.753 32.805,2.716C32.874,2.445 32.941,2.173 33.005,1.896C33.014,1.857 33.024,1.819 33.033,1.779C33.193,1.079 33.338,0.363 33.467,-0.375C33.458,-0.377 33.451,-0.378 33.441,-0.381C32.883,-0.529 33.087,-1.35 33.615,-1.294C34.004,-3.818 34.22,-6.559 34.242,-9.536C33.926,-9.74 33.977,-10.213 34.247,-10.365" style="fill:rgb(226,179,132);fill-rule:nonzero;"/>
        </g>
        <g transform="matrix(0.868442,-0.495791,-0.495791,-0.868442,63.1618,120.591)">
            <path d="M-1.024,-0.368C-0.677,-0.169 -0.372,0.113 -0.159,0.485C0.476,1.599 0.089,3.016 -1.024,3.652C-1.252,3.782 -1.494,3.859 -1.739,3.906C-0.889,2.636 -0.599,1.076 -1.024,-0.368" style="fill:rgb(253,250,201);fill-rule:nonzero;"/>
        </g>
        <g transform="matrix(1,0,0,1,58.1416,121.827)">
            <path d="M0,-1.579C0,-0.297 1.039,0.741 2.321,0.741C2.404,0.741 2.483,0.726 2.564,0.717C2.564,0.711 2.567,0.705 2.567,0.698C2.567,-0.724 1.537,-1.916 0.132,-2.32C0.053,-2.086 0,-1.84 0,-1.579" style="fill:rgb(253,250,201);fill-rule:nonzero;"/>
        </g>
        <g transform="matrix(-0.597213,0.802083,0.802083,0.597213,62.901,119.561)">
            <path d="M1.757,-3.846C1.248,-2.244 1.668,-0.504 2.92,0.578C2.552,0.735 2.154,0.795 1.757,0.752C0.788,-0.402 0.43,-1.947 0.7,-3.451C1.019,-3.67 1.38,-3.805 1.757,-3.846" style="fill:rgb(253,250,201);fill-rule:nonzero;"/>
        </g>
        <g transform="matrix(1,0,0,1,58.7671,122.544)">
            <path d="M0,-3.871C-0.22,-3.634 -0.387,-3.35 -0.493,-3.037C0.912,-2.633 1.941,-1.441 1.941,-0.018C1.941,-0.012 1.939,-0.006 1.939,0C2.271,-0.035 2.579,-0.137 2.854,-0.296C2.734,-1.946 1.589,-3.322 0,-3.871" style="fill:rgb(253,250,201);fill-rule:nonzero;"/>
        </g>
        <g transform="matrix(0.864449,-0.50272,-0.50272,-0.864449,97.3802,120.54)">
            <path d="M-1.034,-0.377C-0.699,-0.181 -0.403,0.092 -0.194,0.451C0.45,1.559 0.074,2.979 -1.034,3.624C-1.256,3.753 -1.491,3.829 -1.729,3.88C-0.89,2.611 -0.611,1.059 -1.034,-0.377" style="fill:rgb(253,250,201);fill-rule:nonzero;"/>
        </g>
        <g transform="matrix(1,0,0,1,92.4785,122.569)">
            <path d="M0,-3.069C-0.081,-2.833 -0.134,-2.584 -0.134,-2.32C-0.134,-1.039 0.905,0 2.187,0C2.28,0 2.369,-0.017 2.459,-0.027C2.459,-0.033 2.461,-0.038 2.461,-0.043C2.461,-1.474 1.419,-2.673 0,-3.069" style="fill:rgb(253,250,201);fill-rule:nonzero;"/>
        </g>
        <g transform="matrix(-0.592062,0.805892,0.805892,0.592062,97.1123,119.528)">
            <path d="M1.755,-3.844C1.247,-2.237 1.671,-0.495 2.927,0.584C2.556,0.74 2.155,0.795 1.755,0.748C0.794,-0.4 0.431,-1.934 0.695,-3.432C1.013,-3.657 1.376,-3.799 1.755,-3.844" style="fill:rgb(253,250,201);fill-rule:nonzero;"/>
        </g>
        <g transform="matrix(1,0,0,1,94.9395,118.682)">
            <path d="M0,3.843C0,3.848 -0.002,3.853 -0.002,3.859C0.329,3.82 0.638,3.714 0.911,3.551C0.785,1.899 -0.368,0.526 -1.964,-0.016C-2.186,0.22 -2.354,0.504 -2.461,0.817C-1.042,1.213 0,2.412 0,3.843" style="fill:rgb(253,250,201);fill-rule:nonzero;"/>
        </g>
        <g transform="matrix(1,0,0,1,75.5161,131.547)">
            <path d="M0,-9.022C0,-9.022 -2.48,-2.296 -3.126,-0.172L3.21,0L0,-9.022Z" style="fill:rgb(253,250,201);fill-rule:nonzero;"/>
        </g>
        <g transform="matrix(-0.335746,-0.941953,-0.941953,0.335746,74.458,128.577)">
            <path d="M-4.445,-3.023L-4.23,-3.023L-1.941,2.888C-2.235,3.105 -2.437,3.243 -2.489,3.248L-4.445,-3.023Z" style="fill:rgb(253,250,201);fill-rule:nonzero;"/>
        </g>
        <g transform="matrix(1,0,0,1,97.7197,111.943)">
            <path d="M0,-0.303C-0.544,-0.56 -1.085,-0.824 -1.622,-1.094L-8.864,-1.094C-8.026,-0.602 -7.154,-0.129 -6.238,0.317C-5.884,0.489 -5.559,0.631 -5.216,0.791L-0.912,0.791C-0.392,0.791 0.031,0.369 0.031,-0.152C0.031,-0.205 0.009,-0.252 0,-0.303" style="fill:rgb(25,23,33);fill-rule:nonzero;"/>
        </g>
        <g transform="matrix(1,0,0,1,52.4556,112.692)">
            <path d="M0,-1.803C-0.282,-1.617 -0.56,-1.427 -0.846,-1.246C-0.888,-1.139 -0.916,-1.024 -0.916,-0.901C-0.916,-0.39 -0.507,0.02 0,0.035C0.009,0.036 0.018,0.041 0.027,0.041L4.179,0.041C5.098,-0.517 6,-1.151 6.878,-1.844L0.06,-1.844C0.04,-1.83 0.02,-1.816 0,-1.803" style="fill:rgb(25,23,33);fill-rule:nonzero;"/>
        </g>
        <g transform="matrix(1,0,0,1,111.922,124.809)">
            <path d="M0,0.782C0.154,0.088 0.423,-0.739 0.334,-1.458C0.183,-2.69 -0.43,-3.093 -1.257,-3.414C-1.51,-3.512 -1.78,-3.604 -2.066,-3.708C-2.106,-3.722 -2.132,-3.747 -2.164,-3.767C-2.186,-0.79 -2.401,1.951 -2.791,4.475C-2.765,4.478 -2.742,4.472 -2.714,4.479C-2.51,4.534 -2.328,4.549 -2.156,4.546C-0.521,4.519 -0.289,2.087 0,0.782" style="fill:rgb(188,98,86);fill-rule:nonzero;"/>
        </g>
        <g transform="matrix(1,0,0,1,113.132,123.266)">
            <path d="M0,-1.405C-0.182,-2.378 -0.679,-3.211 -1.518,-3.754C-2.322,-4.274 -1.894,-5.385 -1.176,-5.508C-0.986,-5.541 -0.781,-5.52 -0.567,-5.382C0.59,-4.632 1.436,-3.495 1.757,-2.155C1.781,-2.068 1.797,-1.979 1.817,-1.891C2.019,-0.715 0.221,-0.219 0,-1.405M-0.851,-6.405C-0.99,-6.464 -1.132,-6.517 -1.277,-6.566C-1.3,-6.573 -1.322,-6.58 -1.345,-6.588C-1.639,-6.683 -1.94,-6.763 -2.255,-6.814C-2.295,-6.821 -2.334,-6.822 -2.374,-6.827C-2.41,-6.818 -2.44,-6.802 -2.479,-6.798C-2.596,-6.785 -2.723,-6.792 -2.86,-6.834C-2.911,-6.85 -2.962,-6.866 -3.013,-6.882C-3.084,-6.884 -3.155,-6.884 -3.226,-6.884C-3.191,-6.895 -3.148,-6.909 -3.126,-6.917C-3.237,-6.951 -3.348,-6.987 -3.459,-7.022C-3.765,-7.117 -4.071,-7.212 -4.377,-7.31C-4.631,-7.391 -4.885,-7.477 -5.139,-7.561L-5.335,-7.625C-6.336,-7.958 -7.335,-8.306 -8.332,-8.673C-10.726,-9.552 -13.098,-10.533 -15.412,-11.627C-15.403,-11.576 -15.381,-11.529 -15.381,-11.475C-15.381,-10.955 -15.804,-10.533 -16.324,-10.533L-20.628,-10.533C-15.185,-7.993 -11.146,-6.971 -8.332,-6.647C-8.048,-6.614 -7.771,-6.586 -7.512,-6.566C-7.432,-6.56 -7.353,-6.553 -7.274,-6.549C-6.479,-6.498 -5.812,-6.505 -5.251,-6.541C-5.142,-6.548 -5.038,-6.557 -4.936,-6.566C-4.724,-6.586 -4.533,-6.608 -4.358,-6.633C-3.961,-6.692 -3.66,-6.758 -3.45,-6.816C-3.446,-6.732 -3.441,-6.651 -3.438,-6.566C-3.431,-6.354 -3.417,-6.157 -3.41,-5.942C-3.383,-5.01 -3.372,-4.042 -3.369,-3.054C-3.276,-3.107 -3.161,-3.123 -3.026,-3.074C-2.83,-3.003 -2.626,-2.932 -2.423,-2.859C-1.5,-2.529 -0.562,-2.134 -0.169,-1.188C0.366,0.102 -0.075,1.634 -0.386,2.921C-0.904,5.069 -1.144,7.366 -3.572,7.049C-3.752,7.025 -3.943,6.99 -4.148,6.936C-4.277,7.674 -4.423,8.39 -4.583,9.09C-4.591,9.13 -4.602,9.168 -4.611,9.207C-4.675,9.484 -4.742,9.756 -4.811,10.027C-4.82,10.064 -4.829,10.102 -4.838,10.139C-4.681,10.161 -4.523,10.181 -4.367,10.191C-3.842,10.222 -3.326,10.179 -2.827,10.08C-2.048,9.926 -1.314,9.623 -0.661,9.196C0.738,8.283 1.768,6.814 2.051,5.045L2.826,0.205C3.28,-2.629 1.686,-5.333 -0.851,-6.405" style="fill:rgb(188,98,86);fill-rule:nonzero;"/>
        </g>
        <g transform="matrix(1,0,0,1,81.9443,158.359)">
            <path d="M0,-1.11L-0.104,-2.126L-0.116,-2.245L-0.198,-3.043C-0.32,-3.028 -0.444,-3.015 -0.567,-3.001C-1.385,-2.908 -2.215,-2.837 -3.052,-2.78C-4.471,-2.684 -5.912,-2.632 -7.375,-2.632C-8.938,-2.632 -10.477,-2.686 -11.99,-2.79C-12.007,-2.791 -12.024,-2.792 -12.041,-2.794C-12.649,-2.836 -13.254,-2.887 -13.853,-2.947C-14.11,-2.928 -14.348,-2.908 -14.553,-2.886C-15.089,-2.828 -15.429,-2.757 -15.516,-2.673C-15.529,-2.66 -15.546,-2.647 -15.546,-2.632C-15.537,-2.623 -15.527,-2.615 -15.519,-2.606C-15.443,-2.527 -15.362,-2.452 -15.283,-2.375C-15.195,-2.29 -15.107,-2.204 -15.015,-2.121C-14.881,-2.002 -14.745,-1.884 -14.604,-1.772C-14.438,-1.64 -14.269,-1.513 -14.094,-1.39C-13.459,-0.942 -12.767,-0.556 -12.041,-0.22C-8.255,1.534 -3.556,1.873 -1.195,1.924C-0.77,1.932 -0.418,1.933 -0.165,1.93C0.14,1.926 0.309,1.919 0.309,1.919L0.197,0.816L0,-1.11Z" style="fill:rgb(188,98,86);fill-rule:nonzero;"/>
        </g>
        <g transform="matrix(1,0,0,1,49.2314,133.702)">
            <path d="M0,-1.884L-0.125,-1.884C-0.663,-1.884 -0.949,-1.51 -1.01,-1.097C-1.086,-0.58 -0.801,0 -0.125,0L0,0C0.651,0 0.942,-0.542 0.893,-1.046C0.851,-1.479 0.562,-1.884 0,-1.884" style="fill:rgb(188,98,86);fill-rule:nonzero;"/>
        </g>
        <g transform="matrix(1,0,0,1,52.7261,135.325)">
            <path d="M0,-1.885C-0.103,-1.885 -0.185,-1.855 -0.271,-1.83C-0.603,-1.733 -0.803,-1.479 -0.872,-1.177C-0.975,-0.719 -0.774,-0.201 -0.271,-0.055C-0.185,-0.03 -0.103,0 0,0C0.709,0 0.992,-0.642 0.872,-1.177C0.787,-1.557 0.504,-1.885 0,-1.885" style="fill:rgb(188,98,86);fill-rule:nonzero;"/>
        </g>
        <g transform="matrix(1,0,0,1,52.9756,132.329)">
            <path d="M0,-1.884C-0.348,-1.884 -0.584,-1.722 -0.733,-1.5C-0.915,-1.228 -0.953,-0.867 -0.833,-0.56C-0.772,-0.403 -0.662,-0.272 -0.52,-0.172C-0.381,-0.073 -0.217,0 0,0C0.415,0 0.677,-0.226 0.808,-0.516C0.944,-0.817 0.925,-1.177 0.756,-1.46C0.612,-1.702 0.369,-1.884 0,-1.884" style="fill:rgb(188,98,86);fill-rule:nonzero;"/>
        </g>
        <g transform="matrix(1,0,0,1,55.8467,133.453)">
            <path d="M0,-1.885C-0.295,-1.885 -0.516,-1.771 -0.667,-1.602C-0.89,-1.354 -0.952,-0.988 -0.865,-0.665C-0.768,-0.303 -0.486,0 0,0C0.464,0 0.748,-0.278 0.856,-0.618C0.958,-0.936 0.904,-1.306 0.697,-1.565C0.546,-1.754 0.316,-1.885 0,-1.885" style="fill:rgb(188,98,86);fill-rule:nonzero;"/>
        </g>
        <g transform="matrix(1,0,0,1,89.9644,133.669)">
            <path d="M0,-1.817C-0.057,-1.827 -0.104,-1.851 -0.167,-1.851L-0.292,-1.851C-0.335,-1.851 -0.365,-1.833 -0.405,-1.828C-0.929,-1.768 -1.203,-1.345 -1.202,-0.907C-1.202,-0.436 -0.899,0.034 -0.292,0.034L-0.167,0.034C0.415,0.034 0.71,-0.402 0.734,-0.855C0.756,-1.294 0.508,-1.73 0,-1.817" style="fill:rgb(188,98,86);fill-rule:nonzero;"/>
        </g>
        <g transform="matrix(1,0,0,1,94.4575,131.688)">
            <path d="M0,-1.466C-0.012,-1.478 -0.025,-1.49 -0.037,-1.503C-0.066,-1.532 -0.096,-1.561 -0.125,-1.591C-0.726,-2.191 -1.543,-1.716 -1.695,-1.085C-1.761,-0.813 -1.716,-0.516 -1.458,-0.258C-1.416,-0.216 -1.375,-0.175 -1.333,-0.133C-0.474,0.725 0.859,-0.607 0,-1.466" style="fill:rgb(188,98,86);fill-rule:nonzero;"/>
        </g>
        <g transform="matrix(1,0,0,1,94.7925,136.091)">
            <path d="M0,-2.223L-0.22,-2.229C-0.454,-2.209 -0.671,-2.114 -0.831,-1.943C-0.971,-1.793 -1.07,-1.598 -1.07,-1.334L-1.07,-1.209C-1.07,0.004 0.814,0.006 0.814,-1.209L0.814,-1.334C0.814,-1.598 0.715,-1.793 0.575,-1.943C0.423,-2.104 0.221,-2.196 0,-2.223" style="fill:rgb(188,98,86);fill-rule:nonzero;"/>
        </g>
        <g transform="matrix(1,0,0,1,96.6855,133.658)">
            <path d="M0,-1.836C-0.083,-1.794 -0.167,-1.753 -0.25,-1.711C-0.292,-1.69 -0.312,-1.657 -0.349,-1.633C-0.702,-1.396 -0.777,-1.033 -0.667,-0.699C-0.498,-0.189 0.073,0.23 0.702,-0.084C0.785,-0.126 0.868,-0.167 0.951,-0.209C1.168,-0.317 1.285,-0.474 1.354,-0.644C1.483,-0.961 1.389,-1.325 1.153,-1.592C0.887,-1.896 0.46,-2.066 0,-1.836" style="fill:rgb(188,98,86);fill-rule:nonzero;"/>
        </g>
        <g transform="matrix(1,0,0,1,78.6128,135.477)">
            <path d="M0,-1.329C0.133,-1.693 0.175,-1.975 0.183,-2.043C0.184,-2.054 0.186,-2.065 0.186,-2.065L-0.144,-2.052L-6.379,-1.803C-6.379,-1.803 -6.356,-1.607 -6.265,-1.329C-6.244,-1.264 -6.218,-1.196 -6.188,-1.123C-5.881,-0.371 -5.093,0.736 -3.097,0.736C-1.251,0.736 -0.438,-0.309 -0.083,-1.123C-0.052,-1.194 -0.024,-1.262 0,-1.329" style="fill:rgb(188,98,86);fill-rule:nonzero;"/>
        </g>
        <g transform="matrix(1,0,0,1,77.7554,148.59)">
            <path d="M0,-2.332C-1.144,-1.504 -2.85,-1.654 -4.078,-2.227C-4.356,-2.356 -4.615,-2.208 -4.731,-1.999C-4.991,-1.859 -5.014,-1.485 -4.832,-1.269C-4.788,-1.218 -4.737,-1.184 -4.692,-1.136C-4.354,-0.77 -3.979,-0.485 -3.58,-0.292C-3.511,-0.26 -3.443,-0.233 -3.374,-0.205C-3.225,-0.12 -3.071,-0.044 -2.905,0.015C-2.342,0.213 -1.806,0.182 -1.274,-0.016C-1.194,-0.045 -1.114,-0.068 -1.034,-0.105C-0.937,-0.151 -0.877,-0.225 -0.842,-0.308C-0.641,-0.409 -0.45,-0.534 -0.266,-0.681C0.06,-0.942 0.365,-1.254 0.611,-1.662C0.612,-1.664 0.612,-1.665 0.613,-1.667C0.64,-1.713 0.65,-1.757 0.661,-1.802C0.67,-1.84 0.674,-1.876 0.673,-1.913C0.671,-1.964 0.659,-2.013 0.639,-2.059C0.562,-2.334 0.294,-2.545 0,-2.332" style="fill:rgb(188,98,86);fill-rule:nonzero;"/>
        </g>
        <g transform="matrix(1,0,0,1,96.0977,88.2786)">
            <path d="M0,22.57C-3.067,21.028 -6.013,19.277 -8.746,17.28C-9.792,16.515 -10.804,15.712 -11.782,14.874C-13.206,13.655 -14.554,12.358 -15.809,10.973C-16.73,9.956 -17.602,8.893 -18.418,7.781C-20.155,5.415 -21.633,2.826 -22.801,0C-23.876,1.734 -25.007,3.443 -26.194,5.115C-26.833,6.016 -27.487,6.905 -28.159,7.781C-28.992,8.867 -29.846,9.934 -30.731,10.973C-32.169,12.664 -33.682,14.281 -35.263,15.82C-37.838,18.325 -40.608,20.6 -43.583,22.57L-36.764,22.57C-32.512,19.221 -28.794,14.558 -26.272,10.973C-26.245,10.936 -26.22,10.9 -26.194,10.862C-24.093,7.865 -22.84,5.649 -22.84,5.649C-22.84,5.649 -21.9,7.9 -19.746,10.973C-17.502,14.173 -13.938,18.262 -8.746,21.638C-8.259,21.956 -7.759,22.267 -7.242,22.57L0,22.57Z" style="fill:rgb(188,98,86);fill-rule:nonzero;"/>
        </g>
        <g transform="matrix(1,0,0,1,37.2158,125.302)">
            <path d="M0,-5.688C-0.629,-5.192 -1.077,-4.526 -1.146,-3.712C-1.189,-3.203 -1.542,-2.77 -2.088,-2.77C-2.128,-2.77 -2.168,-2.79 -2.208,-2.796C-2.341,-2.815 -2.465,-2.863 -2.583,-2.938C-2.853,-3.108 -3.058,-3.388 -3.03,-3.712C-2.958,-4.56 -2.673,-5.357 -2.208,-6.043C-1.965,-6.403 -1.687,-6.741 -1.333,-7.021C-0.995,-7.287 -0.565,-7.366 -0.201,-7.153C-0.132,-7.114 -0.062,-7.083 0,-7.021C0.33,-6.69 0.399,-6.004 0,-5.688M18.631,-12.108C18.895,-12.254 19.157,-12.41 19.419,-12.568L15.267,-12.568C15.257,-12.568 15.249,-12.574 15.24,-12.574C14.732,-12.589 14.324,-13 14.324,-13.511C14.324,-13.633 14.352,-13.749 14.394,-13.855C11.521,-12.04 8.452,-10.53 5.192,-9.363C4.683,-9.181 4.179,-8.989 3.66,-8.825C3.493,-8.772 3.324,-8.725 3.155,-8.673C3.069,-8.647 2.979,-8.627 2.893,-8.602C2.674,-8.537 2.451,-8.482 2.231,-8.421C2.039,-8.367 1.847,-8.314 1.654,-8.263C1.521,-8.228 1.389,-8.188 1.255,-8.154C0.978,-8.084 0.71,-7.995 0.43,-7.929C0.325,-7.904 0.231,-7.914 0.138,-7.92C-0.074,-7.934 -0.251,-8.012 -0.392,-8.139C-1.1,-7.74 -1.715,-7.208 -2.208,-6.58C-3.229,-5.28 -3.735,-3.581 -3.455,-1.831L-2.679,3.009C-2.592,3.556 -2.427,4.071 -2.208,4.554C-1.794,5.47 -1.166,6.254 -0.394,6.857C-0.137,7.058 0.134,7.238 0.42,7.395C0.696,7.549 0.983,7.683 1.281,7.792C1.792,7.979 2.331,8.096 2.885,8.141C3.119,8.16 3.354,8.167 3.593,8.158C3.515,7.844 3.436,7.53 3.364,7.208C3.355,7.169 3.345,7.133 3.336,7.095C3.268,6.785 3.207,6.465 3.144,6.147C3.082,5.834 3.021,5.52 2.964,5.2C2.91,4.89 2.858,4.577 2.81,4.26C2.777,4.4 2.681,4.52 2.488,4.553C2.333,4.579 2.191,4.59 2.052,4.599C1.14,4.653 0.542,4.34 0.138,3.813C-0.59,2.866 -0.699,1.235 -0.898,-0.179C-1.141,-1.903 -1.243,-3.996 0.138,-4.816C0.428,-4.989 0.781,-5.108 1.216,-5.152C1.364,-5.167 1.517,-5.177 1.684,-5.174C2.074,-5.169 2.209,-4.779 2.098,-4.503C2.042,-4.334 1.9,-4.197 1.67,-4.197C1.622,-4.197 1.584,-4.212 1.544,-4.223C1.434,-4.219 1.325,-4.213 1.228,-4.196C0.684,-4.102 0.344,-3.814 0.138,-3.423C-0.38,-2.443 -0.054,-0.804 0.098,0.163C0.111,0.252 0.125,0.353 0.138,0.458C0.28,1.624 0.417,3.631 1.876,3.67C1.989,3.673 2.108,3.666 2.237,3.644C2.486,3.602 2.669,3.74 2.761,3.918C2.37,1.268 2.155,-1.614 2.155,-4.773C2.155,-5.869 2.174,-6.925 2.208,-7.954C2.211,-8.05 2.218,-8.14 2.222,-8.235C2.506,-8.225 2.816,-8.22 3.142,-8.218C3.785,-8.215 4.512,-8.236 5.298,-8.285C5.798,-8.316 6.318,-8.359 6.867,-8.42C7.306,-8.469 7.76,-8.53 8.225,-8.602C10.358,-8.928 12.75,-9.509 15.24,-10.506C16.357,-10.953 17.492,-11.479 18.631,-12.108" style="fill:rgb(188,98,86);fill-rule:nonzero;"/>
        </g>
        <g transform="matrix(-0.488863,-0.872361,-0.872361,0.488863,43.4602,77.5953)">
            <path d="M-8.539,-14.935C-6.182,-8.607 -5.603,-1.923 -6.724,4.729C-6.926,5.925 -8.739,5.403 -8.539,4.217C-7.473,-2.107 -8.134,-8.48 -10.369,-14.484C-10.791,-15.617 -8.958,-16.062 -8.539,-14.935" style="fill:rgb(237,122,36);fill-rule:nonzero;"/>
        </g>
        <g transform="matrix(-1,0,0,1,64.7653,78.8908)">
            <path d="M-0.116,-1.884L0.001,-1.884C1.213,-1.884 1.215,0 0.001,0L-0.116,0C-1.329,0 -1.331,-1.884 -0.116,-1.884" style="fill:rgb(237,122,36);fill-rule:nonzero;"/>
        </g>
        <g transform="matrix(-0.964976,0.26234,0.26234,0.964976,109.755,96.4514)">
            <path d="M1.432,-11.525C2.226,-12.447 3.566,-11.119 2.777,-10.205C0.578,-7.654 1.034,-3.403 1.432,-0.315C1.586,0.884 -0.3,0.868 -0.453,-0.321C-0.931,-4.028 -1.166,-8.511 1.432,-11.525" style="fill:rgb(237,122,36);fill-rule:nonzero;"/>
        </g>
        <g transform="matrix(1,0,0,1,108.765,165.235)">
            <path d="M0,-31.778C-0.156,-31.788 -0.313,-31.807 -0.471,-31.829C-0.535,-31.581 -0.597,-31.33 -0.665,-31.087C-0.672,-31.059 -0.681,-31.034 -0.688,-31.007C-0.698,-30.974 -0.708,-30.943 -0.717,-30.91C-1.536,-28.019 -2.63,-25.479 -3.965,-23.258C-6.57,-18.923 -10.086,-15.8 -14.238,-13.638C-16.462,-12.481 -18.868,-11.599 -21.413,-10.954C-22.747,-10.615 -24.116,-10.336 -25.521,-10.122C-25.829,-10.075 -26.143,-10.037 -26.454,-9.996C-26.447,-9.941 -26.435,-9.888 -26.429,-9.833C-26.406,-9.629 -26.397,-9.421 -26.391,-9.213C-26.388,-9.126 -26.377,-9.042 -26.377,-8.954L-26.377,-8.839C-26.061,-8.741 -25.747,-8.638 -25.435,-8.53C-24.026,-8.04 -22.68,-7.438 -21.413,-6.735C-18.641,-5.197 -16.245,-3.182 -14.37,-0.818C-14.129,-0.514 -13.896,-0.205 -13.673,0.11C-13.285,0.102 -12.914,0.095 -12.556,0.087C-10.125,0.039 -8.382,0.008 -7.646,0.008C-6.651,0.008 -5.343,0.066 -3.965,-0.053C-0.254,-0.373 3.965,-1.981 3.965,-9.508L3.965,-31.823L1.541,-31.888C1.041,-31.79 0.525,-31.746 0,-31.778" style="fill:rgb(209,87,25);fill-rule:nonzero;"/>
        </g>
        <g transform="matrix(1,0,0,1,54.3203,147.102)">
            <path d="M0,4.495C-0.636,4.162 -1.26,3.81 -1.865,3.431C-7.128,0.12 -11.156,-5.032 -13.277,-12.726C-13.299,-12.803 -13.324,-12.876 -13.345,-12.953C-13.405,-13.177 -13.455,-13.414 -13.512,-13.642C-13.75,-13.633 -13.985,-13.64 -14.219,-13.659C-14.774,-13.704 -15.313,-13.821 -15.824,-14.008C-16.122,-14.117 -16.408,-14.251 -16.685,-14.404L-16.925,-13.69L-16.925,10.906C-16.925,12.991 -18.234,18.811 -2.181,18.895C-2.074,18.896 -1.974,18.899 -1.865,18.899L-1.837,18.899C-1.588,18.899 -1.327,18.898 -1.072,18.898C-0.862,18.578 -0.645,18.264 -0.417,17.954C2.336,14.205 6.369,11.262 11.136,9.603C11.447,9.495 11.761,9.392 12.078,9.295L12.078,9.179C12.078,9.063 12.091,8.951 12.096,8.836C12.099,8.774 12.101,8.713 12.105,8.651C12.097,8.642 12.087,8.634 12.078,8.625C12.078,8.611 12.095,8.598 12.108,8.584C12.116,8.489 12.119,8.394 12.13,8.3C12.136,8.24 12.149,8.181 12.157,8.121C11.845,8.079 11.533,8.037 11.225,7.991C7.155,7.371 3.366,6.256 0,4.495" style="fill:rgb(209,87,25);fill-rule:nonzero;"/>
        </g>
        <g transform="matrix(1,0,0,1,105.35,105.68)">
            <path d="M0,-19.974C3.298,-17.747 4.247,-13.359 4.759,-9.657C4.923,-8.469 3.107,-7.959 2.941,-9.156C2.515,-12.241 1.84,-16.462 -0.951,-18.347C-1.952,-19.022 -1.008,-20.655 0,-19.974M-62.728,-19.906C-57.473,-24.136 -51.359,-26.899 -44.686,-27.936C-43.498,-28.121 -42.99,-26.305 -44.185,-26.119C-50.515,-25.135 -56.398,-22.596 -61.395,-18.573C-62.331,-17.819 -63.672,-19.145 -62.728,-19.906M-40.585,-28.673L-40.468,-28.673C-39.253,-28.673 -39.255,-26.788 -40.468,-26.788L-40.585,-26.788C-41.799,-26.788 -41.797,-28.673 -40.585,-28.673M7.378,10.349L7.322,-11.752C7.322,-11.752 7.638,-30.7 -29.032,-31.135C-29.458,-31.141 -29.864,-31.156 -30.3,-31.156C-30.854,-31.156 -31.372,-31.139 -31.91,-31.131C-68.246,-30.599 -68.321,-12.358 -68.321,-12.358L-68.321,9.929C-68.279,9.914 -68.251,9.887 -68.205,9.876C-68.134,9.859 -68.067,9.836 -67.996,9.819C-67.807,9.774 -67.625,9.714 -67.437,9.666C-67.417,9.661 -67.398,9.655 -67.378,9.65C-67.19,9.602 -67.004,9.547 -66.817,9.497C-66.48,9.405 -66.141,9.32 -65.808,9.221C-65.509,9.132 -65.208,9.046 -64.912,8.95C-60.55,7.548 -56.559,5.478 -52.894,2.929C-49.882,0.834 -47.094,-1.585 -44.515,-4.242C-43.823,-4.954 -43.146,-5.683 -42.483,-6.428C-41.561,-7.465 -40.665,-8.529 -39.798,-9.62C-38.264,-11.55 -36.813,-13.55 -35.446,-15.601C-34.605,-16.864 -33.798,-18.144 -33.018,-19.435C-32.978,-19.501 -32.938,-19.566 -32.898,-19.632C-32.911,-19.669 -32.925,-19.705 -32.938,-19.743C-33.015,-19.974 -32.987,-20.168 -32.917,-20.338C-32.686,-20.902 -31.824,-21.092 -31.354,-20.619C-31.206,-20.555 -31.067,-20.47 -30.963,-20.349C-30.763,-20.116 -30.696,-19.794 -30.835,-19.453C-30.83,-19.438 -30.824,-19.423 -30.818,-19.408C-29.488,-15.757 -27.619,-12.507 -25.334,-9.62C-24.451,-8.502 -23.504,-7.44 -22.505,-6.428C-22.026,-5.942 -21.536,-5.467 -21.034,-5.005C-20.062,-4.11 -19.048,-3.258 -17.998,-2.446C-12.819,1.557 -6.756,4.587 -0.55,6.911C0.447,7.284 1.447,7.64 2.447,7.978C2.743,8.078 3.038,8.174 3.333,8.271C3.366,8.282 3.399,8.293 3.433,8.303C3.698,8.39 3.964,8.477 4.229,8.562C4.569,8.67 4.908,8.776 5.247,8.88C5.306,8.898 5.364,8.918 5.423,8.935C5.926,9.089 6.103,9.517 6.062,9.924C6.038,10.182 5.925,10.421 5.736,10.586C6.004,10.686 6.231,10.769 6.437,10.845C7.036,11.063 7.379,11.182 7.38,11.182L7.378,10.349Z" style="fill:rgb(209,87,25);fill-rule:nonzero;"/>
        </g>
        <g transform="matrix(1,0,0,1,60.3286,170.769)">
            <path d="M0,-9.361C-1.635,-8.373 -3.05,-7.146 -4.227,-5.722C-4.479,-5.416 -4.719,-5.099 -4.949,-4.776C-5.167,-4.469 -5.37,-4.152 -5.567,-3.83C-5.978,-3.16 -6.343,-2.457 -6.664,-1.724C-6.771,-1.482 -6.883,-1.243 -6.98,-0.993C-7.417,0.139 -5.596,0.629 -5.163,-0.492C-5,-0.915 -4.814,-1.324 -4.615,-1.724C-4.243,-2.471 -3.809,-3.177 -3.32,-3.842C-3.08,-4.169 -2.826,-4.485 -2.559,-4.79C-2.27,-5.12 -1.964,-5.436 -1.646,-5.739C-0.861,-6.488 0.004,-7.161 0.952,-7.734C1.988,-8.36 1.042,-9.99 0,-9.361" style="fill:rgb(158,221,218);fill-rule:nonzero;"/>
        </g>
        <g transform="matrix(1,0,0,1,114.889,119.699)">
            <path d="M0,1.412C-0.418,-0.076 -1.488,-1.317 -2.933,-1.941C-3.65,-1.818 -4.079,-0.707 -3.275,-0.187C-2.436,0.356 -1.938,1.189 -1.757,2.162C-1.535,3.353 0.282,2.849 0.061,1.661C0.045,1.577 0.02,1.495 0,1.412" style="fill:rgb(211,112,102);fill-rule:nonzero;"/>
        </g>
        <g transform="matrix(1,0,0,1,37.0151,122.531)">
            <path d="M0,-4.383C-0.535,-4.037 -1.012,-3.598 -1.398,-3.065C-1.658,-2.707 -1.849,-2.318 -2.008,-1.918C-2.23,-1.358 -2.366,-0.77 -2.382,-0.167C-2.265,-0.093 -2.141,-0.045 -2.008,-0.026C-1.967,-0.02 -1.928,0 -1.887,0C-1.342,0 -0.988,-0.433 -0.945,-0.942C-0.876,-1.756 -0.428,-2.422 0.201,-2.918C0.6,-3.234 0.531,-3.92 0.201,-4.25C0.138,-4.313 0.068,-4.343 0,-4.383" style="fill:rgb(211,112,102);fill-rule:nonzero;"/>
        </g>
        <g transform="matrix(1,0,0,1,115.027,127.98)">
            <path d="M0,-4.658L-0.775,0.182C-1.124,2.358 -2.793,3.988 -4.829,4.421C-5.209,4.501 -5.601,4.53 -6,4.523C-5.988,4.478 -5.975,4.434 -5.963,4.39C-5.784,3.723 -5.62,3.038 -5.468,2.335C-3.039,2.653 -2.8,0.355 -2.281,-1.793C-1.971,-3.08 -1.529,-4.612 -2.064,-5.902C-2.457,-6.847 -3.395,-7.243 -4.318,-7.573C-4.319,-8.606 -4.328,-9.616 -4.347,-10.6C-4.331,-10.598 -4.315,-10.6 -4.299,-10.597C-3.864,-10.528 -3.459,-10.389 -3.071,-10.222C-1.816,-9.679 -0.845,-8.671 -0.337,-7.439C-0.268,-7.251 -0.186,-7.067 -0.139,-6.869C0.058,-6.169 0.123,-5.422 0,-4.658M-3.24,5.992L-3.24,27.747C-3.24,30.736 -3.948,32.95 -5.345,34.329C-6.672,35.638 -8.473,36.101 -10.228,36.259C-11.25,36.35 -12.258,36.339 -13.145,36.327C-13.415,36.324 -13.671,36.321 -13.909,36.321C-14.718,36.321 -16.688,36.357 -19.475,36.413C-21.583,33.583 -24.389,31.2 -27.676,29.457C-28.871,28.823 -30.131,28.277 -31.443,27.821C-30.216,27.58 -28.955,27.281 -27.676,26.9C-25.136,26.145 -22.536,25.084 -20.034,23.616C-16.385,21.476 -12.954,18.455 -10.228,14.23C-8.772,11.975 -7.522,9.375 -6.548,6.379C-6.329,6.4 -6.107,6.432 -5.891,6.432C-4.506,6.447 -3.24,5.992 -3.24,5.992ZM-17.181,47.873L-64.088,47.873C-63.973,45.627 -63.442,43.476 -62.572,41.472C-62.513,41.336 -62.458,41.199 -62.396,41.065C-62.062,40.341 -61.677,39.641 -61.255,38.961C-61.057,38.641 -60.849,38.326 -60.632,38.017C-60.407,37.696 -60.174,37.381 -59.93,37.072C-57.362,33.82 -53.764,31.241 -49.548,29.715C-49.396,32.768 -47.711,35.417 -45.243,36.911C-45.203,36.935 -45.164,36.96 -45.124,36.984C-44.528,37.331 -43.894,37.616 -43.222,37.821C-42.402,38.069 -41.534,38.205 -40.634,38.205C-39.63,38.205 -38.667,38.031 -37.766,37.724C-37.05,37.481 -36.374,37.152 -35.752,36.744C-33.432,35.223 -31.867,32.655 -31.721,29.715C-30.296,30.231 -28.944,30.868 -27.676,31.61C-25.429,32.922 -23.456,34.567 -21.841,36.462C-21.583,36.764 -21.333,37.073 -21.094,37.388C-20.863,37.693 -20.64,38.002 -20.427,38.318C-19.836,39.194 -19.313,40.111 -18.873,41.065C-17.894,43.183 -17.304,45.475 -17.181,47.873M-75.62,34.107C-76.789,32.894 -76.738,31.515 -76.701,30.509C-76.695,30.334 -76.689,30.172 -76.689,30.027L-76.689,6.056C-76.575,6.095 -76.46,6.135 -76.344,6.168C-75.797,6.322 -75.227,6.406 -74.645,6.423C-72.179,14.236 -67.64,19.325 -62.572,22.635C-62.042,22.981 -61.508,23.308 -60.968,23.616C-57.188,25.775 -53.217,27.042 -49.657,27.762C-54.929,29.551 -59.363,32.856 -62.275,37.078L-62.572,37.078C-69.331,37.075 -73.721,36.076 -75.62,34.107M-77.082,3.793C-77.366,3.623 -77.631,3.429 -77.879,3.208C-78.738,2.442 -79.365,1.405 -79.561,0.182L-80.02,-2.687L-80.335,-4.658C-80.387,-4.978 -80.402,-5.299 -80.394,-5.616C-80.378,-6.219 -80.243,-6.806 -80.02,-7.366C-79.861,-7.766 -79.67,-8.156 -79.41,-8.514C-79.024,-9.047 -78.547,-9.486 -78.012,-9.832C-77.57,-10.117 -77.082,-10.318 -76.568,-10.458C-76.586,-9.603 -76.593,-8.723 -76.595,-7.831C-77.03,-7.787 -77.383,-7.668 -77.674,-7.495C-79.055,-6.675 -78.953,-4.582 -78.71,-2.857C-78.511,-1.444 -78.402,0.188 -77.674,1.135C-77.27,1.662 -76.672,1.975 -75.76,1.92C-75.723,2.116 -75.682,2.307 -75.643,2.5C-75.578,2.816 -75.521,3.14 -75.451,3.448C-75.377,3.771 -75.294,4.082 -75.213,4.397C-75.208,4.42 -75.201,4.443 -75.195,4.466C-75.369,4.44 -75.546,4.426 -75.715,4.383C-76.203,4.259 -76.655,4.048 -77.082,3.793M-4.28,-11.538C-4.276,-11.539 -4.273,-11.54 -4.27,-11.541C-4.273,-11.54 -4.276,-11.539 -4.28,-11.538M-4.362,-6.586C-3.535,-6.264 -2.922,-5.862 -2.771,-4.629C-2.683,-3.91 -2.952,-3.084 -3.105,-2.389C-3.395,-1.084 -3.626,1.348 -5.262,1.375C-4.791,-1.057 -4.486,-3.709 -4.362,-6.586M-75.936,0.991C-77.395,0.953 -77.532,-1.054 -77.674,-2.22C-77.687,-2.325 -77.7,-2.427 -77.714,-2.516C-77.865,-3.482 -78.192,-5.122 -77.674,-6.102C-77.467,-6.493 -77.127,-6.78 -76.584,-6.875C-76.556,-4.036 -76.335,-1.414 -75.936,0.991M-33.583,28.301L-33.583,29.269C-33.583,30.356 -33.837,31.382 -34.278,32.302C-35.415,34.675 -37.833,36.321 -40.634,36.321C-42.339,36.321 -43.903,35.713 -45.124,34.703C-46.688,33.408 -47.687,31.453 -47.687,29.269L-47.687,28.301C-47.687,28.247 -47.68,28.196 -47.678,28.142C-47.678,28.133 -47.677,28.123 -47.677,28.113C-47.653,28.117 -47.63,28.12 -47.606,28.124C-46.739,28.259 -45.91,28.364 -45.124,28.444C-44.984,28.458 -44.843,28.473 -44.706,28.486C-43.031,28.641 -41.575,28.689 -40.458,28.689C-39.265,28.689 -37.885,28.64 -36.386,28.512C-35.493,28.437 -34.559,28.332 -33.588,28.191C-33.587,28.228 -33.583,28.263 -33.583,28.301M-33.86,26.36C-34.677,26.472 -35.478,26.559 -36.264,26.626C-37.734,26.75 -39.146,26.804 -40.458,26.804C-41.575,26.804 -43.05,26.752 -44.749,26.585C-44.874,26.572 -44.997,26.561 -45.124,26.548C-45.84,26.471 -46.595,26.371 -47.379,26.246C-47.685,26.197 -47.994,26.145 -48.309,26.088C-48.616,26.032 -48.923,25.978 -49.237,25.914C-51.585,25.435 -54.12,24.704 -56.65,23.616C-58.662,22.752 -60.665,21.654 -62.572,20.272C-66.794,17.211 -70.513,12.733 -72.688,6.207C-72.692,6.194 -72.697,6.181 -72.701,6.168C-72.797,5.881 -72.899,5.604 -72.988,5.309C-73.072,5.031 -73.142,4.735 -73.22,4.451C-73.227,4.427 -73.232,4.404 -73.239,4.38C-73.319,4.088 -73.402,3.801 -73.476,3.501C-73.552,3.191 -73.622,2.872 -73.692,2.553C-74.342,-0.412 -74.714,-3.723 -74.714,-7.452C-74.714,-8.397 -74.7,-9.305 -74.683,-10.204L-74.654,-11.352C-74.486,-11.403 -74.317,-11.451 -74.151,-11.504C-73.632,-11.668 -73.128,-11.86 -72.62,-12.042C-69.36,-13.209 -66.29,-14.719 -63.417,-16.534C-63.132,-16.715 -62.854,-16.905 -62.572,-17.091C-62.552,-17.104 -62.532,-17.118 -62.512,-17.132C-59.538,-19.101 -56.768,-21.376 -54.193,-23.882C-52.612,-25.421 -51.099,-27.038 -49.661,-28.728C-48.775,-29.768 -47.921,-30.835 -47.089,-31.92C-46.417,-32.796 -45.763,-33.686 -45.124,-34.586C-43.937,-36.259 -42.806,-37.968 -41.73,-39.702C-40.563,-36.875 -39.084,-34.287 -37.348,-31.92C-36.532,-30.808 -35.66,-29.745 -34.738,-28.728C-33.483,-27.344 -32.135,-26.047 -30.712,-24.827C-29.733,-23.99 -28.722,-23.186 -27.676,-22.422C-24.943,-20.425 -21.997,-18.674 -18.93,-17.132C-18.393,-16.862 -17.852,-16.598 -17.308,-16.341C-14.993,-15.247 -12.622,-14.266 -10.228,-13.387C-9.231,-13.02 -8.231,-12.672 -7.23,-12.339L-7.034,-12.275C-6.78,-12.191 -6.527,-12.105 -6.273,-12.024L-6.253,-11.347C-6.253,-11.325 -6.252,-11.303 -6.252,-11.28C-6.246,-11.027 -6.235,-10.787 -6.23,-10.531C-6.212,-9.535 -6.202,-8.514 -6.202,-7.466C-6.333,-3.054 -6.913,0.79 -7.83,4.159C-7.846,4.218 -7.86,4.28 -7.876,4.338C-7.946,4.588 -8.016,4.836 -8.089,5.08C-8.109,5.146 -8.131,5.208 -8.151,5.273C-8.224,5.512 -8.301,5.747 -8.377,5.981C-8.397,6.043 -8.417,6.107 -8.437,6.168C-8.441,6.181 -8.445,6.195 -8.45,6.208C-8.969,7.764 -9.561,9.215 -10.228,10.551C-13.559,17.225 -18.587,21.242 -23.943,23.616C-25.176,24.163 -26.425,24.623 -27.676,25.007C-29.124,25.451 -30.571,25.795 -31.995,26.057C-32.306,26.114 -32.617,26.171 -32.926,26.221C-33.239,26.271 -33.551,26.317 -33.86,26.36M-77.056,-12.651L-77.056,-34.659C-77.056,-50.692 -47.752,-52.353 -40.148,-52.514C-32.544,-52.353 -3.24,-50.692 -3.24,-34.659L-3.24,-11.456C-3.447,-11.532 -3.674,-11.615 -3.941,-11.715C-3.753,-11.88 -3.64,-12.119 -3.615,-12.376C-3.575,-12.784 -3.752,-13.212 -4.255,-13.366C-4.313,-13.383 -4.372,-13.403 -4.431,-13.421C-4.77,-13.525 -5.109,-13.631 -5.449,-13.739C-5.714,-13.824 -5.979,-13.91 -6.245,-13.997C-6.278,-14.008 -6.312,-14.019 -6.345,-14.03C-6.64,-14.127 -6.935,-14.223 -7.23,-14.323C-8.231,-14.66 -9.231,-15.016 -10.228,-15.39C-16.434,-17.714 -22.497,-20.744 -27.676,-24.747C-28.726,-25.559 -29.74,-26.411 -30.712,-27.305C-31.214,-27.768 -31.704,-28.242 -32.183,-28.728C-33.182,-29.741 -34.128,-30.803 -35.012,-31.92C-37.297,-34.808 -39.166,-38.057 -40.496,-41.708C-40.502,-41.723 -40.507,-41.739 -40.513,-41.754C-40.374,-42.095 -40.44,-42.417 -40.641,-42.65C-40.745,-42.771 -40.884,-42.856 -41.032,-42.92C-41.502,-43.393 -42.364,-43.203 -42.595,-42.639C-42.665,-42.469 -42.693,-42.274 -42.616,-42.044C-42.603,-42.006 -42.588,-41.97 -42.576,-41.932C-42.615,-41.867 -42.656,-41.802 -42.695,-41.736C-43.476,-40.445 -44.283,-39.164 -45.124,-37.902C-46.49,-35.85 -47.941,-33.85 -49.476,-31.92C-50.343,-30.83 -51.238,-29.765 -52.161,-28.728C-52.824,-27.984 -53.501,-27.255 -54.193,-26.542C-56.771,-23.886 -59.56,-21.467 -62.572,-19.372C-66.236,-16.823 -70.228,-14.753 -74.589,-13.35C-74.885,-13.255 -75.187,-13.169 -75.486,-13.079C-75.818,-12.981 -76.158,-12.895 -76.495,-12.804C-76.682,-12.753 -76.868,-12.699 -77.056,-12.651ZM-1.355,-11.461L-1.355,-34.659C-1.355,-51.525 -28.304,-54.029 -38.709,-54.366L-38.709,-54.416C-39.1,-54.416 -39.589,-54.412 -40.148,-54.403C-40.708,-54.412 -41.197,-54.416 -41.587,-54.416L-41.587,-54.366C-51.993,-54.029 -78.941,-51.525 -78.941,-34.659L-78.941,-11.485C-79.71,-11.006 -80.388,-10.377 -80.937,-9.619C-82.047,-8.086 -82.494,-6.218 -82.196,-4.36L-81.421,0.48C-81.109,2.431 -80.021,4.068 -78.524,5.128L-78.574,5.278L-78.574,30.027C-78.574,30.152 -78.58,30.29 -78.585,30.44C-78.628,31.632 -78.701,33.625 -76.976,35.415C-74.769,37.705 -70.329,38.863 -63.434,38.954C-65.074,41.934 -65.997,45.28 -65.997,48.815L-65.997,49.758L-15.272,49.758L-15.272,48.815C-15.272,45.008 -16.344,41.421 -18.229,38.273C-16.095,38.231 -14.583,38.205 -13.909,38.205C-13.679,38.205 -13.431,38.209 -13.169,38.212C-10.583,38.25 -6.681,38.297 -4.021,35.67C-2.252,33.925 -1.355,31.259 -1.355,27.747L-1.355,4.776C-0.095,3.72 0.806,2.226 1.085,0.48L1.861,-4.36C2.322,-7.239 0.967,-9.995 -1.355,-11.461" style="fill:rgb(47,40,57);fill-rule:nonzero;"/>
        </g>
        <g transform="matrix(1,0,0,1,57.251,116.47)">
            <path d="M0,12.353C-1.901,12.353 -3.608,11.565 -4.795,10.32C-5.841,9.223 -6.485,7.771 -6.485,6.176C-6.485,4.582 -5.841,3.131 -4.795,2.034C-3.983,1.182 -2.928,0.547 -1.731,0.23C-1.179,0.084 -0.601,-0 0,-0C0.6,-0 1.179,0.084 1.731,0.23C4.467,0.955 6.484,3.343 6.484,6.176C6.484,9.582 3.575,12.353 0,12.353M0,-1.885C-4.615,-1.885 -8.369,1.731 -8.369,6.176C-8.369,10.622 -4.615,14.238 0,14.238C4.614,14.238 8.369,10.622 8.369,6.176C8.369,1.731 4.614,-1.885 0,-1.885" style="fill:rgb(47,40,57);fill-rule:nonzero;"/>
        </g>
        <g transform="matrix(1,0,0,1,60.7061,122.506)">
            <path d="M0,0.038C-0.011,1.781 -1.556,3.196 -3.455,3.196C-5.362,3.196 -6.913,1.771 -6.913,0.019C-6.913,-1.732 -5.362,-3.157 -3.455,-3.157C-3.097,-3.157 -2.758,-3.092 -2.432,-2.999C-2.326,-3.313 -2.159,-3.596 -1.939,-3.833C-1.681,-4.11 -1.357,-4.319 -0.991,-4.444C-1.732,-4.813 -2.562,-5.042 -3.455,-5.042C-5.57,-5.042 -7.385,-3.862 -8.25,-2.17C-8.591,-1.504 -8.798,-0.768 -8.798,0.019C-8.798,0.807 -8.591,1.543 -8.25,2.208C-7.385,3.901 -5.57,5.08 -3.455,5.08C-0.509,5.08 1.887,2.81 1.887,0.019C1.887,-0.362 1.834,-0.73 1.749,-1.087C1.546,-0.743 1.26,-0.459 0.915,-0.258C0.64,-0.099 0.332,0.003 0,0.038" style="fill:rgb(47,40,57);fill-rule:nonzero;"/>
        </g>
        <g transform="matrix(1,0,0,1,87.3516,127.404)">
            <path d="M0,-9.515C0.693,-10.061 1.509,-10.468 2.399,-10.703C2.951,-10.849 3.53,-10.934 4.13,-10.934C4.73,-10.934 5.31,-10.849 5.862,-10.703C8.598,-9.979 10.615,-7.591 10.615,-4.758C10.615,-1.352 7.706,1.419 4.13,1.419C2.563,1.419 1.123,0.886 0,0C-1.437,-1.134 -2.354,-2.846 -2.354,-4.758C-2.354,-6.669 -1.437,-8.381 0,-9.515M4.13,3.304C4.567,3.304 4.992,3.262 5.411,3.199C5.985,3.114 6.539,2.973 7.069,2.781C10.236,1.631 12.499,-1.309 12.499,-4.758C12.499,-9.203 8.745,-12.819 4.13,-12.819C-0.484,-12.819 -4.239,-9.203 -4.239,-4.758C-4.239,-0.312 -0.484,3.304 4.13,3.304" style="fill:rgb(47,40,57);fill-rule:nonzero;"/>
        </g>
        <g transform="matrix(1,0,0,1,91.4819,117.464)">
            <path d="M0,10.122C2.946,10.122 5.342,7.851 5.342,5.061C5.342,4.667 5.284,4.289 5.194,3.921C4.995,4.271 4.713,4.562 4.368,4.768C4.095,4.932 3.787,5.038 3.456,5.077C3.446,6.821 1.9,8.238 0,8.238C-1.906,8.238 -3.458,6.812 -3.458,5.061C-3.458,3.31 -1.906,1.884 0,1.884C0.349,1.884 0.679,1.946 0.997,2.035C1.104,1.722 1.272,1.438 1.493,1.202C1.754,0.923 2.083,0.715 2.453,0.592C1.715,0.226 0.889,0 0,0C-1.673,0 -3.15,0.747 -4.13,1.891C-4.876,2.761 -5.342,3.855 -5.342,5.061C-5.342,6.267 -4.876,7.36 -4.13,8.231C-3.15,9.375 -1.673,10.122 0,10.122" style="fill:rgb(47,40,57);fill-rule:nonzero;"/>
        </g>
        <g transform="matrix(1,0,0,1,63.1606,111.791)">
            <path d="M0,0C0,-0.521 -0.422,-0.942 -0.942,-0.942L-3.827,-0.942C-4.706,-0.25 -5.607,0.384 -6.526,0.942L-0.942,0.942C-0.422,0.942 0,0.521 0,0" style="fill:rgb(47,40,57);fill-rule:nonzero;"/>
        </g>
        <g transform="matrix(1,0,0,1,87.0723,110.848)">
            <path d="M0,1.885L5.431,1.885C5.089,1.725 4.763,1.584 4.41,1.411C3.494,0.966 2.621,0.492 1.783,0L0,0C-0.521,0 -0.942,0.422 -0.942,0.943C-0.942,1.463 -0.521,1.885 0,1.885" style="fill:rgb(47,40,57);fill-rule:nonzero;"/>
        </g>
        <g transform="matrix(1,0,0,1,78.9248,134.329)">
            <path d="M0,-1.834C-0.043,-1.84 -0.082,-1.859 -0.126,-1.859L-6.691,-1.859C-7.147,-1.859 -7.51,-1.528 -7.597,-1.097C-7.609,-1.037 -7.633,-0.981 -7.633,-0.917C-7.633,-0.612 -7.479,-0.353 -7.253,-0.181C-7.184,-0.127 -7.113,-0.075 -7.03,-0.043C-6.924,-0.002 -6.811,0.025 -6.691,0.025L-0.126,0.025C-0.032,0.025 0.053,-0.002 0.139,-0.028C0.249,-0.061 0.347,-0.112 0.437,-0.181C0.649,-0.343 0.792,-0.585 0.807,-0.869C0.808,-0.886 0.816,-0.9 0.816,-0.917C0.816,-1.393 0.458,-1.77 0,-1.834" style="fill:rgb(47,40,57);fill-rule:nonzero;"/>
        </g>
        <g transform="matrix(1,0,0,1,78.1309,144.553)">
            <path d="M0,-2.702C-0.012,-2.69 -1.225,-1.514 -2.736,-1.515C-3.606,-1.515 -4.444,-1.914 -5.229,-2.702C-5.596,-3.071 -6.192,-3.072 -6.562,-2.705C-6.93,-2.338 -6.932,-1.742 -6.564,-1.372C-5.413,-0.216 -4.125,0.37 -2.736,0.37C-0.426,0.37 1.265,-1.301 1.335,-1.372C1.703,-1.742 1.702,-2.338 1.333,-2.705C0.963,-3.072 0.367,-3.071 0,-2.702" style="fill:rgb(47,40,57);fill-rule:nonzero;"/>
        </g>
    </g>
</svg>
