<?xml version="1.0" encoding="UTF-8" standalone="no"?>
<!DOCTYPE svg PUBLIC "-//W3C//DTD SVG 1.1//EN" "http://www.w3.org/Graphics/SVG/1.1/DTD/svg11.dtd">
<svg width="100%" height="100%" viewBox="0 0 130 130" version="1.1" xmlns="http://www.w3.org/2000/svg" xmlns:xlink="http://www.w3.org/1999/xlink" xml:space="preserve" xmlns:serif="http://www.serif.com/" style="fill-rule:evenodd;clip-rule:evenodd;stroke-linejoin:round;stroke-miterlimit:2;">
    <g transform="matrix(1,0,0,1,-236.721,-328.443)">
        <g transform="matrix(1,0,0,1,282.394,429.883)">
            <path d="M0,7.362C-0.433,8.483 -2.255,7.993 -1.817,6.861C-1.721,6.611 -1.607,6.373 -1.501,6.13C-0.103,2.94 2.153,0.311 5.163,-1.507C6.205,-2.136 7.151,-0.506 6.114,0.121C3.706,1.575 1.788,3.635 0.549,6.13C0.35,6.53 0.163,6.939 0,7.362M42.02,6.13C40.109,1.744 36.63,-1.95 32.186,-4.415C30.918,-5.118 29.573,-5.72 28.163,-6.21C27.853,-6.319 27.538,-6.421 27.221,-6.519L27.221,-5.666C27.221,-5.621 27.215,-5.577 27.215,-5.533C27.204,-4.915 27.119,-4.317 26.976,-3.741L27.088,-2.637C27.088,-2.637 26.918,-2.63 26.614,-2.626C25.411,0.273 22.549,2.328 19.227,2.328C17.565,2.328 16.02,1.813 14.737,0.937C12.661,-0.482 11.284,-2.853 11.239,-5.534C11.239,-5.577 11.232,-5.621 11.232,-5.666L11.232,-6.519C10.915,-6.421 10.602,-6.319 10.29,-6.21C4.604,-4.232 -0.038,-0.427 -2.71,4.391C-3.024,4.957 -3.308,5.538 -3.565,6.13C-4.613,8.536 -5.193,11.147 -5.193,13.881L43.647,13.881C43.647,11.147 43.067,8.536 42.02,6.13" style="fill:rgb(123,117,133);fill-rule:nonzero;"/>
        </g>
        <g transform="matrix(1,0,0,1,287.935,389.475)">
            <path d="M0,0.037C-0.081,0.046 -0.16,0.061 -0.243,0.061C-1.525,0.061 -2.563,-0.977 -2.563,-2.259C-2.563,-2.52 -2.511,-2.766 -2.432,-3C-2.325,-3.314 -2.159,-3.597 -1.938,-3.834C-2.413,-3.997 -2.92,-4.101 -3.455,-4.101C-5.885,-4.101 -7.854,-2.256 -7.854,0.018C-7.854,2.294 -5.885,4.138 -3.455,4.138C-1.025,4.138 0.944,2.294 0.944,0.018C0.944,-0.076 0.922,-0.165 0.915,-0.259C0.64,-0.1 0.331,0.002 0,0.037" style="fill:rgb(96,60,50);fill-rule:nonzero;"/>
        </g>
        <g transform="matrix(1,0,0,1,323.079,389.785)">
            <path d="M0,-0.584C-0.273,-0.421 -0.581,-0.315 -0.912,-0.276C-1.003,-0.266 -1.092,-0.249 -1.186,-0.249C-2.467,-0.249 -3.506,-1.287 -3.506,-2.569C-3.506,-2.833 -3.452,-3.082 -3.372,-3.318C-3.265,-3.631 -3.097,-3.914 -2.875,-4.15C-3.344,-4.31 -3.842,-4.411 -4.368,-4.411C-6.281,-4.411 -7.893,-3.262 -8.499,-1.665C-8.663,-1.233 -8.769,-0.776 -8.769,-0.292C-8.769,0.192 -8.663,0.65 -8.499,1.082C-7.893,2.678 -6.281,3.827 -4.368,3.827C-1.938,3.827 0.031,1.983 0.031,-0.292C0.031,-0.392 0.007,-0.485 0,-0.584" style="fill:rgb(96,60,50);fill-rule:nonzero;"/>
        </g>
        <g transform="matrix(1,0,0,1,305.234,401.116)">
            <path d="M0,0.207L0.524,0.207C0.556,0.136 0.582,0.067 0.607,0L0.103,0C0.073,0.067 0.037,0.137 0,0.207" style="fill:rgb(188,98,86);fill-rule:nonzero;"/>
        </g>
        <g transform="matrix(1,0,0,1,307.977,427.681)">
            <path d="M0,-0.43C-2.362,-0.481 -7.06,-0.821 -10.846,-2.574C-11.571,-2.909 -12.264,-3.296 -12.898,-3.743C-13.073,-3.867 -13.243,-3.993 -13.408,-4.126C-13.55,-4.239 -13.686,-4.356 -13.819,-4.475C-13.911,-4.558 -13.999,-4.644 -14.087,-4.729C-14.166,-4.806 -14.247,-4.88 -14.323,-4.96C-14.327,-4.899 -14.33,-4.836 -14.333,-4.775C-14.338,-4.66 -14.351,-4.548 -14.351,-4.432L-14.351,-3.464C-14.351,-3.419 -14.344,-3.375 -14.344,-3.331C-14.299,-0.651 -12.922,1.72 -10.846,3.139C-9.563,4.015 -8.018,4.53 -6.356,4.53C-3.034,4.53 -0.172,2.475 1.031,-0.424C0.776,-0.421 0.425,-0.421 0,-0.43" style="fill:rgb(226,179,132);fill-rule:nonzero;"/>
        </g>
        <g transform="matrix(1,0,0,1,276.335,399.821)">
            <path d="M0,-1.035L0.125,-1.035C1.34,-1.035 1.338,0.85 0.125,0.85L0,0.85C-1.215,0.85 -1.213,-1.035 0,-1.035M3.62,2.472C2.405,2.472 2.407,0.587 3.62,0.587C4.835,0.587 4.833,2.472 3.62,2.472M3.869,-0.523C2.654,-0.523 2.657,-2.408 3.869,-2.408C5.084,-2.408 5.082,-0.523 3.869,-0.523M6.74,0.6C5.525,0.6 5.527,-1.285 6.74,-1.285C7.955,-1.285 7.953,0.6 6.74,0.6M3.35,-15.638C3.577,-15.823 3.815,-15.995 4.065,-16.153C5.237,-16.892 6.637,-17.326 8.145,-17.326C9.651,-17.326 11.052,-16.892 12.224,-16.153C14.239,-14.88 15.571,-12.693 15.571,-10.207C15.571,-6.275 12.246,-3.088 8.145,-3.088C6.315,-3.088 4.644,-3.724 3.35,-4.775C1.741,-6.081 0.718,-8.028 0.718,-10.207C0.718,-12.386 1.741,-14.332 3.35,-15.638M26.41,-10.328L29.692,-1.104L23.128,-0.842C23.04,-1.191 26.41,-10.328 26.41,-10.328M23.817,14.468C23.636,14.252 23.658,13.878 23.918,13.738C24.034,13.528 24.293,13.381 24.571,13.511C25.799,14.083 27.506,14.234 28.649,13.405C28.995,13.154 29.322,13.485 29.322,13.824C29.323,13.86 29.319,13.896 29.312,13.933C29.301,13.98 29.288,14.027 29.262,14.07C29.261,14.072 29.261,14.073 29.261,14.075C29.014,14.484 28.709,14.795 28.384,15.056C28.199,15.204 28.009,15.329 27.807,15.43C27.771,15.513 27.712,15.586 27.615,15.632C27.535,15.669 27.455,15.692 27.375,15.722C26.843,15.919 26.307,15.95 25.744,15.752C25.578,15.694 25.424,15.617 25.274,15.532C25.206,15.504 25.138,15.478 25.069,15.444C24.67,15.252 24.296,14.967 23.957,14.602C23.912,14.553 23.861,14.52 23.817,14.468M23.241,1.295C23.15,1.017 23.128,0.821 23.128,0.821L29.692,0.559C29.692,0.559 29.659,0.876 29.507,1.295C29.481,1.362 29.455,1.431 29.424,1.502C29.068,2.316 28.255,3.361 26.41,3.361C24.414,3.361 23.626,2.254 23.318,1.502C23.289,1.429 23.263,1.361 23.241,1.295M48.53,0.596C48.447,0.638 48.364,0.679 48.281,0.721C47.198,1.263 46.245,-0.364 47.33,-0.906C47.413,-0.948 47.496,-0.99 47.579,-1.031C48.662,-1.573 49.615,0.054 48.53,0.596M40.69,0.85L40.565,0.85C39.352,0.85 39.354,-1.035 40.565,-1.035L40.69,-1.035C41.905,-1.035 41.903,0.85 40.69,0.85M45.352,-2.632C46.21,-1.772 44.877,-0.44 44.019,-1.299L43.894,-1.424C43.636,-1.681 43.591,-1.979 43.656,-2.251C43.809,-2.882 44.626,-3.356 45.227,-2.756C45.256,-2.727 45.284,-2.698 45.313,-2.669C45.326,-2.656 45.339,-2.643 45.352,-2.632M46.501,1.904L46.501,2.029C46.501,3.244 44.616,3.241 44.616,2.029L44.616,1.904C44.616,0.69 46.501,0.692 46.501,1.904M38.245,-16.123C38.262,-16.134 38.28,-16.142 38.297,-16.153C39.468,-16.892 40.868,-17.326 42.376,-17.326C43.883,-17.326 45.283,-16.892 46.454,-16.153C48.47,-14.88 49.803,-12.693 49.803,-10.207C49.803,-6.275 46.478,-3.088 42.376,-3.088C40.847,-3.088 39.427,-3.532 38.245,-4.291C36.258,-5.568 34.949,-7.741 34.949,-10.207C34.949,-12.673 36.258,-14.846 38.245,-16.123M60.657,-12.641C60.654,-13.625 60.644,-14.59 60.616,-15.519C60.609,-15.737 60.595,-15.937 60.587,-16.153C60.583,-16.261 60.577,-16.364 60.572,-16.472C60.567,-16.6 60.561,-16.725 60.556,-16.852C60.378,-16.918 60.211,-17.028 60.089,-17.237C60.062,-17.284 60.026,-17.323 59.998,-17.368C59.88,-17.556 59.757,-17.736 59.619,-17.902C58.502,-19.257 56.796,-19.992 55.406,-21.057C54.838,-21.494 54.313,-21.972 53.803,-22.468C53.6,-22.665 53.4,-22.865 53.205,-23.069C52.317,-22.652 50.646,-21.976 48.475,-21.569C47.579,-21.402 46.604,-21.278 45.559,-21.242C43.783,-21.181 41.676,-21.533 39.711,-22.004C39.209,-22.125 38.721,-22.252 38.245,-22.383C35.469,-23.149 33.28,-24.016 33.28,-24.016C33.28,-24.016 31.18,-18.784 21.902,-19.254C21.529,-19.272 21.164,-19.32 20.797,-19.361C18.353,-19.636 16.051,-20.365 14.007,-21.298C13.511,-21.524 13.028,-21.76 12.563,-22.004C8.088,-24.358 5.151,-27.356 5.151,-27.356C5.151,-27.356 4.607,-25.893 3.35,-24.046C2.304,-22.51 0.766,-20.709 -1.38,-19.254C-3.381,-17.895 -5.321,-17.269 -6.898,-16.995C-7.314,-16.922 -7.702,-16.874 -8.062,-16.845C-8.282,-16.743 -8.499,-16.637 -8.726,-16.544C-8.794,-16.516 -8.862,-16.489 -8.931,-16.463C-9.164,-16.371 -9.408,-16.293 -9.648,-16.209L-9.651,-16.153C-9.66,-15.933 -9.675,-15.726 -9.682,-15.505C-9.716,-14.476 -9.735,-13.42 -9.735,-12.325C-9.735,-9.166 -9.521,-6.284 -9.13,-3.634C-9.073,-3.524 -9.056,-3.403 -9.081,-3.292C-8.923,-2.273 -8.738,-1.289 -8.526,-0.342C-8.454,-0.02 -8.376,0.293 -8.298,0.607C-8.221,0.913 -8.146,1.223 -8.063,1.522C-4.409,14.776 4.904,20.485 16.438,22.238C16.747,22.286 17.059,22.328 17.371,22.369C17.363,22.43 17.351,22.488 17.344,22.549C17.333,22.643 17.33,22.737 17.322,22.832C17.409,22.748 17.748,22.678 18.284,22.62C18.489,22.598 18.729,22.577 18.985,22.559C19.584,22.619 20.188,22.67 20.797,22.712C20.814,22.714 20.831,22.715 20.849,22.716C22.361,22.819 23.9,22.873 25.463,22.873C26.926,22.873 28.366,22.821 29.786,22.726C30.623,22.669 31.452,22.598 32.271,22.505C32.394,22.491 32.518,22.478 32.641,22.462L32.722,23.261L32.734,23.38L32.838,24.397L33.035,26.321C33.179,25.745 33.264,25.147 33.274,24.529C33.274,24.485 33.28,24.441 33.28,24.396L33.28,23.428C33.28,23.34 33.271,23.256 33.268,23.169C33.261,22.961 33.252,22.753 33.229,22.55C33.224,22.494 33.212,22.441 33.204,22.386C33.516,22.345 33.829,22.307 34.138,22.26C45.786,20.488 55.218,14.619 58.941,1.472C59.026,1.17 59.108,0.862 59.188,0.553C59.267,0.245 59.342,-0.065 59.415,-0.38C59.585,-1.117 59.741,-1.871 59.877,-2.651C59.868,-2.653 59.86,-2.654 59.852,-2.656C59.293,-2.805 59.497,-3.626 60.024,-3.569C60.414,-6.094 60.63,-8.835 60.652,-11.811C60.335,-12.016 60.387,-12.489 60.657,-12.641" style="fill:rgb(226,179,132);fill-rule:nonzero;"/>
        </g>
        <g transform="matrix(1,0,0,1,288.879,389.735)">
            <path d="M0,-0.242C0,2.033 -1.97,3.877 -4.399,3.877C-6.829,3.877 -8.799,2.033 -8.799,-0.242C-8.799,-2.516 -6.829,-4.361 -4.399,-4.361C-3.864,-4.361 -3.357,-4.258 -2.883,-4.095C-3.104,-3.857 -3.27,-3.574 -3.376,-3.261C-3.455,-3.026 -3.508,-2.78 -3.508,-2.519C-3.508,-1.237 -2.47,-0.199 -1.187,-0.199C-1.104,-0.199 -1.025,-0.215 -0.944,-0.223C-0.613,-0.259 -0.305,-0.36 -0.029,-0.519C-0.022,-0.426 0,-0.337 0,-0.242M-0.32,-6.067C-1.492,-6.806 -2.893,-7.24 -4.399,-7.24C-5.907,-7.24 -7.307,-6.806 -8.479,-6.067C-8.729,-5.909 -8.967,-5.737 -9.194,-5.552C-10.803,-4.246 -11.826,-2.3 -11.826,-0.121C-11.826,2.058 -10.803,4.005 -9.194,5.311C-7.9,6.362 -6.229,6.998 -4.399,6.998C-0.298,6.998 3.027,3.811 3.027,-0.121C3.027,-2.607 1.695,-4.794 -0.32,-6.067" style="fill:rgb(253,250,201);fill-rule:nonzero;"/>
        </g>
        <g transform="matrix(1,0,0,1,323.11,389.735)">
            <path d="M0,-0.242C0,2.033 -1.97,3.877 -4.399,3.877C-6.312,3.877 -7.924,2.728 -8.53,1.132C-8.694,0.7 -8.8,0.242 -8.8,-0.242C-8.8,-0.726 -8.694,-1.183 -8.53,-1.615C-7.924,-3.212 -6.312,-4.361 -4.399,-4.361C-3.873,-4.361 -3.375,-4.26 -2.906,-4.1C-3.128,-3.864 -3.296,-3.581 -3.403,-3.268C-3.483,-3.032 -3.537,-2.783 -3.537,-2.519C-3.537,-1.237 -2.498,-0.199 -1.217,-0.199C-1.123,-0.199 -1.034,-0.216 -0.943,-0.226C-0.612,-0.265 -0.305,-0.371 -0.031,-0.534C-0.024,-0.435 0,-0.342 0,-0.242M-0.321,-6.067C-1.492,-6.806 -2.893,-7.24 -4.399,-7.24C-5.907,-7.24 -7.308,-6.806 -8.479,-6.067C-8.495,-6.056 -8.514,-6.048 -8.53,-6.037C-10.518,-4.76 -11.826,-2.587 -11.826,-0.121C-11.826,2.345 -10.518,4.518 -8.53,5.795C-7.349,6.554 -5.929,6.998 -4.399,6.998C-0.298,6.998 3.027,3.811 3.027,-0.121C3.027,-2.607 1.694,-4.794 -0.321,-6.067" style="fill:rgb(253,250,201);fill-rule:nonzero;"/>
        </g>
        <g transform="matrix(1,0,0,1,299.463,389.494)">
            <path d="M0,9.486L6.564,9.223L3.282,0C3.282,0 -0.088,9.136 0,9.486" style="fill:rgb(253,250,201);fill-rule:nonzero;"/>
        </g>
        <g transform="matrix(-1,0,0,1,316.818,378.64)">
            <path d="M-7.219,-0.823L0.772,-0.823C-1.193,-0.352 -3.3,0 -5.075,-0.061C-6.12,-0.097 -7.096,-0.221 -7.991,-0.388C-7.823,-0.644 -7.548,-0.823 -7.219,-0.823" style="fill:rgb(7,6,6);fill-rule:nonzero;"/>
        </g>
        <g transform="matrix(1,0,0,1,289.447,378.523)">
            <path d="M0,-0.706L-0.549,-0.706C-0.084,-0.462 0.398,-0.227 0.895,0C0.788,-0.403 0.437,-0.706 0,-0.706" style="fill:rgb(7,6,6);fill-rule:nonzero;"/>
        </g>
        <g transform="matrix(1,0,0,1,306.496,403.117)">
            <path d="M0,-2.692L0.051,-3.228L-7.555,-2.924L-7.502,-2.425C-7.485,-2.258 -7.437,-2.064 -7.372,-1.862C-7.04,-0.819 -6.033,0.536 -3.751,0.536C-1.619,0.536 -0.602,-0.751 -0.204,-1.847C-0.093,-2.154 -0.022,-2.448 0,-2.692" style="fill:rgb(188,98,86);fill-rule:nonzero;"/>
        </g>
        <g transform="matrix(1,0,0,1,339.15,391.778)">
            <path d="M0,0.781C0.154,0.087 0.423,-0.74 0.335,-1.458C0.184,-2.691 -0.43,-3.093 -1.256,-3.415C-1.509,-3.513 -1.78,-3.605 -2.066,-3.708C-2.105,-3.723 -2.132,-3.747 -2.163,-3.768C-2.186,-0.791 -2.401,1.95 -2.791,4.474C-2.765,4.477 -2.741,4.471 -2.713,4.478C-2.509,4.533 -2.327,4.549 -2.156,4.546C-0.521,4.518 -0.289,2.087 0,0.781" style="fill:rgb(188,98,86);fill-rule:nonzero;"/>
        </g>
        <g transform="matrix(1,0,0,1,341.547,398.712)">
            <path d="M0,-13.476C-0.315,-13.528 -0.573,-13.722 -0.64,-14.063C-1.178,-14.487 -1.793,-14.819 -2.463,-15.044C-2.778,-15.15 -3.103,-15.238 -3.441,-15.292C-3.517,-15.304 -3.591,-15.307 -3.666,-15.316C-3.993,-15.357 -4.318,-15.375 -4.64,-15.363C-4.635,-15.255 -4.629,-15.152 -4.625,-15.044C-4.617,-14.829 -4.603,-14.628 -4.596,-14.411C-4.568,-13.481 -4.558,-12.516 -4.555,-11.533C-4.463,-11.584 -4.348,-11.601 -4.213,-11.552C-4.017,-11.481 -3.813,-11.41 -3.609,-11.337C-2.686,-11.007 -1.748,-10.612 -1.355,-9.665C-0.82,-8.375 -1.262,-6.844 -1.572,-5.557C-2.091,-3.409 -2.33,-1.112 -4.758,-1.429C-4.938,-1.453 -5.129,-1.488 -5.335,-1.542C-5.471,-0.762 -5.627,-0.008 -5.797,0.729C-5.87,1.044 -5.945,1.354 -6.024,1.662C-5.867,1.683 -5.71,1.704 -5.554,1.712C-2.455,1.899 0.364,-0.307 0.864,-3.433L1.64,-8.273C1.954,-10.236 1.282,-12.135 0,-13.476" style="fill:rgb(188,98,86);fill-rule:nonzero;"/>
        </g>
        <g transform="matrix(1,0,0,1,309.173,425.325)">
            <path d="M0,-1.107L-0.104,-2.124L-0.116,-2.243L-0.197,-3.042C-0.32,-3.026 -0.444,-3.012 -0.567,-2.999C-1.386,-2.906 -2.215,-2.835 -3.052,-2.778C-4.472,-2.682 -5.912,-2.63 -7.375,-2.63C-8.938,-2.63 -10.477,-2.684 -11.989,-2.788C-12.007,-2.789 -12.023,-2.79 -12.041,-2.792C-12.649,-2.834 -13.254,-2.884 -13.853,-2.945C-14.109,-2.926 -14.349,-2.906 -14.554,-2.883C-15.09,-2.826 -15.429,-2.755 -15.516,-2.671C-15.529,-2.658 -15.546,-2.644 -15.546,-2.63C-15.537,-2.621 -15.527,-2.613 -15.519,-2.604C-15.442,-2.524 -15.361,-2.45 -15.282,-2.373C-15.194,-2.288 -15.106,-2.202 -15.015,-2.119C-14.881,-2 -14.745,-1.882 -14.604,-1.77C-14.438,-1.637 -14.269,-1.51 -14.094,-1.387C-13.459,-0.94 -12.767,-0.553 -12.041,-0.217C-8.255,1.536 -3.558,1.875 -1.195,1.926C-0.771,1.935 -0.419,1.935 -0.164,1.932C0.14,1.928 0.31,1.921 0.31,1.921L0.197,0.818L0,-1.107Z" style="fill:rgb(188,98,86);fill-rule:nonzero;"/>
        </g>
        <g transform="matrix(-1,0,0,1,276.335,400.671)">
            <path d="M-0.125,-1.885L-0,-1.885C1.213,-1.885 1.215,0 -0,0L-0.125,0C-1.338,0 -1.34,-1.885 -0.125,-1.885" style="fill:rgb(188,98,86);fill-rule:nonzero;"/>
        </g>
        <g transform="matrix(1,0,0,1,279.955,402.293)">
            <path d="M0,-1.885C-1.213,-1.885 -1.215,0 0,0C1.213,0 1.215,-1.885 0,-1.885" style="fill:rgb(188,98,86);fill-rule:nonzero;"/>
        </g>
        <g transform="matrix(1,0,0,1,280.204,399.298)">
            <path d="M0,-1.885C-1.212,-1.885 -1.215,0 0,0C1.213,0 1.215,-1.885 0,-1.885" style="fill:rgb(188,98,86);fill-rule:nonzero;"/>
        </g>
        <g transform="matrix(1,0,0,1,283.075,400.421)">
            <path d="M0,-1.885C-1.213,-1.885 -1.215,0 0,0C1.213,0 1.215,-1.885 0,-1.885" style="fill:rgb(188,98,86);fill-rule:nonzero;"/>
        </g>
        <g transform="matrix(-1,0,0,1,316.901,400.671)">
            <path d="M-0.124,-1.885L0.001,-1.885C1.213,-1.885 1.215,0 0.001,0L-0.124,0C-1.337,0 -1.339,-1.885 -0.124,-1.885" style="fill:rgb(188,98,86);fill-rule:nonzero;"/>
        </g>
        <g transform="matrix(1,0,0,1,321.686,398.656)">
            <path d="M0,-1.466C-0.013,-1.478 -0.025,-1.49 -0.038,-1.503C-0.067,-1.532 -0.096,-1.562 -0.125,-1.59C-0.726,-2.191 -1.543,-1.716 -1.695,-1.085C-1.761,-0.814 -1.716,-0.516 -1.458,-0.258L-1.333,-0.133C-0.475,0.725 0.858,-0.607 0,-1.466" style="fill:rgb(188,98,86);fill-rule:nonzero;"/>
        </g>
        <g transform="matrix(0,1,1,0,321.956,400.846)">
            <path d="M0.88,-1.005L1.005,-1.005C2.217,-1.005 2.22,0.88 1.005,0.88L0.88,0.88C-0.333,0.88 -0.335,-1.005 0.88,-1.005" style="fill:rgb(188,98,86);fill-rule:nonzero;"/>
        </g>
        <g transform="matrix(-0.928257,0.371939,0.371939,0.928257,324.917,400.349)">
            <path d="M0.351,-1.82C0.443,-1.813 0.536,-1.804 0.629,-1.796C1.837,-1.697 1.558,0.168 0.351,0.068C0.258,0.06 0.166,0.052 0.073,0.044C-1.135,-0.055 -0.856,-1.92 0.351,-1.82" style="fill:rgb(188,98,86);fill-rule:nonzero;"/>
        </g>
        <g transform="matrix(1,0,0,1,267.254,387.519)">
            <path d="M0,9.01C-0.032,9.151 -0.129,9.271 -0.322,9.303C-0.477,9.329 -0.619,9.341 -0.758,9.349C-3.311,9.501 -3.398,6.771 -3.708,4.572C-4.002,2.485 -4.097,-0.148 -1.594,-0.402C-1.445,-0.417 -1.292,-0.427 -1.126,-0.424C-0.735,-0.419 -0.6,-0.029 -0.712,0.247C-0.767,0.416 -0.909,0.553 -1.14,0.553C-1.187,0.553 -1.225,0.538 -1.266,0.528C-1.376,0.531 -1.484,0.537 -1.582,0.555C-3.486,0.887 -2.924,3.561 -2.712,4.913C-2.543,5.991 -2.525,8.377 -0.934,8.42C-0.821,8.423 -0.701,8.416 -0.572,8.395C-0.323,8.353 -0.14,8.489 -0.049,8.668C-0.439,6.018 -0.654,3.136 -0.654,-0.023C-0.654,-1.118 -0.635,-2.175 -0.601,-3.203C-0.594,-3.425 -0.579,-3.632 -0.57,-3.851L-0.567,-3.907C-0.621,-3.888 -0.674,-3.869 -0.728,-3.851C-0.882,-3.8 -1.028,-3.737 -1.186,-3.689C-1.316,-3.649 -1.435,-3.645 -1.547,-3.655C-1.726,-3.67 -1.872,-3.744 -1.996,-3.851C-2.01,-3.863 -2.022,-3.878 -2.036,-3.891C-2.078,-3.878 -2.119,-3.865 -2.161,-3.851C-2.847,-3.621 -3.473,-3.277 -4.02,-2.841C-3.883,-2.134 -4.471,-1.68 -5.018,-1.671C-5.061,-1.67 -5.101,-1.669 -5.143,-1.674C-6.082,-0.396 -6.533,1.239 -6.264,2.92L-5.488,7.76C-5.401,8.307 -5.236,8.822 -5.018,9.305C-4.104,11.324 -2.143,12.711 0.075,12.891C0.309,12.909 0.545,12.917 0.783,12.908C0.705,12.595 0.627,12.281 0.555,11.96C0.343,11.013 0.158,10.029 0,9.01" style="fill:rgb(188,98,86);fill-rule:nonzero;"/>
        </g>
        <g transform="matrix(1,0,0,1,304.984,415.559)">
            <path d="M0,-2.332C-1.144,-1.504 -2.851,-1.654 -4.078,-2.227C-4.356,-2.356 -4.615,-2.209 -4.731,-1.999C-4.991,-1.859 -5.014,-1.485 -4.832,-1.27C-4.788,-1.218 -4.737,-1.185 -4.692,-1.136C-4.354,-0.77 -3.979,-0.485 -3.58,-0.293C-3.512,-0.26 -3.443,-0.233 -3.375,-0.205C-3.226,-0.12 -3.071,-0.044 -2.905,0.015C-2.343,0.213 -1.807,0.182 -1.274,-0.016C-1.194,-0.046 -1.114,-0.068 -1.034,-0.105C-0.937,-0.151 -0.878,-0.225 -0.843,-0.308C-0.641,-0.408 -0.45,-0.533 -0.266,-0.682C0.06,-0.942 0.364,-1.254 0.611,-1.662C0.611,-1.664 0.611,-1.665 0.612,-1.667C0.641,-1.714 0.651,-1.76 0.662,-1.805C0.67,-1.842 0.674,-1.878 0.673,-1.913C0.671,-1.965 0.658,-2.014 0.639,-2.059C0.562,-2.335 0.294,-2.545 0,-2.332" style="fill:rgb(188,98,86);fill-rule:nonzero;"/>
        </g>
        <g transform="matrix(1,0,0,1,324.421,375.107)">
            <path d="M0,0.09C-1.753,0.44 -3.525,0.574 -5.293,0.557C-6.818,0.54 -8.338,0.395 -9.841,0.129C-12.063,-0.265 -14.236,-0.919 -16.321,-1.802C-16.453,-1.183 -16.728,-0.579 -17.202,-0.009C-18.959,2.097 -22.073,1.756 -24.466,1.248C-25.416,1.047 -26.356,0.815 -27.289,0.554C-27.789,0.413 -28.279,0.245 -28.774,0.089C-34.205,-1.633 -39.284,-4.34 -43.833,-7.779C-44.112,-6.974 -44.411,-6.175 -44.736,-5.385C-45.867,-2.639 -47.291,-0.017 -49.102,2.246C-50.042,3.423 -51.092,4.498 -52.255,5.446C-53.245,6.251 -54.313,6.968 -55.481,7.563C-55.697,7.672 -55.925,7.768 -56.147,7.869C-55.788,7.84 -55.4,7.792 -54.984,7.719C-53.407,7.444 -51.467,6.819 -49.466,5.46C-47.32,4.005 -45.782,2.204 -44.736,0.668C-43.479,-1.18 -42.935,-2.642 -42.935,-2.642C-42.935,-2.642 -39.998,0.356 -35.522,2.71L-34.974,2.71C-34.536,2.71 -34.186,3.013 -34.079,3.416C-32.035,4.349 -29.733,5.078 -27.289,5.353C-26.922,5.394 -26.557,5.442 -26.184,5.46C-16.906,5.93 -14.806,0.697 -14.806,0.697C-14.806,0.697 -12.617,1.565 -9.841,2.331C-9.365,2.462 -8.877,2.589 -8.375,2.71L-0.384,2.71C-0.055,2.71 0.221,2.889 0.389,3.145C2.56,2.737 4.231,2.062 5.119,1.645C4.32,0.815 3.568,-0.062 2.832,-0.951C1.993,-0.42 0.979,-0.105 0,0.09" style="fill:rgb(188,98,86);fill-rule:nonzero;"/>
        </g>
        <g transform="matrix(1,0,0,1,306.201,380.38)">
            <path d="M0,-33.147C6.637,-34.39 13.336,-33.922 19.716,-31.691C20.854,-31.293 20.361,-29.472 19.215,-29.874C13.161,-31.991 6.809,-32.511 0.501,-31.33C-0.687,-31.107 -1.19,-32.923 0,-33.147M23.667,-30.398L23.77,-30.342C24.841,-29.769 23.888,-28.142 22.818,-28.715C22.784,-28.734 22.75,-28.751 22.716,-28.77C21.645,-29.343 22.598,-30.97 23.667,-30.398M33.652,-15.139C32.73,-19.029 31.533,-23.163 29.285,-26.508C28.113,-28.252 26.661,-29.787 24.803,-30.952C21.255,-33.175 17.113,-34.22 12.927,-34.699C10.805,-34.942 8.67,-35.043 6.596,-35.072C3.4,-35.117 0.197,-34.997 -2.993,-34.831C-5.635,-34.693 -8.207,-34.41 -10.555,-33.295C-11.053,-33.058 -11.544,-32.797 -12.02,-32.478C-12.836,-31.93 -13.589,-32.886 -13.328,-33.63C-13.353,-33.869 -13.28,-34.121 -13.059,-34.341C-12.721,-34.678 -11.898,-35.224 -11.714,-35.684C-11.309,-36.69 -12.156,-36.276 -12.993,-36.189C-14.425,-36.04 -15.848,-35.739 -17.225,-35.32C-20.155,-34.43 -22.832,-32.962 -25.209,-31.044C-25.249,-30.141 -25.274,-29.238 -25.3,-28.334C-25.316,-27.725 -25.334,-27.117 -25.344,-26.508C-25.345,-26.457 -25.345,-26.406 -25.346,-26.354C-25.352,-25.957 -25.352,-25.559 -25.354,-25.162C-25.374,-22.843 -25.354,-20.525 -25.275,-18.207C-25.239,-17.147 -25.191,-16.087 -25.135,-15.028C-24.761,-14.733 -24.382,-14.444 -23.999,-14.16C-20.058,-11.238 -15.699,-8.904 -11.049,-7.317C-10.886,-7.261 -10.72,-7.205 -10.555,-7.149C-10.067,-6.983 -9.572,-6.818 -9.069,-6.657C-7.327,-6.099 -5.506,-5.617 -3.74,-5.535C-1.865,-5.448 -0.102,-5.947 0.118,-8.167C0.256,-9.554 -0.919,-11.04 -1.66,-12.134C-2.343,-13.142 -0.709,-14.084 -0.033,-13.085C0.756,-11.92 1.555,-10.533 1.862,-9.123C3.952,-8.153 6.138,-7.455 8.379,-7.038C9.874,-6.76 11.393,-6.611 12.927,-6.599C13.256,-6.596 13.584,-6.588 13.913,-6.598C15.672,-6.652 18.296,-6.682 19.867,-7.679C20.218,-7.901 20.473,-8.15 20.659,-8.417C21.886,-10.179 19.875,-12.783 19.045,-14.439C18.502,-15.522 20.129,-16.475 20.672,-15.39C21.725,-13.291 23.504,-11.034 22.818,-8.52C22.721,-8.16 22.564,-7.849 22.386,-7.558C23.753,-5.91 25.168,-4.323 26.866,-3.027C27.173,-2.793 27.468,-2.546 27.797,-2.334C28.427,-1.926 29.047,-1.532 29.628,-1.102C29.935,-0.875 30.23,-0.637 30.51,-0.381C30.919,-0.006 31.288,0.415 31.613,0.894C31.693,1.012 31.776,1.126 31.85,1.251C32.029,1.558 32.004,1.849 31.882,2.091C31.875,2.105 31.866,2.119 31.858,2.132L34.724,3.543C34.737,3.413 34.748,3.283 34.761,3.153C34.973,1.095 35.084,-0.967 35.073,-3.027C35.054,-7.096 34.596,-11.155 33.652,-15.139" style="fill:rgb(56,45,42);fill-rule:nonzero;"/>
        </g>
        <g transform="matrix(1,0,0,1,265.303,369.776)">
            <path d="M0,-6.591C-0.077,-5.385 -1.963,-5.38 -1.884,-6.591C-1.676,-9.815 -0.492,-12.709 1.608,-15.161C2.399,-16.084 3.727,-14.744 2.94,-13.828C1.18,-11.773 0.175,-9.29 0,-6.591M13.652,-13.605C13.653,-14.095 13.657,-14.585 13.663,-15.075C13.666,-15.352 13.665,-15.627 13.67,-15.904C13.677,-16.312 13.685,-16.719 13.694,-17.127C13.718,-18.115 13.752,-19.103 13.793,-20.091C11.348,-20.937 9.001,-20.916 6.863,-20.266C4.404,-19.519 2.229,-17.937 0.49,-15.904C-1.109,-14.032 -2.341,-11.781 -3.059,-9.421C-4.719,-3.96 -4.321,1.886 -3.415,7.578C-3.076,9.71 -2.667,11.819 -2.267,13.88C-2.236,14.036 -2.206,14.191 -2.176,14.346L-0.138,13.801C-0.333,13.572 -0.418,13.257 -0.365,12.954C-0.312,12.642 -0.123,12.355 0.265,12.237C0.333,12.216 0.396,12.188 0.464,12.167C0.592,12.126 0.713,12.077 0.839,12.034C1.055,11.959 1.273,11.888 1.483,11.805C1.793,11.682 2.09,11.544 2.386,11.404C4.079,10.607 5.562,9.546 6.863,8.287C7.1,8.057 7.33,7.82 7.555,7.578C10.41,4.511 12.331,0.496 13.676,-3.543C13.678,-3.548 13.681,-3.55 13.683,-3.555C13.729,-3.69 13.795,-3.801 13.875,-3.891C13.876,-3.927 13.892,-3.961 13.897,-3.996C13.833,-5.151 13.785,-6.305 13.745,-7.459C13.674,-9.507 13.646,-11.556 13.652,-13.605" style="fill:rgb(56,45,42);fill-rule:nonzero;"/>
        </g>
        <g transform="matrix(-0.0187841,-0.999824,-0.999824,0.0187841,316.088,338.563)">
            <path d="M-10.309,-9.637C-7.959,-3.3 -7.365,3.389 -8.483,10.048C-8.685,11.242 -10.51,10.772 -10.309,9.581C-9.247,3.252 -9.886,-3.089 -12.116,-9.102C-12.54,-10.241 -10.728,-10.769 -10.309,-9.637" style="fill:rgb(96,81,73);fill-rule:nonzero;"/>
        </g>
        <g transform="matrix(-0.878547,-0.477656,-0.477656,0.878547,328.605,351.263)">
            <path d="M-0.615,-1.728L-0.497,-1.728C0.715,-1.72 0.775,0.164 -0.439,0.156C-0.478,0.157 -0.517,0.155 -0.556,0.155C-1.769,0.148 -1.829,-1.736 -0.615,-1.728" style="fill:rgb(96,81,73);fill-rule:nonzero;"/>
        </g>
        <g transform="matrix(-0.982849,-0.184413,-0.184413,0.982849,264.654,363.262)">
            <path d="M-0.624,-8.916C0.989,-6.119 1.618,-3.055 1.228,0.151C1.082,1.356 -0.77,1.003 -0.624,-0.196C-0.297,-2.881 -0.827,-5.506 -2.179,-7.852C-2.782,-8.897 -1.231,-9.969 -0.624,-8.916" style="fill:rgb(96,81,73);fill-rule:nonzero;"/>
        </g>
        <g transform="matrix(1,0,0,1,287.558,437.737)">
            <path d="M0,-9.361C-3.01,-7.543 -5.266,-4.914 -6.664,-1.724C-6.771,-1.481 -6.884,-1.243 -6.98,-0.993C-7.418,0.139 -5.596,0.629 -5.163,-0.492C-5,-0.915 -4.813,-1.324 -4.614,-1.724C-3.375,-4.218 -1.457,-6.279 0.951,-7.733C1.988,-8.36 1.042,-9.99 0,-9.361" style="fill:rgb(157,152,168);fill-rule:nonzero;"/>
        </g>
        <g transform="matrix(1,0,0,1,342.257,396.429)">
            <path d="M0,-6.139L-0.776,-1.299C-1.19,1.282 -3.462,3.09 -6,3.041C-5.808,2.333 -5.63,1.603 -5.468,0.854C-3.04,1.172 -2.801,-1.125 -2.282,-3.274C-1.972,-4.561 -1.53,-6.092 -2.065,-7.382C-2.458,-8.328 -3.396,-8.724 -4.319,-9.054C-4.319,-10.087 -4.329,-11.098 -4.348,-12.082C-4.332,-12.079 -4.316,-12.08 -4.301,-12.078C-2.939,-11.86 -1.741,-11.12 -0.926,-9.994C-0.111,-8.869 0.218,-7.5 0,-6.139M-7.831,2.678C-7.915,2.988 -8,3.298 -8.09,3.599C-8.182,3.906 -8.28,4.202 -8.378,4.5C-12.745,17.861 -22.878,22.901 -31.996,24.576C-32.307,24.633 -32.618,24.69 -32.927,24.74C-33.24,24.791 -33.552,24.836 -33.862,24.879C-34.679,24.992 -35.48,25.079 -36.268,25.145C-37.736,25.269 -39.147,25.324 -40.459,25.324C-41.575,25.324 -43.05,25.271 -44.748,25.104C-44.873,25.092 -44.997,25.081 -45.125,25.067C-45.841,24.99 -46.596,24.89 -47.38,24.765C-47.687,24.717 -47.995,24.665 -48.31,24.608C-48.617,24.552 -48.924,24.497 -49.239,24.433C-57.585,22.731 -68.295,17.907 -72.689,4.727C-72.789,4.427 -72.896,4.136 -72.99,3.828C-73.081,3.528 -73.156,3.209 -73.24,2.9C-74.172,-0.51 -74.716,-4.416 -74.716,-8.933C-74.716,-10.021 -74.702,-11.072 -74.68,-12.101C-74.675,-12.326 -74.665,-12.539 -74.659,-12.761C-74.657,-12.859 -74.653,-12.954 -74.65,-13.051C-74.649,-13.085 -74.648,-13.118 -74.647,-13.152C-74.421,-13.244 -74.204,-13.351 -73.983,-13.452C-73.761,-13.554 -73.533,-13.65 -73.317,-13.759C-72.149,-14.354 -71.081,-15.071 -70.091,-15.875C-68.928,-16.824 -67.878,-17.899 -66.938,-19.076C-65.127,-21.339 -63.703,-23.961 -62.572,-26.706C-62.247,-27.496 -61.948,-28.296 -61.669,-29.101C-57.12,-25.661 -52.041,-22.954 -46.61,-21.233C-46.115,-21.077 -45.625,-20.909 -45.125,-20.768C-44.192,-20.507 -43.252,-20.275 -42.302,-20.074C-39.909,-19.566 -36.795,-19.225 -35.038,-21.33C-34.563,-21.901 -34.289,-22.505 -34.157,-23.123C-32.072,-22.241 -29.898,-21.587 -27.677,-21.193C-26.174,-20.927 -24.654,-20.782 -23.129,-20.765C-21.361,-20.747 -19.589,-20.882 -17.836,-21.232C-16.857,-21.427 -15.843,-21.742 -15.004,-22.273C-14.268,-21.384 -13.516,-20.507 -12.717,-19.677C-12.521,-19.473 -12.322,-19.273 -12.119,-19.076C-11.609,-18.58 -11.084,-18.102 -10.516,-17.665C-9.126,-16.6 -7.42,-15.865 -6.303,-14.51C-6.296,-14.32 -6.292,-14.119 -6.286,-13.926C-6.275,-13.611 -6.267,-13.291 -6.259,-12.97C-6.257,-12.9 -6.254,-12.831 -6.253,-12.761C-6.246,-12.507 -6.236,-12.266 -6.231,-12.009C-6.213,-11.014 -6.203,-9.994 -6.202,-8.947C-6.334,-4.535 -6.914,-0.691 -7.831,2.678M-47.688,27.788L-47.688,26.82C-47.688,26.766 -47.681,26.715 -47.68,26.662C-47.68,26.652 -47.679,26.642 -47.678,26.632C-47.654,26.636 -47.631,26.639 -47.607,26.643C-46.74,26.778 -45.91,26.883 -45.125,26.963C-44.984,26.977 -44.843,26.992 -44.705,27.005C-43.03,27.16 -41.575,27.209 -40.459,27.209C-39.267,27.209 -37.887,27.159 -36.389,27.032C-35.495,26.957 -34.561,26.852 -33.59,26.71C-33.589,26.747 -33.584,26.783 -33.584,26.82L-33.584,27.788C-33.584,28.875 -33.839,29.901 -34.279,30.822C-35.417,33.194 -37.835,34.84 -40.636,34.84C-42.34,34.84 -43.904,34.232 -45.125,33.222C-46.688,31.927 -47.688,29.972 -47.688,27.788M-27.677,30.13C-23.761,32.418 -20.665,35.708 -18.874,39.584C-17.895,41.702 -17.304,43.995 -17.182,46.392L-64.089,46.392C-63.975,44.146 -63.443,41.995 -62.572,39.991C-62.514,39.855 -62.459,39.717 -62.397,39.584C-60.025,34.452 -55.372,30.342 -49.55,28.234C-49.396,31.337 -47.658,34.023 -45.125,35.504C-43.804,36.275 -42.272,36.724 -40.636,36.724C-35.858,36.724 -31.956,32.955 -31.722,28.234C-30.297,28.75 -28.944,29.388 -27.677,30.13M-77.478,2.074C-78.604,1.26 -79.344,0.062 -79.562,-1.299L-80.021,-4.168L-80.336,-6.139C-80.485,-7.066 -80.36,-7.991 -80.021,-8.846C-79.861,-9.246 -79.67,-9.636 -79.41,-9.994C-78.706,-10.968 -77.705,-11.63 -76.569,-11.938C-76.587,-11.084 -76.595,-10.203 -76.597,-9.312C-79.1,-9.058 -79.005,-6.425 -78.711,-4.338C-78.401,-2.139 -78.313,0.591 -75.761,0.439C-75.596,1.316 -75.407,2.165 -75.196,2.985C-76.008,2.864 -76.79,2.572 -77.478,2.074M-75.937,-0.49C-77.528,-0.533 -77.546,-2.918 -77.715,-3.996C-77.927,-5.349 -78.489,-8.023 -76.585,-8.355C-76.558,-5.517 -76.336,-2.895 -75.937,-0.49M-80.013,-36.075C-79.295,-38.435 -78.063,-40.686 -76.464,-42.557C-74.726,-44.59 -72.55,-46.172 -70.091,-46.919C-67.953,-47.57 -65.606,-47.59 -63.161,-46.744C-63.202,-45.756 -63.236,-44.769 -63.26,-43.781C-63.27,-43.372 -63.277,-42.965 -63.284,-42.557C-63.289,-42.281 -63.288,-42.005 -63.291,-41.729C-63.297,-41.239 -63.301,-40.748 -63.302,-40.258C-63.308,-38.209 -63.28,-36.16 -63.209,-34.113C-63.169,-32.958 -63.121,-31.804 -63.057,-30.65C-63.063,-30.615 -63.078,-30.58 -63.079,-30.544C-63.159,-30.454 -63.225,-30.343 -63.271,-30.208C-63.273,-30.203 -63.276,-30.201 -63.278,-30.197C-64.623,-26.158 -66.544,-22.143 -69.399,-19.076C-69.624,-18.833 -69.854,-18.596 -70.091,-18.367C-71.392,-17.108 -72.875,-16.046 -74.568,-15.249C-74.864,-15.11 -75.161,-14.971 -75.471,-14.848C-75.681,-14.765 -75.899,-14.695 -76.115,-14.619C-76.241,-14.577 -76.362,-14.528 -76.49,-14.487C-76.558,-14.465 -76.621,-14.438 -76.689,-14.416C-77.077,-14.298 -77.266,-14.011 -77.319,-13.7C-77.372,-13.397 -77.287,-13.081 -77.092,-12.853L-79.13,-12.307C-79.16,-12.462 -79.19,-12.618 -79.221,-12.774C-79.621,-14.834 -80.03,-16.944 -80.369,-19.076C-81.275,-24.768 -81.673,-30.614 -80.013,-36.075M-4.362,-8.067C-3.536,-7.744 -2.923,-7.342 -2.771,-6.11C-2.684,-5.391 -2.952,-4.565 -3.106,-3.87C-3.396,-2.565 -3.627,-0.133 -5.263,-0.106C-4.791,-2.537 -4.486,-5.19 -4.362,-8.067M-61.401,-42.403C-61.4,-42.454 -61.4,-42.505 -61.399,-42.557C-61.39,-43.165 -61.372,-43.774 -61.355,-44.382C-61.33,-45.286 -61.305,-46.19 -61.265,-47.093C-58.888,-49.011 -56.211,-50.479 -53.28,-51.368C-51.903,-51.787 -50.48,-52.088 -49.049,-52.238C-48.212,-52.325 -47.364,-52.739 -47.77,-51.733C-47.954,-51.273 -48.776,-50.727 -49.114,-50.39C-49.336,-50.169 -49.408,-49.917 -49.384,-49.679C-49.645,-48.935 -48.892,-47.979 -48.075,-48.527C-47.6,-48.846 -47.108,-49.107 -46.61,-49.344C-44.263,-50.458 -41.69,-50.742 -39.049,-50.879C-35.858,-51.045 -32.655,-51.165 -29.46,-51.12C-27.386,-51.091 -25.251,-50.991 -23.129,-50.747C-18.942,-50.269 -14.801,-49.224 -11.253,-47C-9.395,-45.835 -7.942,-44.301 -6.771,-42.557C-4.522,-39.211 -3.325,-35.077 -2.403,-31.188C-1.46,-27.203 -1.002,-23.145 -0.982,-19.076C-0.972,-17.016 -1.083,-14.953 -1.295,-12.896C-1.308,-12.766 -1.318,-12.636 -1.332,-12.505L-4.197,-13.916C-4.189,-13.93 -4.181,-13.944 -4.174,-13.957C-4.052,-14.2 -4.026,-14.491 -4.206,-14.797C-4.279,-14.922 -4.362,-15.036 -4.442,-15.155C-4.768,-15.634 -5.137,-16.055 -5.546,-16.43C-5.825,-16.686 -6.121,-16.923 -6.428,-17.151C-7.009,-17.58 -7.629,-17.975 -8.259,-18.382C-8.588,-18.595 -8.883,-18.841 -9.189,-19.076C-10.888,-20.371 -12.303,-21.958 -13.67,-23.607C-13.491,-23.898 -13.335,-24.208 -13.237,-24.569C-12.552,-27.082 -14.331,-29.339 -15.384,-31.439C-15.927,-32.524 -17.554,-31.571 -17.011,-30.488C-16.181,-28.831 -14.17,-26.228 -15.396,-24.465C-15.583,-24.199 -15.838,-23.95 -16.188,-23.728C-17.76,-22.731 -20.384,-22.701 -22.143,-22.647C-22.472,-22.637 -22.8,-22.645 -23.129,-22.648C-24.663,-22.66 -26.182,-22.809 -27.677,-23.086C-29.918,-23.503 -32.104,-24.201 -34.193,-25.171C-34.501,-26.581 -35.3,-27.969 -36.089,-29.134C-36.765,-30.132 -38.398,-29.191 -37.716,-28.183C-36.975,-27.088 -35.8,-25.603 -35.938,-24.215C-36.157,-21.995 -37.921,-21.496 -39.796,-21.583C-41.562,-21.665 -43.383,-22.148 -45.125,-22.705C-45.628,-22.867 -46.123,-23.032 -46.61,-23.198C-46.775,-23.253 -46.941,-23.31 -47.104,-23.366C-51.755,-24.952 -56.113,-27.286 -60.055,-30.208C-60.438,-30.493 -60.816,-30.782 -61.19,-31.076C-61.247,-32.136 -61.295,-33.196 -61.331,-34.255C-61.409,-36.574 -61.43,-38.892 -61.41,-41.21C-61.407,-41.608 -61.407,-42.005 -61.401,-42.403M0.601,-11.1C0.492,-11.249 0.375,-11.389 0.258,-11.529C0.29,-11.565 0.326,-11.595 0.353,-11.636C0.431,-11.757 0.49,-11.895 0.51,-12.063C0.783,-14.395 0.9,-16.737 0.889,-19.076C0.876,-21.586 0.698,-24.091 0.353,-26.577C0.037,-28.85 -0.404,-31.107 -1.003,-33.332C-1.864,-36.534 -2.93,-39.743 -4.576,-42.557C-5.98,-44.955 -7.806,-47.067 -10.302,-48.628C-14.133,-51.022 -18.611,-52.14 -23.129,-52.64C-25.252,-52.875 -27.383,-52.975 -29.46,-53.004C-33.16,-53.057 -36.909,-52.964 -40.599,-52.669C-42.278,-52.535 -43.919,-52.287 -45.485,-51.806C-45.371,-52.17 -45.351,-52.557 -45.473,-52.966C-45.661,-53.597 -46.087,-53.927 -46.61,-54.098C-47.588,-54.415 -48.924,-54.146 -49.807,-54.032C-54.511,-53.425 -58.829,-51.445 -62.507,-48.493C-62.538,-48.506 -62.557,-48.53 -62.59,-48.541C-65.164,-49.449 -67.715,-49.464 -70.091,-48.843C-73.596,-47.926 -76.707,-45.598 -78.913,-42.557C-79.689,-41.487 -80.361,-40.336 -80.89,-39.123C-83.631,-32.841 -83.303,-25.849 -82.258,-19.076C-81.848,-16.414 -81.33,-13.785 -80.84,-11.249C-80.838,-11.242 -80.834,-11.239 -80.832,-11.232C-80.866,-11.187 -80.904,-11.146 -80.938,-11.1C-82.047,-9.567 -82.494,-7.699 -82.197,-5.841L-81.422,-1.001C-81.125,0.857 -80.116,2.491 -78.582,3.601C-77.414,4.447 -76.052,4.895 -74.648,4.935C-70.12,19.294 -58.587,24.475 -49.657,26.282C-59.2,29.52 -65.998,37.733 -65.998,47.335L-65.998,48.276L-15.272,48.276L-15.272,47.335C-15.272,37.79 -21.991,29.619 -31.445,26.341C-22.333,24.549 -11.231,19.299 -6.549,4.898C-6.329,4.919 -6.108,4.95 -5.892,4.95C-2.482,4.95 0.529,2.471 1.085,-1.001L1.86,-5.841C2.158,-7.699 1.711,-9.567 0.601,-11.1" style="fill:rgb(47,40,57);fill-rule:nonzero;"/>
        </g>
        <g transform="matrix(1,0,0,1,284.479,383.439)">
            <path d="M0,12.351C-1.901,12.351 -3.608,11.563 -4.795,10.318C-5.841,9.221 -6.484,7.77 -6.484,6.175C-6.484,4.58 -5.841,3.13 -4.795,2.033C-3.983,1.18 -2.928,0.546 -1.731,0.229C-1.179,0.083 -0.601,-0.002 0,-0.002C0.601,-0.002 1.18,0.083 1.731,0.229C4.468,0.954 6.484,3.342 6.484,6.175C6.484,9.58 3.575,12.351 0,12.351M0,-1.885C-4.614,-1.885 -8.369,1.731 -8.369,6.175C-8.369,10.621 -4.614,14.236 0,14.236C4.614,14.236 8.369,10.621 8.369,6.175C8.369,1.731 4.614,-1.885 0,-1.885" style="fill:rgb(47,40,57);fill-rule:nonzero;"/>
        </g>
        <g transform="matrix(1,0,0,1,287.935,389.475)">
            <path d="M0,0.037C-0.011,1.779 -1.556,3.195 -3.455,3.195C-5.361,3.195 -6.912,1.769 -6.912,0.018C-6.912,-1.733 -5.361,-3.158 -3.455,-3.158C-3.097,-3.158 -2.757,-3.094 -2.432,-3C-2.325,-3.314 -2.159,-3.597 -1.938,-3.834C-1.681,-4.111 -1.356,-4.32 -0.99,-4.445C-1.731,-4.815 -2.562,-5.043 -3.455,-5.043C-5.57,-5.043 -7.386,-3.863 -8.25,-2.17C-8.59,-1.505 -8.797,-0.769 -8.797,0.018C-8.797,0.806 -8.59,1.542 -8.25,2.207C-7.386,3.9 -5.57,5.08 -3.455,5.08C-0.509,5.08 1.887,2.809 1.887,0.018C1.887,-0.362 1.834,-0.731 1.749,-1.088C1.547,-0.744 1.261,-0.46 0.915,-0.259C0.64,-0.1 0.331,0.002 0,0.037" style="fill:rgb(47,40,57);fill-rule:nonzero;"/>
        </g>
        <g transform="matrix(1,0,0,1,318.71,383.439)">
            <path d="M0,12.351C-1.567,12.351 -3.007,11.818 -4.13,10.933C-5.566,9.799 -6.483,8.087 -6.483,6.175C-6.483,4.263 -5.566,2.552 -4.13,1.418C-3.437,0.872 -2.621,0.465 -1.731,0.229C-1.179,0.083 -0.601,-0.002 0,-0.002C0.601,-0.002 1.18,0.083 1.732,0.229C4.469,0.954 6.485,3.342 6.485,6.175C6.485,9.58 3.576,12.351 0,12.351M0,-1.885C-4.614,-1.885 -8.368,1.731 -8.368,6.175C-8.368,10.621 -4.614,14.236 0,14.236C0.437,14.236 0.862,14.194 1.281,14.131C1.855,14.046 2.409,13.906 2.938,13.713C6.106,12.564 8.37,9.623 8.37,6.175C8.37,1.731 4.615,-1.885 0,-1.885" style="fill:rgb(47,40,57);fill-rule:nonzero;"/>
        </g>
        <g transform="matrix(1,0,0,1,322.167,389.478)">
            <path d="M0,0.031C-0.01,1.775 -1.556,3.192 -3.457,3.192C-5.363,3.192 -6.914,1.766 -6.914,0.015C-6.914,-1.736 -5.363,-3.161 -3.457,-3.161C-3.107,-3.161 -2.777,-3.099 -2.46,-3.011C-2.353,-3.323 -2.185,-3.607 -1.963,-3.843C-1.702,-4.122 -1.373,-4.33 -1.003,-4.453C-1.741,-4.82 -2.567,-5.046 -3.457,-5.046C-5.13,-5.046 -6.606,-4.299 -7.587,-3.156C-8.333,-2.284 -8.799,-1.191 -8.799,0.015C-8.799,1.221 -8.333,2.316 -7.587,3.186C-6.606,4.33 -5.13,5.077 -3.457,5.077C-0.511,5.077 1.886,2.806 1.886,0.015C1.886,-0.378 1.828,-0.757 1.737,-1.124C1.539,-0.775 1.257,-0.484 0.912,-0.277C0.639,-0.114 0.331,-0.008 0,0.031" style="fill:rgb(47,40,57);fill-rule:nonzero;"/>
        </g>
        <g transform="matrix(1,0,0,1,279.712,377.817)">
            <path d="M0,1.885L9.735,1.885C10.256,1.885 10.678,1.463 10.678,0.943C10.678,0.859 10.65,0.783 10.63,0.706C10.134,0.48 9.651,0.244 9.187,0L0,0C-0.521,0 -0.942,0.421 -0.942,0.943C-0.942,1.463 -0.521,1.885 0,1.885" style="fill:rgb(47,40,57);fill-rule:nonzero;"/>
        </g>
        <g transform="matrix(1,0,0,1,314.301,377.817)">
            <path d="M0,1.885L9.736,1.885C10.257,1.885 10.678,1.463 10.678,0.943C10.678,0.751 10.607,0.583 10.509,0.435C9.613,0.602 8.638,0.726 7.593,0.762C5.817,0.823 3.71,0.471 1.745,0L0,0C-0.521,0 -0.941,0.421 -0.941,0.943C-0.941,1.463 -0.521,1.885 0,1.885" style="fill:rgb(47,40,57);fill-rule:nonzero;"/>
        </g>
        <g transform="matrix(1,0,0,1,306.027,401.323)">
            <path d="M0,-1.885L-6.565,-1.885C-7.086,-1.885 -7.508,-1.464 -7.508,-0.943C-7.508,-0.542 -7.256,-0.205 -6.903,-0.069C-6.798,-0.028 -6.686,0 -6.565,0L0,0C0.094,0 0.179,-0.029 0.265,-0.054C0.653,-0.17 0.942,-0.516 0.942,-0.943C0.942,-1.464 0.521,-1.885 0,-1.885" style="fill:rgb(47,40,57);fill-rule:nonzero;"/>
        </g>
        <g transform="matrix(1,0,0,1,305.363,411.524)">
            <path d="M0,-2.709C-0.271,-2.442 -2.715,-0.177 -5.233,-2.705C-5.601,-3.074 -6.198,-3.076 -6.565,-2.709C-6.935,-2.342 -6.937,-1.744 -6.569,-1.376C-5.418,-0.219 -4.13,0.367 -2.74,0.367C-0.43,0.367 1.262,-1.305 1.332,-1.376C1.697,-1.743 1.696,-2.336 1.33,-2.704C0.963,-3.071 0.367,-3.073 0,-2.709" style="fill:rgb(47,40,57);fill-rule:nonzero;"/>
        </g>
        <g opacity="0.5">
            <g transform="matrix(1,0,0,1,290.182,381.591)">
                <path d="M0,19.126L-13.667,19.126C-16.834,19.126 -19.425,16.535 -19.425,13.369L-19.425,5.757C-19.425,2.591 -16.834,0 -13.667,0L0,0C3.166,0 5.757,2.591 5.757,5.757L5.757,13.369C5.757,16.535 3.166,19.126 0,19.126" style="fill:rgb(253,250,201);fill-rule:nonzero;"/>
            </g>
        </g>
        <g opacity="0.5">
            <g transform="matrix(1,0,0,1,327.875,381.591)">
                <path d="M0,19.126L-13.667,19.126C-16.834,19.126 -19.425,16.535 -19.425,13.369L-19.425,5.757C-19.425,2.591 -16.834,0 -13.667,0L0,0C3.166,0 5.757,2.591 5.757,5.757L5.757,13.369C5.757,16.535 3.166,19.126 0,19.126" style="fill:rgb(253,250,201);fill-rule:nonzero;"/>
            </g>
        </g>
        <g transform="matrix(1,0,0,1,332.69,387.014)">
            <path d="M0,8.278C0,10.75 -2.011,12.76 -4.482,12.76L-18.813,12.76C-21.285,12.76 -23.297,10.75 -23.297,8.278L-23.297,0.002C-23.297,-2.47 -21.285,-4.482 -18.813,-4.482L-4.482,-4.482C-2.011,-4.482 0,-2.47 0,0.002L0,8.278ZM-37.693,8.278C-37.693,10.75 -39.704,12.76 -42.176,12.76L-56.507,12.76C-58.979,12.76 -60.99,10.75 -60.99,8.278L-60.99,0.002C-60.99,-2.47 -58.979,-4.482 -56.507,-4.482L-42.176,-4.482C-39.704,-4.482 -37.693,-2.47 -37.693,0.002L-37.693,8.278ZM-4.482,-6.367L-18.813,-6.367C-21.237,-6.367 -23.348,-5.004 -24.424,-3.007C-24.51,-3.033 -24.596,-3.061 -24.69,-3.061L-36.596,-3.061C-37.681,-5.029 -39.774,-6.367 -42.176,-6.367L-56.507,-6.367C-60.019,-6.367 -62.875,-3.51 -62.875,0.002L-62.875,8.278C-62.875,11.789 -60.019,14.645 -56.507,14.645L-42.176,14.645C-38.665,14.645 -35.809,11.789 -35.809,8.278L-35.809,0.002C-35.809,-0.401 -35.851,-0.793 -35.922,-1.176L-25.067,-1.176C-25.14,-0.793 -25.182,-0.401 -25.182,0.002L-25.182,8.278C-25.182,11.789 -22.325,14.645 -18.813,14.645L-4.482,14.645C-0.972,14.645 1.885,11.789 1.885,8.278L1.885,0.002C1.885,-3.51 -0.972,-6.367 -4.482,-6.367" style="fill:rgb(47,40,57);fill-rule:nonzero;"/>
        </g>
    </g>
</svg>
