<?xml version="1.0" encoding="UTF-8" standalone="no"?>
<!DOCTYPE svg PUBLIC "-//W3C//DTD SVG 1.1//EN" "http://www.w3.org/Graphics/SVG/1.1/DTD/svg11.dtd">
<svg width="100%" height="100%" viewBox="0 0 130 130" version="1.1" xmlns="http://www.w3.org/2000/svg" xmlns:xlink="http://www.w3.org/1999/xlink" xml:space="preserve" xmlns:serif="http://www.serif.com/" style="fill-rule:evenodd;clip-rule:evenodd;stroke-linejoin:round;stroke-miterlimit:2;">
    <g transform="matrix(1,0,0,1,-12.9627,-192.715)">
        <g transform="matrix(1,0,0,1,58.6367,294.159)">
            <path d="M0,7.362C-0.433,8.484 -2.255,7.994 -1.817,6.861C-1.721,6.612 -1.608,6.373 -1.501,6.13C-0.103,2.94 2.152,0.312 5.163,-1.506C6.205,-2.136 7.151,-0.505 6.114,0.121C3.706,1.576 1.788,3.636 0.548,6.13C0.349,6.531 0.163,6.94 0,7.362M42.019,6.13C40.109,1.745 36.629,-1.95 32.186,-4.414C30.918,-5.117 29.573,-5.719 28.163,-6.21C27.852,-6.319 27.538,-6.421 27.221,-6.519L27.221,-5.666C27.221,-5.621 27.215,-5.577 27.214,-5.533C27.204,-4.915 27.119,-4.317 26.975,-3.74L27.087,-2.637C27.087,-2.637 26.918,-2.629 26.614,-2.626C25.411,0.274 22.548,2.329 19.227,2.329C17.565,2.329 16.02,1.813 14.737,0.937C12.661,-0.482 11.284,-2.852 11.239,-5.533C11.238,-5.577 11.232,-5.621 11.232,-5.666L11.232,-6.519C10.915,-6.421 10.602,-6.319 10.29,-6.21C4.605,-4.232 -0.039,-0.427 -2.711,4.392C-3.024,4.958 -3.308,5.538 -3.565,6.13C-4.613,8.537 -5.193,11.148 -5.193,13.881L43.647,13.881C43.647,11.148 43.066,8.537 42.019,6.13" style="fill:rgb(123,117,133);fill-rule:nonzero;"/>
        </g>
        <g transform="matrix(1,0,0,1,64.1763,253.75)">
            <path d="M0,0.038C-0.081,0.046 -0.16,0.062 -0.244,0.062C-1.525,0.062 -2.564,-0.977 -2.564,-2.258C-2.564,-2.519 -2.511,-2.765 -2.432,-3C-2.326,-3.313 -2.159,-3.596 -1.938,-3.833C-2.413,-3.997 -2.919,-4.1 -3.455,-4.1C-5.885,-4.1 -7.855,-2.256 -7.855,0.019C-7.855,2.294 -5.885,4.138 -3.455,4.138C-1.025,4.138 0.945,2.294 0.945,0.019C0.945,-0.076 0.922,-0.165 0.915,-0.259C0.64,-0.099 0.332,0.003 0,0.038" style="fill:rgb(96,60,50);fill-rule:nonzero;"/>
        </g>
        <g transform="matrix(1,0,0,1,99.3208,254.061)">
            <path d="M0,-0.584C-0.273,-0.42 -0.582,-0.315 -0.913,-0.275C-1.003,-0.265 -1.092,-0.248 -1.186,-0.248C-2.467,-0.248 -3.506,-1.287 -3.506,-2.568C-3.506,-2.832 -3.453,-3.082 -3.372,-3.317C-3.264,-3.631 -3.097,-3.914 -2.875,-4.15C-3.343,-4.31 -3.841,-4.411 -4.369,-4.411C-6.281,-4.411 -7.892,-3.261 -8.499,-1.665C-8.663,-1.233 -8.768,-0.775 -8.768,-0.291C-8.768,0.193 -8.663,0.65 -8.499,1.082C-7.892,2.678 -6.281,3.827 -4.369,3.827C-1.938,3.827 0.032,1.983 0.032,-0.291C0.032,-0.392 0.007,-0.485 0,-0.584" style="fill:rgb(96,60,50);fill-rule:nonzero;"/>
        </g>
        <g transform="matrix(1,0,0,1,84.2192,291.958)">
            <path d="M0,-0.432C-2.361,-0.483 -7.06,-0.822 -10.845,-2.576C-11.571,-2.911 -12.264,-3.297 -12.899,-3.745C-13.073,-3.869 -13.243,-3.995 -13.408,-4.127C-13.549,-4.24 -13.686,-4.357 -13.82,-4.477C-13.912,-4.559 -14,-4.646 -14.088,-4.732C-14.167,-4.808 -14.248,-4.882 -14.323,-4.961C-14.327,-4.9 -14.33,-4.838 -14.333,-4.777C-14.337,-4.662 -14.35,-4.55 -14.35,-4.434L-14.35,-3.466C-14.35,-3.421 -14.344,-3.377 -14.343,-3.332C-14.298,-0.652 -12.922,1.718 -10.845,3.137C-9.563,4.013 -8.017,4.529 -6.356,4.529C-3.034,4.529 -0.172,2.474 1.031,-0.426C0.777,-0.423 0.425,-0.423 0,-0.432" style="fill:rgb(226,179,132);fill-rule:nonzero;"/>
        </g>
        <g transform="matrix(1,0,0,1,94.9521,266.151)">
            <path d="M0,-5.142C-1.528,-5.142 -2.949,-5.585 -4.13,-6.344C-6.117,-7.622 -7.426,-9.794 -7.426,-12.261C-7.426,-14.727 -6.117,-16.899 -4.13,-18.177C-4.113,-18.187 -4.095,-18.196 -4.078,-18.206C-2.907,-18.946 -1.507,-19.38 0,-19.38C1.507,-19.38 2.908,-18.946 4.079,-18.206C6.095,-16.934 7.427,-14.747 7.427,-12.261C7.427,-8.329 4.102,-5.142 0,-5.142M6.155,-1.457C6.072,-1.416 5.989,-1.374 5.905,-1.333C4.823,-0.791 3.869,-2.418 4.954,-2.96C5.038,-3.002 5.121,-3.043 5.204,-3.085C6.287,-3.626 7.24,-2 6.155,-1.457M4.125,-0.025C4.125,1.19 2.241,1.188 2.241,-0.025L2.241,-0.15C2.241,-1.365 4.125,-1.363 4.125,-0.15L4.125,-0.025ZM1.518,-3.477C1.26,-3.736 1.215,-4.033 1.281,-4.304C1.433,-4.935 2.25,-5.411 2.851,-4.81C2.851,-4.81 2.963,-4.698 2.976,-4.685C3.835,-3.827 2.502,-2.494 1.643,-3.353C1.602,-3.394 1.56,-3.436 1.518,-3.477M-1.685,-1.204L-1.81,-1.204C-3.024,-1.204 -3.022,-3.089 -1.81,-3.089L-1.685,-3.089C-0.47,-3.089 -0.472,-1.204 -1.685,-1.204M-19.248,-2.895C-19.335,-3.246 -15.966,-12.381 -15.966,-12.381L-12.683,-3.158L-19.248,-2.895ZM-12.869,-0.758C-12.894,-0.692 -12.92,-0.623 -12.952,-0.552C-13.307,0.261 -14.12,1.306 -15.966,1.306C-17.961,1.306 -18.75,0.2 -19.057,-0.552C-19.086,-0.625 -19.112,-0.694 -19.134,-0.758C-19.226,-1.038 -19.248,-1.232 -19.248,-1.232L-12.683,-1.495C-12.683,-1.495 -12.716,-1.177 -12.869,-0.758M-13.068,11.889C-13.079,11.932 -13.089,11.976 -13.113,12.016C-13.114,12.018 -13.114,12.019 -13.115,12.021C-13.362,12.429 -13.666,12.741 -13.992,13.002C-14.176,13.15 -14.367,13.275 -14.568,13.376C-14.604,13.459 -14.664,13.532 -14.761,13.578C-14.84,13.615 -14.92,13.638 -15,13.668C-15.533,13.866 -16.068,13.897 -16.631,13.698C-16.797,13.639 -16.951,13.563 -17.1,13.478C-17.169,13.451 -17.238,13.423 -17.306,13.39C-17.705,13.198 -18.08,12.913 -18.418,12.547C-18.463,12.499 -18.514,12.465 -18.558,12.415C-18.74,12.198 -18.718,11.824 -18.457,11.684C-18.341,11.475 -18.082,11.327 -17.804,11.457C-16.576,12.029 -14.87,12.179 -13.727,11.351C-13.381,11.101 -13.054,11.429 -13.053,11.769C-13.052,11.808 -13.057,11.848 -13.068,11.889M-34.231,-5.142C-36.06,-5.142 -37.732,-5.779 -39.026,-6.829C-40.634,-8.135 -41.658,-10.082 -41.658,-12.261C-41.658,-14.439 -40.634,-16.386 -39.026,-17.692C-38.798,-17.877 -38.56,-18.049 -38.31,-18.206C-37.139,-18.946 -35.738,-19.38 -34.231,-19.38C-32.724,-19.38 -31.323,-18.946 -30.152,-18.206C-28.137,-16.934 -26.804,-14.747 -26.804,-12.261C-26.804,-8.329 -30.129,-5.142 -34.231,-5.142M-35.635,-1.454C-36.85,-1.454 -36.848,-3.338 -35.635,-3.338C-34.42,-3.338 -34.422,-1.454 -35.635,-1.454M-38.506,-2.578C-39.721,-2.578 -39.719,-4.462 -38.506,-4.462C-37.291,-4.462 -37.293,-2.578 -38.506,-2.578M-38.755,0.419C-39.97,0.419 -39.968,-1.466 -38.755,-1.466C-37.541,-1.466 -37.543,0.419 -38.755,0.419M-42.25,-1.204L-42.375,-1.204C-43.59,-1.204 -43.588,-3.089 -42.375,-3.089L-42.25,-3.089C-41.036,-3.089 -41.038,-1.204 -42.25,-1.204M18.282,-14.696C18.279,-15.679 18.268,-16.644 18.24,-17.574C18.234,-17.791 18.22,-17.992 18.212,-18.206C18.208,-18.315 18.202,-18.418 18.197,-18.526C18.192,-18.654 18.186,-18.779 18.18,-18.907C18.002,-18.972 17.835,-19.082 17.713,-19.291C17.686,-19.338 17.651,-19.377 17.623,-19.422C17.505,-19.609 17.381,-19.79 17.244,-19.956C16.126,-21.311 14.42,-22.046 13.031,-23.112C12.966,-23.162 12.909,-23.219 12.845,-23.27C12.126,-23.839 11.461,-24.465 10.83,-25.123C9.942,-24.706 8.27,-24.03 6.1,-23.623C5.204,-23.455 4.228,-23.332 3.183,-23.296C1.408,-23.234 -0.701,-23.587 -2.666,-24.059C-3.167,-24.179 -3.655,-24.306 -4.13,-24.436C-6.906,-25.203 -9.095,-26.071 -9.095,-26.071C-9.095,-26.071 -11.195,-20.838 -20.473,-21.307C-20.846,-21.326 -21.211,-21.374 -21.578,-21.415C-24.023,-21.689 -26.324,-22.419 -28.368,-23.351C-28.865,-23.578 -29.348,-23.814 -29.812,-24.059C-34.288,-26.412 -37.224,-29.41 -37.224,-29.41C-37.224,-29.41 -37.768,-27.947 -39.026,-26.1C-40.072,-24.563 -41.61,-22.763 -43.755,-21.307C-45.755,-19.951 -47.694,-19.325 -49.271,-19.049C-49.688,-18.976 -50.076,-18.928 -50.437,-18.898C-50.657,-18.797 -50.874,-18.691 -51.101,-18.598C-51.169,-18.57 -51.237,-18.543 -51.306,-18.517C-51.539,-18.424 -51.783,-18.346 -52.024,-18.263C-52.024,-18.244 -52.026,-18.226 -52.026,-18.206C-52.035,-17.988 -52.05,-17.781 -52.058,-17.559C-52.091,-16.531 -52.111,-15.474 -52.111,-14.379C-52.111,-11.219 -51.896,-8.337 -51.505,-5.687C-51.449,-5.578 -51.431,-5.457 -51.456,-5.346C-51.298,-4.327 -51.114,-3.343 -50.902,-2.397C-50.83,-2.075 -50.751,-1.761 -50.673,-1.447C-50.596,-1.14 -50.521,-0.831 -50.438,-0.532C-46.784,12.722 -37.471,18.431 -25.937,20.185C-25.628,20.232 -25.316,20.274 -25.004,20.315C-25.012,20.376 -25.025,20.434 -25.032,20.496C-25.042,20.588 -25.046,20.684 -25.053,20.779C-24.966,20.695 -24.627,20.625 -24.09,20.566C-23.885,20.544 -23.647,20.523 -23.391,20.504C-22.792,20.565 -22.187,20.617 -21.578,20.659C-21.561,20.66 -21.544,20.661 -21.527,20.662C-20.014,20.765 -18.476,20.82 -16.913,20.82C-15.449,20.82 -14.008,20.768 -12.588,20.671C-11.752,20.615 -10.923,20.544 -10.104,20.451C-9.981,20.437 -9.858,20.423 -9.735,20.409L-9.653,21.208L-9.641,21.326L-9.538,22.342L-9.341,24.268C-9.196,23.691 -9.112,23.092 -9.102,22.475C-9.101,22.43 -9.095,22.386 -9.095,22.341L-9.095,21.374C-9.095,21.287 -9.105,21.202 -9.108,21.115C-9.115,20.907 -9.124,20.699 -9.146,20.496C-9.152,20.44 -9.164,20.387 -9.171,20.333C-8.859,20.292 -8.546,20.254 -8.238,20.207C3.41,18.435 12.842,12.565 16.565,-0.582C16.651,-0.884 16.732,-1.192 16.812,-1.501C16.891,-1.808 16.966,-2.119 17.039,-2.433C17.209,-3.17 17.365,-3.925 17.502,-4.705C17.493,-4.707 17.485,-4.707 17.476,-4.71C16.918,-4.859 17.122,-5.679 17.649,-5.623C18.039,-8.147 18.254,-10.888 18.276,-13.866C18.149,-13.948 18.078,-14.07 18.062,-14.204C18.038,-14.4 18.121,-14.605 18.282,-14.696" style="fill:rgb(226,179,132);fill-rule:nonzero;"/>
        </g>
        <g transform="matrix(1,0,0,1,65.1211,254.01)">
            <path d="M0,-0.24C0,2.034 -1.97,3.878 -4.4,3.878C-6.83,3.878 -8.8,2.034 -8.8,-0.24C-8.8,-2.515 -6.83,-4.36 -4.4,-4.36C-3.864,-4.36 -3.358,-4.257 -2.883,-4.093C-3.104,-3.856 -3.271,-3.572 -3.376,-3.259C-3.456,-3.025 -3.509,-2.778 -3.509,-2.517C-3.509,-1.236 -2.47,-0.197 -1.188,-0.197C-1.105,-0.197 -1.026,-0.214 -0.945,-0.221C-0.613,-0.257 -0.305,-0.358 -0.03,-0.518C-0.023,-0.425 0,-0.336 0,-0.24M-0.321,-6.065C-1.492,-6.805 -2.893,-7.239 -4.4,-7.239C-5.907,-7.239 -7.308,-6.805 -8.479,-6.065C-8.729,-5.907 -8.967,-5.736 -9.195,-5.551C-10.803,-4.245 -11.827,-2.298 -11.827,-0.12C-11.827,2.059 -10.803,4.006 -9.195,5.312C-7.901,6.363 -6.229,6.999 -4.4,6.999C-0.298,6.999 3.027,3.813 3.027,-0.12C3.027,-2.606 1.694,-4.792 -0.321,-6.065" style="fill:rgb(253,250,201);fill-rule:nonzero;"/>
        </g>
        <g transform="matrix(1,0,0,1,99.3525,254.01)">
            <path d="M0,-0.24C0,2.034 -1.97,3.878 -4.4,3.878C-6.312,3.878 -7.924,2.729 -8.53,1.133C-8.694,0.701 -8.8,0.244 -8.8,-0.24C-8.8,-0.724 -8.694,-1.182 -8.53,-1.614C-7.924,-3.21 -6.312,-4.36 -4.4,-4.36C-3.873,-4.36 -3.375,-4.259 -2.907,-4.099C-3.128,-3.863 -3.296,-3.58 -3.403,-3.266C-3.484,-3.031 -3.538,-2.781 -3.538,-2.517C-3.538,-1.236 -2.499,-0.197 -1.217,-0.197C-1.124,-0.197 -1.035,-0.214 -0.944,-0.224C-0.613,-0.264 -0.305,-0.369 -0.032,-0.533C-0.024,-0.434 0,-0.341 0,-0.24M-0.321,-6.065C-1.493,-6.805 -2.893,-7.239 -4.4,-7.239C-5.907,-7.239 -7.308,-6.805 -8.479,-6.065C-8.496,-6.055 -8.514,-6.046 -8.53,-6.035C-10.518,-4.758 -11.827,-2.586 -11.827,-0.12C-11.827,2.347 -10.518,4.519 -8.53,5.797C-7.349,6.556 -5.929,6.999 -4.4,6.999C-0.298,6.999 3.026,3.813 3.026,-0.12C3.026,-2.606 1.694,-4.792 -0.321,-6.065" style="fill:rgb(253,250,201);fill-rule:nonzero;"/>
        </g>
        <g transform="matrix(1,0,0,1,75.7041,253.77)">
            <path d="M0,9.486L6.565,9.223L3.282,0C3.282,0 -0.087,9.135 0,9.486" style="fill:rgb(253,250,201);fill-rule:nonzero;"/>
        </g>
        <g transform="matrix(-1,0,0,1,93.0588,242.916)">
            <path d="M-7.22,-0.824L0.773,-0.824C-1.193,-0.352 -3.301,0 -5.076,-0.061C-6.121,-0.097 -7.097,-0.221 -7.993,-0.389C-7.824,-0.645 -7.549,-0.824 -7.22,-0.824" style="fill:rgb(15,14,14);fill-rule:nonzero;"/>
        </g>
        <g transform="matrix(1,0,0,1,65.689,242.8)">
            <path d="M0,-0.708L-0.549,-0.708C-0.084,-0.463 0.398,-0.227 0.895,0C0.789,-0.404 0.437,-0.708 0,-0.708" style="fill:rgb(15,14,14);fill-rule:nonzero;"/>
        </g>
        <g transform="matrix(1,0,0,1,115.393,256.053)">
            <path d="M0,0.781C0.154,0.088 0.423,-0.739 0.334,-1.458C0.183,-2.691 -0.43,-3.093 -1.257,-3.415C-1.51,-3.513 -1.781,-3.604 -2.067,-3.708C-2.106,-3.723 -2.132,-3.747 -2.164,-3.768C-2.187,-0.79 -2.402,1.951 -2.792,4.474C-2.765,4.477 -2.742,4.471 -2.714,4.479C-2.51,4.533 -2.328,4.549 -2.157,4.546C-0.521,4.519 -0.289,2.087 0,0.781" style="fill:rgb(188,98,86);fill-rule:nonzero;"/>
        </g>
        <g transform="matrix(1,0,0,1,117.789,262.989)">
            <path d="M0,-13.477C-0.315,-13.529 -0.573,-13.722 -0.64,-14.064C-1.178,-14.487 -1.792,-14.819 -2.463,-15.044C-2.778,-15.15 -3.103,-15.238 -3.441,-15.292C-3.516,-15.305 -3.591,-15.308 -3.667,-15.317C-3.994,-15.357 -4.319,-15.376 -4.639,-15.364C-4.635,-15.256 -4.628,-15.153 -4.625,-15.044C-4.617,-14.83 -4.603,-14.629 -4.596,-14.412C-4.569,-13.482 -4.558,-12.517 -4.555,-11.534C-4.462,-11.585 -4.348,-11.602 -4.212,-11.553C-4.016,-11.481 -3.813,-11.411 -3.609,-11.337C-3.357,-11.248 -3.106,-11.151 -2.863,-11.041C-2.216,-10.748 -1.641,-10.354 -1.355,-9.666C-0.82,-8.376 -1.261,-6.845 -1.572,-5.558C-2.09,-3.41 -2.33,-1.112 -4.758,-1.43C-4.939,-1.454 -5.129,-1.489 -5.334,-1.542C-5.471,-0.763 -5.627,-0.008 -5.797,0.729C-5.87,1.044 -5.946,1.354 -6.024,1.661C-5.867,1.683 -5.71,1.703 -5.554,1.711C-2.455,1.899 0.364,-0.307 0.865,-3.434L1.64,-8.274C1.954,-10.237 1.283,-12.136 0,-13.477" style="fill:rgb(188,98,86);fill-rule:nonzero;"/>
        </g>
        <g transform="matrix(1,0,0,1,85.4146,289.601)">
            <path d="M0,-1.108L-0.104,-2.125L-0.116,-2.243L-0.197,-3.042C-0.32,-3.027 -0.444,-3.013 -0.567,-3C-1.385,-2.907 -2.214,-2.836 -3.051,-2.779C-4.471,-2.682 -5.912,-2.63 -7.375,-2.63C-8.938,-2.63 -10.477,-2.685 -11.99,-2.789C-12.007,-2.79 -12.023,-2.791 -12.041,-2.792C-12.649,-2.834 -13.254,-2.885 -13.853,-2.946C-14.109,-2.927 -14.348,-2.907 -14.553,-2.884C-15.089,-2.826 -15.429,-2.755 -15.515,-2.671C-15.529,-2.658 -15.545,-2.645 -15.545,-2.63C-15.537,-2.622 -15.527,-2.613 -15.519,-2.604C-15.443,-2.525 -15.362,-2.451 -15.283,-2.375C-15.195,-2.289 -15.107,-2.202 -15.015,-2.12C-14.881,-2 -14.744,-1.882 -14.603,-1.77C-14.438,-1.638 -14.268,-1.511 -14.094,-1.388C-13.459,-0.94 -12.766,-0.554 -12.041,-0.218C-8.255,1.536 -3.557,1.874 -1.195,1.925C-0.77,1.934 -0.418,1.934 -0.164,1.931C0.14,1.928 0.31,1.92 0.31,1.92L0.197,0.818L0,-1.108Z" style="fill:rgb(188,98,86);fill-rule:nonzero;"/>
        </g>
        <g transform="matrix(-1,0,0,1,52.5777,264.947)">
            <path d="M-0.124,-1.885L0.001,-1.885C1.213,-1.885 1.215,0 0.001,0L-0.124,0C-1.337,0 -1.339,-1.885 -0.124,-1.885" style="fill:rgb(188,98,86);fill-rule:nonzero;"/>
        </g>
        <g transform="matrix(1,0,0,1,56.1968,266.57)">
            <path d="M0,-1.885C-1.213,-1.885 -1.215,0 0,0C1.212,0 1.214,-1.885 0,-1.885" style="fill:rgb(188,98,86);fill-rule:nonzero;"/>
        </g>
        <g transform="matrix(1,0,0,1,56.4463,263.573)">
            <path d="M0,-1.885C-1.213,-1.885 -1.215,0 0,0C1.213,0 1.215,-1.885 0,-1.885" style="fill:rgb(188,98,86);fill-rule:nonzero;"/>
        </g>
        <g transform="matrix(1,0,0,1,59.3169,264.697)">
            <path d="M0,-1.885C-1.212,-1.885 -1.214,0 0,0C1.213,0 1.215,-1.885 0,-1.885" style="fill:rgb(188,98,86);fill-rule:nonzero;"/>
        </g>
        <g transform="matrix(-1,0,0,1,93.1416,264.947)">
            <path d="M-0.126,-1.885L-0.001,-1.885C1.212,-1.885 1.214,0 -0.001,0L-0.126,0C-1.338,0 -1.34,-1.885 -0.126,-1.885" style="fill:rgb(188,98,86);fill-rule:nonzero;"/>
        </g>
        <g transform="matrix(1,0,0,1,97.9277,262.931)">
            <path d="M0,-1.465C-0.012,-1.478 -0.024,-1.49 -0.037,-1.502L-0.125,-1.59C-0.726,-2.191 -1.543,-1.715 -1.695,-1.084C-1.76,-0.813 -1.715,-0.516 -1.458,-0.257C-1.416,-0.216 -1.374,-0.174 -1.333,-0.133C-0.474,0.726 0.859,-0.607 0,-1.465" style="fill:rgb(188,98,86);fill-rule:nonzero;"/>
        </g>
        <g transform="matrix(0,1,1,0,98.1979,265.121)">
            <path d="M0.88,-1.005L1.005,-1.005C2.218,-1.005 2.22,0.88 1.005,0.88L0.88,0.88C-0.333,0.88 -0.335,-1.005 0.88,-1.005" style="fill:rgb(188,98,86);fill-rule:nonzero;"/>
        </g>
        <g transform="matrix(-0.92844,0.371482,0.371482,0.92844,101.158,264.625)">
            <path d="M0.35,-1.82C0.443,-1.812 0.536,-1.805 0.629,-1.797C1.838,-1.697 1.556,0.168 0.35,0.067C0.257,0.06 0.164,0.052 0.072,0.044C-1.137,-0.057 -0.856,-1.92 0.35,-1.82" style="fill:rgb(188,98,86);fill-rule:nonzero;"/>
        </g>
        <g transform="matrix(1,0,0,1,43.4961,251.795)">
            <path d="M0,9.01C-0.032,9.151 -0.129,9.271 -0.322,9.304C-0.477,9.329 -0.619,9.341 -0.758,9.35C-3.311,9.502 -3.398,6.772 -3.708,4.573C-3.932,2.985 -4.036,1.085 -2.975,0.153C-2.64,-0.141 -2.193,-0.341 -1.594,-0.401C-1.446,-0.416 -1.292,-0.426 -1.126,-0.424C-0.779,-0.419 -0.638,-0.11 -0.687,0.153C-0.694,0.186 -0.7,0.217 -0.712,0.248C-0.767,0.417 -0.909,0.554 -1.14,0.554C-1.188,0.554 -1.226,0.538 -1.266,0.528C-1.376,0.532 -1.485,0.538 -1.582,0.555C-3.486,0.887 -2.924,3.561 -2.712,4.913C-2.543,5.992 -2.525,8.378 -0.934,8.421C-0.821,8.424 -0.702,8.416 -0.573,8.395C-0.324,8.353 -0.141,8.49 -0.049,8.669C-0.44,6.019 -0.655,3.137 -0.655,-0.023C-0.655,-1.118 -0.635,-2.175 -0.602,-3.203C-0.594,-3.425 -0.579,-3.632 -0.57,-3.85C-0.57,-3.87 -0.568,-3.888 -0.568,-3.907C-0.621,-3.888 -0.674,-3.869 -0.728,-3.85C-0.882,-3.799 -1.028,-3.737 -1.186,-3.689C-1.316,-3.649 -1.435,-3.645 -1.547,-3.654C-1.726,-3.67 -1.873,-3.744 -1.996,-3.85C-2.01,-3.863 -2.022,-3.877 -2.036,-3.891C-2.078,-3.878 -2.12,-3.865 -2.161,-3.85C-2.847,-3.62 -3.473,-3.277 -4.02,-2.84C-3.883,-2.134 -4.471,-1.68 -5.019,-1.671C-5.061,-1.67 -5.101,-1.668 -5.143,-1.673C-6.082,-0.395 -6.533,1.24 -6.264,2.92L-5.489,7.76C-5.401,8.307 -5.237,8.823 -5.019,9.305C-4.104,11.325 -2.142,12.711 0.075,12.891C0.309,12.91 0.545,12.917 0.783,12.909C0.705,12.595 0.626,12.281 0.554,11.959C0.342,11.013 0.158,10.03 0,9.01" style="fill:rgb(188,98,86);fill-rule:nonzero;"/>
        </g>
        <g transform="matrix(1,0,0,1,81.2256,279.835)">
            <path d="M0,-2.333C-1.143,-1.505 -2.85,-1.655 -4.077,-2.228C-4.355,-2.357 -4.614,-2.209 -4.73,-2C-4.991,-1.86 -5.013,-1.486 -4.831,-1.27C-4.788,-1.219 -4.737,-1.186 -4.692,-1.137C-4.354,-0.771 -3.979,-0.486 -3.579,-0.294C-3.511,-0.261 -3.443,-0.233 -3.374,-0.206C-3.225,-0.121 -3.07,-0.045 -2.905,0.014C-2.342,0.213 -1.806,0.182 -1.273,-0.017C-1.194,-0.046 -1.114,-0.069 -1.034,-0.106C-0.937,-0.152 -0.877,-0.226 -0.842,-0.309C-0.64,-0.409 -0.449,-0.534 -0.265,-0.683C0.061,-0.943 0.365,-1.255 0.611,-1.663C0.612,-1.665 0.612,-1.666 0.613,-1.668C0.639,-1.711 0.647,-1.753 0.659,-1.795C0.669,-1.836 0.675,-1.876 0.673,-1.915C0.671,-1.966 0.659,-2.015 0.64,-2.061C0.562,-2.336 0.294,-2.546 0,-2.333" style="fill:rgb(188,98,86);fill-rule:nonzero;"/>
        </g>
        <g transform="matrix(1,0,0,1,100.663,239.382)">
            <path d="M0,0.091C-3.267,0.742 -6.598,0.704 -9.841,0.13C-12.063,-0.264 -14.237,-0.918 -16.322,-1.801C-16.329,-1.765 -16.339,-1.73 -16.348,-1.694C-16.488,-1.113 -16.755,-0.545 -17.203,-0.008C-18.959,2.097 -22.073,1.757 -24.466,1.25C-25.416,1.049 -26.357,0.816 -27.289,0.554C-31.718,-0.686 -35.927,-2.596 -39.829,-5.018C-41.206,-5.873 -42.539,-6.799 -43.833,-7.779C-44.112,-6.974 -44.412,-6.174 -44.737,-5.384C-46.955,0.003 -50.299,4.926 -55.482,7.563C-55.698,7.673 -55.925,7.769 -56.147,7.87C-55.787,7.841 -55.398,7.792 -54.981,7.719C-53.405,7.444 -51.466,6.818 -49.466,5.462C-47.321,4.006 -45.783,2.205 -44.737,0.669C-43.479,-1.178 -42.935,-2.641 -42.935,-2.641C-42.935,-2.641 -39.999,0.357 -35.523,2.71L-34.974,2.71C-34.537,2.71 -34.186,3.014 -34.079,3.418C-32.035,4.35 -29.734,5.08 -27.289,5.353C-26.922,5.394 -26.557,5.443 -26.184,5.462C-16.906,5.93 -14.806,0.698 -14.806,0.698C-14.806,0.698 -12.617,1.566 -9.841,2.332C-9.366,2.463 -8.878,2.59 -8.377,2.71L-0.384,2.71C-0.055,2.71 0.22,2.889 0.389,3.145C2.559,2.738 4.231,2.062 5.119,1.646C4.32,0.815 3.568,-0.061 2.832,-0.951C1.993,-0.419 0.979,-0.104 0,0.091" style="fill:rgb(188,98,86);fill-rule:nonzero;"/>
        </g>
        <g transform="matrix(1,0,0,1,82.7383,267.392)">
            <path d="M0,-2.692L0.05,-3.228L-7.555,-2.924L-7.503,-2.425C-7.485,-2.258 -7.437,-2.064 -7.373,-1.862C-7.041,-0.819 -6.034,0.536 -3.751,0.536C-1.62,0.536 -0.602,-0.751 -0.205,-1.847C-0.094,-2.154 -0.023,-2.448 0,-2.692" style="fill:rgb(188,98,86);fill-rule:nonzero;"/>
        </g>
        <g transform="matrix(1,0,0,1,82.4434,244.656)">
            <path d="M0,-33.147C6.637,-34.391 13.336,-33.922 19.715,-31.691C20.854,-31.293 20.361,-29.473 19.214,-29.874C13.161,-31.991 6.808,-32.512 0.501,-31.33C-0.687,-31.107 -1.191,-32.924 0,-33.147M23.667,-30.397C23.701,-30.379 23.735,-30.361 23.77,-30.343C24.84,-29.769 23.887,-28.143 22.818,-28.715C22.784,-28.733 22.75,-28.752 22.715,-28.771C21.645,-29.344 22.598,-30.97 23.667,-30.397M33.651,-15.139C33.569,-15.487 33.484,-15.838 33.396,-16.19C32.051,-21.601 30.052,-27.3 25.354,-30.572C25.171,-30.7 24.993,-30.832 24.802,-30.952C19.456,-34.303 12.763,-34.984 6.595,-35.071C5.022,-35.094 3.447,-35.075 1.872,-35.032C0.249,-34.987 -1.374,-34.915 -2.994,-34.831C-6.195,-34.664 -9.302,-34.304 -12.02,-32.479C-12.836,-31.931 -13.589,-32.886 -13.329,-33.63C-13.353,-33.869 -13.281,-34.121 -13.059,-34.342C-12.721,-34.679 -11.899,-35.224 -11.714,-35.684C-11.31,-36.69 -12.157,-36.276 -12.994,-36.189C-14.425,-36.04 -15.849,-35.739 -17.225,-35.32C-18.757,-34.855 -20.221,-34.231 -21.609,-33.47C-22.875,-32.775 -24.076,-31.96 -25.209,-31.045C-25.249,-30.141 -25.274,-29.238 -25.3,-28.334C-25.318,-27.674 -25.335,-27.014 -25.346,-26.355C-25.352,-25.957 -25.352,-25.56 -25.355,-25.162C-25.375,-22.843 -25.354,-20.525 -25.275,-18.207C-25.253,-17.535 -25.218,-16.862 -25.187,-16.19C-25.169,-15.803 -25.156,-15.416 -25.135,-15.028C-24.761,-14.733 -24.382,-14.444 -23.999,-14.16C-23.219,-13.582 -22.421,-13.029 -21.609,-12.498C-18.319,-10.347 -14.779,-8.59 -11.049,-7.317C-10.407,-7.098 -9.743,-6.872 -9.069,-6.657C-7.327,-6.1 -5.506,-5.616 -3.741,-5.535C-1.865,-5.448 -0.102,-5.946 0.118,-8.167C0.255,-9.554 -0.92,-11.04 -1.661,-12.134C-2.343,-13.142 -0.709,-14.084 -0.033,-13.085C0.755,-11.921 1.555,-10.532 1.862,-9.123C1.866,-9.121 1.869,-9.12 1.872,-9.118C3.959,-8.151 6.142,-7.454 8.379,-7.038C10.194,-6.701 12.044,-6.542 13.913,-6.599C15.671,-6.652 18.295,-6.682 19.867,-7.679C20.217,-7.901 20.473,-8.15 20.659,-8.417C21.886,-10.18 19.875,-12.783 19.044,-14.439C18.502,-15.522 20.128,-16.475 20.672,-15.391C21.725,-13.291 23.504,-11.033 22.818,-8.521C22.72,-8.16 22.564,-7.849 22.385,-7.559C23.327,-6.423 24.296,-5.321 25.354,-4.314C26.109,-3.594 26.902,-2.912 27.796,-2.334C28.426,-1.926 29.046,-1.532 29.627,-1.102C29.934,-0.875 30.23,-0.638 30.509,-0.382C30.918,-0.006 31.288,0.415 31.613,0.894C31.693,1.012 31.775,1.126 31.849,1.252C32.028,1.558 32.003,1.849 31.882,2.091C31.875,2.105 31.866,2.118 31.857,2.132L34.723,3.543C34.737,3.412 34.748,3.281 34.761,3.15C35.391,-2.971 35.073,-9.139 33.651,-15.139" style="fill:rgb(165,62,38);fill-rule:nonzero;"/>
        </g>
        <g transform="matrix(1,0,0,1,41.5449,232.186)">
            <path d="M0,-4.726C-0.078,-3.519 -1.963,-3.515 -1.885,-4.726C-1.676,-7.949 -0.492,-10.845 1.608,-13.296C2.398,-14.219 3.726,-12.88 2.94,-11.963C1.179,-9.908 0.175,-7.425 0,-4.726M13.745,-5.594C13.674,-7.643 13.646,-9.691 13.652,-11.74C13.653,-12.23 13.657,-12.721 13.663,-13.211C13.671,-13.895 13.677,-14.579 13.694,-15.263C13.718,-16.25 13.751,-17.238 13.793,-18.226C5.95,-20.938 -0.883,-14.713 -3.059,-7.557C-3.442,-6.296 -3.705,-5.015 -3.888,-3.721C-4.07,-2.433 -4.17,-1.133 -4.191,0.175C-4.199,0.639 -4.201,1.103 -4.191,1.567C-4.097,6.333 -3.158,11.16 -2.267,15.744C-2.237,15.9 -2.207,16.056 -2.176,16.212L-0.138,15.665C-0.333,15.437 -0.418,15.121 -0.366,14.818C-0.312,14.507 -0.124,14.22 0.265,14.102C0.333,14.081 0.396,14.053 0.464,14.031C0.591,13.99 0.713,13.942 0.838,13.899C1.054,13.823 1.273,13.753 1.483,13.67C1.792,13.547 2.089,13.409 2.386,13.27C8.303,10.482 11.643,4.427 13.675,-1.678C13.677,-1.683 13.681,-1.685 13.683,-1.69C13.729,-1.824 13.794,-1.936 13.875,-2.026C13.875,-2.062 13.891,-2.096 13.897,-2.132C13.868,-2.662 13.852,-3.191 13.827,-3.721C13.798,-4.345 13.767,-4.97 13.745,-5.594" style="fill:rgb(165,62,38);fill-rule:nonzero;"/>
        </g>
        <g transform="matrix(-0.0188371,-0.999823,-0.999823,0.0188371,92.329,202.839)">
            <path d="M-10.309,-9.637C-7.958,-3.301 -7.364,3.388 -8.482,10.047C-8.684,11.242 -10.509,10.772 -10.309,9.581C-9.246,3.253 -9.886,-3.09 -12.116,-9.102C-12.54,-10.241 -10.729,-10.769 -10.309,-9.637" style="fill:rgb(188,77,55);fill-rule:nonzero;"/>
        </g>
        <g transform="matrix(-0.830584,-0.556893,-0.556893,0.830584,104.81,215.46)">
            <path d="M-0.527,-1.733C-0.488,-1.729 -0.449,-1.726 -0.411,-1.722C0.796,-1.601 0.682,0.28 -0.527,0.159C-0.566,0.156 -0.605,0.152 -0.643,0.148C-1.85,0.028 -1.736,-1.853 -0.527,-1.733" style="fill:rgb(188,77,55);fill-rule:nonzero;"/>
        </g>
        <g transform="matrix(-0.982849,-0.184413,-0.184413,0.982849,40.8955,227.539)">
            <path d="M-0.624,-8.916C0.988,-6.12 1.618,-3.055 1.229,0.151C1.082,1.356 -0.77,1.003 -0.624,-0.196C-0.298,-2.881 -0.827,-5.507 -2.18,-7.852C-2.782,-8.898 -1.231,-9.969 -0.624,-8.916" style="fill:rgb(188,77,55);fill-rule:nonzero;"/>
        </g>
        <g transform="matrix(1,0,0,1,63.7993,302.012)">
            <path d="M0,-9.36C-3.01,-7.542 -5.266,-4.914 -6.664,-1.724C-6.771,-1.481 -6.884,-1.242 -6.98,-0.993C-7.417,0.14 -5.596,0.63 -5.163,-0.492C-5,-0.914 -4.814,-1.323 -4.615,-1.724C-3.375,-4.217 -1.457,-6.278 0.951,-7.733C1.988,-8.359 1.042,-9.99 0,-9.36" style="fill:rgb(149,146,158);fill-rule:nonzero;"/>
        </g>
        <g transform="matrix(1,0,0,1,118.498,260.344)">
            <path d="M0,-5.779L-0.775,-0.938C-1.189,1.644 -3.458,3.455 -6,3.403C-5.808,2.695 -5.63,1.964 -5.468,1.214C-3.039,1.533 -2.8,-0.765 -2.281,-2.914C-1.971,-4.201 -1.529,-5.732 -2.064,-7.022C-2.35,-7.71 -2.926,-8.104 -3.573,-8.397C-3.816,-8.507 -4.067,-8.603 -4.319,-8.693C-4.319,-9.727 -4.329,-10.738 -4.348,-11.722C-4.332,-11.719 -4.316,-11.721 -4.3,-11.718C-1.477,-11.266 0.452,-8.601 0,-5.779M-7.831,3.038C-7.915,3.349 -8,3.658 -8.09,3.959C-8.181,4.266 -8.28,4.563 -8.377,4.861C-12.745,18.221 -22.878,23.261 -31.995,24.936C-32.307,24.993 -32.618,25.051 -32.926,25.1C-33.24,25.151 -33.551,25.196 -33.861,25.239C-34.678,25.352 -35.48,25.439 -36.267,25.505C-37.735,25.629 -39.146,25.684 -40.458,25.684C-41.574,25.684 -43.049,25.631 -44.747,25.464C-44.873,25.452 -44.996,25.441 -45.124,25.427C-45.84,25.35 -46.595,25.25 -47.379,25.125C-47.685,25.077 -47.994,25.025 -48.309,24.968C-48.616,24.912 -48.923,24.857 -49.238,24.793C-57.583,23.092 -68.294,18.268 -72.688,5.088C-72.788,4.787 -72.896,4.497 -72.989,4.189C-73.08,3.888 -73.155,3.569 -73.239,3.261C-74.171,-0.149 -74.715,-4.055 -74.715,-8.572C-74.715,-9.658 -74.701,-10.708 -74.679,-11.736C-74.674,-11.962 -74.665,-12.177 -74.659,-12.4C-74.656,-12.498 -74.653,-12.594 -74.65,-12.691C-74.649,-12.725 -74.648,-12.758 -74.647,-12.792C-74.42,-12.884 -74.203,-12.991 -73.982,-13.092C-73.76,-13.194 -73.533,-13.289 -73.317,-13.399C-68.134,-16.036 -64.79,-20.96 -62.572,-26.346C-62.247,-27.136 -61.947,-27.936 -61.668,-28.741C-60.374,-27.761 -59.041,-26.836 -57.664,-25.981C-53.762,-23.558 -49.553,-21.648 -45.124,-20.408C-44.192,-20.147 -43.251,-19.914 -42.301,-19.713C-39.908,-19.206 -36.794,-18.865 -35.038,-20.97C-34.59,-21.508 -34.323,-22.075 -34.183,-22.656C-34.174,-22.692 -34.164,-22.727 -34.157,-22.763C-32.072,-21.88 -29.897,-21.227 -27.676,-20.833C-24.433,-20.258 -21.102,-20.22 -17.835,-20.871C-16.856,-21.066 -15.842,-21.381 -15.003,-21.913C-14.267,-21.024 -13.515,-20.147 -12.716,-19.317C-12.084,-18.658 -11.42,-18.033 -10.701,-17.464C-10.637,-17.413 -10.58,-17.355 -10.515,-17.305C-9.125,-16.24 -7.419,-15.505 -6.302,-14.15C-6.295,-13.959 -6.292,-13.758 -6.285,-13.566C-6.275,-13.25 -6.266,-12.931 -6.258,-12.61C-6.256,-12.539 -6.254,-12.471 -6.252,-12.4C-6.246,-12.147 -6.235,-11.906 -6.23,-11.649C-6.212,-10.654 -6.202,-9.634 -6.202,-8.586C-6.333,-4.175 -6.913,-0.331 -7.831,3.038M-47.687,28.148L-47.687,27.18C-47.687,27.126 -47.68,27.075 -47.678,27.022C-47.678,27.012 -47.677,27.002 -47.677,26.992C-47.653,26.996 -47.629,27 -47.606,27.003C-46.739,27.138 -45.91,27.243 -45.124,27.323C-44.983,27.337 -44.842,27.352 -44.704,27.365C-43.03,27.52 -41.575,27.569 -40.458,27.569C-39.266,27.569 -37.887,27.519 -36.389,27.392C-35.495,27.317 -34.56,27.212 -33.589,27.07C-33.588,27.107 -33.583,27.143 -33.583,27.18L-33.583,28.148C-33.583,29.236 -33.837,30.261 -34.279,31.182C-35.416,33.554 -37.833,35.2 -40.635,35.2C-42.339,35.2 -43.904,34.592 -45.124,33.581C-46.688,32.287 -47.687,30.332 -47.687,28.148M-27.676,30.49C-23.76,32.778 -20.665,36.068 -18.873,39.944C-17.895,42.062 -17.304,44.355 -17.181,46.752L-64.088,46.752C-63.973,44.506 -63.442,42.356 -62.572,40.352C-62.513,40.216 -62.458,40.078 -62.396,39.944C-60.024,34.813 -55.371,30.703 -49.548,28.594C-49.394,31.697 -47.657,34.383 -45.124,35.863C-43.803,36.635 -42.272,37.084 -40.635,37.084C-35.858,37.084 -31.956,33.315 -31.721,28.594C-30.296,29.111 -28.944,29.748 -27.676,30.49M-79.561,-0.938L-80.021,-3.807L-80.336,-5.779C-80.488,-6.729 -80.352,-7.654 -80.021,-8.49C-79.433,-9.974 -78.182,-11.138 -76.569,-11.577C-76.586,-10.723 -76.593,-9.843 -76.596,-8.951C-77.195,-8.89 -77.642,-8.691 -77.977,-8.397C-79.038,-7.465 -78.934,-5.565 -78.71,-3.977C-78.4,-1.778 -78.313,0.952 -75.76,0.8C-75.594,1.677 -75.406,2.526 -75.195,3.347C-77.372,3.024 -79.194,1.348 -79.561,-0.938M-75.936,-0.129C-77.527,-0.172 -77.545,-2.557 -77.714,-3.636C-77.926,-4.989 -78.488,-7.663 -76.584,-7.995C-76.556,-5.156 -76.335,-2.535 -75.936,-0.129M-81.145,-26.591C-81.154,-27.055 -81.152,-27.519 -81.145,-27.983C-81.123,-29.291 -81.023,-30.591 -80.841,-31.879C-80.658,-33.173 -80.395,-34.454 -80.012,-35.715C-77.836,-42.871 -71.003,-49.096 -63.16,-46.384C-63.202,-45.396 -63.235,-44.408 -63.259,-43.421C-63.276,-42.737 -63.282,-42.053 -63.29,-41.369C-63.296,-40.879 -63.3,-40.388 -63.301,-39.898C-63.307,-37.849 -63.279,-35.8 -63.208,-33.752C-63.187,-33.128 -63.155,-32.503 -63.126,-31.879C-63.102,-31.349 -63.085,-30.82 -63.056,-30.29C-63.062,-30.254 -63.078,-30.22 -63.078,-30.184C-63.159,-30.094 -63.224,-29.982 -63.271,-29.848C-63.272,-29.843 -63.276,-29.841 -63.278,-29.836C-65.311,-23.731 -68.65,-17.675 -74.567,-14.888C-74.864,-14.749 -75.161,-14.611 -75.47,-14.488C-75.68,-14.404 -75.899,-14.335 -76.115,-14.259C-76.24,-14.216 -76.362,-14.168 -76.489,-14.127C-76.557,-14.105 -76.62,-14.077 -76.688,-14.056C-77.077,-13.938 -77.266,-13.651 -77.319,-13.34C-77.371,-13.037 -77.286,-12.721 -77.091,-12.493L-79.129,-11.946C-79.16,-12.102 -79.19,-12.258 -79.22,-12.414C-80.111,-16.998 -81.05,-21.825 -81.145,-26.591M-4.363,-7.707C-3.536,-7.384 -2.923,-6.982 -2.771,-5.75C-2.683,-5.03 -2.952,-4.204 -3.105,-3.51C-3.395,-2.205 -3.627,0.228 -5.262,0.254C-4.791,-2.177 -4.486,-4.83 -4.363,-7.707M-61.4,-42.043C-61.39,-42.702 -61.373,-43.362 -61.354,-44.022C-61.329,-44.926 -61.304,-45.829 -61.264,-46.733C-60.13,-47.648 -58.93,-48.463 -57.664,-49.158C-56.275,-49.92 -54.812,-50.543 -53.28,-51.008C-51.903,-51.427 -50.479,-51.728 -49.048,-51.877C-48.212,-51.964 -47.364,-52.379 -47.769,-51.372C-47.954,-50.912 -48.776,-50.367 -49.114,-50.03C-49.335,-49.809 -49.407,-49.557 -49.383,-49.318C-49.644,-48.574 -48.891,-47.619 -48.075,-48.167C-45.357,-49.992 -42.25,-50.352 -39.048,-50.519C-37.429,-50.603 -35.806,-50.675 -34.183,-50.72C-32.608,-50.763 -31.033,-50.782 -29.459,-50.759C-23.292,-50.673 -16.599,-49.991 -11.252,-46.64C-11.062,-46.52 -10.884,-46.388 -10.701,-46.26C-6.002,-42.988 -4.003,-37.289 -2.658,-31.879C-2.571,-31.527 -2.486,-31.175 -2.403,-30.827C-0.982,-24.827 -0.664,-18.659 -1.293,-12.538C-1.307,-12.407 -1.317,-12.276 -1.332,-12.145L-4.197,-13.556C-4.189,-13.57 -4.18,-13.583 -4.173,-13.597C-4.051,-13.84 -4.026,-14.13 -4.206,-14.436C-4.279,-14.562 -4.362,-14.676 -4.442,-14.795C-4.767,-15.274 -5.137,-15.695 -5.545,-16.07C-5.825,-16.326 -6.121,-16.563 -6.428,-16.79C-7.009,-17.22 -7.628,-17.614 -8.258,-18.022C-9.152,-18.6 -9.945,-19.282 -10.701,-20.002C-11.759,-21.009 -12.728,-22.111 -13.669,-23.247C-13.491,-23.537 -13.334,-23.848 -13.236,-24.209C-12.551,-26.721 -14.33,-28.979 -15.383,-31.079C-15.927,-32.163 -17.553,-31.21 -17.01,-30.128C-16.18,-28.471 -14.169,-25.868 -15.396,-24.105C-15.582,-23.838 -15.838,-23.589 -16.188,-23.367C-17.759,-22.37 -20.383,-22.341 -22.142,-22.287C-24.011,-22.23 -25.861,-22.389 -27.676,-22.726C-29.913,-23.142 -32.095,-23.839 -34.183,-24.806C-34.186,-24.808 -34.189,-24.809 -34.192,-24.811C-34.5,-26.22 -35.299,-27.609 -36.088,-28.774C-36.764,-29.772 -38.398,-28.83 -37.715,-27.822C-36.975,-26.728 -35.799,-25.242 -35.937,-23.855C-36.157,-21.634 -37.92,-21.136 -39.796,-21.223C-41.561,-21.304 -43.382,-21.788 -45.124,-22.345C-45.798,-22.56 -46.461,-22.786 -47.104,-23.005C-50.834,-24.278 -54.374,-26.035 -57.664,-28.186C-58.476,-28.717 -59.273,-29.27 -60.054,-29.848C-60.437,-30.133 -60.815,-30.421 -61.19,-30.716C-61.211,-31.104 -61.224,-31.491 -61.241,-31.879C-61.272,-32.55 -61.308,-33.223 -61.33,-33.895C-61.408,-36.213 -61.429,-38.531 -61.41,-40.85C-61.406,-41.248 -61.407,-41.645 -61.4,-42.043M0.261,-11.172C0.385,-11.311 0.484,-11.479 0.51,-11.702C1.301,-18.451 0.894,-25.284 -0.736,-31.879C-0.827,-32.243 -0.905,-32.61 -1.002,-32.972C-2.598,-38.902 -4.876,-44.876 -10.301,-48.267C-10.433,-48.349 -10.568,-48.423 -10.701,-48.502C-16.263,-51.815 -23.114,-52.554 -29.459,-52.644C-31.028,-52.667 -32.605,-52.656 -34.183,-52.622C-36.327,-52.575 -38.473,-52.479 -40.599,-52.309C-42.278,-52.175 -43.918,-51.927 -45.485,-51.446C-45.37,-51.81 -45.35,-52.196 -45.472,-52.606C-46.012,-54.416 -48.452,-53.846 -49.806,-53.672C-52.577,-53.314 -55.21,-52.469 -57.664,-51.243C-59.375,-50.387 -60.996,-49.345 -62.506,-48.132C-62.537,-48.146 -62.556,-48.17 -62.589,-48.181C-70.296,-50.897 -77.836,-45.761 -80.89,-38.763C-80.983,-38.548 -81.058,-38.328 -81.145,-38.111C-81.953,-36.091 -82.471,-34.006 -82.748,-31.879C-83.579,-25.486 -82.358,-18.743 -81.145,-12.468C-81.042,-11.938 -80.94,-11.411 -80.839,-10.889C-80.838,-10.883 -80.834,-10.881 -80.833,-10.876C-81.964,-9.389 -82.515,-7.466 -82.197,-5.481L-81.421,-0.64C-80.876,2.764 -77.971,5.207 -74.645,5.302C-70.115,19.655 -58.584,24.835 -49.656,26.642C-59.199,29.88 -65.997,38.093 -65.997,47.695L-65.997,48.637L-15.272,48.637L-15.272,47.695C-15.272,38.15 -21.991,29.979 -31.444,26.701C-22.332,24.909 -11.231,19.659 -6.549,5.259C-6.329,5.28 -6.107,5.311 -5.89,5.311C-2.481,5.311 0.53,2.832 1.085,-0.64L1.861,-5.481C2.2,-7.599 1.552,-9.651 0.261,-11.172" style="fill:rgb(47,40,57);fill-rule:nonzero;"/>
        </g>
        <g transform="matrix(1,0,0,1,60.7212,247.713)">
            <path d="M0,12.353C-1.901,12.353 -3.608,11.565 -4.795,10.32C-5.841,9.222 -6.484,7.772 -6.484,6.177C-6.484,4.582 -5.841,3.131 -4.795,2.034C-3.983,1.182 -2.928,0.547 -1.733,0.231C-1.18,0.084 -0.601,-0 0,-0C0.601,-0 1.18,0.084 1.733,0.231C4.468,0.956 6.484,3.343 6.484,6.177C6.484,9.582 3.576,12.353 0,12.353M0,-1.885C-4.615,-1.885 -8.369,1.731 -8.369,6.177C-8.369,10.622 -4.615,14.238 0,14.238C4.615,14.238 8.369,10.622 8.369,6.177C8.369,1.731 4.615,-1.885 0,-1.885" style="fill:rgb(47,40,57);fill-rule:nonzero;"/>
        </g>
        <g transform="matrix(1,0,0,1,64.1763,253.75)">
            <path d="M0,0.038C-0.011,1.78 -1.556,3.195 -3.455,3.195C-5.361,3.195 -6.913,1.769 -6.913,0.018C-6.913,-1.733 -5.361,-3.158 -3.455,-3.158C-3.097,-3.158 -2.757,-3.093 -2.432,-3C-2.326,-3.313 -2.159,-3.596 -1.938,-3.833C-1.681,-4.11 -1.356,-4.319 -0.991,-4.444C-1.731,-4.814 -2.562,-5.042 -3.455,-5.042C-5.57,-5.042 -7.385,-3.863 -8.25,-2.17C-8.59,-1.505 -8.797,-0.769 -8.797,0.018C-8.797,0.806 -8.59,1.542 -8.25,2.207C-7.385,3.9 -5.57,5.08 -3.455,5.08C-0.509,5.08 1.887,2.809 1.887,0.018C1.887,-0.362 1.834,-0.731 1.75,-1.088C1.547,-0.743 1.26,-0.459 0.915,-0.259C0.64,-0.099 0.332,0.003 0,0.038" style="fill:rgb(47,40,57);fill-rule:nonzero;"/>
        </g>
        <g transform="matrix(1,0,0,1,94.9521,247.713)">
            <path d="M0,12.353C-1.568,12.353 -3.007,11.82 -4.13,10.934C-5.567,9.8 -6.484,8.089 -6.484,6.177C-6.484,4.265 -5.567,2.553 -4.13,1.419C-3.438,0.873 -2.622,0.466 -1.733,0.231C-1.18,0.084 -0.601,-0 0,-0C0.601,-0 1.181,0.084 1.733,0.231C4.469,0.956 6.484,3.343 6.484,6.177C6.484,9.582 3.576,12.353 0,12.353M0,-1.885C-4.615,-1.885 -8.369,1.731 -8.369,6.177C-8.369,10.622 -4.615,14.238 0,14.238C0.437,14.238 0.862,14.196 1.281,14.133C1.855,14.048 2.409,13.908 2.939,13.715C6.106,12.566 8.369,9.624 8.369,6.177C8.369,1.731 4.615,-1.885 0,-1.885" style="fill:rgb(47,40,57);fill-rule:nonzero;"/>
        </g>
        <g transform="matrix(1,0,0,1,98.4082,253.753)">
            <path d="M0,0.032C-0.01,1.775 -1.555,3.192 -3.456,3.192C-5.362,3.192 -6.914,1.766 -6.914,0.015C-6.914,-1.736 -5.362,-3.161 -3.456,-3.161C-3.107,-3.161 -2.777,-3.099 -2.459,-3.01C-2.352,-3.323 -2.184,-3.607 -1.962,-3.843C-1.701,-4.122 -1.373,-4.33 -1.002,-4.453C-1.74,-4.819 -2.567,-5.045 -3.456,-5.045C-5.129,-5.045 -6.605,-4.299 -7.586,-3.155C-8.332,-2.284 -8.798,-1.191 -8.798,0.015C-8.798,1.221 -8.332,2.316 -7.586,3.186C-6.605,4.33 -5.129,5.077 -3.456,5.077C-0.51,5.077 1.887,2.806 1.887,0.015C1.887,-0.378 1.828,-0.756 1.738,-1.124C1.54,-0.774 1.257,-0.483 0.913,-0.277C0.639,-0.113 0.331,-0.008 0,0.032" style="fill:rgb(47,40,57);fill-rule:nonzero;"/>
        </g>
        <g transform="matrix(1,0,0,1,55.9531,242.092)">
            <path d="M0,1.885L9.736,1.885C10.256,1.885 10.678,1.463 10.678,0.943C10.678,0.86 10.651,0.785 10.631,0.708C10.134,0.481 9.651,0.245 9.187,0L0,0C-0.52,0 -0.942,0.423 -0.942,0.943C-0.942,1.463 -0.52,1.885 0,1.885" style="fill:rgb(47,40,57);fill-rule:nonzero;"/>
        </g>
        <g transform="matrix(1,0,0,1,90.543,242.092)">
            <path d="M0,1.885L9.736,1.885C10.256,1.885 10.678,1.463 10.678,0.943C10.678,0.752 10.607,0.584 10.509,0.435C9.613,0.603 8.637,0.727 7.592,0.763C5.817,0.824 3.708,0.472 1.743,0L0,0C-0.521,0 -0.942,0.423 -0.942,0.943C-0.942,1.463 -0.521,1.885 0,1.885" style="fill:rgb(47,40,57);fill-rule:nonzero;"/>
        </g>
        <g transform="matrix(1,0,0,1,82.2686,265.599)">
            <path d="M0,-1.885L-6.564,-1.885C-7.085,-1.885 -7.507,-1.463 -7.507,-0.943C-7.507,-0.542 -7.255,-0.205 -6.903,-0.069C-6.797,-0.028 -6.685,0 -6.564,0L0,0C0.094,0 0.18,-0.029 0.265,-0.054C0.654,-0.17 0.942,-0.516 0.942,-0.943C0.942,-1.463 0.521,-1.885 0,-1.885" style="fill:rgb(47,40,57);fill-rule:nonzero;"/>
        </g>
        <g transform="matrix(1,0,0,1,81.604,275.801)">
            <path d="M0,-2.71C-0.27,-2.443 -2.715,-0.177 -5.232,-2.707C-5.599,-3.073 -6.196,-3.076 -6.565,-2.71C-6.934,-2.343 -6.935,-1.745 -6.567,-1.376C-5.416,-0.221 -4.128,0.366 -2.739,0.366C-0.429,0.366 1.262,-1.306 1.333,-1.376C1.699,-1.744 1.697,-2.337 1.331,-2.705C0.966,-3.071 0.37,-3.074 0,-2.71" style="fill:rgb(47,40,57);fill-rule:nonzero;"/>
        </g>
    </g>
</svg>
