<?xml version="1.0" encoding="UTF-8" standalone="no"?>
<!DOCTYPE svg PUBLIC "-//W3C//DTD SVG 1.1//EN" "http://www.w3.org/Graphics/SVG/1.1/DTD/svg11.dtd">
<svg width="100%" height="100%" viewBox="0 0 130 130" version="1.1" xmlns="http://www.w3.org/2000/svg" xmlns:xlink="http://www.w3.org/1999/xlink" xml:space="preserve" xmlns:serif="http://www.serif.com/" style="fill-rule:evenodd;clip-rule:evenodd;stroke-linejoin:round;stroke-miterlimit:2;">
    <g transform="matrix(1,0,0,1,-125.725,-325.324)">
        <g transform="matrix(1,0,0,1,175.095,437.124)">
            <path d="M0,-7.12C-1.357,-6.3 -2.557,-5.285 -3.57,-4.111C-3.633,-4.039 -3.695,-3.965 -3.756,-3.891C-4.743,-2.702 -5.543,-1.356 -6.114,0.121C-6.547,1.242 -8.369,0.752 -7.931,-0.38C-7.524,-1.434 -7.014,-2.425 -6.428,-3.357C-5.632,-4.625 -4.677,-5.771 -3.57,-6.78C-2.771,-7.508 -1.903,-8.173 -0.951,-8.748C0.091,-9.377 1.037,-7.747 0,-7.12M31.326,-7.737C30.676,-8.38 29.982,-8.986 29.25,-9.557C27.141,-11.2 24.709,-12.525 22.049,-13.451C21.738,-13.559 21.424,-13.662 21.107,-13.76L21.107,-12.907C21.107,-12.862 21.101,-12.818 21.1,-12.773C21.09,-12.156 21.005,-11.557 20.861,-10.98L20.974,-9.878C20.974,-9.878 20.804,-9.87 20.5,-9.867C20.456,-9.762 20.405,-9.66 20.357,-9.557C19.186,-7.044 16.751,-5.227 13.877,-4.952C13.625,-4.928 13.371,-4.913 13.113,-4.913C11.452,-4.913 9.906,-5.428 8.624,-6.304C7.435,-7.115 6.481,-8.242 5.868,-9.557C5.41,-10.54 5.145,-11.627 5.125,-12.773C5.125,-12.818 5.119,-12.862 5.119,-12.907L5.119,-13.76C4.801,-13.662 4.488,-13.559 4.176,-13.451C1.516,-12.525 -0.916,-11.2 -3.024,-9.557C-3.209,-9.413 -3.391,-9.267 -3.57,-9.118C-5.718,-7.341 -7.503,-5.226 -8.814,-2.867C-8.882,-2.932 -8.961,-2.98 -9.046,-3.02C-9.335,-2.388 -9.607,-1.747 -9.914,-1.122C-9.93,-1.088 -9.955,-1.069 -9.975,-1.042C-9.877,-1.065 -9.781,-1.076 -9.684,-1.101C-10.729,1.302 -11.307,3.91 -11.307,6.64L37.533,6.64C37.533,2.52 36.226,-1.33 33.961,-4.605C33.19,-5.721 32.306,-6.767 31.326,-7.737" style="fill:rgb(68,60,81);fill-rule:nonzero;"/>
        </g>
        <g transform="matrix(1,0,0,1,174.522,389.476)">
            <path d="M0,0.036C-0.081,0.045 -0.16,0.061 -0.244,0.061C-1.525,0.061 -2.564,-0.978 -2.564,-2.259C-2.564,-2.521 -2.512,-2.767 -2.432,-3.001C-2.326,-3.315 -2.159,-3.598 -1.939,-3.834C-2.414,-3.998 -2.92,-4.101 -3.456,-4.101C-5.886,-4.101 -7.855,-2.257 -7.855,0.017C-7.855,2.293 -5.886,4.137 -3.456,4.137C-1.025,4.137 0.944,2.293 0.944,0.017C0.944,-0.077 0.921,-0.166 0.915,-0.26C0.64,-0.101 0.331,0.001 0,0.036" style="fill:rgb(112,79,61);fill-rule:nonzero;"/>
        </g>
        <g transform="matrix(1,0,0,1,209.665,389.786)">
            <path d="M0,-0.585C-0.273,-0.422 -0.582,-0.316 -0.913,-0.277C-1.003,-0.267 -1.092,-0.249 -1.186,-0.249C-2.467,-0.249 -3.506,-1.288 -3.506,-2.569C-3.506,-2.834 -3.453,-3.083 -3.372,-3.319C-3.264,-3.632 -3.096,-3.915 -2.875,-4.151C-3.343,-4.311 -3.841,-4.411 -4.368,-4.411C-6.281,-4.411 -7.892,-3.262 -8.499,-1.666C-8.663,-1.234 -8.768,-0.777 -8.768,-0.293C-8.768,0.191 -8.663,0.649 -8.499,1.081C-7.892,2.677 -6.281,3.826 -4.368,3.826C-1.938,3.826 0.032,1.982 0.032,-0.293C0.032,-0.393 0.007,-0.486 0,-0.585" style="fill:rgb(112,79,61);fill-rule:nonzero;"/>
        </g>
        <g transform="matrix(1,0,0,1,194.564,427.681)">
            <path d="M0,-0.43C-1.321,-0.458 -3.374,-0.577 -5.591,-0.984C-7.336,-1.303 -9.178,-1.801 -10.845,-2.574C-11.571,-2.909 -12.263,-3.295 -12.898,-3.743C-13.072,-3.867 -13.243,-3.993 -13.408,-4.125C-13.549,-4.238 -13.686,-4.356 -13.819,-4.475C-13.912,-4.558 -13.999,-4.644 -14.087,-4.729C-14.167,-4.806 -14.247,-4.88 -14.323,-4.96C-14.327,-4.899 -14.33,-4.836 -14.333,-4.775C-14.337,-4.66 -14.35,-4.548 -14.35,-4.432L-14.35,-3.464C-14.35,-3.419 -14.344,-3.375 -14.343,-3.33C-14.324,-2.184 -14.059,-1.097 -13.601,-0.114C-12.988,1.201 -12.034,2.328 -10.845,3.139C-9.563,4.015 -8.017,4.53 -6.356,4.53C-6.098,4.53 -5.843,4.515 -5.591,4.491C-2.717,4.216 -0.283,2.399 0.889,-0.114C0.937,-0.217 0.987,-0.319 1.031,-0.424C0.777,-0.421 0.425,-0.421 0,-0.43" style="fill:rgb(226,179,132);fill-rule:nonzero;"/>
        </g>
        <g transform="matrix(1,0,0,1,162.922,400.495)">
            <path d="M0,-1.709L0.125,-1.709C1.339,-1.709 1.337,0.176 0.125,0.176L0,0.176C-1.215,0.176 -1.213,-1.709 0,-1.709M3.62,1.798C2.405,1.798 2.407,-0.086 3.62,-0.086C4.834,-0.086 4.832,1.798 3.62,1.798M3.869,-1.197C2.654,-1.197 2.656,-3.082 3.869,-3.082C5.084,-3.082 5.082,-1.197 3.869,-1.197M6.74,-0.074C5.525,-0.074 5.527,-1.959 6.74,-1.959C7.955,-1.959 7.953,-0.074 6.74,-0.074M3.349,-16.312C3.577,-16.497 3.815,-16.669 4.065,-16.827C5.237,-17.566 6.637,-17.999 8.144,-17.999C9.651,-17.999 11.052,-17.566 12.223,-16.827C14.238,-15.554 15.571,-13.367 15.571,-10.881C15.571,-6.949 12.246,-3.762 8.144,-3.762C6.315,-3.762 4.643,-4.398 3.349,-5.449C1.741,-6.755 0.718,-8.702 0.718,-10.881C0.718,-13.059 1.741,-15.006 3.349,-16.312M26.409,-11.002L29.692,-1.777L23.127,-1.515C23.04,-1.865 26.409,-11.002 26.409,-11.002M23.817,13.794C23.635,13.578 23.657,13.204 23.918,13.064C24.034,12.854 24.293,12.707 24.571,12.837C25.799,13.409 27.505,13.56 28.648,12.731C28.994,12.481 29.321,12.81 29.322,13.149C29.323,13.188 29.317,13.229 29.307,13.27C29.295,13.313 29.286,13.356 29.262,13.396C29.261,13.398 29.261,13.399 29.26,13.401C29.013,13.81 28.709,14.121 28.383,14.382C28.199,14.53 28.008,14.655 27.807,14.756C27.771,14.839 27.711,14.912 27.614,14.958C27.535,14.995 27.455,15.018 27.375,15.048C26.842,15.245 26.307,15.276 25.744,15.078C25.578,15.02 25.423,14.943 25.274,14.858C25.205,14.83 25.137,14.804 25.069,14.77C24.67,14.578 24.295,14.293 23.957,13.928C23.912,13.879 23.861,13.846 23.817,13.794M23.241,0.621C23.15,0.343 23.127,0.147 23.127,0.147L29.692,-0.114C29.692,-0.114 29.659,0.203 29.506,0.621C29.481,0.688 29.454,0.757 29.423,0.828C29.068,1.642 28.255,2.687 26.409,2.687C24.414,2.687 23.625,1.58 23.318,0.828C23.289,0.755 23.263,0.687 23.241,0.621M46.454,-16.827C48.47,-15.554 49.802,-13.367 49.802,-10.881C49.802,-6.949 46.477,-3.762 42.375,-3.762C40.847,-3.762 39.426,-4.205 38.245,-4.965C36.258,-6.242 34.949,-8.414 34.949,-10.881C34.949,-13.347 36.258,-15.519 38.245,-16.797C38.262,-16.808 38.28,-16.816 38.297,-16.827C39.468,-17.566 40.868,-17.999 42.375,-17.999C43.882,-17.999 45.283,-17.566 46.454,-16.827M48.53,-0.078C48.447,-0.036 48.364,0.006 48.28,0.047C47.198,0.589 46.244,-1.038 47.329,-1.58C47.413,-1.622 47.496,-1.663 47.579,-1.705C48.662,-2.246 49.615,-0.62 48.53,-0.078M40.69,0.176L40.565,0.176C39.351,0.176 39.353,-1.709 40.565,-1.709L40.69,-1.709C41.905,-1.709 41.903,0.176 40.69,0.176M45.351,-3.306C46.21,-2.446 44.877,-1.114 44.018,-1.973C43.977,-2.015 43.935,-2.056 43.894,-2.098C43.635,-2.355 43.59,-2.652 43.656,-2.924C43.808,-3.556 44.625,-4.031 45.226,-3.43L45.314,-3.342C45.326,-3.33 45.338,-3.317 45.351,-3.306M46.5,1.23L46.5,1.355C46.5,2.57 44.616,2.568 44.616,1.355L44.616,1.23C44.616,0.016 46.5,0.018 46.5,1.23M60.024,-4.243C60.077,-4.584 60.126,-4.928 60.173,-5.276C59.796,-5.57 59.446,-5.913 59.112,-6.278C57.591,-7.942 56.5,-10.232 55.774,-12.207C55.748,-12.277 55.718,-12.352 55.693,-12.421C55.535,-12.862 55.401,-13.274 55.278,-13.667C55.133,-14.135 55.009,-14.561 54.912,-14.925C54.698,-15.727 54.594,-16.238 54.594,-16.238C54.594,-16.238 53.586,-12.97 49.802,-14.605C49.796,-14.608 49.792,-14.611 49.786,-14.613C47.993,-15.395 46.83,-16.813 46.098,-18.09C45.291,-19.498 45.008,-20.73 45.008,-20.73C45.008,-20.73 45.003,-20.731 44.721,-20.793C44.302,-20.885 43.268,-21.11 40.69,-21.672C39.701,-21.888 38.901,-22.242 38.245,-22.656C38.233,-22.664 38.221,-22.671 38.209,-22.678C36.03,-24.071 35.525,-26.146 35.525,-26.146C35.525,-26.146 33.104,-21.732 28.853,-22.57C24.602,-23.408 22.796,-27.357 22.796,-27.357C22.796,-27.357 22.147,-25.342 20.797,-23.449C19.699,-21.909 18.138,-20.449 16.074,-20.221C14.888,-20.09 13.809,-20.346 12.854,-20.793C11.827,-21.275 10.953,-21.98 10.256,-22.678C9.089,-23.847 8.424,-24.986 8.424,-24.986C8.424,-24.986 8.045,-23.915 7.214,-22.678C6.794,-22.053 6.257,-21.388 5.592,-20.793C5.369,-20.594 5.135,-20.399 4.883,-20.221C4.391,-19.873 3.869,-19.626 3.349,-19.45C1.236,-18.735 -0.856,-19.225 -0.856,-19.225C-0.856,-19.225 -1.194,-16.112 -2.521,-13.022C-2.55,-12.955 -2.577,-12.887 -2.606,-12.819C-2.754,-12.486 -2.967,-12.137 -3.211,-11.78C-3.442,-11.443 -3.707,-11.101 -4.001,-10.755C-5.281,-9.25 -7.043,-7.719 -8.393,-6.631C-8.742,-6.35 -9.067,-6.093 -9.344,-5.88C-9.282,-5.344 -9.206,-4.825 -9.13,-4.307C-9.074,-4.197 -9.056,-4.077 -9.081,-3.966C-8.923,-2.946 -8.739,-1.963 -8.526,-1.016C-8.454,-0.694 -8.376,-0.381 -8.298,-0.067C-8.221,0.239 -8.146,0.549 -8.064,0.848C-4.409,14.103 4.904,19.811 16.438,21.565C16.747,21.612 17.059,21.654 17.371,21.695C17.363,21.756 17.35,21.814 17.343,21.876C17.333,21.969 17.329,22.064 17.322,22.158C17.409,22.074 17.748,22.004 18.285,21.946C18.49,21.924 18.728,21.903 18.984,21.885C19.584,21.945 20.188,21.996 20.797,22.038C20.814,22.04 20.831,22.041 20.848,22.042C22.361,22.145 23.899,22.2 25.462,22.2C25.66,22.2 25.854,22.193 26.051,22.192C27.312,22.182 28.558,22.135 29.786,22.052C30.623,21.995 31.452,21.924 32.271,21.831C32.394,21.817 32.517,21.804 32.64,21.789L32.722,22.588L32.734,22.706L32.837,23.723L33.034,25.648C33.179,25.071 33.263,24.473 33.273,23.855C33.274,23.811 33.28,23.767 33.28,23.722L33.28,22.754C33.28,22.667 33.27,22.582 33.267,22.495C33.26,22.287 33.252,22.079 33.229,21.876C33.223,21.82 33.211,21.768 33.204,21.712C33.516,21.671 33.829,21.633 34.137,21.586C45.786,19.814 55.217,13.945 58.941,0.798C59.026,0.496 59.107,0.188 59.187,-0.121C59.266,-0.428 59.341,-0.738 59.414,-1.054C59.584,-1.79 59.74,-2.545 59.877,-3.324C59.868,-3.327 59.86,-3.327 59.851,-3.33C59.292,-3.479 59.497,-4.3 60.024,-4.243" style="fill:rgb(226,179,132);fill-rule:nonzero;"/>
        </g>
        <g transform="matrix(1,0,0,1,175.466,389.736)">
            <path d="M0,-0.243C0,2.032 -1.97,3.876 -4.4,3.876C-6.83,3.876 -8.8,2.032 -8.8,-0.243C-8.8,-2.517 -6.83,-4.361 -4.4,-4.361C-3.864,-4.361 -3.358,-4.259 -2.883,-4.095C-3.104,-3.858 -3.271,-3.575 -3.376,-3.262C-3.456,-3.027 -3.509,-2.781 -3.509,-2.519C-3.509,-1.238 -2.47,-0.199 -1.188,-0.199C-1.104,-0.199 -1.025,-0.216 -0.944,-0.224C-0.613,-0.26 -0.305,-0.361 -0.03,-0.52C-0.023,-0.427 0,-0.338 0,-0.243M-0.321,-6.068C-1.492,-6.807 -2.893,-7.24 -4.4,-7.24C-5.907,-7.24 -7.307,-6.807 -8.479,-6.068C-8.729,-5.91 -8.967,-5.738 -9.195,-5.553C-10.803,-4.247 -11.826,-2.3 -11.826,-0.122C-11.826,2.057 -10.803,4.004 -9.195,5.31C-7.901,6.361 -6.229,6.997 -4.4,6.997C-0.298,6.997 3.027,3.81 3.027,-0.122C3.027,-2.608 1.694,-4.795 -0.321,-6.068" style="fill:rgb(253,250,201);fill-rule:nonzero;"/>
        </g>
        <g transform="matrix(1,0,0,1,209.697,389.736)">
            <path d="M0,-0.243C0,2.032 -1.97,3.876 -4.4,3.876C-6.313,3.876 -7.924,2.727 -8.53,1.131C-8.694,0.699 -8.8,0.241 -8.8,-0.243C-8.8,-0.727 -8.694,-1.184 -8.53,-1.616C-7.924,-3.212 -6.313,-4.361 -4.4,-4.361C-3.873,-4.361 -3.375,-4.261 -2.907,-4.101C-3.128,-3.865 -3.296,-3.582 -3.403,-3.269C-3.484,-3.033 -3.538,-2.784 -3.538,-2.519C-3.538,-1.238 -2.499,-0.199 -1.217,-0.199C-1.124,-0.199 -1.035,-0.217 -0.944,-0.227C-0.613,-0.266 -0.305,-0.372 -0.032,-0.535C-0.024,-0.436 0,-0.343 0,-0.243M-0.322,-6.068C-1.493,-6.807 -2.893,-7.24 -4.4,-7.24C-5.907,-7.24 -7.308,-6.807 -8.479,-6.068C-8.496,-6.057 -8.514,-6.049 -8.53,-6.038C-10.518,-4.76 -11.827,-2.588 -11.827,-0.122C-11.827,2.345 -10.518,4.517 -8.53,5.794C-7.349,6.554 -5.929,6.997 -4.4,6.997C-0.298,6.997 3.026,3.81 3.026,-0.122C3.026,-2.608 1.694,-4.795 -0.322,-6.068" style="fill:rgb(253,250,201);fill-rule:nonzero;"/>
        </g>
        <g transform="matrix(1,0,0,1,186.049,389.493)">
            <path d="M0,9.487L6.565,9.224L3.282,0C3.282,0 -0.087,9.136 0,9.487" style="fill:rgb(253,250,201);fill-rule:nonzero;"/>
        </g>
        <g transform="matrix(1,0,0,1,174.144,437.737)">
            <path d="M0,-9.361C-0.952,-8.786 -1.82,-8.121 -2.619,-7.393C-3.726,-6.384 -4.681,-5.238 -5.477,-3.97C-6.063,-3.038 -6.573,-2.048 -6.98,-0.993C-7.417,0.139 -5.596,0.629 -5.163,-0.492C-4.592,-1.969 -3.792,-3.315 -2.805,-4.505C-2.744,-4.578 -2.682,-4.652 -2.619,-4.724C-1.606,-5.898 -0.406,-6.913 0.951,-7.733C1.988,-8.36 1.042,-9.99 0,-9.361" style="fill:rgb(91,82,109);fill-rule:nonzero;"/>
        </g>
        <g transform="matrix(1,0,0,1,209.019,385.882)">
            <path d="M0,-3.477C0.732,-2.201 1.896,-0.782 3.688,0C2.87,-1.501 1.576,-2.719 0,-3.477" style="fill:rgb(18,17,20);fill-rule:nonzero;"/>
        </g>
        <g transform="matrix(1,0,0,1,211.558,378.72)">
            <path d="M0,0.08C-0.333,-0.213 -0.656,-0.548 -0.967,-0.902L-10.391,-0.902L-10.391,-0.881C-9.734,-0.467 -8.935,-0.112 -7.945,0.103C-5.368,0.665 -4.334,0.891 -3.915,0.982L-0.935,0.982C-0.428,0.982 -0.022,0.581 0,0.08" style="fill:rgb(18,17,20);fill-rule:nonzero;"/>
        </g>
        <g transform="matrix(1,0,0,1,166.27,379.697)">
            <path d="M0,-1.875C-0.507,-1.859 -0.915,-1.449 -0.915,-0.938C-0.915,-0.427 -0.507,-0.017 0,-0.001C0.01,-0.001 0.018,0.005 0.027,0.005L2.244,0.005C2.908,-0.59 3.445,-1.255 3.866,-1.88L0.027,-1.88C0.018,-1.88 0.01,-1.875 0,-1.875" style="fill:rgb(18,17,20);fill-rule:nonzero;"/>
        </g>
        <g transform="matrix(1,0,0,1,176.034,379.702)">
            <path d="M0,-1.885L-2.855,-1.885C-2.159,-1.188 -1.285,-0.483 -0.257,0L0,0C0.521,0 0.942,-0.422 0.942,-0.943C0.942,-1.464 0.521,-1.885 0,-1.885" style="fill:rgb(18,17,20);fill-rule:nonzero;"/>
        </g>
        <g transform="matrix(1,0,0,1,241.567,354.752)">
            <path d="M0,62.767C-0.014,60.471 -0.728,58.411 -2.086,56.567C-2.807,55.588 -1.171,54.649 -0.459,55.616C1.083,57.71 1.87,60.169 1.885,62.767C1.892,63.982 0.007,63.979 0,62.767M-4.243,68.042C-5.35,71.315 -8.471,73.125 -11.829,72.491C-11.854,72.493 -11.873,72.505 -11.899,72.505C-12.271,72.505 -12.514,72.321 -12.659,72.076C-12.691,72.027 -12.722,71.98 -12.743,71.926C-12.752,71.903 -12.755,71.878 -12.762,71.854C-12.787,71.77 -12.805,71.686 -12.804,71.596C-12.806,71.533 -12.793,71.472 -12.785,71.41C-12.777,71.372 -12.777,71.335 -12.766,71.298C-12.717,71.107 -12.61,70.942 -12.453,70.818C-12.411,70.781 -12.369,70.747 -12.32,70.718C-12.302,70.709 -12.283,70.703 -12.263,70.695C-12.086,70.605 -11.881,70.558 -11.638,70.615C-9.193,71.186 -6.866,69.925 -6.06,67.541C-5.673,66.397 -3.853,66.891 -4.243,68.042M-10.963,36.457C-11.118,36.501 -11.288,36.515 -11.487,36.443C-11.623,36.394 -11.755,36.336 -11.889,36.284C-12.192,36.164 -12.489,36.037 -12.782,35.9C-13.421,35.601 -14.037,35.262 -14.618,34.881C-14.729,34.808 -14.839,34.732 -14.949,34.656C-15.451,34.305 -15.923,33.923 -16.364,33.513C-16.602,33.291 -16.828,33.06 -17.045,32.822C-17.133,32.725 -17.221,32.628 -17.305,32.529C-17.552,32.238 -17.786,31.936 -18,31.622C-18.375,31.074 -18.691,30.488 -18.952,29.871C-18.978,29.811 -19.003,29.749 -19.028,29.688C-19.128,29.436 -19.218,29.178 -19.299,28.915C-19.312,28.871 -19.327,28.827 -19.34,28.781C-19.427,28.48 -19.5,28.173 -19.558,27.859C-19.687,27.167 -19.751,26.449 -19.728,25.697C-19.713,25.257 -19.455,24.982 -19.135,24.861C-18.86,24.757 -18.55,24.779 -18.296,24.91C-18.03,25.047 -17.83,25.3 -17.843,25.697C-17.865,26.381 -17.798,27.034 -17.668,27.658C-17.601,27.983 -17.519,28.301 -17.414,28.61C-17.379,28.713 -17.34,28.815 -17.301,28.915C-17.231,29.098 -17.159,29.279 -17.076,29.454C-17.052,29.505 -17.023,29.554 -16.998,29.605C-16.84,29.923 -16.663,30.231 -16.467,30.526C-16.035,31.176 -15.518,31.772 -14.929,32.303C-14.293,32.876 -13.576,33.373 -12.805,33.798C-12.79,33.806 -12.774,33.815 -12.759,33.823C-12.426,34.004 -12.086,34.175 -11.734,34.328C-11.489,34.434 -11.239,34.534 -10.986,34.625C-10.904,34.656 -10.848,34.706 -10.783,34.749C-10.104,35.199 -10.296,36.265 -10.963,36.457M-86.973,28.673C-86.988,28.754 -87.005,28.835 -87.022,28.915C-87.071,29.146 -87.115,29.377 -87.178,29.602C-87.246,29.846 -87.332,30.083 -87.416,30.321C-87.667,31.026 -87.988,31.698 -88.375,32.333C-88.381,32.345 -88.389,32.356 -88.396,32.367C-88.428,32.419 -88.461,32.472 -88.494,32.525C-88.5,32.533 -88.505,32.541 -88.51,32.55C-88.672,32.802 -88.84,33.049 -89.023,33.288C-89.025,33.291 -89.028,33.294 -89.03,33.297C-89.117,33.411 -89.208,33.521 -89.3,33.631C-89.711,34.127 -90.156,34.599 -90.657,35.026C-90.949,35.276 -91.257,35.512 -91.578,35.736C-91.609,35.757 -91.635,35.783 -91.666,35.803C-92.084,36.089 -92.483,35.963 -92.744,35.681C-92.986,35.419 -93.094,35.03 -92.978,34.671C-92.935,34.538 -92.857,34.417 -92.744,34.306C-92.701,34.263 -92.672,34.213 -92.617,34.176C-92.248,33.924 -91.91,33.642 -91.587,33.347C-90.574,32.418 -89.795,31.295 -89.297,30.041C-89.254,29.934 -89.223,29.821 -89.184,29.71C-89.091,29.45 -89.002,29.187 -88.933,28.915C-88.912,28.833 -88.902,28.748 -88.883,28.665C-88.812,28.348 -88.754,28.028 -88.716,27.701C-88.681,27.404 -88.651,27.106 -88.645,26.802C-88.636,26.395 -88.411,26.136 -88.125,26.002C-87.855,25.876 -87.537,25.871 -87.269,25.989C-87.146,26.043 -87.043,26.126 -86.958,26.233C-86.839,26.378 -86.754,26.559 -86.76,26.802C-86.767,27.12 -86.803,27.428 -86.835,27.739C-86.868,28.054 -86.915,28.366 -86.973,28.673M-97.846,70.881C-99.7,71.715 -101.942,71.467 -103.376,69.931C-104.791,68.417 -104.928,66.115 -103.939,64.348C-103.346,63.288 -101.719,64.24 -102.312,65.299C-103.607,67.615 -101.306,70.382 -98.797,69.253C-97.699,68.759 -96.742,70.384 -97.846,70.881M-94.169,4.183C-92.924,1.577 -90.123,0.75 -87.509,0.191C-86.806,0.04 -86.355,0.619 -86.343,1.167C-86.334,1.543 -86.526,1.905 -87.008,2.008C-87.177,2.044 -87.348,2.082 -87.518,2.12C-89.513,2.559 -91.592,3.146 -92.542,5.134C-93.064,6.229 -94.689,5.272 -94.169,4.183M-53.872,-9.635C-52.323,-12.231 -49.459,-12.952 -46.664,-13.421C-45.476,-13.621 -44.969,-11.804 -46.163,-11.604C-48.415,-11.226 -50.972,-10.817 -52.245,-8.684C-52.866,-7.643 -54.495,-8.591 -53.872,-9.635M-43.625,-12.305L-43.468,-12.305C-42.253,-12.305 -42.255,-10.421 -43.468,-10.421L-43.625,-10.421C-44.839,-10.421 -44.837,-12.305 -43.625,-12.305M-29.96,-9.913C-27.01,-9.917 -24.349,-8.414 -22.811,-5.901C-22.175,-4.863 -23.806,-3.918 -24.438,-4.95C-25.634,-6.903 -27.673,-8.031 -29.96,-8.028C-31.174,-8.027 -31.172,-9.912 -29.96,-9.913M-74.22,0.889C-73.988,1.296 -74.089,1.969 -74.558,2.178C-75.748,2.709 -76.732,3.515 -77.432,4.62C-78.08,5.642 -79.71,4.696 -79.059,3.668C-78.97,3.527 -78.861,3.402 -78.764,3.266C-77.927,2.097 -76.832,1.142 -75.509,0.551C-75.157,0.394 -74.754,0.396 -74.46,0.617C-74.368,0.686 -74.285,0.774 -74.22,0.889M-14.026,10.859C-13.687,12.029 -15.506,12.523 -15.843,11.361C-15.883,11.224 -15.952,11.108 -16.001,10.979C-16.462,9.788 -17.338,8.878 -18.522,8.35C-19.629,7.856 -18.669,6.232 -17.571,6.722C-16.314,7.284 -15.304,8.246 -14.638,9.421C-14.382,9.872 -14.172,10.354 -14.026,10.859M-94.857,74.504C-94.528,74.174 -93.84,74.104 -93.525,74.504C-93.174,74.95 -92.756,75.321 -92.219,75.524C-91.741,75.705 -91.416,76.154 -91.561,76.683C-91.687,77.141 -92.244,77.522 -92.72,77.341C-93.557,77.025 -94.299,76.545 -94.857,75.837C-95.173,75.436 -95.252,74.9 -94.857,74.504M3.098,54.779C2.464,53.771 1.676,52.873 0.73,52.151C0.424,51.917 0.125,51.502 0.297,51.087C2.447,45.88 1.564,38.673 -3.126,35.067C-3.655,34.661 -3.587,33.983 -3.267,33.581C-3.291,33.47 -3.304,33.353 -3.286,33.225C-3.193,32.584 -3.137,31.941 -3.1,31.297C-2.733,24.931 -5.088,18.55 -10.036,14.399C-10.041,14.395 -10.043,14.391 -10.048,14.387C-10.412,14.447 -10.696,14.51 -10.696,14.51C-10.696,14.51 -10.701,14.157 -10.731,13.57C-10.934,13.124 -10.895,12.649 -10.961,11.841C-11.075,10.479 -11.374,9.119 -11.82,7.816C-12.009,7.266 -12.217,6.723 -12.46,6.199C-13.377,4.223 -14.688,2.415 -16.364,1.062C-17.308,0.299 -18.365,-0.324 -19.54,-0.742C-20.069,-0.93 -20.234,-1.423 -20.155,-1.858C-20.293,-2.052 -20.367,-2.299 -20.317,-2.588C-19.601,-6.757 -24.394,-10.864 -27.698,-12.674C-30.962,-14.462 -36.604,-14.546 -39.726,-12.335C-39.766,-12.306 -39.805,-12.303 -39.845,-12.282C-40.321,-12.032 -40.761,-12.278 -40.966,-12.687C-41.166,-12.79 -41.329,-12.975 -41.398,-13.263C-41.648,-14.301 -42.159,-15.087 -42.829,-15.665C-44.753,-17.323 -48.02,-17.238 -50.429,-16.232C-50.823,-16.067 -51.196,-15.875 -51.557,-15.665C-53.797,-14.366 -55.407,-12.258 -56.518,-9.913C-56.665,-9.602 -56.901,-9.469 -57.151,-9.445C-57.561,-9.087 -58.224,-9.026 -58.543,-9.644C-59.568,-11.625 -61.313,-12.807 -63.326,-13.482C-63.864,-13.663 -64.417,-13.814 -64.986,-13.926C-65.752,-14.076 -66.635,-14.171 -67.526,-14.165C-67.741,-14.15 -67.94,-14.148 -68.165,-14.127C-68.622,-14.084 -69.039,-14.028 -69.434,-13.966C-71.254,-13.571 -72.741,-12.522 -72.806,-10.318C-72.505,-9.685 -73.005,-8.72 -73.884,-8.964C-73.907,-8.971 -73.932,-8.974 -73.955,-8.98C-73.848,-8.777 -73.762,-8.658 -73.762,-8.658C-73.762,-8.658 -74.2,-8.912 -74.923,-9.18C-79.316,-9.862 -85.286,-7.766 -84.727,-2.453C-84.659,-1.804 -85.38,-1.43 -85.919,-1.545C-86.223,-1.608 -86.515,-1.637 -86.808,-1.67C-92.372,-2.279 -95.954,2.722 -96.819,7.816C-96.918,8.396 -96.992,8.977 -97.019,9.55C-97.041,10.022 -97.342,10.304 -97.697,10.409C-97.718,10.765 -97.916,11.113 -98.34,11.261C-102.235,12.628 -103.84,16.596 -103.493,20.423C-103.317,21.407 -103.092,22.376 -102.851,23.273C-102.336,24.658 -101.549,25.922 -100.488,26.897C-100.041,27.307 -100.169,28.085 -100.679,28.376C-101.957,29.108 -102.97,30.124 -103.747,31.297C-105.708,34.259 -106.067,38.271 -104.809,41.632C-104.761,41.767 -104.712,41.896 -104.664,42.028C-104.014,43.58 -103.01,44.973 -101.645,46.024C-101.264,46.317 -101.196,46.751 -101.303,47.124C-100.921,47.449 -100.757,48.026 -101.222,48.473C-102.812,50 -104.912,52.371 -105.346,54.779C-105.576,56.058 -105.345,57.347 -104.297,58.525C-103.857,59.02 -103.989,59.627 -104.488,60.005C-104.506,60.019 -104.521,60.036 -104.539,60.049C-104.218,60.22 -103.985,60.285 -103.985,60.285C-103.985,60.285 -104.759,60.601 -105.598,61.244C-108.298,65.547 -105.684,74.964 -100.379,75.156C-99.855,75.175 -99.572,75.54 -99.5,75.943C-98.571,76.856 -97.378,77.653 -96.049,78.26C-93.106,79.605 -89.531,80.004 -86.808,78.608C-86.601,78.501 -86.399,78.387 -86.204,78.26C-85.898,78.062 -85.603,77.844 -85.326,77.593C-84.833,77.144 -84.219,77.352 -83.905,77.76C-83.889,77.772 -83.872,77.774 -83.855,77.787C-83.643,77.959 -83.423,78.11 -83.203,78.26C-81.136,79.667 -78.718,80.09 -76.27,79.357C-76.221,79.342 -76.173,79.335 -76.125,79.32C-75.769,79.206 -75.488,79.311 -75.286,79.504C-73.975,77.145 -72.189,75.031 -70.042,73.253C-69.863,73.104 -69.681,72.958 -69.496,72.815C-67.387,71.171 -64.956,69.846 -62.295,68.92C-61.984,68.812 -61.67,68.709 -61.353,68.612L-61.353,68.496C-61.353,68.38 -61.34,68.268 -61.335,68.154C-61.333,68.092 -61.33,68.03 -61.326,67.968C-61.335,67.959 -61.344,67.952 -61.353,67.943C-61.353,67.928 -61.336,67.914 -61.323,67.901C-61.316,67.807 -61.312,67.711 -61.302,67.619C-61.295,67.557 -61.282,67.498 -61.274,67.438C-61.586,67.397 -61.898,67.355 -62.207,67.308C-73.741,65.553 -83.054,59.845 -86.709,46.59C-86.792,46.291 -86.866,45.982 -86.943,45.675C-87.181,45.684 -87.417,45.677 -87.651,45.658C-89.304,45.524 -90.813,44.72 -91.855,43.482C-92.073,43.71 -92.292,43.937 -92.522,44.154C-93.502,45.083 -94.584,45.912 -95.759,46.625C-96.318,46.964 -96.837,46.648 -97.05,46.189C-97.234,45.791 -97.19,45.289 -96.71,44.997C-95.552,44.294 -94.508,43.467 -93.571,42.538C-93.329,42.298 -93.091,42.053 -92.864,41.798C-92.823,41.752 -92.785,41.705 -92.744,41.658C-92.537,41.421 -92.333,41.181 -92.139,40.932C-91.775,40.466 -91.44,39.974 -91.124,39.468C-90.859,39.044 -90.608,38.609 -90.376,38.159C-90.342,38.092 -90.304,38.029 -90.271,37.962C-90.11,37.639 -89.853,37.513 -89.586,37.499C-89.548,37.465 -89.526,37.423 -89.48,37.392C-89.361,37.312 -89.251,37.224 -89.135,37.14C-89.057,37.084 -88.979,37.028 -88.902,36.97C-88.685,36.806 -88.474,36.634 -88.269,36.458C-87.953,36.187 -87.65,35.904 -87.364,35.606C-87.171,35.406 -86.987,35.2 -86.808,34.989C-85.866,33.88 -85.102,32.633 -84.518,31.297C-84.471,31.19 -84.429,31.08 -84.384,30.972C-84.255,30.66 -84.136,30.342 -84.025,30.022C-83.916,29.702 -83.814,29.379 -83.723,29.052C-83.222,27.27 -82.991,25.403 -83.014,23.563C-83.425,22.891 -82.946,21.805 -82.04,22.151C-79.366,23.17 -77.122,22.144 -75.296,20.416C-74.128,19.312 -73.134,17.922 -72.308,16.59C-72.096,16.249 -71.892,15.912 -71.703,15.584C-71.509,15.249 -71.212,15.134 -70.917,15.144C-70.585,14.795 -70.053,14.681 -69.663,15.16C-69.223,15.702 -68.714,16.179 -68.16,16.59C-66.739,17.646 -65.015,18.246 -63.326,18.322C-61.503,18.403 -59.727,17.866 -58.42,16.59C-58.216,16.391 -58.028,16.167 -57.848,15.932C-57.394,15.335 -57.016,14.634 -56.757,13.795C-56.51,12.993 -55.572,12.996 -55.132,13.455C-54.903,13.441 -54.664,13.523 -54.456,13.746C-51.582,16.84 -47.449,17.456 -43.978,14.955C-43.703,14.758 -43.437,14.753 -43.209,14.848C-42.955,14.803 -42.684,14.866 -42.454,15.127C-41.927,15.725 -41.338,16.215 -40.709,16.59C-40.607,16.652 -40.503,16.705 -40.4,16.76C-40.218,16.856 -40.033,16.943 -39.845,17.019C-38.192,17.693 -36.347,17.606 -34.639,16.59C-34.521,16.521 -34.403,16.454 -34.288,16.374C-34.253,16.351 -34.22,16.351 -34.186,16.332C-33.774,16.034 -33.165,16.013 -32.849,16.585C-32.848,16.586 -32.847,16.589 -32.846,16.59C-31.218,19.544 -28.224,25.356 -23.956,23.417C-23.575,23.245 -23.218,23.335 -22.952,23.538C-22.862,23.605 -22.787,23.685 -22.722,23.775C-22.358,23.771 -22.025,23.966 -21.959,24.447C-21.771,25.834 -21.618,27.236 -21.398,28.609C-21.344,28.949 -21.287,29.288 -21.223,29.623C-21.158,29.962 -21.085,30.298 -21.007,30.631C-20.955,30.855 -20.902,31.078 -20.842,31.297C-20.457,32.73 -19.904,34.092 -19.062,35.335C-18.776,35.756 -18.463,36.165 -18.105,36.557C-17.917,36.763 -17.715,36.963 -17.503,37.161C-17.451,37.179 -17.404,37.207 -17.355,37.236C-17.176,37.341 -17.021,37.497 -16.939,37.744C-16.791,38.191 -16.592,38.603 -16.364,38.992C-16.297,39.105 -16.215,39.205 -16.143,39.312C-16.036,39.472 -15.934,39.637 -15.815,39.787C-15.697,39.935 -15.567,40.072 -15.438,40.21C-14.967,40.716 -14.44,41.172 -13.854,41.558C-13.588,41.733 -13.308,41.889 -13.026,42.04C-12.749,42.19 -12.465,42.324 -12.176,42.453C-11.239,42.869 -10.256,43.193 -9.289,43.417C-8.378,43.629 -8.473,44.747 -9.102,45.128C-9.29,45.242 -9.519,45.297 -9.79,45.235C-10.952,44.964 -12.106,44.579 -13.189,44.067C-13.482,43.929 -13.77,43.783 -14.051,43.625C-15.271,44.988 -17.074,45.788 -18.987,45.672C-19.144,45.663 -19.301,45.643 -19.458,45.621C-19.538,45.931 -19.619,46.239 -19.704,46.54C-23.428,59.688 -32.859,65.557 -44.508,67.329C-44.816,67.375 -45.129,67.413 -45.441,67.454C-45.434,67.51 -45.422,67.563 -45.416,67.619C-45.393,67.822 -45.385,68.03 -45.378,68.238C-45.375,68.325 -45.365,68.41 -45.365,68.496L-45.365,68.612C-45.047,68.709 -44.733,68.812 -44.422,68.92C-41.762,69.846 -39.331,71.171 -37.221,72.815C-36.49,73.385 -35.796,73.992 -35.146,74.634C-34.166,75.604 -33.282,76.651 -32.511,77.766C-32.163,77.702 -31.837,77.634 -31.527,77.563C-31.428,77.54 -31.331,77.517 -31.236,77.494C-31.164,77.45 -31.099,77.4 -31.006,77.372C-30.114,77.11 -29.3,76.68 -28.596,76.068C-28.095,75.633 -27.479,75.844 -27.165,76.247C-27.117,76.263 -27.071,76.262 -27.022,76.286C-24.379,77.598 -21.367,77.581 -18.789,76.093C-17.949,75.609 -17.228,74.761 -16.364,74.379C-15.94,74.193 -15.485,74.109 -14.958,74.251C-13.971,74.52 -13.126,75.197 -12.098,75.438C-10.971,75.702 -9.82,75.736 -8.68,75.558C-6.162,75.166 -4.099,73.776 -2.45,71.879C-2.056,71.426 -1.535,71.525 -1.202,71.849C5.3,69.361 6.6,60.346 3.098,54.779" style="fill:rgb(135,71,43);fill-rule:nonzero;"/>
        </g>
        <g transform="matrix(1,0,0,1,193.083,403.117)">
            <path d="M0,-2.692L0.05,-3.228L-7.555,-2.924L-7.503,-2.425C-7.486,-2.258 -7.437,-2.064 -7.373,-1.862C-7.041,-0.819 -6.034,0.536 -3.751,0.536C-1.619,0.536 -0.602,-0.751 -0.205,-1.847C-0.094,-2.154 -0.023,-2.448 0,-2.692" style="fill:rgb(188,98,86);fill-rule:nonzero;"/>
        </g>
        <g transform="matrix(1,0,0,1,226.697,399.41)">
            <path d="M0,-1.535C-0.513,-1.875 -1,-2.249 -1.445,-2.665C-1.461,-2.648 -1.477,-2.631 -1.494,-2.615C-1.911,-2.218 -2.487,-2.017 -3.322,-2.127C-3.502,-2.15 -3.692,-2.185 -3.898,-2.239C-4.035,-1.46 -4.19,-0.705 -4.361,0.031C-4.434,0.347 -4.509,0.657 -4.588,0.964C-4.431,0.986 -4.273,1.006 -4.117,1.015C-2.204,1.13 -0.401,0.33 0.819,-1.032C0.538,-1.189 0.266,-1.358 0,-1.535" style="fill:rgb(188,98,86);fill-rule:nonzero;"/>
        </g>
        <g transform="matrix(1,0,0,1,195.759,425.326)">
            <path d="M0,-1.108L-0.104,-2.125L-0.116,-2.243L-0.197,-3.042C-0.32,-3.027 -0.444,-3.013 -0.567,-3C-1.385,-2.907 -2.215,-2.836 -3.051,-2.779C-4.28,-2.696 -5.525,-2.649 -6.787,-2.638C-6.983,-2.637 -7.178,-2.63 -7.375,-2.63C-8.938,-2.63 -10.476,-2.685 -11.989,-2.789C-12.006,-2.79 -12.023,-2.791 -12.041,-2.793C-12.649,-2.835 -13.253,-2.885 -13.853,-2.946C-14.109,-2.927 -14.348,-2.907 -14.553,-2.884C-15.089,-2.827 -15.429,-2.756 -15.515,-2.672C-15.529,-2.659 -15.545,-2.645 -15.545,-2.63C-15.537,-2.622 -15.527,-2.614 -15.519,-2.605C-15.442,-2.525 -15.362,-2.451 -15.283,-2.374C-15.194,-2.289 -15.107,-2.203 -15.015,-2.12C-14.881,-2.001 -14.744,-1.882 -14.603,-1.77C-14.438,-1.638 -14.268,-1.511 -14.094,-1.388C-13.458,-0.94 -12.766,-0.554 -12.041,-0.218C-10.374,0.554 -8.531,1.052 -6.787,1.371C-4.569,1.778 -2.517,1.897 -1.195,1.925C-0.77,1.934 -0.418,1.934 -0.164,1.931C0.14,1.928 0.31,1.92 0.31,1.92L0.197,0.818L0,-1.108Z" style="fill:rgb(188,98,86);fill-rule:nonzero;"/>
        </g>
        <g transform="matrix(-1,0,0,1,162.922,400.671)">
            <path d="M-0.124,-1.885L0.001,-1.885C1.213,-1.885 1.215,0 0.001,0L-0.124,0C-1.337,0 -1.339,-1.885 -0.124,-1.885" style="fill:rgb(188,98,86);fill-rule:nonzero;"/>
        </g>
        <g transform="matrix(1,0,0,1,166.541,402.293)">
            <path d="M0,-1.884C-1.213,-1.884 -1.215,0 0,0C1.212,0 1.214,-1.884 0,-1.884" style="fill:rgb(188,98,86);fill-rule:nonzero;"/>
        </g>
        <g transform="matrix(1,0,0,1,166.791,399.298)">
            <path d="M0,-1.885C-1.213,-1.885 -1.215,0 0,0C1.213,0 1.215,-1.885 0,-1.885" style="fill:rgb(188,98,86);fill-rule:nonzero;"/>
        </g>
        <g transform="matrix(1,0,0,1,169.662,400.421)">
            <path d="M0,-1.885C-1.212,-1.885 -1.214,0 0,0C1.213,0 1.215,-1.885 0,-1.885" style="fill:rgb(188,98,86);fill-rule:nonzero;"/>
        </g>
        <g transform="matrix(-1,0,0,1,203.487,400.671)">
            <path d="M-0.125,-1.885L-0,-1.885C1.213,-1.885 1.215,0 -0,0L-0.125,0C-1.337,0 -1.34,-1.885 -0.125,-1.885" style="fill:rgb(188,98,86);fill-rule:nonzero;"/>
        </g>
        <g transform="matrix(1,0,0,1,208.272,398.654)">
            <path d="M0,-1.465C-0.012,-1.477 -0.024,-1.489 -0.037,-1.501L-0.125,-1.589C-0.726,-2.191 -1.543,-1.715 -1.695,-1.083C-1.76,-0.812 -1.715,-0.515 -1.457,-0.257C-1.416,-0.215 -1.374,-0.174 -1.333,-0.132C-0.474,0.726 0.859,-0.606 0,-1.465" style="fill:rgb(188,98,86);fill-rule:nonzero;"/>
        </g>
        <g transform="matrix(0,1,1,0,208.543,400.846)">
            <path d="M0.88,-1.005L1.005,-1.005C2.218,-1.005 2.22,0.88 1.005,0.88L0.88,0.88C-0.333,0.88 -0.335,-1.005 0.88,-1.005" style="fill:rgb(188,98,86);fill-rule:nonzero;"/>
        </g>
        <g transform="matrix(-0.92844,0.371482,0.371482,0.92844,211.503,400.35)">
            <path d="M0.35,-1.82C0.443,-1.812 0.536,-1.805 0.629,-1.797C1.838,-1.697 1.556,0.168 0.35,0.067C0.257,0.06 0.164,0.052 0.072,0.043C-1.137,-0.057 -0.856,-1.92 0.35,-1.82" style="fill:rgb(188,98,86);fill-rule:nonzero;"/>
        </g>
        <g transform="matrix(1,0,0,1,153.841,400.182)">
            <path d="M0,-3.653C-0.032,-3.512 -0.129,-3.392 -0.322,-3.36C-0.477,-3.334 -0.619,-3.322 -0.758,-3.314C-1.552,-3.266 -2.106,-3.499 -2.503,-3.907C-2.812,-3.479 -3.139,-3.067 -3.481,-2.669C-3.692,-2.424 -3.906,-2.181 -4.129,-1.948C-3.087,-0.71 -1.578,0.094 0.075,0.228C0.309,0.247 0.545,0.254 0.783,0.245C0.705,-0.068 0.627,-0.382 0.555,-0.703C0.342,-1.65 0.158,-2.633 0,-3.653" style="fill:rgb(188,98,86);fill-rule:nonzero;"/>
        </g>
        <g transform="matrix(1,0,0,1,191.57,415.559)">
            <path d="M0,-2.332C-1.143,-1.504 -2.85,-1.654 -4.077,-2.227C-4.355,-2.356 -4.614,-2.209 -4.73,-1.999C-4.991,-1.859 -5.014,-1.485 -4.831,-1.27C-4.788,-1.218 -4.736,-1.185 -4.692,-1.136C-4.354,-0.77 -3.979,-0.485 -3.579,-0.293C-3.511,-0.26 -3.443,-0.233 -3.374,-0.205C-3.225,-0.12 -3.071,-0.044 -2.905,0.015C-2.342,0.213 -1.806,0.182 -1.273,-0.016C-1.194,-0.046 -1.114,-0.068 -1.034,-0.105C-0.937,-0.151 -0.877,-0.225 -0.842,-0.308C-0.64,-0.408 -0.449,-0.533 -0.265,-0.682C0.061,-0.942 0.365,-1.254 0.611,-1.662C0.612,-1.664 0.612,-1.665 0.613,-1.667C0.639,-1.71 0.647,-1.751 0.658,-1.793C0.669,-1.835 0.675,-1.875 0.673,-1.914C0.671,-1.966 0.659,-2.015 0.639,-2.06C0.562,-2.335 0.294,-2.545 0,-2.332" style="fill:rgb(188,98,86);fill-rule:nonzero;"/>
        </g>
        <g transform="matrix(1,0,0,1,223.095,371.327)">
            <path d="M0,23.892C-0.046,24.241 -0.096,24.584 -0.149,24.925C-0.123,24.928 -0.099,24.922 -0.071,24.93C0.133,24.984 0.314,24.999 0.486,24.996C0.864,24.99 1.169,24.861 1.415,24.641C1.393,24.616 1.372,24.589 1.35,24.564C1.122,24.293 0.905,24.014 0.708,23.715C0.498,23.396 0.312,23.055 0.142,22.703C0.044,22.499 -0.046,22.292 -0.128,22.079C-0.193,22.042 -0.26,22.019 -0.321,21.962C-0.507,21.791 -0.677,21.614 -0.847,21.437C-2.438,19.781 -3.377,17.87 -3.986,15.818C-4.093,15.456 -4.191,15.092 -4.28,14.723C-4.294,14.664 -4.306,14.606 -4.32,14.547C-4.375,14.308 -4.43,14.069 -4.479,13.827C-4.512,13.671 -4.541,13.514 -4.57,13.357C-4.856,11.848 -5.048,10.295 -5.256,8.737C-6.628,9.191 -7.884,9.129 -9.027,8.707C-9.958,8.365 -10.815,7.793 -11.601,7.079C-11.785,6.911 -11.967,6.739 -12.144,6.556C-13.486,5.175 -14.604,3.423 -15.518,1.828C-15.838,2.003 -16.165,2.145 -16.495,2.27C-18.097,2.879 -19.792,2.912 -21.373,2.439C-21.56,2.383 -21.745,2.322 -21.928,2.252C-23.033,1.832 -24.064,1.162 -24.949,0.267C-26.027,0.969 -27.171,1.424 -28.335,1.645C-30.834,2.119 -33.411,1.523 -35.569,0.016C-36.044,-0.315 -36.497,-0.689 -36.925,-1.107C-37.003,-0.939 -37.095,-0.787 -37.182,-0.628C-37.301,-0.408 -37.419,-0.186 -37.555,0.016C-38.067,0.785 -38.683,1.429 -39.376,1.95C-39.554,2.083 -39.744,2.198 -39.932,2.315C-41.196,3.108 -42.654,3.535 -44.164,3.61C-44.394,3.621 -44.623,3.641 -44.854,3.636C-47.42,3.583 -50.031,2.518 -51.948,0.538C-53.2,2.604 -54.839,4.782 -56.824,6.228C-58.525,7.468 -60.481,8.155 -62.66,7.77C-62.708,9.887 -63.074,11.999 -63.757,13.989C-63.842,14.236 -63.928,14.481 -64.022,14.723C-64.069,14.844 -64.121,14.963 -64.171,15.082C-64.327,15.461 -64.496,15.834 -64.677,16.201C-65.585,18.036 -66.799,19.706 -68.335,21.096C-68.454,21.204 -68.579,21.304 -68.701,21.408C-69,21.661 -69.309,21.903 -69.63,22.135C-69.772,22.238 -69.909,22.347 -70.057,22.446C-70.132,22.496 -70.204,22.509 -70.278,22.536C-70.329,22.635 -70.384,22.731 -70.437,22.83C-70.464,22.88 -70.492,22.931 -70.52,22.982C-70.73,23.367 -70.953,23.742 -71.188,24.109C-70.952,24.406 -70.632,24.601 -70.188,24.613C-70.075,24.616 -69.956,24.609 -69.827,24.587C-69.577,24.545 -69.394,24.683 -69.303,24.862C-69.379,24.343 -69.455,23.825 -69.517,23.288C-69.24,23.076 -68.915,22.819 -68.566,22.538C-67.216,21.45 -65.454,19.918 -64.174,18.413C-63.88,18.068 -63.615,17.725 -63.384,17.388C-63.14,17.032 -62.927,16.682 -62.779,16.349C-62.75,16.282 -62.723,16.213 -62.693,16.146C-61.367,13.056 -61.029,9.944 -61.029,9.944C-61.029,9.944 -58.937,10.433 -56.824,9.718C-56.304,9.542 -55.782,9.295 -55.29,8.948C-55.038,8.769 -54.804,8.575 -54.581,8.375L-56.797,8.375C-56.807,8.375 -56.814,8.37 -56.824,8.37C-57.331,8.354 -57.739,7.944 -57.739,7.433C-57.739,6.921 -57.331,6.511 -56.824,6.496C-56.814,6.496 -56.807,6.491 -56.797,6.491L-52.958,6.491C-52.127,5.253 -51.749,4.182 -51.749,4.182C-51.749,4.182 -51.083,5.322 -49.917,6.491L-47.061,6.491C-46.541,6.491 -46.119,6.912 -46.119,7.433C-46.119,7.954 -46.541,8.375 -47.061,8.375L-47.318,8.375C-46.364,8.823 -45.285,9.079 -44.099,8.948C-42.035,8.719 -40.474,7.259 -39.376,5.719C-38.025,3.827 -37.376,1.811 -37.376,1.811C-37.376,1.811 -35.571,5.76 -31.32,6.598C-27.068,7.436 -24.648,3.022 -24.648,3.022C-24.648,3.022 -24.143,5.097 -21.963,6.491C-21.952,6.497 -21.939,6.504 -21.928,6.512L-21.928,6.491L-12.504,6.491C-12.193,6.845 -11.87,7.18 -11.537,7.473C-11.56,7.974 -11.965,8.375 -12.472,8.375L-15.452,8.375C-15.169,8.437 -15.165,8.438 -15.165,8.438C-15.165,8.438 -14.882,9.67 -14.075,11.079C-12.499,11.836 -11.205,13.054 -10.387,14.555C-10.381,14.557 -10.376,14.56 -10.371,14.563C-6.587,16.199 -5.579,12.93 -5.579,12.93C-5.579,12.93 -5.475,13.442 -5.261,14.244C-5.164,14.608 -5.04,15.034 -4.895,15.501C-4.772,15.894 -4.638,16.306 -4.479,16.747C-4.455,16.817 -4.425,16.891 -4.398,16.961C-3.673,18.936 -2.582,21.226 -1.061,22.89C-0.727,23.255 -0.377,23.598 0,23.892" style="fill:rgb(188,98,86);fill-rule:nonzero;"/>
        </g>
        <g transform="matrix(-0.647105,-0.762401,-0.762401,0.647105,187.723,343.587)">
            <path d="M-2.927,-6.934C-1.476,-4.499 -0.172,-1.849 -1.149,1.012C-1.542,2.162 -3.318,1.534 -2.927,0.387C-2.124,-1.964 -3.468,-4.179 -4.636,-6.14C-5.256,-7.18 -3.544,-7.968 -2.927,-6.934" style="fill:rgb(160,100,55);fill-rule:nonzero;"/>
        </g>
        <g transform="matrix(-1,0,0,1,197.942,344.332)">
            <path d="M-0.157,-1.885L-0,-1.885C1.213,-1.885 1.215,0 -0,0L-0.157,0C-1.37,0 -1.372,-1.885 -0.157,-1.885" style="fill:rgb(160,100,55);fill-rule:nonzero;"/>
        </g>
        <g transform="matrix(-0.668459,0.743749,0.743749,0.668459,219.317,347.394)">
            <path d="M3.254,-7.441C4.065,-8.342 5.468,-7.084 4.656,-6.181C3.125,-4.482 2.601,-2.212 3.254,-0.017C3.599,1.143 1.806,1.724 1.459,0.557C0.618,-2.266 1.279,-5.25 3.254,-7.441" style="fill:rgb(160,100,55);fill-rule:nonzero;"/>
        </g>
        <g transform="matrix(1,0,0,1,223.044,365.157)">
            <path d="M0,-2.055C1.184,-1.527 2.06,-0.617 2.521,0.574C2.571,0.703 2.64,0.819 2.679,0.956C3.016,2.118 4.835,1.624 4.497,0.454C4.35,-0.051 4.14,-0.533 3.884,-0.984C3.218,-2.159 2.208,-3.121 0.952,-3.683C-0.146,-4.173 -1.106,-2.549 0,-2.055" style="fill:rgb(160,100,55);fill-rule:nonzero;"/>
        </g>
        <g transform="matrix(1,0,0,1,154.298,390.724)">
            <path d="M0,-9.983C-0.269,-10.101 -0.586,-10.095 -0.856,-9.969C-1.142,-9.836 -1.367,-9.577 -1.376,-9.17C-1.382,-8.866 -1.413,-8.568 -1.447,-8.271C-1.485,-7.944 -1.543,-7.624 -1.615,-7.306C-1.633,-7.223 -1.644,-7.138 -1.665,-7.056C-1.733,-6.785 -1.823,-6.522 -1.915,-6.261C-1.954,-6.151 -1.985,-6.038 -2.028,-5.93C-2.526,-4.676 -3.306,-3.553 -4.319,-2.625C-4.641,-2.33 -4.979,-2.047 -5.349,-1.795C-5.404,-1.758 -5.432,-1.709 -5.476,-1.666C-5.588,-1.554 -5.667,-1.433 -5.709,-1.3C-5.825,-0.942 -5.718,-0.552 -5.476,-0.291C-5.214,-0.008 -4.816,0.118 -4.397,-0.169C-4.367,-0.189 -4.34,-0.214 -4.31,-0.236C-3.988,-0.46 -3.68,-0.696 -3.388,-0.946C-2.888,-1.373 -2.443,-1.844 -2.032,-2.34C-1.94,-2.451 -1.848,-2.561 -1.761,-2.674C-1.759,-2.677 -1.756,-2.68 -1.754,-2.683C-1.572,-2.922 -1.403,-3.17 -1.242,-3.421C-1.236,-3.43 -1.231,-3.439 -1.226,-3.447C-1.192,-3.5 -1.159,-3.552 -1.127,-3.605C-1.12,-3.616 -1.113,-3.627 -1.106,-3.638C-0.719,-4.274 -0.398,-4.946 -0.147,-5.651C-0.063,-5.888 0.022,-6.126 0.091,-6.37C0.154,-6.594 0.198,-6.826 0.247,-7.056C0.264,-7.136 0.28,-7.217 0.295,-7.298C0.354,-7.606 0.401,-7.918 0.433,-8.233C0.465,-8.544 0.502,-8.852 0.509,-9.17C0.514,-9.413 0.429,-9.593 0.311,-9.739C0.226,-9.845 0.123,-9.928 0,-9.983" style="fill:rgb(160,100,55);fill-rule:nonzero;"/>
        </g>
        <g transform="matrix(1,0,0,1,154.058,360.831)">
            <path d="M0,-5.888C-2.614,-5.328 -5.415,-4.502 -6.66,-1.896C-7.18,-0.807 -5.555,0.15 -5.032,-0.945C-4.083,-2.933 -2.004,-3.52 -0.009,-3.959C0.162,-3.996 0.333,-4.034 0.501,-4.071C0.983,-4.174 1.175,-4.535 1.167,-4.911C1.154,-5.46 0.703,-6.038 0,-5.888" style="fill:rgb(160,100,55);fill-rule:nonzero;"/>
        </g>
        <g transform="matrix(1,0,0,1,167.106,360.171)">
            <path d="M0,-4.802C-0.294,-5.023 -0.697,-5.025 -1.049,-4.867C-2.372,-4.277 -3.467,-3.322 -4.304,-2.153C-4.401,-2.017 -4.509,-1.892 -4.599,-1.75C-5.25,-0.723 -3.619,0.223 -2.972,-0.799C-2.272,-1.904 -1.287,-2.709 -0.097,-3.24C0.371,-3.449 0.473,-4.122 0.241,-4.53C0.175,-4.645 0.092,-4.733 0,-4.802" style="fill:rgb(160,100,55);fill-rule:nonzero;"/>
        </g>
        <g transform="matrix(1,0,0,1,229.678,379.741)">
            <path d="M0,11.295C0.134,11.348 0.266,11.405 0.402,11.454C0.602,11.526 0.771,11.513 0.926,11.469C1.593,11.276 1.786,10.21 1.106,9.761C1.041,9.718 0.985,9.667 0.903,9.637C0.65,9.545 0.4,9.445 0.155,9.339C-0.197,9.187 -0.537,9.016 -0.87,8.834C-0.885,8.826 -0.901,8.817 -0.916,8.81C-1.687,8.385 -2.404,7.888 -3.04,7.315C-3.629,6.783 -4.146,6.188 -4.578,5.537C-4.774,5.242 -4.951,4.935 -5.108,4.616C-5.134,4.566 -5.163,4.517 -5.187,4.466C-5.27,4.29 -5.342,4.109 -5.412,3.927C-5.451,3.826 -5.49,3.725 -5.525,3.621C-5.629,3.313 -5.712,2.994 -5.779,2.669C-5.909,2.045 -5.976,1.393 -5.954,0.708C-5.941,0.312 -6.141,0.059 -6.407,-0.079C-6.661,-0.21 -6.971,-0.231 -7.246,-0.128C-7.565,-0.007 -7.824,0.269 -7.838,0.708C-7.862,1.46 -7.797,2.179 -7.669,2.87C-7.611,3.185 -7.538,3.491 -7.451,3.792C-7.437,3.838 -7.423,3.882 -7.41,3.927C-7.329,4.19 -7.239,4.447 -7.139,4.699C-7.114,4.761 -7.089,4.822 -7.063,4.883C-6.802,5.499 -6.485,6.085 -6.111,6.634C-5.896,6.947 -5.663,7.249 -5.416,7.54C-5.332,7.64 -5.244,7.736 -5.156,7.833C-4.938,8.071 -4.712,8.303 -4.475,8.524C-4.034,8.935 -3.562,9.316 -3.06,9.667C-2.95,9.743 -2.84,9.819 -2.729,9.893C-2.147,10.274 -1.532,10.612 -0.893,10.911C-0.6,11.048 -0.303,11.176 0,11.295" style="fill:rgb(160,100,55);fill-rule:nonzero;"/>
        </g>
        <g transform="matrix(1,0,0,1,142.769,420.503)">
            <path d="M0,3.503C-2.509,4.632 -4.81,1.864 -3.515,-0.451C-2.922,-1.511 -4.549,-2.462 -5.142,-1.402C-6.131,0.364 -5.993,2.667 -4.579,4.181C-3.145,5.717 -0.903,5.965 0.951,5.131C2.055,4.634 1.098,3.009 0,3.503" style="fill:rgb(160,100,55);fill-rule:nonzero;"/>
        </g>
        <g transform="matrix(1,0,0,1,149.348,430.854)">
            <path d="M0,-0.578C-0.537,-0.781 -0.955,-1.152 -1.306,-1.598C-1.621,-1.998 -2.309,-1.928 -2.638,-1.598C-3.033,-1.202 -2.954,-0.666 -2.638,-0.265C-2.08,0.443 -1.338,0.923 -0.501,1.239C-0.025,1.42 0.532,1.039 0.658,0.581C0.804,0.052 0.478,-0.397 0,-0.578" style="fill:rgb(160,100,55);fill-rule:nonzero;"/>
        </g>
        <g transform="matrix(1,0,0,1,235.507,426.733)">
            <path d="M0,-4.439C-0.806,-2.055 -3.133,-0.794 -5.578,-1.366C-5.821,-1.422 -6.026,-1.376 -6.203,-1.286C-6.222,-1.277 -6.243,-1.272 -6.26,-1.262C-6.312,-1.236 -6.349,-1.197 -6.393,-1.163C-6.55,-1.039 -6.657,-0.874 -6.706,-0.682C-6.715,-0.645 -6.719,-0.608 -6.725,-0.571C-6.736,-0.508 -6.744,-0.447 -6.744,-0.384C-6.742,-0.296 -6.726,-0.21 -6.702,-0.127C-6.695,-0.102 -6.692,-0.078 -6.683,-0.054C-6.663,0 -6.628,0.046 -6.599,0.095C-6.454,0.34 -6.211,0.525 -5.839,0.525C-5.812,0.525 -5.794,0.512 -5.769,0.51C-2.411,1.145 0.71,-0.666 1.817,-3.938C2.207,-5.089 0.387,-5.584 0,-4.439" style="fill:rgb(160,100,55);fill-rule:nonzero;"/>
        </g>
        <g transform="matrix(-0.997946,0.064055,0.064055,0.997946,241.348,417.76)">
            <path d="M-0.234,-7.391C0.415,-8.402 2.107,-7.569 1.451,-6.547C0.214,-4.619 -0.367,-2.518 -0.234,-0.226C-0.163,0.984 -2.044,1.108 -2.115,-0.105C-2.266,-2.698 -1.639,-5.202 -0.234,-7.391" style="fill:rgb(160,100,55);fill-rule:nonzero;"/>
        </g>
        <g transform="matrix(1,0,0,1,166.27,393.758)">
            <path d="M0,-8.286C0.812,-9.139 1.868,-9.772 3.063,-10.09C3.616,-10.235 4.195,-10.32 4.795,-10.32C5.396,-10.32 5.975,-10.235 6.527,-10.09C9.264,-9.365 11.28,-6.976 11.28,-4.143C11.28,-0.737 8.371,2.033 4.795,2.033C2.895,2.033 1.187,1.246 0,0C-1.045,-1.098 -1.689,-2.548 -1.689,-4.143C-1.689,-5.738 -1.045,-7.189 0,-8.286M4.795,3.918C9.41,3.918 13.165,0.302 13.165,-4.143C13.165,-8.588 9.41,-12.204 4.795,-12.204C0.181,-12.204 -3.573,-8.588 -3.573,-4.143C-3.573,0.302 0.181,3.918 4.795,3.918" style="fill:rgb(47,40,57);fill-rule:nonzero;"/>
        </g>
        <g transform="matrix(1,0,0,1,171.066,384.432)">
            <path d="M0,10.123C2.946,10.123 5.342,7.852 5.342,5.061C5.342,4.681 5.29,4.312 5.205,3.955C5.002,4.299 4.716,4.583 4.37,4.784C4.095,4.943 3.787,5.045 3.456,5.08C3.444,6.823 1.9,8.238 0,8.238C-1.906,8.238 -3.458,6.812 -3.458,5.061C-3.458,3.311 -1.906,1.885 0,1.885C0.358,1.885 0.698,1.949 1.023,2.043C1.129,1.729 1.296,1.446 1.517,1.21C1.774,0.933 2.099,0.723 2.465,0.598C1.724,0.228 0.894,0 0,0C-2.115,0 -3.93,1.18 -4.795,2.873C-5.135,3.538 -5.342,4.274 -5.342,5.061C-5.342,5.849 -5.135,6.585 -4.795,7.25C-3.93,8.943 -2.115,10.123 0,10.123" style="fill:rgb(47,40,57);fill-rule:nonzero;"/>
        </g>
        <g transform="matrix(1,0,0,1,201.167,394.371)">
            <path d="M0,-9.514C0.693,-10.061 1.508,-10.467 2.398,-10.703C2.951,-10.849 3.53,-10.934 4.13,-10.934C4.731,-10.934 5.31,-10.849 5.862,-10.703C8.598,-9.979 10.614,-7.59 10.614,-4.757C10.614,-1.351 7.706,1.42 4.13,1.42C2.562,1.42 1.123,0.886 0,0.001C-1.437,-1.133 -2.354,-2.844 -2.354,-4.757C-2.354,-6.669 -1.437,-8.38 0,-9.514M4.13,3.304C4.567,3.304 4.992,3.262 5.411,3.2C5.985,3.115 6.539,2.974 7.069,2.782C10.236,1.632 12.499,-1.309 12.499,-4.757C12.499,-6.104 12.15,-7.372 11.541,-8.49C9.748,-9.271 8.584,-10.69 7.853,-11.966C6.73,-12.506 5.469,-12.818 4.13,-12.818C-0.484,-12.818 -4.239,-9.202 -4.239,-4.757C-4.239,-0.312 -0.484,3.304 4.13,3.304" style="fill:rgb(47,40,57);fill-rule:nonzero;"/>
        </g>
        <g transform="matrix(1,0,0,1,205.297,384.432)">
            <path d="M0,10.123C2.946,10.123 5.342,7.852 5.342,5.061C5.342,4.668 5.284,4.29 5.194,3.922C4.995,4.271 4.713,4.563 4.368,4.769C4.095,4.933 3.787,5.038 3.456,5.077C3.446,6.821 1.9,8.238 0,8.238C-1.907,8.238 -3.458,6.812 -3.458,5.061C-3.458,3.311 -1.907,1.885 0,1.885C0.349,1.885 0.679,1.947 0.997,2.035C1.104,1.723 1.272,1.439 1.493,1.203C1.754,0.924 2.083,0.716 2.454,0.593C1.716,0.227 0.889,0 0,0C-1.673,0 -3.15,0.747 -4.13,1.891C-4.876,2.762 -5.343,3.855 -5.343,5.061C-5.343,6.268 -4.876,7.361 -4.13,8.232C-3.15,9.376 -1.673,10.123 0,10.123" style="fill:rgb(47,40,57);fill-rule:nonzero;"/>
        </g>
        <g transform="matrix(-1,0,0,1,171.112,379.702)">
            <path d="M-2.066,-1.885L0.976,-1.885C1.396,-1.26 1.934,-0.595 2.598,0L-4.664,0C-3.637,-0.483 -2.763,-1.188 -2.066,-1.885" style="fill:rgb(47,40,57);fill-rule:nonzero;"/>
        </g>
        <g transform="matrix(1,0,0,1,200.888,377.817)">
            <path d="M0,1.885L6.755,1.885C6.336,1.793 5.302,1.568 2.725,1.006C1.735,0.79 0.936,0.436 0.279,0.022C0.268,0.014 0.255,0.007 0.244,0L0,0C-0.521,0 -0.942,0.421 -0.942,0.943C-0.942,1.463 -0.521,1.885 0,1.885" style="fill:rgb(47,40,57);fill-rule:nonzero;"/>
        </g>
        <g transform="matrix(1,0,0,1,185.71,399.507)">
            <path d="M0,1.748C0.106,1.789 0.219,1.816 0.339,1.816L6.903,1.816C6.998,1.816 7.083,1.788 7.168,1.763C7.557,1.646 7.846,1.301 7.846,0.874C7.846,0.352 7.424,-0.068 6.903,-0.068L0.339,-0.068C-0.182,-0.068 -0.604,0.352 -0.604,0.874C-0.604,1.274 -0.352,1.611 0,1.748" style="fill:rgb(47,40,57);fill-rule:nonzero;"/>
        </g>
        <g transform="matrix(1,0,0,1,191.946,411.519)">
            <path d="M0,-2.701C-0.012,-2.689 -1.225,-1.514 -2.736,-1.514C-3.605,-1.514 -4.444,-1.913 -5.229,-2.701C-5.596,-3.069 -6.192,-3.071 -6.562,-2.705C-6.93,-2.338 -6.932,-1.74 -6.564,-1.372C-5.414,-0.215 -4.125,0.371 -2.736,0.371C-0.426,0.371 1.265,-1.301 1.336,-1.372C1.703,-1.74 1.701,-2.338 1.333,-2.705C0.963,-3.072 0.367,-3.07 0,-2.701" style="fill:rgb(47,40,57);fill-rule:nonzero;"/>
        </g>
        <g transform="matrix(1,0,0,1,240.365,353.664)">
            <path d="M0,72.938C-0.333,72.614 -0.854,72.515 -1.248,72.968C-2.897,74.865 -4.96,76.255 -7.478,76.647C-8.619,76.825 -9.77,76.791 -10.896,76.527C-11.925,76.286 -12.77,75.609 -13.756,75.34C-14.283,75.198 -14.738,75.282 -15.162,75.468C-16.026,75.85 -16.747,76.698 -17.587,77.182C-20.165,78.67 -23.178,78.687 -25.821,77.375C-25.869,77.351 -25.915,77.352 -25.963,77.336C-26.277,76.933 -26.894,76.722 -27.394,77.157C-28.098,77.769 -28.912,78.199 -29.805,78.461C-29.897,78.489 -29.962,78.539 -30.034,78.583C-30.12,78.635 -30.193,78.695 -30.251,78.766C-30.276,78.728 -30.3,78.69 -30.325,78.652C-33.202,74.338 -37.651,70.95 -42.967,69.107C-33.854,67.315 -22.753,62.065 -18.071,47.664C-17.851,47.684 -17.629,47.716 -17.41,47.716C-15.936,47.716 -14.5,47.252 -13.276,46.367C-12.79,46.014 -12.363,45.604 -11.988,45.156C-10.904,45.667 -9.75,46.053 -8.588,46.324C-8.317,46.386 -8.088,46.331 -7.9,46.217C-7.271,45.836 -7.176,44.718 -8.087,44.506C-9.055,44.282 -10.037,43.958 -10.975,43.542C-11.263,43.413 -11.547,43.279 -11.824,43.129C-12.106,42.978 -12.386,42.822 -12.652,42.647C-13.239,42.261 -13.766,41.805 -14.236,41.299C-14.365,41.161 -14.496,41.024 -14.613,40.875C-14.732,40.726 -14.834,40.561 -14.941,40.401C-15.013,40.293 -15.096,40.194 -15.162,40.081C-15.39,39.692 -15.589,39.28 -15.738,38.833C-15.819,38.586 -15.975,38.43 -16.153,38.325C-16.202,38.296 -16.249,38.268 -16.302,38.25C-16.513,38.052 -16.715,37.852 -16.904,37.646C-17.262,37.254 -17.575,36.845 -17.86,36.424C-18.702,35.181 -19.255,33.819 -19.641,32.386C-19.7,32.167 -19.753,31.944 -19.805,31.72C-19.883,31.387 -19.956,31.051 -20.021,30.712C-20.085,30.377 -20.142,30.038 -20.197,29.698C-20.416,28.325 -20.569,26.923 -20.758,25.536C-20.823,25.055 -21.157,24.86 -21.521,24.864C-21.585,24.774 -21.661,24.694 -21.75,24.626C-22.017,24.424 -22.374,24.334 -22.754,24.506C-27.022,26.445 -30.016,20.633 -31.644,17.679C-31.645,17.678 -31.646,17.675 -31.647,17.674C-31.963,17.102 -32.573,17.123 -32.984,17.421C-33.019,17.44 -33.051,17.44 -33.086,17.463C-33.202,17.542 -33.319,17.61 -33.437,17.679C-35.146,18.695 -36.991,18.782 -38.644,18.108C-38.831,18.032 -39.016,17.945 -39.198,17.849C-39.302,17.794 -39.406,17.741 -39.508,17.679C-40.137,17.304 -40.726,16.814 -41.252,16.216C-41.482,15.955 -41.753,15.892 -42.008,15.937C-42.235,15.842 -42.501,15.847 -42.776,16.044C-46.248,18.545 -50.38,17.929 -53.254,14.835C-53.462,14.612 -53.701,14.53 -53.93,14.544C-54.37,14.085 -55.309,14.082 -55.556,14.884C-55.814,15.723 -56.192,16.424 -56.646,17.021C-56.826,17.256 -57.015,17.48 -57.219,17.679C-58.525,18.955 -60.302,19.492 -62.125,19.411C-63.813,19.335 -65.538,18.735 -66.958,17.679C-67.512,17.268 -68.021,16.791 -68.461,16.249C-68.852,15.77 -69.384,15.884 -69.715,16.233C-70.01,16.223 -70.307,16.338 -70.501,16.673C-70.69,17 -70.895,17.338 -71.106,17.679C-71.933,19.011 -72.927,20.401 -74.095,21.505C-75.92,23.233 -78.164,24.259 -80.838,23.24C-81.744,22.894 -82.224,23.98 -81.813,24.652C-81.789,26.492 -82.021,28.359 -82.521,30.141C-82.613,30.468 -82.714,30.791 -82.824,31.111C-82.934,31.431 -83.053,31.749 -83.182,32.061C-83.227,32.169 -83.269,32.279 -83.316,32.386C-83.9,33.722 -84.664,34.969 -85.606,36.078C-85.785,36.289 -85.97,36.495 -86.163,36.695C-86.449,36.993 -86.751,37.276 -87.067,37.547C-87.272,37.723 -87.483,37.895 -87.701,38.059C-87.777,38.117 -87.855,38.173 -87.934,38.229C-88.049,38.313 -88.159,38.401 -88.278,38.481C-88.325,38.512 -88.347,38.554 -88.385,38.588C-88.651,38.602 -88.908,38.728 -89.069,39.051C-89.102,39.118 -89.141,39.181 -89.175,39.248C-89.406,39.698 -89.657,40.133 -89.922,40.557C-90.238,41.063 -90.574,41.555 -90.938,42.021C-91.131,42.27 -91.335,42.51 -91.542,42.747C-91.583,42.793 -91.621,42.841 -91.662,42.887C-91.889,43.142 -92.127,43.387 -92.369,43.627C-93.306,44.556 -94.35,45.383 -95.509,46.086C-95.989,46.378 -96.032,46.88 -95.849,47.278C-95.636,47.737 -95.116,48.053 -94.558,47.714C-93.383,47.001 -92.301,46.172 -91.32,45.243C-90.962,45.657 -90.56,46.038 -90.104,46.367C-88.937,47.212 -87.573,47.661 -86.17,47.701C-81.642,62.059 -70.108,67.241 -61.179,69.047C-67.289,71.121 -72.274,75.233 -75.068,80.446C-75.02,80.431 -74.971,80.424 -74.923,80.409L-75.472,80.578C-75.466,80.565 -75.46,80.552 -75.454,80.539C-77.77,81.12 -80.043,80.682 -82.001,79.349C-82.221,79.199 -82.441,79.048 -82.654,78.875C-82.67,78.863 -82.688,78.861 -82.704,78.849C-83.017,78.441 -83.632,78.233 -84.125,78.682C-84.401,78.933 -84.696,79.151 -85.002,79.349C-85.198,79.476 -85.399,79.59 -85.606,79.697C-88.329,81.093 -91.904,80.694 -94.848,79.349C-96.176,78.742 -97.37,77.945 -98.299,77.032C-98.37,76.629 -98.654,76.264 -99.177,76.245C-104.482,76.053 -107.096,66.636 -104.396,62.333C-104.106,61.87 -103.755,61.465 -103.337,61.138C-103.32,61.125 -103.304,61.108 -103.286,61.094C-102.787,60.716 -102.656,60.109 -103.096,59.614C-104.143,58.436 -104.375,57.147 -104.144,55.868C-103.71,53.46 -101.61,51.089 -100.021,49.562C-99.555,49.115 -99.72,48.538 -100.101,48.213C-99.994,47.84 -100.063,47.406 -100.443,47.113C-101.809,46.062 -102.812,44.669 -103.462,43.117C-103.517,42.987 -103.559,42.853 -103.607,42.721C-104.866,39.36 -104.506,35.348 -102.545,32.386C-101.769,31.213 -100.755,30.197 -99.477,29.465C-98.967,29.174 -98.839,28.396 -99.286,27.986C-100.348,27.011 -101.134,25.747 -101.649,24.362C-101.988,23.45 -102.203,22.488 -102.291,21.512C-102.639,17.685 -101.033,13.717 -97.139,12.35C-96.714,12.202 -96.517,11.854 -96.495,11.498C-96.141,11.393 -95.839,11.111 -95.817,10.639C-95.791,10.066 -95.716,9.485 -95.618,8.905C-94.752,3.811 -91.17,-1.19 -85.606,-0.581C-85.313,-0.548 -85.021,-0.519 -84.718,-0.456C-84.179,-0.341 -83.457,-0.715 -83.525,-1.364C-84.084,-6.677 -78.115,-8.773 -73.722,-8.091C-73.389,-8.04 -73.064,-7.975 -72.753,-7.891C-72.73,-7.885 -72.705,-7.882 -72.683,-7.875C-71.803,-7.631 -71.303,-8.596 -71.604,-9.229C-71.539,-11.433 -70.052,-12.482 -68.232,-12.877C-67.619,-13.011 -66.97,-13.071 -66.324,-13.076C-65.433,-13.083 -64.55,-12.987 -63.785,-12.837C-63.216,-12.725 -62.663,-12.574 -62.125,-12.393C-60.112,-11.718 -58.367,-10.536 -57.342,-8.555C-57.022,-7.937 -56.359,-7.998 -55.949,-8.356C-55.699,-8.38 -55.463,-8.513 -55.316,-8.824C-54.205,-11.169 -52.595,-13.277 -50.355,-14.576C-49.995,-14.786 -49.622,-14.978 -49.227,-15.143C-46.818,-16.149 -43.551,-16.234 -41.627,-14.576C-40.957,-13.999 -40.446,-13.212 -40.197,-12.174C-40.127,-11.886 -39.964,-11.701 -39.765,-11.598C-39.559,-11.189 -39.119,-10.943 -38.644,-11.193C-38.603,-11.214 -38.564,-11.217 -38.524,-11.246C-35.402,-13.458 -29.761,-13.374 -26.496,-11.585C-23.192,-9.775 -18.399,-5.668 -19.115,-1.5C-19.165,-1.21 -19.092,-0.963 -18.954,-0.769C-19.032,-0.334 -18.868,0.159 -18.338,0.347C-17.163,0.765 -16.106,1.388 -15.162,2.151C-13.486,3.504 -12.176,5.312 -11.258,7.288C-11.015,7.812 -10.807,8.355 -10.619,8.905C-10.172,10.208 -9.873,11.568 -9.76,12.93C-9.693,13.738 -9.732,14.213 -9.529,14.659C-9.41,14.92 -9.205,15.173 -8.847,15.476C-8.842,15.48 -8.839,15.484 -8.834,15.488C-3.887,19.639 -1.531,26.02 -1.898,32.386C-1.936,33.03 -1.991,33.673 -2.084,34.314C-2.103,34.442 -2.089,34.559 -2.065,34.67C-2.386,35.072 -2.453,35.75 -1.924,36.156C2.766,39.762 3.648,46.969 1.499,52.176C1.327,52.591 1.625,53.006 1.932,53.24C2.878,53.962 3.666,54.86 4.299,55.868C7.802,61.435 6.501,70.45 0,72.938M-45.105,69.585L-45.105,70.553C-45.105,71.64 -45.36,72.667 -45.801,73.587C-45.852,73.693 -45.898,73.801 -45.954,73.904C-47.033,75.893 -49.041,77.307 -51.393,77.562C-51.644,77.589 -51.898,77.605 -52.157,77.605C-53.861,77.605 -55.426,76.998 -56.646,75.987C-57.343,75.411 -57.927,74.704 -58.361,73.904C-58.901,72.907 -59.209,71.765 -59.209,70.553L-59.209,69.585C-59.209,69.532 -59.202,69.48 -59.201,69.427C-59.201,69.417 -59.2,69.408 -59.199,69.398C-59.176,69.402 -59.152,69.405 -59.129,69.409C-58.262,69.543 -57.432,69.649 -56.646,69.728C-56.506,69.743 -56.364,69.757 -56.227,69.77C-54.552,69.925 -53.097,69.974 -51.98,69.974C-51.792,69.974 -51.59,69.97 -51.393,69.967C-50.341,69.955 -49.172,69.905 -47.91,69.797C-47.017,69.722 -46.082,69.618 -45.111,69.475C-45.11,69.512 -45.105,69.548 -45.105,69.585M-16.782,42.659C-16.718,42.339 -16.606,41.783 -16.535,41.415C-16.345,41.699 -16.139,41.968 -15.92,42.227C-15.899,42.252 -15.877,42.279 -15.855,42.304C-16.101,42.524 -16.406,42.652 -16.782,42.659M-16.99,43.62C-16.155,43.729 -15.579,43.529 -15.162,43.131C-15.146,43.116 -15.13,43.098 -15.114,43.082C-14.668,43.498 -14.182,43.872 -13.668,44.211C-13.886,44.438 -14.121,44.652 -14.381,44.84C-15.31,45.512 -16.404,45.833 -17.523,45.809C-17.33,45.1 -17.153,44.37 -16.99,43.62M-85.819,40.307C-85.874,39.905 -85.938,39.438 -85.987,39.083C-85.982,39.079 -85.977,39.075 -85.972,39.071C-85.85,38.967 -85.724,38.867 -85.606,38.759C-84.07,37.37 -82.856,35.699 -81.948,33.864C-81.767,33.498 -81.598,33.125 -81.441,32.746C-81.392,32.626 -81.34,32.507 -81.293,32.386C-81.198,32.144 -81.112,31.899 -81.028,31.652C-80.345,29.663 -79.979,27.55 -79.931,25.433C-77.751,25.818 -75.796,25.131 -74.095,23.891C-72.11,22.445 -70.47,20.267 -69.218,18.201C-67.301,20.181 -64.691,21.247 -62.125,21.299C-61.893,21.304 -61.664,21.284 -61.434,21.273C-59.924,21.198 -58.466,20.771 -57.203,19.978C-57.015,19.861 -56.825,19.747 -56.646,19.613C-55.953,19.092 -55.337,18.448 -54.825,17.679C-54.69,17.477 -54.572,17.255 -54.452,17.036C-54.366,16.876 -54.273,16.724 -54.195,16.556C-53.768,16.974 -53.314,17.348 -52.84,17.679C-50.682,19.186 -48.105,19.782 -45.606,19.308C-44.441,19.087 -43.297,18.632 -42.22,17.93C-41.335,18.825 -40.304,19.496 -39.198,19.916C-39.015,19.985 -38.83,20.046 -38.644,20.102C-37.062,20.575 -35.367,20.542 -33.766,19.933C-33.436,19.808 -33.108,19.667 -32.788,19.491C-31.875,21.086 -30.756,22.838 -29.414,24.219C-29.237,24.402 -29.056,24.574 -28.871,24.742C-28.085,25.457 -27.229,26.028 -26.298,26.371C-25.155,26.792 -23.899,26.854 -22.527,26.4C-22.319,27.959 -22.126,29.511 -21.841,31.02C-21.811,31.177 -21.782,31.334 -21.75,31.49C-21.701,31.732 -21.646,31.971 -21.59,32.21C-21.577,32.269 -21.564,32.328 -21.551,32.386C-21.462,32.755 -21.363,33.12 -21.256,33.481C-20.647,35.533 -19.709,37.444 -18.118,39.1C-18.111,39.107 -18.104,39.114 -18.097,39.121L-18.423,41.063C-18.675,42.602 -18.979,44.071 -19.353,45.443C-19.437,45.753 -19.522,46.063 -19.612,46.365C-19.704,46.671 -19.802,46.967 -19.9,47.265C-24.266,60.626 -34.4,65.667 -43.518,67.341C-43.829,67.399 -44.14,67.457 -44.449,67.505C-44.762,67.556 -45.073,67.601 -45.384,67.644C-46.2,67.757 -47.002,67.844 -47.789,67.911C-49.258,68.035 -50.669,68.089 -51.98,68.089C-53.097,68.089 -54.571,68.037 -56.27,67.87C-56.395,67.858 -56.519,67.846 -56.646,67.833C-57.363,67.755 -58.117,67.656 -58.902,67.531C-59.208,67.483 -59.517,67.43 -59.831,67.374C-60.139,67.318 -60.445,67.262 -60.76,67.199C-69.106,65.498 -79.816,60.672 -84.211,47.493C-84.311,47.193 -84.418,46.903 -84.512,46.593C-84.602,46.293 -84.678,45.974 -84.762,45.666C-85.215,44.005 -85.571,42.221 -85.819,40.307M-87.283,43.205C-87.117,44.083 -86.929,44.93 -86.718,45.751C-87.53,45.63 -88.312,45.338 -88.999,44.84C-89.39,44.558 -89.714,44.216 -90.006,43.85C-89.664,43.452 -89.336,43.04 -89.028,42.612C-88.63,43.02 -88.076,43.252 -87.283,43.205M-87.791,40.645C-87.767,40.602 -87.743,40.559 -87.72,40.515L-87.557,41.532C-87.558,41.533 -87.561,41.535 -87.562,41.536C-87.525,41.78 -87.499,42.036 -87.458,42.276C-87.902,42.264 -88.222,42.069 -88.458,41.772C-88.224,41.405 -88.001,41.03 -87.791,40.645M-28.704,89.158L-75.611,89.158C-75.457,86.153 -74.565,83.315 -73.097,80.776C-71.987,78.856 -70.546,77.111 -68.84,75.594C-68.166,74.995 -67.454,74.427 -66.7,73.904C-64.998,72.719 -63.106,71.737 -61.071,71C-61.02,72.022 -60.803,73 -60.436,73.904C-59.107,77.175 -55.899,79.49 -52.157,79.49C-51.899,79.49 -51.645,79.473 -51.393,79.452C-47.982,79.161 -45.115,76.95 -43.878,73.904C-43.511,73 -43.294,72.022 -43.243,71C-41.208,71.737 -39.316,72.719 -37.614,73.904C-36.261,74.844 -35.033,75.917 -33.944,77.092C-33.373,77.709 -32.84,78.354 -32.352,79.028C-30.209,81.981 -28.894,85.442 -28.704,89.158M6.381,55.868C5.659,54.459 4.703,53.183 3.514,52.134C5.633,46.381 4.318,39.156 -0.354,35.055C-0.32,34.98 -0.281,34.912 -0.267,34.815C-0.149,34.006 -0.079,33.196 -0.039,32.386C0.287,25.686 -2.049,19.056 -7.098,14.457C-8.258,13.4 -7.944,11.744 -8.291,10.208C-8.39,9.77 -8.506,9.335 -8.637,8.905C-9.037,7.588 -9.584,6.311 -10.262,5.118C-11.478,2.977 -13.134,1.159 -15.162,-0.142C-15.825,-0.567 -16.53,-0.932 -17.272,-1.237C-16.576,-6.226 -20.982,-10.34 -24.874,-12.811C-26.224,-13.668 -27.898,-14.264 -29.671,-14.576C-31.502,-14.898 -33.437,-14.915 -35.239,-14.576C-36.445,-14.349 -37.588,-13.965 -38.6,-13.413C-38.613,-13.451 -38.629,-13.486 -38.644,-13.523C-38.787,-13.904 -38.962,-14.251 -39.159,-14.576C-40.829,-17.327 -44.306,-18.104 -47.628,-17.556C-49.89,-17.183 -51.859,-16.084 -53.481,-14.576C-54.676,-13.464 -55.681,-12.131 -56.471,-10.692C-57.852,-12.541 -59.894,-13.728 -62.125,-14.367C-62.376,-14.439 -62.625,-14.518 -62.88,-14.576C-63.923,-14.812 -64.992,-14.938 -66.045,-14.952C-67.091,-14.964 -68.123,-14.842 -69.074,-14.576C-71.317,-13.949 -73.094,-12.497 -73.435,-9.951C-78.582,-10.731 -85.248,-8.155 -85.438,-2.449C-85.493,-2.455 -85.551,-2.468 -85.606,-2.473C-92.177,-3.02 -96.568,2.744 -97.517,8.905C-97.601,9.455 -97.666,10.005 -97.695,10.557C-104.932,13.149 -106.108,23.087 -101.401,28.492C-102.849,29.539 -103.969,30.874 -104.757,32.386C-107.456,37.568 -106.325,44.694 -101.644,48.52C-103.608,50.475 -105.583,53.142 -105.981,55.868C-106.193,57.325 -105.952,58.795 -105.02,60.18C-109.651,65.071 -106.917,77.028 -99.912,78.062C-99.891,78.09 -99.885,78.12 -99.859,78.147C-99.452,78.576 -98.991,78.972 -98.505,79.349C-95.021,82.049 -89.743,83.315 -85.606,81.727C-84.856,81.44 -84.147,81.053 -83.491,80.57C-81.285,82.192 -78.72,82.959 -76.063,82.584C-77.003,84.937 -77.52,87.465 -77.52,90.1L-77.52,91.042L-26.795,91.042L-26.795,90.1C-26.795,86.582 -27.708,83.251 -29.334,80.281C-29.323,80.279 -29.314,80.282 -29.304,80.279C-28.567,80.062 -27.886,79.743 -27.247,79.349C-27.075,79.243 -26.901,79.137 -26.736,79.018C-26.495,79.137 -26.253,79.247 -26.009,79.349C-24.019,80.183 -21.919,80.467 -19.757,80.009C-19.06,79.862 -18.375,79.636 -17.718,79.349C-17.13,79.092 -16.563,78.788 -16.034,78.432C-15.673,78.19 -15.399,77.992 -15.162,77.838C-14.469,77.392 -14.096,77.348 -12.851,77.858C-8.487,79.645 -3.774,78.2 -0.562,74.992C-0.426,75.019 -0.278,75.022 -0.112,74.971C7.883,72.539 9.869,62.66 6.381,55.868" style="fill:rgb(47,40,57);fill-rule:nonzero;"/>
        </g>
    </g>
</svg>
