<?xml version="1.0" encoding="UTF-8" standalone="no"?>
<!DOCTYPE svg PUBLIC "-//W3C//DTD SVG 1.1//EN" "http://www.w3.org/Graphics/SVG/1.1/DTD/svg11.dtd">
<svg width="100%" height="100%" viewBox="0 0 130 130" version="1.1" xmlns="http://www.w3.org/2000/svg" xmlns:xlink="http://www.w3.org/1999/xlink" xml:space="preserve" xmlns:serif="http://www.serif.com/" style="fill-rule:evenodd;clip-rule:evenodd;stroke-linejoin:round;stroke-miterlimit:2;">
    <g transform="matrix(1,0,0,1,-347.114,-189.911)">
        <g transform="matrix(1,0,0,1,392.739,294.159)">
            <path d="M0,7.362C-0.433,8.483 -2.255,7.993 -1.817,6.861C-1.721,6.611 -1.607,6.373 -1.501,6.13C-0.103,2.94 2.153,0.311 5.163,-1.507C6.205,-2.136 7.151,-0.506 6.114,0.121C3.706,1.575 1.788,3.635 0.548,6.13C0.349,6.53 0.163,6.939 0,7.362M42.02,6.13C40.109,1.744 36.63,-1.95 32.186,-4.415C30.919,-5.118 29.573,-5.72 28.163,-6.21C27.853,-6.319 27.538,-6.421 27.221,-6.519L27.221,-5.666C27.221,-5.621 27.215,-5.578 27.214,-5.534C27.204,-4.916 27.119,-4.317 26.976,-3.741L27.088,-2.637C27.088,-2.637 26.918,-2.63 26.614,-2.626C25.411,0.273 22.549,2.328 19.228,2.328L19.227,2.328C17.565,2.328 16.02,1.813 14.737,0.937C12.661,-0.482 11.284,-2.853 11.239,-5.534C11.239,-5.578 11.232,-5.621 11.232,-5.666L11.232,-6.519C10.916,-6.422 10.602,-6.319 10.291,-6.21C4.605,-4.233 -0.038,-0.427 -2.71,4.391C-3.024,4.957 -3.308,5.538 -3.565,6.13C-4.613,8.536 -5.193,11.147 -5.193,13.881L43.647,13.881C43.647,11.147 43.067,8.536 42.02,6.13" style="fill:rgb(209,87,25);fill-rule:nonzero;"/>
        </g>
        <g transform="matrix(1,0,0,1,398.279,253.751)">
            <path d="M0,0.036C-0.081,0.045 -0.16,0.061 -0.243,0.061C-0.875,0.061 -1.447,-0.193 -1.865,-0.603C-2.125,-0.858 -2.316,-1.174 -2.435,-1.526C-2.512,-1.758 -2.564,-2.002 -2.564,-2.26C-2.564,-2.329 -2.55,-2.396 -2.543,-2.464C-2.527,-2.651 -2.49,-2.83 -2.432,-3.001C-2.325,-3.315 -2.159,-3.598 -1.938,-3.835C-2.413,-3.999 -2.92,-4.101 -3.455,-4.101C-5.004,-4.101 -6.36,-3.348 -7.145,-2.215C-7.35,-1.918 -7.503,-1.59 -7.622,-1.246C-7.729,-0.938 -7.797,-0.615 -7.823,-0.28C-7.831,-0.18 -7.854,-0.084 -7.854,0.017C-7.854,2.293 -5.885,4.137 -3.455,4.137C-1.025,4.137 0.944,2.293 0.944,0.017C0.944,-0.077 0.922,-0.166 0.915,-0.26C0.64,-0.101 0.331,0.001 0,0.036" style="fill:rgb(112,79,61);fill-rule:nonzero;"/>
        </g>
        <g transform="matrix(1,0,0,1,433.424,254.061)">
            <path d="M0,-0.584C-0.273,-0.421 -0.581,-0.315 -0.912,-0.276C-1.003,-0.266 -1.092,-0.248 -1.186,-0.248C-2.467,-0.248 -3.506,-1.287 -3.506,-2.569C-3.506,-2.624 -3.494,-2.676 -3.49,-2.73C-3.476,-2.935 -3.436,-3.131 -3.371,-3.318C-3.326,-3.449 -3.271,-3.573 -3.204,-3.693C-3.111,-3.858 -3.004,-4.013 -2.875,-4.151C-3.344,-4.31 -3.842,-4.411 -4.368,-4.411C-5.416,-4.411 -6.365,-4.054 -7.121,-3.481C-7.497,-3.197 -7.824,-2.864 -8.083,-2.48C-8.254,-2.227 -8.39,-1.953 -8.499,-1.665C-8.662,-1.233 -8.769,-0.776 -8.769,-0.292C-8.769,0.192 -8.662,0.65 -8.499,1.082C-7.893,2.678 -6.281,3.827 -4.368,3.827C-1.938,3.827 0.031,1.983 0.031,-0.292C0.031,-0.392 0.008,-0.485 0,-0.584" style="fill:rgb(112,79,61);fill-rule:nonzero;"/>
        </g>
        <g transform="matrix(1,0,0,1,418.322,291.957)">
            <path d="M0,-0.432C-2.361,-0.482 -7.06,-0.822 -10.846,-2.575C-11.571,-2.911 -12.264,-3.297 -12.899,-3.745C-13.073,-3.868 -13.243,-3.995 -13.407,-4.126C-13.549,-4.239 -13.686,-4.357 -13.819,-4.476C-13.911,-4.559 -13.999,-4.645 -14.088,-4.73C-14.166,-4.807 -14.247,-4.881 -14.323,-4.961C-14.327,-4.9 -14.33,-4.837 -14.333,-4.776C-14.338,-4.661 -14.351,-4.549 -14.351,-4.433L-14.351,-3.465C-14.351,-3.42 -14.344,-3.377 -14.344,-3.332C-14.299,-0.652 -12.922,1.719 -10.846,3.138C-9.563,4.014 -8.018,4.529 -6.356,4.529L-6.355,4.529C-3.034,4.529 -0.172,2.474 1.031,-0.425C0.776,-0.422 0.425,-0.422 0,-0.432" style="fill:rgb(226,179,132);fill-rule:nonzero;"/>
        </g>
        <g transform="matrix(1,0,0,1,435.21,257.476)">
            <path d="M0,7.216C-0.083,7.258 -0.166,7.299 -0.249,7.341C-1.332,7.883 -2.286,6.256 -1.2,5.714C-1.117,5.672 -1.034,5.63 -0.951,5.589C0.132,5.047 1.085,6.674 0,7.216M-48.53,7.47C-49.745,7.47 -49.743,5.585 -48.53,5.585L-48.405,5.585C-47.19,5.585 -47.192,7.47 -48.405,7.47L-48.53,7.47ZM-44.91,9.092C-46.125,9.092 -46.123,7.207 -44.91,7.207C-43.696,7.207 -43.698,9.092 -44.91,9.092M-44.661,6.097C-45.876,6.097 -45.873,4.212 -44.661,4.212C-43.446,4.212 -43.448,6.097 -44.661,6.097M-41.79,7.22C-43.005,7.22 -43.003,5.335 -41.79,5.335C-40.575,5.335 -40.577,7.22 -41.79,7.22M-7.84,7.47L-7.965,7.47C-9.179,7.47 -9.177,5.585 -7.965,5.585L-7.84,5.585C-6.625,5.585 -6.627,7.47 -7.84,7.47M-3.179,3.988C-2.32,4.848 -3.653,6.18 -4.512,5.321L-4.637,5.196C-4.895,4.939 -4.939,4.641 -4.874,4.369C-4.722,3.738 -3.904,3.264 -3.304,3.864C-3.274,3.893 -3.245,3.922 -3.217,3.951C-3.204,3.964 -3.191,3.977 -3.179,3.988M-2.029,8.525L-2.029,8.65C-2.029,9.864 -3.914,9.862 -3.914,8.65L-3.914,8.525C-3.914,7.31 -2.029,7.312 -2.029,8.525M-12.24,-7.66C-11.712,-8.384 -11.05,-9.011 -10.285,-9.503C-10.269,-9.513 -10.25,-9.522 -10.233,-9.533C-9.063,-10.272 -7.662,-10.705 -6.154,-10.705C-4.647,-10.705 -3.247,-10.272 -2.076,-9.533C-1.523,-9.184 -1.026,-8.763 -0.59,-8.29C-0.329,-8.007 -0.092,-7.705 0.119,-7.385C0.312,-7.092 0.486,-6.785 0.634,-6.466C1.041,-5.585 1.272,-4.612 1.272,-3.587C1.272,0.345 -2.053,3.532 -6.154,3.532C-7.684,3.532 -9.104,3.088 -10.285,2.329C-12.272,1.052 -13.581,-1.121 -13.581,-3.587C-13.581,-4.328 -13.463,-5.042 -13.243,-5.714C-13.134,-6.05 -12.991,-6.372 -12.833,-6.685C-12.661,-7.026 -12.465,-7.352 -12.24,-7.66M-47.458,-5.758C-47.029,-7.042 -46.229,-8.166 -45.181,-9.018C-44.953,-9.203 -44.714,-9.375 -44.464,-9.533C-43.293,-10.272 -41.893,-10.705 -40.386,-10.705C-38.879,-10.705 -37.479,-10.272 -36.308,-9.533C-35.136,-8.793 -34.199,-7.743 -33.617,-6.506C-33.477,-6.208 -33.357,-5.899 -33.261,-5.581C-33.167,-5.276 -33.099,-4.961 -33.05,-4.639C-32.996,-4.295 -32.959,-3.945 -32.959,-3.587C-32.959,0.345 -36.284,3.532 -40.386,3.532C-42.215,3.532 -43.887,2.896 -45.181,1.845C-46.789,0.538 -47.813,-1.408 -47.813,-3.587C-47.813,-3.673 -47.802,-3.756 -47.799,-3.841C-47.787,-4.167 -47.753,-4.487 -47.696,-4.802C-47.638,-5.128 -47.562,-5.448 -47.458,-5.758M-24.712,21.088C-24.895,20.872 -24.872,20.498 -24.612,20.359C-24.496,20.149 -24.237,20.001 -23.959,20.131C-22.731,20.703 -21.024,20.854 -19.881,20.026C-19.536,19.776 -19.209,20.104 -19.208,20.443C-19.207,20.483 -19.212,20.523 -19.224,20.565C-19.234,20.608 -19.244,20.651 -19.269,20.691C-19.27,20.692 -19.269,20.694 -19.27,20.695C-19.517,21.104 -19.821,21.415 -20.146,21.676C-20.331,21.823 -20.521,21.949 -20.723,22.05C-20.759,22.133 -20.818,22.206 -20.915,22.252C-20.995,22.289 -21.075,22.312 -21.155,22.342C-21.687,22.539 -22.224,22.57 -22.786,22.372C-22.952,22.314 -23.106,22.237 -23.255,22.153C-23.324,22.124 -23.393,22.098 -23.461,22.065C-23.86,21.872 -24.234,21.587 -24.573,21.222C-24.618,21.173 -24.669,21.14 -24.712,21.088M-25.288,7.915C-25.38,7.637 -25.402,7.442 -25.402,7.442L-18.838,7.179C-18.838,7.179 -18.871,7.496 -19.024,7.915C-19.048,7.983 -19.075,8.05 -19.106,8.121C-19.462,8.935 -20.274,9.981 -22.12,9.981C-24.117,9.981 -24.905,8.873 -25.212,8.121C-25.241,8.049 -25.268,7.981 -25.288,7.915M-25.402,5.779C-25.49,5.429 -22.12,-3.708 -22.12,-3.708L-18.838,5.516L-25.402,5.779ZM12.127,-6.021C12.126,-6.386 12.116,-6.731 12.111,-7.088C12.107,-7.404 12.104,-7.722 12.098,-8.032C12.092,-8.317 12.094,-8.619 12.085,-8.899C12.085,-8.925 12.083,-8.949 12.082,-8.974C12.076,-9.166 12.063,-9.343 12.057,-9.533C12.053,-9.641 12.047,-9.744 12.042,-9.851C12.039,-9.928 12.035,-10.002 12.032,-10.077C11.866,-10.071 11.692,-10.104 11.513,-10.239C11.371,-10.345 11.242,-10.455 11.109,-10.564C11.065,-10.6 11.02,-10.636 10.977,-10.672C10.927,-10.714 10.872,-10.754 10.823,-10.796C9.115,-12.01 7.926,-13.797 7.163,-15.282C6.4,-16.768 6.064,-17.951 6.064,-17.951C6.064,-17.951 5.056,-15.665 1.272,-16.809C-2.512,-17.953 -3.521,-21.092 -3.521,-21.092L-7.84,-21.75C-8.829,-21.901 -9.628,-22.149 -10.285,-22.439C-12.494,-23.413 -13.005,-24.879 -13.005,-24.879C-13.005,-24.879 -15.426,-21.792 -19.677,-22.379C-23.929,-22.965 -25.733,-25.726 -25.733,-25.726C-25.733,-25.726 -26.383,-24.317 -27.733,-22.993C-28.831,-21.916 -30.392,-20.895 -32.456,-20.736C-37.058,-20.38 -40.105,-24.068 -40.105,-24.068C-40.105,-24.068 -41.158,-21.968 -43.647,-20.736C-44.139,-20.492 -44.661,-20.32 -45.181,-20.197C-47.294,-19.697 -49.386,-20.039 -49.386,-20.039C-49.386,-20.039 -49.736,-17.766 -51.137,-15.56C-51.842,-14.45 -53.803,-13.093 -55.575,-12.019C-56.065,-11.566 -56.589,-11.146 -57.146,-10.761C-57.175,-10.741 -57.203,-10.72 -57.232,-10.7C-57.531,-10.497 -57.837,-10.304 -58.153,-10.121C-58.157,-10.03 -58.162,-9.94 -58.166,-9.848C-58.171,-9.742 -58.177,-9.639 -58.182,-9.533C-58.19,-9.314 -58.205,-9.107 -58.212,-8.885C-58.246,-7.856 -58.266,-6.8 -58.266,-5.705C-58.266,-5.524 -58.258,-5.353 -58.256,-5.175C-58.254,-4.856 -58.246,-4.545 -58.239,-4.232C-58.232,-3.914 -58.232,-3.588 -58.222,-3.275C-58.144,-1.046 -57.948,1.032 -57.659,2.987C-57.604,3.097 -57.586,3.217 -57.611,3.328C-57.453,4.348 -57.269,5.331 -57.057,6.279C-56.984,6.6 -56.906,6.913 -56.828,7.227C-56.751,7.533 -56.676,7.843 -56.594,8.142C-52.939,21.397 -43.626,27.106 -32.092,28.86C-31.782,28.906 -31.471,28.948 -31.159,28.989C-31.167,29.049 -31.18,29.108 -31.187,29.168C-31.196,29.262 -31.2,29.358 -31.208,29.452C-31.121,29.368 -30.781,29.298 -30.245,29.24C-30.04,29.218 -29.802,29.197 -29.546,29.179C-28.946,29.239 -28.342,29.29 -27.733,29.332C-27.716,29.334 -27.699,29.335 -27.682,29.336C-26.169,29.44 -24.63,29.494 -23.067,29.494C-21.604,29.494 -20.163,29.442 -18.743,29.346C-17.907,29.289 -17.078,29.218 -16.26,29.125C-16.137,29.112 -16.013,29.098 -15.89,29.083L-15.809,29.882L-15.796,30L-15.692,31.016L-15.495,32.942C-15.352,32.365 -15.267,31.766 -15.257,31.149C-15.256,31.104 -15.25,31.061 -15.25,31.016L-15.25,30.048C-15.25,29.96 -15.26,29.876 -15.263,29.789C-15.27,29.581 -15.278,29.373 -15.301,29.169C-15.307,29.114 -15.318,29.061 -15.326,29.006C-15.015,28.965 -14.701,28.927 -14.393,28.88C-2.744,27.109 6.687,21.239 10.411,8.092C10.496,7.79 10.577,7.483 10.657,7.173C10.735,6.866 10.812,6.556 10.884,6.241C11.055,5.504 11.21,4.749 11.347,3.969C11.338,3.967 11.33,3.966 11.321,3.964C10.763,3.816 10.967,2.994 11.494,3.051C11.884,0.527 12.099,-2.215 12.122,-5.191C11.806,-5.396 11.856,-5.869 12.127,-6.021" style="fill:rgb(226,179,132);fill-rule:nonzero;"/>
        </g>
        <g transform="matrix(1,0,0,1,399.224,254.011)">
            <path d="M0,-0.242C0,2.033 -1.97,3.877 -4.399,3.877C-6.829,3.877 -8.799,2.033 -8.799,-0.242C-8.799,-0.344 -8.775,-0.439 -8.768,-0.54C-8.741,-0.875 -8.673,-1.197 -8.566,-1.506C-8.447,-1.849 -8.294,-2.178 -8.089,-2.474C-7.305,-3.608 -5.948,-4.361 -4.399,-4.361C-3.864,-4.361 -3.357,-4.258 -2.883,-4.094C-3.104,-3.857 -3.27,-3.574 -3.376,-3.261C-3.435,-3.089 -3.472,-2.91 -3.487,-2.723C-3.494,-2.655 -3.509,-2.589 -3.509,-2.519C-3.509,-2.262 -3.456,-2.017 -3.379,-1.786C-3.261,-1.433 -3.069,-1.117 -2.81,-0.862C-2.392,-0.453 -1.819,-0.198 -1.187,-0.198C-1.104,-0.198 -1.025,-0.215 -0.944,-0.223C-0.613,-0.259 -0.305,-0.36 -0.029,-0.519C-0.022,-0.426 0,-0.337 0,-0.242M2.726,-2.115C2.629,-2.433 2.51,-2.742 2.369,-3.04C1.787,-4.277 0.851,-5.327 -0.321,-6.067C-1.492,-6.806 -2.893,-7.24 -4.399,-7.24C-5.906,-7.24 -7.307,-6.806 -8.478,-6.067C-8.728,-5.909 -8.967,-5.737 -9.194,-5.552C-10.243,-4.7 -11.043,-3.576 -11.472,-2.292C-11.575,-1.982 -11.651,-1.662 -11.71,-1.336C-11.767,-1.021 -11.801,-0.701 -11.813,-0.375C-11.815,-0.29 -11.826,-0.207 -11.826,-0.121C-11.826,2.058 -10.803,4.004 -9.194,5.311C-7.9,6.362 -6.229,6.998 -4.399,6.998C-0.298,6.998 3.027,3.811 3.027,-0.121C3.027,-0.479 2.99,-0.829 2.937,-1.174C2.888,-1.495 2.819,-1.81 2.726,-2.115" style="fill:rgb(253,250,201);fill-rule:nonzero;"/>
        </g>
        <g transform="matrix(1,0,0,1,433.455,254.011)">
            <path d="M0,-0.242C0,2.033 -1.97,3.877 -4.399,3.877C-6.312,3.877 -7.924,2.728 -8.53,1.132C-8.693,0.7 -8.8,0.242 -8.8,-0.242C-8.8,-0.726 -8.693,-1.183 -8.53,-1.615C-8.421,-1.903 -8.285,-2.177 -8.114,-2.43C-7.855,-2.814 -7.528,-3.147 -7.152,-3.431C-6.396,-4.004 -5.447,-4.361 -4.399,-4.361C-3.873,-4.361 -3.375,-4.26 -2.906,-4.101C-3.035,-3.963 -3.143,-3.808 -3.235,-3.643C-3.302,-3.523 -3.357,-3.399 -3.402,-3.268C-3.467,-3.081 -3.507,-2.885 -3.521,-2.68C-3.525,-2.626 -3.537,-2.574 -3.537,-2.519C-3.537,-1.237 -2.498,-0.198 -1.217,-0.198C-1.123,-0.198 -1.034,-0.216 -0.943,-0.226C-0.612,-0.265 -0.305,-0.371 -0.031,-0.534C-0.023,-0.435 0,-0.342 0,-0.242M2.389,-3C2.241,-3.32 2.067,-3.626 1.874,-3.919C1.663,-4.239 1.426,-4.541 1.165,-4.824C0.729,-5.298 0.231,-5.718 -0.321,-6.067C-1.492,-6.806 -2.893,-7.24 -4.399,-7.24C-5.907,-7.24 -7.308,-6.806 -8.479,-6.067C-8.495,-6.056 -8.514,-6.048 -8.53,-6.037C-9.295,-5.545 -9.957,-4.918 -10.485,-4.195C-10.71,-3.887 -10.906,-3.56 -11.078,-3.219C-11.236,-2.906 -11.379,-2.584 -11.488,-2.248C-11.708,-1.576 -11.826,-0.862 -11.826,-0.121C-11.826,2.345 -10.518,4.518 -8.53,5.795C-7.349,6.554 -5.929,6.998 -4.399,6.998C-0.298,6.998 3.027,3.811 3.027,-0.121C3.027,-1.146 2.796,-2.119 2.389,-3" style="fill:rgb(253,250,201);fill-rule:nonzero;"/>
        </g>
        <g transform="matrix(1,0,0,1,409.808,253.769)">
            <path d="M0,9.486L6.564,9.223L3.282,0C3.282,0 -0.088,9.136 0,9.486" style="fill:rgb(253,250,201);fill-rule:nonzero;"/>
        </g>
        <g transform="matrix(1,0,0,1,397.902,302.012)">
            <path d="M0,-9.361C-3.01,-7.543 -5.266,-4.914 -6.664,-1.724C-6.771,-1.481 -6.884,-1.243 -6.98,-0.993C-7.418,0.139 -5.596,0.629 -5.163,-0.492C-5,-0.915 -4.814,-1.324 -4.615,-1.724C-3.375,-4.218 -1.457,-6.279 0.951,-7.733C1.988,-8.36 1.042,-9.99 0,-9.361" style="fill:rgb(244,114,56);fill-rule:nonzero;"/>
        </g>
        <g transform="matrix(1,0,0,1,449.495,256.052)">
            <path d="M0,0.782C0.036,0.62 0.079,0.45 0.121,0.277C0.261,-0.293 0.402,-0.906 0.335,-1.457C0.183,-2.69 -0.43,-3.093 -1.256,-3.414C-1.509,-3.512 -1.78,-3.604 -2.066,-3.707C-2.105,-3.722 -2.132,-3.746 -2.163,-3.767C-2.187,-0.79 -2.401,1.951 -2.791,4.475C-2.765,4.477 -2.741,4.472 -2.714,4.479C-2.509,4.534 -2.327,4.549 -2.155,4.546C-0.521,4.519 -0.289,2.088 0,0.782" style="fill:rgb(188,98,86);fill-rule:nonzero;"/>
        </g>
        <g transform="matrix(1,0,0,1,452.403,261.705)">
            <path d="M0,-11.592C-0.24,-11.918 -0.513,-12.218 -0.812,-12.492C-1.187,-12.833 -1.604,-13.127 -2.059,-13.368C-2.35,-13.523 -2.656,-13.655 -2.976,-13.761C-3.29,-13.867 -3.614,-13.955 -3.953,-14.009C-4.028,-14.022 -4.103,-14.025 -4.178,-14.034C-4.242,-14.042 -4.306,-14.049 -4.37,-14.055C-4.307,-14.05 -4.243,-14.044 -4.182,-14.046C-4.193,-14.073 -4.209,-14.095 -4.22,-14.123C-4.307,-14.341 -4.385,-14.556 -4.468,-14.773C-4.607,-14.514 -4.842,-14.337 -5.116,-14.308C-4.997,-14.253 -4.883,-14.189 -4.76,-14.139C-4.671,-14.103 -4.585,-14.084 -4.5,-14.069C-4.719,-14.084 -4.936,-14.089 -5.151,-14.08C-5.146,-13.973 -5.141,-13.87 -5.137,-13.761C-5.13,-13.572 -5.117,-13.395 -5.111,-13.203C-5.11,-13.177 -5.108,-13.154 -5.108,-13.128C-5.1,-12.848 -5.102,-12.546 -5.096,-12.26C-5.089,-11.95 -5.086,-11.633 -5.082,-11.317C-5.077,-10.96 -5.067,-10.614 -5.066,-10.25C-4.975,-10.302 -4.859,-10.319 -4.724,-10.27C-4.528,-10.198 -4.325,-10.127 -4.121,-10.055C-3.198,-9.725 -2.26,-9.329 -1.867,-8.383C-1.479,-7.446 -1.606,-6.382 -1.823,-5.376C-1.905,-4.998 -1.999,-4.627 -2.084,-4.275C-2.603,-2.126 -2.842,0.171 -5.27,-0.147C-5.45,-0.17 -5.641,-0.206 -5.847,-0.26C-5.983,0.52 -6.139,1.275 -6.31,2.012C-6.382,2.327 -6.458,2.637 -6.536,2.944C-6.379,2.966 -6.222,2.986 -6.064,2.995C-2.966,3.181 -0.147,0.975 0.353,-2.151L1.128,-6.99C1.397,-8.674 0.943,-10.314 0,-11.592" style="fill:rgb(188,98,86);fill-rule:nonzero;"/>
        </g>
        <g transform="matrix(1,0,0,1,419.518,289.602)">
            <path d="M0,-1.11L-0.104,-2.126L-0.116,-2.244L-0.197,-3.043C-0.32,-3.028 -0.444,-3.014 -0.567,-3.001C-1.386,-2.908 -2.215,-2.837 -3.051,-2.78C-4.471,-2.684 -5.912,-2.631 -7.375,-2.631C-8.938,-2.631 -10.477,-2.686 -11.989,-2.79C-12.007,-2.791 -12.023,-2.792 -12.041,-2.794C-12.649,-2.836 -13.254,-2.886 -13.854,-2.947C-14.109,-2.928 -14.348,-2.908 -14.553,-2.885C-15.089,-2.828 -15.429,-2.757 -15.516,-2.673C-15.529,-2.66 -15.546,-2.646 -15.546,-2.631C-15.537,-2.623 -15.527,-2.615 -15.519,-2.606C-15.442,-2.526 -15.361,-2.452 -15.283,-2.375C-15.194,-2.29 -15.106,-2.204 -15.015,-2.121C-14.881,-2.002 -14.744,-1.883 -14.603,-1.771C-14.438,-1.639 -14.269,-1.512 -14.095,-1.39C-13.459,-0.942 -12.767,-0.555 -12.041,-0.219C-8.255,1.534 -3.557,1.873 -1.195,1.923C-0.771,1.933 -0.419,1.933 -0.164,1.93C0.14,1.926 0.31,1.919 0.31,1.919L0.197,0.816L0,-1.11Z" style="fill:rgb(188,98,86);fill-rule:nonzero;"/>
        </g>
        <g transform="matrix(-1,0,0,1,386.68,264.947)">
            <path d="M-0.125,-1.885L-0,-1.885C1.213,-1.885 1.215,0 -0,0L-0.125,0C-1.338,0 -1.34,-1.885 -0.125,-1.885" style="fill:rgb(188,98,86);fill-rule:nonzero;"/>
        </g>
        <g transform="matrix(1,0,0,1,390.3,266.569)">
            <path d="M0,-1.885C-1.213,-1.885 -1.215,0 0,0C1.212,0 1.214,-1.885 0,-1.885" style="fill:rgb(188,98,86);fill-rule:nonzero;"/>
        </g>
        <g transform="matrix(1,0,0,1,390.549,263.573)">
            <path d="M0,-1.885C-1.212,-1.885 -1.215,0 0,0C1.213,0 1.215,-1.885 0,-1.885" style="fill:rgb(188,98,86);fill-rule:nonzero;"/>
        </g>
        <g transform="matrix(1,0,0,1,393.42,264.697)">
            <path d="M0,-1.885C-1.213,-1.885 -1.215,0 0,0C1.213,0 1.215,-1.885 0,-1.885" style="fill:rgb(188,98,86);fill-rule:nonzero;"/>
        </g>
        <g transform="matrix(-1,0,0,1,427.246,264.947)">
            <path d="M-0.124,-1.885L0.001,-1.885C1.213,-1.885 1.215,0 0.001,0L-0.124,0C-1.337,0 -1.339,-1.885 -0.124,-1.885" style="fill:rgb(188,98,86);fill-rule:nonzero;"/>
        </g>
        <g transform="matrix(1,0,0,1,432.031,262.931)">
            <path d="M0,-1.466C-0.013,-1.478 -0.025,-1.49 -0.038,-1.503C-0.066,-1.532 -0.096,-1.562 -0.125,-1.59C-0.726,-2.191 -1.543,-1.716 -1.695,-1.085C-1.761,-0.814 -1.716,-0.516 -1.458,-0.258L-1.333,-0.133C-0.475,0.725 0.858,-0.607 0,-1.466" style="fill:rgb(188,98,86);fill-rule:nonzero;"/>
        </g>
        <g transform="matrix(0,1,1,0,432.301,265.121)">
            <path d="M0.88,-1.005L1.005,-1.005C2.217,-1.005 2.22,0.88 1.005,0.88L0.88,0.88C-0.333,0.88 -0.335,-1.005 0.88,-1.005" style="fill:rgb(188,98,86);fill-rule:nonzero;"/>
        </g>
        <g transform="matrix(-0.928257,0.371939,0.371939,0.928257,435.26,264.624)">
            <path d="M0.35,-1.82C0.442,-1.812 0.535,-1.804 0.628,-1.796C1.837,-1.697 1.557,0.168 0.35,0.068C0.257,0.06 0.165,0.053 0.072,0.044C-1.136,-0.055 -0.857,-1.92 0.35,-1.82" style="fill:rgb(188,98,86);fill-rule:nonzero;"/>
        </g>
        <g transform="matrix(1,0,0,1,377.599,251.536)">
            <path d="M0,9.269C-0.032,9.41 -0.128,9.53 -0.321,9.562C-0.477,9.588 -0.618,9.6 -0.758,9.608C-3.311,9.76 -3.398,7.03 -3.708,4.831C-3.71,4.818 -3.711,4.805 -3.713,4.793C-3.801,4.164 -3.866,3.487 -3.851,2.841C-3.843,2.508 -3.814,2.183 -3.753,1.877C-3.681,1.524 -3.563,1.2 -3.393,0.915C-3.053,0.346 -2.491,-0.052 -1.594,-0.143C-1.445,-0.158 -1.292,-0.168 -1.126,-0.165C-0.735,-0.16 -0.601,0.23 -0.712,0.506C-0.755,0.639 -0.858,0.744 -1.011,0.786C-1.052,0.797 -1.091,0.812 -1.14,0.812C-1.168,0.812 -1.188,0.801 -1.214,0.797C-1.231,0.794 -1.249,0.79 -1.266,0.787C-1.376,0.79 -1.484,0.796 -1.582,0.814C-1.588,0.815 -1.593,0.817 -1.599,0.818C-2.236,0.935 -2.595,1.317 -2.78,1.825C-2.886,2.116 -2.938,2.446 -2.952,2.792C-2.979,3.472 -2.868,4.204 -2.772,4.793C-2.751,4.927 -2.73,5.056 -2.712,5.172C-2.543,6.25 -2.525,8.636 -0.934,8.679C-0.821,8.682 -0.701,8.675 -0.572,8.654C-0.323,8.611 -0.14,8.749 -0.048,8.928C-0.337,6.973 -0.532,4.895 -0.61,2.665C-0.621,2.353 -0.621,2.027 -0.628,1.708C-0.635,1.396 -0.643,1.084 -0.645,0.766C-0.646,0.587 -0.654,0.416 -0.654,0.236C-0.654,-0.859 -0.635,-1.916 -0.601,-2.944C-0.594,-3.166 -0.579,-3.373 -0.57,-3.592C-0.565,-3.699 -0.56,-3.802 -0.555,-3.907C-0.763,-3.896 -0.973,-3.874 -1.183,-3.84L-1.184,-3.84C-1.303,-3.821 -1.419,-3.791 -1.536,-3.765C-1.749,-3.718 -1.957,-3.66 -2.16,-3.592C-3.313,-3.204 -4.295,-2.49 -5.018,-1.57C-5.366,-1.127 -5.652,-0.639 -5.869,-0.116C-6.146,0.552 -6.311,1.271 -6.335,2.017C-6.345,2.332 -6.326,2.652 -6.286,2.973C-6.277,3.041 -6.275,3.11 -6.264,3.179L-5.489,8.019C-5.401,8.566 -5.236,9.081 -5.018,9.564C-4.104,11.583 -2.142,12.97 0.075,13.15C0.31,13.169 0.545,13.176 0.783,13.167C0.705,12.854 0.627,12.54 0.555,12.219C0.343,11.272 0.158,10.289 0,9.269" style="fill:rgb(188,98,86);fill-rule:nonzero;"/>
        </g>
        <g transform="matrix(1,0,0,1,415.329,279.834)">
            <path d="M0,-2.332C-1.144,-1.504 -2.851,-1.654 -4.078,-2.227C-4.356,-2.356 -4.615,-2.209 -4.731,-1.999C-4.991,-1.859 -5.014,-1.485 -4.831,-1.27C-4.788,-1.218 -4.737,-1.185 -4.692,-1.136C-4.354,-0.77 -3.979,-0.485 -3.58,-0.293C-3.512,-0.26 -3.443,-0.233 -3.374,-0.205C-3.226,-0.12 -3.071,-0.044 -2.905,0.015C-2.343,0.213 -1.807,0.182 -1.274,-0.016C-1.194,-0.046 -1.114,-0.068 -1.034,-0.105C-0.937,-0.151 -0.878,-0.225 -0.842,-0.308C-0.641,-0.408 -0.45,-0.534 -0.266,-0.682C0.06,-0.942 0.364,-1.254 0.611,-1.662C0.612,-1.664 0.611,-1.666 0.612,-1.667C0.638,-1.71 0.646,-1.751 0.657,-1.793C0.669,-1.835 0.674,-1.875 0.673,-1.915C0.671,-1.966 0.658,-2.015 0.639,-2.06C0.562,-2.335 0.294,-2.545 0,-2.332" style="fill:rgb(188,98,86);fill-rule:nonzero;"/>
        </g>
        <g transform="matrix(1,0,0,1,442.373,234.827)">
            <path d="M0,5.411C-0.309,4.189 -0.531,2.903 -0.755,1.568C-2.641,2.113 -4.332,1.8 -5.839,0.99C-7.152,0.285 -8.328,-0.783 -9.367,-1.98C-9.962,-2.664 -10.512,-3.385 -11.02,-4.101C-13.099,-3.161 -15.367,-3.042 -17.448,-3.71C-17.948,-3.871 -18.433,-4.082 -18.904,-4.332C-19.438,-4.614 -19.948,-4.954 -20.43,-5.349C-21.292,-4.887 -22.189,-4.547 -23.104,-4.332C-24.75,-3.943 -26.443,-3.949 -28.067,-4.332C-28.49,-4.431 -28.908,-4.556 -29.32,-4.707C-30.323,-5.074 -31.285,-5.588 -32.172,-6.252C-32.291,-6.319 -32.409,-6.386 -32.497,-6.442C-32.982,-5.589 -33.607,-4.897 -34.32,-4.332C-34.509,-4.183 -34.695,-4.031 -34.896,-3.902C-38.157,-1.791 -42.974,-2.185 -46.37,-4.332C-46.765,-4.581 -47.134,-4.858 -47.484,-5.152C-47.692,-4.876 -47.905,-4.602 -48.125,-4.332C-48.813,-3.488 -49.563,-2.689 -50.37,-1.98C-50.994,-1.432 -51.651,-0.939 -52.344,-0.524C-52.494,-0.434 -52.648,-0.352 -52.801,-0.269C-54.426,0.606 -56.226,1.041 -58.187,0.773C-58.344,4.58 -59.998,8.097 -62.738,10.63C-60.966,9.557 -59.005,8.2 -58.3,7.089C-56.899,4.883 -56.549,2.61 -56.549,2.61C-56.549,2.61 -54.457,2.952 -52.344,2.453C-51.824,2.329 -51.302,2.157 -50.811,1.913C-48.321,0.682 -47.269,-1.419 -47.269,-1.419C-47.269,-1.419 -44.221,2.269 -39.619,1.913C-37.555,1.754 -35.994,0.733 -34.896,-0.344C-33.546,-1.668 -32.896,-3.077 -32.896,-3.077C-32.896,-3.077 -31.092,-0.316 -26.84,0.27C-22.589,0.857 -20.168,-2.23 -20.168,-2.23C-20.168,-2.23 -19.657,-0.764 -17.448,0.21C-16.791,0.5 -15.992,0.748 -15.003,0.899L-10.685,1.557C-10.685,1.557 -9.675,4.696 -5.891,5.84C-2.107,6.984 -1.099,4.698 -1.099,4.698C-1.099,4.698 -0.763,5.881 0,7.368C0.763,8.852 1.952,10.64 3.66,11.853C1.591,10.044 0.618,7.855 0,5.411" style="fill:rgb(188,98,86);fill-rule:nonzero;"/>
        </g>
        <g transform="matrix(1,0,0,1,416.842,267.392)">
            <path d="M0,-2.693L0.049,-3.229L-7.556,-2.924L-7.503,-2.425C-7.486,-2.259 -7.437,-2.065 -7.373,-1.863C-7.041,-0.82 -6.034,0.536 -3.752,0.536C-1.62,0.536 -0.602,-0.752 -0.205,-1.848C-0.094,-2.154 -0.023,-2.449 0,-2.693" style="fill:rgb(188,98,86);fill-rule:nonzero;"/>
        </g>
        <g transform="matrix(1,0,0,1,426.597,233.176)">
            <path d="M0,-12.219C-0.891,-11.398 -2.227,-12.728 -1.333,-13.552C-1.054,-13.809 -0.762,-14.04 -0.462,-14.255C0.377,-14.855 1.292,-15.282 2.257,-15.542C3.38,-15.844 4.568,-15.916 5.786,-15.748C5.83,-15.741 5.873,-15.741 5.917,-15.735C5.951,-15.73 5.971,-15.711 6.002,-15.703C6.678,-15.535 6.728,-14.808 6.375,-14.327C6.171,-14.048 5.839,-13.853 5.415,-13.918C4.581,-14.044 3.753,-13.994 2.962,-13.804C1.87,-13.541 0.851,-13.004 0,-12.219M-20.937,-5.961C-22.456,-5.363 -24.082,-5.29 -25.661,-5.681C-26.84,-5.973 -26.338,-7.79 -25.16,-7.499C-23.886,-7.183 -22.656,-7.299 -21.438,-7.778C-20.308,-8.223 -19.821,-6.4 -20.937,-5.961M-51.808,-4.358C-52.438,-5.399 -50.808,-6.345 -50.18,-5.309C-49.669,-4.466 -48.859,-3.953 -47.937,-3.805C-47.666,-3.761 -47.388,-3.745 -47.103,-3.766C-46.56,-3.805 -46.275,-3.446 -46.22,-3.032C-46.18,-2.726 -46.268,-2.402 -46.49,-2.171C-46.639,-2.017 -46.837,-1.901 -47.103,-1.881C-47.571,-1.847 -48.032,-1.883 -48.478,-1.977C-49.85,-2.267 -51.063,-3.13 -51.808,-4.358M-24.234,-16.208C-24.254,-16.223 -24.276,-16.235 -24.296,-16.249C-25.825,-17.399 -27.905,-17.646 -29.661,-16.884C-30.316,-16.6 -30.909,-17.06 -31.06,-17.58C-31.161,-17.935 -31.062,-18.316 -30.612,-18.511C-28.083,-19.61 -25.418,-19.316 -23.198,-17.742C-23.101,-17.673 -22.998,-17.615 -22.902,-17.541C-22.443,-17.186 -22.52,-16.701 -22.819,-16.369C-23.146,-16.007 -23.74,-15.825 -24.234,-16.208M10.756,-23.247C7.738,-25.327 4.218,-25.803 0.759,-24.594C-0.391,-24.192 -0.88,-26.014 0.258,-26.411C4.14,-27.768 8.32,-27.209 11.708,-24.874C12.7,-24.19 11.757,-22.557 10.756,-23.247M15.499,-20.083C15.034,-19.955 14.645,-20.204 14.429,-20.587C14.014,-20.702 13.684,-20.99 13.684,-21.477C13.684,-21.94 14.12,-22.484 14.626,-22.419C15.39,-22.321 15.875,-21.962 16.157,-21.242C16.345,-20.766 15.95,-20.207 15.499,-20.083M-17.743,-28.265C-16.836,-28.769 -15.864,-29.128 -14.841,-29.306C-14.338,-29.393 -13.827,-29.178 -13.682,-28.648C-13.557,-28.191 -13.838,-27.575 -14.34,-27.489C-15.211,-27.337 -16.019,-27.067 -16.792,-26.637C-17.854,-26.048 -18.804,-27.676 -17.743,-28.265M-50.396,-17.538C-49.729,-17.579 -49.065,-17.508 -48.417,-17.347C-47.239,-17.055 -47.741,-15.238 -48.919,-15.53C-49.411,-15.652 -49.889,-15.685 -50.396,-15.654C-51.608,-15.578 -51.601,-17.464 -50.396,-17.538M22.871,-2.719C21.694,-2.414 21.196,-4.233 22.37,-4.536C23.151,-4.738 23.748,-5.408 23.782,-6.229C23.794,-6.498 23.904,-6.698 24.056,-6.847C24.584,-7.371 25.707,-7.173 25.667,-6.229C25.631,-5.367 25.303,-4.565 24.771,-3.931C24.289,-3.354 23.639,-2.917 22.871,-2.719M28.918,-16.603C24.206,-20.851 20.602,-18.48 20.602,-18.48C20.602,-18.48 19.966,-26.333 10.157,-29.474C0.349,-32.615 -5.635,-27.276 -5.635,-27.276C-5.635,-27.276 -8.775,-31.83 -14.63,-31.359C-20.485,-30.888 -24.346,-26.019 -24.346,-26.019C-24.346,-26.019 -28.564,-30.103 -36.541,-27.904C-44.517,-25.705 -45.841,-20.16 -45.841,-20.16C-45.841,-20.16 -55.578,-23.82 -58.877,-14.591C-62.175,-5.362 -56.05,-0.046 -56.05,-0.046C-56.05,-0.046 -56.245,12.742 -55.819,18.077C-55.706,19.498 -55.55,20.396 -55.333,20.377C-55.309,19.631 -55.145,18.912 -54.867,18.244C-54.65,17.72 -54.364,17.232 -54.016,16.789C-53.293,15.87 -52.312,15.156 -51.158,14.768C-50.955,14.699 -50.747,14.642 -50.534,14.594C-50.417,14.569 -50.301,14.539 -50.182,14.52L-50.181,14.52C-49.971,14.486 -49.761,14.464 -49.553,14.452C-49.549,14.361 -49.544,14.27 -49.54,14.179C-49.628,14.23 -49.711,14.285 -49.801,14.334C-50.06,14.476 -50.31,14.484 -50.528,14.411C-50.821,14.314 -51.041,14.063 -51.145,13.774C-51.17,13.704 -51.19,13.636 -51.199,13.564C-51.238,13.243 -51.123,12.911 -50.752,12.707C-50.653,12.653 -50.56,12.592 -50.463,12.535C-50.385,12.489 -50.306,12.443 -50.229,12.396C-49.942,12.221 -49.664,12.038 -49.396,11.843C-49.085,11.619 -48.788,11.382 -48.503,11.133C-45.826,8.797 -44.287,5.443 -44.288,1.778C-44.737,1.147 -44.25,0.027 -43.311,0.311C-41.24,0.938 -39.389,0.572 -37.755,-0.328C-37.507,-0.466 -37.264,-0.615 -37.024,-0.775C-36.87,-0.879 -36.718,-0.986 -36.567,-1.099C-35.947,-1.565 -35.364,-2.101 -34.817,-2.68C-34.147,-3.391 -33.531,-4.161 -32.974,-4.941C-32.766,-5.232 -32.475,-5.339 -32.188,-5.339C-31.851,-5.631 -31.344,-5.724 -30.935,-5.321C-28.131,-2.557 -22.01,-1.49 -19.12,-4.604C-18.673,-5.086 -18.297,-5.659 -18.029,-6.351C-17.734,-7.111 -16.815,-7.119 -16.382,-6.7C-16.163,-6.708 -15.935,-6.649 -15.728,-6.469C-15.056,-5.884 -14.316,-5.43 -13.544,-5.076C-10.918,-3.876 -7.85,-4 -5.249,-5.514C-4.974,-5.675 -4.708,-5.676 -4.48,-5.587C-4.23,-5.624 -3.963,-5.565 -3.726,-5.347C-3.105,-4.78 -2.408,-4.353 -1.672,-4.043C0.27,-3.226 2.501,-3.304 4.441,-4.362C4.476,-4.381 4.509,-4.379 4.543,-4.394C4.951,-4.639 5.537,-4.633 5.88,-4.128C6.198,-3.659 6.539,-3.169 6.9,-2.68C7.516,-1.85 8.194,-1.029 8.946,-0.328C9.263,-0.033 9.594,0.236 9.938,0.479C11.372,1.49 13.042,1.97 14.998,1.262C15.319,1.146 15.58,1.216 15.776,1.371C15.865,1.441 15.938,1.526 15.994,1.627C16.355,1.629 16.689,1.826 16.769,2.3C17.3,5.472 17.61,8.619 19.609,11.035C19.884,11.366 20.187,11.685 20.529,11.987C20.614,12.061 20.706,12.132 20.795,12.204C20.89,12.281 20.978,12.36 21.077,12.434C21.196,12.523 21.285,12.627 21.35,12.738C21.493,12.986 21.5,13.27 21.427,13.527C21.404,13.607 21.378,13.684 21.339,13.756C21.422,13.973 21.5,14.189 21.587,14.406C21.598,14.434 21.613,14.456 21.625,14.483C21.563,14.486 21.5,14.479 21.437,14.474C21.501,14.48 21.564,14.488 21.629,14.495C21.704,14.505 21.778,14.508 21.854,14.52C22.192,14.574 22.517,14.662 22.831,14.768C23.15,14.875 23.457,15.006 23.748,15.161C24.202,15.403 24.62,15.697 24.994,16.037L25.776,15.995L25.833,15.532L28.29,-4.681C28.29,-4.681 33.63,-12.355 28.918,-16.603" style="fill:rgb(132,81,35);fill-rule:nonzero;"/>
        </g>
        <g transform="matrix(1,0,0,1,447.287,247.636)">
            <path d="M0,-0.239C-0.015,-0.238 -0.03,-0.238 -0.045,-0.237C-0.042,-0.161 -0.038,-0.088 -0.035,-0.011C0.181,-0.019 0.397,-0.015 0.616,0C0.531,-0.014 0.445,-0.034 0.356,-0.07C0.233,-0.119 0.119,-0.183 0,-0.239" style="fill:rgb(132,81,35);fill-rule:nonzero;"/>
        </g>
        <g transform="matrix(1,0,0,1,409.876,228.524)">
            <path d="M0,-0.138C0.088,-0.083 0.206,-0.015 0.325,0.052C0.223,-0.025 0.125,-0.11 0.024,-0.19C0.016,-0.174 0.009,-0.154 0,-0.138" style="fill:rgb(132,81,35);fill-rule:nonzero;"/>
        </g>
        <g transform="matrix(-0.288653,0.957434,0.957434,0.288653,435.334,202.963)">
            <path d="M6.088,-7.021C6.796,-7.996 8.399,-7.001 7.683,-6.017C5.527,-3.054 4.966,0.454 6.088,3.944C6.458,5.101 4.624,5.533 4.254,4.385C2.997,0.469 3.669,-3.696 6.088,-7.021" style="fill:rgb(193,120,61);fill-rule:nonzero;"/>
        </g>
        <g transform="matrix(1,0,0,1,441.223,213.156)">
            <path d="M0,-2.399C-0.506,-2.464 -0.942,-1.92 -0.942,-1.457C-0.942,-0.97 -0.612,-0.682 -0.197,-0.566C0.019,-0.184 0.408,0.065 0.873,-0.063C1.324,-0.187 1.719,-0.746 1.531,-1.222C1.249,-1.941 0.764,-2.301 0,-2.399" style="fill:rgb(193,120,61);fill-rule:nonzero;"/>
        </g>
        <g transform="matrix(-0.444752,-0.895654,-0.895654,0.444752,401.51,225.179)">
            <path d="M-1.819,-3.17C-1.706,-1.866 -1.263,-0.714 -0.413,0.287C0.371,1.212 -1.033,2.47 -1.819,1.545C-2.871,0.304 -3.529,-1.185 -3.669,-2.811C-3.772,-4.006 -1.923,-4.381 -1.819,-3.17" style="fill:rgb(193,120,61);fill-rule:nonzero;"/>
        </g>
        <g transform="matrix(1,0,0,1,402.362,213.95)">
            <path d="M0,3.018C0.494,3.401 1.088,3.22 1.415,2.857C1.715,2.525 1.791,2.04 1.332,1.685C1.236,1.611 1.134,1.554 1.036,1.484C-1.184,-0.089 -3.849,-0.383 -6.378,0.715C-6.828,0.91 -6.927,1.291 -6.825,1.646C-6.675,2.166 -6.082,2.626 -5.427,2.342C-3.671,1.58 -1.591,1.828 -0.062,2.977C-0.042,2.992 -0.02,3.003 0,3.018" style="fill:rgb(193,120,61);fill-rule:nonzero;"/>
        </g>
        <g transform="matrix(1,0,0,1,411.756,207.041)">
            <path d="M0,-3.171C-1.023,-2.993 -1.995,-2.634 -2.902,-2.13C-3.963,-1.541 -3.014,0.087 -1.951,-0.503C-1.178,-0.932 -0.37,-1.202 0.501,-1.354C1.003,-1.441 1.284,-2.056 1.159,-2.513C1.014,-3.043 0.503,-3.258 0,-3.171" style="fill:rgb(193,120,61);fill-rule:nonzero;"/>
        </g>
        <g transform="matrix(0.650285,0.75969,0.75969,-0.650285,375.968,216.521)">
            <path d="M0.913,-0.474C1.219,-0.069 1.554,0.273 1.968,0.567C2.955,1.272 1.9,2.835 0.913,2.131C0.369,1.742 -0.116,1.284 -0.518,0.751C-1.246,-0.213 0.181,-1.444 0.913,-0.474" style="fill:rgb(193,120,61);fill-rule:nonzero;"/>
        </g>
        <g transform="matrix(1,0,0,1,432.599,221.565)">
            <path d="M0,-4.092C-0.031,-4.1 -0.051,-4.119 -0.085,-4.124C-0.129,-4.131 -0.172,-4.131 -0.216,-4.137C-1.434,-4.305 -2.622,-4.233 -3.745,-3.931C-4.71,-3.672 -5.625,-3.244 -6.464,-2.644C-6.764,-2.429 -7.056,-2.198 -7.335,-1.941C-8.229,-1.117 -6.893,0.213 -6.002,-0.608C-5.151,-1.393 -4.132,-1.93 -3.04,-2.193C-2.249,-2.383 -1.421,-2.433 -0.587,-2.307C-0.163,-2.242 0.169,-2.437 0.373,-2.717C0.726,-3.197 0.676,-3.925 0,-4.092" style="fill:rgb(193,120,61);fill-rule:nonzero;"/>
        </g>
        <g transform="matrix(1,0,0,1,450.652,230.239)">
            <path d="M0,-3.91C-0.151,-3.76 -0.262,-3.561 -0.273,-3.292C-0.308,-2.471 -0.904,-1.801 -1.686,-1.598C-2.859,-1.295 -2.361,0.523 -1.185,0.219C-0.417,0.021 0.233,-0.417 0.716,-0.993C1.247,-1.627 1.575,-2.43 1.611,-3.292C1.651,-4.235 0.528,-4.433 0,-3.91" style="fill:rgb(193,120,61);fill-rule:nonzero;"/>
        </g>
        <g transform="matrix(1,0,0,1,379.494,228.75)">
            <path d="M0,0.66C-0.285,0.681 -0.563,0.664 -0.834,0.621C-1.757,0.473 -2.566,-0.04 -3.077,-0.883C-3.705,-1.919 -5.335,-0.973 -4.705,0.068C-3.961,1.296 -2.747,2.159 -1.375,2.449C-0.93,2.543 -0.469,2.579 0,2.545C0.266,2.525 0.464,2.409 0.612,2.255C0.835,2.024 0.923,1.7 0.883,1.394C0.827,0.98 0.543,0.62 0,0.66" style="fill:rgb(193,120,61);fill-rule:nonzero;"/>
        </g>
        <g transform="matrix(1,0,0,1,453.978,280.988)">
            <path d="M0,-52.838L-2.411,-33.001C-3.269,-33.611 -4.271,-34.045 -5.379,-34.222C-5.514,-34.244 -5.647,-34.253 -5.781,-34.266C-5.792,-34.584 -5.797,-34.914 -5.81,-35.226L-6.032,-35.074C-6.097,-35.185 -6.186,-35.289 -6.305,-35.378C-6.404,-35.452 -6.492,-35.531 -6.587,-35.608C-6.676,-35.68 -6.768,-35.751 -6.853,-35.825C-7.195,-36.127 -7.498,-36.446 -7.772,-36.777C-9.771,-39.193 -10.082,-42.34 -10.613,-45.512C-10.692,-45.986 -11.026,-46.183 -11.388,-46.185C-11.444,-46.286 -11.517,-46.371 -11.605,-46.441C-11.802,-46.596 -12.063,-46.666 -12.384,-46.549C-14.34,-45.842 -16.01,-46.322 -17.444,-47.333C-17.788,-47.576 -18.119,-47.845 -18.436,-48.14C-19.187,-48.84 -19.866,-49.662 -20.481,-50.492C-20.843,-50.981 -21.184,-51.471 -21.502,-51.94C-21.845,-52.444 -22.431,-52.451 -22.839,-52.206C-22.873,-52.191 -22.906,-52.193 -22.94,-52.174C-24.881,-51.116 -27.112,-51.038 -29.054,-51.855C-29.79,-52.165 -30.487,-52.592 -31.107,-53.159C-31.345,-53.377 -31.612,-53.436 -31.862,-53.399C-32.09,-53.488 -32.355,-53.486 -32.631,-53.326C-35.231,-51.812 -38.3,-51.688 -40.926,-52.888C-41.698,-53.242 -42.438,-53.696 -43.109,-54.28C-43.316,-54.461 -43.545,-54.52 -43.764,-54.512C-44.197,-54.931 -45.116,-54.922 -45.411,-54.163C-45.679,-53.471 -46.055,-52.898 -46.502,-52.416C-49.392,-49.301 -55.513,-50.369 -58.316,-53.133C-58.726,-53.536 -59.232,-53.442 -59.569,-53.151C-59.856,-53.15 -60.147,-53.044 -60.355,-52.753C-60.913,-51.973 -61.529,-51.203 -62.199,-50.492C-62.746,-49.913 -63.329,-49.377 -63.949,-48.911C-64.1,-48.798 -64.252,-48.691 -64.406,-48.587C-64.646,-48.426 -64.889,-48.277 -65.137,-48.14C-66.771,-47.24 -68.622,-46.874 -70.692,-47.501C-71.632,-47.785 -72.119,-46.665 -71.67,-46.034C-71.669,-42.369 -73.208,-39.015 -75.885,-36.679C-76.17,-36.43 -76.467,-36.193 -76.777,-35.968C-77.046,-35.774 -77.324,-35.591 -77.61,-35.416C-77.688,-35.369 -77.767,-35.322 -77.845,-35.276C-77.941,-35.22 -78.035,-35.159 -78.134,-35.105C-78.505,-34.901 -78.62,-34.568 -78.581,-34.248C-78.572,-34.175 -78.552,-34.108 -78.526,-34.038C-80.117,-33.587 -81.449,-32.607 -82.358,-31.323C-82.544,-35.202 -82.582,-41.751 -82.489,-47.843L-82.484,-48.28L-82.812,-48.567C-83.041,-48.769 -88.4,-53.609 -85.371,-62.086C-84.521,-64.463 -83.137,-66.111 -81.255,-66.987C-80.031,-67.557 -78.728,-67.743 -77.547,-67.743C-75.349,-67.743 -73.58,-67.1 -73.554,-67.089L-72.564,-66.728L-72.308,-67.748C-72.256,-67.953 -70.96,-72.797 -63.672,-74.807C-56.361,-76.822 -52.539,-73.301 -52.383,-73.154L-51.638,-72.434L-50.99,-73.244C-50.954,-73.29 -47.297,-77.8 -41.937,-78.232C-36.728,-78.641 -33.907,-74.717 -33.792,-74.552L-33.188,-73.681L-32.392,-74.382C-32.16,-74.586 -26.651,-79.316 -17.512,-76.389C-8.465,-73.492 -7.746,-66.508 -7.721,-66.216L-7.587,-64.672L-6.271,-65.5C-6.146,-65.578 -3.163,-67.383 0.905,-63.715C4.941,-60.077 0.183,-53.1 0.134,-53.03L0,-52.838ZM-1.377,-26.422L-2.153,-21.583C-2.371,-20.221 -3.111,-19.023 -4.236,-18.209C-5.164,-17.538 -6.259,-17.215 -7.378,-17.239C-7.185,-17.948 -7.008,-18.678 -6.845,-19.429C-4.417,-19.112 -4.178,-21.409 -3.659,-23.557C-3.574,-23.91 -3.48,-24.281 -3.398,-24.659C-3.182,-25.665 -3.054,-26.729 -3.442,-27.666C-3.835,-28.612 -4.773,-29.007 -5.696,-29.338C-5.696,-29.785 -5.705,-30.212 -5.708,-30.651C-5.711,-30.966 -5.713,-31.284 -5.717,-31.595C-5.721,-31.849 -5.72,-32.115 -5.725,-32.365C-5.709,-32.363 -5.693,-32.364 -5.677,-32.361C-5.014,-32.255 -4.406,-32.018 -3.861,-31.695C-3.452,-31.452 -3.09,-31.15 -2.766,-30.81C-1.685,-29.677 -1.111,-28.084 -1.377,-26.422M-5.739,-28.35C-4.913,-28.029 -4.301,-27.626 -4.148,-26.393C-4.081,-25.842 -4.223,-25.229 -4.362,-24.659C-4.404,-24.486 -4.447,-24.316 -4.483,-24.154C-4.772,-22.848 -5.004,-20.417 -6.639,-20.39C-6.168,-22.821 -5.863,-25.473 -5.739,-28.35M-5.795,-33.406C-5.784,-33.378 -5.769,-33.356 -5.757,-33.329C-5.818,-33.326 -5.882,-33.333 -5.945,-33.338C-5.988,-33.34 -6.031,-33.344 -6.075,-33.352C-6.16,-33.366 -6.246,-33.386 -6.335,-33.421C-6.458,-33.471 -6.572,-33.535 -6.691,-33.591C-6.417,-33.62 -6.183,-33.796 -6.043,-34.056C-5.96,-33.839 -5.882,-33.623 -5.795,-33.406M-9.208,-17.605C-9.292,-17.296 -9.377,-16.986 -9.467,-16.684C-9.559,-16.378 -9.657,-16.082 -9.755,-15.783C-14.121,-2.422 -24.255,2.618 -33.373,4.292C-33.684,4.35 -33.995,4.407 -34.304,4.456C-34.617,4.507 -34.929,4.552 -35.239,4.595C-36.055,4.708 -36.855,4.795 -37.641,4.862C-39.111,4.986 -40.523,5.04 -41.836,5.04C-42.953,5.04 -44.429,4.988 -46.129,4.821C-46.253,4.808 -46.375,4.797 -46.502,4.784C-47.218,4.706 -47.973,4.607 -48.757,4.482C-49.063,4.434 -49.372,4.381 -49.687,4.325C-49.994,4.269 -50.301,4.214 -50.615,4.15C-58.961,2.449 -69.672,-2.376 -74.066,-15.556C-74.166,-15.856 -74.273,-16.147 -74.367,-16.456C-74.457,-16.755 -74.533,-17.075 -74.617,-17.383C-75.38,-20.177 -75.877,-23.311 -76.03,-26.839C-76.044,-27.152 -76.047,-27.476 -76.056,-27.795C-76.063,-28.109 -76.077,-28.417 -76.08,-28.737C-76.081,-28.9 -76.093,-29.051 -76.093,-29.216C-76.093,-30.304 -76.078,-31.356 -76.057,-32.385C-76.052,-32.609 -76.042,-32.823 -76.036,-33.044C-76.034,-33.142 -76.03,-33.238 -76.027,-33.335C-76.02,-33.628 -76.012,-33.923 -76.001,-34.212C-75.972,-34.232 -75.943,-34.252 -75.914,-34.272C-75.357,-34.658 -74.834,-35.078 -74.344,-35.53C-71.604,-38.064 -69.949,-41.58 -69.792,-45.388C-67.831,-45.119 -66.031,-45.554 -64.406,-46.43C-64.254,-46.512 -64.1,-46.594 -63.949,-46.684C-63.257,-47.1 -62.6,-47.593 -61.976,-48.14C-61.168,-48.85 -60.419,-49.649 -59.73,-50.492C-59.511,-50.762 -59.298,-51.036 -59.09,-51.313C-58.739,-51.018 -58.37,-50.741 -57.976,-50.492C-54.579,-48.345 -49.763,-47.952 -46.502,-50.062C-46.301,-50.192 -46.114,-50.343 -45.926,-50.492C-45.213,-51.057 -44.588,-51.75 -44.103,-52.602C-44.094,-52.618 -44.087,-52.638 -44.078,-52.654C-43.978,-52.574 -43.88,-52.489 -43.777,-52.412C-42.891,-51.748 -41.929,-51.235 -40.926,-50.868C-40.514,-50.717 -40.096,-50.592 -39.673,-50.492C-38.049,-50.109 -36.355,-50.104 -34.709,-50.492C-33.795,-50.708 -32.897,-51.048 -32.035,-51.51C-31.554,-51.114 -31.044,-50.775 -30.51,-50.492C-30.038,-50.243 -29.554,-50.031 -29.054,-49.871C-26.973,-49.203 -24.704,-49.322 -22.625,-50.261C-22.117,-49.546 -21.567,-48.824 -20.973,-48.14C-19.934,-46.944 -18.758,-45.876 -17.444,-45.171C-15.938,-44.361 -14.246,-44.048 -12.36,-44.593C-12.137,-43.257 -11.914,-41.972 -11.605,-40.75C-10.987,-38.306 -10.015,-36.117 -7.945,-34.308C-7.896,-34.265 -7.842,-34.225 -7.792,-34.183C-7.749,-34.147 -7.703,-34.112 -7.659,-34.076C-7.65,-33.804 -7.643,-33.53 -7.636,-33.254C-7.634,-33.183 -7.631,-33.115 -7.63,-33.044C-7.625,-32.839 -7.616,-32.643 -7.612,-32.436C-7.611,-32.387 -7.609,-32.342 -7.608,-32.293C-7.604,-32.032 -7.604,-31.757 -7.601,-31.493C-7.596,-31.182 -7.594,-30.864 -7.592,-30.548C-7.588,-30.108 -7.58,-29.681 -7.58,-29.23C-7.711,-24.818 -8.29,-20.974 -9.208,-17.605M-49.063,7.504L-49.063,6.537C-49.063,6.483 -49.057,6.431 -49.056,6.378C-49.056,6.369 -49.055,6.359 -49.055,6.349C-49.031,6.353 -49.008,6.356 -48.984,6.36C-48.117,6.495 -47.287,6.6 -46.502,6.679C-46.362,6.694 -46.222,6.708 -46.086,6.721C-44.409,6.876 -42.953,6.925 -41.836,6.925C-40.643,6.925 -39.262,6.875 -37.763,6.748C-36.87,6.672 -35.937,6.568 -34.967,6.426C-34.966,6.463 -34.961,6.499 -34.961,6.537L-34.961,7.504C-34.961,8.591 -35.215,9.618 -35.656,10.537C-36.793,12.911 -39.211,14.557 -42.012,14.557C-43.716,14.557 -45.281,13.949 -46.502,12.938C-48.065,11.643 -49.063,9.689 -49.063,7.504M-29.054,9.845C-25.138,12.133 -22.042,15.424 -20.251,19.3C-19.271,21.418 -18.682,23.711 -18.559,26.109L-65.467,26.109C-65.352,23.863 -64.82,21.712 -63.949,19.707C-63.891,19.572 -63.836,19.434 -63.774,19.3C-61.402,14.168 -56.748,10.059 -50.926,7.95C-50.772,11.052 -49.035,13.739 -46.502,15.219C-45.181,15.991 -43.649,16.441 -42.012,16.441C-37.235,16.441 -33.333,12.67 -33.099,7.95C-31.674,8.466 -30.321,9.104 -29.054,9.845M-77.962,-28.635C-77.959,-28.316 -77.945,-28.007 -77.938,-27.693C-77.929,-27.375 -77.926,-27.05 -77.912,-26.737C-77.821,-24.623 -77.622,-22.631 -77.313,-20.773C-78.905,-20.816 -78.923,-23.202 -79.092,-24.28C-79.11,-24.396 -79.131,-24.525 -79.152,-24.659C-79.248,-25.249 -79.358,-25.98 -79.332,-26.66C-79.318,-27.006 -79.266,-27.337 -79.16,-27.628C-78.975,-28.135 -78.616,-28.517 -77.979,-28.634C-77.973,-28.635 -77.968,-28.637 -77.962,-28.638L-77.962,-28.635ZM-78.855,-18.209C-79.98,-19.023 -80.721,-20.221 -80.938,-21.583L-81.397,-24.451L-81.713,-26.422C-81.719,-26.459 -81.715,-26.495 -81.72,-26.531C-81.765,-26.85 -81.784,-27.17 -81.769,-27.486C-81.754,-27.807 -81.713,-28.126 -81.638,-28.437C-81.581,-28.674 -81.488,-28.902 -81.397,-29.13C-81.238,-29.53 -81.047,-29.92 -80.787,-30.278C-80.083,-31.252 -79.082,-31.913 -77.946,-32.222C-77.964,-31.367 -77.971,-30.487 -77.974,-29.595C-78.871,-29.505 -79.433,-29.106 -79.772,-28.538C-79.942,-28.253 -80.061,-27.928 -80.133,-27.575C-80.194,-27.269 -80.223,-26.944 -80.23,-26.611C-80.246,-25.965 -80.181,-25.289 -80.093,-24.659C-80.091,-24.647 -80.09,-24.634 -80.088,-24.622C-79.778,-22.422 -79.69,-19.692 -77.138,-19.844C-76.973,-18.967 -76.784,-18.119 -76.573,-17.297C-77.385,-17.42 -78.167,-17.712 -78.855,-18.209M2.168,-65.115C-1.4,-68.332 -4.452,-68.11 -6.066,-67.618C-6.685,-70.105 -8.933,-75.62 -16.937,-78.183C-25.204,-80.832 -30.873,-77.768 -32.864,-76.389C-34.118,-77.773 -37.236,-80.5 -42.087,-80.11C-46.951,-79.719 -50.473,-76.561 -51.842,-75.121C-53.474,-76.263 -57.652,-78.422 -64.173,-76.624C-70.659,-74.836 -73.032,-70.942 -73.807,-69.137C-75.415,-69.563 -78.864,-70.171 -82.036,-68.702C-84.399,-67.607 -86.119,-65.595 -87.146,-62.72C-90.157,-54.293 -85.671,-48.817 -84.379,-47.47C-84.615,-31.402 -84.051,-27.981 -83.654,-27.096C-83.647,-26.775 -83.626,-26.451 -83.574,-26.125L-82.799,-21.285C-82.502,-19.426 -81.493,-17.793 -79.959,-16.682C-78.791,-15.837 -77.429,-15.388 -76.025,-15.348C-71.497,-0.991 -59.965,4.191 -51.036,5.998C-60.578,9.237 -67.375,17.45 -67.375,27.051L-67.375,27.994L-16.649,27.994L-16.649,27.051C-16.649,17.506 -23.367,9.335 -32.82,6.057C-23.708,4.265 -12.607,-0.985 -7.926,-15.385C-7.706,-15.365 -7.485,-15.333 -7.267,-15.333C-5.792,-15.333 -4.355,-15.796 -3.131,-16.682C-1.598,-17.793 -0.59,-19.426 -0.292,-21.285L0.483,-26.125C0.786,-28.013 0.304,-29.848 -0.719,-31.302L1.816,-52.156C2.682,-53.482 7.042,-60.719 2.168,-65.115" style="fill:rgb(47,40,57);fill-rule:nonzero;"/>
        </g>
        <g transform="matrix(1,0,0,1,394.824,247.712)">
            <path d="M0,12.354C-1.901,12.354 -3.608,11.565 -4.795,10.32C-5.841,9.223 -6.484,7.772 -6.484,6.177C-6.484,6.075 -6.473,5.974 -6.468,5.873C-6.451,5.545 -6.414,5.222 -6.346,4.911C-6.273,4.58 -6.167,4.26 -6.041,3.951C-5.751,3.238 -5.326,2.591 -4.795,2.035C-3.983,1.183 -2.928,0.548 -1.731,0.231C-1.179,0.085 -0.601,0.001 0,0.001C0.601,0.001 1.179,0.085 1.731,0.231C3.47,0.691 4.916,1.821 5.74,3.314C5.902,3.608 6.039,3.916 6.15,4.235C6.257,4.539 6.335,4.853 6.391,5.175C6.447,5.502 6.484,5.835 6.484,6.177C6.484,9.583 3.575,12.354 0,12.354M8.085,4.131C7.998,3.814 7.896,3.504 7.771,3.204C6.54,0.228 3.523,-1.884 0,-1.884C-3.853,-1.884 -7.097,0.641 -8.066,4.06C-8.154,4.372 -8.223,4.69 -8.271,5.014C-8.319,5.33 -8.35,5.649 -8.358,5.975C-8.359,6.042 -8.369,6.109 -8.369,6.177C-8.369,10.623 -4.614,14.238 0,14.238C4.614,14.238 8.369,10.623 8.369,6.177C8.369,5.801 8.333,5.435 8.281,5.073C8.234,4.752 8.169,4.438 8.085,4.131" style="fill:rgb(47,40,57);fill-rule:nonzero;"/>
        </g>
        <g transform="matrix(1,0,0,1,400.028,254.875)">
            <path d="M0,-2.213C-0.062,-2.106 -0.134,-2.007 -0.213,-1.911C-0.388,-1.7 -0.596,-1.523 -0.834,-1.384C-1.109,-1.225 -1.418,-1.123 -1.749,-1.088C-1.76,0.655 -3.305,2.07 -5.204,2.07C-7.11,2.07 -8.661,0.645 -8.661,-1.107C-8.661,-1.226 -8.637,-1.339 -8.623,-1.455C-8.581,-1.798 -8.49,-2.125 -8.34,-2.426C-8.152,-2.799 -7.892,-3.132 -7.569,-3.411C-6.95,-3.948 -6.121,-4.283 -5.204,-4.283C-4.846,-4.283 -4.507,-4.218 -4.181,-4.125C-4.074,-4.439 -3.908,-4.722 -3.688,-4.959C-3.43,-5.236 -3.105,-5.445 -2.739,-5.57C-3.48,-5.939 -4.311,-6.168 -5.204,-6.168C-7.319,-6.168 -9.135,-4.988 -9.999,-3.295C-10.002,-3.289 -10.006,-3.284 -10.009,-3.279C-10.163,-2.973 -10.287,-2.652 -10.375,-2.316C-10.456,-2.005 -10.503,-1.684 -10.52,-1.353C-10.524,-1.27 -10.546,-1.191 -10.546,-1.107C-10.546,-0.319 -10.339,0.417 -9.999,1.082C-9.135,2.775 -7.319,3.955 -5.204,3.955C-2.259,3.955 0.138,1.684 0.138,-1.107C0.138,-1.387 0.097,-1.657 0.051,-1.926C0.034,-2.022 0.022,-2.119 0,-2.213" style="fill:rgb(47,40,57);fill-rule:nonzero;"/>
        </g>
        <g transform="matrix(1,0,0,1,429.056,247.712)">
            <path d="M0,12.354C-1.568,12.354 -3.008,11.821 -4.131,10.935C-5.567,9.801 -6.485,8.089 -6.485,6.177C-6.485,5.409 -6.33,4.674 -6.059,3.995C-5.923,3.654 -5.757,3.328 -5.562,3.019C-5.341,2.666 -5.084,2.336 -4.795,2.034C-4.587,1.816 -4.368,1.608 -4.131,1.42C-3.438,0.874 -2.621,0.467 -1.731,0.231C-1.179,0.085 -0.601,0.001 0,0.001C0.601,0.001 1.179,0.085 1.731,0.231C2.686,0.484 3.55,0.937 4.273,1.544C4.596,1.814 4.889,2.114 5.15,2.44C5.38,2.727 5.585,3.031 5.761,3.354C6.22,4.202 6.484,5.16 6.484,6.177C6.484,9.583 3.575,12.354 0,12.354M7.347,2.321C7.166,2.002 6.956,1.702 6.733,1.411C5.209,-0.583 2.762,-1.884 0,-1.884C-3.099,-1.884 -5.803,-0.25 -7.249,2.166C-7.437,2.478 -7.604,2.801 -7.747,3.137C-7.88,3.45 -7.987,3.774 -8.079,4.104C-8.263,4.767 -8.369,5.459 -8.369,6.177C-8.369,10.623 -4.615,14.238 0,14.238C0.437,14.238 0.861,14.196 1.28,14.133C1.854,14.048 2.408,13.908 2.938,13.715C6.105,12.566 8.369,9.625 8.369,6.177C8.369,5.142 8.158,4.155 7.787,3.244C7.658,2.927 7.515,2.617 7.347,2.321" style="fill:rgb(47,40,57);fill-rule:nonzero;"/>
        </g>
        <g transform="matrix(1,0,0,1,433.424,254.061)">
            <path d="M0,-0.584C-0.273,-0.421 -0.581,-0.315 -0.912,-0.276C-0.922,1.468 -2.467,2.885 -4.368,2.885C-6.274,2.885 -7.826,1.46 -7.826,-0.292C-7.826,-1.175 -7.431,-1.974 -6.795,-2.551C-6.17,-3.117 -5.313,-3.469 -4.368,-3.469C-4.02,-3.469 -3.689,-3.407 -3.371,-3.318C-3.326,-3.449 -3.271,-3.573 -3.204,-3.693C-3.111,-3.858 -3.004,-4.013 -2.875,-4.151C-2.66,-4.38 -2.402,-4.568 -2.11,-4.695C-2.048,-4.723 -1.98,-4.739 -1.914,-4.761C-2.652,-5.127 -3.479,-5.354 -4.368,-5.354C-5.521,-5.354 -6.583,-4.997 -7.457,-4.406C-7.851,-4.14 -8.194,-3.818 -8.499,-3.462C-8.516,-3.442 -8.533,-3.424 -8.55,-3.404C-8.803,-3.1 -9.023,-2.774 -9.198,-2.42C-9.519,-1.771 -9.711,-1.055 -9.711,-0.292C-9.711,0.914 -9.245,2.008 -8.499,2.879C-7.519,4.022 -6.041,4.77 -4.368,4.77C-1.422,4.77 0.974,2.499 0.974,-0.292C0.974,-0.686 0.916,-1.064 0.825,-1.432C0.627,-1.082 0.345,-0.791 0,-0.584" style="fill:rgb(47,40,57);fill-rule:nonzero;"/>
        </g>
        <g transform="matrix(1,0,0,1,390.057,242.093)">
            <path d="M0,1.884L9.735,1.884C10.256,1.884 10.678,1.462 10.678,0.942C10.678,0.422 10.256,0 9.735,0L0,0C-0.521,0 -0.942,0.422 -0.942,0.942C-0.942,1.462 -0.521,1.884 0,1.884" style="fill:rgb(47,40,57);fill-rule:nonzero;"/>
        </g>
        <g transform="matrix(1,0,0,1,424.646,242.093)">
            <path d="M0,1.884L9.735,1.884C10.257,1.884 10.678,1.462 10.678,0.942C10.678,0.422 10.257,0 9.735,0L0,0C-0.521,0 -0.942,0.422 -0.942,0.942C-0.942,1.462 -0.521,1.884 0,1.884" style="fill:rgb(47,40,57);fill-rule:nonzero;"/>
        </g>
        <g transform="matrix(1,0,0,1,416.372,265.598)">
            <path d="M0,-1.885L-6.565,-1.885C-7.086,-1.885 -7.508,-1.463 -7.508,-0.943C-7.508,-0.542 -7.256,-0.205 -6.903,-0.069C-6.798,-0.028 -6.686,0 -6.565,0L0,0C0.094,0 0.18,-0.029 0.265,-0.054C0.653,-0.17 0.942,-0.516 0.942,-0.943C0.942,-1.463 0.521,-1.885 0,-1.885" style="fill:rgb(47,40,57);fill-rule:nonzero;"/>
        </g>
        <g transform="matrix(1,0,0,1,415.707,275.799)">
            <path d="M0,-2.709C-0.271,-2.442 -2.715,-0.177 -5.232,-2.705C-5.6,-3.074 -6.197,-3.076 -6.564,-2.709C-6.934,-2.342 -6.936,-1.744 -6.568,-1.376C-5.417,-0.219 -4.129,0.367 -2.739,0.367C-0.43,0.367 1.262,-1.305 1.333,-1.376C1.698,-1.743 1.697,-2.336 1.331,-2.704C0.964,-3.071 0.367,-3.073 0,-2.709" style="fill:rgb(47,40,57);fill-rule:nonzero;"/>
        </g>
    </g>
</svg>
