<?xml version="1.0" encoding="UTF-8" standalone="no"?>
<!DOCTYPE svg PUBLIC "-//W3C//DTD SVG 1.1//EN" "http://www.w3.org/Graphics/SVG/1.1/DTD/svg11.dtd">
<svg width="100%" height="100%" viewBox="0 0 130 130" version="1.1" xmlns="http://www.w3.org/2000/svg" xmlns:xlink="http://www.w3.org/1999/xlink" xml:space="preserve" xmlns:serif="http://www.serif.com/" style="fill-rule:evenodd;clip-rule:evenodd;stroke-linejoin:round;stroke-miterlimit:2;">
    <g transform="matrix(1,0,0,1,-11.7062,-320.503)">
        <g transform="matrix(1,0,0,1,98.2832,427.843)">
            <path d="M0,11.441C-0.269,10.315 -0.64,9.223 -1.098,8.17C-3.008,3.784 -6.487,0.09 -10.932,-2.375C-12.199,-3.079 -13.544,-3.68 -14.954,-4.17C-15.265,-4.279 -15.579,-4.381 -15.896,-4.479L-15.896,-3.626C-15.896,-3.581 -15.902,-3.538 -15.903,-3.493C-15.913,-2.875 -15.998,-2.277 -16.142,-1.7L-16.05,-0.796L-16.03,-0.597C-16.03,-0.597 -16.199,-0.589 -16.503,-0.586C-17.706,2.314 -20.569,4.368 -23.891,4.368C-25.552,4.368 -27.098,3.853 -28.379,2.977C-30.456,1.558 -31.833,-0.812 -31.878,-3.493C-31.878,-3.538 -31.885,-3.581 -31.885,-3.626L-31.885,-4.479C-32.202,-4.381 -32.516,-4.279 -32.827,-4.17C-38.512,-2.192 -43.156,1.613 -45.828,6.431C-46.142,6.997 -46.425,7.578 -46.683,8.17C-47.73,10.576 -48.311,13.187 -48.311,15.92L0.53,15.92C0.53,14.384 0.345,12.886 0,11.441" style="fill:rgb(129,172,171);fill-rule:nonzero;"/>
        </g>
        <g transform="matrix(1,0,0,1,57.2505,385.375)">
            <path d="M0,8.237C2.43,8.237 4.4,6.393 4.4,4.118C4.4,4.023 4.377,3.934 4.37,3.841C4.095,4 3.787,4.101 3.456,4.136C3.375,4.145 3.295,4.162 3.212,4.162C1.93,4.162 0.891,3.123 0.891,1.841C0.891,1.58 0.944,1.334 1.023,1.099C1.13,0.786 1.296,0.503 1.517,0.266C1.042,0.102 0.536,0 0,0C-2.43,0 -4.399,1.843 -4.399,4.118C-4.399,6.393 -2.43,8.237 0,8.237" style="fill:rgb(129,172,171);fill-rule:nonzero;"/>
        </g>
        <g transform="matrix(1,0,0,1,91.4819,385.375)">
            <path d="M0,8.237C2.43,8.237 4.4,6.393 4.4,4.118C4.4,4.018 4.376,3.925 4.368,3.826C4.095,3.989 3.787,4.094 3.456,4.133C3.365,4.144 3.276,4.162 3.183,4.162C1.901,4.162 0.862,3.123 0.862,1.841C0.862,1.577 0.916,1.328 0.997,1.091C1.104,0.779 1.272,0.496 1.493,0.259C1.025,0.1 0.527,0 0,0C-1.913,0 -3.524,1.149 -4.13,2.745C-4.294,3.176 -4.4,3.633 -4.4,4.118C-4.4,4.602 -4.294,5.06 -4.13,5.492C-3.524,7.088 -1.913,8.237 0,8.237" style="fill:rgb(129,172,171);fill-rule:nonzero;"/>
        </g>
        <g transform="matrix(1,0,0,1,80.749,427.681)">
            <path d="M0,-0.43C-2.361,-0.481 -7.06,-0.82 -10.845,-2.574C-11.571,-2.909 -12.264,-3.296 -12.899,-3.743C-13.073,-3.867 -13.243,-3.993 -13.408,-4.125C-13.549,-4.239 -13.686,-4.356 -13.82,-4.475C-13.912,-4.558 -14,-4.644 -14.088,-4.729C-14.167,-4.806 -14.248,-4.88 -14.323,-4.96C-14.328,-4.899 -14.33,-4.836 -14.333,-4.775C-14.338,-4.66 -14.351,-4.548 -14.351,-4.432L-14.351,-3.464C-14.351,-3.419 -14.344,-3.375 -14.344,-3.33C-14.299,-0.65 -12.922,1.72 -10.845,3.139C-9.563,4.015 -8.018,4.53 -6.356,4.53C-3.035,4.53 -0.172,2.476 1.031,-0.424C0.776,-0.421 0.425,-0.421 0,-0.43" style="fill:rgb(226,179,132);fill-rule:nonzero;"/>
        </g>
        <g transform="matrix(1,0,0,1,49.1064,391.006)">
            <path d="M0,7.78L0.125,7.78C1.339,7.78 1.337,9.665 0.125,9.665L0,9.665C-1.215,9.665 -1.213,7.78 0,7.78M3.62,11.287C2.405,11.287 2.407,9.403 3.62,9.403C4.834,9.403 4.833,11.287 3.62,11.287M3.869,8.292C2.654,8.292 2.657,6.407 3.869,6.407C5.084,6.407 5.082,8.292 3.869,8.292M6.74,9.415C5.525,9.415 5.527,7.53 6.74,7.53C7.955,7.53 7.953,9.415 6.74,9.415M3.349,-6.823C3.577,-7.008 3.815,-7.18 4.066,-7.338C5.237,-8.077 6.637,-8.51 8.144,-8.51C9.651,-8.51 11.052,-8.077 12.223,-7.338C14.238,-6.065 15.571,-3.878 15.571,-1.392C15.571,2.54 12.246,5.727 8.144,5.727C6.315,5.727 4.643,5.091 3.349,4.04C1.741,2.734 0.718,0.787 0.718,-1.392C0.718,-3.57 1.741,-5.517 3.349,-6.823M26.41,-1.513L29.692,7.712L23.127,7.974C23.04,7.624 26.41,-1.513 26.41,-1.513M47.33,7.909C47.413,7.867 47.496,7.826 47.579,7.784C48.662,7.243 49.615,8.869 48.53,9.411C48.447,9.453 48.364,9.495 48.281,9.536C47.198,10.078 46.245,8.451 47.33,7.909M40.69,9.665L40.565,9.665C39.351,9.665 39.353,7.78 40.565,7.78L40.69,7.78C41.905,7.78 41.903,9.665 40.69,9.665M45.351,6.183C46.21,7.043 44.877,8.375 44.018,7.516C43.977,7.474 43.935,7.433 43.894,7.391C43.635,7.134 43.591,6.837 43.656,6.565C43.808,5.933 44.625,5.458 45.226,6.059C45.255,6.089 45.285,6.118 45.314,6.147C45.327,6.159 45.339,6.172 45.351,6.183M46.5,10.719L46.5,10.844C46.5,12.059 44.616,12.057 44.616,10.844L44.616,10.719C44.616,9.505 46.5,9.507 46.5,10.719M38.245,-7.308C38.262,-7.319 38.28,-7.327 38.297,-7.338C39.468,-8.077 40.868,-8.51 42.375,-8.51C43.883,-8.51 45.283,-8.077 46.454,-7.338C48.47,-6.065 49.802,-3.878 49.802,-1.392C49.802,2.54 46.477,5.727 42.375,5.727C40.847,5.727 39.426,5.284 38.245,4.524C36.258,3.247 34.949,1.075 34.949,-1.392C34.949,-3.858 36.258,-6.03 38.245,-7.308M28.383,23.871C28.199,24.019 28.008,24.144 27.807,24.245C27.771,24.328 27.711,24.401 27.615,24.447C27.603,24.452 27.59,24.455 27.578,24.461C27.511,24.491 27.443,24.511 27.375,24.537C26.842,24.734 26.307,24.765 25.744,24.567C25.578,24.509 25.424,24.432 25.274,24.347C25.206,24.319 25.138,24.293 25.069,24.259C24.67,24.067 24.295,23.782 23.957,23.417C23.912,23.368 23.861,23.335 23.817,23.283C23.635,23.067 23.658,22.693 23.918,22.553C24.034,22.343 24.293,22.196 24.571,22.326C25.799,22.898 27.505,23.049 28.649,22.22C28.995,21.969 29.322,22.3 29.322,22.639C29.323,22.676 29.32,22.711 29.311,22.748C29.3,22.795 29.288,22.843 29.262,22.885C29.261,22.887 29.261,22.888 29.26,22.89C29.174,23.032 29.069,23.142 28.973,23.266C28.792,23.499 28.596,23.701 28.383,23.871M29.506,10.11C29.482,10.177 29.455,10.246 29.423,10.317C29.068,11.131 28.255,12.176 26.41,12.176C24.414,12.176 23.626,11.069 23.318,10.317C23.289,10.244 23.263,10.176 23.242,10.11C23.15,9.832 23.127,9.636 23.127,9.636L29.692,9.375C29.692,9.375 29.659,9.692 29.506,10.11M60.657,-3.826C60.654,-4.811 60.643,-5.777 60.615,-6.706C60.611,-6.865 60.6,-7.009 60.595,-7.165C60.31,-7.012 59.967,-7.023 59.671,-7.284C59.647,-7.305 59.623,-7.314 59.6,-7.338C59.592,-7.347 59.582,-7.348 59.574,-7.358C59.531,-7.406 59.492,-7.456 59.449,-7.505C59.22,-7.767 58.996,-8.033 58.777,-8.302C58.749,-8.336 58.719,-8.369 58.69,-8.405C57.876,-9.41 57.14,-10.461 56.472,-11.553C56.326,-11.791 56.177,-12.027 56.038,-12.269L55.693,-12.617L53.463,-14.87C53.463,-14.87 50.165,-16.048 44.56,-16.991C42.411,-17.352 40.182,-17.899 38.245,-18.436C35.13,-19.3 32.779,-20.14 32.779,-20.14C32.779,-20.14 32.496,-18.757 23.125,-20.76C22.329,-20.93 21.557,-21.124 20.797,-21.327C17.113,-22.314 13.891,-23.63 11.469,-24.785C8.515,-26.195 6.74,-27.357 6.74,-27.357C6.74,-27.357 6.614,-26.882 5.638,-24.785C5.139,-23.713 4.421,-22.224 3.376,-20.14C3.368,-20.123 3.357,-20.108 3.349,-20.092C0.953,-15.367 -5.45,-10.561 -8.552,-8.56C-8.604,-8.526 -8.653,-8.495 -8.704,-8.463C-9.058,-8.237 -9.379,-8.038 -9.625,-7.898C-9.628,-7.817 -9.632,-7.736 -9.636,-7.653C-9.641,-7.547 -9.647,-7.444 -9.651,-7.338C-9.66,-7.118 -9.675,-6.911 -9.682,-6.69C-9.716,-5.661 -9.736,-4.605 -9.736,-3.51C-9.736,-0.351 -9.521,2.532 -9.129,5.182C-9.073,5.292 -9.056,5.412 -9.081,5.523C-8.923,6.543 -8.739,7.527 -8.526,8.473C-8.454,8.796 -8.376,9.109 -8.298,9.422C-8.221,9.728 -8.146,10.038 -8.063,10.337C-4.409,23.592 4.904,29.3 16.438,31.054C16.748,31.101 17.059,31.143 17.371,31.184C17.363,31.245 17.35,31.303 17.344,31.365C17.333,31.458 17.33,31.553 17.322,31.647C17.409,31.563 17.749,31.493 18.285,31.435C18.49,31.413 18.728,31.392 18.985,31.374C19.584,31.434 20.188,31.485 20.797,31.527C20.814,31.529 20.832,31.53 20.848,31.531C22.361,31.634 23.9,31.689 25.463,31.689C26.926,31.689 28.367,31.636 29.786,31.541C30.169,31.514 30.551,31.489 30.93,31.456C31.38,31.417 31.827,31.371 32.271,31.32C32.394,31.306 32.518,31.293 32.64,31.278L32.722,32.076L32.734,32.195L32.838,33.212L33.035,35.137C33.179,34.56 33.264,33.962 33.274,33.344C33.274,33.3 33.281,33.256 33.281,33.211L33.281,32.243C33.281,32.156 33.27,32.071 33.268,31.984C33.261,31.776 33.252,31.568 33.229,31.365C33.223,31.309 33.211,31.256 33.204,31.201C33.516,31.16 33.829,31.122 34.138,31.075C45.786,29.303 55.218,23.434 58.941,10.287C59.026,9.985 59.108,9.677 59.187,9.368C59.259,9.088 59.328,8.802 59.395,8.515C59.401,8.489 59.408,8.463 59.415,8.436C59.584,7.699 59.741,6.944 59.877,6.165C59.868,6.162 59.86,6.162 59.851,6.159C59.293,6.01 59.497,5.189 60.024,5.246C60.414,2.722 60.629,-0.02 60.652,-2.996C60.335,-3.201 60.387,-3.674 60.657,-3.826" style="fill:rgb(226,179,132);fill-rule:nonzero;"/>
        </g>
        <g transform="matrix(1,0,0,1,61.6504,389.736)">
            <path d="M0,-0.243C0,2.032 -1.97,3.876 -4.4,3.876C-6.83,3.876 -8.799,2.032 -8.799,-0.243C-8.799,-2.517 -6.83,-4.361 -4.4,-4.361C-3.864,-4.361 -3.358,-4.259 -2.883,-4.095C-3.104,-3.858 -3.27,-3.575 -3.376,-3.262C-3.456,-3.027 -3.509,-2.781 -3.509,-2.519C-3.509,-1.238 -2.47,-0.199 -1.188,-0.199C-1.104,-0.199 -1.025,-0.216 -0.944,-0.224C-0.613,-0.26 -0.305,-0.361 -0.03,-0.52C-0.023,-0.427 0,-0.338 0,-0.243M-0.321,-6.068C-1.492,-6.807 -2.893,-7.24 -4.4,-7.24C-5.907,-7.24 -7.307,-6.807 -8.478,-6.068C-8.729,-5.91 -8.967,-5.738 -9.195,-5.553C-10.803,-4.247 -11.826,-2.3 -11.826,-0.122C-11.826,2.057 -10.803,4.004 -9.195,5.31C-7.901,6.361 -6.229,6.997 -4.4,6.997C-0.298,6.997 3.027,3.81 3.027,-0.122C3.027,-2.608 1.694,-4.795 -0.321,-6.068" style="fill:rgb(253,250,201);fill-rule:nonzero;"/>
        </g>
        <g transform="matrix(1,0,0,1,95.8818,389.736)">
            <path d="M0,-0.243C0,2.032 -1.97,3.876 -4.4,3.876C-6.312,3.876 -7.924,2.727 -8.53,1.131C-8.694,0.699 -8.8,0.241 -8.8,-0.243C-8.8,-0.727 -8.694,-1.184 -8.53,-1.616C-7.924,-3.212 -6.312,-4.361 -4.4,-4.361C-3.873,-4.361 -3.375,-4.261 -2.907,-4.101C-3.128,-3.865 -3.296,-3.582 -3.403,-3.269C-3.484,-3.033 -3.538,-2.784 -3.538,-2.519C-3.538,-1.238 -2.499,-0.199 -1.217,-0.199C-1.124,-0.199 -1.035,-0.217 -0.944,-0.227C-0.613,-0.266 -0.305,-0.372 -0.032,-0.535C-0.024,-0.436 0,-0.343 0,-0.243M-0.321,-6.068C-1.493,-6.807 -2.893,-7.24 -4.4,-7.24C-5.907,-7.24 -7.308,-6.807 -8.479,-6.068C-8.495,-6.057 -8.514,-6.049 -8.53,-6.038C-10.518,-4.76 -11.827,-2.588 -11.827,-0.122C-11.827,2.345 -10.518,4.517 -8.53,5.794C-7.349,6.554 -5.929,6.997 -4.4,6.997C-0.298,6.997 3.027,3.81 3.027,-0.122C3.027,-2.608 1.694,-4.795 -0.321,-6.068" style="fill:rgb(253,250,201);fill-rule:nonzero;"/>
        </g>
        <g transform="matrix(1,0,0,1,72.2339,389.493)">
            <path d="M0,9.487L6.564,9.224L3.282,0C3.282,0 -0.087,9.136 0,9.487" style="fill:rgb(253,250,201);fill-rule:nonzero;"/>
        </g>
        <g transform="matrix(1,0,0,1,79.2681,403.117)">
            <path d="M0,-2.692L0.05,-3.228L-7.554,-2.924L-7.503,-2.425C-7.486,-2.258 -7.437,-2.064 -7.373,-1.862C-7.041,-0.819 -6.034,0.536 -3.752,0.536C-1.62,0.536 -0.602,-0.751 -0.205,-1.847C-0.094,-2.154 -0.023,-2.448 0,-2.692" style="fill:rgb(188,98,86);fill-rule:nonzero;"/>
        </g>
        <g transform="matrix(1,0,0,1,111.922,391.778)">
            <path d="M0,0.781C0.154,0.088 0.423,-0.74 0.334,-1.458C0.183,-2.691 -0.43,-3.094 -1.257,-3.415C-1.51,-3.513 -1.78,-3.604 -2.066,-3.708C-2.106,-3.723 -2.132,-3.747 -2.164,-3.768C-2.186,-0.791 -2.401,1.951 -2.791,4.474C-2.765,4.477 -2.742,4.471 -2.714,4.479C-2.51,4.533 -2.328,4.549 -2.156,4.546C-0.521,4.518 -0.289,2.087 0,0.781" style="fill:rgb(188,98,86);fill-rule:nonzero;"/>
        </g>
        <g transform="matrix(1,0,0,1,112.282,400.431)">
            <path d="M0,-16.601L-2.514,-16.601C-2.514,-16.601 -2.526,-16.619 -2.532,-16.625C-2.549,-16.615 -2.563,-16.599 -2.581,-16.59C-2.575,-16.434 -2.564,-16.289 -2.56,-16.131C-2.532,-15.202 -2.521,-14.236 -2.519,-13.251C-2.426,-13.303 -2.311,-13.32 -2.176,-13.271C-1.98,-13.199 -1.776,-13.128 -1.573,-13.055C-0.649,-12.726 0.289,-12.33 0.681,-11.384C1.216,-10.094 0.775,-8.563 0.464,-7.276C-0.054,-5.127 -0.293,-2.83 -2.722,-3.148C-2.902,-3.171 -3.093,-3.206 -3.298,-3.26C-3.435,-2.481 -3.591,-1.726 -3.761,-0.989C-3.767,-0.962 -3.774,-0.936 -3.78,-0.91C-3.847,-0.622 -3.916,-0.337 -3.988,-0.057C-3.831,-0.036 -3.673,-0.015 -3.517,-0.006C-3.019,0.024 -2.53,-0.013 -2.054,-0.101C-1.929,-0.447 -1.653,-0.662 -1.338,-0.739C-1.042,-0.811 -0.733,-0.765 -0.515,-0.599C1.239,-1.441 2.572,-3.096 2.901,-5.152L3.676,-9.992C4.13,-12.825 2.536,-15.53 0,-16.601" style="fill:rgb(188,98,86);fill-rule:nonzero;"/>
        </g>
        <g transform="matrix(1,0,0,1,82.1411,423.401)">
            <path d="M0,2.743L-0.197,0.817L-0.301,-0.199L-0.313,-0.319L-0.395,-1.116C-0.517,-1.102 -0.641,-1.088 -0.764,-1.074C-1.208,-1.024 -1.655,-0.978 -2.104,-0.939C-2.483,-0.905 -2.866,-0.88 -3.249,-0.854C-4.668,-0.758 -6.109,-0.705 -7.572,-0.705C-9.135,-0.705 -10.673,-0.76 -12.187,-0.863C-12.203,-0.864 -12.22,-0.865 -12.237,-0.867C-12.846,-0.909 -13.451,-0.96 -14.05,-1.021C-14.307,-1.002 -14.545,-0.982 -14.75,-0.959C-15.286,-0.902 -15.626,-0.831 -15.712,-0.747C-15.726,-0.734 -15.743,-0.72 -15.743,-0.705C-15.734,-0.696 -15.724,-0.689 -15.715,-0.68C-15.64,-0.6 -15.559,-0.526 -15.48,-0.448C-15.392,-0.363 -15.304,-0.278 -15.212,-0.195C-15.078,-0.075 -14.941,0.042 -14.8,0.155C-14.635,0.287 -14.465,0.414 -14.291,0.537C-13.656,0.984 -12.963,1.371 -12.237,1.707C-8.452,3.461 -3.753,3.8 -1.392,3.85C-0.967,3.859 -0.616,3.859 -0.361,3.856C-0.057,3.853 0.112,3.846 0.112,3.846L0.092,3.646L0,2.743Z" style="fill:rgb(188,98,86);fill-rule:nonzero;"/>
        </g>
        <g transform="matrix(-1,0,0,1,49.1054,400.671)">
            <path d="M-0.126,-1.885L-0.001,-1.885C1.212,-1.885 1.214,0 -0.001,0L-0.126,0C-1.338,0 -1.34,-1.885 -0.126,-1.885" style="fill:rgb(188,98,86);fill-rule:nonzero;"/>
        </g>
        <g transform="matrix(1,0,0,1,52.7261,402.293)">
            <path d="M0,-1.884C-1.212,-1.884 -1.215,0 0,0C1.213,0 1.215,-1.884 0,-1.884" style="fill:rgb(188,98,86);fill-rule:nonzero;"/>
        </g>
        <g transform="matrix(1,0,0,1,52.9756,399.298)">
            <path d="M0,-1.885C-1.212,-1.885 -1.215,0 0,0C1.213,0 1.215,-1.885 0,-1.885" style="fill:rgb(188,98,86);fill-rule:nonzero;"/>
        </g>
        <g transform="matrix(1,0,0,1,55.8467,400.421)">
            <path d="M0,-1.885C-1.213,-1.885 -1.215,0 0,0C1.212,0 1.214,-1.885 0,-1.885" style="fill:rgb(188,98,86);fill-rule:nonzero;"/>
        </g>
        <g transform="matrix(-1,0,0,1,89.6729,400.671)">
            <path d="M-0.124,-1.885L0.001,-1.885C1.213,-1.885 1.215,0 0.001,0L-0.124,0C-1.337,0 -1.339,-1.885 -0.124,-1.885" style="fill:rgb(188,98,86);fill-rule:nonzero;"/>
        </g>
        <g transform="matrix(1,0,0,1,94.4575,398.654)">
            <path d="M0,-1.465C-0.012,-1.477 -0.024,-1.489 -0.037,-1.501C-0.066,-1.53 -0.096,-1.56 -0.125,-1.589C-0.726,-2.191 -1.543,-1.715 -1.695,-1.083C-1.76,-0.812 -1.716,-0.515 -1.458,-0.257C-1.416,-0.215 -1.375,-0.174 -1.333,-0.132C-0.474,0.726 0.859,-0.606 0,-1.465" style="fill:rgb(188,98,86);fill-rule:nonzero;"/>
        </g>
        <g transform="matrix(0,1,1,0,94.7272,400.846)">
            <path d="M0.879,-1.005L1.004,-1.005C2.217,-1.005 2.22,0.879 1.004,0.879L0.879,0.879C-0.334,0.879 -0.336,-1.005 0.879,-1.005" style="fill:rgb(188,98,86);fill-rule:nonzero;"/>
        </g>
        <g transform="matrix(-0.928257,0.371939,0.371939,0.928257,97.6883,400.35)">
            <path d="M0.351,-1.821C0.443,-1.813 0.537,-1.806 0.629,-1.798C1.837,-1.698 1.558,0.167 0.351,0.067C0.259,0.06 0.166,0.051 0.073,0.043C-1.136,-0.056 -0.856,-1.92 0.351,-1.821" style="fill:rgb(188,98,86);fill-rule:nonzero;"/>
        </g>
        <g transform="matrix(1,0,0,1,38.4897,400.287)">
            <path d="M0,-16.783C-0.115,-16.735 -0.226,-16.71 -0.333,-16.713C-0.396,-16.695 -0.457,-16.673 -0.519,-16.653C-0.554,-16.641 -0.59,-16.631 -0.625,-16.619C-0.771,-16.57 -0.913,-16.516 -1.052,-16.457C-2.021,-16.048 -2.851,-15.4 -3.482,-14.596C-4.503,-13.298 -5.009,-11.598 -4.729,-9.847L-3.953,-5.008C-3.866,-4.461 -3.701,-3.945 -3.482,-3.463C-2.568,-1.442 -0.606,-0.056 1.611,0.123C1.845,0.143 2.081,0.15 2.319,0.141C2.241,-0.172 2.163,-0.485 2.09,-0.807C1.878,-1.754 1.693,-2.738 1.536,-3.758C1.503,-3.617 1.407,-3.497 1.214,-3.465C1.059,-3.438 0.917,-3.427 0.778,-3.419C-0.134,-3.364 -0.732,-3.677 -1.136,-4.203C-1.864,-5.151 -1.973,-6.782 -2.172,-8.196C-2.415,-9.92 -2.517,-12.013 -1.136,-12.834C-0.846,-13.007 -0.493,-13.125 -0.058,-13.169C0.09,-13.184 0.243,-13.194 0.41,-13.191C0.8,-13.186 0.936,-12.797 0.824,-12.52C0.769,-12.351 0.626,-12.215 0.396,-12.215C0.348,-12.215 0.31,-12.229 0.27,-12.24C0.159,-12.236 0.051,-12.23 -0.046,-12.213C-0.59,-12.119 -0.93,-11.832 -1.136,-11.44C-1.654,-10.46 -1.328,-8.821 -1.176,-7.854C-1.163,-7.764 -1.149,-7.664 -1.136,-7.558C-0.994,-6.393 -0.857,-4.386 0.602,-4.347C0.715,-4.345 0.834,-4.351 0.963,-4.373C1.212,-4.415 1.396,-4.277 1.487,-4.098C1.096,-6.749 0.881,-9.632 0.881,-12.791C0.881,-13.886 0.9,-14.942 0.935,-15.971C0.942,-16.192 0.957,-16.399 0.965,-16.619C0.97,-16.724 0.976,-16.828 0.98,-16.933C0.772,-16.923 0.562,-16.9 0.353,-16.866C0.249,-16.849 0.149,-16.823 0.047,-16.802C0.032,-16.794 0.016,-16.79 0,-16.783" style="fill:rgb(188,98,86);fill-rule:nonzero;"/>
        </g>
        <g transform="matrix(1,0,0,1,77.7554,415.559)">
            <path d="M0,-2.332C-1.144,-1.504 -2.85,-1.654 -4.078,-2.227C-4.356,-2.356 -4.615,-2.209 -4.731,-1.999C-4.991,-1.859 -5.014,-1.485 -4.832,-1.27C-4.788,-1.218 -4.737,-1.185 -4.692,-1.136C-4.354,-0.77 -3.979,-0.485 -3.58,-0.293C-3.511,-0.26 -3.443,-0.233 -3.375,-0.205C-3.225,-0.12 -3.071,-0.044 -2.905,0.015C-2.342,0.213 -1.807,0.182 -1.274,-0.016C-1.206,-0.041 -1.138,-0.061 -1.071,-0.092C-1.059,-0.098 -1.046,-0.101 -1.034,-0.105C-0.937,-0.151 -0.877,-0.225 -0.842,-0.308C-0.641,-0.408 -0.45,-0.533 -0.266,-0.682C-0.053,-0.852 0.143,-1.054 0.324,-1.286C0.42,-1.41 0.525,-1.52 0.611,-1.662C0.612,-1.664 0.612,-1.665 0.613,-1.667C0.641,-1.714 0.651,-1.76 0.662,-1.805C0.671,-1.842 0.674,-1.877 0.673,-1.913C0.671,-1.965 0.659,-2.014 0.639,-2.059C0.562,-2.335 0.294,-2.545 0,-2.332" style="fill:rgb(188,98,86);fill-rule:nonzero;"/>
        </g>
        <g transform="matrix(1,0,0,1,62.7803,338.261)">
            <path d="M0,3.204C0.012,3.212 0.016,3.224 0.027,3.231C0.301,3.433 0.408,3.705 0.41,3.979C2.355,3.746 4.427,3.571 6.673,3.484C6.826,3.478 6.971,3.476 7.124,3.472C8.337,3.429 9.512,3.407 10.66,3.401C11.643,3.395 12.602,3.401 13.538,3.421C17.174,3.494 20.463,3.744 23.421,4.132C23.215,4.078 23.026,3.94 22.901,3.679C22.79,3.445 22.666,3.225 22.536,3.015C22.244,2.542 21.909,2.123 21.535,1.756C20.95,1.181 20.271,0.73 19.535,0.372C18.566,-0.1 17.497,-0.404 16.394,-0.599C14.98,-0.849 13.516,-0.921 12.149,-0.926C11.6,-0.928 11.05,-0.913 10.502,-0.886C9.37,-0.827 8.242,-0.705 7.124,-0.516C6.557,-0.42 5.993,-0.309 5.433,-0.179C5.378,-0.166 5.326,-0.148 5.271,-0.135C4.521,0.044 3.776,0.244 3.042,0.478C2.879,0.53 2.066,0.804 1.272,1.184C0.172,1.712 -0.875,2.446 -0.117,3.101C-0.078,3.136 -0.05,3.17 0,3.204" style="fill:rgb(188,98,86);fill-rule:nonzero;"/>
        </g>
        <g transform="matrix(1,0,0,1,102.733,370.084)">
            <path d="M0,3.261C-0.036,3.155 -0.035,3.061 -0.035,2.966C-2.44,2.236 -4.757,1.229 -6.934,-0.089C-7.28,-0.299 -7.607,-0.524 -7.939,-0.747C-8.065,-0.465 -8.327,-0.263 -8.745,-0.312C-10.993,-0.58 -13.207,-0.988 -15.382,-1.518C-16.403,-1.767 -17.416,-2.041 -18.418,-2.346C-19.067,-2.544 -19.713,-2.754 -20.354,-2.975C-20.489,-2.882 -20.646,-2.811 -20.848,-2.804C-24.741,-2.671 -28.602,-3.037 -32.354,-3.863C-32.512,-3.898 -32.671,-3.933 -32.83,-3.969C-35.949,-4.692 -38.989,-5.734 -41.899,-7.094C-43.753,-7.961 -45.553,-8.96 -47.291,-10.076C-48.216,-7.999 -49.164,-5.912 -50.181,-3.863C-50.213,-3.799 -50.246,-3.733 -50.278,-3.668C-52.659,1.103 -55.433,5.648 -59.172,9.369C-60.152,10.346 -61.195,11.268 -62.32,12.117C-62.412,12.187 -62.501,12.258 -62.593,12.326C-62.803,12.481 -63.024,12.625 -63.239,12.775C-63.369,12.865 -63.497,12.956 -63.628,13.044C-63.795,13.23 -63.891,13.337 -63.891,13.337C-63.817,13.328 -63.592,13.219 -63.251,13.025C-63.006,12.884 -62.685,12.686 -62.331,12.459C-62.28,12.427 -62.231,12.397 -62.179,12.363C-59.077,10.362 -52.674,5.555 -50.278,0.83C-50.27,0.815 -50.259,0.799 -50.25,0.782C-49.206,-1.301 -48.488,-2.791 -47.989,-3.863C-47.013,-5.96 -46.887,-6.434 -46.887,-6.434C-46.887,-6.434 -45.112,-5.272 -42.158,-3.863C-39.736,-2.708 -36.514,-1.391 -32.83,-0.405C-32.07,-0.202 -31.298,-0.008 -30.501,0.162C-21.131,2.165 -20.848,0.782 -20.848,0.782C-20.848,0.782 -18.497,1.622 -15.382,2.487C-13.445,3.024 -11.216,3.571 -9.067,3.932C-3.462,4.874 -0.164,6.052 -0.164,6.052L2.066,8.305L2.411,8.654C2.291,8.445 2.181,8.231 2.066,8.02C1.248,6.507 0.553,4.924 0,3.261" style="fill:rgb(188,98,86);fill-rule:nonzero;"/>
        </g>
        <g transform="matrix(1,0,0,1,87.3516,341.635)">
            <path d="M0,0.92C0.044,0.927 0.087,0.934 0.131,0.94C0.131,0.789 0.125,0.637 0.108,0.483C0.09,0.316 0.061,0.149 0.02,-0.02C0.011,0.017 0.013,0.057 0,0.093C-0.02,0.149 -0.055,0.196 -0.084,0.248C-0.246,0.526 -0.524,0.726 -0.824,0.773C-0.895,0.783 -0.966,0.778 -1.037,0.772C-0.967,0.78 -0.893,0.788 -0.823,0.798C-0.542,0.836 -0.275,0.88 0,0.92" style="fill:rgb(188,98,86);fill-rule:nonzero;"/>
        </g>
        <g transform="matrix(1,0,0,1,106.325,420.298)">
            <path d="M0,-0.982C0.174,-0.266 0.349,0.45 0.522,1.165C0.557,1.21 0.599,1.239 0.628,1.294C0.806,1.631 1.103,1.904 1.472,2.125C2.968,3.028 5.705,3.085 7.042,3.121C8.376,3.155 9.683,3.009 10.973,2.748C4.374,-1.578 3.032,-9.834 3.596,-17.364C3.637,-17.912 3.687,-18.454 3.747,-18.992C3.775,-19.246 3.798,-19.503 3.83,-19.753C3.841,-19.836 3.876,-19.898 3.902,-19.968C3.427,-19.88 2.938,-19.843 2.439,-19.874C2.283,-19.882 2.126,-19.903 1.968,-19.924C1.889,-19.615 1.808,-19.307 1.722,-19.005C-2.001,-5.858 -11.433,0.011 -23.081,1.783C-23.39,1.83 -23.703,1.868 -24.015,1.909C-24.007,1.963 -23.996,2.017 -23.989,2.073C-23.967,2.276 -23.958,2.484 -23.951,2.692C-23.949,2.779 -23.938,2.864 -23.938,2.951L-23.938,3.066C-23.621,3.164 -23.307,3.266 -22.996,3.374C-21.586,3.865 -20.241,4.466 -18.974,5.169C-14.529,7.635 -11.05,11.329 -9.14,15.714C-8.682,16.768 -8.311,17.86 -8.042,18.986C-7.929,18.849 -7.805,18.692 -7.676,18.524C-7.867,18.263 -7.933,17.917 -7.719,17.554C-7.659,17.454 -7.612,17.35 -7.56,17.248C-6.774,15.736 -6.668,14.106 -6.669,12.409C-6.67,10.974 -6.565,9.211 -6.985,7.789C-7.42,7.364 -7.344,6.635 -6.962,6.298C-6.977,6.238 -6.995,6.178 -7.01,6.118C-7.202,5.339 -7.369,4.555 -7.486,3.759C-7.559,3.258 -7.369,2.743 -6.828,2.6C-6.379,2.482 -5.742,2.75 -5.668,3.258C-5.527,4.226 -5.312,5.176 -5.059,6.118C-5.046,6.166 -5.033,6.215 -5.02,6.264C-3.374,8.511 -1.151,11.457 1.472,13.28C1.988,13.638 2.519,13.954 3.064,14.21C2.488,13.426 1.954,12.617 1.472,11.782C0.444,10.005 -0.344,8.116 -0.777,6.118C-1.044,4.883 -1.172,3.607 -1.143,2.291C-1.368,1.368 -1.593,0.443 -1.817,-0.481C-2.104,-1.662 -0.287,-2.16 0,-0.982" style="fill:rgb(255,191,64);fill-rule:nonzero;"/>
        </g>
        <g transform="matrix(0.944136,0.329557,0.329557,-0.944136,38.7105,383.317)">
            <path d="M0.046,-0.055L0.159,-0.055C0.159,-0.055 0.214,0.078 0.31,0.309C0.226,0.196 0.15,0.081 0.063,-0.03C0.058,-0.038 0.053,-0.046 0.046,-0.055" style="fill:rgb(255,191,64);fill-rule:nonzero;"/>
        </g>
        <g transform="matrix(1,0,0,1,64.6685,354.905)">
            <path d="M0,2.089C-0.368,1.777 -0.371,1.384 -0.193,1.068C0.078,0.585 0.778,0.285 1.333,0.757C1.458,0.862 1.586,0.962 1.712,1.068C2.851,2.017 4.027,2.913 5.235,3.761C9.656,6.859 14.517,9.266 19.647,10.89C20.121,11.039 20.598,11.179 21.076,11.316C21.609,11.468 22.145,11.61 22.683,11.746C24.401,12.179 26.143,12.527 27.904,12.786C27.333,12.316 26.784,11.822 26.249,11.316C24.981,10.112 23.805,8.817 22.683,7.451C22.033,6.659 21.396,5.85 20.771,5.019C20.041,4.049 21.678,3.11 22.398,4.068C22.492,4.192 22.589,4.311 22.683,4.433C24.684,7.042 26.878,9.37 29.31,11.316C32.036,13.495 35.063,15.187 38.43,16.279C39.927,16.765 41.491,17.131 43.128,17.363C43.171,17.37 43.214,17.374 43.256,17.38C43.424,17.403 43.593,17.425 43.763,17.444C43.976,17.471 44.183,17.505 44.398,17.527C44.937,17.579 45.221,17.989 45.277,18.413C45.284,18.469 45.29,18.526 45.296,18.581C45.287,19.043 44.991,19.469 44.398,19.411C44.308,19.402 44.218,19.387 44.127,19.377C43.918,19.356 43.711,19.326 43.504,19.3C43.379,19.284 43.253,19.271 43.128,19.253C42.128,19.117 41.139,18.936 40.16,18.71C40.919,20.787 41.908,22.732 43.128,24.542L43.133,24.548C43.41,24.96 43.7,25.363 44.001,25.762C44.303,26.159 44.617,26.55 44.942,26.934C45.077,27.093 45.206,27.254 45.344,27.411C45.371,27.441 45.376,27.474 45.398,27.504C45.621,27.815 45.629,28.159 45.495,28.447C45.439,28.566 45.365,28.673 45.273,28.763C45.216,28.819 45.148,28.86 45.082,28.901C45.087,28.907 45.099,28.925 45.099,28.925L48.061,28.925C48.061,28.925 48.051,28.614 48.034,28.08C47.939,25.255 47.604,15.797 47.119,8.269C46.965,5.888 46.797,3.699 46.617,1.981C46.421,0.118 46.212,-1.199 45.992,-1.621C45.528,-2.511 43.755,-4.648 39.968,-6.851C39.967,-6.859 39.966,-6.866 39.964,-6.874C39.956,-6.872 39.947,-6.87 39.938,-6.869C39.51,-6.805 39.058,-6.989 38.918,-7.435C38.888,-7.532 38.86,-7.632 38.864,-7.752C38.875,-8.079 38.863,-8.401 38.858,-8.724C38.767,-14.301 36.306,-19.199 32.178,-22.414C30.409,-23.792 28.344,-24.87 26.021,-25.548C23.955,-26.149 21.806,-26.544 19.647,-26.675C16.996,-26.836 14.332,-26.591 11.792,-25.747C9.725,-25.059 7.612,-23.937 5.932,-22.414C4.792,-21.38 3.854,-20.159 3.271,-18.76C4.28,-18.94 5.267,-19.075 6.14,-19.188C6.842,-19.28 7.585,-19.357 8.354,-19.412C8.361,-19.438 8.354,-19.46 8.363,-19.487C8.711,-20.578 9.255,-21.56 9.961,-22.414C10.544,-23.119 11.236,-23.737 12.035,-24.243C13.064,-24.894 14.009,-23.263 12.986,-22.616C12.891,-22.556 12.813,-22.478 12.721,-22.414C11.669,-21.675 10.875,-20.675 10.39,-19.49C11.56,-19.501 12.751,-19.44 13.921,-19.282C13.922,-19.283 13.921,-19.284 13.922,-19.285C14.758,-20.649 15.96,-21.744 17.415,-22.414C17.458,-22.434 17.498,-22.463 17.542,-22.482C17.896,-22.638 18.299,-22.637 18.593,-22.414C18.684,-22.346 18.766,-22.259 18.831,-22.144C19.062,-21.739 18.963,-21.06 18.493,-20.855C17.475,-20.409 16.622,-19.751 15.954,-18.89C16.87,-18.657 17.751,-18.35 18.567,-17.944C18.685,-17.886 18.798,-17.82 18.913,-17.758C18.94,-17.769 18.968,-17.779 18.996,-17.791C19.212,-17.882 19.429,-17.973 19.647,-18.054C21.737,-18.83 23.903,-19.177 26.159,-19.031C27.366,-18.953 27.371,-17.068 26.159,-17.146C24.505,-17.254 22.884,-17.097 21.318,-16.644C21.128,-16.59 20.944,-16.511 20.756,-16.447C21.511,-15.753 22.159,-14.925 22.641,-13.917C22.735,-13.719 22.741,-13.531 22.713,-13.353C22.71,-13.333 22.708,-13.311 22.703,-13.291C22.744,-13.122 22.773,-12.954 22.791,-12.788C22.933,-12.613 23.07,-12.442 23.205,-12.272C23.076,-12.292 22.945,-12.311 22.814,-12.331C22.771,-12.337 22.727,-12.344 22.683,-12.35C22.408,-12.39 22.142,-12.434 21.86,-12.473C21.791,-12.482 21.716,-12.49 21.646,-12.499C21.608,-12.503 21.571,-12.503 21.533,-12.513C18.575,-12.9 15.286,-13.15 11.649,-13.224C10.714,-13.243 9.754,-13.249 8.771,-13.243C7.624,-13.237 6.449,-13.216 5.235,-13.173C5.083,-13.168 4.938,-13.166 4.785,-13.16C2.539,-13.073 0.467,-12.898 -1.478,-12.665C-1.477,-12.394 -1.58,-12.136 -1.756,-11.942C-1.986,-11.691 -2.324,-11.583 -2.691,-11.751C-2.741,-11.774 -2.789,-11.779 -2.84,-11.813C-3.096,-11.987 -3.298,-12.187 -3.474,-12.399C-3.591,-12.382 -3.703,-12.361 -3.819,-12.343C-25.919,-8.88 -27.521,3.604 -27.521,3.604L-28.095,27.72L-27.39,27.967L-27.339,27.985C-27.342,27.974 -27.349,27.963 -27.352,27.951C-27.407,27.751 -27.395,27.544 -27.315,27.347C-27.249,27.182 -27.147,27.026 -26.962,26.906C-26.872,26.847 -26.788,26.781 -26.697,26.722C-26.579,26.644 -26.466,26.56 -26.35,26.481C-26.265,26.422 -26.18,26.362 -26.095,26.303C-25.727,26.044 -25.365,25.779 -25.013,25.505C-24.715,25.273 -24.417,25.042 -24.13,24.8C-24.033,24.718 -23.938,24.632 -23.842,24.548C-19.682,20.933 -16.71,16.255 -14.206,11.316C-13.512,9.947 -12.851,8.561 -12.213,7.17C-11.686,6.022 -11.172,4.87 -10.664,3.728C-10.579,3.535 -10.453,3.425 -10.317,3.347C-10.096,2.901 -9.591,2.613 -9.06,2.97C-7.377,4.1 -5.629,5.1 -3.834,5.982C-0.929,7.409 2.107,8.515 5.235,9.273C7.859,9.908 10.545,10.299 13.267,10.445C10.479,9.201 7.793,7.725 5.235,6.025C3.425,4.821 1.675,3.513 0,2.089" style="fill:rgb(255,191,64);fill-rule:nonzero;"/>
        </g>
        <g transform="matrix(1,0,0,1,111.787,359.77)">
            <path d="M0,0.52C0,-0.699 -0.185,-1.827 -0.502,-2.884C-0.321,-1.166 -0.153,1.023 0,3.404L0,0.52Z" style="fill:rgb(255,191,64);fill-rule:nonzero;"/>
        </g>
        <g transform="matrix(1,0,0,1,113.367,347.447)">
            <path d="M0,75.972C-1.336,75.937 -4.073,75.879 -5.57,74.977C-5.939,74.755 -6.235,74.483 -6.414,74.146C-6.443,74.09 -6.484,74.062 -6.519,74.017C-6.693,73.301 -6.867,72.585 -7.042,71.869C-7.328,70.692 -9.146,71.19 -8.859,72.37C-8.634,73.294 -8.409,74.219 -8.184,75.143C-8.213,76.458 -8.086,77.735 -7.819,78.969C-7.386,80.967 -6.597,82.857 -5.57,84.633C-5.087,85.468 -4.554,86.278 -3.977,87.062C-4.523,86.805 -5.054,86.49 -5.57,86.131C-8.193,84.309 -10.415,81.363 -12.061,79.116C-12.075,79.067 -12.087,79.018 -12.101,78.969C-12.354,78.028 -12.568,77.077 -12.71,76.11C-12.784,75.602 -13.421,75.333 -13.869,75.451C-14.411,75.594 -14.601,76.11 -14.527,76.611C-14.411,77.407 -14.243,78.191 -14.052,78.969C-14.037,79.03 -14.019,79.089 -14.003,79.15C-14.386,79.487 -14.461,80.215 -14.026,80.64C-13.606,82.063 -13.711,83.826 -13.71,85.26C-13.71,86.957 -13.815,88.587 -14.601,90.1C-16.792,83.329 -22.466,77.861 -29.784,75.324C-20.671,73.532 -9.57,68.282 -4.888,53.88C-4.667,53.901 -4.446,53.933 -4.227,53.933C-3.914,53.933 -3.604,53.902 -3.295,53.86C-3.355,54.398 -3.405,54.94 -3.446,55.488C-4.009,63.018 -2.668,71.274 3.932,75.6C2.642,75.861 1.335,76.006 0,75.972M-15.52,95.374L-62.428,95.374C-62.313,93.128 -61.782,90.978 -60.911,88.974C-60.852,88.838 -60.797,88.701 -60.735,88.566C-58.364,83.435 -53.71,79.326 -47.888,77.216C-47.733,80.319 -45.997,83.005 -43.463,84.485C-42.142,85.257 -40.611,85.706 -38.974,85.706C-35.313,85.706 -32.162,83.492 -30.783,80.332C-30.362,79.369 -30.115,78.319 -30.06,77.216C-28.636,77.732 -27.283,78.37 -26.015,79.111C-22.099,81.399 -19.004,84.69 -17.212,88.566C-16.635,89.815 -16.196,91.124 -15.905,92.48C-15.703,93.424 -15.57,94.39 -15.52,95.374ZM-31.922,75.802L-31.922,76.77C-31.922,77.116 -31.955,77.452 -32.003,77.784C-32.107,78.497 -32.316,79.176 -32.618,79.804C-33.754,82.176 -36.172,83.822 -38.974,83.822C-40.678,83.822 -42.243,83.214 -43.463,82.204C-45.027,80.909 -46.026,78.954 -46.026,76.77L-46.026,75.802C-46.026,75.748 -46.019,75.697 -46.018,75.644C-46.018,75.634 -46.017,75.624 -46.016,75.615C-45.993,75.618 -45.969,75.621 -45.945,75.625C-45.079,75.76 -44.249,75.866 -43.463,75.945C-43.323,75.959 -43.181,75.974 -43.043,75.987C-41.369,76.142 -39.914,76.191 -38.797,76.191C-37.605,76.191 -36.226,76.141 -34.727,76.014C-34.147,75.965 -33.554,75.908 -32.939,75.831C-32.607,75.79 -32.268,75.742 -31.927,75.692C-31.927,75.729 -31.922,75.765 -31.922,75.802M-71.028,53.708C-71.127,53.409 -71.235,53.118 -71.328,52.81C-71.419,52.51 -71.494,52.19 -71.579,51.881C-72.51,48.471 -73.054,44.566 -73.054,40.049C-73.054,38.961 -73.04,37.91 -73.018,36.881C-73.013,36.657 -73.003,36.443 -72.998,36.221C-72.995,36.123 -72.992,36.028 -72.989,35.931C-72.981,35.652 -72.974,35.37 -72.964,35.096C-72.967,35.098 -72.969,35.1 -72.972,35.101L-72.961,34.76C-72.958,34.758 -72.956,34.756 -72.954,34.754C-71.829,33.905 -70.786,32.983 -69.805,32.006C-66.066,28.284 -63.292,23.74 -60.911,18.969C-60.879,18.904 -60.847,18.838 -60.814,18.774C-59.797,16.725 -58.85,14.638 -57.924,12.561C-56.186,13.677 -54.387,14.676 -52.532,15.542C-49.622,16.903 -46.583,17.945 -43.463,18.667C-43.305,18.703 -43.146,18.739 -42.987,18.774C-39.235,19.6 -35.375,19.966 -31.481,19.832C-31.279,19.826 -31.122,19.755 -30.987,19.661C-30.346,19.883 -29.701,20.093 -29.051,20.29C-28.049,20.596 -27.036,20.869 -26.015,21.118C-23.84,21.649 -21.626,22.057 -19.378,22.325C-18.96,22.373 -18.699,22.172 -18.573,21.89C-18.241,22.113 -17.913,22.338 -17.567,22.548C-15.391,23.866 -13.073,24.872 -10.668,25.603C-10.668,25.698 -10.669,25.791 -10.633,25.898C-10.081,27.561 -9.386,29.144 -8.567,30.657C-8.453,30.868 -8.342,31.081 -8.223,31.29C-8.083,31.533 -7.935,31.768 -7.789,32.006C-7.12,33.098 -6.384,34.149 -5.57,35.155C-5.542,35.19 -5.511,35.223 -5.483,35.257C-5.264,35.526 -5.041,35.792 -4.811,36.054C-4.769,36.103 -4.729,36.154 -4.687,36.201C-4.678,36.211 -4.668,36.212 -4.66,36.221C-4.638,36.245 -4.613,36.254 -4.589,36.275C-4.584,36.511 -4.574,36.736 -4.57,36.976C-4.551,37.969 -4.542,38.989 -4.541,40.035C-4.672,44.449 -5.252,48.292 -6.17,51.662C-6.254,51.971 -6.338,52.281 -6.429,52.581C-6.459,52.683 -6.493,52.779 -6.523,52.878C-6.586,53.082 -6.651,53.282 -6.716,53.482C-11.083,66.843 -21.216,71.883 -30.334,73.558C-30.646,73.616 -30.957,73.672 -31.266,73.722C-31.579,73.773 -31.89,73.818 -32.2,73.861C-32.735,73.935 -33.267,74.001 -33.79,74.055C-34.065,74.083 -34.334,74.104 -34.606,74.127C-36.075,74.251 -37.486,74.306 -38.797,74.306C-39.914,74.306 -41.388,74.253 -43.086,74.086C-43.211,74.075 -43.335,74.063 -43.463,74.049C-44.179,73.972 -44.934,73.872 -45.718,73.747C-46.024,73.7 -46.333,73.647 -46.648,73.59C-46.956,73.534 -47.262,73.479 -47.577,73.415C-55.923,71.714 -66.634,66.889 -71.028,53.708M-74.275,48.493C-75.734,48.454 -75.871,46.447 -76.013,45.282C-76.026,45.176 -76.04,45.076 -76.053,44.986C-76.205,44.019 -76.531,42.38 -76.013,41.4C-75.807,41.008 -75.467,40.721 -74.923,40.627C-74.895,43.465 -74.674,46.087 -74.275,48.493M-75.816,51.057C-76.941,50.243 -77.682,49.044 -77.9,47.683L-78.359,44.814L-78.675,42.843C-78.824,41.915 -78.699,40.991 -78.359,40.135C-78.201,39.735 -78.009,39.346 -77.75,38.988C-77.044,38.014 -76.044,37.352 -74.908,37.043C-74.925,37.898 -74.932,38.779 -74.935,39.671C-75.37,39.715 -75.723,39.833 -76.013,40.006C-77.394,40.826 -77.292,42.92 -77.049,44.644C-76.85,46.058 -76.741,47.689 -76.013,48.637C-75.609,49.163 -75.011,49.476 -74.099,49.421C-73.934,50.299 -73.745,51.147 -73.534,51.968C-74.346,51.847 -75.128,51.555 -75.816,51.057M-75.396,12.843C-75.396,2.402 -62.963,-1.941 -52.189,-3.748C-51.87,-3.801 -51.552,-3.853 -51.237,-3.902C-50.909,-3.953 -50.586,-4.001 -50.262,-4.047C-47.798,-4.401 -45.471,-4.632 -43.463,-4.776C-41.396,-4.925 -39.682,-4.987 -38.488,-5.012C-36.166,-4.964 -31.833,-4.771 -26.916,-4.076C-26.616,-4.033 -26.319,-3.993 -26.015,-3.947C-26.002,-3.945 -25.99,-3.942 -25.977,-3.94C-25.669,-3.893 -25.358,-3.841 -25.047,-3.79C-24.911,-3.767 -24.776,-3.747 -24.639,-3.723C-19.058,-2.777 -13.057,-1.143 -8.573,1.664C-5.44,3.624 -3.061,6.162 -2.082,9.439C-1.765,10.496 -1.58,11.624 -1.58,12.843L-1.58,35.399C-3.149,34.818 -3.881,34.185 -4.126,33.931C-4.318,33.695 -4.514,33.461 -4.697,33.22C-4.998,32.822 -5.288,32.418 -5.565,32.006L-5.57,32C-6.791,30.19 -7.779,28.245 -8.538,26.168C-7.56,26.394 -6.57,26.576 -5.57,26.711C-5.445,26.729 -5.319,26.743 -5.194,26.758C-4.987,26.784 -4.78,26.814 -4.571,26.835C-4.48,26.845 -4.391,26.861 -4.3,26.869C-3.093,26.988 -3.102,25.102 -4.3,24.985C-4.515,24.963 -4.723,24.929 -4.936,24.903C-5.105,24.883 -5.274,24.862 -5.442,24.838C-5.484,24.832 -5.527,24.828 -5.57,24.822C-7.208,24.589 -8.771,24.223 -10.268,23.738C-13.635,22.645 -16.662,20.953 -19.388,18.774C-21.82,16.828 -24.015,14.5 -26.015,11.891C-26.109,11.769 -26.207,11.65 -26.3,11.526C-27.02,10.569 -28.657,11.507 -27.927,12.477C-27.303,13.308 -26.666,14.118 -26.015,14.909C-24.894,16.275 -23.717,17.571 -22.449,18.774C-21.915,19.281 -21.366,19.774 -20.794,20.244C-22.556,19.986 -24.297,19.637 -26.015,19.204C-26.553,19.069 -27.089,18.926 -27.623,18.774C-28.1,18.637 -28.578,18.497 -29.051,18.348C-34.182,16.724 -39.042,14.317 -43.463,11.219C-44.671,10.371 -45.848,9.475 -46.986,8.526C-47.112,8.42 -47.241,8.321 -47.366,8.215C-47.92,7.743 -48.62,8.043 -48.891,8.526C-49.069,8.842 -49.066,9.236 -48.698,9.547C-47.023,10.971 -45.273,12.28 -43.463,13.483C-40.905,15.183 -38.22,16.659 -35.431,17.904C-38.153,17.757 -40.839,17.367 -43.463,16.731C-46.591,15.973 -49.627,14.868 -52.532,13.44C-54.328,12.558 -56.075,11.558 -57.758,10.428C-58.289,10.072 -58.794,10.359 -59.015,10.805C-59.151,10.883 -59.277,10.993 -59.362,11.186C-59.87,12.328 -60.384,13.48 -60.911,14.628C-61.549,16.019 -62.21,17.406 -62.904,18.774C-65.409,23.713 -68.38,28.391 -72.541,32.006C-72.637,32.09 -72.731,32.176 -72.828,32.258C-73.115,32.5 -73.414,32.731 -73.711,32.963C-74.063,33.238 -74.425,33.502 -74.793,33.761C-74.878,33.821 -74.963,33.88 -75.048,33.939C-75.165,34.018 -75.277,34.102 -75.396,34.18L-75.396,12.843ZM-50.542,-6.71C-50.375,-7.089 -50.02,-7.552 -49.314,-8.002C-48.52,-8.382 -47.707,-8.656 -47.544,-8.708C-46.81,-8.942 -46.065,-9.142 -45.315,-9.321C-44.755,-9.415 -44.145,-9.497 -43.463,-9.562C-42.314,-9.671 -40.99,-9.734 -39.449,-9.734L-39.379,-9.734C-35.578,-9.73 -32.915,-9.36 -31.051,-8.814C-30.316,-8.456 -29.637,-8.006 -29.051,-7.43C-28.677,-7.063 -28.342,-6.644 -28.051,-6.172C-31.558,-6.602 -34.716,-6.789 -37.049,-6.864L-37.049,-6.915C-37.439,-6.915 -37.928,-6.911 -38.488,-6.901C-39.047,-6.911 -39.537,-6.915 -39.927,-6.915L-39.927,-6.864C-40.959,-6.831 -42.147,-6.776 -43.463,-6.688C-45.577,-6.547 -48,-6.317 -50.56,-5.955C-50.571,-5.963 -50.575,-5.974 -50.586,-5.982C-50.636,-6.016 -50.664,-6.05 -50.704,-6.085C-50.678,-6.297 -50.63,-6.507 -50.542,-6.71M-42.766,-14.956C-41.086,-16.479 -38.973,-17.601 -36.907,-18.289C-34.367,-19.132 -31.702,-19.378 -29.051,-19.216C-26.893,-19.086 -24.743,-18.691 -22.678,-18.09C-20.354,-17.412 -18.29,-16.334 -16.52,-14.956C-12.393,-11.741 -9.931,-6.842 -9.84,-1.265C-14.411,-3.562 -19.907,-4.933 -25.018,-5.744C-25.098,-6.202 -25.24,-6.669 -25.482,-7.133C-25.893,-7.922 -26.531,-8.604 -27.38,-9.186C-25.814,-9.638 -24.193,-9.796 -22.539,-9.688C-21.328,-9.61 -21.333,-11.495 -22.539,-11.573C-24.795,-11.718 -26.961,-11.372 -29.051,-10.595C-29.27,-10.514 -29.486,-10.424 -29.703,-10.333C-29.845,-10.383 -29.982,-10.438 -30.131,-10.486C-30.947,-10.892 -31.828,-11.199 -32.745,-11.431C-32.077,-12.293 -31.224,-12.951 -30.205,-13.397C-29.735,-13.602 -29.636,-14.281 -29.867,-14.686C-29.932,-14.8 -30.015,-14.887 -30.105,-14.956C-30.399,-15.178 -30.802,-15.179 -31.156,-15.024C-31.201,-15.005 -31.24,-14.976 -31.284,-14.956C-32.738,-14.286 -33.94,-13.191 -34.776,-11.827C-34.777,-11.826 -34.776,-11.825 -34.777,-11.824C-35.947,-11.982 -37.138,-12.043 -38.308,-12.032C-37.823,-13.216 -37.029,-14.216 -35.978,-14.956C-35.886,-15.02 -35.807,-15.097 -35.712,-15.158C-34.689,-15.804 -35.634,-17.436 -36.663,-16.785C-37.462,-16.279 -38.154,-15.661 -38.737,-14.956C-39.443,-14.102 -39.987,-13.12 -40.335,-12.029C-40.344,-12.002 -40.337,-11.98 -40.344,-11.954C-41.113,-11.899 -41.856,-11.822 -42.559,-11.73C-43.431,-11.617 -44.418,-11.482 -45.427,-11.301C-44.844,-12.701 -43.906,-13.922 -42.766,-14.956M-2.702,40.915C-1.875,41.237 -1.262,41.64 -1.11,42.872C-1.022,43.591 -1.291,44.418 -1.445,45.112C-1.734,46.417 -1.966,48.849 -3.601,48.876C-3.13,46.445 -2.825,43.792 -2.702,40.915M1.661,42.843L0.885,47.683C0.667,49.044 -0.073,50.243 -1.198,51.057C-1.584,51.337 -2.005,51.536 -2.439,51.7C-3.047,51.928 -3.687,52.039 -4.34,52.026C-4.318,51.947 -4.295,51.868 -4.274,51.787C-4.106,51.155 -3.951,50.502 -3.807,49.836C-1.378,50.154 -1.139,47.857 -0.621,45.708C-0.31,44.421 0.131,42.89 -0.404,41.6C-0.796,40.654 -1.734,40.258 -2.658,39.929C-2.658,38.895 -2.667,37.884 -2.687,36.9C-2.67,36.903 -2.655,36.902 -2.639,36.904C0.184,37.356 2.113,40.021 1.661,42.843M6.543,75.002C6.474,74.93 6.402,74.858 6.295,74.803C-0.94,71.081 -2.14,62.879 -1.566,55.488C-1.509,54.746 -1.437,54.013 -1.349,53.293C-0.914,53.096 -0.489,52.87 -0.093,52.583C1.44,51.473 2.449,49.839 2.746,47.981L3.521,43.141C3.983,40.263 2.627,37.506 0.305,36.041L0.305,12.843C0.305,6.849 -3.106,2.675 -7.962,-0.239C-7.96,-0.259 -7.95,-0.273 -7.949,-0.294C-7.756,-6.128 -9.942,-11.263 -13.728,-14.956C-16.21,-17.378 -19.374,-19.185 -23.028,-20.141C-24.993,-20.656 -27.019,-20.993 -29.051,-21.105C-32.355,-21.286 -35.675,-20.865 -38.771,-19.597C-41.207,-18.599 -43.627,-17.024 -45.368,-14.956C-46.388,-13.743 -47.174,-12.361 -47.587,-10.822C-49.129,-10.4 -50.591,-9.8 -51.652,-8.876C-52.054,-8.525 -52.343,-8.115 -52.532,-7.684C-52.818,-7.033 -52.845,-6.336 -52.606,-5.696C-52.606,-5.677 -52.604,-5.66 -52.603,-5.642C-64.092,-3.724 -77.28,1.045 -77.28,12.843L-77.28,36.016C-78.049,36.495 -78.727,37.124 -79.276,37.882C-80.386,39.416 -80.833,41.284 -80.536,43.141L-79.761,47.981C-79.463,49.839 -78.455,51.473 -76.921,52.583C-75.753,53.429 -74.39,53.877 -72.986,53.917C-68.458,68.276 -56.925,73.457 -47.996,75.264C-57.539,78.502 -64.336,86.715 -64.336,96.317L-64.336,97.258L-13.611,97.258L-13.611,96.317C-13.611,94.76 -13.79,93.241 -14.13,91.773C-13.772,91.864 -13.375,91.768 -13.133,91.357C-11.813,89.117 -11.761,86.566 -11.851,84.026C-11.866,83.596 -11.849,83.053 -11.854,82.485C-10.08,84.714 -7.996,86.93 -5.57,88.309C-4.282,89.041 -2.901,89.543 -1.415,89.673C-0.541,89.749 -0.252,88.622 -0.748,88.065C-2.86,85.688 -4.626,83.014 -5.57,80.06C-5.685,79.701 -5.786,79.337 -5.875,78.969C-6.056,78.229 -6.185,77.472 -6.251,76.699C-6.031,76.803 -5.805,76.9 -5.57,76.982C-4.535,77.342 -3.387,77.501 -2.427,77.641C0.649,78.087 3.69,77.785 6.648,76.861C7.66,76.543 7.405,75.106 6.543,75.002" style="fill:rgb(47,40,57);fill-rule:nonzero;"/>
        </g>
        <g transform="matrix(1,0,0,1,57.251,383.439)">
            <path d="M0,12.352C-1.901,12.352 -3.608,11.565 -4.795,10.319C-5.841,9.222 -6.485,7.771 -6.485,6.175C-6.485,4.581 -5.841,3.129 -4.795,2.033C-3.983,1.18 -2.928,0.546 -1.732,0.229C-1.18,0.083 -0.601,-0.002 0,-0.002C0.601,-0.002 1.18,0.083 1.731,0.229C4.467,0.954 6.484,3.342 6.484,6.175C6.484,9.581 3.575,12.352 0,12.352M0,-1.885C-4.615,-1.885 -8.369,1.731 -8.369,6.175C-8.369,10.621 -4.615,14.237 0,14.237C4.614,14.237 8.369,10.621 8.369,6.175C8.369,1.731 4.614,-1.885 0,-1.885" style="fill:rgb(47,40,57);fill-rule:nonzero;"/>
        </g>
        <g transform="matrix(1,0,0,1,60.7061,389.475)">
            <path d="M0,0.037C-0.011,1.78 -1.556,3.195 -3.455,3.195C-5.362,3.195 -6.913,1.769 -6.913,0.018C-6.913,-1.733 -5.362,-3.158 -3.455,-3.158C-3.097,-3.158 -2.757,-3.094 -2.432,-3C-2.326,-3.314 -2.159,-3.597 -1.939,-3.833C-1.681,-4.11 -1.356,-4.32 -0.99,-4.445C-1.731,-4.815 -2.562,-5.043 -3.455,-5.043C-5.57,-5.043 -7.385,-3.863 -8.25,-2.171C-8.591,-1.505 -8.798,-0.769 -8.798,0.018C-8.798,0.806 -8.591,1.543 -8.25,2.208C-7.385,3.9 -5.57,5.08 -3.455,5.08C-0.509,5.08 1.887,2.809 1.887,0.018C1.887,-0.362 1.834,-0.731 1.75,-1.088C1.547,-0.744 1.26,-0.46 0.915,-0.259C0.64,-0.1 0.332,0.002 0,0.037" style="fill:rgb(47,40,57);fill-rule:nonzero;"/>
        </g>
        <g transform="matrix(1,0,0,1,87.3516,394.371)">
            <path d="M0,-9.514C0.693,-10.061 1.508,-10.467 2.398,-10.703C2.951,-10.849 3.53,-10.934 4.13,-10.934C4.731,-10.934 5.31,-10.849 5.862,-10.703C8.598,-9.979 10.615,-7.59 10.615,-4.757C10.615,-1.351 7.706,1.42 4.13,1.42C2.563,1.42 1.123,0.886 0,0.001C-1.437,-1.133 -2.354,-2.844 -2.354,-4.757C-2.354,-6.669 -1.437,-8.38 0,-9.514M4.13,3.304C4.567,3.304 4.992,3.262 5.411,3.2C5.985,3.115 6.539,2.974 7.069,2.782C10.236,1.632 12.499,-1.309 12.499,-4.757C12.499,-9.202 8.745,-12.818 4.13,-12.818C-0.484,-12.818 -4.239,-9.202 -4.239,-4.757C-4.239,-0.312 -0.484,3.304 4.13,3.304" style="fill:rgb(47,40,57);fill-rule:nonzero;"/>
        </g>
        <g transform="matrix(1,0,0,1,91.4819,384.432)">
            <path d="M0,10.123C2.946,10.123 5.342,7.852 5.342,5.061C5.342,4.668 5.284,4.29 5.194,3.922C4.995,4.271 4.713,4.563 4.368,4.769C4.095,4.933 3.787,5.038 3.456,5.077C3.446,6.821 1.9,8.238 0,8.238C-1.906,8.238 -3.458,6.812 -3.458,5.061C-3.458,3.311 -1.906,1.885 0,1.885C0.349,1.885 0.679,1.947 0.997,2.035C1.104,1.723 1.272,1.439 1.493,1.203C1.754,0.924 2.083,0.716 2.454,0.593C1.716,0.227 0.889,0 0,0C-1.673,0 -3.15,0.747 -4.13,1.892C-4.876,2.762 -5.342,3.855 -5.342,5.061C-5.342,6.268 -4.876,7.361 -4.13,8.231C-3.15,9.376 -1.673,10.123 0,10.123" style="fill:rgb(47,40,57);fill-rule:nonzero;"/>
        </g>
        <g transform="matrix(1,0,0,1,52.4824,377.817)">
            <path d="M0,1.885L9.736,1.885C10.256,1.885 10.678,1.463 10.678,0.943C10.678,0.421 10.256,0 9.736,0L0,0C-0.52,0 -0.942,0.421 -0.942,0.943C-0.942,1.463 -0.52,1.885 0,1.885" style="fill:rgb(47,40,57);fill-rule:nonzero;"/>
        </g>
        <g transform="matrix(1,0,0,1,87.0723,377.817)">
            <path d="M0,1.885L9.736,1.885C10.256,1.885 10.678,1.463 10.678,0.943C10.678,0.421 10.256,0 9.736,0L0,0C-0.521,0 -0.942,0.421 -0.942,0.943C-0.942,1.463 -0.521,1.885 0,1.885" style="fill:rgb(47,40,57);fill-rule:nonzero;"/>
        </g>
        <g transform="matrix(1,0,0,1,71.895,399.507)">
            <path d="M0,1.748C0.106,1.789 0.219,1.816 0.339,1.816L6.904,1.816C6.998,1.816 7.083,1.788 7.168,1.763C7.557,1.646 7.846,1.301 7.846,0.874C7.846,0.352 7.424,-0.068 6.904,-0.068L0.339,-0.068C-0.181,-0.068 -0.604,0.352 -0.604,0.874C-0.604,1.274 -0.352,1.611 0,1.748" style="fill:rgb(47,40,57);fill-rule:nonzero;"/>
        </g>
        <g transform="matrix(1,0,0,1,78.1338,411.524)">
            <path d="M0,-2.709C-0.27,-2.441 -2.714,-0.178 -5.232,-2.705C-5.599,-3.074 -6.195,-3.076 -6.564,-2.709C-6.933,-2.342 -6.935,-1.744 -6.567,-1.376C-5.417,-0.219 -4.128,0.367 -2.739,0.367C-0.429,0.367 1.262,-1.305 1.333,-1.376C1.699,-1.743 1.697,-2.336 1.331,-2.704C0.966,-3.07 0.37,-3.073 0,-2.709" style="fill:rgb(47,40,57);fill-rule:nonzero;"/>
        </g>
    </g>
</svg>
