<?xml version="1.0" encoding="UTF-8" standalone="no"?>
<!DOCTYPE svg PUBLIC "-//W3C//DTD SVG 1.1//EN" "http://www.w3.org/Graphics/SVG/1.1/DTD/svg11.dtd">
<svg width="100%" height="100%" viewBox="0 0 130 130" version="1.1" xmlns="http://www.w3.org/2000/svg" xmlns:xlink="http://www.w3.org/1999/xlink" xml:space="preserve" xmlns:serif="http://www.serif.com/" style="fill-rule:evenodd;clip-rule:evenodd;stroke-linejoin:round;stroke-miterlimit:2;">
    <g transform="matrix(1,0,0,1,-345.831,-60.6513)">
        <g transform="matrix(1,0,0,1,397.251,170.157)">
            <path d="M0,-7.121C-2.408,-5.666 -4.326,-3.606 -5.565,-1.112C-5.765,-0.711 -5.95,-0.302 -6.113,0.121C-6.547,1.242 -8.368,0.752 -7.931,-0.38C-7.835,-0.63 -7.722,-0.869 -7.615,-1.112C-6.217,-4.301 -3.961,-6.93 -0.951,-8.748C0.091,-9.378 1.037,-7.747 0,-7.121M35.905,-1.112C33.996,-5.497 30.516,-9.191 26.072,-11.657C24.805,-12.36 23.459,-12.961 22.049,-13.452C21.738,-13.56 21.425,-13.663 21.107,-13.76L21.107,-12.908C21.107,-12.863 21.101,-12.819 21.101,-12.774C21.09,-12.157 21.006,-11.558 20.861,-10.981L20.974,-9.878C20.974,-9.878 20.804,-9.871 20.5,-9.868C19.297,-6.968 16.435,-4.913 13.113,-4.913C11.452,-4.913 9.905,-5.428 8.624,-6.304C6.547,-7.723 5.17,-10.094 5.126,-12.774C5.125,-12.819 5.119,-12.863 5.119,-12.908L5.119,-13.76C4.802,-13.663 4.487,-13.56 4.176,-13.452C-1.509,-11.474 -6.152,-7.668 -8.824,-2.85C-9.138,-2.285 -9.422,-1.704 -9.68,-1.112C-10.728,1.295 -11.308,3.906 -11.308,6.639L37.533,6.639C37.533,3.906 36.953,1.295 35.905,-1.112" style="fill:rgb(129,172,171);fill-rule:nonzero;"/>
        </g>
        <g transform="matrix(1,0,0,1,393.222,118.406)">
            <path d="M0,8.238C2.43,8.238 4.4,6.394 4.4,4.119C4.4,4.024 4.377,3.935 4.37,3.842C4.096,4.001 3.787,4.102 3.456,4.137C3.374,4.146 3.295,4.162 3.212,4.162C1.931,4.162 0.892,3.123 0.892,1.842C0.892,1.581 0.944,1.335 1.023,1.1C1.13,0.787 1.296,0.504 1.517,0.267C1.042,0.103 0.535,0 0,0C-2.43,0 -4.399,1.844 -4.399,4.119C-4.399,6.394 -2.43,8.238 0,8.238" style="fill:rgb(129,172,171);fill-rule:nonzero;"/>
        </g>
        <g transform="matrix(1,0,0,1,427.453,118.406)">
            <path d="M0,8.238C2.43,8.238 4.399,6.394 4.399,4.119C4.399,4.019 4.376,3.925 4.368,3.826C4.095,3.99 3.786,4.095 3.455,4.134C3.365,4.145 3.276,4.162 3.183,4.162C1.901,4.162 0.862,3.123 0.862,1.842C0.862,1.578 0.916,1.329 0.997,1.093C1.104,0.78 1.271,0.496 1.493,0.26C1.025,0.101 0.526,0 0,0C-1.913,0 -3.523,1.149 -4.13,2.745C-4.294,3.176 -4.4,3.634 -4.4,4.119C-4.4,4.603 -4.294,5.061 -4.13,5.493C-3.523,7.089 -1.913,8.238 0,8.238" style="fill:rgb(129,172,171);fill-rule:nonzero;"/>
        </g>
        <g transform="matrix(1,0,0,1,416.72,160.713)">
            <path d="M0,-0.43C-2.361,-0.48 -7.06,-0.82 -10.845,-2.573C-11.57,-2.909 -12.264,-3.296 -12.898,-3.743C-13.072,-3.867 -13.243,-3.993 -13.408,-4.125C-13.549,-4.238 -13.686,-4.355 -13.819,-4.475C-13.911,-4.557 -13.999,-4.643 -14.088,-4.729C-14.166,-4.805 -14.247,-4.88 -14.323,-4.96C-14.327,-4.898 -14.33,-4.837 -14.333,-4.775C-14.338,-4.66 -14.35,-4.548 -14.35,-4.432L-14.35,-3.464C-14.35,-3.419 -14.344,-3.375 -14.343,-3.33C-14.299,-0.65 -12.922,1.721 -10.845,3.14C-9.563,4.016 -8.017,4.53 -6.355,4.53C-3.034,4.53 -0.172,2.476 1.031,-0.424C0.776,-0.421 0.425,-0.421 0,-0.43" style="fill:rgb(226,179,132);fill-rule:nonzero;"/>
        </g>
        <g transform="matrix(1,0,0,1,385.077,120.252)">
            <path d="M0,11.566L0.125,11.566C1.34,11.566 1.338,13.451 0.125,13.451L0,13.451C-1.214,13.451 -1.212,11.566 0,11.566M3.62,15.073C2.405,15.073 2.407,13.189 3.62,13.189C4.835,13.189 4.833,15.073 3.62,15.073M3.87,12.078C2.655,12.078 2.657,10.193 3.87,10.193C5.084,10.193 5.082,12.078 3.87,12.078M6.74,13.201C5.525,13.201 5.528,11.316 6.74,11.316C7.955,11.316 7.953,13.201 6.74,13.201M3.35,-3.037C3.577,-3.222 3.816,-3.394 4.066,-3.552C5.237,-4.291 6.638,-4.725 8.145,-4.725C9.652,-4.725 11.053,-4.291 12.224,-3.552C14.239,-2.279 15.571,-0.093 15.571,2.394C15.571,6.326 12.246,9.513 8.145,9.513C6.315,9.513 4.644,8.877 3.35,7.825C1.741,6.52 0.718,4.572 0.718,2.394C0.718,0.216 1.741,-1.731 3.35,-3.037M26.41,2.273L29.692,11.497L23.128,11.759C23.04,11.41 26.41,2.273 26.41,2.273M23.818,27.069C23.636,26.853 23.658,26.479 23.918,26.339C24.034,26.13 24.294,25.982 24.572,26.112C25.8,26.684 27.506,26.835 28.649,26.006C28.994,25.756 29.321,26.084 29.322,26.424C29.324,26.463 29.318,26.504 29.307,26.546C29.296,26.588 29.286,26.631 29.263,26.671C29.262,26.673 29.262,26.674 29.261,26.676C29.014,27.084 28.71,27.396 28.384,27.657C28.2,27.805 28.009,27.93 27.808,28.03C27.771,28.114 27.712,28.187 27.615,28.233C27.535,28.27 27.455,28.293 27.375,28.322C26.843,28.521 26.308,28.551 25.744,28.353C25.578,28.294 25.424,28.218 25.275,28.133C25.206,28.105 25.138,28.078 25.07,28.045C24.67,27.853 24.296,27.567 23.957,27.202C23.912,27.154 23.861,27.12 23.818,27.069M23.242,13.896C23.15,13.618 23.128,13.422 23.128,13.422L29.692,13.16C29.692,13.16 29.66,13.478 29.507,13.896C29.482,13.963 29.455,14.031 29.424,14.102C29.068,14.916 28.256,15.961 26.41,15.961C24.414,15.961 23.626,14.854 23.318,14.102C23.289,14.029 23.264,13.961 23.242,13.896M48.53,13.197C48.447,13.239 48.364,13.28 48.281,13.322C47.198,13.863 46.245,12.237 47.33,11.694C47.413,11.653 47.496,11.611 47.579,11.569C48.662,11.028 49.615,12.654 48.53,13.197M40.69,13.451L40.566,13.451C39.352,13.451 39.354,11.566 40.566,11.566L40.69,11.566C41.905,11.566 41.903,13.451 40.69,13.451M45.352,9.969C46.21,10.829 44.878,12.161 44.019,11.302C43.978,11.261 43.936,11.219 43.894,11.177C43.636,10.919 43.591,10.622 43.656,10.351C43.809,9.719 44.626,9.244 45.227,9.845C45.256,9.874 45.285,9.903 45.314,9.932C45.326,9.945 45.339,9.957 45.352,9.969M46.501,14.505L46.501,14.63C46.501,15.845 44.616,15.843 44.616,14.63L44.616,14.505C44.616,13.291 46.501,13.293 46.501,14.505M38.246,-3.522C38.263,-3.533 38.28,-3.541 38.297,-3.552C39.468,-4.291 40.868,-4.725 42.376,-4.725C43.883,-4.725 45.283,-4.291 46.454,-3.552C48.47,-2.279 49.803,-0.093 49.803,2.394C49.803,6.326 46.478,9.513 42.376,9.513C40.847,9.513 39.427,9.069 38.246,8.31C36.258,7.033 34.949,4.86 34.949,2.394C34.949,-0.072 36.258,-2.245 38.246,-3.522M60.657,-0.04C60.655,-0.782 60.643,-1.498 60.626,-2.209C60.272,-2.188 59.9,-2.338 59.693,-2.66C59.668,-2.698 59.649,-2.74 59.63,-2.783C59.587,-2.88 59.547,-2.98 59.536,-3.101C59.522,-3.25 59.511,-3.402 59.498,-3.552L59.483,-3.726C59.457,-4.041 59.431,-4.356 59.406,-4.673C59.206,-7.297 59.072,-10.006 58.824,-12.704L57.09,-22.064C56.628,-23.101 56.128,-24.061 55.587,-24.937C54.213,-25.196 52.836,-25.43 51.457,-25.644C43.677,-26.852 35.817,-27.357 27.976,-27.168C20.095,-26.978 12.235,-26.084 4.495,-24.497C1.217,-23.825 -2.042,-23.038 -5.27,-22.117C-6.284,-19.07 -7.062,-15.976 -7.597,-12.84C-8.052,-10.175 -8.326,-7.48 -8.431,-4.761C-8.442,-4.447 -8.449,-4.132 -8.457,-3.817C-8.459,-3.728 -8.462,-3.64 -8.464,-3.552C-8.469,-3.325 -8.481,-3.1 -8.483,-2.872C-8.483,-2.869 -8.485,-2.866 -8.485,-2.863C-8.49,-2.574 -8.603,-2.357 -8.77,-2.207C-9.017,-1.985 -9.38,-1.923 -9.701,-2.006C-9.719,-1.257 -9.735,-0.507 -9.735,0.276C-9.735,3.435 -9.521,6.317 -9.129,8.967C-9.073,9.077 -9.056,9.198 -9.081,9.309C-8.923,10.328 -8.739,11.311 -8.526,12.257C-8.454,12.58 -8.376,12.894 -8.297,13.208C-8.221,13.515 -8.146,13.824 -8.063,14.123C-4.409,27.377 4.904,33.086 16.438,34.84C16.747,34.887 17.06,34.929 17.371,34.97C17.363,35.03 17.351,35.089 17.344,35.15C17.333,35.244 17.33,35.339 17.323,35.433C17.409,35.349 17.749,35.279 18.284,35.221C18.49,35.198 18.729,35.178 18.985,35.159C19.585,35.22 20.188,35.271 20.798,35.313C20.814,35.315 20.832,35.316 20.849,35.316C22.362,35.42 23.9,35.475 25.463,35.475C26.926,35.475 28.367,35.422 29.786,35.326C30.623,35.27 31.452,35.199 32.271,35.106C32.395,35.092 32.518,35.078 32.641,35.064L32.723,35.862L32.734,35.981L32.838,36.998L33.035,38.923C33.18,38.346 33.264,37.747 33.274,37.13C33.274,37.085 33.281,37.042 33.281,36.997L33.281,36.028C33.281,35.941 33.271,35.857 33.268,35.77C33.261,35.562 33.252,35.354 33.229,35.15C33.224,35.095 33.212,35.042 33.204,34.987C33.516,34.946 33.829,34.908 34.138,34.861C45.786,33.089 55.218,27.22 58.941,14.073C59.026,13.771 59.108,13.463 59.188,13.154C59.267,12.847 59.342,12.536 59.415,12.221C59.585,11.484 59.741,10.73 59.877,9.95C59.868,9.948 59.86,9.947 59.852,9.945C59.293,9.796 59.497,8.975 60.024,9.031C60.414,6.507 60.63,3.766 60.652,0.79C60.336,0.585 60.387,0.112 60.657,-0.04" style="fill:rgb(226,179,132);fill-rule:nonzero;"/>
        </g>
        <g transform="matrix(-0.942055,0.335457,0.335457,0.942055,442.093,97.9399)">
            <path d="M0.013,-2.695C0.164,-2.783 0.316,-2.866 0.466,-2.952C0.25,-1.945 0.101,-0.873 0.013,0.259L-0.046,-0.108C-0.07,-0.973 -0.049,-1.834 0.013,-2.695" style="fill:rgb(226,179,132);fill-rule:nonzero;"/>
        </g>
        <g transform="matrix(1,0,0,1,397.622,122.767)">
            <path d="M0,-0.242C0,2.033 -1.971,3.877 -4.4,3.877C-6.83,3.877 -8.8,2.033 -8.8,-0.242C-8.8,-2.517 -6.83,-4.361 -4.4,-4.361C-3.865,-4.361 -3.358,-4.258 -2.884,-4.094C-3.104,-3.857 -3.271,-3.574 -3.377,-3.261C-3.456,-3.026 -3.509,-2.78 -3.509,-2.519C-3.509,-1.238 -2.47,-0.199 -1.188,-0.199C-1.105,-0.199 -1.026,-0.215 -0.944,-0.223C-0.613,-0.259 -0.305,-0.36 -0.03,-0.519C-0.023,-0.426 0,-0.337 0,-0.242M-0.321,-6.067C-1.492,-6.806 -2.893,-7.24 -4.4,-7.24C-5.907,-7.24 -7.308,-6.806 -8.479,-6.067C-8.729,-5.909 -8.968,-5.737 -9.195,-5.552C-10.804,-4.246 -11.827,-2.299 -11.827,-0.121C-11.827,2.057 -10.804,4.005 -9.195,5.31C-7.901,6.362 -6.229,6.998 -4.4,6.998C-0.299,6.998 3.026,3.811 3.026,-0.121C3.026,-2.608 1.694,-4.794 -0.321,-6.067" style="fill:rgb(253,250,201);fill-rule:nonzero;"/>
        </g>
        <g transform="matrix(1,0,0,1,431.853,122.767)">
            <path d="M0,-0.242C0,2.033 -1.97,3.877 -4.399,3.877C-6.312,3.877 -7.923,2.728 -8.529,1.132C-8.693,0.7 -8.8,0.242 -8.8,-0.242C-8.8,-0.726 -8.693,-1.184 -8.529,-1.616C-7.923,-3.212 -6.312,-4.361 -4.399,-4.361C-3.873,-4.361 -3.374,-4.26 -2.906,-4.101C-3.128,-3.865 -3.295,-3.581 -3.402,-3.268C-3.483,-3.032 -3.537,-2.783 -3.537,-2.519C-3.537,-1.238 -2.498,-0.199 -1.217,-0.199C-1.123,-0.199 -1.034,-0.216 -0.944,-0.226C-0.613,-0.265 -0.305,-0.371 -0.031,-0.534C-0.023,-0.436 0,-0.342 0,-0.242M-0.321,-6.067C-1.492,-6.806 -2.893,-7.24 -4.399,-7.24C-5.907,-7.24 -7.308,-6.806 -8.479,-6.067C-8.495,-6.056 -8.513,-6.048 -8.529,-6.037C-10.518,-4.76 -11.826,-2.587 -11.826,-0.121C-11.826,2.345 -10.518,4.518 -8.529,5.795C-7.349,6.554 -5.929,6.998 -4.399,6.998C-0.298,6.998 3.027,3.811 3.027,-0.121C3.027,-2.608 1.694,-4.794 -0.321,-6.067" style="fill:rgb(253,250,201);fill-rule:nonzero;"/>
        </g>
        <g transform="matrix(1,0,0,1,408.205,122.526)">
            <path d="M0,9.486L6.564,9.224L3.282,0C3.282,0 -0.088,9.136 0,9.486" style="fill:rgb(253,250,201);fill-rule:nonzero;"/>
        </g>
        <g transform="matrix(1,0,0,1,447.893,124.809)">
            <path d="M0,0.782C0.154,0.088 0.424,-0.739 0.335,-1.458C0.184,-2.69 -0.429,-3.093 -1.256,-3.414C-1.509,-3.512 -1.78,-3.603 -2.066,-3.708C-2.105,-3.722 -2.132,-3.746 -2.163,-3.767C-2.186,-0.79 -2.401,1.951 -2.791,4.475C-2.765,4.478 -2.741,4.472 -2.713,4.48C-2.509,4.534 -2.327,4.549 -2.155,4.546C-0.521,4.519 -0.289,2.087 0,0.782" style="fill:rgb(188,98,86);fill-rule:nonzero;"/>
        </g>
        <g transform="matrix(1,0,0,1,448.252,133.369)">
            <path d="M0,-16.508C-0.059,-16.532 -0.114,-16.561 -0.174,-16.584L-0.494,-16.623L-0.873,-16.669L-1.623,-16.76L-1.802,-16.782C-1.799,-16.744 -1.796,-16.707 -1.792,-16.669C-1.779,-16.519 -1.768,-16.367 -1.754,-16.218C-1.747,-16.136 -1.769,-16.075 -1.778,-16.005C-1.836,-15.577 -2.167,-15.348 -2.549,-15.326C-2.532,-14.615 -2.52,-13.899 -2.518,-13.157C-2.426,-13.21 -2.311,-13.226 -2.175,-13.177C-1.979,-13.105 -1.775,-13.034 -1.571,-12.962C-0.648,-12.632 0.29,-12.237 0.682,-11.291C1.217,-10.001 0.776,-8.469 0.465,-7.182C-0.053,-5.034 -0.293,-2.737 -2.721,-3.054C-2.901,-3.078 -3.092,-3.113 -3.298,-3.167C-3.434,-2.387 -3.59,-1.633 -3.76,-0.896C-3.833,-0.581 -3.908,-0.27 -3.987,0.037C-3.83,0.058 -3.672,0.078 -3.516,0.088C-0.417,0.274 2.401,-1.932 2.902,-5.058L3.677,-9.898C4.131,-12.732 2.537,-15.436 0,-16.508" style="fill:rgb(188,98,86);fill-rule:nonzero;"/>
        </g>
        <g transform="matrix(1,0,0,1,417.915,158.358)">
            <path d="M0,-1.108L-0.104,-2.125L-0.115,-2.244L-0.197,-3.042C-0.32,-3.027 -0.443,-3.014 -0.567,-3C-1.386,-2.907 -2.215,-2.836 -3.052,-2.779C-4.471,-2.683 -5.912,-2.631 -7.375,-2.631C-8.938,-2.631 -10.476,-2.685 -11.989,-2.789C-12.006,-2.79 -12.023,-2.791 -12.04,-2.793C-12.649,-2.835 -13.253,-2.886 -13.853,-2.946C-14.109,-2.927 -14.348,-2.907 -14.554,-2.885C-15.089,-2.827 -15.429,-2.756 -15.515,-2.672C-15.529,-2.659 -15.545,-2.646 -15.545,-2.631C-15.537,-2.622 -15.527,-2.614 -15.519,-2.605C-15.442,-2.525 -15.361,-2.451 -15.283,-2.374C-15.194,-2.289 -15.106,-2.203 -15.015,-2.12C-14.881,-2.001 -14.744,-1.883 -14.604,-1.771C-14.438,-1.639 -14.268,-1.512 -14.094,-1.389C-13.459,-0.941 -12.766,-0.555 -12.04,-0.218C-8.255,1.535 -3.557,1.874 -1.195,1.925C-0.771,1.934 -0.419,1.934 -0.164,1.931C0.14,1.927 0.31,1.92 0.31,1.92L0.197,0.817L0,-1.108Z" style="fill:rgb(188,98,86);fill-rule:nonzero;"/>
        </g>
        <g transform="matrix(-1,0,0,1,385.078,133.703)">
            <path d="M-0.124,-1.885L0.001,-1.885C1.213,-1.885 1.215,0 0.001,0L-0.124,0C-1.337,0 -1.339,-1.885 -0.124,-1.885" style="fill:rgb(188,98,86);fill-rule:nonzero;"/>
        </g>
        <g transform="matrix(1,0,0,1,388.697,135.326)">
            <path d="M0,-1.885C-1.213,-1.885 -1.215,0 0,0C1.213,0 1.215,-1.885 0,-1.885" style="fill:rgb(188,98,86);fill-rule:nonzero;"/>
        </g>
        <g transform="matrix(1,0,0,1,388.947,132.33)">
            <path d="M0,-1.885C-1.213,-1.885 -1.215,0 0,0C1.212,0 1.214,-1.885 0,-1.885" style="fill:rgb(188,98,86);fill-rule:nonzero;"/>
        </g>
        <g transform="matrix(1,0,0,1,391.817,133.453)">
            <path d="M0,-1.885C-1.212,-1.885 -1.215,0 0,0C1.213,0 1.215,-1.885 0,-1.885" style="fill:rgb(188,98,86);fill-rule:nonzero;"/>
        </g>
        <g transform="matrix(-1,0,0,1,425.644,133.703)">
            <path d="M-0.124,-1.885L-0,-1.885C1.213,-1.885 1.215,0 -0,0L-0.124,0C-1.337,0 -1.339,-1.885 -0.124,-1.885" style="fill:rgb(188,98,86);fill-rule:nonzero;"/>
        </g>
        <g transform="matrix(1,0,0,1,430.429,131.688)">
            <path d="M0,-1.466C-0.013,-1.478 -0.025,-1.49 -0.037,-1.503C-0.066,-1.532 -0.096,-1.561 -0.125,-1.591C-0.726,-2.191 -1.543,-1.716 -1.695,-1.085C-1.761,-0.813 -1.716,-0.516 -1.458,-0.258C-1.416,-0.216 -1.374,-0.174 -1.333,-0.133C-0.474,0.725 0.858,-0.607 0,-1.466" style="fill:rgb(188,98,86);fill-rule:nonzero;"/>
        </g>
        <g transform="matrix(0,1,1,0,430.698,133.877)">
            <path d="M0.88,-1.005L1.006,-1.005C2.217,-1.005 2.22,0.88 1.006,0.88L0.88,0.88C-0.332,0.88 -0.334,-1.005 0.88,-1.005" style="fill:rgb(188,98,86);fill-rule:nonzero;"/>
        </g>
        <g transform="matrix(-0.928257,0.371939,0.371939,0.928257,433.659,133.381)">
            <path d="M0.351,-1.821C0.443,-1.813 0.536,-1.805 0.628,-1.797C1.837,-1.698 1.558,0.167 0.351,0.067C0.259,0.06 0.166,0.051 0.073,0.043C-1.136,-0.056 -0.856,-1.92 0.351,-1.821" style="fill:rgb(188,98,86);fill-rule:nonzero;"/>
        </g>
        <g transform="matrix(1,0,0,1,375.996,120.799)">
            <path d="M0,8.763C-0.032,8.903 -0.128,9.023 -0.321,9.056C-0.477,9.082 -0.618,9.094 -0.758,9.102C-3.31,9.254 -3.397,6.524 -3.708,4.325C-4.002,2.238 -4.097,-0.396 -1.593,-0.649C-1.445,-0.664 -1.292,-0.674 -1.126,-0.671C-0.735,-0.666 -0.6,-0.276 -0.711,-0C-0.767,0.169 -0.908,0.306 -1.14,0.306C-1.187,0.306 -1.226,0.291 -1.266,0.281C-1.376,0.284 -1.484,0.29 -1.582,0.307C-3.485,0.639 -2.923,3.314 -2.712,4.666C-2.543,5.745 -2.525,8.131 -0.934,8.173C-0.82,8.176 -0.701,8.169 -0.572,8.147C-0.323,8.105 -0.14,8.243 -0.048,8.421C-0.439,5.771 -0.654,2.889 -0.654,-0.27C-0.654,-1.053 -0.638,-1.803 -0.62,-2.552C-0.966,-2.642 -1.248,-2.908 -1.273,-3.353C-1.275,-3.377 -1.287,-3.393 -1.287,-3.419C-1.285,-3.542 -1.278,-3.665 -1.276,-3.788L-1.55,-3.812L-2.654,-3.907C-3.595,-3.496 -4.4,-2.862 -5.018,-2.076C-6.039,-0.777 -6.544,0.922 -6.264,2.673L-5.488,7.513C-5.401,8.059 -5.236,8.575 -5.018,9.057C-4.104,11.078 -2.142,12.464 0.075,12.644C0.31,12.663 0.545,12.67 0.784,12.661C0.705,12.347 0.627,12.034 0.555,11.711C0.342,10.765 0.158,9.782 0,8.763" style="fill:rgb(188,98,86);fill-rule:nonzero;"/>
        </g>
        <g transform="matrix(1,0,0,1,413.727,148.59)">
            <path d="M0,-2.332C-1.144,-1.503 -2.85,-1.654 -4.077,-2.226C-4.355,-2.356 -4.615,-2.208 -4.731,-1.999C-4.991,-1.859 -5.014,-1.485 -4.831,-1.269C-4.788,-1.218 -4.737,-1.184 -4.692,-1.136C-4.354,-0.77 -3.979,-0.485 -3.579,-0.292C-3.512,-0.26 -3.443,-0.233 -3.374,-0.205C-3.226,-0.12 -3.071,-0.044 -2.905,0.015C-2.342,0.213 -1.807,0.183 -1.274,-0.016C-1.194,-0.045 -1.114,-0.068 -1.034,-0.105C-0.937,-0.151 -0.878,-0.224 -0.842,-0.308C-0.641,-0.408 -0.449,-0.533 -0.266,-0.681C0.061,-0.942 0.364,-1.254 0.611,-1.662C0.612,-1.664 0.612,-1.665 0.613,-1.666C0.638,-1.709 0.646,-1.75 0.657,-1.792C0.669,-1.834 0.675,-1.874 0.673,-1.914C0.671,-1.965 0.658,-2.014 0.639,-2.06C0.562,-2.335 0.294,-2.545 0,-2.332" style="fill:rgb(188,98,86);fill-rule:nonzero;"/>
        </g>
        <g transform="matrix(1,0,0,1,407.866,135.318)">
            <path d="M0,-1.032C0.332,0.011 1.339,1.366 3.621,1.366C5.753,1.366 6.771,0.08 7.168,-1.017C7.279,-1.324 7.35,-1.618 7.373,-1.862L7.424,-2.398L-0.183,-2.094L-0.13,-1.594C-0.112,-1.428 -0.064,-1.234 0,-1.032" style="fill:rgb(188,98,86);fill-rule:nonzero;"/>
        </g>
        <g transform="matrix(1,0,0,1,442.307,106.874)">
            <path d="M0,-8.376C-0.067,-8.602 -0.135,-8.828 -0.207,-9.051L-0.14,-8.686L1.595,0.675C1.591,0.63 1.587,0.584 1.583,0.539C1.298,-2.5 0.855,-5.517 0,-8.376" style="fill:rgb(135,71,43);fill-rule:nonzero;"/>
        </g>
        <g transform="matrix(1,0,0,1,378.594,106.204)">
            <path d="M0,-20.43C5.254,-24.66 11.368,-27.423 18.041,-28.461C19.229,-28.646 19.736,-26.829 18.542,-26.643C12.212,-25.659 6.328,-23.12 1.332,-19.097C0.396,-18.344 -0.945,-19.669 0,-20.43M22.143,-29.197L22.259,-29.197C23.474,-29.197 23.472,-27.312 22.259,-27.312L22.143,-27.312C20.928,-27.312 20.93,-29.197 22.143,-29.197M66.611,-9.68C66.185,-12.764 65.51,-16.986 62.719,-18.871C61.718,-19.547 62.661,-21.179 63.67,-20.498C66.967,-18.272 67.916,-13.884 68.428,-10.18C68.593,-8.993 66.776,-8.484 66.611,-9.68M47.174,-30.248C42.545,-30.934 38.018,-31.231 33.696,-31.235C32.725,-31.236 31.767,-31.219 30.817,-31.191C16.882,-30.781 5.454,-27.385 0.356,-24.287C-6.633,-20.039 -5.594,-5.786 -5.594,-5.079L-5.594,10.658L-5.252,10.687L-4.147,10.783L-3.874,10.806C-3.873,10.703 -3.867,10.6 -3.865,10.497C-3.864,10.419 -3.86,10.342 -3.859,10.265C-3.852,9.946 -3.844,9.627 -3.832,9.308C-3.731,6.585 -3.468,3.882 -3.026,1.208C-2.471,-2.155 -1.646,-5.474 -0.552,-8.732C-0.467,-8.986 -0.305,-9.147 -0.118,-9.251C-0.034,-9.505 0.149,-9.727 0.483,-9.823C0.716,-9.89 0.951,-9.948 1.184,-10.013C1.452,-10.089 1.723,-10.159 1.992,-10.233C4.967,-11.05 7.963,-11.765 10.979,-12.373C18.722,-13.936 26.58,-14.81 34.459,-14.994C42.3,-15.177 50.157,-14.676 57.94,-13.489C58.794,-13.359 59.646,-13.221 60.498,-13.075C60.952,-12.996 61.405,-12.916 61.858,-12.833C62.286,-12.755 62.715,-12.687 63.142,-12.605C63.163,-12.601 63.175,-12.589 63.194,-12.583C63.524,-12.643 63.866,-12.52 64.055,-12.112C65.963,-7.974 66.716,-3.401 67.153,1.208C67.408,3.903 67.558,6.608 67.763,9.247C67.787,9.568 67.814,9.886 67.841,10.204C67.846,10.264 67.851,10.323 67.856,10.383L68.035,10.405L68.785,10.497L69.164,10.543L69.484,10.582L70.105,10.657L70.107,10.658L70.107,-15.445C70.107,-15.445 68.117,-27.148 47.174,-30.248" style="fill:rgb(135,71,43);fill-rule:nonzero;"/>
        </g>
        <g transform="matrix(-0.48884,-0.872373,-0.872373,0.48884,379.431,77.5947)">
            <path d="M-8.54,-14.936C-6.183,-8.607 -5.604,-1.923 -6.726,4.729C-6.928,5.925 -8.739,5.404 -8.54,4.218C-7.473,-2.107 -8.135,-8.481 -10.37,-14.485C-10.791,-15.617 -8.959,-16.062 -8.54,-14.936" style="fill:rgb(163,100,58);fill-rule:nonzero;"/>
        </g>
        <g transform="matrix(-1,0,0,1,400.737,78.8918)">
            <path d="M-0.116,-1.885L-0,-1.885C1.213,-1.885 1.215,0 -0,0L-0.116,0C-1.329,0 -1.331,-1.885 -0.116,-1.885" style="fill:rgb(163,100,58);fill-rule:nonzero;"/>
        </g>
        <g transform="matrix(-0.964976,0.26234,0.26234,0.964976,446.669,96.4509)">
            <path d="M1.432,-11.524C2.227,-12.446 3.566,-11.119 2.777,-10.204C0.578,-7.653 1.034,-3.402 1.432,-0.314C1.587,0.884 -0.3,0.869 -0.452,-0.32C-0.93,-4.028 -1.165,-8.511 1.432,-11.524" style="fill:rgb(163,100,58);fill-rule:nonzero;"/>
        </g>
        <g transform="matrix(-0.619464,-0.785025,-0.785025,0.619464,390.452,163.492)">
            <path d="M-3.854,-5.62C-4.005,-6.822 -2.138,-7.09 -1.987,-5.881C-1.55,-2.392 -2.216,1.007 -3.854,4.08L-5.124,2.471C-3.933,-0.047 -3.504,-2.828 -3.854,-5.62" style="fill:rgb(167,216,213);fill-rule:nonzero;"/>
        </g>
        <g transform="matrix(0.295306,0.955403,0.955403,-0.295306,390.425,169.169)">
            <path d="M0.254,-1.235C1.206,-1.987 2.212,-0.392 1.269,0.353C0.913,0.634 0.577,0.932 0.254,1.24L-0.352,-0.718C-0.151,-0.891 0.043,-1.069 0.254,-1.235" style="fill:rgb(167,216,213);fill-rule:nonzero;"/>
        </g>
        <g transform="matrix(1,0,0,1,450.998,127.98)">
            <path d="M0,-4.658L-0.774,0.182C-1.188,2.763 -3.46,4.57 -5.999,4.522C-5.806,3.814 -5.629,3.085 -5.467,2.335C-3.039,2.653 -2.799,0.355 -2.281,-1.793C-1.97,-3.08 -1.529,-4.612 -2.064,-5.902C-2.456,-6.847 -3.395,-7.243 -4.317,-7.573C-4.318,-8.606 -4.327,-9.617 -4.347,-10.601C-4.331,-10.599 -4.315,-10.6 -4.299,-10.597C-2.938,-10.379 -1.74,-9.639 -0.925,-8.513C-0.11,-7.388 0.219,-6.019 0,-4.658M-7.83,4.159C-7.914,4.469 -7.999,4.779 -8.089,5.08C-8.181,5.387 -8.279,5.683 -8.377,5.981C-12.744,19.342 -22.877,24.382 -31.994,26.057C-32.306,26.114 -32.617,26.171 -32.926,26.221C-33.239,26.271 -33.551,26.317 -33.86,26.36C-34.678,26.472 -35.479,26.559 -36.267,26.626C-37.735,26.75 -39.146,26.804 -40.458,26.804C-41.573,26.804 -43.049,26.752 -44.747,26.585C-44.872,26.573 -44.996,26.561 -45.123,26.548C-45.84,26.471 -46.595,26.371 -47.379,26.246C-47.685,26.197 -47.994,26.145 -48.309,26.088C-48.616,26.032 -48.923,25.978 -49.237,25.914C-57.583,24.212 -68.294,19.388 -72.688,6.208C-72.788,5.908 -72.896,5.618 -72.988,5.309C-73.079,5.009 -73.154,4.689 -73.238,4.381C-74.17,0.971 -74.714,-2.935 -74.714,-7.452C-74.714,-8.301 -74.704,-9.122 -74.69,-9.935C-74.523,-10.085 -74.411,-10.302 -74.406,-10.591C-74.406,-10.594 -74.404,-10.596 -74.404,-10.6C-74.402,-10.827 -74.39,-11.053 -74.385,-11.28C-74.383,-11.368 -74.38,-11.456 -74.378,-11.545C-74.37,-11.86 -74.363,-12.175 -74.352,-12.489C-74.247,-15.208 -73.973,-17.903 -73.518,-20.568C-72.982,-23.703 -72.205,-26.798 -71.19,-29.845C-67.963,-30.765 -64.704,-31.553 -61.426,-32.225C-53.686,-33.812 -45.826,-34.706 -37.945,-34.896C-30.104,-35.085 -22.244,-34.58 -14.464,-33.372C-13.085,-33.158 -11.708,-32.924 -10.334,-32.665C-10.164,-32.634 -9.993,-32.607 -9.822,-32.575C-9.475,-31.785 -9.166,-30.98 -8.898,-30.158C-8.826,-29.934 -8.759,-29.708 -8.691,-29.483C-7.836,-26.624 -7.394,-23.607 -7.108,-20.568C-7.104,-20.523 -7.101,-20.477 -7.097,-20.431C-6.849,-17.734 -6.715,-15.025 -6.515,-12.401C-6.49,-12.084 -6.464,-11.769 -6.437,-11.454L-6.423,-11.28C-6.41,-11.13 -6.398,-10.978 -6.385,-10.829C-6.374,-10.708 -6.334,-10.608 -6.291,-10.511C-6.271,-10.468 -6.253,-10.426 -6.228,-10.387C-6.211,-9.437 -6.201,-8.465 -6.201,-7.466C-6.333,-3.054 -6.912,0.79 -7.83,4.159M-47.687,29.269L-47.687,28.301C-47.687,28.247 -47.68,28.196 -47.679,28.142C-47.678,28.133 -47.677,28.123 -47.677,28.113C-47.653,28.117 -47.629,28.12 -47.605,28.124C-46.738,28.259 -45.909,28.364 -45.123,28.444C-44.982,28.458 -44.841,28.473 -44.704,28.486C-43.029,28.641 -41.574,28.689 -40.458,28.689C-39.266,28.689 -37.886,28.64 -36.388,28.513C-35.494,28.437 -34.56,28.333 -33.588,28.191C-33.588,28.228 -33.583,28.263 -33.583,28.301L-33.583,29.269C-33.583,30.356 -33.837,31.382 -34.278,32.302C-35.415,34.675 -37.833,36.321 -40.635,36.321C-42.338,36.321 -43.903,35.713 -45.123,34.703C-46.688,33.408 -47.687,31.453 -47.687,29.269M-27.675,31.61C-23.76,33.898 -20.664,37.189 -18.872,41.065C-17.894,43.183 -17.303,45.475 -17.18,47.873L-64.088,47.873C-63.973,45.627 -63.442,43.476 -62.571,41.472C-62.513,41.336 -62.458,41.199 -62.396,41.065C-60.024,35.933 -55.37,31.823 -49.549,29.715C-49.395,32.817 -47.657,35.504 -45.123,36.984C-43.803,37.755 -42.271,38.205 -40.635,38.205C-35.857,38.205 -31.955,34.435 -31.721,29.715C-30.296,30.231 -28.943,30.869 -27.675,31.61M-79.561,0.182L-80.02,-2.688L-80.335,-4.658C-80.483,-5.585 -80.359,-6.51 -80.02,-7.365C-79.86,-7.765 -79.669,-8.155 -79.409,-8.514C-78.705,-9.488 -77.704,-10.149 -76.568,-10.457C-76.586,-9.603 -76.593,-8.723 -76.595,-7.83C-79.099,-7.577 -79.004,-4.944 -78.71,-2.857C-78.399,-0.658 -78.312,2.072 -75.76,1.92C-75.594,2.797 -75.405,3.646 -75.195,4.467C-77.369,4.142 -79.194,2.467 -79.561,0.182M-75.936,0.991C-77.527,0.949 -77.545,-1.437 -77.714,-2.515C-77.925,-3.868 -78.487,-6.543 -76.584,-6.874C-76.556,-4.036 -76.335,-1.414 -75.936,0.991M-4.361,-6.585C-3.534,-6.264 -2.922,-5.862 -2.771,-4.629C-2.682,-3.91 -2.951,-3.083 -3.105,-2.389C-3.395,-1.084 -3.626,1.348 -5.261,1.375C-4.789,-1.056 -4.484,-3.709 -4.361,-6.585M-77.998,-11.119L-77.057,-11.119L-77.057,-34.658C-77.057,-50.692 -47.752,-52.353 -40.147,-52.514C-32.543,-52.353 -3.24,-50.692 -3.24,-34.658L-3.24,-11.234L-3.619,-11.28L-4.369,-11.371L-4.548,-11.393C-4.554,-11.453 -4.559,-11.512 -4.563,-11.573C-4.59,-11.89 -4.617,-12.209 -4.642,-12.529C-4.847,-15.169 -4.996,-17.874 -5.251,-20.568C-5.688,-25.178 -6.441,-29.751 -8.35,-33.888C-8.538,-34.297 -8.88,-34.42 -9.21,-34.36C-9.229,-34.365 -9.241,-34.378 -9.263,-34.382C-9.689,-34.464 -10.118,-34.531 -10.546,-34.609C-10.999,-34.692 -11.452,-34.773 -11.906,-34.851C-12.758,-34.997 -13.61,-35.136 -14.464,-35.265C-22.247,-36.452 -30.104,-36.953 -37.945,-36.77C-45.824,-36.587 -53.683,-35.713 -61.426,-34.15C-64.441,-33.541 -67.438,-32.826 -70.412,-32.009C-70.682,-31.935 -70.952,-31.865 -71.221,-31.789C-71.453,-31.724 -71.688,-31.666 -71.921,-31.599C-72.255,-31.504 -72.438,-31.282 -72.522,-31.027C-72.709,-30.924 -72.871,-30.762 -72.956,-30.508C-74.051,-27.251 -74.875,-23.931 -75.431,-20.568C-75.872,-17.894 -76.136,-15.191 -76.236,-12.469C-76.248,-12.15 -76.256,-11.83 -76.264,-11.511C-76.265,-11.434 -76.269,-11.357 -76.27,-11.28C-76.271,-11.177 -76.277,-11.074 -76.278,-10.97L-76.552,-10.993L-77.656,-11.089L-77.998,-11.118L-77.998,-11.119ZM-2.297,-11.119L-2.297,-11.118L-2.299,-11.119L-2.297,-11.119ZM0.602,-9.619C0.062,-10.364 -0.603,-10.982 -1.355,-11.458L-1.355,-34.658C-1.355,-51.525 -28.303,-54.028 -38.708,-54.366L-38.708,-54.416C-39.099,-54.416 -39.588,-54.412 -40.147,-54.403C-40.707,-54.412 -41.196,-54.416 -41.587,-54.416L-41.587,-54.366C-51.993,-54.028 -78.94,-51.525 -78.94,-34.658L-78.94,-11.485C-79.71,-11.006 -80.388,-10.377 -80.936,-9.619C-82.046,-8.086 -82.493,-6.218 -82.195,-4.36L-81.421,0.48C-80.876,3.883 -77.972,6.327 -74.645,6.423C-70.114,20.776 -58.584,25.956 -49.656,27.762C-59.198,31.001 -65.996,39.214 -65.996,48.815L-65.996,49.758L-15.271,49.758L-15.271,48.815C-15.271,39.271 -21.99,31.099 -31.443,27.822C-22.331,26.03 -11.23,20.78 -6.548,6.379C-6.328,6.4 -6.107,6.432 -5.891,6.432C-2.48,6.432 0.53,3.952 1.086,0.48L1.861,-4.36C2.159,-6.218 1.712,-8.085 0.602,-9.619" style="fill:rgb(47,40,57);fill-rule:nonzero;"/>
        </g>
        <g transform="matrix(1,0,0,1,393.222,116.47)">
            <path d="M0,12.353C-1.9,12.353 -3.608,11.565 -4.795,10.319C-5.841,9.222 -6.483,7.771 -6.483,6.177C-6.483,4.582 -5.841,3.131 -4.795,2.034C-3.983,1.182 -2.928,0.547 -1.731,0.231C-1.18,0.084 -0.601,-0 0,-0C0.601,-0 1.181,0.084 1.732,0.231C4.469,0.955 6.484,3.343 6.484,6.177C6.484,9.582 3.575,12.353 0,12.353M0,-1.885C-4.614,-1.885 -8.368,1.731 -8.368,6.177C-8.368,10.622 -4.614,14.238 0,14.238C4.614,14.238 8.369,10.622 8.369,6.177C8.369,1.731 4.614,-1.885 0,-1.885" style="fill:rgb(47,40,57);fill-rule:nonzero;"/>
        </g>
        <g transform="matrix(1,0,0,1,396.678,122.507)">
            <path d="M0,0.037C-0.012,1.78 -1.556,3.195 -3.456,3.195C-5.362,3.195 -6.913,1.77 -6.913,0.018C-6.913,-1.733 -5.362,-3.158 -3.456,-3.158C-3.098,-3.158 -2.758,-3.093 -2.433,-3C-2.326,-3.314 -2.16,-3.597 -1.939,-3.834C-1.682,-4.111 -1.357,-4.32 -0.991,-4.445C-1.732,-4.814 -2.563,-5.043 -3.456,-5.043C-5.57,-5.043 -7.387,-3.862 -8.251,-2.169C-8.591,-1.505 -8.798,-0.768 -8.798,0.018C-8.798,0.806 -8.591,1.542 -8.251,2.207C-7.387,3.9 -5.57,5.08 -3.456,5.08C-0.51,5.08 1.887,2.809 1.887,0.018C1.887,-0.362 1.834,-0.731 1.749,-1.088C1.546,-0.744 1.26,-0.46 0.914,-0.259C0.64,-0.1 0.331,0.002 0,0.037" style="fill:rgb(47,40,57);fill-rule:nonzero;"/>
        </g>
        <g transform="matrix(1,0,0,1,427.453,116.47)">
            <path d="M0,12.353C-1.568,12.353 -3.008,11.82 -4.13,10.934C-5.567,9.8 -6.484,8.089 -6.484,6.177C-6.484,4.265 -5.567,2.553 -4.13,1.419C-3.438,0.873 -2.622,0.466 -1.732,0.231C-1.181,0.084 -0.602,-0 0,-0C0.601,-0 1.18,0.084 1.732,0.231C4.469,0.955 6.484,3.343 6.484,6.177C6.484,9.582 3.576,12.353 0,12.353M0,-1.885C-4.614,-1.885 -8.369,1.731 -8.369,6.177C-8.369,10.622 -4.614,14.238 0,14.238C0.437,14.238 0.861,14.196 1.28,14.133C1.854,14.048 2.408,13.907 2.938,13.715C6.105,12.565 8.369,9.625 8.369,6.177C8.369,1.731 4.614,-1.885 0,-1.885" style="fill:rgb(47,40,57);fill-rule:nonzero;"/>
        </g>
        <g transform="matrix(1,0,0,1,430.908,122.51)">
            <path d="M0,0.031C-0.01,1.776 -1.555,3.192 -3.455,3.192C-5.362,3.192 -6.913,1.767 -6.913,0.015C-6.913,-1.736 -5.362,-3.161 -3.455,-3.161C-3.106,-3.161 -2.776,-3.099 -2.458,-3.011C-2.351,-3.323 -2.184,-3.607 -1.962,-3.844C-1.701,-4.122 -1.372,-4.33 -1.002,-4.454C-1.74,-4.819 -2.566,-5.046 -3.455,-5.046C-5.128,-5.046 -6.605,-4.299 -7.585,-3.155C-8.331,-2.284 -8.798,-1.191 -8.798,0.015C-8.798,1.221 -8.331,2.316 -7.585,3.186C-6.605,4.33 -5.128,5.077 -3.455,5.077C-0.51,5.077 1.887,2.806 1.887,0.015C1.887,-0.378 1.828,-0.756 1.738,-1.124C1.54,-0.774 1.258,-0.483 0.913,-0.277C0.64,-0.114 0.331,-0.008 0,0.031" style="fill:rgb(47,40,57);fill-rule:nonzero;"/>
        </g>
        <g transform="matrix(1,0,0,1,388.453,110.849)">
            <path d="M0,1.885L9.736,1.885C10.258,1.885 10.679,1.463 10.679,0.943C10.679,0.422 10.258,0 9.736,0L0,0C-0.521,0 -0.942,0.422 -0.942,0.943C-0.942,1.463 -0.521,1.885 0,1.885" style="fill:rgb(47,40,57);fill-rule:nonzero;"/>
        </g>
        <g transform="matrix(1,0,0,1,423.043,110.849)">
            <path d="M0,1.885L9.736,1.885C10.257,1.885 10.679,1.463 10.679,0.943C10.679,0.422 10.257,0 9.736,0L0,0C-0.521,0 -0.942,0.422 -0.942,0.943C-0.942,1.463 -0.521,1.885 0,1.885" style="fill:rgb(47,40,57);fill-rule:nonzero;"/>
        </g>
        <g transform="matrix(1,0,0,1,407.866,132.538)">
            <path d="M0,1.748C0.105,1.789 0.219,1.816 0.339,1.816L6.903,1.816C6.997,1.816 7.083,1.789 7.168,1.763C7.558,1.647 7.846,1.301 7.846,0.874C7.846,0.353 7.425,-0.068 6.903,-0.068L0.339,-0.068C-0.183,-0.068 -0.604,0.353 -0.604,0.874C-0.604,1.274 -0.353,1.612 0,1.748" style="fill:rgb(47,40,57);fill-rule:nonzero;"/>
        </g>
        <g transform="matrix(1,0,0,1,414.102,144.552)">
            <path d="M0,-2.701C-0.011,-2.689 -1.225,-1.514 -2.735,-1.514C-3.605,-1.514 -4.444,-1.913 -5.229,-2.701C-5.596,-3.07 -6.193,-3.072 -6.562,-2.704C-6.931,-2.337 -6.933,-1.741 -6.565,-1.371C-5.414,-0.215 -4.125,0.371 -2.735,0.371C-0.426,0.371 1.266,-1.3 1.336,-1.371C1.703,-1.741 1.701,-2.337 1.334,-2.704C0.965,-3.071 0.367,-3.069 0,-2.701" style="fill:rgb(47,40,57);fill-rule:nonzero;"/>
        </g>
        <g opacity="0.5">
            <g transform="matrix(0,-1,-1,0,429.574,105.979)">
                <path d="M-15.61,-15.61C-23.606,-15.61 -30.089,-8.622 -30.089,-0.001C-30.089,8.62 -23.606,15.61 -15.61,15.61C-7.614,15.61 -1.131,8.62 -1.131,-0.001C-1.131,-8.622 -7.614,-15.61 -15.61,-15.61" style="fill:rgb(253,250,201);fill-rule:nonzero;"/>
            </g>
        </g>
        <g opacity="0.5">
            <g transform="matrix(0,-1,-1,0,391.779,105.461)">
                <path d="M-16.128,-16.128C-24.124,-16.128 -30.607,-8.907 -30.607,0C-30.607,8.907 -24.124,16.128 -16.128,16.128C-8.132,16.128 -1.649,8.907 -1.649,0C-1.649,-8.907 -8.132,-16.128 -16.128,-16.128" style="fill:rgb(253,250,201);fill-rule:nonzero;"/>
            </g>
        </g>
        <g transform="matrix(1,0,0,1,429.574,108.053)">
            <path d="M0,27.072C-8.088,27.072 -14.667,21 -14.667,13.536C-14.667,6.072 -8.088,0 0,0C8.088,0 14.668,6.072 14.668,13.536C14.668,21 8.088,27.072 0,27.072M-37.795,27.072C-46.168,27.072 -52.98,21 -52.98,13.536C-52.98,6.072 -46.168,0 -37.795,0C-29.422,0 -22.609,6.072 -22.609,13.536C-22.609,21 -29.422,27.072 -37.795,27.072M0,-1.885C-6.042,-1.885 -11.322,1.156 -14.212,5.671C-14.904,5.246 -15.698,5.079 -16.521,5.039C-17.334,4.999 -18.171,5.071 -18.955,5.126C-20.308,5.22 -21.736,5.381 -22.812,6.155C-25.713,1.368 -31.341,-1.885 -37.795,-1.885C-47.207,-1.885 -54.865,5.032 -54.865,13.536C-54.865,22.039 -47.207,28.957 -37.795,28.957C-28.382,28.957 -20.725,22.039 -20.725,13.536C-20.725,11.525 -21.165,9.608 -21.943,7.845C-21.288,7.04 -19.573,7.045 -18.65,6.995C-18.123,6.967 -17.282,6.861 -16.521,6.893C-15.973,6.917 -15.464,7.011 -15.149,7.27C-15.14,7.278 -15.129,7.279 -15.118,7.286C-16.033,9.199 -16.552,11.31 -16.552,13.536C-16.552,22.039 -9.127,28.957 0,28.957C9.127,28.957 16.553,22.039 16.553,13.536C16.553,5.032 9.127,-1.885 0,-1.885" style="fill:rgb(47,40,57);fill-rule:nonzero;"/>
        </g>
    </g>
</svg>
