<?xml version="1.0" encoding="UTF-8" standalone="no"?>
<!DOCTYPE svg PUBLIC "-//W3C//DTD SVG 1.1//EN" "http://www.w3.org/Graphics/SVG/1.1/DTD/svg11.dtd">
<svg width="100%" height="100%" viewBox="0 0 130 130" version="1.1" xmlns="http://www.w3.org/2000/svg" xmlns:xlink="http://www.w3.org/1999/xlink" xml:space="preserve" xmlns:serif="http://www.serif.com/" style="fill-rule:evenodd;clip-rule:evenodd;stroke-linejoin:round;stroke-miterlimit:2;">
    <g transform="matrix(1,0,0,1,-345.831,-327.618)">
        <g transform="matrix(1,0,0,1,391.138,429.883)">
            <path d="M0,7.362C-0.434,8.483 -2.255,7.993 -1.817,6.861C-1.722,6.611 -1.608,6.373 -1.502,6.13C-0.104,2.94 2.152,0.311 5.162,-1.507C6.204,-2.136 7.15,-0.506 6.113,0.121C3.705,1.575 1.787,3.635 0.548,6.13C0.349,6.53 0.163,6.939 0,7.362M42.019,6.13C40.108,1.744 36.629,-1.95 32.186,-4.415C30.918,-5.118 29.572,-5.72 28.162,-6.21C27.852,-6.319 27.538,-6.422 27.221,-6.519L27.221,-5.666C27.221,-5.621 27.214,-5.578 27.214,-5.534C27.203,-4.916 27.119,-4.317 26.975,-3.741L27.087,-2.637C27.087,-2.637 26.917,-2.63 26.613,-2.626C25.41,0.273 22.548,2.328 19.227,2.328C17.565,2.328 16.019,1.813 14.737,0.937C12.66,-0.482 11.283,-2.853 11.239,-5.534C11.238,-5.578 11.232,-5.621 11.232,-5.666L11.232,-6.519C10.915,-6.422 10.601,-6.319 10.289,-6.21C4.604,-4.232 -0.039,-0.427 -2.711,4.391C-3.024,4.957 -3.309,5.538 -3.566,6.13C-4.614,8.536 -5.194,11.147 -5.194,13.881L43.646,13.881C43.646,11.147 43.066,8.536 42.019,6.13" style="fill:rgb(166,54,20);fill-rule:nonzero;"/>
        </g>
        <g transform="matrix(1,0,0,1,396.678,389.475)">
            <path d="M0,0.037C-0.082,0.046 -0.161,0.061 -0.244,0.061C-1.525,0.061 -2.564,-0.977 -2.564,-2.259C-2.564,-2.52 -2.512,-2.766 -2.433,-3C-2.326,-3.314 -2.16,-3.597 -1.939,-3.834C-2.414,-3.998 -2.921,-4.101 -3.456,-4.101C-5.886,-4.101 -7.855,-2.256 -7.855,0.018C-7.855,2.293 -5.886,4.138 -3.456,4.138C-1.026,4.138 0.944,2.293 0.944,0.018C0.944,-0.076 0.921,-0.165 0.914,-0.259C0.64,-0.1 0.331,0.002 0,0.037" style="fill:rgb(81,54,36);fill-rule:nonzero;"/>
        </g>
        <g transform="matrix(1,0,0,1,431.821,389.785)">
            <path d="M0,-0.584C-0.273,-0.421 -0.582,-0.315 -0.913,-0.276C-1.003,-0.266 -1.092,-0.249 -1.186,-0.249C-2.467,-0.249 -3.506,-1.287 -3.506,-2.569C-3.506,-2.833 -3.452,-3.082 -3.371,-3.318C-3.264,-3.631 -3.097,-3.914 -2.875,-4.15C-3.343,-4.31 -3.842,-4.411 -4.368,-4.411C-6.281,-4.411 -7.892,-3.262 -8.498,-1.666C-8.662,-1.234 -8.769,-0.776 -8.769,-0.292C-8.769,0.192 -8.662,0.65 -8.498,1.082C-7.892,2.678 -6.281,3.827 -4.368,3.827C-1.938,3.827 0.031,1.982 0.031,-0.292C0.031,-0.392 0.008,-0.486 0,-0.584" style="fill:rgb(81,54,36);fill-rule:nonzero;"/>
        </g>
        <g transform="matrix(1,0,0,1,416.72,427.682)">
            <path d="M0,-0.432C-2.361,-0.482 -7.06,-0.822 -10.845,-2.575C-11.571,-2.911 -12.264,-3.297 -12.899,-3.745C-13.073,-3.869 -13.243,-3.995 -13.408,-4.127C-13.549,-4.24 -13.686,-4.357 -13.819,-4.477C-13.911,-4.559 -13.999,-4.645 -14.087,-4.73C-14.166,-4.807 -14.247,-4.881 -14.323,-4.961C-14.327,-4.9 -14.33,-4.838 -14.333,-4.776C-14.338,-4.661 -14.35,-4.549 -14.35,-4.433L-14.35,-3.465C-14.35,-3.42 -14.344,-3.377 -14.343,-3.332C-14.299,-0.652 -12.922,1.719 -10.845,3.138C-9.563,4.014 -8.017,4.529 -6.355,4.529C-3.034,4.529 -0.172,2.474 1.031,-0.425C0.776,-0.422 0.425,-0.422 0,-0.432" style="fill:rgb(226,179,132);fill-rule:nonzero;"/>
        </g>
        <g transform="matrix(0.0911431,-0.995838,-0.995838,-0.0911431,410.798,357.091)">
            <path d="M-2.072,-2.454C-1.954,-4.837 -1.9,-7.222 -1.915,-9.606C-1.818,-6.52 -1.85,-3.267 -2.072,0.069C-2.287,3.324 -2.71,6.45 -3.254,9.384C-2.65,5.465 -2.267,1.511 -2.072,-2.454" style="fill:rgb(226,179,132);fill-rule:nonzero;"/>
        </g>
        <g transform="matrix(1,0,0,1,385.077,388.359)">
            <path d="M0,10.427L0.125,10.427C1.34,10.427 1.338,12.312 0.125,12.312L0,12.312C-1.214,12.312 -1.212,10.427 0,10.427M3.62,13.934C2.405,13.934 2.407,12.049 3.62,12.049C4.835,12.049 4.833,13.934 3.62,13.934M3.87,10.939C2.655,10.939 2.657,9.054 3.87,9.054C5.084,9.054 5.082,10.939 3.87,10.939M6.74,12.062C5.525,12.062 5.528,10.177 6.74,10.177C7.955,10.177 7.953,12.062 6.74,12.062M3.35,-4.177C3.577,-4.361 3.816,-4.533 4.066,-4.691C5.237,-5.43 6.638,-5.864 8.145,-5.864C9.652,-5.864 11.053,-5.43 12.224,-4.691C14.239,-3.418 15.571,-1.232 15.571,1.255C15.571,5.187 12.246,8.374 8.145,8.374C6.315,8.374 4.644,7.738 3.35,6.687C1.741,5.38 0.718,3.434 0.718,1.255C0.718,-0.924 1.741,-2.87 3.35,-4.177M26.41,1.134L29.692,10.358L23.128,10.62C23.04,10.271 26.41,1.134 26.41,1.134M23.818,25.93C23.636,25.714 23.658,25.34 23.918,25.2C24.034,24.99 24.294,24.843 24.572,24.973C25.8,25.545 27.506,25.696 28.649,24.867C28.994,24.617 29.321,24.946 29.322,25.284C29.324,25.325 29.318,25.365 29.307,25.408C29.296,25.45 29.286,25.493 29.263,25.532C29.262,25.533 29.262,25.535 29.261,25.537C29.014,25.946 28.709,26.257 28.384,26.518C28.199,26.665 28.009,26.79 27.808,26.892C27.772,26.975 27.712,27.048 27.615,27.093C27.535,27.131 27.455,27.154 27.375,27.184C26.843,27.381 26.308,27.412 25.744,27.214C25.578,27.156 25.424,27.079 25.275,26.994C25.206,26.966 25.138,26.939 25.07,26.906C24.671,26.714 24.296,26.429 23.957,26.064C23.913,26.015 23.861,25.982 23.818,25.93M23.242,12.757C23.15,12.479 23.128,12.283 23.128,12.283L29.692,12.021C29.692,12.021 29.66,12.338 29.507,12.757C29.482,12.824 29.455,12.892 29.424,12.963C29.069,13.777 28.256,14.822 26.41,14.822C24.414,14.822 23.626,13.715 23.318,12.963C23.289,12.891 23.263,12.822 23.242,12.757M48.53,12.058C48.447,12.1 48.364,12.141 48.281,12.183C47.198,12.724 46.245,11.098 47.33,10.556C47.413,10.514 47.496,10.472 47.579,10.431C48.662,9.889 49.615,11.516 48.53,12.058M40.69,12.312L40.566,12.312C39.352,12.312 39.354,10.427 40.566,10.427L40.69,10.427C41.905,10.427 41.903,12.312 40.69,12.312M45.352,8.83C46.21,9.69 44.878,11.022 44.019,10.163C43.978,10.121 43.936,10.08 43.894,10.038C43.636,9.781 43.591,9.483 43.656,9.211C43.809,8.58 44.626,8.106 45.227,8.705L45.314,8.793C45.326,8.806 45.339,8.819 45.352,8.83M46.501,13.366L46.501,13.491C46.501,14.705 44.616,14.703 44.616,13.491L44.616,13.366C44.616,12.152 46.501,12.154 46.501,13.366M38.246,-4.661C38.263,-4.672 38.28,-4.68 38.297,-4.691C39.468,-5.43 40.868,-5.864 42.376,-5.864C43.883,-5.864 45.283,-5.43 46.454,-4.691C48.47,-3.418 49.803,-1.232 49.803,1.255C49.803,5.187 46.478,8.374 42.376,8.374C40.847,8.374 39.427,7.93 38.246,7.171C36.258,5.894 34.949,3.721 34.949,1.255C34.949,-1.211 36.258,-3.384 38.246,-4.661M60.657,-1.179C60.655,-1.921 60.643,-2.637 60.626,-3.347C60.272,-3.326 59.9,-3.475 59.693,-3.797C59.668,-3.836 59.648,-3.878 59.629,-3.922C59.586,-4.018 59.547,-4.119 59.536,-4.24C59.522,-4.39 59.512,-4.541 59.499,-4.691C59.494,-4.749 59.489,-4.807 59.484,-4.865C59.458,-5.18 59.432,-5.496 59.406,-5.812C58.981,-11.132 58.712,-16.469 57.543,-21.693C57.509,-21.845 57.512,-21.986 57.538,-22.113C57.502,-22.207 57.466,-22.301 57.429,-22.392C55.468,-23.006 53.473,-23.538 51.457,-24.005C47.007,-25.035 42.463,-25.75 37.977,-26.289C37.753,-26.315 37.529,-26.337 37.307,-26.362C34.208,-26.719 31.095,-26.967 27.976,-27.097C21.801,-27.356 15.61,-27.144 9.492,-26.362C7.82,-26.148 6.153,-25.893 4.495,-25.592C1.207,-24.995 -2.053,-24.225 -5.268,-23.26C-7.148,-17.617 -8.205,-11.812 -8.431,-5.887C-8.442,-5.577 -8.449,-5.266 -8.457,-4.956C-8.459,-4.868 -8.462,-4.779 -8.464,-4.691C-8.469,-4.464 -8.481,-4.238 -8.483,-4.011L-8.483,-4.009C-8.486,-3.717 -8.602,-3.497 -8.77,-3.346C-9.017,-3.124 -9.38,-3.061 -9.701,-3.145C-9.719,-2.396 -9.735,-1.646 -9.735,-0.863C-9.735,2.296 -9.521,5.178 -9.129,7.828C-9.073,7.938 -9.056,8.059 -9.081,8.17C-8.923,9.19 -8.738,10.173 -8.526,11.12C-8.454,11.442 -8.376,11.755 -8.297,12.069C-8.221,12.375 -8.146,12.685 -8.063,12.984C-4.409,26.238 4.904,31.947 16.438,33.7C16.747,33.748 17.06,33.789 17.371,33.831C17.363,33.891 17.351,33.949 17.344,34.01C17.334,34.104 17.33,34.199 17.323,34.294C17.409,34.21 17.749,34.14 18.284,34.082C18.49,34.06 18.729,34.039 18.985,34.021C19.585,34.081 20.188,34.132 20.798,34.174C20.814,34.176 20.832,34.177 20.849,34.178C22.361,34.281 23.9,34.335 25.463,34.335C26.926,34.335 28.367,34.283 29.787,34.188C30.623,34.131 31.452,34.06 32.271,33.967C32.395,33.953 32.518,33.94 32.641,33.924L32.723,34.723L32.734,34.842L32.838,35.858L33.035,37.783C33.18,37.207 33.264,36.608 33.274,35.99C33.274,35.946 33.281,35.903 33.281,35.858L33.281,34.89C33.281,34.802 33.271,34.718 33.268,34.631C33.261,34.423 33.252,34.215 33.229,34.011C33.224,33.955 33.212,33.903 33.204,33.848C33.516,33.807 33.829,33.769 34.138,33.722C45.786,31.95 55.218,26.081 58.941,12.934C59.026,12.631 59.108,12.324 59.188,12.015C59.267,11.707 59.342,11.397 59.415,11.082C59.585,10.345 59.741,9.59 59.877,8.811C59.868,8.809 59.86,8.808 59.852,8.806C59.293,8.657 59.497,7.836 60.024,7.893C60.414,5.368 60.63,2.627 60.652,-0.349C60.336,-0.554 60.387,-1.027 60.657,-1.179" style="fill:rgb(226,179,132);fill-rule:nonzero;"/>
        </g>
        <g transform="matrix(1,0,0,1,397.622,389.735)">
            <path d="M0,-0.242C0,2.032 -1.971,3.877 -4.4,3.877C-6.83,3.877 -8.8,2.032 -8.8,-0.242C-8.8,-2.516 -6.83,-4.361 -4.4,-4.361C-3.865,-4.361 -3.358,-4.259 -2.884,-4.095C-3.104,-3.857 -3.271,-3.574 -3.377,-3.261C-3.456,-3.026 -3.509,-2.78 -3.509,-2.519C-3.509,-1.237 -2.47,-0.199 -1.188,-0.199C-1.105,-0.199 -1.026,-0.215 -0.944,-0.223C-0.613,-0.259 -0.305,-0.36 -0.03,-0.519C-0.023,-0.426 0,-0.337 0,-0.242M-0.321,-6.067C-1.492,-6.806 -2.893,-7.24 -4.4,-7.24C-5.907,-7.24 -7.308,-6.806 -8.479,-6.067C-8.729,-5.909 -8.968,-5.737 -9.195,-5.553C-10.804,-4.246 -11.827,-2.3 -11.827,-0.121C-11.827,2.058 -10.804,4.004 -9.195,5.311C-7.901,6.362 -6.229,6.998 -4.4,6.998C-0.299,6.998 3.026,3.811 3.026,-0.121C3.026,-2.608 1.694,-4.794 -0.321,-6.067" style="fill:rgb(253,250,201);fill-rule:nonzero;"/>
        </g>
        <g transform="matrix(1,0,0,1,431.853,389.735)">
            <path d="M0,-0.242C0,2.032 -1.97,3.877 -4.399,3.877C-6.312,3.877 -7.923,2.728 -8.529,1.132C-8.693,0.7 -8.8,0.242 -8.8,-0.242C-8.8,-0.726 -8.693,-1.184 -8.529,-1.616C-7.923,-3.212 -6.312,-4.361 -4.399,-4.361C-3.873,-4.361 -3.374,-4.26 -2.906,-4.1C-3.128,-3.864 -3.295,-3.581 -3.402,-3.268C-3.483,-3.032 -3.537,-2.783 -3.537,-2.519C-3.537,-1.237 -2.498,-0.199 -1.217,-0.199C-1.123,-0.199 -1.034,-0.216 -0.944,-0.226C-0.613,-0.265 -0.305,-0.371 -0.031,-0.534C-0.023,-0.436 0,-0.342 0,-0.242M-0.321,-6.067C-1.492,-6.806 -2.893,-7.24 -4.399,-7.24C-5.907,-7.24 -7.308,-6.806 -8.479,-6.067C-8.495,-6.056 -8.513,-6.048 -8.529,-6.037C-10.518,-4.76 -11.826,-2.587 -11.826,-0.121C-11.826,2.345 -10.518,4.518 -8.529,5.795C-7.349,6.554 -5.929,6.998 -4.399,6.998C-0.298,6.998 3.027,3.811 3.027,-0.121C3.027,-2.608 1.694,-4.794 -0.321,-6.067" style="fill:rgb(253,250,201);fill-rule:nonzero;"/>
        </g>
        <g transform="matrix(1,0,0,1,408.205,389.494)">
            <path d="M0,9.486L6.564,9.223L3.282,0C3.282,0 -0.088,9.136 0,9.486" style="fill:rgb(253,250,201);fill-rule:nonzero;"/>
        </g>
        <g transform="matrix(-0.48884,-0.872373,-0.872373,0.48884,379.431,344.562)">
            <path d="M-8.54,-14.936C-6.183,-8.607 -5.605,-1.923 -6.726,4.728C-6.927,5.925 -8.739,5.404 -8.54,4.218C-7.473,-2.107 -8.135,-8.481 -10.37,-14.485C-10.792,-15.617 -8.959,-16.062 -8.54,-14.936" style="fill:rgb(255,226,82);fill-rule:nonzero;"/>
        </g>
        <g transform="matrix(-1,0,0,1,400.737,345.86)">
            <path d="M-0.116,-1.885L-0,-1.885C1.213,-1.885 1.215,0 -0,0L-0.116,0C-1.329,0 -1.331,-1.885 -0.116,-1.885" style="fill:rgb(255,226,82);fill-rule:nonzero;"/>
        </g>
        <g transform="matrix(-0.964976,0.26234,0.26234,0.964976,446.669,363.42)">
            <path d="M1.432,-11.525C2.227,-12.447 3.565,-11.12 2.777,-10.205C0.578,-7.654 1.034,-3.403 1.432,-0.315C1.587,0.884 -0.3,0.868 -0.453,-0.321C-0.93,-4.029 -1.165,-8.511 1.432,-11.525" style="fill:rgb(255,226,82);fill-rule:nonzero;"/>
        </g>
        <g transform="matrix(1,0,0,1,396.3,437.737)">
            <path d="M0,-9.361C-3.01,-7.543 -5.266,-4.914 -6.664,-1.724C-6.771,-1.481 -6.884,-1.243 -6.979,-0.993C-7.417,0.139 -5.596,0.629 -5.162,-0.492C-4.999,-0.915 -4.813,-1.324 -4.614,-1.724C-3.375,-4.218 -1.457,-6.279 0.951,-7.733C1.988,-8.36 1.042,-9.99 0,-9.361" style="fill:rgb(201,66,35);fill-rule:nonzero;"/>
        </g>
        <g transform="matrix(1,0,0,1,407.866,402.286)">
            <path d="M0,-1.032C0.332,0.011 1.339,1.366 3.621,1.366C5.753,1.366 6.771,0.079 7.168,-1.017C7.279,-1.323 7.35,-1.618 7.373,-1.862L7.424,-2.398L-0.183,-2.094L-0.13,-1.594C-0.112,-1.428 -0.064,-1.234 0,-1.032" style="fill:rgb(188,98,86);fill-rule:nonzero;"/>
        </g>
        <g transform="matrix(1,0,0,1,447.893,391.777)">
            <path d="M0,0.782C0.154,0.088 0.424,-0.739 0.335,-1.457C0.184,-2.69 -0.429,-3.092 -1.256,-3.414C-1.509,-3.512 -1.78,-3.604 -2.066,-3.707C-2.105,-3.722 -2.132,-3.746 -2.163,-3.767C-2.186,-0.79 -2.401,1.951 -2.791,4.475C-2.765,4.477 -2.741,4.472 -2.713,4.479C-2.509,4.534 -2.327,4.549 -2.155,4.546C-0.521,4.519 -0.289,2.088 0,0.782" style="fill:rgb(188,98,86);fill-rule:nonzero;"/>
        </g>
        <g transform="matrix(1,0,0,1,448.99,399.965)">
            <path d="M0,-15.765C-0.236,-15.905 -0.482,-16.028 -0.739,-16.136C-0.797,-16.161 -0.853,-16.189 -0.912,-16.211L-1.232,-16.25L-1.611,-16.297L-2.361,-16.388L-2.539,-16.411C-2.536,-16.372 -2.533,-16.334 -2.529,-16.297C-2.521,-16.189 -2.513,-16.08 -2.503,-15.972C-2.499,-15.93 -2.496,-15.888 -2.492,-15.846C-2.485,-15.764 -2.508,-15.703 -2.518,-15.632C-2.576,-15.206 -2.906,-14.977 -3.287,-14.953C-3.271,-14.244 -3.258,-13.527 -3.256,-12.786C-3.164,-12.837 -3.049,-12.854 -2.913,-12.805C-2.717,-12.734 -2.514,-12.662 -2.31,-12.59C-1.387,-12.26 -0.448,-11.865 -0.057,-10.918C0.479,-9.629 0.038,-8.098 -0.273,-6.81C-0.791,-4.661 -1.031,-2.365 -3.459,-2.682C-3.64,-2.705 -3.83,-2.742 -4.036,-2.795C-4.172,-2.016 -4.328,-1.261 -4.498,-0.524C-4.571,-0.209 -4.646,0.101 -4.726,0.409C-4.568,0.43 -4.41,0.45 -4.254,0.46C-1.155,0.646 1.663,-1.56 2.164,-4.686L2.938,-9.526C3.347,-12.074 2.099,-14.518 0,-15.765" style="fill:rgb(188,98,86);fill-rule:nonzero;"/>
        </g>
        <g transform="matrix(1,0,0,1,417.915,425.326)">
            <path d="M0,-1.109L-0.104,-2.125L-0.115,-2.244L-0.197,-3.043C-0.32,-3.027 -0.443,-3.013 -0.567,-3C-1.386,-2.907 -2.215,-2.836 -3.051,-2.779C-4.471,-2.683 -5.912,-2.631 -7.375,-2.631C-8.938,-2.631 -10.477,-2.685 -11.989,-2.789C-12.006,-2.79 -12.023,-2.791 -12.04,-2.793C-12.649,-2.835 -13.253,-2.885 -13.853,-2.946C-14.109,-2.927 -14.348,-2.907 -14.554,-2.884C-15.089,-2.827 -15.429,-2.756 -15.515,-2.672C-15.529,-2.659 -15.545,-2.645 -15.545,-2.631C-15.537,-2.622 -15.527,-2.614 -15.519,-2.605C-15.442,-2.525 -15.361,-2.451 -15.282,-2.374C-15.194,-2.289 -15.106,-2.203 -15.015,-2.121C-14.881,-2.001 -14.744,-1.883 -14.604,-1.771C-14.438,-1.638 -14.269,-1.512 -14.095,-1.389C-13.459,-0.941 -12.767,-0.554 -12.04,-0.218C-8.255,1.535 -3.557,1.874 -1.195,1.924C-0.771,1.934 -0.419,1.934 -0.164,1.931C0.14,1.927 0.31,1.92 0.31,1.92L0.197,0.817L0,-1.109Z" style="fill:rgb(188,98,86);fill-rule:nonzero;"/>
        </g>
        <g transform="matrix(-1,0,0,1,385.078,400.671)">
            <path d="M-0.124,-1.885L0.001,-1.885C1.213,-1.885 1.215,0 0.001,0L-0.124,0C-1.337,0 -1.339,-1.885 -0.124,-1.885" style="fill:rgb(188,98,86);fill-rule:nonzero;"/>
        </g>
        <g transform="matrix(1,0,0,1,388.697,402.293)">
            <path d="M0,-1.885C-1.213,-1.885 -1.215,0 0,0C1.213,0 1.215,-1.885 0,-1.885" style="fill:rgb(188,98,86);fill-rule:nonzero;"/>
        </g>
        <g transform="matrix(1,0,0,1,388.947,399.298)">
            <path d="M0,-1.885C-1.213,-1.885 -1.215,0 0,0C1.212,0 1.214,-1.885 0,-1.885" style="fill:rgb(188,98,86);fill-rule:nonzero;"/>
        </g>
        <g transform="matrix(1,0,0,1,391.817,400.421)">
            <path d="M0,-1.885C-1.212,-1.885 -1.215,0 0,0C1.213,0 1.215,-1.885 0,-1.885" style="fill:rgb(188,98,86);fill-rule:nonzero;"/>
        </g>
        <g transform="matrix(-1,0,0,1,425.644,400.671)">
            <path d="M-0.124,-1.885L-0,-1.885C1.213,-1.885 1.215,0 -0,0L-0.124,0C-1.337,0 -1.339,-1.885 -0.124,-1.885" style="fill:rgb(188,98,86);fill-rule:nonzero;"/>
        </g>
        <g transform="matrix(1,0,0,1,430.429,398.656)">
            <path d="M0,-1.466C-0.013,-1.478 -0.025,-1.49 -0.037,-1.503L-0.125,-1.591C-0.726,-2.191 -1.543,-1.716 -1.695,-1.085C-1.761,-0.814 -1.716,-0.516 -1.458,-0.258C-1.416,-0.216 -1.374,-0.175 -1.333,-0.133C-0.474,0.725 0.858,-0.607 0,-1.466" style="fill:rgb(188,98,86);fill-rule:nonzero;"/>
        </g>
        <g transform="matrix(0,1,1,0,430.698,400.845)">
            <path d="M0.88,-1.005L1.006,-1.005C2.217,-1.005 2.22,0.88 1.006,0.88L0.88,0.88C-0.332,0.88 -0.334,-1.005 0.88,-1.005" style="fill:rgb(188,98,86);fill-rule:nonzero;"/>
        </g>
        <g transform="matrix(-0.928257,0.371939,0.371939,0.928257,433.659,400.348)">
            <path d="M0.351,-1.819C0.443,-1.812 0.536,-1.803 0.629,-1.795C1.838,-1.696 1.558,0.168 0.351,0.069C0.259,0.061 0.166,0.053 0.074,0.045C-1.135,-0.054 -0.856,-1.919 0.351,-1.819" style="fill:rgb(188,98,86);fill-rule:nonzero;"/>
        </g>
        <g transform="matrix(1,0,0,1,375.996,387.766)">
            <path d="M0,8.763C-0.032,8.904 -0.128,9.024 -0.321,9.056C-0.477,9.082 -0.618,9.094 -0.758,9.102C-3.31,9.254 -3.397,6.524 -3.708,4.325C-4.002,2.238 -4.097,-0.396 -1.593,-0.649C-1.445,-0.664 -1.292,-0.674 -1.126,-0.671C-0.735,-0.666 -0.6,-0.276 -0.711,-0C-0.767,0.169 -0.908,0.306 -1.14,0.306C-1.187,0.306 -1.226,0.291 -1.266,0.281C-1.376,0.284 -1.484,0.29 -1.582,0.308C-3.485,0.639 -2.923,3.314 -2.712,4.666C-2.543,5.744 -2.525,8.13 -0.934,8.173C-0.82,8.176 -0.701,8.169 -0.572,8.148C-0.323,8.105 -0.14,8.242 -0.048,8.421C-0.439,5.771 -0.654,2.889 -0.654,-0.27C-0.654,-1.053 -0.638,-1.803 -0.62,-2.552C-0.621,-2.552 -0.623,-2.552 -0.625,-2.553C-0.628,-2.553 -0.63,-2.553 -0.632,-2.554C-0.973,-2.647 -1.248,-2.913 -1.273,-3.352C-1.275,-3.375 -1.286,-3.39 -1.285,-3.414C-1.285,-3.416 -1.287,-3.417 -1.287,-3.419C-1.285,-3.542 -1.278,-3.665 -1.276,-3.788L-1.55,-3.812L-2.654,-3.907C-3.115,-3.706 -3.548,-3.457 -3.938,-3.155C-4.345,-2.842 -4.703,-2.476 -5.018,-2.077C-6.039,-0.777 -6.544,0.922 -6.264,2.673L-5.488,7.513C-5.401,8.06 -5.236,8.575 -5.018,9.058C-4.104,11.077 -2.142,12.464 0.075,12.644C0.31,12.663 0.545,12.67 0.784,12.661C0.705,12.348 0.627,12.034 0.555,11.713C0.343,10.766 0.158,9.783 0,8.763" style="fill:rgb(188,98,86);fill-rule:nonzero;"/>
        </g>
        <g transform="matrix(1,0,0,1,413.727,415.559)">
            <path d="M0,-2.332C-1.144,-1.504 -2.85,-1.654 -4.077,-2.227C-4.355,-2.356 -4.615,-2.209 -4.731,-1.999C-4.991,-1.859 -5.014,-1.485 -4.831,-1.27C-4.788,-1.218 -4.736,-1.185 -4.692,-1.136C-4.354,-0.77 -3.979,-0.485 -3.579,-0.293C-3.512,-0.261 -3.443,-0.233 -3.374,-0.205C-3.226,-0.12 -3.071,-0.044 -2.905,0.015C-2.342,0.213 -1.807,0.182 -1.274,-0.016C-1.194,-0.046 -1.114,-0.068 -1.034,-0.106C-0.937,-0.151 -0.877,-0.225 -0.842,-0.308C-0.641,-0.409 -0.45,-0.534 -0.266,-0.682C0.06,-0.942 0.364,-1.254 0.611,-1.662C0.612,-1.664 0.612,-1.666 0.613,-1.667C0.638,-1.709 0.646,-1.75 0.657,-1.791C0.669,-1.834 0.675,-1.874 0.673,-1.915C0.671,-1.966 0.658,-2.015 0.639,-2.06C0.562,-2.335 0.294,-2.545 0,-2.332" style="fill:rgb(188,98,86);fill-rule:nonzero;"/>
        </g>
        <g transform="matrix(1,0,0,1,378.594,373.172)">
            <path d="M0,-20.431C5.254,-24.66 11.368,-27.423 18.041,-28.461C19.229,-28.646 19.736,-26.829 18.542,-26.644C12.212,-25.66 6.328,-23.12 1.332,-19.098C0.396,-18.344 -0.945,-19.67 0,-20.431M22.143,-29.198L22.259,-29.198C23.474,-29.198 23.472,-27.313 22.259,-27.313L22.143,-27.313C20.928,-27.313 20.93,-29.198 22.143,-29.198M66.611,-9.68C66.185,-12.765 65.51,-16.987 62.719,-18.871C61.718,-19.547 62.661,-21.179 63.67,-20.498C66.967,-18.272 67.916,-13.884 68.428,-10.181C68.593,-8.993 66.776,-8.484 66.611,-9.68M47.174,-30.249C42.545,-30.934 38.018,-31.232 33.696,-31.236C32.725,-31.237 31.767,-31.22 30.817,-31.192C16.882,-30.782 5.454,-27.386 0.356,-24.287C-6.633,-20.039 -5.594,-5.786 -5.594,-5.079L-5.594,10.657L-5.252,10.687L-4.147,10.782L-3.874,10.806C-3.873,10.703 -3.867,10.599 -3.865,10.496C-3.864,10.419 -3.86,10.341 -3.859,10.264C-3.852,9.945 -3.844,9.626 -3.832,9.307C-3.832,9.287 -3.832,9.266 -3.831,9.246C-3.599,3.119 -2.511,-2.905 -0.552,-8.733C-0.466,-8.99 -0.301,-9.154 -0.111,-9.256C-0.025,-9.506 0.158,-9.725 0.483,-9.824C0.718,-9.895 0.955,-9.956 1.189,-10.026C1.463,-10.106 1.737,-10.183 2.011,-10.261C3.161,-10.587 4.315,-10.895 5.476,-11.175C7.299,-11.615 9.134,-11.998 10.979,-12.327C14.808,-13.008 18.677,-13.457 22.562,-13.697C25.534,-13.97 28.685,-14.106 31.946,-14.025C35.289,-13.942 38.531,-13.676 41.595,-13.298C42.551,-13.204 43.506,-13.101 44.46,-12.986C48.279,-12.528 52.138,-11.952 55.948,-11.175C56.613,-11.039 57.278,-10.899 57.94,-10.749C59.598,-10.376 61.242,-9.96 62.866,-9.491C63.039,-9.441 63.21,-9.385 63.382,-9.334C63.932,-9.171 64.482,-9.012 65.026,-8.836C65.683,-8.624 65.792,-7.95 65.561,-7.471C65.688,-7.362 65.796,-7.22 65.844,-7.007C67.04,-1.66 67.329,3.801 67.764,9.248C67.767,9.277 67.769,9.307 67.771,9.337C67.795,9.626 67.818,9.915 67.843,10.204L67.857,10.382L68.035,10.405L68.785,10.496L69.164,10.543L69.484,10.582L70.104,10.657L70.107,10.657L70.107,-15.446C70.107,-15.446 68.117,-27.148 47.174,-30.249" style="fill:rgb(255,191,64);fill-rule:nonzero;"/>
        </g>
        <g transform="matrix(1,0,0,1,450.998,394.947)">
            <path d="M0,-4.657L-0.774,0.183C-1.188,2.764 -3.46,4.571 -5.999,4.523C-5.806,3.815 -5.629,3.085 -5.467,2.336C-3.039,2.654 -2.799,0.357 -2.281,-1.792C-1.97,-3.08 -1.529,-4.611 -2.064,-5.9C-2.456,-6.846 -3.395,-7.242 -4.317,-7.572C-4.318,-8.605 -4.327,-9.616 -4.347,-10.6C-4.331,-10.597 -4.315,-10.598 -4.299,-10.596C-2.938,-10.378 -1.74,-9.638 -0.925,-8.512C-0.11,-7.387 0.219,-6.018 0,-4.657M-7.83,4.159C-7.914,4.47 -7.999,4.78 -8.089,5.081C-8.181,5.388 -8.279,5.684 -8.377,5.982C-12.743,19.343 -22.877,24.383 -31.994,26.058C-32.306,26.115 -32.617,26.172 -32.926,26.222C-33.239,26.273 -33.551,26.318 -33.86,26.361C-34.676,26.474 -35.477,26.561 -36.262,26.627C-37.732,26.751 -39.145,26.806 -40.458,26.806C-41.574,26.806 -43.051,26.753 -44.751,26.586C-44.875,26.573 -44.997,26.563 -45.123,26.549C-45.84,26.472 -46.595,26.372 -47.379,26.247C-47.685,26.199 -47.994,26.147 -48.309,26.09C-48.616,26.034 -48.923,25.979 -49.237,25.915C-57.583,24.213 -68.294,19.389 -72.688,6.209C-72.788,5.909 -72.896,5.618 -72.988,5.31C-73.079,5.01 -73.154,4.691 -73.239,4.382C-74.17,0.972 -74.714,-2.934 -74.714,-7.451C-74.714,-8.3 -74.704,-9.121 -74.69,-9.934C-74.522,-10.085 -74.407,-10.304 -74.404,-10.596L-74.404,-10.599C-74.402,-10.826 -74.39,-11.052 -74.385,-11.279C-74.383,-11.367 -74.38,-11.456 -74.378,-11.544C-74.37,-11.854 -74.363,-12.165 -74.352,-12.475C-74.126,-18.4 -73.069,-24.205 -71.188,-29.847C-67.974,-30.813 -64.714,-31.583 -61.426,-32.179C-59.768,-32.481 -58.101,-32.736 -56.429,-32.95C-50.311,-33.732 -44.12,-33.944 -37.945,-33.685C-34.826,-33.554 -31.713,-33.306 -28.614,-32.95C-28.392,-32.925 -28.168,-32.903 -27.944,-32.877C-23.458,-32.338 -18.914,-31.623 -14.464,-30.593C-12.448,-30.126 -10.453,-29.594 -8.492,-28.98C-8.447,-28.966 -8.401,-28.953 -8.355,-28.938C-8.346,-28.903 -8.337,-28.865 -8.327,-28.829C-8.345,-28.785 -8.372,-28.749 -8.383,-28.701C-8.409,-28.574 -8.412,-28.433 -8.378,-28.281C-7.209,-23.056 -6.939,-17.72 -6.515,-12.4C-6.489,-12.084 -6.463,-11.768 -6.437,-11.453C-6.432,-11.395 -6.427,-11.337 -6.422,-11.279C-6.409,-11.129 -6.398,-10.978 -6.385,-10.828C-6.374,-10.707 -6.335,-10.606 -6.292,-10.51C-6.272,-10.466 -6.253,-10.424 -6.228,-10.385C-6.211,-9.434 -6.201,-8.463 -6.201,-7.465C-6.333,-3.053 -6.912,0.791 -7.83,4.159M-47.687,29.27L-47.687,28.302C-47.687,28.248 -47.68,28.197 -47.679,28.144C-47.678,28.134 -47.677,28.124 -47.677,28.114C-47.653,28.118 -47.63,28.121 -47.606,28.125C-46.739,28.26 -45.909,28.365 -45.123,28.445C-44.984,28.459 -44.844,28.474 -44.707,28.487C-43.031,28.642 -41.575,28.691 -40.458,28.691C-39.265,28.691 -37.884,28.641 -36.384,28.514C-35.491,28.438 -34.558,28.333 -33.588,28.192C-33.588,28.229 -33.583,28.265 -33.583,28.302L-33.583,29.27C-33.583,30.357 -33.837,31.383 -34.278,32.303C-35.415,34.676 -37.833,36.322 -40.635,36.322C-42.338,36.322 -43.903,35.714 -45.123,34.704C-46.688,33.409 -47.687,31.454 -47.687,29.27M-27.675,31.611C-23.76,33.899 -20.664,37.19 -18.872,41.066C-17.894,43.184 -17.303,45.477 -17.18,47.874L-64.088,47.874C-63.973,45.628 -63.442,43.478 -62.571,41.473C-62.513,41.337 -62.458,41.199 -62.396,41.066C-60.024,35.934 -55.37,31.824 -49.549,29.715C-49.395,32.819 -47.657,35.505 -45.123,36.985C-43.803,37.757 -42.271,38.206 -40.635,38.206C-35.856,38.206 -31.955,34.436 -31.721,29.715C-30.296,30.232 -28.943,30.869 -27.675,31.611M-77.477,3.556C-78.603,2.742 -79.342,1.544 -79.561,0.183L-80.02,-2.687L-80.335,-4.657C-80.483,-5.584 -80.359,-6.509 -80.02,-7.363C-79.86,-7.763 -79.669,-8.154 -79.409,-8.512C-78.705,-9.486 -77.704,-10.148 -76.568,-10.456C-76.586,-9.602 -76.593,-8.721 -76.595,-7.83C-79.099,-7.577 -79.004,-4.943 -78.71,-2.856C-78.399,-0.657 -78.312,2.073 -75.76,1.921C-75.594,2.798 -75.405,3.647 -75.195,4.467C-76.007,4.346 -76.789,4.054 -77.477,3.556M-75.936,0.992C-77.527,0.949 -77.545,-1.436 -77.714,-2.514C-77.925,-3.867 -78.487,-6.542 -76.584,-6.873C-76.556,-4.035 -76.335,-1.413 -75.936,0.992M-4.361,-6.585C-3.534,-6.262 -2.922,-5.86 -2.771,-4.628C-2.682,-3.909 -2.951,-3.083 -3.105,-2.388C-3.395,-1.083 -3.626,1.349 -5.261,1.375C-4.789,-1.055 -4.484,-3.708 -4.361,-6.585M-77.057,-34.658C-77.057,-50.69 -47.752,-52.351 -40.147,-52.512C-32.543,-52.351 -3.24,-50.69 -3.24,-34.658L-3.24,-12.187C-3.597,-12.296 -3.992,-12.387 -4.4,-12.428C-4.478,-12.436 -4.556,-12.434 -4.633,-12.438C-4.636,-12.468 -4.638,-12.498 -4.641,-12.527C-5.075,-17.973 -5.364,-23.434 -6.561,-28.782C-6.608,-28.995 -6.717,-29.136 -6.844,-29.246C-6.612,-29.724 -6.722,-30.399 -7.378,-30.611C-7.922,-30.787 -8.473,-30.946 -9.022,-31.109C-9.194,-31.16 -9.365,-31.216 -9.538,-31.265C-11.162,-31.735 -12.807,-32.151 -14.464,-32.524C-15.126,-32.674 -15.791,-32.814 -16.456,-32.95C-20.267,-33.727 -24.125,-34.303 -27.944,-34.761C-28.898,-34.876 -29.854,-34.979 -30.81,-35.073C-33.182,-35.306 -35.562,-35.469 -37.945,-35.569C-41.911,-35.736 -45.885,-35.715 -49.843,-35.471C-53.728,-35.232 -57.597,-34.783 -61.426,-34.101C-63.271,-33.773 -65.105,-33.389 -66.929,-32.95C-68.089,-32.67 -69.243,-32.362 -70.394,-32.036C-70.667,-31.958 -70.941,-31.881 -71.215,-31.801C-71.449,-31.731 -71.687,-31.67 -71.921,-31.598C-72.246,-31.5 -72.43,-31.281 -72.516,-31.031C-72.705,-30.928 -72.87,-30.764 -72.956,-30.508C-74.915,-24.679 -76.003,-18.656 -76.235,-12.529C-76.325,-12.519 -76.415,-12.497 -76.505,-12.48C-76.692,-12.446 -76.875,-12.402 -77.057,-12.347L-77.057,-34.658ZM0.602,-9.618C0.062,-10.363 -0.603,-10.981 -1.355,-11.457L-1.355,-34.658C-1.355,-51.524 -28.303,-54.027 -38.708,-54.364L-38.708,-54.415C-39.099,-54.415 -39.588,-54.411 -40.147,-54.401C-40.707,-54.411 -41.196,-54.415 -41.587,-54.415L-41.587,-54.364C-51.993,-54.027 -78.94,-51.524 -78.94,-34.658L-78.94,-11.483C-81.286,-10.024 -82.659,-7.254 -82.195,-4.359L-81.421,0.481C-81.124,2.339 -80.115,3.973 -78.582,5.083C-77.414,5.929 -76.051,6.377 -74.646,6.417C-70.119,20.774 -58.587,25.956 -49.658,27.764C-59.199,31.002 -65.996,39.215 -65.996,48.817L-65.996,49.758L-15.271,49.758L-15.271,48.817C-15.271,39.272 -21.989,31.101 -31.442,27.822C-22.33,26.03 -11.229,20.78 -6.548,6.38C-6.327,6.401 -6.107,6.433 -5.889,6.433C-4.413,6.433 -2.977,5.969 -1.753,5.083C-0.22,3.973 0.789,2.339 1.086,0.481L1.861,-4.359C2.159,-6.217 1.712,-8.084 0.602,-9.618" style="fill:rgb(47,40,57);fill-rule:nonzero;"/>
        </g>
        <g transform="matrix(1,0,0,1,393.222,383.439)">
            <path d="M0,12.351C-1.9,12.351 -3.608,11.563 -4.795,10.318C-5.841,9.22 -6.483,7.77 -6.483,6.175C-6.483,4.58 -5.841,3.13 -4.795,2.033C-3.982,1.18 -2.927,0.546 -1.73,0.229C-1.179,0.083 -0.6,-0.002 0,-0.002C0.601,-0.002 1.18,0.083 1.731,0.229C4.468,0.954 6.484,3.341 6.484,6.175C6.484,9.58 3.575,12.351 0,12.351M0,-1.885C-4.614,-1.885 -8.368,1.731 -8.368,6.175C-8.368,10.621 -4.614,14.236 0,14.236C4.614,14.236 8.369,10.621 8.369,6.175C8.369,1.731 4.614,-1.885 0,-1.885" style="fill:rgb(47,40,57);fill-rule:nonzero;"/>
        </g>
        <g transform="matrix(1,0,0,1,396.678,389.475)">
            <path d="M0,0.037C-0.012,1.78 -1.556,3.195 -3.456,3.195C-5.362,3.195 -6.913,1.769 -6.913,0.018C-6.913,-1.733 -5.362,-3.158 -3.456,-3.158C-3.097,-3.158 -2.758,-3.094 -2.433,-3C-2.326,-3.314 -2.16,-3.597 -1.939,-3.834C-1.682,-4.111 -1.357,-4.32 -0.991,-4.445C-1.732,-4.815 -2.563,-5.043 -3.456,-5.043C-5.57,-5.043 -7.387,-3.863 -8.251,-2.17C-8.591,-1.505 -8.798,-0.769 -8.798,0.018C-8.798,0.806 -8.591,1.542 -8.251,2.207C-7.387,3.9 -5.57,5.08 -3.456,5.08C-0.51,5.08 1.887,2.809 1.887,0.018C1.887,-0.362 1.834,-0.732 1.749,-1.089C1.546,-0.744 1.26,-0.46 0.914,-0.259C0.64,-0.1 0.331,0.002 0,0.037" style="fill:rgb(47,40,57);fill-rule:nonzero;"/>
        </g>
        <g transform="matrix(1,0,0,1,427.453,383.439)">
            <path d="M0,12.351C-1.568,12.351 -3.008,11.818 -4.13,10.933C-5.567,9.799 -6.484,8.087 -6.484,6.175C-6.484,4.263 -5.567,2.552 -4.13,1.418C-3.438,0.872 -2.621,0.465 -1.731,0.229C-1.18,0.083 -0.601,-0.002 0,-0.002C0.6,-0.002 1.179,0.083 1.73,0.229C4.468,0.954 6.484,3.341 6.484,6.175C6.484,9.58 3.576,12.351 0,12.351M0,-1.885C-4.614,-1.885 -8.369,1.731 -8.369,6.175C-8.369,10.621 -4.614,14.236 0,14.236C0.437,14.236 0.861,14.194 1.28,14.131C1.854,14.046 2.408,13.906 2.938,13.713C6.105,12.564 8.369,9.623 8.369,6.175C8.369,1.731 4.614,-1.885 0,-1.885" style="fill:rgb(47,40,57);fill-rule:nonzero;"/>
        </g>
        <g transform="matrix(1,0,0,1,430.908,389.478)">
            <path d="M0,0.031C-0.01,1.775 -1.555,3.192 -3.455,3.192C-5.362,3.192 -6.913,1.766 -6.913,0.015C-6.913,-1.736 -5.362,-3.161 -3.455,-3.161C-3.106,-3.161 -2.776,-3.099 -2.458,-3.011C-2.351,-3.323 -2.184,-3.607 -1.962,-3.843C-1.701,-4.122 -1.372,-4.33 -1.002,-4.453C-1.74,-4.82 -2.566,-5.046 -3.455,-5.046C-5.128,-5.046 -6.605,-4.299 -7.585,-3.156C-8.331,-2.284 -8.798,-1.191 -8.798,0.015C-8.798,1.221 -8.331,2.316 -7.585,3.186C-6.605,4.33 -5.128,5.077 -3.455,5.077C-0.51,5.077 1.887,2.806 1.887,0.015C1.887,-0.378 1.828,-0.756 1.738,-1.124C1.54,-0.775 1.258,-0.484 0.913,-0.277C0.64,-0.114 0.331,-0.008 0,0.031" style="fill:rgb(47,40,57);fill-rule:nonzero;"/>
        </g>
        <g transform="matrix(1,0,0,1,388.453,377.817)">
            <path d="M0,1.885L9.736,1.885C10.258,1.885 10.679,1.463 10.679,0.943C10.679,0.421 10.258,0 9.736,0L0,0C-0.521,0 -0.942,0.421 -0.942,0.943C-0.942,1.463 -0.521,1.885 0,1.885" style="fill:rgb(47,40,57);fill-rule:nonzero;"/>
        </g>
        <g transform="matrix(1,0,0,1,423.043,377.817)">
            <path d="M0,1.885L9.736,1.885C10.257,1.885 10.679,1.463 10.679,0.943C10.679,0.421 10.257,0 9.736,0L0,0C-0.521,0 -0.942,0.421 -0.942,0.943C-0.942,1.463 -0.521,1.885 0,1.885" style="fill:rgb(47,40,57);fill-rule:nonzero;"/>
        </g>
        <g transform="matrix(1,0,0,1,414.769,401.322)">
            <path d="M0,-1.885L-6.564,-1.885C-7.086,-1.885 -7.507,-1.463 -7.507,-0.943C-7.507,-0.542 -7.256,-0.205 -6.903,-0.069C-6.798,-0.028 -6.685,0 -6.564,0L0,0C0.094,0 0.18,-0.029 0.265,-0.054C0.654,-0.169 0.942,-0.516 0.942,-0.943C0.942,-1.463 0.521,-1.885 0,-1.885" style="fill:rgb(47,40,57);fill-rule:nonzero;"/>
        </g>
        <g transform="matrix(1,0,0,1,414.106,411.524)">
            <path d="M0,-2.709C-0.271,-2.441 -2.716,-0.177 -5.232,-2.705C-5.6,-3.074 -6.198,-3.076 -6.565,-2.709C-6.935,-2.342 -6.937,-1.744 -6.569,-1.376C-5.418,-0.219 -4.129,0.367 -2.739,0.367C-0.43,0.367 1.262,-1.305 1.332,-1.376C1.697,-1.743 1.697,-2.336 1.331,-2.704C0.964,-3.071 0.367,-3.073 0,-2.709" style="fill:rgb(47,40,57);fill-rule:nonzero;"/>
        </g>
    </g>
</svg>
