<?xml version="1.0" encoding="UTF-8" standalone="no"?>
<!DOCTYPE svg PUBLIC "-//W3C//DTD SVG 1.1//EN" "http://www.w3.org/Graphics/SVG/1.1/DTD/svg11.dtd">
<svg width="100%" height="100%" viewBox="0 0 130 130" version="1.1" xmlns="http://www.w3.org/2000/svg" xmlns:xlink="http://www.w3.org/1999/xlink" xml:space="preserve" xmlns:serif="http://www.serif.com/" style="fill-rule:evenodd;clip-rule:evenodd;stroke-linejoin:round;stroke-miterlimit:2;">
    <g transform="matrix(1,0,0,1,-125.666,-58.35)">
        <g transform="matrix(1,0,0,1,168.981,162.914)">
            <path d="M0,7.363C-0.433,8.484 -2.255,7.994 -1.817,6.862C-1.721,6.612 -1.608,6.373 -1.501,6.131C-0.103,2.941 2.152,0.312 5.163,-1.506C6.205,-2.136 7.151,-0.505 6.114,0.121C3.706,1.576 1.788,3.636 0.548,6.131C0.349,6.531 0.163,6.94 0,7.363M42.019,6.131C40.109,1.745 36.629,-1.949 32.186,-4.414C30.918,-5.117 29.573,-5.719 28.163,-6.209C27.852,-6.318 27.538,-6.421 27.221,-6.518L27.221,-5.665C27.221,-5.62 27.215,-5.577 27.214,-5.533C27.204,-4.915 27.119,-4.316 26.975,-3.739L27.087,-2.637C27.087,-2.637 26.918,-2.629 26.614,-2.625C25.411,0.274 22.548,2.329 19.227,2.329C17.565,2.329 16.02,1.814 14.737,0.938C12.661,-0.481 11.284,-2.852 11.239,-5.533C11.238,-5.577 11.232,-5.62 11.232,-5.665L11.232,-6.518C10.915,-6.421 10.602,-6.318 10.29,-6.209C4.605,-4.231 -0.039,-0.426 -2.711,4.392C-3.024,4.958 -3.308,5.538 -3.565,6.131C-4.613,8.537 -5.193,11.148 -5.193,13.881L43.647,13.881C43.647,11.148 43.066,8.537 42.019,6.131" style="fill:rgb(209,87,25);fill-rule:nonzero;"/>
        </g>
        <g transform="matrix(1,0,0,1,174.522,122.507)">
            <path d="M0,0.037C-0.081,0.046 -0.16,0.061 -0.244,0.061C-1.525,0.061 -2.564,-0.977 -2.564,-2.259C-2.564,-2.52 -2.512,-2.766 -2.433,-3C-2.326,-3.314 -2.159,-3.597 -1.939,-3.834C-2.414,-3.998 -2.92,-4.101 -3.456,-4.101C-5.886,-4.101 -7.855,-2.256 -7.855,0.018C-7.855,2.293 -5.886,4.138 -3.456,4.138C-1.025,4.138 0.944,2.293 0.944,0.018C0.944,-0.077 0.921,-0.166 0.915,-0.259C0.64,-0.1 0.331,0.002 0,0.037" style="fill:rgb(112,79,61);fill-rule:nonzero;"/>
        </g>
        <g transform="matrix(1,0,0,1,209.665,122.818)">
            <path d="M0,-0.585C-0.273,-0.421 -0.582,-0.316 -0.913,-0.277C-1.003,-0.266 -1.092,-0.25 -1.186,-0.25C-2.467,-0.25 -3.506,-1.288 -3.506,-2.57C-3.506,-2.834 -3.453,-3.083 -3.372,-3.318C-3.264,-3.632 -3.096,-3.915 -2.875,-4.151C-3.343,-4.311 -3.841,-4.412 -4.368,-4.412C-6.281,-4.412 -7.892,-3.262 -8.499,-1.666C-8.663,-1.234 -8.768,-0.777 -8.768,-0.293C-8.768,0.192 -8.663,0.649 -8.499,1.081C-7.892,2.677 -6.281,3.827 -4.368,3.827C-1.938,3.827 0.032,1.982 0.032,-0.293C0.032,-0.393 0.007,-0.486 0,-0.585" style="fill:rgb(112,79,61);fill-rule:nonzero;"/>
        </g>
        <g transform="matrix(1,0,0,1,194.564,160.713)">
            <path d="M0,-0.43C-2.362,-0.48 -7.06,-0.82 -10.846,-2.574C-11.571,-2.909 -12.264,-3.296 -12.899,-3.744C-13.073,-3.867 -13.243,-3.993 -13.408,-4.125C-13.549,-4.238 -13.686,-4.355 -13.82,-4.475C-13.912,-4.557 -14,-4.643 -14.088,-4.729C-14.167,-4.805 -14.248,-4.88 -14.324,-4.96C-14.328,-4.898 -14.331,-4.837 -14.333,-4.775C-14.338,-4.66 -14.351,-4.548 -14.351,-4.432L-14.351,-3.464C-14.351,-3.419 -14.345,-3.376 -14.344,-3.331C-14.299,-0.65 -12.922,1.72 -10.846,3.14C-9.563,4.016 -8.018,4.53 -6.356,4.53C-3.035,4.53 -0.172,2.476 1.031,-0.424C0.776,-0.421 0.425,-0.421 0,-0.43" style="fill:rgb(226,179,132);fill-rule:nonzero;"/>
        </g>
        <g transform="matrix(1,0,0,1,162.922,127.864)">
            <path d="M0,3.954L0.125,3.954C1.339,3.954 1.337,5.838 0.125,5.838L0,5.838C-1.215,5.838 -1.213,3.954 0,3.954M26.409,-5.339L29.692,3.885L23.127,4.147C23.04,3.797 26.409,-5.339 26.409,-5.339M40.69,5.838L40.565,5.838C39.351,5.838 39.353,3.954 40.565,3.954L40.69,3.954C41.905,3.954 41.903,5.838 40.69,5.838M45.351,2.357C46.21,3.217 44.877,4.549 44.018,3.69C43.977,3.648 43.935,3.607 43.894,3.565C43.635,3.307 43.59,3.01 43.656,2.739C43.808,2.107 44.625,1.632 45.226,2.233C45.255,2.262 45.285,2.291 45.313,2.32L45.351,2.357ZM46.5,6.893L46.5,7.018C46.5,8.233 44.616,8.23 44.616,7.018L44.616,6.893C44.616,5.679 46.5,5.681 46.5,6.893M48.53,5.585C48.447,5.626 48.364,5.668 48.28,5.71C47.198,6.251 46.244,4.625 47.329,4.082C47.413,4.041 47.496,3.999 47.579,3.957C48.662,3.416 49.615,5.042 48.53,5.585M38.245,-11.134C38.262,-11.145 38.28,-11.153 38.297,-11.164C39.468,-11.903 40.868,-12.337 42.375,-12.337C43.882,-12.337 45.283,-11.903 46.454,-11.164C48.47,-9.891 49.802,-7.705 49.802,-5.218C49.802,-1.286 46.477,1.901 42.375,1.901C40.847,1.901 39.426,1.457 38.245,0.698C36.258,-0.579 34.949,-2.752 34.949,-5.218C34.949,-7.684 36.258,-9.857 38.245,-11.134M29.262,19.059C29.261,19.06 29.261,19.062 29.26,19.064C29.013,19.472 28.709,19.784 28.383,20.045C28.199,20.192 28.008,20.318 27.807,20.418C27.771,20.501 27.711,20.575 27.614,20.621C27.535,20.658 27.455,20.681 27.375,20.71C26.842,20.908 26.307,20.939 25.744,20.741C25.578,20.682 25.424,20.606 25.275,20.521C25.206,20.493 25.137,20.466 25.069,20.433C24.67,20.241 24.295,19.955 23.957,19.59C23.912,19.542 23.861,19.508 23.817,19.457C23.779,19.411 23.758,19.353 23.737,19.296C23.659,19.083 23.712,18.837 23.918,18.727C24.034,18.517 24.293,18.37 24.571,18.499C25.799,19.072 27.505,19.222 28.648,18.394C28.994,18.144 29.321,18.472 29.322,18.812C29.323,18.852 29.317,18.893 29.306,18.936C29.302,18.95 29.296,18.963 29.292,18.976C29.282,19.004 29.277,19.033 29.262,19.059M23.241,6.284C23.15,6.006 23.127,5.81 23.127,5.81L29.692,5.548C29.692,5.548 29.659,5.865 29.506,6.284C29.481,6.351 29.455,6.419 29.423,6.49C29.068,7.304 28.255,8.349 26.409,8.349C24.414,8.349 23.625,7.242 23.318,6.49C23.289,6.417 23.263,6.349 23.241,6.284M3.869,4.465C2.654,4.465 2.656,2.581 3.869,2.581C5.084,2.581 5.082,4.465 3.869,4.465M3.62,5.576C4.834,5.576 4.832,7.461 3.62,7.461C2.405,7.461 2.407,5.576 3.62,5.576M6.74,5.589C5.525,5.589 5.527,3.704 6.74,3.704C7.955,3.704 7.953,5.589 6.74,5.589M3.349,-10.649C3.577,-10.834 3.815,-11.006 4.065,-11.164C5.237,-11.903 6.637,-12.337 8.144,-12.337C9.651,-12.337 11.052,-11.903 12.223,-11.164C14.238,-9.891 15.571,-7.705 15.571,-5.218C15.571,-1.286 12.246,1.901 8.144,1.901C6.315,1.901 4.643,1.264 3.349,0.213C1.741,-1.093 0.718,-3.04 0.718,-5.218C0.718,-7.397 1.741,-9.343 3.349,-10.649M60.656,-7.652C60.654,-8.636 60.643,-9.602 60.615,-10.531C60.609,-10.749 60.594,-10.949 60.587,-11.164C60.583,-11.273 60.576,-11.375 60.572,-11.483C60.569,-11.559 60.565,-11.633 60.562,-11.709C60.396,-11.703 60.222,-11.736 60.042,-11.87C59.901,-11.976 59.772,-12.087 59.639,-12.196C59.595,-12.232 59.548,-12.268 59.504,-12.305C59.456,-12.346 59.401,-12.386 59.354,-12.427C57.646,-13.641 56.456,-15.428 55.693,-16.913C54.93,-18.4 54.594,-19.583 54.594,-19.583C54.594,-19.583 53.586,-17.297 49.802,-18.441C46.018,-19.584 45.008,-22.724 45.008,-22.724L40.69,-23.382C39.701,-23.532 38.901,-23.78 38.245,-24.07C36.036,-25.045 35.525,-26.511 35.525,-26.511C35.525,-26.511 33.104,-23.424 28.853,-24.01C24.602,-24.596 22.796,-27.357 22.796,-27.357C22.796,-27.357 22.147,-25.948 20.797,-24.624C19.699,-23.547 18.138,-22.527 16.074,-22.367C11.472,-22.011 8.424,-25.699 8.424,-25.699C8.424,-25.699 7.372,-23.599 4.883,-22.367C4.391,-22.124 3.869,-21.951 3.349,-21.828C1.236,-21.328 -0.856,-21.671 -0.856,-21.671C-0.856,-21.671 -1.206,-19.398 -2.606,-17.192C-3.312,-16.081 -5.272,-14.724 -7.045,-13.65C-7.401,-13.321 -7.771,-13.005 -8.163,-12.711C-8.31,-12.6 -8.464,-12.497 -8.617,-12.391C-8.646,-12.371 -8.674,-12.351 -8.703,-12.332C-9.001,-12.129 -9.307,-11.935 -9.623,-11.753C-9.627,-11.661 -9.632,-11.571 -9.636,-11.48C-9.641,-11.374 -9.647,-11.271 -9.651,-11.164C-9.66,-10.945 -9.675,-10.738 -9.683,-10.516C-9.716,-9.488 -9.736,-8.431 -9.736,-7.336C-9.736,-4.177 -9.521,-1.295 -9.13,1.356C-9.074,1.465 -9.056,1.586 -9.081,1.697C-8.924,2.715 -8.739,3.699 -8.527,4.645C-8.455,4.967 -8.376,5.282 -8.298,5.596C-8.221,5.902 -8.146,6.212 -8.063,6.511C-6.258,13.06 -3.068,17.763 1.086,21.06C1.562,21.008 2.041,20.933 2.521,20.808C3.126,20.652 3.546,21.058 3.657,21.529C3.674,21.603 3.679,21.679 3.681,21.754C3.686,22.087 3.524,22.399 3.163,22.557C7.007,25.018 11.522,26.48 16.438,27.228C16.747,27.275 17.059,27.317 17.371,27.358C17.363,27.418 17.35,27.477 17.343,27.537C17.333,27.631 17.33,27.726 17.322,27.821C17.409,27.737 17.748,27.667 18.285,27.609C18.49,27.586 18.728,27.566 18.984,27.547C19.584,27.608 20.188,27.659 20.797,27.701C20.814,27.703 20.831,27.704 20.848,27.704C22.361,27.808 23.899,27.862 25.462,27.862C26.925,27.862 28.367,27.81 29.786,27.714C30.623,27.658 31.452,27.587 32.271,27.494C32.394,27.48 32.517,27.466 32.64,27.452L32.722,28.25L32.734,28.369L32.837,29.385L33.034,31.311C33.179,30.734 33.263,30.135 33.273,29.517C33.274,29.473 33.28,29.43 33.28,29.385L33.28,28.416C33.28,28.329 33.27,28.245 33.267,28.158C33.26,27.95 33.251,27.742 33.229,27.537C33.223,27.483 33.211,27.43 33.204,27.375C33.516,27.334 33.829,27.296 34.137,27.249C40.567,26.271 46.317,24.037 50.811,20.029C49.971,19.592 50.198,18.308 50.965,18.21C51.096,18.193 51.238,18.203 51.397,18.267C51.696,18.387 51.998,18.494 52.301,18.589C55.228,15.505 57.507,11.522 58.94,6.461C59.026,6.159 59.107,5.851 59.187,5.541C59.266,5.235 59.341,4.924 59.414,4.609C59.584,3.872 59.74,3.118 59.877,2.338C59.868,2.336 59.86,2.335 59.851,2.332C59.292,2.184 59.497,1.363 60.024,1.419C60.414,-1.105 60.629,-3.846 60.651,-6.823C60.335,-7.027 60.386,-7.5 60.656,-7.652" style="fill:rgb(226,179,132);fill-rule:nonzero;"/>
        </g>
        <g transform="matrix(1,0,0,1,175.466,122.767)">
            <path d="M0,-0.242C0,2.033 -1.97,3.877 -4.4,3.877C-6.83,3.877 -8.8,2.033 -8.8,-0.242C-8.8,-2.517 -6.83,-4.361 -4.4,-4.361C-3.864,-4.361 -3.358,-4.258 -2.883,-4.095C-3.104,-3.857 -3.271,-3.574 -3.377,-3.261C-3.456,-3.026 -3.509,-2.78 -3.509,-2.519C-3.509,-1.238 -2.47,-0.199 -1.188,-0.199C-1.104,-0.199 -1.025,-0.215 -0.944,-0.223C-0.613,-0.259 -0.305,-0.36 -0.03,-0.52C-0.023,-0.426 0,-0.337 0,-0.242M-0.321,-6.067C-1.492,-6.806 -2.893,-7.24 -4.4,-7.24C-5.907,-7.24 -7.307,-6.806 -8.479,-6.067C-8.729,-5.909 -8.967,-5.737 -9.195,-5.552C-10.803,-4.246 -11.826,-2.3 -11.826,-0.121C-11.826,2.057 -10.803,4.004 -9.195,5.31C-7.901,6.361 -6.229,6.998 -4.4,6.998C-0.298,6.998 3.027,3.811 3.027,-0.121C3.027,-2.608 1.694,-4.794 -0.321,-6.067" style="fill:rgb(253,250,201);fill-rule:nonzero;"/>
        </g>
        <g transform="matrix(1,0,0,1,209.697,122.767)">
            <path d="M0,-0.242C0,2.033 -1.97,3.877 -4.4,3.877C-6.313,3.877 -7.924,2.727 -8.53,1.132C-8.694,0.7 -8.8,0.242 -8.8,-0.242C-8.8,-0.726 -8.694,-1.184 -8.53,-1.616C-7.924,-3.212 -6.313,-4.361 -4.4,-4.361C-3.873,-4.361 -3.375,-4.26 -2.907,-4.101C-3.128,-3.865 -3.296,-3.581 -3.403,-3.268C-3.484,-3.032 -3.538,-2.783 -3.538,-2.519C-3.538,-1.238 -2.499,-0.199 -1.217,-0.199C-1.124,-0.199 -1.035,-0.216 -0.944,-0.226C-0.613,-0.265 -0.305,-0.371 -0.032,-0.534C-0.024,-0.436 0,-0.342 0,-0.242M-0.322,-6.067C-1.493,-6.806 -2.893,-7.24 -4.4,-7.24C-5.907,-7.24 -7.308,-6.806 -8.479,-6.067C-8.496,-6.056 -8.514,-6.048 -8.53,-6.037C-10.518,-4.76 -11.827,-2.587 -11.827,-0.121C-11.827,2.345 -10.518,4.518 -8.53,5.795C-7.349,6.554 -5.929,6.998 -4.4,6.998C-0.298,6.998 3.026,3.811 3.026,-0.121C3.026,-2.608 1.694,-4.794 -0.322,-6.067" style="fill:rgb(253,250,201);fill-rule:nonzero;"/>
        </g>
        <g transform="matrix(1,0,0,1,186.049,122.526)">
            <path d="M0,9.486L6.565,9.223L3.282,0C3.282,0 -0.087,9.136 0,9.486" style="fill:rgb(253,250,201);fill-rule:nonzero;"/>
        </g>
        <g transform="matrix(1,0,0,1,174.144,170.769)">
            <path d="M0,-9.361C-3.01,-7.543 -5.266,-4.914 -6.664,-1.724C-6.771,-1.482 -6.884,-1.243 -6.98,-0.993C-7.417,0.139 -5.596,0.629 -5.163,-0.492C-5,-0.915 -4.814,-1.324 -4.615,-1.724C-3.375,-4.218 -1.457,-6.279 0.951,-7.734C1.988,-8.36 1.042,-9.99 0,-9.361" style="fill:rgb(244,120,64);fill-rule:nonzero;"/>
        </g>
        <g transform="matrix(1,0,0,1,228.704,119.7)">
            <path d="M0,1.41C-0.418,-0.077 -1.488,-1.318 -2.933,-1.942C-3.65,-1.82 -4.078,-0.708 -3.275,-0.188C-2.435,0.355 -1.938,1.188 -1.756,2.161C-1.535,3.352 0.282,2.847 0.061,1.66C0.045,1.575 0.02,1.493 0,1.41" style="fill:rgb(214,120,110);fill-rule:nonzero;"/>
        </g>
        <g transform="matrix(1,0,0,1,150.827,122.532)">
            <path d="M0,-4.386C-0.915,-3.796 -1.606,-2.927 -2.004,-1.922C-2.223,-1.369 -2.359,-0.781 -2.375,-0.166C-2.259,-0.093 -2.136,-0.046 -2.004,-0.026C-1.963,-0.02 -1.924,0 -1.884,0C-1.338,0 -0.984,-0.433 -0.941,-0.943C-0.872,-1.757 -0.424,-2.422 0.204,-2.918C0.604,-3.234 0.534,-3.921 0.204,-4.251C0.141,-4.314 0.07,-4.346 0,-4.386" style="fill:rgb(214,120,110);fill-rule:nonzero;"/>
        </g>
        <g transform="matrix(1,0,0,1,193.083,136.148)">
            <path d="M0,-2.692L0.05,-3.228L-7.555,-2.924L-7.503,-2.425C-7.486,-2.258 -7.437,-2.064 -7.373,-1.862C-7.041,-0.819 -6.034,0.536 -3.751,0.536C-1.619,0.536 -0.602,-0.751 -0.205,-1.847C-0.094,-2.153 -0.023,-2.448 0,-2.692" style="fill:rgb(188,98,86);fill-rule:nonzero;"/>
        </g>
        <g transform="matrix(1,0,0,1,225.203,122.543)">
            <path d="M0,5.312C0.199,4.757 0.319,4.134 0.424,3.594C0.461,3.399 0.498,3.213 0.534,3.047C0.688,2.353 0.957,1.527 0.869,0.808C0.766,-0.028 0.449,-0.479 0,-0.785C-0.213,-0.931 -0.457,-1.045 -0.723,-1.149C-0.976,-1.247 -1.247,-1.338 -1.533,-1.442C-1.572,-1.457 -1.598,-1.481 -1.63,-1.502C-1.652,1.475 -1.868,4.216 -2.257,6.74C-2.231,6.743 -2.208,6.737 -2.18,6.745C-1.976,6.799 -1.794,6.814 -1.623,6.812C-0.77,6.797 -0.295,6.135 0,5.312" style="fill:rgb(188,98,86);fill-rule:nonzero;"/>
        </g>
        <g transform="matrix(1,0,0,1,226.947,128.154)">
            <path d="M0,-6.293C-0.182,-7.266 -0.679,-8.099 -1.519,-8.642C-2.322,-9.162 -1.894,-10.274 -1.176,-10.396C-0.986,-10.429 -0.781,-10.408 -0.567,-10.27C0.59,-9.521 1.435,-8.384 1.756,-7.044C1.781,-6.957 1.797,-6.867 1.817,-6.779C2.019,-5.603 0.221,-5.107 0,-6.293M-1.278,-11.454C-1.593,-11.56 -1.917,-11.647 -2.255,-11.702C-2.331,-11.714 -2.405,-11.717 -2.48,-11.727C-2.503,-11.729 -2.526,-11.731 -2.548,-11.734C-2.619,-11.734 -2.69,-11.744 -2.763,-11.757C-2.995,-11.774 -3.225,-11.782 -3.453,-11.773C-3.449,-11.665 -3.442,-11.563 -3.438,-11.454C-3.431,-11.239 -3.417,-11.039 -3.41,-10.821C-3.383,-9.892 -3.372,-8.926 -3.369,-7.942C-3.276,-7.995 -3.162,-8.011 -3.026,-7.962C-2.83,-7.891 -2.627,-7.82 -2.423,-7.747C-2.195,-7.665 -1.966,-7.58 -1.744,-7.482C-1.07,-7.188 -0.464,-6.788 -0.169,-6.076C0.359,-4.802 -0.064,-3.294 -0.374,-2.017C-0.378,-2.001 -0.382,-1.983 -0.386,-1.967C-0.726,-0.557 -0.948,0.914 -1.744,1.673C-2.161,2.07 -2.737,2.27 -3.572,2.161C-3.753,2.137 -3.943,2.102 -4.148,2.048C-4.285,2.828 -4.441,3.582 -4.611,4.319C-4.684,4.634 -4.76,4.945 -4.838,5.251C-4.681,5.273 -4.524,5.293 -4.368,5.303C-1.269,5.489 1.55,3.283 2.051,0.157L2.826,-4.683C3.305,-7.672 1.505,-10.519 -1.278,-11.454" style="fill:rgb(188,98,86);fill-rule:nonzero;"/>
        </g>
        <g transform="matrix(1,0,0,1,195.759,158.359)">
            <path d="M0,-1.11L-0.104,-2.126L-0.116,-2.245L-0.197,-3.043C-0.32,-3.028 -0.444,-3.015 -0.567,-3.001C-1.385,-2.908 -2.215,-2.837 -3.051,-2.78C-4.471,-2.684 -5.912,-2.632 -7.375,-2.632C-8.938,-2.632 -10.476,-2.686 -11.989,-2.79C-12.006,-2.791 -12.023,-2.792 -12.041,-2.794C-12.649,-2.836 -13.253,-2.887 -13.853,-2.947C-14.109,-2.928 -14.348,-2.908 -14.553,-2.886C-15.089,-2.828 -15.429,-2.757 -15.515,-2.673C-15.529,-2.66 -15.545,-2.647 -15.545,-2.632C-15.537,-2.623 -15.527,-2.615 -15.519,-2.606C-15.442,-2.527 -15.362,-2.452 -15.283,-2.375C-15.194,-2.29 -15.107,-2.204 -15.015,-2.121C-14.881,-2.002 -14.744,-1.884 -14.603,-1.771C-14.438,-1.639 -14.268,-1.513 -14.094,-1.39C-13.459,-0.942 -12.766,-0.556 -12.041,-0.22C-8.255,1.534 -3.557,1.873 -1.195,1.924C-0.77,1.932 -0.418,1.933 -0.164,1.93C0.14,1.926 0.31,1.919 0.31,1.919L0.197,0.816L0,-1.11Z" style="fill:rgb(188,98,86);fill-rule:nonzero;"/>
        </g>
        <g transform="matrix(-1,0,0,1,162.922,133.702)">
            <path d="M-0.124,-1.884L0.001,-1.884C1.213,-1.884 1.215,0 0.001,0L-0.124,0C-1.337,0 -1.339,-1.884 -0.124,-1.884" style="fill:rgb(188,98,86);fill-rule:nonzero;"/>
        </g>
        <g transform="matrix(1,0,0,1,166.541,135.325)">
            <path d="M0,-1.885C-1.213,-1.885 -1.215,0 0,0C1.212,0 1.214,-1.885 0,-1.885" style="fill:rgb(188,98,86);fill-rule:nonzero;"/>
        </g>
        <g transform="matrix(1,0,0,1,166.791,132.329)">
            <path d="M0,-1.884C-1.213,-1.884 -1.215,0 0,0C1.213,0 1.215,-1.884 0,-1.884" style="fill:rgb(188,98,86);fill-rule:nonzero;"/>
        </g>
        <g transform="matrix(1,0,0,1,169.662,133.453)">
            <path d="M0,-1.885C-1.212,-1.885 -1.214,0 0,0C1.213,0 1.215,-1.885 0,-1.885" style="fill:rgb(188,98,86);fill-rule:nonzero;"/>
        </g>
        <g transform="matrix(-1,0,0,1,203.487,133.702)">
            <path d="M-0.125,-1.884L-0,-1.884C1.213,-1.884 1.215,0 -0,0L-0.125,0C-1.337,0 -1.34,-1.884 -0.125,-1.884" style="fill:rgb(188,98,86);fill-rule:nonzero;"/>
        </g>
        <g transform="matrix(1,0,0,1,208.272,131.687)">
            <path d="M0,-1.465C0,-1.465 -0.095,-1.56 -0.125,-1.59C-0.725,-2.191 -1.542,-1.715 -1.695,-1.084C-1.76,-0.812 -1.715,-0.515 -1.457,-0.257C-1.416,-0.215 -1.374,-0.174 -1.333,-0.132C-0.474,0.726 0.859,-0.606 0,-1.465" style="fill:rgb(188,98,86);fill-rule:nonzero;"/>
        </g>
        <g transform="matrix(0,1,1,0,208.543,133.878)">
            <path d="M0.88,-1.006L1.005,-1.006C2.217,-1.006 2.22,0.879 1.005,0.879L0.88,0.879C-0.332,0.879 -0.334,-1.006 0.88,-1.006" style="fill:rgb(188,98,86);fill-rule:nonzero;"/>
        </g>
        <g transform="matrix(-0.92844,0.371482,0.371482,0.92844,211.502,133.38)">
            <path d="M0.351,-1.819C0.443,-1.81 0.537,-1.804 0.629,-1.795C1.838,-1.695 1.556,0.169 0.351,0.068C0.257,0.061 0.165,0.053 0.072,0.045C-1.137,-0.055 -0.856,-1.919 0.351,-1.819" style="fill:rgb(188,98,86);fill-rule:nonzero;"/>
        </g>
        <g transform="matrix(1,0,0,1,148.943,127.322)">
            <path d="M0,-4.79C-0.041,-4.79 -0.08,-4.81 -0.12,-4.816C-0.252,-4.835 -0.375,-4.883 -0.492,-4.956C-0.763,-5.126 -0.97,-5.407 -0.942,-5.732C-0.87,-6.58 -0.585,-7.377 -0.12,-8.063C0.123,-8.423 0.401,-8.761 0.755,-9.04C1.092,-9.307 1.52,-9.385 1.884,-9.176C1.954,-9.136 2.025,-9.104 2.088,-9.04C2.418,-8.71 2.488,-8.024 2.088,-7.708C1.459,-7.212 1.012,-6.546 0.942,-5.732C0.899,-5.223 0.546,-4.79 0,-4.79M4.898,2.239C4.866,2.38 4.769,2.5 4.576,2.533C4.421,2.559 4.279,2.57 4.14,2.579C1.97,2.708 1.581,0.756 1.324,-1.184C1.278,-1.527 1.236,-1.869 1.19,-2.199C0.896,-4.286 0.801,-6.919 3.304,-7.172C3.452,-7.187 3.605,-7.197 3.772,-7.194C4.162,-7.189 4.298,-6.799 4.186,-6.523C4.13,-6.354 3.989,-6.217 3.758,-6.217C3.71,-6.217 3.672,-6.232 3.632,-6.243C3.521,-6.239 3.413,-6.233 3.315,-6.216C1.412,-5.884 1.974,-3.21 2.186,-1.857C2.215,-1.667 2.241,-1.435 2.271,-1.184C2.41,-0.009 2.652,1.615 3.964,1.65C4.077,1.653 4.196,1.646 4.325,1.624C4.575,1.582 4.758,1.72 4.849,1.898C4.458,-0.752 4.243,-3.634 4.243,-6.793C4.243,-7.889 4.263,-8.945 4.296,-9.974C4.304,-10.195 4.319,-10.403 4.328,-10.622C4.332,-10.728 4.338,-10.831 4.343,-10.937C4.134,-10.925 3.925,-10.903 3.714,-10.87C3.595,-10.85 3.479,-10.82 3.362,-10.794C3.149,-10.747 2.94,-10.69 2.737,-10.622C1.584,-10.234 0.603,-9.519 -0.12,-8.6C-1.142,-7.3 -1.647,-5.601 -1.366,-3.851L-0.591,0.989C-0.503,1.536 -0.339,2.051 -0.12,2.534C0.794,4.554 2.755,5.94 4.973,6.121C5.207,6.14 5.443,6.147 5.681,6.138C5.603,5.824 5.524,5.51 5.452,5.188C5.24,4.241 5.055,3.258 4.898,2.239" style="fill:rgb(188,98,86);fill-rule:nonzero;"/>
        </g>
        <g transform="matrix(1,0,0,1,191.57,148.59)">
            <path d="M0,-2.332C-1.143,-1.504 -2.85,-1.654 -4.077,-2.227C-4.355,-2.356 -4.614,-2.208 -4.73,-1.999C-4.936,-1.889 -4.99,-1.643 -4.911,-1.43C-4.89,-1.373 -4.87,-1.315 -4.831,-1.269C-4.788,-1.218 -4.736,-1.184 -4.692,-1.136C-4.354,-0.77 -3.979,-0.485 -3.579,-0.292C-3.511,-0.26 -3.443,-0.233 -3.374,-0.205C-3.225,-0.12 -3.071,-0.044 -2.905,0.015C-2.342,0.213 -1.806,0.182 -1.273,-0.016C-1.194,-0.045 -1.114,-0.068 -1.034,-0.105C-0.937,-0.151 -0.877,-0.225 -0.842,-0.308C-0.64,-0.408 -0.449,-0.534 -0.265,-0.681C0.061,-0.942 0.365,-1.254 0.611,-1.662C0.612,-1.664 0.612,-1.665 0.613,-1.667C0.629,-1.693 0.633,-1.722 0.643,-1.75C0.648,-1.763 0.653,-1.776 0.657,-1.79C0.669,-1.832 0.675,-1.874 0.673,-1.914C0.671,-1.965 0.659,-2.014 0.639,-2.06C0.562,-2.335 0.294,-2.545 0,-2.332" style="fill:rgb(188,98,86);fill-rule:nonzero;"/>
        </g>
        <g transform="matrix(1,0,0,1,218.615,103.585)">
            <path d="M0,5.41C-0.309,4.188 -0.532,2.902 -0.755,1.567C-3.783,2.442 -6.31,1.098 -8.376,-0.928C-9.359,-1.892 -10.241,-3.004 -11.02,-4.101C-12.915,-3.245 -14.968,-3.068 -16.894,-3.551C-17.08,-3.598 -17.264,-3.652 -17.448,-3.711C-17.949,-3.871 -18.433,-4.083 -18.904,-4.333C-19.439,-4.615 -19.948,-4.955 -20.43,-5.35C-21.293,-4.888 -22.19,-4.548 -23.104,-4.333C-24.75,-3.944 -26.444,-3.95 -28.068,-4.333C-29.523,-4.675 -30.921,-5.316 -32.172,-6.253C-32.291,-6.319 -32.409,-6.387 -32.498,-6.442C-32.983,-5.59 -33.607,-4.898 -34.321,-4.333C-34.509,-4.183 -34.696,-4.032 -34.896,-3.902C-36.471,-2.883 -38.408,-2.45 -40.375,-2.513C-42.481,-2.581 -44.614,-3.222 -46.371,-4.333C-46.765,-4.582 -47.134,-4.858 -47.485,-5.153C-47.692,-4.876 -47.906,-4.602 -48.126,-4.333C-49.181,-3.038 -50.378,-1.844 -51.711,-0.928C-51.919,-0.786 -52.131,-0.653 -52.345,-0.525C-54.086,0.521 -56.042,1.066 -58.187,0.772C-58.344,4.58 -59.999,8.096 -62.739,10.629C-60.966,9.556 -59.005,8.199 -58.3,7.088C-56.899,4.882 -56.55,2.609 -56.55,2.609C-56.55,2.609 -54.457,2.952 -52.345,2.452C-51.824,2.328 -51.303,2.156 -50.811,1.912C-48.322,0.681 -47.269,-1.42 -47.269,-1.42C-47.269,-1.42 -44.221,2.269 -39.62,1.912C-37.556,1.753 -35.995,0.732 -34.896,-0.344C-33.546,-1.669 -32.897,-3.077 -32.897,-3.077C-32.897,-3.077 -31.092,-0.316 -26.84,0.27C-22.589,0.856 -20.168,-2.231 -20.168,-2.231C-20.168,-2.231 -19.657,-0.765 -17.448,0.21C-16.792,0.499 -15.992,0.747 -15.003,0.898L-10.685,1.556C-10.685,1.556 -9.675,4.696 -5.892,5.839C-2.107,6.983 -1.099,4.697 -1.099,4.697C-1.099,4.697 -0.763,5.88 0,7.367C0.763,8.852 1.952,10.639 3.66,11.852C1.59,10.043 0.618,7.854 0,5.41" style="fill:rgb(188,98,86);fill-rule:nonzero;"/>
        </g>
        <g transform="matrix(1,0,0,1,241.723,82.8701)">
            <path d="M0,54.25C-0.923,55.026 -2.262,53.699 -1.333,52.917C0.695,51.213 -1.099,48.809 -2.61,47.537C-3.539,46.754 -2.199,45.428 -1.277,46.204C1.025,48.142 2.823,51.877 0,54.25M-8.166,22.877C-8.523,21.376 -9.619,20.162 -11.042,19.665C-11.389,19.544 -11.75,19.453 -12.131,19.426C-13.335,19.339 -13.341,17.454 -12.131,17.541C-12.068,17.546 -12.009,17.562 -11.947,17.569C-9.266,17.839 -6.981,19.719 -6.348,22.376C-6.067,23.558 -7.885,24.057 -8.166,22.877M-8.89,60.493C-10.749,61.273 -12.808,60.534 -13.992,58.982C-14.728,58.018 -13.09,57.08 -12.364,58.031C-11.658,58.957 -10.403,59.101 -9.391,58.675C-8.272,58.206 -7.788,60.03 -8.89,60.493M-24.207,-0.77C-25.421,-0.77 -25.419,-2.654 -24.207,-2.654C-22.992,-2.654 -22.994,-0.77 -24.207,-0.77M-27.102,-3.204C-28.639,-4.415 -30.489,-4.994 -32.435,-4.976C-33.65,-4.964 -33.647,-6.849 -32.435,-6.86C-29.958,-6.883 -27.707,-6.063 -25.769,-4.537C-24.816,-3.786 -26.159,-2.461 -27.102,-3.204M-45.11,12.888C-47.326,13.91 -49.874,13.761 -51.857,12.282C-52.82,11.565 -51.879,9.93 -50.906,10.655C-49.488,11.712 -47.698,12.016 -46.062,11.26C-44.966,10.755 -44.01,12.38 -45.11,12.888M-53.245,-5.152C-53.961,-4.188 -55.596,-5.129 -54.872,-6.103C-52.923,-8.724 -49.904,-10.212 -46.619,-9.963C-45.415,-9.872 -45.409,-7.987 -46.619,-8.079C-49.201,-8.274 -51.682,-7.253 -53.245,-5.152M-61.819,-1.413C-61.973,-0.877 -62.47,-0.685 -62.978,-0.754C-63.925,-0.883 -64.853,-0.331 -65.322,0.464C-65.939,1.51 -67.567,0.561 -66.95,-0.487C-66.735,-0.85 -66.476,-1.163 -66.188,-1.436C-65.212,-2.359 -63.868,-2.761 -62.477,-2.572C-62.282,-2.545 -62.134,-2.418 -62.017,-2.264C-61.831,-2.018 -61.741,-1.682 -61.819,-1.413M-72.992,8.544C-74.082,7.959 -75.275,7.821 -76.473,8.126C-77.153,8.3 -77.592,7.766 -77.628,7.227C-77.654,6.832 -77.47,6.436 -76.974,6.309C-76.584,6.21 -76.195,6.149 -75.807,6.118C-74.507,6.013 -73.225,6.282 -72.041,6.917C-70.97,7.49 -71.923,9.117 -72.992,8.544M-90.637,5.494C-91.375,5.793 -92.825,6.357 -92.584,7.397C-92.311,8.58 -94.129,9.08 -94.402,7.898C-94.924,5.637 -92.933,4.403 -91.138,3.677C-90.662,3.484 -90.104,3.889 -89.979,4.335C-89.83,4.866 -90.167,5.304 -90.637,5.494M-91.19,63.147C-90.093,62.648 -89.136,64.273 -90.239,64.775C-92.096,65.62 -94.248,65.296 -95.68,63.8C-96.519,62.923 -95.188,61.589 -94.347,62.467C-93.54,63.311 -92.282,63.645 -91.19,63.147M-100.084,28.616C-101.782,29.415 -102.502,31.418 -101.273,32.99C-100.535,33.936 -101.86,35.278 -102.606,34.323C-104.516,31.879 -103.948,28.36 -101.036,26.989C-99.943,26.475 -98.988,28.1 -100.084,28.616M-102.28,58.742C-104.287,57.847 -105,55.41 -104.144,53.481C-103.652,52.374 -102.028,53.333 -102.516,54.433C-102.988,55.494 -102.312,56.676 -101.329,57.114C-100.222,57.608 -101.182,59.231 -102.28,58.742M0.574,44.062C0.277,43.875 0.139,43.579 0.134,43.268C0.131,43.102 0.154,42.934 0.235,42.772C2.451,38.367 0.878,32.811 -3.282,30.187C-3.875,29.813 -3.798,29.119 -3.437,28.718C-3.44,28.643 -3.457,28.573 -3.442,28.491C-2.922,25.537 -3.323,22.508 -4.578,19.786C-4.619,19.698 -4.652,19.607 -4.694,19.52C-5.336,18.197 -6.162,16.96 -7.157,15.878C-8.104,14.85 -9.52,14.23 -10.456,13.282C-10.687,13.317 -10.852,13.347 -10.852,13.347C-10.852,13.347 -10.858,13.108 -10.879,12.729C-11.18,12.11 -11.059,11.438 -11.19,10.634C-11.423,9.204 -11.941,7.824 -12.675,6.577C-13.644,4.932 -14.96,3.576 -16.52,2.572C-17.492,1.947 -18.558,1.456 -19.696,1.123C-20.214,0.972 -20.389,0.529 -20.336,0.112C-20.461,-0.078 -20.527,-0.315 -20.473,-0.594C-20.268,-1.66 -20.621,-2.711 -21.283,-3.695C-22.928,-6.141 -26.54,-8.165 -28.666,-8.913C-31.84,-10.03 -36.912,-10.018 -39.882,-8.31C-39.922,-8.286 -39.961,-8.286 -40.001,-8.27C-40.465,-8.074 -40.891,-8.28 -41.118,-8.633C-41.309,-8.737 -41.473,-8.905 -41.555,-9.169C-42.615,-12.581 -47.511,-12.392 -50.269,-11.572C-53.024,-10.754 -55.232,-8.858 -56.674,-6.406C-56.836,-6.13 -57.068,-6 -57.311,-5.966C-57.72,-5.672 -58.347,-5.643 -58.7,-6.188C-59.789,-7.868 -61.59,-8.751 -63.482,-9.242C-64.033,-9.385 -64.591,-9.499 -65.143,-9.584C-67.453,-9.941 -72.65,-10.289 -72.947,-6.92C-72.669,-6.324 -73.142,-5.417 -73.978,-5.553C-73.942,-5.507 -73.918,-5.479 -73.918,-5.479C-73.918,-5.479 -73.994,-5.515 -74.128,-5.571C-76.644,-6.109 -81.542,-5.875 -83.766,-3.695C-84.585,-2.892 -85.05,-1.831 -84.883,-0.437C-84.803,0.23 -85.546,0.561 -86.076,0.472C-86.374,0.421 -86.669,0.393 -86.964,0.37C-92.293,-0.051 -96.846,3.864 -97.175,9.312C-97.204,9.781 -97.507,10.062 -97.862,10.167C-97.916,10.477 -98.106,10.759 -98.497,10.872C-102.082,11.905 -103.957,15.202 -103.598,18.371C-103.435,19.076 -103.236,19.771 -103.023,20.418C-102.562,21.423 -101.85,22.359 -100.835,23.126C-100.332,23.506 -100.123,24.42 -100.835,24.753C-106.667,27.482 -107.336,35.28 -101.801,38.779C-101.406,39.029 -101.309,39.424 -101.393,39.78C-101.016,40.108 -100.876,40.654 -101.378,41.046C-102.117,41.623 -103.045,42.394 -103.84,43.268C-105.396,44.977 -106.43,47.087 -104.454,48.96C-104.017,49.374 -104.144,50.061 -104.598,50.394C-104.327,50.502 -104.142,50.542 -104.142,50.542C-104.142,50.542 -104.796,50.76 -105.552,51.2C-108.875,54.712 -105.237,62.233 -100.535,62.414C-100.061,62.433 -99.778,62.734 -99.675,63.09C-96.51,65.631 -90.939,66.831 -86.964,65.219C-86.366,64.976 -85.803,64.672 -85.292,64.298C-84.848,63.973 -84.422,64.14 -84.168,64.476C-82.214,65.755 -80.032,66.295 -77.786,66.062C-77.762,66.06 -77.738,66.058 -77.715,66.055C-81.87,62.757 -85.059,58.054 -86.865,51.505C-86.948,51.206 -87.022,50.896 -87.099,50.59C-87.337,50.599 -87.573,50.591 -87.807,50.572C-90.025,50.392 -91.986,49.006 -92.9,46.986C-93.119,46.503 -93.284,45.988 -93.372,45.441L-94.146,40.601C-94.427,38.851 -93.922,37.151 -92.9,35.852C-92.178,34.933 -91.196,34.218 -90.043,33.83C-89.84,33.762 -89.631,33.705 -89.418,33.657C-89.301,33.631 -89.186,33.602 -89.066,33.582C-88.855,33.549 -88.646,33.526 -88.438,33.515C-88.434,33.423 -88.429,33.333 -88.424,33.242C-88.512,33.292 -88.596,33.348 -88.685,33.397C-88.944,33.539 -89.194,33.547 -89.413,33.474C-89.707,33.376 -89.926,33.125 -90.029,32.837C-90.054,32.767 -90.075,32.699 -90.083,32.626C-90.124,32.306 -90.008,31.974 -89.636,31.77C-89.538,31.715 -89.444,31.654 -89.348,31.598C-89.269,31.552 -89.19,31.506 -89.113,31.458C-88.827,31.283 -88.548,31.1 -88.28,30.906C-87.97,30.681 -87.672,30.444 -87.387,30.195C-87.243,30.069 -87.102,29.94 -86.964,29.809C-84.548,27.496 -83.171,24.308 -83.173,20.841C-83.395,20.529 -83.391,20.111 -83.21,19.786C-83.025,19.454 -82.671,19.229 -82.196,19.374C-79.606,20.158 -77.356,19.395 -75.453,17.964C-74.832,17.498 -74.249,16.961 -73.702,16.382C-73.032,15.671 -72.416,14.901 -71.859,14.122C-71.65,13.83 -71.36,13.724 -71.072,13.724C-70.735,13.432 -70.228,13.339 -69.819,13.742C-68.322,15.218 -65.876,16.201 -63.482,16.333C-61.395,16.447 -59.351,15.909 -58.004,14.458C-57.557,13.977 -57.182,13.403 -56.914,12.711C-56.619,11.952 -55.7,11.943 -55.267,12.362C-55.047,12.354 -54.819,12.414 -54.612,12.594C-51.659,15.166 -47.5,15.508 -44.134,13.548C-43.858,13.388 -43.592,13.387 -43.365,13.476C-43.115,13.439 -42.848,13.497 -42.61,13.715C-41.99,14.283 -41.292,14.71 -40.556,15.02C-40.374,15.097 -40.188,15.163 -40.001,15.224C-38.197,15.809 -36.201,15.659 -34.444,14.7C-34.409,14.682 -34.376,14.683 -34.342,14.669C-33.934,14.424 -33.348,14.43 -33.005,14.935C-32.687,15.403 -32.345,15.894 -31.984,16.382C-31.02,17.686 -29.898,18.969 -28.583,19.786C-27.232,20.626 -25.679,20.974 -23.887,20.325C-23.566,20.208 -23.305,20.278 -23.108,20.434C-23.02,20.503 -22.947,20.588 -22.891,20.689C-22.529,20.691 -22.195,20.889 -22.116,21.362C-21.585,24.534 -21.274,27.681 -19.275,30.097C-19.001,30.429 -18.698,30.748 -18.355,31.049C-18.181,31.202 -18.001,31.352 -17.808,31.497C-17.688,31.586 -17.6,31.689 -17.535,31.8C-17.392,32.049 -17.384,32.333 -17.458,32.589C-17.4,32.594 -17.342,32.602 -17.285,32.608C-17.15,32.622 -17.017,32.63 -16.881,32.652C-16.62,32.694 -16.365,32.752 -16.115,32.821C-16.435,33.273 -16.82,33.526 -17.256,33.545C-17.279,33.546 -17.301,33.551 -17.324,33.55C-17.302,33.553 -17.279,33.555 -17.256,33.558C-17.181,33.567 -17.106,33.57 -17.031,33.582C-16.692,33.637 -16.369,33.724 -16.054,33.83C-13.271,34.766 -11.471,37.612 -11.95,40.601L-12.725,45.441C-13.226,48.567 -16.044,50.773 -19.144,50.587C-19.3,50.577 -19.457,50.558 -19.614,50.536C-19.694,50.846 -19.775,51.153 -19.861,51.455C-21.294,56.517 -23.573,60.499 -26.5,63.583C-26.48,63.59 -26.46,63.596 -26.439,63.602C-24.28,64.271 -22.022,64.315 -19.837,63.55C-18.759,63.173 -17.669,62.169 -16.52,61.784C-16.137,61.656 -15.747,61.597 -15.348,61.653C-14.487,61.774 -13.646,62.319 -12.785,62.531C-11.578,62.827 -10.307,62.907 -9.07,62.784C-6.626,62.54 -4.393,61.47 -2.606,59.805C-2.226,59.451 -1.772,59.504 -1.437,59.732C5.622,57.499 7.031,48.116 0.574,44.062" style="fill:rgb(255,191,64);fill-rule:nonzero;"/>
        </g>
        <g transform="matrix(1,0,0,1,223.886,116.227)">
            <path d="M0,0.096C-0.124,0.046 -0.237,-0.018 -0.357,-0.074C-0.372,-0.072 -0.387,-0.072 -0.402,-0.072C-0.399,0.004 -0.395,0.078 -0.392,0.154C-0.164,0.145 0.067,0.153 0.298,0.17C0.2,0.152 0.103,0.137 0,0.096" style="fill:rgb(255,191,64);fill-rule:nonzero;"/>
        </g>
        <g transform="matrix(1,0,0,1,186.118,97.2796)">
            <path d="M0,-0.137C0.088,-0.082 0.207,-0.014 0.325,0.052C0.223,-0.024 0.125,-0.109 0.025,-0.189C0.016,-0.173 0.009,-0.154 0,-0.137" style="fill:rgb(255,191,64);fill-rule:nonzero;"/>
        </g>
        <g transform="matrix(-0.232847,-0.972513,-0.972513,0.232847,189.462,72.0973)">
            <path d="M-3.934,-4.86C-4.304,-6.016 -2.471,-6.449 -2.101,-5.299C-1.095,-2.162 -1.838,1.12 -3.934,3.626C-4.711,4.558 -6.008,3.186 -5.238,2.265C-3.558,0.256 -3.143,-2.395 -3.934,-4.86" style="fill:rgb(255,210,138);fill-rule:nonzero;"/>
        </g>
        <g transform="matrix(-0.565432,0.824795,0.824795,0.565432,216.105,76.7941)">
            <path d="M3.207,-6.065C3.902,-7.058 5.458,-5.995 4.761,-5C3.647,-3.406 3.078,-1.552 3.207,0.401C3.286,1.598 1.435,1.956 1.354,0.747C1.191,-1.715 1.788,-4.035 3.207,-6.065" style="fill:rgb(255,210,138);fill-rule:nonzero;"/>
        </g>
        <g transform="matrix(1,0,0,1,217.516,82.1008)">
            <path d="M0,-1.885C-1.212,-1.885 -1.214,0 0,0C1.213,0 1.215,-1.885 0,-1.885" style="fill:rgb(255,210,138);fill-rule:nonzero;"/>
        </g>
        <g transform="matrix(1,0,0,1,149.139,88.0366)">
            <path d="M0,2.231C-0.24,1.191 1.21,0.627 1.948,0.328C2.417,0.138 2.754,-0.301 2.605,-0.831C2.48,-1.278 1.923,-1.682 1.446,-1.489C-0.348,-0.763 -2.34,0.47 -1.817,2.732C-1.544,3.913 0.273,3.413 0,2.231" style="fill:rgb(255,210,138);fill-rule:nonzero;"/>
        </g>
        <g transform="matrix(1,0,0,1,169.683,91.0826)">
            <path d="M0,-1.296C-1.184,-1.93 -2.467,-2.2 -3.767,-2.095C-4.155,-2.064 -4.544,-2.003 -4.933,-1.903C-5.429,-1.777 -5.613,-1.38 -5.587,-0.986C-5.552,-0.447 -5.112,0.087 -4.432,-0.086C-3.234,-0.391 -2.042,-0.253 -0.951,0.331C0.118,0.904 1.071,-0.722 0,-1.296" style="fill:rgb(255,210,138);fill-rule:nonzero;"/>
        </g>
        <g transform="matrix(1,0,0,1,179.246,84.1913)">
            <path d="M0,-3.893C-1.391,-4.082 -2.735,-3.681 -3.711,-2.757C-3.999,-2.484 -4.258,-2.171 -4.473,-1.808C-5.09,-0.761 -3.462,0.189 -2.845,-0.857C-2.376,-1.652 -1.448,-2.205 -0.501,-2.076C0.007,-2.006 0.504,-2.198 0.658,-2.734C0.736,-3.003 0.646,-3.339 0.46,-3.585C0.343,-3.74 0.195,-3.867 0,-3.893" style="fill:rgb(255,210,138);fill-rule:nonzero;"/>
        </g>
        <g transform="matrix(1,0,0,1,229.776,106.812)">
            <path d="M0,-6.373C-0.062,-6.379 -0.121,-6.396 -0.184,-6.401C-1.394,-6.488 -1.388,-4.603 -0.184,-4.516C0.197,-4.489 0.558,-4.398 0.905,-4.277C2.328,-3.78 3.424,-2.566 3.782,-1.064C4.062,0.115 5.88,-0.384 5.599,-1.565C4.966,-4.223 2.681,-6.102 0,-6.373" style="fill:rgb(255,210,138);fill-rule:nonzero;"/>
        </g>
        <g transform="matrix(-0.17365,-0.984807,-0.984807,0.17365,192.25,92.5878)">
            <path d="M-2.112,-3.092C-2.571,-1.35 -1.962,0.362 -0.674,1.574C0.208,2.407 -1.238,3.616 -2.112,2.794C-3.912,1.096 -4.502,-1.386 -3.879,-3.747C-3.571,-4.918 -1.804,-4.258 -2.112,-3.092" style="fill:rgb(255,210,138);fill-rule:nonzero;"/>
        </g>
        <g transform="matrix(-0.999214,-0.0396289,-0.0396289,0.999214,139.102,117.602)">
            <path d="M-1.277,-7.8C1.578,-6.315 2.006,-2.775 0.002,-0.41C-0.782,0.515 -2.052,-0.879 -1.277,-1.795C0.013,-3.316 -0.628,-5.347 -2.292,-6.212C-3.368,-6.771 -2.348,-8.357 -1.277,-7.8" style="fill:rgb(255,210,138);fill-rule:nonzero;"/>
        </g>
        <g transform="matrix(0.790581,-0.612358,-0.612358,-0.790581,140.929,138.925)">
            <path d="M-1.072,-0.51C-1.581,0.438 -1.391,1.786 -0.368,2.337C0.691,2.907 -0.005,4.66 -1.072,4.085C-2.931,3.085 -3.859,0.722 -2.82,-1.214C-2.252,-2.274 -0.499,-1.579 -1.072,-0.51" style="fill:rgb(255,210,138);fill-rule:nonzero;"/>
        </g>
        <g transform="matrix(-0.143704,-0.989621,-0.989621,0.143704,148.208,144.92)">
            <path d="M-1.421,-2.143C-1.755,-0.991 -1.244,0.206 -0.294,0.883C0.696,1.589 -0.433,3.098 -1.421,2.394C-3.108,1.192 -3.737,-0.891 -3.167,-2.85C-2.83,-4.014 -1.084,-3.3 -1.421,-2.143" style="fill:rgb(255,210,138);fill-rule:nonzero;"/>
        </g>
        <g transform="matrix(-0.999965,-0.00834173,-0.00834173,0.999965,242.251,137.128)">
            <path d="M1.872,-8.038C2.8,-8.806 4.129,-7.469 3.193,-6.694C1.672,-5.436 -0.142,-3.046 1.872,-1.325C2.794,-0.535 1.444,0.781 0.527,-0.003C-2.276,-2.4 -0.447,-6.12 1.872,-8.038" style="fill:rgb(255,210,138);fill-rule:nonzero;"/>
        </g>
        <g transform="matrix(-0.0665766,-0.997781,-0.997781,0.0665766,229.841,140.217)">
            <path d="M-1.491,-2.397C-1.848,-1.359 -1.621,-0.116 -0.651,0.527C0.347,1.188 -0.48,2.884 -1.491,2.214C-3.118,1.136 -3.993,-0.869 -3.338,-2.776C-2.949,-3.907 -1.097,-3.545 -1.491,-2.397" style="fill:rgb(255,210,138);fill-rule:nonzero;"/>
        </g>
        <g transform="matrix(1,0,0,1,240.286,103.758)">
            <path d="M0,38.845C-0.334,38.616 -0.789,38.563 -1.168,38.917C-2.956,40.582 -5.188,41.653 -7.633,41.896C-8.87,42.019 -10.14,41.939 -11.347,41.643C-12.208,41.432 -13.049,40.887 -13.911,40.765C-14.309,40.709 -14.699,40.768 -15.083,40.897C-16.232,41.282 -17.321,42.285 -18.399,42.663C-20.585,43.428 -22.842,43.383 -25.002,42.714C-22.106,39.658 -19.649,35.7 -17.991,30.602C-17.771,30.622 -17.551,30.655 -17.332,30.655C-15.857,30.655 -14.42,30.191 -13.197,29.305C-11.663,28.195 -10.655,26.56 -10.357,24.703L-9.582,19.863C-9.007,16.276 -11.254,12.879 -14.677,11.934C-14.927,11.865 -15.182,11.806 -15.444,11.764C-15.579,11.743 -15.712,11.735 -15.847,11.72C-15.905,11.715 -15.962,11.706 -16.02,11.702C-15.947,11.445 -15.954,11.161 -16.098,10.913C-16.162,10.802 -16.251,10.699 -16.37,10.609C-16.563,10.465 -16.744,10.315 -16.917,10.162C-17.26,9.86 -17.563,9.541 -17.837,9.21C-19.837,6.794 -20.147,3.647 -20.678,0.475C-20.757,0.001 -21.092,-0.196 -21.453,-0.198C-21.51,-0.299 -21.583,-0.384 -21.67,-0.454C-21.867,-0.609 -22.128,-0.679 -22.449,-0.563C-24.242,0.086 -25.794,-0.261 -27.146,-1.101C-28.46,-1.918 -29.582,-3.202 -30.546,-4.506C-30.908,-4.994 -31.249,-5.484 -31.568,-5.953C-31.911,-6.457 -32.496,-6.464 -32.904,-6.218C-32.939,-6.204 -32.971,-6.206 -33.006,-6.187C-34.764,-5.228 -36.759,-5.079 -38.564,-5.664C-38.751,-5.725 -38.936,-5.791 -39.119,-5.868C-39.855,-6.177 -40.553,-6.605 -41.172,-7.173C-41.41,-7.39 -41.678,-7.448 -41.928,-7.412C-42.155,-7.501 -42.42,-7.5 -42.696,-7.339C-46.062,-5.379 -50.221,-5.722 -53.175,-8.294C-53.382,-8.473 -53.61,-8.533 -53.829,-8.526C-54.262,-8.944 -55.182,-8.936 -55.476,-8.176C-55.744,-7.485 -56.12,-6.911 -56.567,-6.429C-57.914,-4.978 -59.957,-4.44 -62.045,-4.555C-64.439,-4.686 -66.884,-5.67 -68.382,-7.146C-68.791,-7.549 -69.298,-7.456 -69.634,-7.164C-69.922,-7.164 -70.212,-7.057 -70.421,-6.765C-70.978,-5.986 -71.595,-5.216 -72.265,-4.506C-72.811,-3.926 -73.395,-3.39 -74.015,-2.924C-75.919,-1.492 -78.168,-0.729 -80.758,-1.514C-81.233,-1.658 -81.587,-1.434 -81.773,-1.101C-81.954,-0.777 -81.957,-0.358 -81.735,-0.047C-81.734,3.42 -83.111,6.609 -85.526,8.921C-85.664,9.053 -85.805,9.182 -85.95,9.308C-86.235,9.557 -86.533,9.794 -86.843,10.019C-87.111,10.213 -87.389,10.396 -87.675,10.571C-87.753,10.618 -87.832,10.664 -87.91,10.71C-88.007,10.767 -88.1,10.827 -88.199,10.882C-88.571,11.086 -88.686,11.418 -88.646,11.739C-88.637,11.812 -88.617,11.88 -88.592,11.949C-91.988,12.913 -94.211,16.293 -93.64,19.863L-92.864,24.703C-92.567,26.56 -91.559,28.195 -90.025,29.305C-88.857,30.15 -87.494,30.598 -86.09,30.639C-84.01,37.234 -80.455,41.891 -76.349,45.174C-78.595,45.408 -80.777,44.868 -82.73,43.588C-82.984,43.253 -83.41,43.085 -83.854,43.41C-84.366,43.785 -84.929,44.089 -85.526,44.331C-89.501,45.944 -95.073,44.744 -98.238,42.202C-98.341,41.847 -98.623,41.545 -99.098,41.527C-103.8,41.346 -107.437,33.825 -104.115,30.312C-103.852,30.034 -103.56,29.774 -103.207,29.553C-103.188,29.54 -103.178,29.519 -103.16,29.506C-102.707,29.174 -102.58,28.486 -103.016,28.073C-104.992,26.199 -103.958,24.089 -102.403,22.38C-101.608,21.507 -100.679,20.736 -99.941,20.159C-99.438,19.766 -99.578,19.22 -99.955,18.892C-99.872,18.537 -99.968,18.142 -100.364,17.892C-105.899,14.393 -105.229,6.595 -99.397,3.866C-98.686,3.533 -98.894,2.618 -99.397,2.239C-100.413,1.471 -101.125,0.536 -101.586,-0.469C-101.682,-0.678 -101.774,-0.887 -101.847,-1.101C-102.005,-1.565 -102.106,-2.039 -102.161,-2.517C-102.52,-5.686 -100.645,-8.982 -97.059,-10.016C-96.669,-10.129 -96.479,-10.411 -96.424,-10.72C-96.07,-10.825 -95.766,-11.107 -95.738,-11.576C-95.409,-17.024 -90.855,-20.938 -85.526,-20.518C-85.232,-20.494 -84.937,-20.466 -84.638,-20.416C-84.108,-20.327 -83.365,-20.657 -83.445,-21.324C-83.613,-22.718 -83.147,-23.779 -82.328,-24.582C-80.105,-26.762 -75.207,-26.996 -72.69,-26.458C-72.663,-26.452 -72.63,-26.448 -72.603,-26.442C-72.581,-26.437 -72.563,-26.444 -72.541,-26.441C-71.704,-26.304 -71.231,-27.212 -71.51,-27.807C-71.212,-31.176 -66.015,-30.829 -63.705,-30.471C-63.154,-30.386 -62.596,-30.272 -62.045,-30.129C-60.153,-29.638 -58.352,-28.756 -57.262,-27.075C-56.909,-26.53 -56.283,-26.559 -55.874,-26.854C-55.631,-26.887 -55.398,-27.018 -55.237,-27.293C-53.795,-29.745 -51.587,-31.641 -48.831,-32.46C-46.073,-33.279 -41.177,-33.468 -40.117,-30.057C-40.035,-29.793 -39.872,-29.624 -39.68,-29.521C-39.454,-29.168 -39.028,-28.962 -38.564,-29.157C-38.523,-29.174 -38.485,-29.174 -38.444,-29.197C-35.474,-30.905 -30.402,-30.917 -27.228,-29.8C-25.103,-29.052 -21.49,-27.028 -19.845,-24.582C-19.183,-23.598 -18.831,-22.548 -19.036,-21.482C-19.089,-21.203 -19.024,-20.966 -18.898,-20.775C-18.952,-20.359 -18.777,-19.916 -18.259,-19.764C-17.12,-19.431 -16.055,-18.941 -15.083,-18.315C-13.523,-17.311 -12.207,-15.956 -11.238,-14.31C-10.504,-13.064 -9.986,-11.683 -9.752,-10.254C-9.622,-9.449 -9.743,-8.777 -9.442,-8.158C-9.371,-8.013 -9.285,-7.871 -9.158,-7.731C-9.117,-7.685 -9.062,-7.649 -9.018,-7.605C-8.083,-6.657 -6.666,-6.038 -5.72,-5.009C-4.724,-3.927 -3.898,-2.69 -3.257,-1.368C-3.214,-1.28 -3.181,-1.19 -3.14,-1.101C-1.885,1.62 -1.485,4.65 -2.004,7.603C-2.019,7.685 -2.003,7.756 -1.999,7.831C-2.36,8.231 -2.438,8.926 -1.845,9.299C2.316,11.924 3.888,17.479 1.673,21.885C1.592,22.046 1.568,22.215 1.571,22.38C1.577,22.692 1.715,22.988 2.011,23.174C8.468,27.229 7.06,36.611 0,38.845M-15.806,17.637C-15.539,17.741 -15.296,17.855 -15.083,18.001C-14.633,18.307 -14.317,18.758 -14.214,19.594C-14.125,20.313 -14.395,21.139 -14.548,21.833C-14.585,21.999 -14.621,22.185 -14.659,22.38C-14.763,22.92 -14.883,23.543 -15.083,24.098C-15.378,24.921 -15.852,25.583 -16.705,25.597C-16.233,23.166 -15.929,20.514 -15.806,17.637M-15.791,13.621C-15.774,13.624 -15.758,13.623 -15.742,13.625C-15.307,13.695 -14.902,13.833 -14.515,14.001C-13.26,14.543 -12.289,15.552 -11.781,16.782C-11.711,16.971 -11.629,17.155 -11.582,17.353C-11.385,18.053 -11.32,18.801 -11.443,19.565L-12.218,24.405C-12.631,26.987 -14.896,28.799 -17.443,28.745C-17.25,28.037 -17.073,27.307 -16.911,26.557C-16.076,26.667 -15.5,26.467 -15.083,26.07C-14.287,25.311 -14.064,23.84 -13.724,22.429C-13.72,22.413 -13.716,22.396 -13.712,22.38C-13.402,21.103 -12.979,19.595 -13.507,18.321C-13.803,17.609 -14.408,17.209 -15.083,16.914C-15.305,16.817 -15.533,16.732 -15.762,16.65C-15.762,15.616 -15.771,14.605 -15.791,13.621M-88.012,13.767C-88.029,14.62 -88.036,15.5 -88.039,16.392C-90.542,16.645 -90.447,19.278 -90.153,21.366C-90.106,21.696 -90.064,22.037 -90.019,22.38C-89.762,24.321 -89.373,26.272 -87.203,26.143C-87.038,27.02 -86.849,27.868 -86.638,28.689C-88.815,28.364 -90.638,26.69 -91.003,24.405L-91.463,21.536L-91.779,19.565C-91.831,19.242 -91.843,18.924 -91.834,18.609C-91.818,17.994 -91.682,17.406 -91.463,16.853C-91.065,15.848 -90.374,14.979 -89.459,14.388C-89.023,14.107 -88.532,13.908 -88.012,13.767M-87.379,25.214C-88.69,25.179 -88.933,23.555 -89.072,22.38C-89.102,22.129 -89.127,21.897 -89.157,21.707C-89.369,20.354 -89.931,17.68 -88.027,17.348C-88,20.187 -87.778,22.808 -87.379,25.214M-43.438,50.28C-43.749,50.337 -44.06,50.394 -44.369,50.444C-44.683,50.494 -44.994,50.539 -45.304,50.582C-46.12,50.695 -46.921,50.782 -47.707,50.848C-49.177,50.972 -50.588,51.027 -51.901,51.027C-53.018,51.027 -54.493,50.975 -56.192,50.808C-56.316,50.795 -56.44,50.783 -56.567,50.77C-57.283,50.694 -58.038,50.594 -58.822,50.469C-59.128,50.42 -59.437,50.368 -59.751,50.311C-60.059,50.255 -60.366,50.2 -60.68,50.137C-64.497,49.358 -68.807,47.919 -72.785,45.339C-77.506,42.276 -81.746,37.583 -84.131,30.431C-84.231,30.131 -84.338,29.841 -84.432,29.532C-84.522,29.232 -84.598,28.912 -84.682,28.604C-85.614,25.194 -86.158,21.287 -86.158,16.771C-86.158,15.685 -86.144,14.635 -86.122,13.608C-86.117,13.382 -86.107,13.166 -86.102,12.943C-86.099,12.845 -86.096,12.749 -86.093,12.652C-86.084,12.359 -86.077,12.063 -86.066,11.775C-86.038,11.756 -86.009,11.736 -85.98,11.716C-85.828,11.61 -85.674,11.507 -85.526,11.396C-85.134,11.102 -84.765,10.785 -84.409,10.456C-81.669,7.923 -80.015,4.407 -79.857,0.599C-77.712,0.893 -75.756,0.348 -74.015,-0.697C-73.801,-0.826 -73.589,-0.959 -73.382,-1.101C-72.048,-2.017 -70.852,-3.211 -69.796,-4.506C-69.576,-4.775 -69.363,-5.049 -69.156,-5.326C-68.805,-5.031 -68.436,-4.755 -68.042,-4.506C-66.284,-3.395 -64.152,-2.754 -62.045,-2.686C-60.078,-2.623 -58.141,-3.056 -56.567,-4.075C-56.366,-4.205 -56.18,-4.356 -55.991,-4.506C-55.278,-5.071 -54.653,-5.763 -54.168,-6.615C-54.159,-6.632 -54.152,-6.651 -54.143,-6.667C-54.043,-6.587 -53.945,-6.502 -53.843,-6.426C-52.591,-5.489 -51.193,-4.848 -49.738,-4.506C-48.114,-4.123 -46.42,-4.116 -44.774,-4.506C-43.86,-4.721 -42.963,-5.061 -42.101,-5.523C-41.619,-5.128 -41.109,-4.788 -40.575,-4.506C-40.104,-4.256 -39.619,-4.044 -39.119,-3.884C-38.935,-3.824 -38.75,-3.771 -38.564,-3.724C-36.638,-3.241 -34.585,-3.418 -32.69,-4.274C-31.912,-3.176 -31.03,-2.065 -30.046,-1.101C-27.98,0.925 -25.453,2.269 -22.426,1.394C-22.202,2.729 -21.979,4.015 -21.67,5.237C-21.052,7.681 -20.081,9.87 -18.01,11.679C-17.962,11.721 -17.908,11.761 -17.859,11.802C-17.816,11.839 -17.769,11.875 -17.725,11.911C-17.716,12.183 -17.708,12.457 -17.701,12.734C-17.699,12.804 -17.697,12.872 -17.695,12.943C-17.689,13.196 -17.678,13.437 -17.674,13.694C-17.655,14.689 -17.646,15.709 -17.645,16.757C-17.776,21.169 -18.356,25.012 -19.273,28.382C-19.358,28.692 -19.442,29.001 -19.533,29.303C-19.624,29.609 -19.723,29.906 -19.82,30.204C-21.475,35.266 -23.952,39.143 -26.896,42.084C-31.721,46.905 -37.775,49.239 -43.438,50.28M-59.129,53.491L-59.129,52.524C-59.129,52.47 -59.123,52.418 -59.121,52.365C-59.121,52.355 -59.12,52.345 -59.12,52.336C-59.096,52.34 -59.073,52.343 -59.049,52.347C-58.182,52.482 -57.353,52.587 -56.567,52.666C-56.427,52.68 -56.286,52.696 -56.148,52.708C-54.474,52.864 -53.018,52.912 -51.901,52.912C-50.708,52.912 -49.328,52.863 -47.829,52.735C-46.936,52.659 -46.002,52.555 -45.032,52.413C-45.031,52.45 -45.026,52.486 -45.026,52.524L-45.026,53.491C-45.026,54.578 -45.28,55.605 -45.721,56.525C-46.858,58.897 -49.276,60.543 -52.077,60.543C-53.782,60.543 -55.346,59.935 -56.567,58.925C-58.131,57.631 -59.129,55.676 -59.129,53.491M-39.119,55.832C-35.203,58.12 -32.108,61.411 -30.316,65.287C-29.337,67.406 -28.747,69.698 -28.624,72.095L-75.531,72.095C-75.416,69.85 -74.885,67.699 -74.015,65.695C-73.956,65.559 -73.901,65.422 -73.839,65.287C-71.467,60.156 -66.813,56.046 -60.991,53.937C-60.837,57.039 -59.1,59.726 -56.567,61.206C-55.246,61.978 -53.715,62.428 -52.077,62.428C-47.3,62.428 -43.398,58.657 -43.164,53.937C-41.739,54.453 -40.387,55.091 -39.119,55.832M4.114,22.38C3.965,22.259 3.819,22.137 3.662,22.023C5.683,17.094 4.088,11.321 -0.207,8.153C-0.202,8.134 -0.19,8.124 -0.187,8.104C0.362,4.979 0.017,1.782 -1.114,-1.101C-2.251,-4.004 -4.186,-6.59 -6.807,-8.465C-8.128,-9.409 -7.792,-10.505 -8.224,-12.031C-8.663,-13.581 -9.391,-15.055 -10.333,-16.36C-11.599,-18.114 -13.219,-19.499 -15.083,-20.486C-15.749,-20.838 -16.446,-21.138 -17.172,-21.384C-17.035,-22.525 -17.251,-23.594 -17.718,-24.582C-19.073,-27.456 -22.479,-29.652 -25.125,-30.946C-28.892,-32.787 -34.592,-33.072 -38.563,-31.25C-38.563,-31.25 -38.563,-31.251 -38.564,-31.251C-40.093,-34.628 -44.296,-35.135 -47.708,-34.626C-51.324,-34.087 -54.396,-31.936 -56.4,-28.948C-57.683,-30.22 -59.766,-31.306 -62.045,-31.978C-66.859,-33.398 -72.532,-32.958 -73.325,-28.461C-77.138,-28.904 -82.851,-27.962 -84.742,-24.582C-85.102,-23.938 -85.322,-23.205 -85.365,-22.376C-85.418,-22.38 -85.472,-22.382 -85.526,-22.384C-91.8,-22.739 -97.08,-18.265 -97.595,-11.821C-102.666,-10.339 -104.891,-5.447 -103.732,-1.101C-103.351,0.326 -102.609,1.694 -101.475,2.862C-107.412,6.58 -107.552,15.117 -101.742,19.207C-102.794,20.084 -103.875,21.178 -104.681,22.38C-105.992,24.334 -106.558,26.568 -105.053,28.603C-109.94,32.932 -106.008,42.435 -99.803,43.344C-99.792,43.353 -99.791,43.365 -99.779,43.374C-98.578,44.394 -97.065,45.241 -95.414,45.861C-92.258,47.047 -88.589,47.371 -85.526,46.357C-85.107,46.218 -84.701,46.052 -84.308,45.861C-84.002,45.713 -83.707,45.549 -83.42,45.369C-83.139,45.543 -82.856,45.713 -82.565,45.861C-80.026,47.157 -77.152,47.459 -74.342,46.732C-74.312,46.724 -74.295,46.705 -74.267,46.696C-69.957,49.571 -65.248,51.146 -61.1,51.985C-70.642,55.223 -77.44,63.436 -77.44,73.037L-77.44,73.98L-26.715,73.98L-26.715,73.037C-26.715,63.493 -33.433,55.322 -42.886,52.044C-37.541,50.993 -31.516,48.75 -26.496,44.173C-26.484,44.178 -26.479,44.187 -26.467,44.191C-24.161,45.116 -21.724,45.359 -19.283,44.858C-18.154,44.625 -17.044,44.222 -16.029,43.673C-15.792,43.546 -15.44,43.27 -15.083,43.032C-14.759,42.816 -14.431,42.63 -14.178,42.616C-13.809,42.595 -12.831,43.171 -12.488,43.281C-8.347,44.596 -3.816,43.529 -0.506,40.833C-0.364,40.871 -0.209,40.885 -0.033,40.84C8.661,38.638 10.719,27.766 4.114,22.38" style="fill:rgb(47,40,57);fill-rule:nonzero;"/>
        </g>
        <g transform="matrix(1,0,0,1,171.066,116.47)">
            <path d="M0,12.353C-1.901,12.353 -3.608,11.565 -4.795,10.319C-5.841,9.222 -6.484,7.771 -6.484,6.176C-6.484,4.582 -5.841,3.131 -4.795,2.034C-3.983,1.182 -2.928,0.547 -1.731,0.23C-1.179,0.084 -0.601,-0 0,-0C0.6,-0 1.179,0.084 1.731,0.23C4.468,0.955 6.484,3.343 6.484,6.176C6.484,9.582 3.576,12.353 0,12.353M0,-1.885C-4.615,-1.885 -8.369,1.731 -8.369,6.176C-8.369,10.622 -4.615,14.238 0,14.238C4.615,14.238 8.369,10.622 8.369,6.176C8.369,1.731 4.615,-1.885 0,-1.885" style="fill:rgb(47,40,57);fill-rule:nonzero;"/>
        </g>
        <g transform="matrix(1,0,0,1,174.522,122.506)">
            <path d="M0,0.038C-0.011,1.781 -1.556,3.196 -3.456,3.196C-5.362,3.196 -6.913,1.771 -6.913,0.019C-6.913,-1.732 -5.362,-3.157 -3.456,-3.157C-3.097,-3.157 -2.758,-3.092 -2.433,-2.999C-2.326,-3.313 -2.159,-3.596 -1.939,-3.833C-1.681,-4.11 -1.357,-4.319 -0.991,-4.444C-1.732,-4.813 -2.563,-5.042 -3.456,-5.042C-5.57,-5.042 -7.386,-3.862 -8.251,-2.169C-8.591,-1.504 -8.798,-0.768 -8.798,0.019C-8.798,0.807 -8.591,1.543 -8.251,2.208C-7.386,3.901 -5.57,5.08 -3.456,5.08C-0.51,5.08 1.887,2.81 1.887,0.019C1.887,-0.362 1.834,-0.73 1.749,-1.087C1.546,-0.743 1.26,-0.459 0.915,-0.258C0.64,-0.099 0.331,0.003 0,0.038" style="fill:rgb(47,40,57);fill-rule:nonzero;"/>
        </g>
        <g transform="matrix(1,0,0,1,205.297,116.47)">
            <path d="M0,12.353C-1.568,12.353 -3.008,11.82 -4.13,10.934C-5.567,9.8 -6.484,8.088 -6.484,6.176C-6.484,4.265 -5.567,2.553 -4.13,1.419C-3.438,0.873 -2.622,0.466 -1.731,0.23C-1.179,0.084 -0.6,-0 0,-0C0.6,-0 1.179,0.084 1.731,0.23C4.467,0.955 6.484,3.343 6.484,6.176C6.484,9.582 3.575,12.353 0,12.353M0,-1.885C-4.615,-1.885 -8.369,1.731 -8.369,6.176C-8.369,10.622 -4.615,14.238 0,14.238C0.437,14.238 0.862,14.196 1.28,14.133C1.854,14.048 2.409,13.907 2.938,13.715C6.105,12.565 8.369,9.625 8.369,6.176C8.369,1.731 4.615,-1.885 0,-1.885" style="fill:rgb(47,40,57);fill-rule:nonzero;"/>
        </g>
        <g transform="matrix(1,0,0,1,210.491,123.666)">
            <path d="M0,-2.28C-0.199,-1.93 -0.481,-1.639 -0.826,-1.433C-1.099,-1.269 -1.407,-1.164 -1.738,-1.125C-1.748,0.619 -3.293,2.036 -5.194,2.036C-7.101,2.036 -8.652,0.611 -8.652,-1.14C-8.652,-2.892 -7.101,-4.317 -5.194,-4.317C-4.845,-4.317 -4.515,-4.255 -4.197,-4.166C-4.09,-4.48 -3.922,-4.763 -3.701,-4.999C-3.439,-5.278 -3.111,-5.486 -2.741,-5.61C-3.479,-5.975 -4.305,-6.201 -5.194,-6.201C-6.867,-6.201 -8.344,-5.454 -9.324,-4.311C-10.07,-3.44 -10.537,-2.346 -10.537,-1.14C-10.537,0.065 -10.07,1.159 -9.324,2.03C-8.344,3.174 -6.867,3.921 -5.194,3.921C-2.248,3.921 0.148,1.65 0.148,-1.14C0.148,-1.534 0.09,-1.912 0,-2.28" style="fill:rgb(47,40,57);fill-rule:nonzero;"/>
        </g>
        <g transform="matrix(1,0,0,1,166.298,110.848)">
            <path d="M0,1.885L9.736,1.885C10.256,1.885 10.678,1.463 10.678,0.943C10.678,0.422 10.256,0 9.736,0L0,0C-0.521,0 -0.942,0.422 -0.942,0.943C-0.942,1.463 -0.521,1.885 0,1.885" style="fill:rgb(47,40,57);fill-rule:nonzero;"/>
        </g>
        <g transform="matrix(1,0,0,1,200.888,110.848)">
            <path d="M0,1.885L9.735,1.885C10.256,1.885 10.678,1.463 10.678,0.943C10.678,0.422 10.256,0 9.735,0L0,0C-0.521,0 -0.942,0.422 -0.942,0.943C-0.942,1.463 -0.521,1.885 0,1.885" style="fill:rgb(47,40,57);fill-rule:nonzero;"/>
        </g>
        <g transform="matrix(1,0,0,1,192.613,134.355)">
            <path d="M0,-1.885L-6.564,-1.885C-7.085,-1.885 -7.507,-1.463 -7.507,-0.943C-7.507,-0.542 -7.255,-0.205 -6.903,-0.069C-6.797,-0.028 -6.685,0 -6.564,0L0,0C0.094,0 0.18,-0.028 0.265,-0.053C0.654,-0.17 0.942,-0.516 0.942,-0.943C0.942,-1.463 0.521,-1.885 0,-1.885" style="fill:rgb(47,40,57);fill-rule:nonzero;"/>
        </g>
        <g transform="matrix(1,0,0,1,191.949,144.557)">
            <path d="M0,-2.709C-0.271,-2.442 -2.714,-0.178 -5.232,-2.706C-5.599,-3.075 -6.195,-3.076 -6.565,-2.709C-6.934,-2.342 -6.935,-1.746 -6.567,-1.376C-5.417,-0.22 -4.128,0.367 -2.739,0.366C-0.429,0.366 1.262,-1.305 1.333,-1.376C1.699,-1.744 1.697,-2.337 1.331,-2.704C0.966,-3.072 0.37,-3.074 0,-2.709" style="fill:rgb(47,40,57);fill-rule:nonzero;"/>
        </g>
    </g>
</svg>
