<?xml version="1.0" encoding="UTF-8" standalone="no"?>
<!DOCTYPE svg PUBLIC "-//W3C//DTD SVG 1.1//EN" "http://www.w3.org/Graphics/SVG/1.1/DTD/svg11.dtd">
<svg width="100%" height="100%" viewBox="0 0 130 130" version="1.1" xmlns="http://www.w3.org/2000/svg" xmlns:xlink="http://www.w3.org/1999/xlink" xml:space="preserve" xmlns:serif="http://www.serif.com/" style="fill-rule:evenodd;clip-rule:evenodd;stroke-linejoin:round;stroke-miterlimit:2;">
    <g transform="matrix(1,0,0,1,-236.597,-192.721)">
        <g transform="matrix(1,0,0,1,287.249,253.75)">
            <path d="M0,0.038C-0.081,0.046 -0.16,0.062 -0.243,0.062C-1.524,0.062 -2.563,-0.977 -2.563,-2.258C-2.563,-2.519 -2.511,-2.766 -2.432,-3C-2.325,-3.313 -2.159,-3.596 -1.938,-3.833C-2.413,-3.997 -2.92,-4.1 -3.455,-4.1C-5.885,-4.1 -7.854,-2.256 -7.854,0.019C-7.854,2.294 -5.885,4.138 -3.455,4.138C-1.025,4.138 0.945,2.294 0.945,0.019C0.945,-0.076 0.922,-0.165 0.915,-0.259C0.641,-0.099 0.332,0.003 0,0.038" style="fill:rgb(96,60,50);fill-rule:nonzero;"/>
        </g>
        <g transform="matrix(1,0,0,1,322.394,254.061)">
            <path d="M0,-0.584C-0.273,-0.42 -0.581,-0.315 -0.912,-0.275C-1.003,-0.265 -1.092,-0.248 -1.186,-0.248C-2.467,-0.248 -3.506,-1.287 -3.506,-2.568C-3.506,-2.832 -3.452,-3.082 -3.371,-3.317C-3.264,-3.631 -3.097,-3.914 -2.875,-4.15C-3.343,-4.31 -3.842,-4.411 -4.368,-4.411C-6.281,-4.411 -7.892,-3.261 -8.498,-1.665C-8.662,-1.233 -8.769,-0.775 -8.769,-0.291C-8.769,0.193 -8.662,0.65 -8.498,1.082C-7.892,2.678 -6.281,3.827 -4.368,3.827C-1.938,3.827 0.031,1.983 0.031,-0.291C0.031,-0.392 0.008,-0.485 0,-0.584" style="fill:rgb(96,60,50);fill-rule:nonzero;"/>
        </g>
        <g transform="matrix(1,0,0,1,304.557,266.493)">
            <path d="M0,-0.894C-0.341,-0.242 -1.041,0.493 -2.498,0.493C-4.066,0.493 -4.766,-0.281 -5.073,-0.894C-5.109,-0.965 -5.14,-1.035 -5.165,-1.1C-5.169,-1.109 -5.174,-1.119 -5.178,-1.127L0.194,-1.341C0.169,-1.266 0.137,-1.184 0.102,-1.1C0.072,-1.034 0.036,-0.964 0,-0.894M-6.299,-2.025L-6.248,-1.526C-6.23,-1.359 -6.182,-1.165 -6.117,-0.962C-5.785,0.081 -4.779,1.435 -2.498,1.435C-0.365,1.435 0.653,0.149 1.05,-0.948C1.161,-1.254 1.231,-1.548 1.254,-1.792L1.304,-2.329L-6.299,-2.025Z" style="fill:rgb(188,98,86);fill-rule:nonzero;"/>
        </g>
        <g transform="matrix(1,0,0,1,307.293,291.958)">
            <path d="M0,-0.432C-0.246,-0.437 -0.516,-0.446 -0.809,-0.458C-1.099,-0.471 -1.409,-0.488 -1.738,-0.51C-1.86,-0.518 -1.986,-0.529 -2.112,-0.538C-2.134,-0.539 -2.154,-0.541 -2.176,-0.542C-2.48,-0.567 -2.798,-0.597 -3.125,-0.632C-3.434,-0.664 -3.75,-0.702 -4.074,-0.744C-6.228,-1.033 -8.685,-1.575 -10.846,-2.576C-11.117,-2.701 -11.386,-2.832 -11.646,-2.973C-12.082,-3.208 -12.502,-3.465 -12.899,-3.745C-13.073,-3.869 -13.243,-3.995 -13.408,-4.127C-13.55,-4.24 -13.687,-4.357 -13.82,-4.477C-13.912,-4.559 -14,-4.646 -14.089,-4.731C-14.168,-4.808 -14.248,-4.882 -14.324,-4.961C-14.328,-4.9 -14.331,-4.838 -14.334,-4.777C-14.339,-4.662 -14.352,-4.549 -14.352,-4.434L-14.352,-3.466C-14.352,-3.421 -14.345,-3.377 -14.345,-3.332C-14.328,-2.337 -14.127,-1.387 -13.774,-0.51C-13.307,0.655 -12.571,1.683 -11.646,2.505C-11.392,2.73 -11.128,2.945 -10.846,3.137C-9.771,3.872 -8.513,4.352 -7.154,4.488C-6.893,4.514 -6.626,4.529 -6.356,4.529C-6.168,4.529 -5.982,4.513 -5.797,4.5C-5.309,4.465 -4.833,4.386 -4.372,4.267C-2.722,3.84 -1.271,2.906 -0.21,1.63C-0.004,1.381 0.183,1.118 0.358,0.846C0.539,0.567 0.699,0.276 0.844,-0.026C0.908,-0.159 0.974,-0.289 1.03,-0.426C0.88,-0.424 0.695,-0.423 0.482,-0.425C0.335,-0.426 0.173,-0.428 0,-0.432" style="fill:rgb(226,179,132);fill-rule:nonzero;"/>
        </g>
        <g transform="matrix(1,0,0,1,275.649,264.099)">
            <path d="M0,-1.037L0.125,-1.037C0.677,-1.037 0.965,-0.645 1.015,-0.221C1.075,0.289 0.787,0.848 0.125,0.848L0,0.848C-0.654,0.848 -0.943,0.303 -0.893,-0.202C-0.849,-0.634 -0.559,-1.037 0,-1.037M26.41,-10.329L29.692,-1.105L23.128,-0.843C23.04,-1.193 26.41,-10.329 26.41,-10.329M39.802,-0.599C39.945,-0.848 40.19,-1.037 40.566,-1.037L40.69,-1.037C41.059,-1.037 41.302,-0.855 41.446,-0.614C41.779,-0.059 41.536,0.848 40.69,0.848L40.566,0.848C39.728,0.848 39.483,-0.042 39.802,-0.599M46.501,1.902L46.501,2.027C46.501,3.242 44.616,3.24 44.616,2.027L44.616,1.902C44.616,0.688 46.501,0.69 46.501,1.902M45.352,-2.633C46.21,-1.774 44.877,-0.441 44.019,-1.301C43.977,-1.342 43.936,-1.384 43.894,-1.425C43.636,-1.683 43.591,-1.98 43.656,-2.251C43.809,-2.883 44.626,-3.358 45.227,-2.758L45.314,-2.67L45.352,-2.633ZM38.246,-16.124C38.263,-16.135 38.28,-16.144 38.297,-16.154C39.468,-16.894 40.868,-17.328 42.376,-17.328C43.883,-17.328 45.283,-16.894 46.454,-16.154C48.47,-14.881 49.803,-12.695 49.803,-10.209C49.803,-6.276 46.478,-3.09 42.376,-3.09C40.847,-3.09 39.427,-3.533 38.246,-4.293C36.258,-5.57 34.949,-7.742 34.949,-10.209C34.949,-12.675 36.258,-14.847 38.246,-16.124M6.74,0.599C6.167,0.599 5.874,0.176 5.843,-0.267C5.808,-0.764 6.101,-1.286 6.74,-1.286C7.374,-1.286 7.668,-0.775 7.641,-0.285C7.616,0.165 7.321,0.599 6.74,0.599M3.62,0.586C4.835,0.586 4.833,2.471 3.62,2.471C2.405,2.471 2.407,0.586 3.62,0.586M3.869,-0.525C2.655,-0.525 2.657,-2.41 3.869,-2.41C5.084,-2.41 5.082,-0.525 3.869,-0.525M3.35,-15.64C3.577,-15.825 3.815,-15.996 4.066,-16.154C5.237,-16.894 6.638,-17.328 8.145,-17.328C9.651,-17.328 11.052,-16.894 12.224,-16.154C14.239,-14.881 15.571,-12.695 15.571,-10.209C15.571,-6.276 12.246,-3.09 8.145,-3.09C6.315,-3.09 4.644,-3.726 3.35,-4.777C1.741,-6.083 0.718,-8.03 0.718,-10.209C0.718,-12.387 1.741,-14.334 3.35,-15.64M23.818,14.467C23.636,14.25 23.658,13.876 23.918,13.736C24.034,13.527 24.294,13.379 24.572,13.509C25.8,14.081 27.506,14.232 28.649,13.403C28.994,13.153 29.321,13.482 29.322,13.821C29.324,13.861 29.318,13.901 29.307,13.943C29.296,13.986 29.286,14.029 29.263,14.068C29.261,14.07 29.262,14.071 29.261,14.073C29.014,14.482 28.71,14.793 28.384,15.054C28.2,15.202 28.009,15.327 27.808,15.428C27.771,15.511 27.712,15.584 27.615,15.63C27.535,15.667 27.455,15.691 27.375,15.72C26.843,15.918 26.307,15.949 25.744,15.75C25.578,15.692 25.425,15.615 25.275,15.53C25.206,15.503 25.138,15.476 25.069,15.442C24.67,15.25 24.296,14.965 23.957,14.6C23.912,14.551 23.861,14.518 23.818,14.467M29.507,1.294C29.482,1.36 29.455,1.429 29.424,1.5C29.068,2.314 28.255,3.359 26.41,3.359C24.414,3.359 23.626,2.252 23.318,1.5C23.289,1.427 23.263,1.359 23.242,1.294C23.15,1.015 23.128,0.82 23.128,0.82L29.692,0.558C29.692,0.558 29.66,0.875 29.507,1.294M48.53,0.595C48.447,0.636 48.364,0.678 48.281,0.719C47.329,1.195 46.479,-0.003 47.025,-0.669C47.101,-0.76 47.199,-0.843 47.33,-0.908C47.413,-0.95 47.496,-0.991 47.579,-1.033C48.091,-1.289 48.565,-1.055 48.818,-0.686C49.101,-0.274 49.104,0.309 48.53,0.595M60.657,-12.643C60.654,-13.63 60.643,-14.599 60.615,-15.531C60.609,-15.745 60.595,-15.942 60.587,-16.154C60.583,-16.263 60.577,-16.366 60.573,-16.474C60.567,-16.602 60.562,-16.727 60.556,-16.854C60.378,-16.919 60.211,-17.03 60.089,-17.239C60.061,-17.287 60.025,-17.326 59.997,-17.372C59.879,-17.558 59.756,-17.738 59.619,-17.904C58.502,-19.259 56.796,-19.994 55.406,-21.059C54.612,-21.668 53.894,-22.354 53.205,-23.071C52.317,-22.654 50.646,-21.978 48.476,-21.571C47.579,-21.403 46.604,-21.28 45.559,-21.244C43.783,-21.182 41.675,-21.535 39.71,-22.006C39.208,-22.126 38.72,-22.253 38.246,-22.384C35.47,-23.151 33.281,-24.018 33.281,-24.018C33.281,-24.018 31.181,-18.786 21.902,-19.255C21.529,-19.274 21.164,-19.322 20.798,-19.363C18.353,-19.637 16.051,-20.367 14.007,-21.299C13.511,-21.526 13.027,-21.762 12.563,-22.006C8.088,-24.36 5.151,-27.357 5.151,-27.357C5.151,-27.357 4.607,-25.894 3.35,-24.047C2.304,-22.512 0.766,-20.711 -1.38,-19.255C-3.381,-17.897 -5.32,-17.271 -6.897,-16.996C-7.313,-16.924 -7.702,-16.876 -8.062,-16.846C-8.281,-16.745 -8.498,-16.639 -8.725,-16.546C-8.793,-16.518 -8.861,-16.491 -8.93,-16.464C-9.164,-16.372 -9.408,-16.294 -9.648,-16.211C-9.649,-16.192 -9.65,-16.174 -9.651,-16.154C-9.66,-15.936 -9.675,-15.728 -9.682,-15.507C-9.716,-14.478 -9.735,-13.422 -9.735,-12.327C-9.735,-9.167 -9.521,-6.285 -9.129,-3.635C-9.073,-3.525 -9.056,-3.405 -9.081,-3.294C-8.923,-2.274 -8.739,-1.291 -8.526,-0.345C-8.51,-0.271 -8.491,-0.201 -8.475,-0.129C-8.417,0.119 -8.358,0.362 -8.298,0.606C-8.221,0.912 -8.146,1.221 -8.063,1.521C-4.409,14.775 4.904,20.484 16.438,22.237C16.748,22.284 17.06,22.326 17.371,22.367C17.363,22.428 17.351,22.486 17.344,22.548C17.333,22.641 17.33,22.736 17.323,22.831C17.409,22.747 17.749,22.677 18.285,22.618C18.49,22.596 18.729,22.575 18.984,22.557C19.584,22.617 20.188,22.669 20.798,22.711C20.814,22.712 20.831,22.713 20.849,22.714C22.361,22.817 23.9,22.872 25.463,22.872C26.926,22.872 28.367,22.82 29.787,22.724C30.623,22.667 31.453,22.596 32.271,22.503C32.395,22.489 32.518,22.476 32.641,22.461L32.722,23.259L32.734,23.378L32.838,24.395L33.035,26.32C33.18,25.743 33.264,25.145 33.274,24.527C33.274,24.483 33.281,24.439 33.281,24.394L33.281,23.426C33.281,23.339 33.271,23.254 33.268,23.167C33.261,22.959 33.252,22.751 33.229,22.547C33.224,22.492 33.212,22.44 33.204,22.385C33.517,22.344 33.83,22.306 34.139,22.259C45.786,20.487 55.218,14.617 58.941,1.471C59.026,1.168 59.108,0.86 59.188,0.551C59.267,0.244 59.342,-0.066 59.415,-0.381C59.446,-0.519 59.483,-0.65 59.515,-0.79C59.647,-1.395 59.767,-2.018 59.877,-2.652C59.868,-2.655 59.86,-2.655 59.852,-2.658C59.293,-2.807 59.497,-3.627 60.024,-3.571C60.414,-6.095 60.63,-8.836 60.652,-11.813C60.524,-11.895 60.454,-12.017 60.438,-12.151C60.413,-12.348 60.496,-12.553 60.657,-12.643" style="fill:rgb(226,179,132);fill-rule:nonzero;"/>
        </g>
        <g transform="matrix(1,0,0,1,288.194,254.01)">
            <path d="M0,-0.24C0,2.034 -1.971,3.878 -4.4,3.878C-6.83,3.878 -8.8,2.034 -8.8,-0.24C-8.8,-2.515 -6.83,-4.36 -4.4,-4.36C-3.865,-4.36 -3.358,-4.257 -2.884,-4.093C-3.104,-3.856 -3.271,-3.573 -3.377,-3.259C-3.456,-3.025 -3.509,-2.778 -3.509,-2.517C-3.509,-1.236 -2.47,-0.197 -1.188,-0.197C-1.105,-0.197 -1.026,-0.214 -0.945,-0.221C-0.613,-0.257 -0.305,-0.358 -0.03,-0.518C-0.023,-0.425 0,-0.336 0,-0.24M-0.321,-6.065C-1.493,-6.805 -2.894,-7.239 -4.4,-7.239C-5.907,-7.239 -7.308,-6.805 -8.479,-6.065C-8.729,-5.907 -8.968,-5.736 -9.195,-5.551C-10.804,-4.245 -11.827,-2.298 -11.827,-0.12C-11.827,2.059 -10.804,4.006 -9.195,5.312C-7.901,6.363 -6.229,6.999 -4.4,6.999C-0.299,6.999 3.026,3.813 3.026,-0.12C3.026,-2.606 1.694,-4.792 -0.321,-6.065" style="fill:rgb(253,250,201);fill-rule:nonzero;"/>
        </g>
        <g transform="matrix(1,0,0,1,322.425,254.01)">
            <path d="M0,-0.24C0,2.034 -1.97,3.878 -4.399,3.878C-6.312,3.878 -7.923,2.729 -8.529,1.133C-8.693,0.701 -8.8,0.244 -8.8,-0.24C-8.8,-0.724 -8.693,-1.182 -8.529,-1.614C-7.923,-3.21 -6.312,-4.36 -4.399,-4.36C-3.873,-4.36 -3.374,-4.259 -2.906,-4.099C-3.128,-3.863 -3.295,-3.58 -3.402,-3.266C-3.483,-3.031 -3.537,-2.781 -3.537,-2.517C-3.537,-1.236 -2.498,-0.197 -1.217,-0.197C-1.123,-0.197 -1.034,-0.214 -0.943,-0.224C-0.612,-0.264 -0.305,-0.369 -0.031,-0.533C-0.023,-0.434 0,-0.341 0,-0.24M-0.321,-6.065C-1.492,-6.805 -2.893,-7.239 -4.399,-7.239C-5.907,-7.239 -7.308,-6.805 -8.479,-6.065C-8.495,-6.055 -8.513,-6.046 -8.529,-6.035C-10.518,-4.758 -11.826,-2.586 -11.826,-0.12C-11.826,2.347 -10.518,4.519 -8.529,5.796C-7.349,6.556 -5.929,6.999 -4.399,6.999C-0.298,6.999 3.027,3.813 3.027,-0.12C3.027,-2.606 1.694,-4.792 -0.321,-6.065" style="fill:rgb(253,250,201);fill-rule:nonzero;"/>
        </g>
        <g transform="matrix(1,0,0,1,298.777,253.77)">
            <path d="M0,9.486L6.564,9.223L3.282,0C3.282,0 -0.088,9.135 0,9.486" style="fill:rgb(253,250,201);fill-rule:nonzero;"/>
        </g>
        <g transform="matrix(1,0,0,1,323.582,294.639)">
            <path d="M0,5.321C-0.134,5.029 -0.274,4.74 -0.422,4.455C-1.453,2.456 -2.816,0.619 -4.454,-0.997C-5.249,-1.783 -6.107,-2.516 -7.023,-3.191C-9.01,-4.654 -11.264,-5.839 -13.709,-6.69C-14.021,-6.798 -14.334,-6.902 -14.651,-6.999L-14.651,-6.147C-14.651,-6.102 -14.658,-6.058 -14.658,-6.013C-14.669,-5.396 -14.753,-4.797 -14.897,-4.22L-15.095,-6.146L-15.198,-7.162L-15.211,-7.282L-15.292,-8.079C-15.415,-8.065 -15.538,-8.051 -15.661,-8.037C-16.479,-7.945 -17.31,-7.873 -18.146,-7.817C-19.565,-7.72 -21.007,-7.668 -22.47,-7.668C-24.032,-7.668 -25.571,-7.723 -27.084,-7.826C-27.102,-7.827 -27.118,-7.828 -27.135,-7.829C-27.744,-7.871 -28.349,-7.923 -28.948,-7.984C-29.204,-7.965 -29.442,-7.945 -29.647,-7.922C-30.184,-7.864 -30.523,-7.793 -30.609,-7.709C-30.624,-7.696 -30.641,-7.683 -30.641,-7.668C-30.632,-7.659 -30.622,-7.651 -30.613,-7.642C-30.537,-7.563 -30.457,-7.489 -30.378,-7.411C-30.289,-7.326 -30.201,-7.24 -30.109,-7.158C-29.976,-7.037 -29.839,-6.92 -29.697,-6.808C-29.532,-6.676 -29.362,-6.549 -29.188,-6.426C-28.791,-6.146 -28.371,-5.889 -27.936,-5.654C-27.675,-5.513 -27.406,-5.381 -27.135,-5.256C-24.974,-4.255 -22.517,-3.713 -20.363,-3.425C-20.039,-3.382 -19.723,-3.345 -19.414,-3.313C-19.087,-3.278 -18.77,-3.247 -18.465,-3.223C-18.443,-3.222 -18.423,-3.22 -18.401,-3.219C-18.275,-3.209 -18.149,-3.199 -18.027,-3.191C-17.698,-3.168 -17.388,-3.152 -17.098,-3.139C-16.805,-3.126 -16.535,-3.117 -16.289,-3.113C-16.116,-3.109 -15.954,-3.107 -15.807,-3.106C-15.594,-3.104 -15.409,-3.105 -15.259,-3.107C-15.315,-2.97 -15.381,-2.839 -15.445,-2.706C-15.59,-2.405 -15.75,-2.114 -15.931,-1.834C-16.106,-1.563 -16.293,-1.299 -16.499,-1.051C-17.56,0.225 -19.011,1.16 -20.661,1.587C-21.122,1.706 -21.598,1.785 -22.086,1.819C-22.271,1.833 -22.457,1.848 -22.646,1.848C-22.915,1.848 -23.182,1.834 -23.443,1.807C-24.802,1.672 -26.061,1.191 -27.135,0.457C-27.417,0.264 -27.681,0.05 -27.936,-0.176C-28.86,-0.997 -29.596,-2.026 -30.063,-3.191C-30.416,-4.068 -30.617,-5.018 -30.634,-6.013C-30.634,-6.058 -30.641,-6.102 -30.641,-6.147L-30.641,-6.999C-30.957,-6.902 -31.271,-6.799 -31.582,-6.691C-34.027,-5.839 -36.282,-4.654 -38.269,-3.191C-39.544,-2.25 -40.707,-1.197 -41.742,-0.048C-41.957,0.19 -42.167,0.431 -42.371,0.677C-42.573,0.922 -42.771,1.169 -42.961,1.421C-45.553,4.848 -47.066,8.967 -47.066,13.4L1.774,13.4C1.774,10.863 1.275,8.43 0.366,6.169C0.251,5.883 0.128,5.601 0,5.321" style="fill:rgb(188,98,86);fill-rule:nonzero;"/>
        </g>
        <g transform="matrix(1,0,0,1,338.465,256.053)">
            <path d="M0,0.781C0.154,0.088 0.424,-0.739 0.335,-1.458C0.184,-2.691 -0.43,-3.093 -1.256,-3.414C-1.509,-3.513 -1.78,-3.604 -2.066,-3.708C-2.105,-3.723 -2.132,-3.747 -2.163,-3.768C-2.186,-0.79 -2.401,1.951 -2.791,4.474C-2.765,4.477 -2.741,4.471 -2.713,4.479C-2.509,4.533 -2.327,4.549 -2.155,4.546C-0.521,4.518 -0.289,2.087 0,0.781" style="fill:rgb(188,98,86);fill-rule:nonzero;"/>
        </g>
        <g transform="matrix(1,0,0,1,340.861,262.898)">
            <path d="M0,-13.386C-0.315,-13.438 -0.573,-13.631 -0.64,-13.973C-1.178,-14.396 -1.793,-14.728 -2.463,-14.953C-2.778,-15.059 -3.103,-15.147 -3.44,-15.201C-3.517,-15.214 -3.591,-15.217 -3.666,-15.226C-3.993,-15.266 -4.318,-15.285 -4.639,-15.273C-4.635,-15.165 -4.629,-15.062 -4.625,-14.953C-4.617,-14.741 -4.603,-14.545 -4.597,-14.33C-4.569,-13.398 -4.558,-12.429 -4.555,-11.443C-4.463,-11.494 -4.348,-11.511 -4.212,-11.462C-4.016,-11.39 -3.813,-11.32 -3.609,-11.246C-3.357,-11.157 -3.106,-11.06 -2.863,-10.95C-2.217,-10.657 -1.641,-10.263 -1.355,-9.575C-0.82,-8.285 -1.261,-6.754 -1.572,-5.467C-2.091,-3.319 -2.33,-1.022 -4.758,-1.339C-4.938,-1.363 -5.129,-1.398 -5.335,-1.451C-5.445,-0.818 -5.564,-0.195 -5.697,0.411C-5.729,0.551 -5.766,0.681 -5.797,0.82C-5.87,1.135 -5.945,1.445 -6.024,1.752C-5.867,1.774 -5.709,1.794 -5.553,1.803C-3.947,1.899 -2.421,1.35 -1.249,0.367C-1.233,0.354 -1.217,0.343 -1.201,0.329C-0.887,0.059 -0.598,-0.24 -0.342,-0.568C0.269,-1.353 0.697,-2.296 0.865,-3.343L1.64,-8.183C1.954,-10.146 1.282,-12.045 0,-13.386" style="fill:rgb(188,98,86);fill-rule:nonzero;"/>
        </g>
        <g transform="matrix(1,0,0,1,275.774,264.947)">
            <path d="M0,-1.885L-0.125,-1.885C-0.684,-1.885 -0.974,-1.482 -1.018,-1.05C-1.068,-0.545 -0.779,0 -0.125,0L0,0C0.662,0 0.95,-0.559 0.89,-1.069C0.84,-1.493 0.552,-1.885 0,-1.885" style="fill:rgb(188,98,86);fill-rule:nonzero;"/>
        </g>
        <g transform="matrix(1,0,0,1,279.269,264.684)">
            <path d="M0,1.885C1.213,1.885 1.215,0 0,0C-1.213,0 -1.215,1.885 0,1.885" style="fill:rgb(188,98,86);fill-rule:nonzero;"/>
        </g>
        <g transform="matrix(1,0,0,1,279.519,263.573)">
            <path d="M0,-1.885C-1.212,-1.885 -1.214,0 0,0C1.213,0 1.215,-1.885 0,-1.885" style="fill:rgb(188,98,86);fill-rule:nonzero;"/>
        </g>
        <g transform="matrix(-0.0100106,-0.99995,-0.99995,0.0100106,282.436,262.851)">
            <path d="M-0.971,-0.844C-0.481,-0.876 0.033,-0.587 0.039,0.046C0.046,0.686 -0.473,0.984 -0.971,0.954C-1.414,0.928 -1.84,0.639 -1.845,0.065C-1.851,-0.516 -1.42,-0.815 -0.971,-0.844" style="fill:rgb(188,98,86);fill-rule:nonzero;"/>
        </g>
        <g transform="matrix(1,0,0,1,316.34,263.061)">
            <path d="M0,1.885C0.846,1.885 1.089,0.978 0.756,0.423C0.611,0.182 0.368,0 0,0L-0.124,0C-0.5,0 -0.745,0.19 -0.889,0.439C-1.207,0.995 -0.963,1.885 -0.124,1.885L0,1.885Z" style="fill:rgb(188,98,86);fill-rule:nonzero;"/>
        </g>
        <g transform="matrix(1,0,0,1,320.964,262.97)">
            <path d="M0.037,-1.504L-0.088,-1.629C-0.688,-2.229 -1.506,-1.754 -1.658,-1.122C-1.724,-0.852 -1.679,-0.555 -1.421,-0.296C-1.379,-0.255 -1.338,-0.213 -1.296,-0.172C-0.437,0.688 0.896,-0.645 0.037,-1.504Z" style="fill:rgb(188,98,86);fill-rule:nonzero;"/>
        </g>
        <g transform="matrix(0,1,1,0,321.271,265.121)">
            <path d="M0.88,-1.005L1.005,-1.005C2.218,-1.005 2.22,0.88 1.005,0.88L0.88,0.88C-0.333,0.88 -0.335,-1.005 0.88,-1.005" style="fill:rgb(188,98,86);fill-rule:nonzero;"/>
        </g>
        <g transform="matrix(1,0,0,1,323.931,263.286)">
            <path d="M0,1.531C0.083,1.49 0.166,1.448 0.249,1.407C0.822,1.121 0.819,0.538 0.537,0.126C0.284,-0.242 -0.19,-0.477 -0.702,-0.221C-0.785,-0.179 -0.868,-0.138 -0.951,-0.096C-1.082,-0.031 -1.181,0.052 -1.256,0.143C-1.802,0.809 -0.952,2.008 0,1.531" style="fill:rgb(188,98,86);fill-rule:nonzero;"/>
        </g>
        <g transform="matrix(1,0,0,1,267.123,248.846)">
            <path d="M0,14.908C-0.213,13.962 -0.396,12.978 -0.555,11.959C-0.587,12.099 -0.683,12.22 -0.876,12.253C-1.03,12.278 -1.173,12.29 -1.312,12.299C-3.864,12.451 -3.953,9.721 -4.263,7.521C-4.486,5.933 -4.59,4.034 -3.528,3.101C-3.194,2.807 -2.747,2.608 -2.147,2.548C-2,2.533 -1.847,2.523 -1.681,2.525C-1.334,2.53 -1.191,2.839 -1.242,3.101C-1.248,3.135 -1.254,3.166 -1.266,3.197C-1.321,3.366 -1.463,3.503 -1.694,3.503C-1.742,3.503 -1.78,3.487 -1.82,3.476C-1.931,3.481 -2.039,3.486 -2.136,3.504C-4.041,3.835 -3.478,6.51 -3.267,7.862C-3.098,8.941 -3.08,11.328 -1.487,11.37C-1.375,11.373 -1.256,11.365 -1.127,11.344C-0.878,11.302 -0.694,11.439 -0.603,11.618C-0.994,8.968 -1.209,6.086 -1.209,2.926C-1.209,1.831 -1.189,0.774 -1.155,-0.254C-1.148,-0.476 -1.134,-0.683 -1.125,-0.902C-1.124,-0.921 -1.123,-0.939 -1.122,-0.958C-1.176,-0.94 -1.228,-0.92 -1.282,-0.902C-1.437,-0.85 -1.583,-0.788 -1.74,-0.74C-1.87,-0.7 -1.989,-0.696 -2.101,-0.706C-2.279,-0.721 -2.427,-0.795 -2.55,-0.902C-2.564,-0.914 -2.577,-0.928 -2.591,-0.942C-2.633,-0.929 -2.674,-0.916 -2.715,-0.902C-3.4,-0.671 -4.027,-0.328 -4.573,0.109C-4.437,0.815 -5.025,1.269 -5.572,1.278C-5.615,1.279 -5.655,1.281 -5.697,1.276C-6.637,2.554 -7.088,4.189 -6.818,5.869L-6.043,10.709C-5.956,11.256 -5.791,11.771 -5.572,12.254C-5.195,13.087 -4.644,13.813 -3.965,14.39C-3.618,14.686 -3.239,14.939 -2.836,15.152C-2.729,15.209 -2.624,15.265 -2.514,15.315C-1.88,15.604 -1.191,15.782 -0.479,15.84C-0.245,15.859 -0.009,15.866 0.229,15.858C0.168,15.615 0.109,15.372 0.052,15.124C0.035,15.052 0.017,14.981 0,14.908" style="fill:rgb(188,98,86);fill-rule:nonzero;"/>
        </g>
        <g transform="matrix(1,0,0,1,305.156,266.721)">
            <path d="M0,-1.328C0.153,-1.747 0.186,-2.064 0.186,-2.064L-6.379,-1.802C-6.379,-1.802 -6.356,-1.607 -6.265,-1.328C-6.244,-1.264 -6.218,-1.195 -6.188,-1.122C-5.881,-0.37 -5.093,0.736 -3.097,0.736C-1.252,0.736 -0.438,-0.308 -0.083,-1.122C-0.052,-1.193 -0.024,-1.262 0,-1.328" style="fill:rgb(188,98,86);fill-rule:nonzero;"/>
        </g>
        <g transform="matrix(1,0,0,1,304.299,279.835)">
            <path d="M0,-2.333C-1.144,-1.505 -2.85,-1.655 -4.077,-2.228C-4.355,-2.357 -4.615,-2.209 -4.731,-2C-4.991,-1.86 -5.014,-1.486 -4.831,-1.27C-4.788,-1.219 -4.737,-1.186 -4.692,-1.137C-4.354,-0.771 -3.979,-0.486 -3.58,-0.294C-3.512,-0.261 -3.443,-0.233 -3.374,-0.206C-3.225,-0.121 -3.071,-0.045 -2.905,0.014C-2.343,0.213 -1.807,0.182 -1.274,-0.017C-1.194,-0.046 -1.114,-0.069 -1.034,-0.106C-0.937,-0.152 -0.878,-0.226 -0.842,-0.309C-0.641,-0.409 -0.449,-0.534 -0.266,-0.683C0.061,-0.943 0.364,-1.255 0.611,-1.663C0.612,-1.665 0.611,-1.666 0.613,-1.668C0.638,-1.71 0.646,-1.752 0.657,-1.793C0.669,-1.835 0.675,-1.875 0.673,-1.915C0.673,-1.966 0.652,-2.013 0.639,-2.061C0.562,-2.336 0.294,-2.546 0,-2.333" style="fill:rgb(188,98,86);fill-rule:nonzero;"/>
        </g>
        <g transform="matrix(1,0,0,1,323.735,239.382)">
            <path d="M0,0.091C-1.526,0.395 -3.067,0.548 -4.607,0.571C-6.362,0.598 -8.112,0.436 -9.84,0.13C-12.062,-0.264 -14.236,-0.918 -16.321,-1.801C-16.453,-1.182 -16.728,-0.578 -17.202,-0.008C-18.958,2.097 -22.073,1.757 -24.466,1.25C-25.415,1.049 -26.356,0.816 -27.288,0.554C-27.558,0.479 -27.82,0.384 -28.089,0.304C-33.777,-1.402 -39.093,-4.194 -43.833,-7.779C-44.112,-6.974 -44.411,-6.174 -44.736,-5.383C-46.337,-1.497 -48.528,2.142 -51.569,4.862C-52.743,5.911 -54.038,6.829 -55.48,7.563C-55.697,7.673 -55.925,7.769 -56.147,7.87C-55.788,7.841 -55.399,7.793 -54.983,7.72C-53.406,7.445 -51.467,6.819 -49.466,5.462C-47.32,4.006 -45.782,2.205 -44.736,0.669C-43.479,-1.178 -42.935,-2.641 -42.935,-2.641C-42.935,-2.641 -39.998,0.357 -35.523,2.71C-35.059,2.955 -34.575,3.191 -34.079,3.417C-32.035,4.35 -29.733,5.08 -27.288,5.353C-26.922,5.394 -26.557,5.443 -26.184,5.462C-16.905,5.93 -14.805,0.698 -14.805,0.698C-14.805,0.698 -12.616,1.566 -9.84,2.332C-9.366,2.463 -8.878,2.59 -8.376,2.71C-6.411,3.182 -4.303,3.534 -2.527,3.473C-1.482,3.437 -0.507,3.313 0.39,3.145C2.56,2.738 4.231,2.062 5.119,1.646C4.321,0.815 3.569,-0.061 2.833,-0.951C1.993,-0.419 0.979,-0.104 0,0.091" style="fill:rgb(188,98,86);fill-rule:nonzero;"/>
        </g>
        <g transform="matrix(1,0,0,1,323.276,269.801)">
            <path d="M0,23.614C0.846,22.317 1.2,20.838 0.922,19.302C0.707,18.115 2.523,17.61 2.739,18.802C3.107,20.829 2.76,22.83 1.628,24.565C0.967,25.579 -0.664,24.633 0,23.614M16.061,1.189C16.485,4.206 16.877,7.226 17.232,10.251C17.374,11.456 15.487,11.441 15.348,10.251C15.013,7.393 14.646,4.54 14.243,1.691C14.076,0.503 15.893,-0.006 16.061,1.189M17.116,15.743C15.901,15.743 15.903,13.859 17.116,13.859C18.331,13.859 18.328,15.743 17.116,15.743M17.367,-6.194C17.329,-6.422 17.308,-6.545 17.308,-6.545L16.383,-6.536L16.336,-6.536C15.164,-5.553 13.638,-5.004 12.032,-5.1C11.876,-5.11 11.718,-5.129 11.561,-5.152C11.481,-4.842 11.399,-4.534 11.314,-4.232C7.591,8.915 -1.841,14.785 -13.488,16.556C-13.797,16.603 -14.11,16.641 -14.423,16.682C-14.415,16.737 -14.403,16.79 -14.397,16.844C-14.375,17.049 -14.366,17.257 -14.359,17.465C-14.356,17.552 -14.346,17.636 -14.346,17.723L-14.346,17.839C-14.028,17.936 -13.715,18.04 -13.403,18.148C-10.958,18.999 -8.704,20.184 -6.718,21.647C-5.802,22.322 -4.943,23.055 -4.148,23.841C-2.511,25.457 -1.147,27.294 -0.116,29.293C0.031,29.578 0.172,29.867 0.306,30.159C0.595,30.026 0.866,29.87 1.124,29.696C5.485,26.736 5.482,18.208 5.482,18.208C5.482,18.208 7.27,26.669 12.35,27.567C17.43,28.465 15.705,20.453 16.332,20.532C16.959,20.612 16.331,23.105 19.472,23.665C22.415,24.189 17.942,-2.79 17.367,-6.194" style="fill:rgb(209,87,25);fill-rule:nonzero;"/>
        </g>
        <g transform="matrix(1,0,0,1,269.924,272.552)">
            <path d="M0,14.211C-2.047,12.392 -3.197,9.907 -3.35,7.182C-3.417,5.968 -1.532,5.976 -1.465,7.182C-1.339,9.433 -0.345,11.388 1.333,12.878C2.242,13.687 0.904,15.015 0,14.211M-2.338,-6.933C-2.42,-7.232 -2.495,-7.541 -2.572,-7.848C-2.81,-7.84 -3.046,-7.847 -3.279,-7.866C-3.992,-7.924 -4.681,-8.101 -5.314,-8.391C-5.425,-8.44 -5.53,-8.497 -5.637,-8.554L-6.248,-8.548C-6.248,-8.548 -6.27,-8.284 -6.297,-7.832C-6.533,-4.026 -7.31,14.008 -0.992,16.357C6.075,18.982 8.808,12.7 8.808,12.7C8.808,12.7 7.919,17.827 10.713,21.995C10.888,22.257 11.082,22.513 11.287,22.765C11.491,22.519 11.701,22.277 11.916,22.039C12.951,20.891 14.114,19.837 15.39,18.897C17.376,17.434 19.631,16.248 22.076,15.397C22.387,15.288 22.701,15.186 23.018,15.088L23.018,14.973C23.018,14.857 23.03,14.744 23.035,14.63C23.038,14.568 23.041,14.507 23.045,14.445C23.036,14.437 23.026,14.428 23.018,14.419C23.018,14.404 23.034,14.392 23.049,14.378C23.056,14.283 23.059,14.188 23.069,14.095C23.076,14.033 23.089,13.975 23.097,13.914C22.785,13.873 22.474,13.831 22.164,13.784C10.63,12.03 1.316,6.321 -2.338,-6.933" style="fill:rgb(209,87,25);fill-rule:nonzero;"/>
        </g>
        <g transform="matrix(1,0,0,1,266.226,242.667)">
            <path d="M0,-23.776C0.791,-24.699 2.118,-23.36 1.333,-22.443C-0.429,-20.388 -1.434,-17.905 -1.607,-15.206C-1.686,-14 -3.571,-13.995 -3.492,-15.206C-3.284,-18.429 -2.101,-21.325 0,-23.776M-1.974,4.338C-1.92,4.027 -1.731,3.74 -1.344,3.621C-1.274,3.6 -1.212,3.573 -1.144,3.551C-1.017,3.51 -0.895,3.462 -0.77,3.418C-0.554,3.343 -0.335,3.273 -0.125,3.19C0.185,3.067 0.481,2.929 0.778,2.789C2.777,1.848 4.481,0.535 5.94,-1.03C8.799,-4.098 10.722,-8.116 12.067,-12.158C12.069,-12.163 12.073,-12.166 12.074,-12.171C12.121,-12.304 12.187,-12.417 12.267,-12.506C12.268,-12.543 12.283,-12.576 12.289,-12.611C12.26,-13.141 12.243,-13.671 12.22,-14.201C12.19,-14.825 12.158,-15.45 12.137,-16.074C12.065,-18.123 12.038,-20.171 12.044,-22.22C12.045,-22.71 12.049,-23.201 12.055,-23.691C12.063,-24.375 12.069,-25.059 12.086,-25.743C12.11,-26.731 12.144,-27.718 12.186,-28.706C9.996,-29.463 7.892,-29.508 5.94,-29.047C0.896,-27.854 -3.098,-23.196 -4.667,-18.037C-5.05,-16.776 -5.313,-15.495 -5.496,-14.201C-6.404,-7.784 -5.099,-1.03 -3.875,5.264C-3.845,5.42 -3.814,5.576 -3.784,5.732L-1.746,5.185C-1.941,4.957 -2.026,4.641 -1.974,4.338" style="fill:rgb(209,87,25);fill-rule:nonzero;"/>
        </g>
        <g transform="matrix(1,0,0,1,305.516,244.656)">
            <path d="M0,-33.147C6.637,-34.391 13.337,-33.922 19.716,-31.691C20.855,-31.293 20.361,-29.473 19.215,-29.874C13.161,-31.991 6.809,-32.512 0.501,-31.33C-0.687,-31.107 -1.19,-32.924 0,-33.147M23.667,-30.397C23.701,-30.379 23.735,-30.361 23.77,-30.343C24.841,-29.769 23.888,-28.143 22.818,-28.715C22.784,-28.733 22.75,-28.752 22.716,-28.771C21.646,-29.344 22.598,-30.97 23.667,-30.397M-0.033,-13.085C0.756,-11.921 1.555,-10.532 1.862,-9.123C3.953,-8.153 6.139,-7.455 8.38,-7.038C10.097,-6.719 11.846,-6.566 13.612,-6.599C13.713,-6.601 13.813,-6.596 13.913,-6.599C15.672,-6.652 18.296,-6.682 19.867,-7.679C20.218,-7.901 20.474,-8.15 20.659,-8.417C21.887,-10.18 19.875,-12.783 19.045,-14.439C18.502,-15.522 20.129,-16.475 20.672,-15.391C21.726,-13.291 23.505,-11.033 22.819,-8.521C22.721,-8.16 22.564,-7.849 22.386,-7.559C24.001,-5.611 25.651,-3.722 27.797,-2.334C28.427,-1.926 29.046,-1.532 29.627,-1.102C29.935,-0.875 30.23,-0.638 30.51,-0.382C30.919,-0.007 31.288,0.414 31.613,0.894C31.693,1.012 31.776,1.126 31.85,1.252C32.029,1.558 32.004,1.849 31.883,2.09C31.875,2.105 31.866,2.118 31.858,2.132L34.724,3.543C34.738,3.412 34.748,3.281 34.762,3.15C35.391,-2.971 35.073,-9.139 33.652,-15.139C33.569,-15.487 33.484,-15.838 33.396,-16.19C32,-21.812 29.906,-27.753 24.803,-30.952C21.448,-33.054 17.564,-34.105 13.612,-34.619C11.266,-34.923 8.894,-35.039 6.596,-35.071C3.4,-35.116 0.197,-34.997 -2.993,-34.831C-5.378,-34.707 -7.711,-34.473 -9.869,-33.608C-10.607,-33.312 -11.326,-32.944 -12.02,-32.479C-12.836,-31.93 -13.589,-32.886 -13.328,-33.63C-13.352,-33.869 -13.28,-34.121 -13.059,-34.342C-12.721,-34.679 -11.898,-35.224 -11.714,-35.684C-11.309,-36.69 -12.156,-36.276 -12.993,-36.189C-14.425,-36.04 -15.848,-35.739 -17.225,-35.32C-20.154,-34.43 -22.832,-32.963 -25.209,-31.045C-25.249,-30.141 -25.274,-29.238 -25.299,-28.334C-25.317,-27.674 -25.335,-27.014 -25.345,-26.355C-25.352,-25.957 -25.351,-25.56 -25.354,-25.162C-25.374,-22.843 -25.354,-20.525 -25.275,-18.207C-25.252,-17.535 -25.217,-16.862 -25.187,-16.19C-25.168,-15.803 -25.155,-15.416 -25.135,-15.028C-24.761,-14.733 -24.381,-14.444 -23.999,-14.16C-20.058,-11.237 -15.699,-8.904 -11.048,-7.317C-10.662,-7.185 -10.268,-7.051 -9.869,-6.918C-9.604,-6.83 -9.338,-6.743 -9.068,-6.657C-7.326,-6.1 -5.506,-5.616 -3.74,-5.535C-1.865,-5.448 -0.102,-5.946 0.118,-8.167C0.256,-9.554 -0.919,-11.04 -1.66,-12.134C-2.343,-13.142 -0.709,-14.084 -0.033,-13.085" style="fill:rgb(209,87,25);fill-rule:nonzero;"/>
        </g>
        <g transform="matrix(-0.0188361,-0.999823,-0.999823,0.0188361,315.402,202.839)">
            <path d="M-10.309,-9.637C-7.958,-3.301 -7.364,3.389 -8.482,10.048C-8.684,11.242 -10.509,10.773 -10.309,9.582C-9.246,3.253 -9.886,-3.089 -12.116,-9.102C-12.54,-10.241 -10.729,-10.769 -10.309,-9.637" style="fill:rgb(237,133,47);fill-rule:nonzero;"/>
        </g>
        <g transform="matrix(-0.830584,-0.556893,-0.556893,0.830584,327.883,215.46)">
            <path d="M-0.526,-1.733C-0.488,-1.729 -0.449,-1.726 -0.41,-1.721C0.797,-1.601 0.682,0.28 -0.526,0.16C-0.565,0.157 -0.604,0.152 -0.642,0.148C-1.849,0.029 -1.735,-1.853 -0.526,-1.733" style="fill:rgb(237,133,47);fill-rule:nonzero;"/>
        </g>
        <g transform="matrix(-0.98287,-0.184302,-0.184302,0.98287,263.969,227.539)">
            <path d="M-0.624,-8.916C0.989,-6.12 1.618,-3.055 1.228,0.151C1.083,1.356 -0.769,1.003 -0.624,-0.197C-0.297,-2.881 -0.827,-5.507 -2.18,-7.852C-2.783,-8.898 -1.232,-9.969 -0.624,-8.916" style="fill:rgb(237,133,47);fill-rule:nonzero;"/>
        </g>
        <g transform="matrix(1,0,0,1,286.872,302.012)">
            <path d="M0,-9.36C-1.46,-8.478 -2.734,-7.399 -3.83,-6.167C-4.041,-5.929 -4.246,-5.688 -4.442,-5.439C-4.637,-5.193 -4.832,-4.949 -5.013,-4.692C-5.808,-3.56 -6.467,-2.322 -6.979,-0.993C-7.417,0.14 -5.596,0.63 -5.163,-0.492C-4.734,-1.6 -4.176,-2.634 -3.508,-3.585C-3.326,-3.844 -3.132,-4.092 -2.934,-4.339C-2.731,-4.589 -2.521,-4.831 -2.303,-5.068C-1.356,-6.094 -0.27,-6.995 0.951,-7.733C1.988,-8.359 1.042,-9.99 0,-9.36" style="fill:rgb(219,118,107);fill-rule:nonzero;"/>
        </g>
        <g transform="matrix(-0.978963,0.204038,0.204038,0.978963,270.871,286.104)">
            <path d="M1.061,-6.728C0.881,-7.923 2.725,-8.315 2.907,-7.113C3.313,-4.413 2.694,-1.747 1.061,0.452C0.34,1.423 -1.24,0.396 -0.516,-0.581C0.823,-2.382 1.397,-4.499 1.061,-6.728" style="fill:rgb(237,133,47);fill-rule:nonzero;"/>
        </g>
        <g transform="matrix(0.944099,-0.329663,-0.329663,-0.944099,341.917,279.302)">
            <path d="M-1.576,-0.244C-0.915,2.728 -0.289,5.71 0.305,8.698C0.54,9.882 -1.342,10 -1.576,8.823C-2.136,6.001 -2.73,3.185 -3.356,0.378C-3.616,-0.792 -1.839,-1.428 -1.576,-0.244" style="fill:rgb(237,133,47);fill-rule:nonzero;"/>
        </g>
        <g transform="matrix(1,0,0,1,340.393,285.544)">
            <path d="M0,-1.884C-1.213,-1.884 -1.215,0 0,0C1.212,0 1.215,-1.884 0,-1.884" style="fill:rgb(237,133,47);fill-rule:nonzero;"/>
        </g>
        <g transform="matrix(-0.991122,0.132953,0.132953,0.991122,325.1,293.627)">
            <path d="M0.293,-4.604C0.221,-3.045 0.769,-1.625 1.78,-0.452C2.573,0.468 1.082,1.623 0.293,0.707C-1.06,-0.863 -1.671,-2.8 -1.575,-4.859C-1.52,-6.068 0.348,-5.809 0.293,-4.604" style="fill:rgb(237,133,47);fill-rule:nonzero;"/>
        </g>
        <g transform="matrix(1,0,0,1,342.575,222.652)">
            <path d="M0,69.813C-1.283,69.485 -1.49,68.763 -1.689,68.064C-1.819,67.61 -2.038,66.85 -2.848,66.747C-3.119,66.712 -3.438,66.811 -3.641,66.988C-4.07,67.364 -4.074,67.895 -4.082,68.953C-4.093,70.248 -4.111,72.658 -5.13,73.505C-5.514,73.825 -6.057,73.916 -6.785,73.789C-11.176,73.012 -12.878,65.24 -12.895,65.162C-12.996,64.69 -13.439,64.371 -13.915,64.419C-14.395,64.47 -14.759,64.875 -14.759,65.357C-14.759,65.429 -14.8,72.588 -18.112,75.606C-18.269,75.749 -18.44,75.853 -18.605,75.972C-21.351,70.695 -26.323,66.517 -32.448,64.394C-23.336,62.602 -12.234,57.352 -7.553,42.952C-7.333,42.972 -7.112,43.003 -6.896,43.003C-5.38,43.003 -3.944,42.511 -2.767,41.662C-0.66,54.086 0.874,67.461 0,69.813M-18.186,84.445L-65.093,84.445C-64.898,80.649 -63.532,77.12 -61.307,74.125C-61.118,73.872 -60.926,73.622 -60.726,73.376C-60.527,73.133 -60.323,72.895 -60.113,72.661C-58.811,71.201 -57.287,69.902 -55.591,68.796C-54.045,67.789 -52.356,66.94 -50.553,66.287C-50.509,67.163 -50.342,68.004 -50.063,68.796C-49.462,70.503 -48.358,71.971 -46.929,73.027C-45.927,73.767 -44.77,74.307 -43.511,74.577C-43.055,74.674 -42.584,74.729 -42.105,74.753C-41.95,74.762 -41.796,74.777 -41.639,74.777C-41.313,74.777 -40.991,74.757 -40.675,74.723C-38.343,74.471 -36.279,73.318 -34.835,71.621C-34.628,71.377 -34.43,71.125 -34.249,70.859C-34.065,70.589 -33.898,70.308 -33.744,70.018C-33.537,69.627 -33.363,69.218 -33.215,68.796C-32.937,68.004 -32.769,67.163 -32.725,66.287C-30.921,66.94 -29.233,67.789 -27.687,68.796C-26.11,69.825 -24.687,71.021 -23.447,72.357C-22.207,73.694 -21.148,75.166 -20.315,76.749C-20.164,77.038 -20.02,77.331 -19.882,77.627C-19.751,77.909 -19.63,78.195 -19.513,78.482C-18.753,80.361 -18.292,82.363 -18.186,84.445ZM-62.915,62.759C-62.835,62.291 -63.117,61.836 -63.572,61.7C-64.025,61.565 -64.514,61.786 -64.707,62.22C-64.806,62.443 -67.193,67.651 -73.314,65.373C-78.273,63.53 -78.443,49.142 -78.036,42.504C-77.286,42.801 -76.481,42.971 -75.649,42.995C-71.119,57.347 -59.589,62.528 -50.661,64.334C-54.846,65.754 -58.503,68.129 -61.29,71.162C-63.665,67.405 -62.923,62.808 -62.915,62.759M-80.565,36.754L-81.024,33.886L-81.341,31.914C-81.492,30.963 -81.355,30.039 -81.024,29.203C-80.438,27.718 -79.186,26.554 -77.572,26.116C-77.59,26.97 -77.597,27.85 -77.6,28.742C-78.199,28.802 -78.646,29.001 -78.98,29.295C-80.042,30.228 -79.938,32.127 -79.715,33.715C-79.405,35.915 -79.316,38.645 -76.764,38.493C-76.599,39.37 -76.409,40.218 -76.199,41.04C-78.373,40.715 -80.199,39.04 -80.565,36.754M-81.846,5.814C-81.663,4.52 -81.399,3.238 -81.017,1.978C-79.447,-3.181 -75.453,-7.839 -70.409,-9.032C-68.458,-9.494 -66.354,-9.448 -64.164,-8.691C-64.206,-7.704 -64.239,-6.716 -64.264,-5.728C-64.28,-5.044 -64.287,-4.36 -64.295,-3.676C-64.301,-3.186 -64.305,-2.695 -64.306,-2.205C-64.312,-0.156 -64.284,1.892 -64.213,3.94C-64.191,4.565 -64.159,5.189 -64.13,5.814C-64.106,6.344 -64.09,6.874 -64.061,7.403C-64.066,7.439 -64.082,7.472 -64.083,7.508C-64.163,7.598 -64.229,7.71 -64.275,7.844C-64.276,7.849 -64.28,7.852 -64.282,7.856C-65.628,11.899 -67.551,15.917 -70.409,18.984C-71.868,20.55 -73.572,21.862 -75.571,22.804C-75.868,22.943 -76.165,23.082 -76.475,23.205C-76.685,23.288 -76.903,23.358 -77.119,23.433C-77.244,23.477 -77.366,23.525 -77.493,23.565C-77.562,23.587 -77.624,23.615 -77.693,23.636C-78.081,23.755 -78.27,24.042 -78.323,24.353C-78.376,24.656 -78.291,24.972 -78.096,25.2L-80.134,25.747C-80.164,25.591 -80.194,25.435 -80.225,25.279C-81.448,18.985 -82.754,12.231 -81.846,5.814M-76.939,37.564C-78.532,37.522 -78.55,35.135 -78.719,34.056C-78.93,32.704 -79.493,30.029 -77.588,29.698C-77.561,32.537 -77.339,35.158 -76.939,37.564M-34.587,64.873L-34.587,65.84C-34.587,66.79 -34.778,67.694 -35.119,68.521C-35.158,68.615 -35.202,68.705 -35.245,68.796C-35.257,68.823 -35.271,68.848 -35.282,68.875C-35.374,69.065 -35.473,69.251 -35.581,69.431C-35.748,69.712 -35.931,69.983 -36.135,70.237C-36.847,71.126 -37.769,71.841 -38.826,72.303C-39.268,72.497 -39.73,72.648 -40.214,72.748C-40.64,72.835 -41.08,72.88 -41.529,72.887C-41.566,72.887 -41.602,72.893 -41.639,72.893C-43.343,72.893 -44.908,72.285 -46.128,71.274C-46.417,71.036 -46.681,70.77 -46.929,70.489C-47.373,69.983 -47.746,69.415 -48.032,68.796C-48.45,67.896 -48.69,66.897 -48.69,65.84L-48.69,64.873C-48.69,64.819 -48.684,64.767 -48.683,64.714C-48.683,64.705 -48.682,64.695 -48.681,64.685C-48.657,64.689 -48.634,64.693 -48.61,64.696C-48.033,64.786 -47.471,64.864 -46.929,64.928C-46.655,64.96 -46.392,64.989 -46.128,65.015C-45.987,65.03 -45.846,65.045 -45.708,65.057C-44.034,65.212 -42.579,65.261 -41.463,65.261C-40.271,65.261 -38.891,65.211 -37.393,65.084C-36.499,65.009 -35.563,64.905 -34.593,64.762C-34.592,64.799 -34.587,64.835 -34.587,64.873M-63.576,11.347C-63.251,10.557 -62.952,9.756 -62.673,8.952C-57.933,12.537 -52.617,15.328 -46.929,17.034C-46.66,17.115 -46.397,17.209 -46.128,17.285C-45.196,17.546 -44.255,17.779 -43.306,17.98C-40.913,18.487 -37.798,18.828 -36.042,16.722C-35.567,16.152 -35.293,15.548 -35.161,14.929C-33.076,15.813 -30.901,16.466 -28.68,16.86C-26.952,17.166 -25.202,17.329 -23.447,17.302C-21.907,17.278 -20.366,17.125 -18.84,16.821C-17.86,16.626 -16.847,16.312 -16.007,15.78C-15.271,16.669 -14.519,17.545 -13.721,18.376C-13.032,19.093 -12.313,19.778 -11.52,20.387C-10.13,21.453 -8.424,22.188 -7.307,23.542C-7.3,23.733 -7.296,23.934 -7.29,24.127C-7.279,24.443 -7.271,24.762 -7.263,25.083C-7.261,25.153 -7.258,25.222 -7.257,25.292C-7.251,25.545 -7.24,25.786 -7.235,26.042C-7.217,27.037 -7.207,28.058 -7.207,29.107C-7.337,33.492 -7.911,37.316 -8.819,40.67C-8.824,40.69 -8.829,40.711 -8.835,40.731C-8.919,41.042 -9.004,41.35 -9.094,41.652C-9.186,41.959 -9.284,42.255 -9.382,42.553C-13.748,55.914 -23.882,60.954 -32.999,62.628C-33.311,62.686 -33.622,62.743 -33.931,62.792C-34.244,62.843 -34.555,62.888 -34.865,62.931C-35.682,63.044 -36.484,63.131 -37.271,63.198C-38.74,63.322 -40.151,63.376 -41.463,63.376C-42.579,63.376 -44.054,63.324 -45.751,63.157C-45.877,63.145 -46.001,63.133 -46.128,63.12C-46.845,63.042 -47.6,62.943 -48.384,62.818C-48.689,62.77 -48.999,62.717 -49.313,62.661C-49.62,62.605 -49.928,62.549 -50.242,62.486C-58.587,60.785 -69.298,55.959 -73.692,42.781C-73.792,42.48 -73.899,42.19 -73.993,41.88C-74.049,41.695 -74.095,41.495 -74.147,41.306C-74.181,41.19 -74.211,41.071 -74.243,40.953C-75.175,37.543 -75.719,33.637 -75.719,29.121C-75.719,28.034 -75.705,26.984 -75.683,25.957C-75.678,25.731 -75.669,25.516 -75.662,25.292C-75.66,25.195 -75.656,25.099 -75.653,25.001C-75.653,24.968 -75.651,24.934 -75.65,24.9C-75.424,24.808 -75.207,24.702 -74.987,24.601C-74.765,24.499 -74.537,24.403 -74.32,24.293C-72.878,23.559 -71.583,22.641 -70.409,21.592C-67.368,18.872 -65.177,15.233 -63.576,11.347M-62.404,-4.35C-62.395,-5.01 -62.377,-5.67 -62.358,-6.33C-62.334,-7.233 -62.309,-8.137 -62.269,-9.041C-59.892,-10.958 -57.214,-12.425 -54.284,-13.316C-52.907,-13.734 -51.484,-14.036 -50.053,-14.185C-49.216,-14.271 -48.368,-14.686 -48.773,-13.68C-48.958,-13.22 -49.78,-12.674 -50.118,-12.337C-50.34,-12.116 -50.411,-11.864 -50.388,-11.625C-50.648,-10.881 -49.896,-9.926 -49.079,-10.474C-48.386,-10.939 -47.667,-11.308 -46.929,-11.604C-44.771,-12.468 -42.438,-12.702 -40.053,-12.826C-36.862,-12.993 -33.659,-13.112 -30.464,-13.067C-28.166,-13.035 -25.794,-12.919 -23.447,-12.614C-19.495,-12.101 -15.611,-11.049 -12.257,-8.947C-7.153,-5.749 -5.06,0.192 -3.663,5.814C-3.575,6.166 -3.49,6.517 -3.407,6.865C-1.986,12.866 -1.669,19.034 -2.298,25.155C-2.312,25.286 -2.321,25.417 -2.336,25.547L-5.201,24.137C-5.193,24.123 -5.185,24.109 -5.177,24.095C-5.056,23.853 -5.03,23.563 -5.21,23.256C-5.283,23.13 -5.366,23.016 -5.446,22.898C-5.771,22.418 -6.141,21.998 -6.55,21.623C-6.829,21.367 -7.125,21.129 -7.433,20.902C-8.014,20.472 -8.633,20.078 -9.263,19.67C-11.408,18.283 -13.059,16.393 -14.674,14.446C-14.495,14.155 -14.339,13.844 -14.24,13.484C-13.555,10.971 -15.334,8.714 -16.388,6.614C-16.931,5.529 -18.558,6.482 -18.015,7.565C-17.185,9.221 -15.173,11.825 -16.4,13.587C-16.586,13.855 -16.842,14.104 -17.192,14.326C-18.764,15.322 -21.388,15.352 -23.146,15.406C-23.247,15.409 -23.347,15.404 -23.447,15.406C-25.214,15.438 -26.963,15.286 -28.68,14.966C-30.921,14.55 -33.106,13.852 -35.197,12.882C-35.505,11.472 -36.304,10.084 -37.093,8.919C-37.769,7.92 -39.402,8.862 -38.72,9.871C-37.979,10.965 -36.804,12.45 -36.941,13.838C-37.161,16.058 -38.925,16.556 -40.8,16.47C-42.565,16.388 -44.386,15.905 -46.128,15.348C-46.397,15.262 -46.664,15.174 -46.929,15.086C-47.327,14.953 -47.722,14.819 -48.107,14.688C-52.759,13.1 -57.117,10.767 -61.059,7.844C-61.44,7.56 -61.82,7.271 -62.194,6.977C-62.215,6.589 -62.228,6.202 -62.246,5.814C-62.276,5.142 -62.312,4.47 -62.335,3.797C-62.413,1.48 -62.434,-0.839 -62.414,-3.158C-62.41,-3.555 -62.411,-3.953 -62.404,-4.35M-5.366,29.987C-4.54,30.308 -3.927,30.71 -3.775,31.943C-3.687,32.663 -3.956,33.489 -4.11,34.182C-4.399,35.488 -4.631,37.919 -6.266,37.947C-5.795,35.515 -5.49,32.864 -5.366,29.987M-1.004,31.914L-1.78,36.754C-2.062,38.514 -3.206,39.926 -4.711,40.63C-5.413,40.959 -6.196,41.112 -7.004,41.095C-6.964,40.947 -6.921,40.801 -6.882,40.651C-6.734,40.084 -6.601,39.5 -6.472,38.907C-4.044,39.224 -3.805,36.927 -3.286,34.779C-2.975,33.492 -2.534,31.96 -3.069,30.67C-3.354,29.983 -3.931,29.588 -4.577,29.295C-4.82,29.186 -5.071,29.089 -5.323,29C-5.324,27.966 -5.333,26.956 -5.352,25.972C-5.336,25.974 -5.319,25.972 -5.304,25.975C-2.481,26.427 -0.553,29.091 -1.004,31.914M-1.063,40.444C-1.085,40.317 -1.132,40.202 -1.196,40.1C-0.555,39.226 -0.103,38.195 0.081,37.052L0.856,32.211C1.196,30.092 0.547,28.042 -0.743,26.521C-0.62,26.381 -0.521,26.213 -0.494,25.99C0.296,19.242 -0.11,12.409 -1.741,5.814C-1.831,5.45 -1.909,5.083 -2.007,4.72C-3.603,-1.209 -5.881,-7.184 -11.306,-10.575C-14.942,-12.848 -19.163,-13.968 -23.447,-14.504C-25.796,-14.798 -28.163,-14.919 -30.464,-14.952C-34.164,-15.004 -37.913,-14.911 -41.603,-14.616C-43.282,-14.482 -44.923,-14.235 -46.489,-13.753C-46.375,-14.118 -46.354,-14.504 -46.477,-14.914C-46.57,-15.228 -46.736,-15.449 -46.929,-15.635C-47.846,-16.517 -49.691,-16.124 -50.811,-15.979C-55.515,-15.372 -59.833,-13.392 -63.511,-10.439C-63.541,-10.454 -63.56,-10.477 -63.594,-10.489C-65.921,-11.309 -68.231,-11.403 -70.409,-10.956C-75.443,-9.922 -79.763,-5.955 -81.894,-1.071C-82.862,1.149 -83.445,3.458 -83.752,5.814C-84.653,12.747 -83.141,20.091 -81.843,26.804C-81.842,26.809 -81.839,26.812 -81.838,26.817C-82.969,28.303 -83.519,30.227 -83.201,32.211L-82.426,37.052C-82.137,38.858 -81.181,40.39 -79.853,41.45C-80.086,44.458 -81.342,64.4 -73.972,67.139C-69.534,68.789 -66.605,67.247 -64.895,65.593C-64.772,67.609 -64.23,70.277 -62.548,72.653C-65.354,76.278 -67.002,80.665 -67.002,85.387L-67.002,86.33L-16.276,86.33L-16.276,85.387C-16.276,82.696 -16.812,80.114 -17.791,77.719C-17.461,77.507 -17.142,77.271 -16.84,76.996C-14.806,75.141 -13.814,72.174 -13.333,69.698C-12.171,72.237 -10.201,75.098 -7.112,75.644C-5.819,75.875 -4.748,75.64 -3.923,74.954C-2.739,73.967 -2.373,72.265 -2.257,70.745C-1.749,71.184 -1.031,71.556 0.007,71.742C0.458,71.823 0.906,71.678 1.236,71.348C3.57,69.029 0.405,48.962 -1.063,40.444" style="fill:rgb(47,40,57);fill-rule:nonzero;"/>
        </g>
        <g transform="matrix(1,0,0,1,278.999,258.033)">
            <path d="M0,-8.286C0.812,-9.138 1.866,-9.772 3.063,-10.089C3.614,-10.235 4.194,-10.32 4.795,-10.32C5.396,-10.32 5.976,-10.235 6.527,-10.089C9.263,-9.364 11.279,-6.976 11.279,-4.142C11.279,-0.737 8.37,2.033 4.795,2.033C2.894,2.033 1.187,1.245 0,0C-1.046,-1.098 -1.689,-2.548 -1.689,-4.142C-1.689,-5.738 -1.046,-7.189 0,-8.286M4.795,3.918C9.409,3.918 13.164,0.302 13.164,-4.142C13.164,-8.588 9.409,-12.204 4.795,-12.204C0.181,-12.204 -3.574,-8.588 -3.574,-4.142C-3.574,0.302 0.181,3.918 4.795,3.918" style="fill:rgb(47,40,57);fill-rule:nonzero;"/>
        </g>
        <g transform="matrix(1,0,0,1,283.794,248.708)">
            <path d="M0,10.122C2.945,10.122 5.342,7.851 5.342,5.06C5.342,4.68 5.289,4.311 5.204,3.954C5.002,4.299 4.716,4.583 4.37,4.783C4.096,4.943 3.787,5.045 3.455,5.08C3.444,6.822 1.899,8.237 0,8.237C-1.907,8.237 -3.457,6.811 -3.457,5.06C-3.457,3.31 -1.907,1.884 0,1.884C0.358,1.884 0.698,1.949 1.023,2.042C1.13,1.729 1.296,1.446 1.517,1.209C1.774,0.932 2.099,0.723 2.465,0.598C1.724,0.228 0.894,0 0,0C-2.115,0 -3.931,1.179 -4.795,2.872C-5.135,3.537 -5.342,4.273 -5.342,5.06C-5.342,5.848 -5.135,6.584 -4.795,7.249C-3.931,8.942 -2.115,10.122 0,10.122" style="fill:rgb(47,40,57);fill-rule:nonzero;"/>
        </g>
        <g transform="matrix(1,0,0,1,313.895,258.647)">
            <path d="M0,-9.515C0.692,-10.061 1.507,-10.468 2.396,-10.703C2.949,-10.849 3.529,-10.934 4.13,-10.934C4.73,-10.934 5.311,-10.849 5.862,-10.703C8.599,-9.978 10.614,-7.591 10.614,-4.757C10.614,-1.351 7.705,1.419 4.13,1.419C2.562,1.419 1.122,0.886 0,0.001C-1.437,-1.133 -2.355,-2.845 -2.355,-4.757C-2.355,-6.67 -1.437,-8.381 0,-9.515M4.13,3.304C4.566,3.304 4.991,3.262 5.41,3.2C5.984,3.114 6.538,2.974 7.068,2.781C10.235,1.632 12.499,-1.309 12.499,-4.757C12.499,-9.203 8.744,-12.819 4.13,-12.819C-0.485,-12.819 -4.239,-9.203 -4.239,-4.757C-4.239,-0.312 -0.485,3.304 4.13,3.304" style="fill:rgb(47,40,57);fill-rule:nonzero;"/>
        </g>
        <g transform="matrix(1,0,0,1,318.025,248.708)">
            <path d="M0,10.122C2.945,10.122 5.342,7.851 5.342,5.06C5.342,4.667 5.284,4.289 5.193,3.921C4.995,4.27 4.713,4.562 4.368,4.768C4.095,4.933 3.787,5.037 3.456,5.077C3.446,6.82 1.901,8.237 0,8.237C-1.906,8.237 -3.457,6.811 -3.457,5.06C-3.457,3.31 -1.906,1.884 0,1.884C0.349,1.884 0.679,1.946 0.997,2.035C1.104,1.722 1.271,1.438 1.493,1.202C1.754,0.923 2.083,0.715 2.454,0.592C1.716,0.226 0.89,0 0,0C-1.673,0 -3.15,0.747 -4.13,1.891C-4.876,2.761 -5.342,3.854 -5.342,5.06C-5.342,6.267 -4.876,7.36 -4.13,8.23C-3.15,9.375 -1.673,10.122 0,10.122" style="fill:rgb(47,40,57);fill-rule:nonzero;"/>
        </g>
        <g transform="matrix(1,0,0,1,279.026,242.092)">
            <path d="M0,1.885L9.735,1.885C10.256,1.885 10.678,1.463 10.678,0.943C10.678,0.859 10.65,0.784 10.63,0.707C10.134,0.481 9.65,0.245 9.186,0L0,0C-0.521,0 -0.942,0.423 -0.942,0.943C-0.942,1.463 -0.521,1.885 0,1.885" style="fill:rgb(47,40,57);fill-rule:nonzero;"/>
        </g>
        <g transform="matrix(1,0,0,1,313.615,242.092)">
            <path d="M0,1.885L9.735,1.885C10.257,1.885 10.678,1.463 10.678,0.943C10.678,0.752 10.607,0.584 10.51,0.435C9.613,0.603 8.638,0.727 7.593,0.763C5.817,0.824 3.709,0.472 1.744,0L0,0C-0.521,0 -0.942,0.423 -0.942,0.943C-0.942,1.463 -0.521,1.885 0,1.885" style="fill:rgb(47,40,57);fill-rule:nonzero;"/>
        </g>
        <g transform="matrix(1,0,0,1,298.439,263.782)">
            <path d="M0,1.748C0.105,1.789 0.218,1.816 0.338,1.816L6.902,1.816C6.996,1.816 7.081,1.788 7.167,1.763C7.556,1.646 7.845,1.301 7.845,0.874C7.845,0.353 7.423,-0.068 6.902,-0.068L0.338,-0.068C-0.183,-0.068 -0.604,0.353 -0.604,0.874C-0.604,1.274 -0.353,1.612 0,1.748" style="fill:rgb(47,40,57);fill-rule:nonzero;"/>
        </g>
        <g transform="matrix(1,0,0,1,301.937,272.723)">
            <path d="M0,3.444C2.31,3.444 4.001,1.772 4.072,1.702C4.437,1.334 4.437,0.741 4.07,0.373C3.705,0.006 3.106,0.004 2.74,0.368C2.469,0.635 0.025,2.901 -2.492,0.372C-2.859,0.003 -3.457,0 -3.824,0.368C-4.193,0.735 -4.195,1.333 -3.828,1.701C-2.677,2.857 -1.389,3.444 0,3.444" style="fill:rgb(47,40,57);fill-rule:nonzero;"/>
        </g>
    </g>
</svg>
