<?xml version="1.0" encoding="UTF-8" standalone="no"?>
<!DOCTYPE svg PUBLIC "-//W3C//DTD SVG 1.1//EN" "http://www.w3.org/Graphics/SVG/1.1/DTD/svg11.dtd">
<svg width="100%" height="100%" viewBox="0 0 130 130" version="1.1" xmlns="http://www.w3.org/2000/svg" xmlns:xlink="http://www.w3.org/1999/xlink" xml:space="preserve" xmlns:serif="http://www.serif.com/" style="fill-rule:evenodd;clip-rule:evenodd;stroke-linejoin:round;stroke-miterlimit:2;">
    <g transform="matrix(1,0,0,1,-122.073,-191.67)">
        <g transform="matrix(1,0,0,1,192.962,291.509)">
            <path d="M0,-0.432C-2.361,-0.482 -7.06,-0.822 -10.845,-2.576C-11.387,-2.827 -11.91,-3.105 -12.405,-3.417C-12.754,-3.638 -13.09,-3.873 -13.408,-4.127C-13.413,-4.13 -13.417,-4.134 -13.421,-4.138C-13.654,-4.326 -13.875,-4.525 -14.088,-4.731C-14.14,-4.781 -14.191,-4.83 -14.242,-4.881C-14.268,-4.909 -14.297,-4.934 -14.323,-4.961C-14.326,-4.926 -14.327,-4.891 -14.329,-4.855C-14.33,-4.829 -14.332,-4.803 -14.333,-4.777C-14.338,-4.662 -14.351,-4.549 -14.351,-4.434L-14.351,-3.465C-14.351,-3.272 -14.335,-3.082 -14.321,-2.892C-14.141,-0.394 -12.807,1.797 -10.845,3.137C-10.525,3.357 -10.184,3.547 -9.833,3.717C-8.779,4.232 -7.602,4.529 -6.356,4.529C-5.11,4.529 -3.934,4.232 -2.88,3.717C-1.124,2.861 0.279,1.386 1.031,-0.426C0.776,-0.423 0.425,-0.423 0,-0.432" style="fill:rgb(226,179,132);fill-rule:nonzero;"/>
        </g>
        <g transform="matrix(1,0,0,1,212.059,261.185)">
            <path d="M0,-7.848C-0.059,-12.244 -3.786,-15.805 -8.364,-15.805C-12.949,-15.805 -16.68,-12.235 -16.728,-7.829C-16.729,-7.858 -16.732,-7.886 -16.732,-7.914C-16.732,-12.36 -12.979,-15.976 -8.364,-15.976C-3.749,-15.976 0.005,-12.36 0.005,-7.914C0.005,-7.892 0,-7.87 0,-7.848M-2.209,2.888C-2.292,2.93 -2.375,2.971 -2.458,3.013C-3.542,3.554 -4.495,1.928 -3.41,1.385C-3.327,1.344 -3.243,1.302 -3.16,1.261C-2.077,0.719 -1.124,2.346 -2.209,2.888M-4.239,4.321C-4.239,5.536 -6.123,5.534 -6.123,4.321L-6.123,4.197C-6.123,2.982 -4.239,2.984 -4.239,4.197L-4.239,4.321ZM-6.846,0.869C-7.05,0.665 -7.117,0.436 -7.105,0.215C-7.098,0.215 -7.091,0.215 -7.083,0.214C-6.931,-0.418 -6.114,-0.894 -5.513,-0.293L-5.425,-0.205C-5.392,-0.217 -5.362,-0.236 -5.329,-0.248C-4.636,0.609 -5.891,1.824 -6.721,0.994C-6.763,0.952 -6.804,0.911 -6.846,0.869M-10.049,3.142L-10.174,3.142C-11.388,3.142 -11.386,1.257 -10.174,1.257L-10.049,1.257C-8.834,1.257 -8.836,3.142 -10.049,3.142M-8.364,-0.625C-9.893,-0.625 -11.313,-1.069 -12.494,-1.827C-14.481,-3.106 -15.791,-5.278 -15.791,-7.744C-15.791,-10.21 -14.481,-12.383 -12.494,-13.66C-12.477,-13.671 -12.459,-13.68 -12.442,-13.69C-11.271,-14.43 -9.871,-14.863 -8.364,-14.863C-6.856,-14.863 -5.456,-14.43 -4.285,-13.69C-2.27,-12.417 -0.937,-10.231 -0.937,-7.744C-0.937,-3.812 -4.262,-0.625 -8.364,-0.625M-20.121,2.944C-20.162,2.462 -20.554,2.08 -21.047,2.08L-27.612,2.08C-28.106,2.08 -28.5,2.464 -28.539,2.948C-28.542,2.915 -28.554,2.885 -28.554,2.851C-28.554,2.331 -28.132,1.909 -27.612,1.909L-21.047,1.909C-20.527,1.909 -20.105,2.331 -20.105,2.851C-20.105,2.884 -20.117,2.913 -20.121,2.944M-21.233,3.758C-21.257,3.825 -21.285,3.893 -21.316,3.965C-21.671,4.778 -22.484,5.823 -24.33,5.823C-26.325,5.823 -27.114,4.716 -27.421,3.965C-27.451,3.891 -27.477,3.823 -27.498,3.758C-27.589,3.48 -27.612,3.285 -27.612,3.285L-21.047,3.022C-21.047,3.022 -21.08,3.34 -21.233,3.758M-24.33,-8.035L-21.047,1.188L-27.612,1.451C-27.699,1.101 -24.33,-8.035 -24.33,-8.035M-34.23,-7.829C-34.279,-12.235 -38.01,-15.805 -42.595,-15.805C-47.18,-15.805 -50.911,-12.235 -50.959,-7.829C-50.959,-7.858 -50.964,-7.886 -50.964,-7.914C-50.964,-12.36 -47.209,-15.976 -42.595,-15.976C-37.98,-15.976 -34.226,-12.36 -34.226,-7.914C-34.226,-7.886 -34.23,-7.858 -34.23,-7.829M-43.999,2.892C-45.214,2.892 -45.212,1.007 -43.999,1.007C-42.784,1.007 -42.786,2.892 -43.999,2.892M-46.87,1.769C-48.084,1.769 -48.083,-0.116 -46.87,-0.116C-45.655,-0.116 -45.657,1.769 -46.87,1.769M-47.12,4.764C-48.334,4.764 -48.332,2.88 -47.12,2.88C-45.905,2.88 -45.907,4.764 -47.12,4.764M-42.595,-0.625C-44.424,-0.625 -46.096,-1.262 -47.39,-2.313C-48.998,-3.619 -50.021,-5.566 -50.021,-7.744C-50.021,-9.922 -48.998,-11.869 -47.39,-13.175C-47.163,-13.36 -46.923,-13.532 -46.673,-13.69C-45.502,-14.43 -44.102,-14.863 -42.595,-14.863C-41.088,-14.863 -39.688,-14.43 -38.517,-13.69C-36.5,-12.417 -35.168,-10.231 -35.168,-7.744C-35.168,-3.812 -38.493,-0.625 -42.595,-0.625M9.917,-10.179C9.915,-11.165 9.903,-12.133 9.876,-13.065C9.87,-13.28 9.855,-13.478 9.848,-13.69C9.845,-13.775 9.84,-13.856 9.836,-13.94C9.626,-13.881 9.325,-13.816 8.928,-13.757C8.753,-13.731 8.562,-13.709 8.35,-13.69C8.249,-13.681 8.145,-13.672 8.035,-13.665C7.474,-13.629 6.807,-13.621 6.012,-13.673C4.499,-12.613 3.396,-10.97 3.082,-9.006L2.307,-4.166C2.242,-3.762 2.219,-3.362 2.224,-2.966C2.207,-3.416 2.233,-3.875 2.307,-4.337L3.082,-9.177C3.396,-11.141 4.499,-12.784 6.012,-13.843C5.934,-13.848 5.854,-13.854 5.774,-13.861C5.515,-13.88 5.238,-13.909 4.954,-13.942C2.14,-14.266 -1.898,-15.288 -7.341,-17.827L-7.709,-17.827C-7.925,-17.925 -8.137,-18.02 -8.364,-18.131C-9.28,-18.577 -10.152,-19.05 -10.99,-19.541L-12.773,-19.541C-13.264,-19.541 -13.654,-19.163 -13.699,-18.684C-13.702,-18.714 -13.716,-18.74 -13.716,-18.77C-13.716,-19.29 -13.294,-19.712 -12.773,-19.712L-10.99,-19.712C-11.506,-20.015 -12.006,-20.327 -12.494,-20.644C-17.685,-24.02 -21.25,-28.109 -23.494,-31.309C-25.648,-34.382 -26.588,-36.633 -26.588,-36.633C-26.588,-36.633 -27.841,-34.417 -29.942,-31.42C-29.968,-31.383 -29.993,-31.347 -30.02,-31.309C-32.542,-27.724 -36.261,-23.061 -40.512,-19.712L-37.627,-19.712C-37.107,-19.712 -36.685,-19.29 -36.685,-18.77C-36.685,-18.74 -36.7,-18.714 -36.702,-18.684C-36.748,-19.163 -37.137,-19.541 -37.627,-19.541L-40.512,-19.541C-41.307,-18.915 -42.123,-18.346 -42.951,-17.827L-43.211,-17.827C-43.473,-17.668 -43.735,-17.514 -43.999,-17.368C-45.138,-16.738 -46.272,-16.212 -47.39,-15.765C-49.879,-14.768 -52.271,-14.187 -54.405,-13.861C-54.87,-13.789 -55.324,-13.728 -55.762,-13.679C-54.364,-12.618 -53.353,-11.043 -53.055,-9.177L-52.279,-4.337C-52.204,-3.87 -52.179,-3.407 -52.196,-2.952C-52.19,-3.352 -52.214,-3.757 -52.279,-4.166L-53.055,-9.006C-53.353,-10.872 -54.364,-12.447 -55.762,-13.509C-56.311,-13.448 -56.831,-13.405 -57.332,-13.374C-58.118,-13.325 -58.845,-13.304 -59.488,-13.307C-59.814,-13.308 -60.124,-13.314 -60.408,-13.324C-60.411,-13.228 -60.418,-13.139 -60.421,-13.042C-60.456,-12.014 -60.475,-10.957 -60.475,-9.862C-60.475,-7.429 -60.346,-5.163 -60.112,-3.035C-60.108,-3.005 -60.106,-2.974 -60.103,-2.945C-60.087,-2.785 -60.049,-2.474 -59.986,-2.063C-59.947,-1.766 -59.912,-1.462 -59.869,-1.17C-59.813,-1.061 -59.795,-0.941 -59.82,-0.829C-59.663,0.19 -59.478,1.174 -59.265,2.122C-59.193,2.443 -59.115,2.756 -59.037,3.07C-58.96,3.377 -58.885,3.686 -58.803,3.985C-55.148,17.239 -45.835,22.948 -34.301,24.702C-33.992,24.749 -33.68,24.791 -33.368,24.832C-33.389,24.985 -33.405,25.139 -33.417,25.296C-33.331,25.212 -32.991,25.141 -32.455,25.083C-32.25,25.06 -32.011,25.04 -31.754,25.021C-31.748,25.022 -31.742,25.022 -31.735,25.023C-31.143,25.083 -30.544,25.133 -29.942,25.175C-28.983,25.242 -28.015,25.292 -27.035,25.315C-26.452,25.329 -25.866,25.337 -25.276,25.337C-24.792,25.337 -24.312,25.328 -23.833,25.318C-22.233,25.284 -20.661,25.189 -19.119,25.034C-18.902,25.011 -18.684,24.992 -18.469,24.967C-18.345,24.954 -18.222,24.94 -18.099,24.925L-18.061,25.301L-18.018,25.724L-17.958,26.305L-17.854,27.321L-17.705,28.785C-17.595,28.346 -17.521,27.895 -17.488,27.432C-17.474,27.242 -17.458,27.052 -17.458,26.859L-17.458,25.89C-17.458,25.803 -17.469,25.718 -17.472,25.631C-17.474,25.577 -17.477,25.523 -17.48,25.469C-17.491,25.26 -17.508,25.053 -17.535,24.849C-17.224,24.808 -16.91,24.77 -16.602,24.723C-4.954,22.952 4.478,17.082 8.202,3.935C8.287,3.632 8.368,3.326 8.448,3.015C8.526,2.709 8.603,2.398 8.675,2.084C8.73,1.844 8.788,1.608 8.84,1.365C8.947,0.858 9.045,0.339 9.138,-0.188C9.129,-0.191 9.121,-0.191 9.112,-0.194C8.979,-0.229 8.893,-0.306 8.84,-0.399C8.677,0.304 8.464,1.109 8.188,1.997C8.096,2.293 7.994,2.598 7.888,2.91C7.789,3.202 7.681,3.5 7.568,3.804C4.937,10.891 -1.458,21.152 -16.714,24.031C-17.021,24.089 -17.332,24.143 -17.645,24.195C-17.951,24.245 -18.268,24.286 -18.581,24.331C-19.455,24.456 -20.357,24.555 -21.287,24.631C-22.624,24.741 -23.998,24.816 -25.453,24.816C-26.91,24.816 -28.284,24.741 -29.621,24.631C-29.728,24.623 -29.835,24.614 -29.942,24.604C-30.759,24.532 -31.553,24.442 -32.325,24.332C-32.638,24.287 -32.955,24.246 -33.261,24.196C-33.575,24.143 -33.886,24.089 -34.192,24.031C-49.37,21.161 -55.538,10.957 -58.014,3.905C-58.122,3.598 -58.224,3.298 -58.318,3.005C-58.419,2.689 -58.515,2.38 -58.602,2.082C-59.493,-0.994 -59.647,-3.121 -59.647,-3.121L-59.015,-2.658L-55.201,0.148L-54.438,0.71L-53.676,1.27L-51.51,2.864C-51.622,2.662 -51.659,2.427 -51.621,2.197L-53.401,0.888C-53.375,0.85 -53.354,0.809 -53.329,0.77L-51.621,2.026C-51.554,1.621 -51.27,1.257 -50.739,1.257L-50.614,1.257C-49.552,1.257 -49.421,2.698 -50.215,3.06L-34.705,14.468C-34.189,12.412 -32.085,6.922 -24.33,6.922C-16.604,6.922 -14.126,11.993 -13.468,13.896L3.321,0.714C3.346,0.752 3.366,0.793 3.391,0.83L-13.468,14.067C-14.126,12.163 -16.604,7.092 -24.33,7.092C-32.085,7.092 -34.189,12.583 -34.705,14.638L-50.215,3.231C-50.33,3.283 -50.462,3.312 -50.614,3.312L-50.739,3.312C-50.823,3.312 -50.888,3.284 -50.96,3.267L-34.39,15.456C-34.39,15.456 -33.513,7.564 -24.33,7.564C-15.146,7.564 -13.724,14.867 -13.724,14.867L3.661,1.216L4.404,0.633L4.954,0.202L5.145,0.052L8.262,-2.396L9.354,-3.253C9.354,-3.253 9.272,-2.411 8.982,-1.036C9.063,-1.096 9.167,-1.119 9.285,-1.107C9.412,-1.927 9.518,-2.773 9.606,-3.64C9.792,-5.441 9.897,-7.339 9.913,-9.349C9.596,-9.553 9.647,-10.027 9.917,-10.179" style="fill:rgb(226,179,132);fill-rule:nonzero;"/>
        </g>
        <g transform="matrix(1,0,0,1,189.373,273.205)">
            <path d="M0,5.378C-0.082,5.418 -0.163,5.462 -0.247,5.496C-0.282,5.565 -0.342,5.625 -0.439,5.662C-1.051,5.899 -1.663,5.949 -2.31,5.762C-2.476,5.713 -2.63,5.65 -2.779,5.581C-3.158,5.455 -3.511,5.251 -3.845,5.005C-3.977,4.908 -4.115,4.824 -4.236,4.706C-4.418,4.528 -4.396,4.221 -4.136,4.107C-4.02,3.934 -3.761,3.813 -3.482,3.919C-2.254,4.39 -0.548,4.513 0.595,3.832C0.94,3.627 1.268,3.897 1.268,4.176C1.27,4.208 1.265,4.239 1.254,4.274C1.243,4.31 1.232,4.346 1.208,4.379C1.207,4.38 1.208,4.382 1.207,4.383C0.879,4.829 0.459,5.149 0,5.378M1.518,-0.812C0.633,-1.083 -0.365,-1.238 -1.425,-1.238C-2.56,-1.238 -3.625,-1.063 -4.554,-0.757C-5.008,-0.606 -5.426,-0.422 -5.807,-0.214C-7.117,0.505 -7.944,1.537 -7.944,2.689C-7.944,3.804 -7.169,4.808 -5.931,5.523C-5.541,5.748 -5.104,5.944 -4.631,6.106C-3.684,6.429 -2.592,6.616 -1.425,6.616C-0.842,6.616 -0.279,6.565 0.26,6.479C0.763,6.398 1.245,6.285 1.693,6.138C3.719,5.472 5.094,4.177 5.094,2.689C5.094,1.363 4.001,0.194 2.333,-0.517C2.074,-0.627 1.802,-0.726 1.518,-0.812" style="fill:rgb(226,179,132);fill-rule:nonzero;"/>
        </g>
        <g transform="matrix(1,0,0,1,206.375,212.875)">
            <path d="M0,68.125C-0.375,68.125 -30.308,68.625 -30.308,68.625L-52.124,51.209L-54.792,28.125L-22.871,-0.5L-7.08,-0.25C-7.08,-0.25 15.789,25.875 15.957,26.25C16.125,26.625 13.251,52.114 13.251,52.114L0,68.125Z" style="fill:rgb(226,179,132);fill-rule:nonzero;"/>
        </g>
        <g transform="matrix(1,0,0,1,167.379,294.606)">
            <path d="M0,6.465C-0.433,7.587 -2.254,7.097 -1.817,5.964C-1.041,3.954 0.077,2.161 1.486,0.62C2.548,-0.541 3.771,-1.562 5.163,-2.403C6.205,-3.033 7.151,-1.402 6.114,-0.776C5.424,-0.359 4.774,0.109 4.168,0.62C2.321,2.182 0.888,4.167 0,6.465M38.88,0.62C37.583,-0.931 36.055,-2.321 34.343,-3.516C32.482,-4.815 30.404,-5.878 28.163,-6.658C27.852,-6.766 27.538,-6.87 27.221,-6.967L27.221,-6.562C27.221,-6.369 27.206,-6.18 27.192,-5.989C27.159,-5.526 27.085,-5.075 26.975,-4.637L27.088,-3.534C27.088,-3.534 26.918,-3.526 26.614,-3.523C25.862,-1.711 24.459,-0.236 22.703,0.62C21.649,1.135 20.473,1.432 19.227,1.432C17.981,1.432 16.804,1.135 15.75,0.62C15.399,0.449 15.058,0.26 14.738,0.04C12.776,-1.3 11.442,-3.491 11.262,-5.989C11.248,-6.18 11.232,-6.369 11.232,-6.562L11.232,-6.967C11.109,-6.929 10.984,-6.895 10.862,-6.855C10.669,-6.794 10.48,-6.724 10.29,-6.658C5.987,-5.161 2.28,-2.618 -0.427,0.62C-3.421,4.204 -5.193,8.635 -5.193,13.432L43.647,13.432C43.647,8.635 41.875,4.204 38.88,0.62" style="fill:rgb(166,54,20);fill-rule:nonzero;"/>
        </g>
        <g transform="matrix(1,0,0,1,172.919,253.302)">
            <path d="M0,0.037C-0.081,0.046 -0.16,0.061 -0.244,0.061C-1.525,0.061 -2.564,-0.978 -2.564,-2.259C-2.564,-2.52 -2.511,-2.766 -2.432,-3C-2.326,-3.314 -2.159,-3.597 -1.939,-3.834C-2.413,-3.998 -2.92,-4.101 -3.455,-4.101C-5.885,-4.101 -7.855,-2.257 -7.855,0.018C-7.855,2.293 -5.885,4.138 -3.455,4.138C-1.025,4.138 0.944,2.293 0.944,0.018C0.944,-0.077 0.921,-0.166 0.915,-0.26C0.64,-0.1 0.332,0.002 0,0.037" style="fill:rgb(129,172,171);fill-rule:nonzero;"/>
        </g>
        <g transform="matrix(1,0,0,1,208.063,253.613)">
            <path d="M0,-0.586C-0.273,-0.422 -0.582,-0.316 -0.913,-0.277C-1.003,-0.267 -1.092,-0.25 -1.185,-0.25C-2.467,-0.25 -3.506,-1.289 -3.506,-2.57C-3.506,-2.834 -3.452,-3.083 -3.371,-3.319C-3.264,-3.632 -3.096,-3.916 -2.875,-4.152C-3.343,-4.312 -3.841,-4.412 -4.368,-4.412C-6.281,-4.412 -7.892,-3.263 -8.499,-1.667C-8.663,-1.235 -8.768,-0.777 -8.768,-0.293C-8.768,0.191 -8.663,0.649 -8.499,1.081C-7.892,2.677 -6.281,3.826 -4.368,3.826C-1.938,3.826 0.032,1.981 0.032,-0.293C0.032,-0.394 0.008,-0.487 0,-0.586" style="fill:rgb(129,172,171);fill-rule:nonzero;"/>
        </g>
        <g transform="matrix(1,0,0,1,173.863,253.561)">
            <path d="M0,-0.241C0,2.033 -1.97,3.878 -4.399,3.878C-6.83,3.878 -8.799,2.033 -8.799,-0.241C-8.799,-2.516 -6.83,-4.36 -4.399,-4.36C-3.864,-4.36 -3.357,-4.258 -2.883,-4.094C-3.104,-3.856 -3.27,-3.573 -3.376,-3.26C-3.456,-3.026 -3.508,-2.779 -3.508,-2.518C-3.508,-1.237 -2.47,-0.198 -1.188,-0.198C-1.104,-0.198 -1.025,-0.214 -0.944,-0.222C-0.613,-0.258 -0.304,-0.359 -0.03,-0.519C-0.023,-0.426 0,-0.337 0,-0.241M-0.321,-6.066C-1.492,-6.806 -2.893,-7.239 -4.399,-7.239C-5.907,-7.239 -7.307,-6.806 -8.478,-6.066C-8.728,-5.908 -8.967,-5.737 -9.195,-5.552C-10.803,-4.246 -11.826,-2.299 -11.826,-0.12C-11.826,2.058 -10.803,4.005 -9.195,5.311C-7.9,6.362 -6.229,6.998 -4.399,6.998C-0.298,6.998 3.027,3.812 3.027,-0.12C3.027,-2.607 1.695,-4.793 -0.321,-6.066" style="fill:rgb(253,250,201);fill-rule:nonzero;"/>
        </g>
        <g transform="matrix(1,0,0,1,208.095,253.561)">
            <path d="M0,-0.241C0,2.033 -1.97,3.878 -4.4,3.878C-6.312,3.878 -7.924,2.729 -8.53,1.133C-8.694,0.701 -8.8,0.243 -8.8,-0.241C-8.8,-0.725 -8.694,-1.183 -8.53,-1.615C-7.924,-3.211 -6.312,-4.36 -4.4,-4.36C-3.873,-4.36 -3.375,-4.26 -2.906,-4.1C-3.128,-3.864 -3.296,-3.58 -3.403,-3.267C-3.484,-3.031 -3.538,-2.782 -3.538,-2.518C-3.538,-1.237 -2.499,-0.198 -1.217,-0.198C-1.124,-0.198 -1.035,-0.215 -0.944,-0.225C-0.613,-0.264 -0.305,-0.37 -0.032,-0.534C-0.024,-0.435 0,-0.342 0,-0.241M-0.321,-6.066C-1.492,-6.806 -2.893,-7.239 -4.4,-7.239C-5.907,-7.239 -7.308,-6.806 -8.479,-6.066C-8.495,-6.056 -8.513,-6.047 -8.53,-6.036C-10.518,-4.759 -11.827,-2.587 -11.827,-0.12C-11.827,2.346 -10.518,4.518 -8.53,5.796C-7.349,6.555 -5.929,6.998 -4.4,6.998C-0.298,6.998 3.027,3.812 3.027,-0.12C3.027,-2.607 1.694,-4.793 -0.321,-6.066" style="fill:rgb(253,250,201);fill-rule:nonzero;"/>
        </g>
        <g transform="matrix(1,0,0,1,184.447,253.321)">
            <path d="M0,9.486L6.564,9.223L3.282,0C3.282,0 -0.087,9.135 0,9.486" style="fill:rgb(253,250,201);fill-rule:nonzero;"/>
        </g>
        <g transform="matrix(1,0,0,1,209.933,242.737)">
            <path d="M0,-0.303C-0.544,-0.56 -1.085,-0.824 -1.622,-1.094L-8.864,-1.094C-8.026,-0.602 -7.154,-0.129 -6.238,0.317C-5.884,0.489 -5.558,0.631 -5.215,0.791L-0.912,0.791C-0.392,0.791 0.03,0.369 0.03,-0.151C0.03,-0.205 0.008,-0.252 0,-0.303" style="fill:rgb(20,18,18);fill-rule:nonzero;"/>
        </g>
        <g transform="matrix(1,0,0,1,164.668,243.487)">
            <path d="M0,-1.803C-0.282,-1.617 -0.56,-1.427 -0.845,-1.246C-0.888,-1.139 -0.915,-1.024 -0.915,-0.901C-0.915,-0.39 -0.507,0.02 0,0.035C0.01,0.036 0.018,0.041 0.027,0.041L4.179,0.041C5.097,-0.517 6,-1.151 6.878,-1.844L0.059,-1.844C0.04,-1.83 0.02,-1.816 0,-1.803" style="fill:rgb(20,18,18);fill-rule:nonzero;"/>
        </g>
        <g transform="matrix(1,0,0,1,224.494,259.216)">
            <path d="M0,-11.56C-0.14,-11.619 -0.282,-11.672 -0.427,-11.721C-0.449,-11.729 -0.472,-11.736 -0.494,-11.743C-0.788,-11.838 -1.09,-11.919 -1.404,-11.969C-1.444,-11.976 -1.483,-11.977 -1.523,-11.982C-1.559,-11.973 -1.59,-11.957 -1.628,-11.953C-1.746,-11.94 -1.872,-11.947 -2.01,-11.99C-2.061,-12.005 -2.112,-12.022 -2.163,-12.038C-2.234,-12.04 -2.304,-12.039 -2.375,-12.039C-2.341,-12.05 -2.297,-12.064 -2.275,-12.073C-2.386,-12.107 -2.498,-12.143 -2.608,-12.177C-2.915,-12.272 -3.221,-12.367 -3.527,-12.465C-3.781,-12.547 -4.034,-12.632 -4.288,-12.716C-5.354,-13.068 -6.42,-13.438 -7.481,-13.828C-9.875,-14.707 -12.248,-15.688 -14.562,-16.782C-14.553,-16.731 -14.531,-16.685 -14.531,-16.63C-14.531,-16.11 -14.953,-15.688 -15.474,-15.688L-19.777,-15.688C-14.333,-13.148 -10.295,-12.127 -7.481,-11.803C-7.198,-11.77 -6.921,-11.741 -6.662,-11.721C-6.582,-11.715 -6.501,-11.709 -6.424,-11.704C-5.629,-11.653 -4.961,-11.66 -4.401,-11.696C-4.291,-11.704 -4.187,-11.712 -4.085,-11.721C-3.874,-11.741 -3.682,-11.763 -3.508,-11.789C-3.111,-11.847 -2.809,-11.913 -2.599,-11.972C-2.596,-11.887 -2.591,-11.807 -2.588,-11.721C-2.58,-11.509 -2.566,-11.311 -2.56,-11.097C-2.532,-10.164 -2.521,-9.197 -2.518,-8.21C-2.426,-8.262 -2.311,-8.279 -2.175,-8.229C-1.979,-8.158 -1.776,-8.087 -1.572,-8.014C-0.649,-7.684 0.289,-7.289 0.682,-6.343C0.693,-6.315 0.698,-6.286 0.709,-6.257C1.039,-5.389 0.947,-4.42 0.756,-3.491C0.74,-3.413 0.726,-3.334 0.709,-3.257C0.631,-2.906 0.544,-2.562 0.465,-2.235C-0.054,-0.086 -0.293,2.211 -2.722,1.893C-2.868,1.875 -3.025,1.842 -3.188,1.804C-3.226,1.794 -3.259,1.791 -3.298,1.781C-3.39,2.307 -3.488,2.827 -3.596,3.334C-3.647,3.577 -3.705,3.813 -3.761,4.052C-3.833,4.367 -3.909,4.677 -3.988,4.984C-3.83,5.006 -3.673,5.026 -3.517,5.036C-0.418,5.222 2.401,3.016 2.901,-0.111L3.677,-4.951C4.131,-7.784 2.537,-10.488 0,-11.56" style="fill:rgb(188,98,86);fill-rule:nonzero;"/>
        </g>
        <g transform="matrix(1,0,0,1,194.204,288.69)">
            <path d="M0,-0.184L-0.104,-1.2L-0.163,-1.781L-0.206,-2.204L-0.245,-2.58C-0.367,-2.565 -0.491,-2.551 -0.614,-2.538C-0.83,-2.513 -1.048,-2.494 -1.265,-2.471C-2.806,-2.316 -4.379,-2.221 -5.978,-2.187C-6.458,-2.177 -6.938,-2.168 -7.422,-2.168C-8.012,-2.168 -8.598,-2.176 -9.181,-2.19C-10.161,-2.213 -11.128,-2.263 -12.087,-2.33C-12.69,-2.372 -13.288,-2.422 -13.881,-2.482C-13.887,-2.483 -13.894,-2.483 -13.9,-2.484C-14.157,-2.465 -14.395,-2.445 -14.601,-2.422C-15.137,-2.364 -15.476,-2.293 -15.563,-2.209C-15.576,-2.196 -15.593,-2.183 -15.593,-2.168C-15.584,-2.16 -15.574,-2.151 -15.565,-2.142C-15.539,-2.115 -15.51,-2.089 -15.484,-2.062C-15.434,-2.011 -15.382,-1.961 -15.33,-1.912C-15.117,-1.705 -14.896,-1.506 -14.663,-1.319C-14.659,-1.315 -14.655,-1.311 -14.65,-1.308C-14.333,-1.054 -13.996,-0.819 -13.647,-0.598C-13.152,-0.286 -12.629,-0.007 -12.087,0.244C-8.302,1.998 -3.604,2.337 -1.242,2.387C-0.817,2.396 -0.466,2.396 -0.211,2.393C0.093,2.39 0.263,2.382 0.263,2.382L0.15,1.28L0,-0.184Z" style="fill:rgb(188,98,86);fill-rule:nonzero;"/>
        </g>
        <g transform="matrix(1,0,0,1,161.444,264.497)">
            <path d="M0,-1.885L-0.125,-1.885C-0.655,-1.885 -0.94,-1.522 -1.007,-1.115C-1.045,-0.885 -1.007,-0.651 -0.896,-0.448L-0.346,-0.045C-0.273,-0.029 -0.209,0 -0.125,0L0,0C0.152,0 0.285,-0.03 0.399,-0.081C1.193,-0.444 1.062,-1.885 0,-1.885" style="fill:rgb(188,98,86);fill-rule:nonzero;"/>
        </g>
        <g transform="matrix(1,0,0,1,164.939,266.12)">
            <path d="M0,-1.885C-1.212,-1.885 -1.215,0 0,0C1.213,0 1.215,-1.885 0,-1.885" style="fill:rgb(188,98,86);fill-rule:nonzero;"/>
        </g>
        <g transform="matrix(1,0,0,1,165.189,263.124)">
            <path d="M0,-1.885C-1.212,-1.885 -1.214,0 0,0C1.213,0 1.215,-1.885 0,-1.885" style="fill:rgb(188,98,86);fill-rule:nonzero;"/>
        </g>
        <g transform="matrix(1,0,0,1,168.06,264.248)">
            <path d="M0,-1.885C-1.213,-1.885 -1.215,0 0,0C1.213,0 1.215,-1.885 0,-1.885" style="fill:rgb(188,98,86);fill-rule:nonzero;"/>
        </g>
        <g transform="matrix(-1,0,0,1,201.886,264.497)">
            <path d="M-0.124,-1.885L0.001,-1.885C1.213,-1.885 1.215,0 0.001,0L-0.124,0C-1.337,0 -1.339,-1.885 -0.124,-1.885" style="fill:rgb(188,98,86);fill-rule:nonzero;"/>
        </g>
        <g transform="matrix(1,0,0,1,206.67,262.482)">
            <path d="M0,-1.465C-0.012,-1.478 -0.025,-1.489 -0.037,-1.502L-0.125,-1.59C-0.726,-2.191 -1.543,-1.715 -1.695,-1.083C-1.76,-0.813 -1.716,-0.516 -1.458,-0.257C-1.416,-0.216 -1.375,-0.174 -1.333,-0.133C-0.474,0.726 0.859,-0.607 0,-1.465" style="fill:rgb(188,98,86);fill-rule:nonzero;"/>
        </g>
        <g transform="matrix(0,1,1,0,206.94,264.673)">
            <path d="M0.879,-1.005L1.004,-1.005C2.217,-1.005 2.219,0.879 1.004,0.879L0.879,0.879C-0.333,0.879 -0.335,-1.005 0.879,-1.005" style="fill:rgb(188,98,86);fill-rule:nonzero;"/>
        </g>
        <g transform="matrix(-0.928331,0.371756,0.371756,0.928331,209.901,264.176)">
            <path d="M0.351,-1.821C0.444,-1.813 0.537,-1.806 0.63,-1.798C1.838,-1.696 1.558,0.167 0.351,0.068C0.258,0.06 0.166,0.051 0.073,0.044C-1.136,-0.057 -0.856,-1.92 0.351,-1.821" style="fill:rgb(188,98,86);fill-rule:nonzero;"/>
        </g>
        <g transform="matrix(1,0,0,1,221.978,251.838)">
            <path d="M0,8.311C1.635,8.285 1.867,5.852 2.156,4.547C2.203,4.337 2.258,4.115 2.313,3.887C2.438,3.363 2.553,2.809 2.491,2.307C2.339,1.075 1.727,0.672 0.899,0.351C0.646,0.252 0.375,0.162 0.09,0.057C0.05,0.042 0.024,0.018 -0.007,-0.002C-0.022,2.007 -0.128,3.906 -0.313,5.707C-0.402,6.574 -0.508,7.419 -0.635,8.24C-0.608,8.243 -0.585,8.237 -0.557,8.245C-0.523,8.253 -0.494,8.254 -0.46,8.262C-0.295,8.298 -0.143,8.313 0,8.311" style="fill:rgb(188,98,86);fill-rule:nonzero;"/>
        </g>
        <g transform="matrix(1,0,0,1,189.968,278.949)">
            <path d="M0,-1.912C-1.144,-1.231 -2.85,-1.354 -4.078,-1.825C-4.356,-1.932 -4.615,-1.81 -4.731,-1.638C-4.991,-1.523 -5.014,-1.216 -4.831,-1.038C-4.71,-0.92 -4.572,-0.836 -4.44,-0.739C-4.106,-0.493 -3.753,-0.289 -3.374,-0.163C-3.225,-0.094 -3.071,-0.031 -2.905,0.018C-2.258,0.205 -1.646,0.155 -1.034,-0.082C-0.937,-0.119 -0.877,-0.18 -0.842,-0.248C-0.758,-0.282 -0.677,-0.326 -0.595,-0.366C-0.136,-0.596 0.284,-0.915 0.611,-1.361C0.612,-1.362 0.612,-1.364 0.613,-1.365C0.637,-1.398 0.648,-1.434 0.659,-1.471C0.669,-1.505 0.674,-1.536 0.673,-1.568C0.672,-1.848 0.345,-2.117 0,-1.912" style="fill:rgb(188,98,86);fill-rule:nonzero;"/>
        </g>
        <g transform="matrix(1,0,0,1,208.31,219.073)">
            <path d="M0,22.571C-2.276,21.426 -4.484,20.166 -6.589,18.775C-7.32,18.292 -8.041,17.796 -8.746,17.28C-10.48,16.013 -12.127,14.645 -13.667,13.172C-14.407,12.465 -15.121,11.732 -15.809,10.974C-18.693,7.792 -21.084,4.155 -22.801,0C-23.876,1.735 -25.007,3.443 -26.194,5.116C-27.424,6.851 -28.715,8.543 -30.07,10.178C-30.29,10.444 -30.507,10.712 -30.731,10.974C-31.365,11.719 -32.011,12.454 -32.673,13.172C-35.956,16.734 -39.588,19.925 -43.583,22.571L-36.764,22.571C-32.513,19.222 -28.794,14.558 -26.272,10.974C-26.245,10.936 -26.22,10.9 -26.194,10.863C-24.093,7.866 -22.84,5.65 -22.84,5.65C-22.84,5.65 -21.9,7.901 -19.746,10.974C-17.502,14.174 -13.937,18.263 -8.746,21.639C-8.258,21.956 -7.758,22.268 -7.242,22.571L0,22.571Z" style="fill:rgb(188,98,86);fill-rule:nonzero;"/>
        </g>
        <g transform="matrix(1,0,0,1,168.06,262.517)">
            <path d="M0,-18.529C0.264,-18.675 0.526,-18.83 0.788,-18.988L-3.364,-18.988C-3.374,-18.988 -3.381,-18.994 -3.391,-18.994C-3.898,-19.009 -4.306,-19.42 -4.306,-19.931C-4.306,-20.053 -4.279,-20.169 -4.236,-20.276C-7.069,-18.487 -10.092,-16.993 -13.3,-15.833C-13.346,-15.816 -13.392,-15.8 -13.438,-15.784C-13.947,-15.602 -14.451,-15.41 -14.97,-15.245C-15.138,-15.193 -15.307,-15.145 -15.476,-15.093C-15.562,-15.068 -15.651,-15.048 -15.738,-15.022C-15.957,-14.957 -16.18,-14.903 -16.4,-14.841C-16.592,-14.787 -16.784,-14.735 -16.977,-14.684C-17.111,-14.648 -17.242,-14.609 -17.376,-14.575C-17.653,-14.504 -17.921,-14.415 -18.201,-14.35C-18.543,-14.269 -18.819,-14.375 -19.022,-14.559C-19.731,-14.16 -20.346,-13.629 -20.839,-13C-21.86,-11.701 -22.366,-10.001 -22.085,-8.251L-21.31,-3.411C-21.223,-2.864 -21.058,-2.349 -20.839,-1.866C-19.925,0.154 -17.963,1.54 -15.746,1.721C-15.512,1.739 -15.276,1.747 -15.038,1.738C-15.116,1.425 -15.194,1.111 -15.266,0.79C-15.479,-0.157 -15.664,-1.142 -15.821,-2.161C-15.854,-2.021 -15.95,-1.901 -16.143,-1.867C-16.298,-1.842 -16.44,-1.83 -16.579,-1.821C-19.131,-1.669 -19.22,-4.4 -19.529,-6.599C-19.538,-6.662 -19.546,-6.727 -19.554,-6.791C-19.826,-8.845 -19.843,-11.327 -17.415,-11.572C-17.267,-11.588 -17.114,-11.597 -16.947,-11.595C-16.557,-11.59 -16.421,-11.2 -16.533,-10.923C-16.588,-10.754 -16.73,-10.617 -16.961,-10.617C-17.009,-10.617 -17.046,-10.632 -17.087,-10.644C-17.197,-10.639 -17.306,-10.633 -17.403,-10.616C-19.082,-10.324 -18.844,-8.214 -18.619,-6.791C-18.588,-6.6 -18.559,-6.418 -18.533,-6.258C-18.365,-5.179 -18.347,-2.793 -16.755,-2.75C-16.642,-2.747 -16.523,-2.755 -16.394,-2.777C-16.145,-2.819 -15.961,-2.681 -15.87,-2.502C-15.956,-3.083 -16.036,-3.671 -16.104,-4.277C-16.108,-4.321 -16.111,-4.344 -16.113,-4.366C-16.347,-6.495 -16.476,-8.761 -16.476,-11.194C-16.476,-12.289 -16.457,-13.346 -16.422,-14.374C-16.419,-14.471 -16.412,-14.56 -16.409,-14.655C-16.125,-14.646 -15.815,-14.64 -15.489,-14.639C-14.846,-14.635 -14.119,-14.656 -13.333,-14.706C-12.832,-14.737 -12.312,-14.779 -11.763,-14.841C-11.325,-14.889 -10.871,-14.951 -10.406,-15.022C-8.272,-15.349 -5.88,-15.929 -3.391,-16.926C-2.273,-17.374 -1.139,-17.9 0,-18.529" style="fill:rgb(188,98,86);fill-rule:nonzero;"/>
        </g>
        <g transform="matrix(1,0,0,1,191.481,266.943)">
            <path d="M0,-2.692L0.05,-3.228L-7.554,-2.924L-7.502,-2.424C-7.485,-2.258 -7.437,-2.064 -7.373,-1.862C-7.04,-0.819 -6.034,0.536 -3.751,0.536C-1.619,0.536 -0.602,-0.751 -0.204,-1.847C-0.093,-2.153 -0.022,-2.448 0,-2.692" style="fill:rgb(188,98,86);fill-rule:nonzero;"/>
        </g>
        <g transform="matrix(1,0,0,1,181.429,268.039)">
            <path d="M0,7.855C0,6.704 0.828,5.671 2.138,4.953C2.519,4.745 2.936,4.56 3.391,4.41C4.319,4.103 5.385,3.928 6.519,3.928C7.579,3.928 8.577,4.084 9.462,4.354C9.746,4.441 10.019,4.54 10.277,4.65C11.945,5.361 13.038,6.53 13.038,7.855C13.038,9.343 11.663,10.638 9.637,11.304C9.189,11.452 8.708,11.564 8.204,11.645C7.666,11.732 7.103,11.783 6.519,11.783C5.353,11.783 4.26,11.595 3.313,11.272C2.84,11.111 2.404,10.915 2.014,10.689C0.775,9.974 0,8.97 0,7.855M35.774,-6.801L35.584,-6.652L35.034,-6.22L34.291,-5.637L16.906,8.013C16.906,8.013 15.484,0.71 6.3,0.71C-2.883,0.71 -3.76,8.602 -3.76,8.602L-20.331,-3.586L-20.88,-3.99L-23.046,-5.583L-23.808,-6.144L-24.571,-6.706L-28.385,-9.511L-29.017,-9.975C-29.017,-9.975 -28.863,-7.847 -27.972,-4.772C-27.885,-4.474 -27.789,-4.165 -27.688,-3.849C-27.594,-3.555 -27.492,-3.255 -27.384,-2.949C-24.908,4.103 -18.74,14.307 -3.563,17.177C-3.256,17.236 -2.945,17.29 -2.631,17.342C-2.325,17.392 -2.008,17.433 -1.695,17.478C-0.923,17.588 -0.129,17.678 0.688,17.751C0.794,17.76 0.902,17.769 1.009,17.778C2.346,17.887 3.72,17.962 5.177,17.962C6.632,17.962 8.006,17.887 9.343,17.778C10.272,17.702 11.175,17.602 12.049,17.477C12.362,17.432 12.679,17.391 12.985,17.341C13.298,17.29 13.609,17.236 13.916,17.177C29.172,14.298 35.567,4.038 38.198,-3.049C38.311,-3.354 38.418,-3.652 38.518,-3.944C38.624,-4.255 38.726,-4.561 38.818,-4.857C39.094,-5.745 39.307,-6.549 39.47,-7.252C39.353,-7.459 39.42,-7.749 39.612,-7.89C39.902,-9.264 39.984,-10.107 39.984,-10.107L38.892,-9.249L35.774,-6.801Z" style="fill:rgb(56,45,42);fill-rule:nonzero;"/>
        </g>
        <g transform="matrix(1,0,0,1,217.562,236.475)">
            <path d="M0,-19.974C3.298,-17.748 4.247,-13.36 4.759,-9.657C4.923,-8.469 3.107,-7.96 2.941,-9.156C2.515,-12.241 1.84,-16.462 -0.951,-18.347C-1.952,-19.023 -1.008,-20.655 0,-19.974M-62.728,-19.906C-57.473,-24.137 -51.359,-26.899 -44.686,-27.937C-43.498,-28.122 -42.99,-26.306 -44.185,-26.12C-50.515,-25.135 -56.398,-22.596 -61.395,-18.574C-62.331,-17.819 -63.672,-19.145 -62.728,-19.906M-40.585,-28.673L-40.468,-28.673C-39.253,-28.673 -39.255,-26.788 -40.468,-26.788L-40.585,-26.788C-41.799,-26.788 -41.797,-28.673 -40.585,-28.673M7.378,10.348L7.322,-11.752C7.322,-11.752 7.638,-30.7 -29.031,-31.136C-29.458,-31.141 -29.863,-31.156 -30.3,-31.156C-30.854,-31.156 -31.372,-31.139 -31.909,-31.131C-68.247,-30.599 -68.321,-12.358 -68.321,-12.358L-68.321,9.929C-68.279,9.914 -68.251,9.886 -68.205,9.876C-67.944,9.814 -67.695,9.732 -67.437,9.666C-67.417,9.661 -67.398,9.655 -67.378,9.65C-67.19,9.602 -67.005,9.547 -66.817,9.497C-66.48,9.405 -66.141,9.32 -65.808,9.221C-65.509,9.132 -65.208,9.046 -64.912,8.95C-64.199,8.721 -63.497,8.472 -62.803,8.208C-59.253,6.859 -55.96,5.061 -52.894,2.929C-49.887,0.837 -47.102,-1.578 -44.527,-4.23C-43.831,-4.947 -43.149,-5.679 -42.483,-6.428C-41.393,-7.653 -40.334,-8.911 -39.322,-10.209C-37.96,-11.955 -36.672,-13.76 -35.446,-15.601C-34.605,-16.864 -33.798,-18.144 -33.018,-19.436C-32.978,-19.501 -32.938,-19.567 -32.898,-19.632C-32.911,-19.67 -32.925,-19.706 -32.938,-19.743C-33.015,-19.974 -32.987,-20.169 -32.917,-20.339C-32.686,-20.902 -31.824,-21.092 -31.354,-20.62C-31.206,-20.555 -31.067,-20.471 -30.963,-20.349C-30.763,-20.117 -30.696,-19.794 -30.835,-19.454C-30.83,-19.439 -30.824,-19.424 -30.818,-19.408C-28.974,-14.345 -26.085,-10.059 -22.505,-6.428C-21.756,-5.668 -20.979,-4.934 -20.172,-4.23C-19.468,-3.614 -18.741,-3.021 -17.998,-2.447C-17.295,-1.903 -16.574,-1.379 -15.841,-0.871C-11.169,2.364 -5.913,4.902 -0.55,6.911C0.741,7.394 2.037,7.846 3.333,8.271C3.366,8.281 3.399,8.292 3.433,8.303C3.698,8.39 3.964,8.477 4.229,8.561C4.568,8.669 4.908,8.776 5.247,8.88C5.306,8.898 5.364,8.917 5.423,8.935C5.925,9.088 6.102,9.516 6.062,9.923C6.038,10.181 5.925,10.42 5.736,10.586C6.004,10.686 6.231,10.769 6.437,10.844C7.036,11.063 7.38,11.182 7.38,11.182L7.378,10.348Z" style="fill:rgb(56,45,42);fill-rule:nonzero;"/>
        </g>
        <g transform="matrix(1,0,0,1,227.24,259.223)">
            <path d="M0,-5.107L-0.775,-0.267C-1.188,2.315 -3.46,4.126 -6,4.075C-5.807,3.367 -5.63,2.636 -5.468,1.886C-3.039,2.205 -2.8,-0.093 -2.281,-2.242C-2.202,-2.569 -2.115,-2.913 -2.037,-3.264C-2.02,-3.341 -2.006,-3.42 -1.99,-3.498C-1.799,-4.427 -1.708,-5.396 -2.037,-6.264C-2.048,-6.293 -2.053,-6.322 -2.064,-6.35C-2.457,-7.296 -3.396,-7.691 -4.318,-8.021C-4.319,-9.054 -4.328,-10.065 -4.347,-11.049C-4.331,-11.046 -4.315,-11.048 -4.299,-11.046C-2.938,-10.828 -1.74,-10.087 -0.925,-8.962C-0.11,-7.836 0.218,-6.467 0,-5.107M-6.819,-1.112L-10.228,1.564L-10.291,1.614L-11.045,2.206L-11.791,2.791L-28.649,16.029C-29.308,14.124 -31.786,9.054 -39.511,9.054C-47.267,9.054 -49.371,14.544 -49.886,16.6L-65.397,5.193L-66.803,4.159L-68.583,2.85L-69.345,2.289L-70.11,1.726L-74.288,-1.346C-74.556,-3.384 -74.714,-5.553 -74.714,-7.9C-74.714,-8.986 -74.701,-10.036 -74.678,-11.064C-74.676,-11.159 -74.672,-11.25 -74.67,-11.345L-74.679,-11.345L-74.663,-11.798C-74.661,-11.799 -74.658,-11.799 -74.656,-11.8C-74.488,-11.851 -74.318,-11.899 -74.151,-11.952C-73.632,-12.116 -73.128,-12.308 -72.618,-12.491C-72.573,-12.507 -72.526,-12.523 -72.481,-12.539C-69.273,-13.7 -66.25,-15.193 -63.417,-16.982C-63.132,-17.163 -62.854,-17.354 -62.572,-17.539C-62.552,-17.552 -62.532,-17.566 -62.513,-17.58C-58.518,-20.225 -54.886,-23.417 -51.603,-26.979C-50.941,-27.696 -50.295,-28.431 -49.661,-29.176C-49.437,-29.439 -49.22,-29.707 -49,-29.973C-47.645,-31.608 -46.354,-33.3 -45.124,-35.035C-43.937,-36.708 -42.806,-38.416 -41.73,-40.15C-40.014,-35.996 -37.623,-32.359 -34.738,-29.176C-34.051,-28.419 -33.336,-27.686 -32.597,-26.979C-31.057,-25.505 -29.41,-24.138 -27.676,-22.87C-26.971,-22.355 -26.25,-21.859 -25.519,-21.376C-23.414,-19.985 -21.206,-18.724 -18.93,-17.58C-18.393,-17.31 -17.852,-17.046 -17.308,-16.789C-14.994,-15.695 -12.622,-14.714 -10.228,-13.835C-9.166,-13.445 -8.101,-13.075 -7.034,-12.723C-6.784,-12.64 -6.533,-12.556 -6.282,-12.475L-6.233,-11.07C-6.232,-11.039 -6.231,-11.01 -6.23,-10.979C-6.212,-9.983 -6.202,-8.962 -6.202,-7.914C-6.274,-5.475 -6.494,-3.223 -6.819,-1.112M-7.831,3.712C-7.915,4.022 -8,4.331 -8.089,4.632C-8.181,4.938 -8.28,5.234 -8.377,5.533C-9.075,7.667 -9.916,9.595 -10.881,11.325C-14.48,17.224 -20.848,23.394 -32.017,25.523C-32.324,25.581 -32.632,25.64 -32.947,25.693C-33.254,25.744 -33.565,25.791 -33.88,25.836C-35.828,26.115 -37.912,26.274 -40.142,26.295C-40.309,26.296 -40.466,26.307 -40.635,26.307C-40.805,26.307 -40.963,26.296 -41.131,26.295C-42.432,26.284 -43.677,26.223 -44.878,26.123C-44.96,26.115 -45.041,26.108 -45.124,26.099C-45.84,26.022 -46.595,25.922 -47.379,25.797C-47.685,25.749 -47.994,25.697 -48.309,25.64C-48.616,25.584 -48.923,25.53 -49.238,25.465C-57.583,23.764 -68.294,18.939 -72.688,5.759C-72.788,5.459 -72.896,5.169 -72.989,4.861C-73.08,4.56 -73.155,4.241 -73.239,3.932C-73.583,2.675 -73.878,1.358 -74.106,-0.044L-70.695,2.465L-69.921,3.035L-69.153,3.599L-49.851,17.796C-49.715,17.897 -49.537,17.917 -49.382,17.849C-49.228,17.782 -49.122,17.636 -49.103,17.47C-49.069,17.164 -48.173,9.997 -39.511,9.997C-30.844,9.997 -29.424,16.637 -29.368,16.919C-29.336,17.08 -29.223,17.213 -29.069,17.27C-28.916,17.326 -28.743,17.299 -28.615,17.2L-11.226,3.546L-10.482,2.963L-10.228,2.763L-9.725,2.369L-7.046,0.265C-7.269,1.468 -7.532,2.616 -7.831,3.712M-47.687,28.82L-47.687,27.852C-47.687,27.789 -47.679,27.728 -47.677,27.664C-47.252,27.731 -46.837,27.791 -46.43,27.844C-45.982,27.902 -45.547,27.953 -45.124,27.996C-43.992,28.11 -42.955,28.177 -42.044,28.209C-41.465,28.23 -40.928,28.241 -40.458,28.241C-40.028,28.241 -39.566,28.232 -39.092,28.218C-37.75,28.18 -36.25,28.084 -34.633,27.886C-34.291,27.844 -33.939,27.793 -33.588,27.742C-33.588,27.779 -33.583,27.815 -33.583,27.852L-33.583,28.82C-33.583,28.921 -33.594,29.02 -33.598,29.121C-33.639,30.096 -33.878,31.019 -34.278,31.854C-35.415,34.226 -37.833,35.872 -40.635,35.872C-42.339,35.872 -43.903,35.264 -45.124,34.254C-46.615,33.02 -47.584,31.182 -47.671,29.121C-47.676,29.02 -47.687,28.921 -47.687,28.82M-25.519,33.036C-24.316,33.927 -23.215,34.92 -22.237,36.003C-19.266,39.296 -17.41,43.402 -17.181,47.873L-64.088,47.873C-63.859,43.402 -62.003,39.296 -59.032,36.003C-56.545,33.248 -53.279,31.062 -49.526,29.706C-49.449,30.485 -49.264,31.229 -49,31.936C-48.388,33.574 -47.312,34.982 -45.928,36.003C-44.444,37.1 -42.617,37.757 -40.635,37.757C-38.652,37.757 -36.825,37.1 -35.341,36.003C-33.36,34.54 -31.998,32.287 -31.743,29.706C-29.466,30.529 -27.372,31.661 -25.519,33.036M-75.936,0.543C-77.527,0.5 -77.545,-1.885 -77.714,-2.964C-77.739,-3.125 -77.769,-3.306 -77.8,-3.498C-78.025,-4.92 -78.263,-7.031 -76.584,-7.323C-76.556,-4.484 -76.335,-1.863 -75.936,0.543M-77.477,3.108C-78.603,2.292 -79.342,1.094 -79.561,-0.267L-80.02,-3.136L-80.335,-5.107C-80.488,-6.057 -80.351,-6.982 -80.02,-7.818C-79.433,-9.302 -78.181,-10.466 -76.568,-10.905C-76.586,-10.051 -76.593,-9.171 -76.595,-8.279C-79.023,-8.034 -79.006,-5.551 -78.735,-3.498C-78.727,-3.433 -78.719,-3.369 -78.71,-3.305C-78.4,-1.106 -78.312,1.624 -75.76,1.472C-75.594,2.349 -75.405,3.198 -75.195,4.019C-76.006,3.898 -76.789,3.605 -77.477,3.108M-77.056,-13.099L-77.056,-35.107C-77.056,-51.14 -47.752,-52.801 -40.148,-52.962C-32.544,-52.801 -3.24,-51.14 -3.24,-35.107L-3.24,-13.496C-3.568,-13.588 -3.933,-13.695 -4.174,-13.773C-4.203,-13.784 -4.223,-13.804 -4.255,-13.814C-4.313,-13.832 -4.372,-13.851 -4.431,-13.869C-4.77,-13.973 -5.109,-14.08 -5.449,-14.188C-5.714,-14.272 -5.979,-14.359 -6.245,-14.445C-6.278,-14.457 -6.312,-14.467 -6.345,-14.478C-7.641,-14.903 -8.937,-15.355 -10.228,-15.838C-15.591,-17.847 -20.847,-20.384 -25.519,-23.62C-26.252,-24.128 -26.973,-24.652 -27.676,-25.195C-28.419,-25.77 -29.146,-26.363 -29.85,-26.979C-30.656,-27.683 -31.434,-28.417 -32.183,-29.176C-35.763,-32.808 -38.651,-37.093 -40.496,-42.157C-40.502,-42.172 -40.507,-42.188 -40.513,-42.203C-40.374,-42.543 -40.44,-42.865 -40.641,-43.098C-40.745,-43.219 -40.884,-43.304 -41.031,-43.368C-41.502,-43.841 -42.363,-43.651 -42.595,-43.087C-42.665,-42.918 -42.693,-42.723 -42.616,-42.492C-42.603,-42.455 -42.588,-42.419 -42.576,-42.381C-42.615,-42.315 -42.656,-42.25 -42.695,-42.185C-43.476,-40.893 -44.283,-39.613 -45.124,-38.35C-46.35,-36.509 -47.638,-34.704 -49,-32.958C-50.012,-31.66 -51.071,-30.402 -52.161,-29.176C-52.827,-28.428 -53.508,-27.695 -54.205,-26.979C-56.78,-24.326 -59.564,-21.912 -62.572,-19.82C-65.638,-17.688 -68.931,-15.89 -72.481,-14.541C-73.174,-14.277 -73.876,-14.028 -74.589,-13.798C-74.886,-13.703 -75.187,-13.617 -75.486,-13.528C-75.818,-13.429 -76.158,-13.343 -76.495,-13.252C-76.683,-13.201 -76.868,-13.147 -77.056,-13.099ZM-4.362,-7.034C-3.535,-6.712 -2.922,-6.31 -2.771,-5.078C-2.709,-4.576 -2.823,-4.022 -2.949,-3.498C-3.003,-3.27 -3.059,-3.047 -3.105,-2.837C-3.395,-1.533 -3.626,0.9 -5.262,0.926C-4.791,-1.505 -4.486,-4.157 -4.362,-7.034M0.602,-10.067C0.062,-10.812 -0.603,-11.43 -1.355,-11.906L-1.355,-35.107C-1.355,-51.974 -28.303,-54.477 -38.709,-54.814L-38.709,-54.865C-39.099,-54.865 -39.588,-54.861 -40.148,-54.851C-40.708,-54.861 -41.197,-54.865 -41.587,-54.865L-41.587,-54.814C-51.993,-54.477 -78.941,-51.974 -78.941,-35.107L-78.941,-11.933C-81.287,-10.474 -82.66,-7.703 -82.196,-4.808L-81.421,0.031C-81.124,1.889 -80.115,3.524 -78.582,4.634C-77.414,5.479 -76.051,5.928 -74.646,5.968C-70.099,20.386 -58.49,25.549 -49.545,27.335C-49.553,27.466 -49.563,27.597 -49.565,27.73C-59.156,30.947 -65.997,39.183 -65.997,48.816L-65.997,49.758L-15.272,49.758L-15.272,48.816C-15.272,39.183 -22.113,30.947 -31.704,27.73C-31.706,27.629 -31.715,27.53 -31.72,27.429C-22.557,25.689 -11.277,20.476 -6.548,5.931C-6.329,5.952 -6.107,5.983 -5.891,5.983C-2.481,5.983 0.53,3.503 1.086,0.031L1.861,-4.808C2.159,-6.666 1.711,-8.534 0.602,-10.067" style="fill:rgb(47,40,57);fill-rule:nonzero;"/>
        </g>
        <g transform="matrix(1,0,0,1,190.456,272.766)">
            <path d="M0,6.257C-0.594,6.417 -1.234,6.527 -1.906,6.567C-2.104,6.578 -2.305,6.584 -2.508,6.584C-3.246,6.584 -3.956,6.5 -4.617,6.355C-5.269,6.211 -5.871,6.005 -6.397,5.748C-7.708,5.109 -8.556,4.163 -8.556,3.128C-8.556,2.234 -7.92,1.408 -6.904,0.787C-6.862,0.941 -6.796,1.088 -6.676,1.208C-5.526,2.365 -4.237,2.951 -2.848,2.951C-0.539,2.951 1.153,1.28 1.224,1.208C1.401,1.03 1.488,0.799 1.493,0.567C2.738,1.205 3.54,2.123 3.54,3.128C3.54,4.493 2.066,5.7 0,6.257M-2.508,-0.328C-1.69,-0.328 -0.905,-0.229 -0.185,-0.053C-0.674,0.396 -2.866,2.142 -5.161,0.04C-4.354,-0.192 -3.454,-0.328 -2.508,-0.328M-2.508,-1.27C-6.428,-1.27 -9.498,0.661 -9.498,3.128C-9.498,4.33 -8.764,5.404 -7.562,6.191C-7.232,6.406 -6.87,6.602 -6.474,6.77C-5.933,7.001 -5.333,7.185 -4.692,7.314C-4.007,7.45 -3.275,7.527 -2.508,7.527C-2.338,7.527 -2.172,7.519 -2.005,7.511C-1.335,7.483 -0.695,7.397 -0.095,7.262C0.337,7.164 0.748,7.041 1.134,6.896C3.153,6.133 4.482,4.747 4.482,3.128C4.482,0.661 1.412,-1.27 -2.508,-1.27" style="fill:rgb(47,40,57);fill-rule:nonzero;"/>
        </g>
        <g transform="matrix(1,0,0,1,169.464,247.265)">
            <path d="M0,12.353C-1.901,12.353 -3.608,11.565 -4.795,10.319C-5.841,9.221 -6.484,7.771 -6.484,6.176C-6.484,4.581 -5.841,3.13 -4.795,2.033C-3.983,1.181 -2.928,0.546 -1.732,0.23C-1.18,0.083 -0.601,-0.001 0,-0.001C0.601,-0.001 1.18,0.083 1.732,0.23C4.468,0.954 6.484,3.342 6.484,6.176C6.484,9.582 3.575,12.353 0,12.353M0,-1.885C-4.615,-1.885 -8.369,1.73 -8.369,6.176C-8.369,10.621 -4.615,14.238 0,14.238C4.614,14.238 8.369,10.621 8.369,6.176C8.369,1.73 4.614,-1.885 0,-1.885" style="fill:rgb(47,40,57);fill-rule:nonzero;"/>
        </g>
        <g transform="matrix(1,0,0,1,172.919,253.301)">
            <path d="M0,0.038C-0.011,1.781 -1.556,3.196 -3.455,3.196C-5.361,3.196 -6.913,1.771 -6.913,0.019C-6.913,-1.733 -5.361,-3.157 -3.455,-3.157C-3.097,-3.157 -2.757,-3.093 -2.432,-2.999C-2.326,-3.313 -2.159,-3.596 -1.939,-3.833C-1.681,-4.11 -1.357,-4.319 -0.991,-4.444C-1.732,-4.814 -2.562,-5.042 -3.455,-5.042C-5.57,-5.042 -7.386,-3.862 -8.25,-2.169C-8.59,-1.504 -8.797,-0.768 -8.797,0.019C-8.797,0.807 -8.59,1.543 -8.25,2.208C-7.386,3.9 -5.57,5.08 -3.455,5.08C-0.51,5.08 1.887,2.809 1.887,0.019C1.887,-0.362 1.834,-0.731 1.749,-1.087C1.546,-0.743 1.26,-0.459 0.915,-0.259C0.64,-0.099 0.332,0.003 0,0.038" style="fill:rgb(47,40,57);fill-rule:nonzero;"/>
        </g>
        <g transform="matrix(1,0,0,1,203.695,247.265)">
            <path d="M0,12.353C-1.568,12.353 -3.007,11.819 -4.13,10.933C-5.567,9.799 -6.484,8.088 -6.484,6.176C-6.484,4.264 -5.567,2.552 -4.13,1.418C-3.438,0.872 -2.622,0.465 -1.732,0.23C-1.18,0.083 -0.601,-0.001 0,-0.001C0.601,-0.001 1.18,0.083 1.732,0.23C4.468,0.954 6.484,3.342 6.484,6.176C6.484,9.582 3.576,12.353 0,12.353M0,-1.885C-4.615,-1.885 -8.369,1.73 -8.369,6.176C-8.369,10.621 -4.615,14.238 0,14.238C0.437,14.238 0.862,14.195 1.28,14.133C1.854,14.047 2.409,13.907 2.938,13.714C6.106,12.565 8.369,9.624 8.369,6.176C8.369,1.73 4.615,-1.885 0,-1.885" style="fill:rgb(47,40,57);fill-rule:nonzero;"/>
        </g>
        <g transform="matrix(1,0,0,1,207.15,253.304)">
            <path d="M0,0.032C-0.01,1.776 -1.555,3.193 -3.456,3.193C-5.362,3.193 -6.913,1.768 -6.913,0.016C-6.913,-1.736 -5.362,-3.16 -3.456,-3.16C-3.106,-3.16 -2.776,-3.099 -2.458,-3.01C-2.352,-3.323 -2.184,-3.607 -1.962,-3.843C-1.701,-4.122 -1.373,-4.33 -1.002,-4.453C-1.74,-4.819 -2.566,-5.045 -3.456,-5.045C-5.128,-5.045 -6.605,-4.298 -7.586,-3.154C-8.332,-2.283 -8.798,-1.19 -8.798,0.016C-8.798,1.222 -8.332,2.316 -7.586,3.186C-6.605,4.33 -5.128,5.077 -3.456,5.077C-0.51,5.077 1.886,2.806 1.886,0.016C1.886,-0.377 1.828,-0.756 1.738,-1.123C1.54,-0.774 1.257,-0.483 0.913,-0.277C0.64,-0.113 0.331,-0.007 0,0.032" style="fill:rgb(47,40,57);fill-rule:nonzero;"/>
        </g>
        <g transform="matrix(1,0,0,1,175.373,242.586)">
            <path d="M0,0C0,-0.521 -0.422,-0.942 -0.942,-0.942L-3.827,-0.942C-4.706,-0.25 -5.608,0.384 -6.526,0.942L-0.942,0.942C-0.422,0.942 0,0.521 0,0" style="fill:rgb(47,40,57);fill-rule:nonzero;"/>
        </g>
        <g transform="matrix(1,0,0,1,199.285,241.643)">
            <path d="M0,1.885L5.432,1.885C5.089,1.725 4.764,1.583 4.41,1.411C3.494,0.965 2.622,0.492 1.784,0L0,0C-0.521,0 -0.942,0.422 -0.942,0.943C-0.942,1.463 -0.521,1.885 0,1.885" style="fill:rgb(47,40,57);fill-rule:nonzero;"/>
        </g>
        <g transform="matrix(1,0,0,1,191.011,265.15)">
            <path d="M0,-1.885L-6.564,-1.885C-7.085,-1.885 -7.507,-1.463 -7.507,-0.943C-7.507,-0.542 -7.255,-0.205 -6.903,-0.069C-6.797,-0.028 -6.685,0 -6.564,0L0,0C0.094,0 0.179,-0.029 0.265,-0.054C0.654,-0.169 0.942,-0.516 0.942,-0.943C0.942,-1.463 0.521,-1.885 0,-1.885" style="fill:rgb(47,40,57);fill-rule:nonzero;"/>
        </g>
        <g transform="matrix(-0.488863,-0.872361,-0.872361,0.488863,155.673,208.39)">
            <path d="M-8.539,-14.936C-6.182,-8.607 -5.603,-1.923 -6.725,4.729C-6.927,5.925 -8.739,5.403 -8.539,4.217C-7.472,-2.108 -8.133,-8.481 -10.369,-14.485C-10.791,-15.618 -8.958,-16.063 -8.539,-14.936" style="fill:rgb(73,59,56);fill-rule:nonzero;"/>
        </g>
        <g transform="matrix(-1,0,0,1,176.978,209.686)">
            <path d="M-0.116,-1.885L0.001,-1.885C1.213,-1.885 1.215,0 0.001,0L-0.116,0C-1.329,0 -1.331,-1.885 -0.116,-1.885" style="fill:rgb(73,59,56);fill-rule:nonzero;"/>
        </g>
        <g transform="matrix(-0.964976,0.26234,0.26234,0.964976,221.968,227.245)">
            <path d="M1.432,-11.524C2.226,-12.446 3.566,-11.119 2.777,-10.204C0.578,-7.653 1.034,-3.402 1.432,-0.314C1.586,0.884 -0.3,0.869 -0.453,-0.32C-0.931,-4.028 -1.166,-8.511 1.432,-11.524" style="fill:rgb(73,59,56);fill-rule:nonzero;"/>
        </g>
        <g transform="matrix(1,0,0,1,172.542,301.563)">
            <path d="M0,-9.36C-1.392,-8.519 -2.615,-7.498 -3.677,-6.337C-5.086,-4.796 -6.204,-3.003 -6.98,-0.993C-7.417,0.14 -5.596,0.63 -5.163,-0.492C-4.275,-2.79 -2.842,-4.775 -0.995,-6.337C-0.389,-6.848 0.261,-7.316 0.951,-7.733C1.988,-8.359 1.042,-9.99 0,-9.36" style="fill:rgb(201,74,45);fill-rule:nonzero;"/>
        </g>
    </g>
</svg>
